<?xml version="1.0" standalone="no"?>
<!DOCTYPE svg PUBLIC "-//W3C//DTD SVG 1.1//EN" "http://www.w3.org/Graphics/SVG/1.1/DTD/svg11.dtd" >
<svg>
<metadata>
Created by FontForge 20090622 at Tue Dec  5 09:20:42 2017
 By deploy user
Copyright (c) 2017 by Hyun-Seung Lee. All rights reserved.
</metadata>
<defs>
<font id="CarosSoftHeavy" horiz-adv-x="815" >
  <font-face 
    font-family="Caros Soft Heavy"
    font-weight="800"
    font-stretch="normal"
    units-per-em="2000"
    panose-1="2 15 9 3 3 3 2 2 2 4"
    ascent="1600"
    descent="-400"
    x-height="1036"
    cap-height="1400"
    bbox="-823 -524.588 2516 2012.13"
    underline-thickness="48"
    underline-position="-366"
    unicode-range="U+0009-U+FB04"
  />
<missing-glyph horiz-adv-x="1000" 
d="M170 0q-80 0 -80 80v1340q0 80 80 80h660q80 0 80 -80v-1340q0 -80 -80 -80h-660zM615 280v940h-230v-940h230z" />
    <glyph glyph-name="ff" unicode="ff" horiz-adv-x="1551" 
d="M1511 1264q0 -81 -49 -78q-34 2 -49 2q-53 0 -80 -25t-27 -71v-56h125q80 0 80 -80v-157q0 -80 -80 -80h-125v-639q0 -80 -80 -80h-209q-80 0 -80 80v639h-390v-639q0 -80 -80 -80h-209q-80 0 -80 80v639h-70q-80 0 -80 80v157q0 80 80 80h70v62q0 176 100 269t293 93
q96 0 184 -17q73 -15 62 -93l-14 -102q-10 -79 -79 -67q-42 7 -70 7q-52 0 -79.5 -25t-27.5 -71v-56h390v62q0 176 99 269t291 93q53 0 110 -5q74 -6 74 -84v-107z" />
    <glyph glyph-name="fi" unicode="fi" horiz-adv-x="1421" 
d="M915 1301q0 82 59 137t147 55q87 0 146 -55t59 -137t-59 -137t-146 -55q-88 0 -147 55t-59 137zM1305 80q0 -80 -80 -80h-209q-80 0 -80 80v638h-389v-638q0 -80 -80 -80h-210q-80 0 -80 80v638h-70q-80 0 -80 80v158q0 80 80 80h70v62q0 176 99.5 269t291.5 93
q82 0 175 -17q73 -15 65 -92q-8 -63 -11 -101q-9 -78 -75 -69q-35 6 -67 6q-108 0 -108 -95v-56h678q80 0 80 -80v-876z" />
    <glyph glyph-name="fl" unicode="fl" horiz-adv-x="1389" 
d="M791 798q0 -80 -80 -80h-164v-638q0 -80 -80 -80h-210q-80 0 -80 80v638h-77q-80 0 -80 80v158q0 80 80 80h77v62q0 176 99.5 267.5t291.5 91.5q198 0 336 -103v26q0 80 80 80h210q80 0 80 -80v-1300q0 -80 -80 -80h-210q-80 0 -80 80v1028q-107 79 -250 79
q-53 0 -80 -24.5t-27 -70.5v-56h164q80 0 80 -80v-158z" />
    <glyph glyph-name="ffi" unicode="ffi" horiz-adv-x="2179" 
d="M1674 1301q0 82 59 137t146 55t146 -55t59 -137t-59 -137t-146 -55t-146 55t-59 137zM1514 1263q0 -81 -50 -78q-17 2 -50 2q-108 0 -108 -95v-56h677q80 0 80 -80v-876q0 -80 -80 -80h-209q-80 0 -80 80v638h-388v-638q0 -80 -80 -80h-210q-80 0 -80 80v638h-389v-638
q0 -80 -80 -80h-210q-80 0 -80 80v638h-70q-80 0 -80 80v158q0 80 80 80h70v62q0 176 100 269t294 93q90 0 182 -18q75 -15 64 -93l-14 -102q-10 -79 -80 -66q-36 6 -69 6q-53 0 -80 -24.5t-27 -70.5v-56h389v62q0 176 99.5 269t291.5 93q56 0 113 -5q74 -8 74 -85v-107z
" />
    <glyph glyph-name="ffl" unicode="ffl" horiz-adv-x="2148" 
d="M1517 798q0 -80 -80 -80h-131v-638q0 -80 -80 -80h-210q-80 0 -80 80v638h-389v-638q0 -80 -80 -80h-210q-80 0 -80 80v638h-70q-80 0 -80 80v158q0 80 80 80h70v62q0 359 411 359q103 0 200 -25q71 -20 57 -96l-17 -96q-13 -77 -93 -61q-43 8 -81 8q-53 0 -80 -24.5
t-27 -70.5v-56h389v62q0 176 99.5 267.5t291.5 91.5q90 0 179.5 -26t156.5 -77v26q0 80 80 80h210q80 0 80 -80v-1300q0 -80 -80 -80h-210q-80 0 -80 80v1028q-109 79 -250 79q-53 0 -80 -24.5t-27 -70.5v-56h131q80 0 80 -80v-158z" />
    <glyph glyph-name=".notdef" horiz-adv-x="1000" 
d="M170 0q-80 0 -80 80v1340q0 80 80 80h660q80 0 80 -80v-1340q0 -80 -80 -80h-660zM615 280v940h-230v-940h230z" />
    <glyph glyph-name=".null" horiz-adv-x="0" 
 />
    <glyph glyph-name=".null" horiz-adv-x="0" 
 />
    <glyph glyph-name="nonmarkingreturn" horiz-adv-x="666" 
 />
    <glyph glyph-name="CR" unicode="&#x9;" horiz-adv-x="0" 
 />
    <glyph glyph-name="space" unicode=" " horiz-adv-x="609" 
 />
    <glyph glyph-name="exclam" unicode="!" horiz-adv-x="633" 
d="M130 1318q-2 39 18 60.5t60 21.5h217q40 0 60 -21.5t18 -60.5l-39 -791q-5 -78 -82 -78h-131q-77 0 -82 78zM93 177q0 85 64 143t159 58q96 0 160 -58t64 -143t-64 -143t-160 -58q-95 0 -159 58t-64 143z" />
    <glyph glyph-name="quotedbl" unicode="&#x22;" horiz-adv-x="997" 
d="M115 1316q-4 40 16 62t60 22h182q40 0 60 -22t16 -62l-32 -326q-8 -76 -83 -76h-104q-75 0 -83 76zM548 1316q-4 40 16 62t60 22h182q40 0 60 -22t16 -62l-32 -326q-8 -76 -83 -76h-104q-75 0 -83 76z" />
    <glyph glyph-name="numbersign" unicode="#" horiz-adv-x="1401" 
d="M1202 1112h61q80 0 80 -80v-121q0 -80 -80 -80h-109l-47 -271h82q80 0 80 -80v-121q0 -80 -80 -80h-130l-36 -206q-12 -73 -86 -73h-180q-41 0 -60.5 22.5t-12.5 63.5l33 193h-177l-35 -206q-12 -73 -86 -73h-181q-41 0 -60.5 22.5t-12.5 63.5l33 193h-61q-80 0 -80 80
v121q0 80 80 80h109l47 271h-82q-80 0 -80 80v121q0 80 80 80h130l37 215q12 73 86 73h181q41 0 60.5 -22.5t12.5 -63.5l-35 -202h176l37 215q12 73 87 73h180q41 0 60.5 -22.5t12.5 -63.5zM588 560h176l48 271h-177z" />
    <glyph glyph-name="dollar" unicode="$" horiz-adv-x="1206" 
d="M1147 427q0 -152 -91.5 -267.5t-250.5 -160.5q1 -6 1 -19v-104q0 -80 -80 -80h-208q-80 0 -80 80v104q0 14 3 26q-164 54 -298 207q-47 56 2 113l51 58q50 56 113 9q140 -104 294 -104q73 0 118 32t45 82q0 54 -50.5 91.5t-189.5 67.5q-193 42 -306 153.5t-113 273.5
q0 146 84 255.5t228 153.5q-1 6 -1 19v107q0 80 80 80h208q80 0 80 -80v-107q0 -13 -1 -18q126 -38 210.5 -124t110.5 -211q9 -40 -12 -62.5t-62 -22.5h-208q-33 0 -52 16t-36 52q-35 70 -119 70q-58 0 -93.5 -27.5t-35.5 -69.5q0 -51 47 -90.5t166 -66.5
q217 -50 331.5 -158.5t114.5 -277.5z" />
    <glyph glyph-name="percent" unicode="%" horiz-adv-x="1851" 
d="M1147 1379q38 73 108 33l59 -33q69 -38 33 -108l-648 -1258q-37 -71 -108 -33l-60 33q-69 38 -33 108zM81 1050q0 153 110.5 258.5t273.5 105.5t273.5 -105.5t110.5 -258.5q0 -152 -110.5 -257.5t-273.5 -105.5t-273.5 105.5t-110.5 257.5zM362 1050q0 -43 29 -72.5
t74 -29.5t74 29.5t29 72.5q0 44 -29 73.5t-74 29.5t-74 -29.5t-29 -73.5zM1002 350q0 152 110.5 257.5t273.5 105.5t273.5 -105.5t110.5 -257.5q0 -153 -110.5 -258.5t-273.5 -105.5t-273.5 105.5t-110.5 258.5zM1283 350q0 -44 29 -73.5t74 -29.5t74 29.5t29 73.5
q0 43 -29 72.5t-74 29.5t-74 -29.5t-29 -72.5z" />
    <glyph glyph-name="ampersand" unicode="&#x26;" horiz-adv-x="1502" 
d="M812 1034q-32 0 -52 15t-41 48q-33 49 -92 49q-35 0 -58 -22.5t-23 -55.5q0 -87 161 -245l255 -251q20 55 31 109q17 77 92 66l178 -25q82 -11 67 -91q-35 -171 -118 -310l105 -104q57 -57 -1 -113l-107 -103q-58 -55 -113 0l-96 94q-171 -119 -391 -119
q-223 0 -370.5 111t-147.5 278q0 243 236 405q-75 86 -104 153t-29 142q0 152 124.5 255.5t306.5 103.5q166 0 285 -82.5t162 -219.5q12 -40 -9 -63.5t-63 -23.5zM609 257q96 0 173 56l-245 241q-90 -75 -90 -166q0 -56 45 -93.5t117 -37.5z" />
    <glyph glyph-name="quotesingle" unicode="'" horiz-adv-x="594" 
d="M131 1316q-4 40 16 62t60 22h181q40 0 60 -22t16 -62l-31 -326q-7 -76 -83 -76h-105q-76 0 -83 76z" />
    <glyph glyph-name="parenleft" unicode="(" horiz-adv-x="885" 
d="M189 610q0 249 90 480.5t251 404.5q50 54 112 12l123 -81q66 -44 19 -112q-104 -148 -159 -329t-55 -375q0 -195 55 -376t159 -329q47 -68 -19 -112l-123 -81q-63 -41 -109 8q-162 173 -253 406t-91 484z" />
    <glyph glyph-name="parenright" unicode=")" horiz-adv-x="885" 
d="M696 610q0 -250 -90 -481.5t-251 -404.5q-50 -54 -112 -12l-122 81q-67 44 -19 112q104 148 158.5 329t54.5 376q0 194 -55 375t-158 329q-48 68 19 112l122 81q62 42 109 -8q162 -174 253 -406.5t91 -482.5z" />
    <glyph glyph-name="asterisk" unicode="*" horiz-adv-x="1138" 
d="M968 602q77 -34 36 -108l-68 -122q-40 -74 -110 -25l-126 88l16 -153q5 -40 -15.5 -62t-60.5 -22h-143q-40 0 -60.5 22t-15.5 62l16 153l-126 -88q-70 -49 -110 25l-68 122q-41 74 36 108l142 61l-142 61q-77 34 -36 108l68 122q40 74 110 25l126 -88l-16 153
q-5 40 15.5 62t60.5 22h143q40 0 60.5 -22t15.5 -62l-16 -153l126 88q70 49 110 -25l68 -122q41 -74 -36 -108l-142 -61z" />
    <glyph glyph-name="plus" unicode="+" horiz-adv-x="1178" 
d="M408 501h-215q-80 0 -80 80v165q0 80 80 80h215v226q0 80 80 80h201q80 0 80 -80v-226h215q80 0 80 -80v-165q0 -80 -80 -80h-215v-227q0 -80 -80 -80h-201q-80 0 -80 80v227z" />
    <glyph glyph-name="comma" unicode="," horiz-adv-x="609" 
d="M93 195q0 70 59.5 127.5t156.5 57.5q90 0 149 -59.5t59 -155.5q0 -147 -85 -275.5t-255 -204.5q-67 -30 -108 34q-32 50 37 99q55 39 82 71.5t27.5 64t-16.5 60t-55 64.5q-51 48 -51 117z" />
    <glyph glyph-name="hyphen" unicode="-" horiz-adv-x="860" 
d="M194 499q-80 0 -80 80v170q0 80 80 80h472q80 0 80 -80v-170q0 -80 -80 -80h-472z" />
    <glyph glyph-name="period" unicode="." horiz-adv-x="609" 
d="M92 178q0 86 60 144t152 58t152.5 -58t60.5 -144t-60.5 -144t-152.5 -58t-152 58t-60 144z" />
    <glyph glyph-name="slash" unicode="/" horiz-adv-x="1023" 
d="M361 -268q-30 -75 -104 -46l-174 68q-74 29 -45 103l628 1631q29 74 104 45l170 -67q74 -29 46 -103z" />
    <glyph glyph-name="zero" unicode="0" horiz-adv-x="1218" 
d="M93 700q0 213 58.5 375t176.5 255.5t281 93.5q162 0 280 -93.5t177 -255.5t59 -375t-59 -375t-177 -255.5t-280 -93.5q-163 0 -281 93.5t-176.5 255.5t-58.5 375zM457 700q0 -184 38.5 -285.5t113.5 -101.5t113.5 101.5t38.5 285.5t-38.5 285.5t-113.5 101.5
t-113.5 -101.5t-38.5 -285.5z" />
    <glyph glyph-name="one" unicode="1" horiz-adv-x="1218" 
d="M791 1400q80 0 80 -80v-1240q0 -80 -80 -80h-220q-80 0 -80 80v974l-143 -78q-69 -38 -108 32l-58 106q-38 69 32 108l281 153q45 25 99 25h197z" />
    <glyph glyph-name="two" unicode="2" horiz-adv-x="1218" 
d="M635 326h364q80 0 80 -80v-166q0 -80 -80 -80h-746q-80 0 -80 80v164q0 57 38 99l424 467q45 50 65 88t20 80q0 50 -31 82t-80 32q-74 0 -104 -69q-16 -38 -34.5 -54.5t-52.5 -16.5h-197q-41 0 -62 22t-15 62q29 173 158 280.5t324 107.5q201 0 334 -112.5t133 -286.5
q0 -196 -178 -392z" />
    <glyph glyph-name="three" unicode="3" horiz-adv-x="1218" 
d="M710 462q0 68 -47 114.5t-117 46.5h-5q-39 -2 -62.5 5t-42.5 31l-56 71q-47 58 4 112l225 239h-359q-80 0 -80 80v159q0 80 80 80h696q80 0 80 -80v-174q0 -58 -41 -99l-217 -212q152 -44 239 -155.5t87 -264.5q0 -187 -140 -313t-375 -126q-124 0 -236 57t-200 167
q-46 58 8 113l66 69q51 54 114 1q98 -83 215 -83q66 0 115 48t49 114z" />
    <glyph glyph-name="four" unicode="4" horiz-adv-x="1218" 
d="M64 480q0 53 30 99l507 769q34 52 96 52h201q80 0 80 -80v-769h70q80 0 80 -80v-156q0 -80 -80 -80h-70v-155q0 -80 -80 -80h-204q-80 0 -80 80v155h-470q-80 0 -80 80v165zM614 551v377l-246 -377h246z" />
    <glyph glyph-name="five" unicode="5" horiz-adv-x="1218" 
d="M601 1081q-8 -68 -23 -181q30 2 46 2q132 0 241.5 -56t175 -159t65.5 -232q0 -206 -141 -342.5t-373 -136.5q-268 0 -450 214q-47 56 4 112l67 73q48 54 113 8q111 -81 228 -81q69 0 120 48.5t51 116.5q0 70 -48 117.5t-119 47.5q-39 0 -77 -18q-33 -18 -54.5 -24.5
t-49.5 -3.5l-137 18q-79 11 -70 89l76 632q9 75 84 75h644q80 0 80 -80v-159q0 -80 -80 -80h-373z" />
    <glyph glyph-name="six" unicode="6" horiz-adv-x="1218" 
d="M688 918q86 -4 167.5 -40.5t143.5 -96.5t99.5 -144t37.5 -177q0 -136 -70.5 -247.5t-191.5 -174t-265 -62.5q-222 0 -375.5 139t-153.5 345q0 140 70 248l418 640q34 52 96 52h223q49 0 63.5 -28t-11.5 -69zM442 463q0 -74 48 -123.5t118 -49.5q71 0 119 49.5t48 123.5
t-48 123.5t-119 49.5q-70 0 -118 -49.5t-48 -123.5z" />
    <glyph glyph-name="seven" unicode="7" horiz-adv-x="1218" 
d="M1002 1400q80 0 80 -80v-156q0 -52 -19 -98l-411 -1004q-25 -62 -92 -62h-227q-45 0 -62 26t0 67l410 980h-451q-80 0 -80 80v167q0 80 80 80h772z" />
    <glyph glyph-name="eight" unicode="8" horiz-adv-x="1218" 
d="M1070 1021q0 -84 -40.5 -156t-110.5 -111q97 -43 152.5 -135.5t55.5 -197.5q0 -189 -149 -317t-369 -128t-369 128t-149 317q0 105 55.5 197.5t152.5 135.5q-70 39 -110.5 111t-40.5 156q0 170 131.5 286.5t329.5 116.5t329.5 -116.5t131.5 -286.5zM486 1009
q0 -51 35 -86.5t88 -35.5t88 35.5t35 86.5q0 52 -35 87t-88 35t-88 -35t-35 -87zM446 438q0 -71 47.5 -117t115.5 -46t115.5 46t47.5 117t-47.5 117.5t-115.5 46.5t-115.5 -46.5t-47.5 -117.5z" />
    <glyph glyph-name="nine" unicode="9" horiz-adv-x="1218" 
d="M529 483q-86 4 -167.5 40.5t-143.5 96.5t-99.5 144t-37.5 177q0 136 70.5 247.5t191.5 174t265 62.5q222 0 375.5 -139t153.5 -345q0 -140 -70 -248l-418 -640q-34 -52 -96 -52h-223q-49 0 -63.5 28.5t11.5 68.5zM775 938q0 74 -48 123.5t-118 49.5q-71 0 -119 -49.5
t-48 -123.5t48 -123.5t119 -49.5q70 0 118 49.5t48 123.5z" />
    <glyph glyph-name="colon" unicode=":" horiz-adv-x="609" 
d="M92 858q0 86 60 144t152 58t152.5 -58t60.5 -144t-60.5 -144t-152.5 -58t-152 58t-60 144zM92 178q0 86 60 144t152 58t152.5 -58t60.5 -144t-60.5 -144t-152.5 -58t-152 58t-60 144z" />
    <glyph glyph-name="semicolon" unicode=";" horiz-adv-x="609" 
d="M92 858q0 86 60 144t152 58t152.5 -58t60.5 -144t-60.5 -144t-152.5 -58t-152 58t-60 144zM93 195q0 70 59.5 127.5t156.5 57.5q90 0 149.5 -59.5t59.5 -155.5q0 -147 -85.5 -275.5t-255.5 -204.5q-68 -30 -108 35q-30 49 37 98q55 39 82 71.5t27.5 64t-16.5 60t-55 64.5
q-51 48 -51 117z" />
    <glyph glyph-name="less" unicode="&#x3c;" horiz-adv-x="1177" 
d="M877 1196q69 38 109 -30l58 -100q38 -67 -26 -110l-446 -293l446 -292q64 -43 26 -110l-58 -100q-41 -69 -109 -31l-712 394q-56 32 -56 95v88q0 63 56 95z" />
    <glyph glyph-name="equal" unicode="=" horiz-adv-x="1178" 
d="M194 743q-80 0 -80 80v159q0 80 80 80h790q80 0 80 -80v-159q0 -80 -80 -80h-790zM194 265q-80 0 -80 80v160q0 80 80 80h790q80 0 80 -80v-160q0 -80 -80 -80h-790z" />
    <glyph glyph-name="greater" unicode="&#x3e;" horiz-adv-x="1177" 
d="M1011 802q56 -32 56 -95v-88q0 -63 -56 -95l-712 -394q-69 -38 -109 30l-58 101q-38 67 26 110l446 292l-446 293q-65 44 -26 110l58 100q40 68 109 30z" />
    <glyph glyph-name="question" unicode="?" horiz-adv-x="1120" 
d="M415 449q-40 0 -61 21.5t-17 61.5q12 118 69.5 192.5t189.5 149.5q44 25 59.5 51.5t15.5 68.5q0 34 -28.5 61.5t-72.5 27.5q-86 0 -119 -75q-17 -38 -34.5 -54.5t-51.5 -16.5h-209q-41 0 -62 22t-15 61q26 188 162 296t337 108q209 0 342 -124t133 -301q0 -128 -60 -215
t-199 -165q-59 -33 -73 -93q-9 -39 -28 -58t-55 -19h-223zM317 177q0 85 64 143t159 58q96 0 159.5 -58t63.5 -143t-63.5 -143t-159.5 -58q-95 0 -159 58t-64 143z" />
    <glyph glyph-name="at" unicode="@" horiz-adv-x="1949" 
d="M494 537q0 189 107 315.5t273 126.5q139 0 230 -98q0 78 80 78h150q80 0 80 -80v-448q0 -42 25.5 -64.5t60.5 -22.5q62 0 106.5 70t44.5 181q0 164 -91 308.5t-248.5 231.5t-341.5 87q-139 0 -263.5 -52.5t-214.5 -142t-142.5 -214t-52.5 -263.5q0 -187 89.5 -340.5
t250 -242.5t359.5 -89q217 0 402 103q72 42 109 -30l20 -38q36 -71 -31 -109q-228 -128 -500 -128q-198 0 -372 67.5t-297 184t-193.5 278.5t-70.5 344q0 242 120.5 443t328.5 316t458 115q194 0 365.5 -68t291 -182t189 -267t69.5 -319q0 -224 -120 -357.5t-342 -133.5
q-101 0 -175 34t-112 96q-91 -132 -262 -132q-166 0 -273 126.5t-107 315.5zM806 537q0 -76 42 -125.5t106 -49.5q68 0 108.5 48.5t40.5 126.5t-40.5 126.5t-108.5 48.5q-64 0 -106 -49.5t-42 -125.5z" />
    <glyph glyph-name="A" unicode="A" horiz-adv-x="1397" 
d="M836 1400q69 0 91 -65l418 -1244q14 -41 -3.5 -66t-61.5 -25h-225q-71 0 -90 67l-58 201h-419l-58 -201q-19 -67 -89 -67h-225q-44 0 -61.5 25t-3.5 66l418 1244q22 65 91 65h276zM568 557h260l-130 449z" />
    <glyph glyph-name="B" unicode="B" horiz-adv-x="1264" 
d="M220 0q-80 0 -80 80v1240q0 80 80 80h477q196 0 315.5 -105.5t119.5 -274.5q0 -98 -49 -176t-131 -111q111 -30 177.5 -116.5t66.5 -207.5q0 -178 -124 -293.5t-316 -115.5h-536zM790 978q0 58 -33.5 91.5t-86.5 33.5h-164v-249h164q53 0 86.5 33.5t33.5 90.5zM824 432
q0 60 -36.5 98t-93.5 38h-188v-271h188q57 0 93.5 37.5t36.5 97.5z" />
    <glyph glyph-name="C" unicode="C" horiz-adv-x="1514" 
d="M805 -24q-206 0 -374.5 95.5t-264.5 261.5t-96 367q0 205 90 370t254 259.5t371 94.5q225 0 394.5 -114.5t239.5 -322.5q13 -41 -6.5 -65.5t-62.5 -24.5h-241q-61 0 -92 63q-34 64 -93 99.5t-132 35.5q-153 0 -246.5 -111.5t-93.5 -283.5q0 -171 101.5 -283.5
t258.5 -112.5q214 0 362 158q52 57 112 13l81 -60q62 -47 23 -108q-221 -331 -585 -331z" />
    <glyph glyph-name="D" unicode="D" horiz-adv-x="1450" 
d="M220 0q-80 0 -80 80v1240q0 80 80 80h457q206 0 366 -88t248 -247.5t88 -364.5q0 -206 -88 -365t-248 -247t-366 -88h-457zM647 328q162 0 256 98t94 274t-94 273.5t-256 97.5h-127v-743h127z" />
    <glyph glyph-name="E" unicode="E" horiz-adv-x="1158" 
d="M140 1320q0 80 80 80h752q80 0 80 -80v-158q0 -80 -80 -80h-451v-222h403q80 0 80 -80v-152q0 -80 -80 -80h-403v-230h469q80 0 80 -80v-158q0 -80 -80 -80h-770q-80 0 -80 80v1240z" />
    <glyph glyph-name="F" unicode="F" horiz-adv-x="1090" 
d="M140 1320q0 80 80 80h732q80 0 80 -80v-164q0 -80 -80 -80h-431v-255h383q80 0 80 -80v-164q0 -80 -80 -80h-383v-417q0 -80 -80 -80h-221q-80 0 -80 80v1240z" />
    <glyph glyph-name="G" unicode="G" horiz-adv-x="1533" 
d="M1382 762q80 0 80 -62q0 -334 -185 -529t-490 -195q-144 0 -276 56.5t-228.5 152.5t-154 230.5t-57.5 284.5t55.5 284.5t150.5 230.5t228 152.5t282 56.5q224 0 390.5 -106.5t243.5 -319.5q15 -41 -4 -66t-63 -25h-244q-60 0 -94 61q-74 128 -235 128q-135 0 -232 -112
t-97 -284t97 -284t245 -112q104 0 177.5 53.5t101.5 144.5h-236q-80 0 -80 80v100q0 80 80 80h545z" />
    <glyph glyph-name="H" unicode="H" horiz-adv-x="1429" 
d="M140 1320q0 80 80 80h221q80 0 80 -80v-452h387v452q0 80 80 80h220q80 0 80 -80v-1240q0 -80 -80 -80h-220q-80 0 -80 80v460h-387v-460q0 -80 -80 -80h-221q-80 0 -80 80v1240z" />
    <glyph glyph-name="I" unicode="I" horiz-adv-x="666" 
d="M523 80q0 -80 -80 -80h-221q-80 0 -80 80v1240q0 80 80 80h221q80 0 80 -80v-1240z" />
    <glyph glyph-name="J" unicode="J" horiz-adv-x="943" 
d="M436 1320q0 80 80 80h220q80 0 80 -80v-874q0 -229 -118.5 -349.5t-303.5 -120.5q-176 0 -320 90q-59 37 -32 107l41 105q27 69 103 43q49 -17 97 -17q70 0 111.5 45.5t41.5 126.5v844z" />
    <glyph glyph-name="K" unicode="K" horiz-adv-x="1287" 
d="M1147 1400q39 0 59.5 -21t19.5 -61q-17 -459 -236 -632l291 -591q20 -42 3.5 -68.5t-62.5 -26.5h-236q-65 0 -93 59l-247 512h-125v-491q0 -80 -80 -80h-221q-80 0 -80 80v1240q0 80 80 80h221q80 0 80 -80v-421h49q132 0 199 98t77 320q5 83 81 83h220z" />
    <glyph glyph-name="L" unicode="L" horiz-adv-x="1055" 
d="M140 1320q0 80 80 80h221q80 0 80 -80v-993h429q80 0 80 -80v-167q0 -80 -80 -80h-730q-80 0 -80 80v1240z" />
    <glyph glyph-name="M" unicode="M" horiz-adv-x="1799" 
d="M857 218q-65 0 -94 59l-274 563v-760q0 -80 -80 -80h-189q-80 0 -80 80v1240q0 80 80 80h252q65 0 93 -59l335 -696l334 696q27 59 93 59h252q80 0 80 -80v-1240q0 -80 -80 -80h-188q-80 0 -80 80v760l-275 -563q-29 -59 -94 -59h-85z" />
    <glyph glyph-name="N" unicode="N" horiz-adv-x="1429" 
d="M140 1320q0 80 80 80h263q66 0 93 -60l364 -795v775q0 80 80 80h188q80 0 80 -80v-1240q0 -80 -80 -80h-262q-66 0 -93 60l-364 795v-775q0 -80 -80 -80h-189q-80 0 -80 80v1240z" />
    <glyph glyph-name="O" unicode="O" horiz-adv-x="1664" 
d="M71 700q0 201 99.5 367t274.5 261.5t387 95.5t387 -95.5t274.5 -261.5t99.5 -367t-99.5 -367t-274.5 -261.5t-387 -95.5t-387 95.5t-274.5 261.5t-99.5 367zM452 700q0 -169 109 -282.5t271 -113.5t271 113.5t109 282.5t-109 282.5t-271 113.5t-271 -113.5t-109 -282.5z
" />
    <glyph glyph-name="P" unicode="P" horiz-adv-x="1228" 
d="M520 447v-367q0 -80 -80 -80h-220q-80 0 -80 80v1240q0 80 80 80h461q217 0 358 -135t141 -342q0 -206 -141 -341t-358 -135h-161zM632 742q71 0 123.5 52.5t52.5 128.5q0 81 -48 131.5t-128 50.5h-112v-363h112z" />
    <glyph glyph-name="Q" unicode="Q" horiz-adv-x="1664" 
d="M1432 247l125 -139q54 -61 -7 -113l-156 -131q-61 -51 -113 7l-147 161q-143 -56 -302 -56q-212 0 -387 95.5t-274.5 261.5t-99.5 367t99.5 367t274.5 261.5t387 95.5t387 -95.5t274.5 -261.5t99.5 -367q0 -257 -161 -453zM452 700q0 -169 109 -282.5t271 -113.5
t271 113.5t109 282.5t-109 282.5t-271 113.5t-271 -113.5t-109 -282.5z" />
    <glyph glyph-name="R" unicode="R" horiz-adv-x="1268" 
d="M514 477v-397q0 -80 -80 -80h-214q-80 0 -80 80v1240q0 80 80 80h461q218 0 358.5 -128.5t140.5 -333.5q0 -137 -66 -241.5t-183 -160.5l239 -441q22 -42 6.5 -68.5t-62.5 -26.5h-238q-65 0 -94 58l-212 419h-56zM635 751q68 0 120.5 51.5t52.5 125.5q0 80 -47.5 128.5
t-125.5 48.5h-121v-354h121z" />
    <glyph glyph-name="S" unicode="S" horiz-adv-x="1206" 
d="M196 384q50 56 113 9q140 -104 294 -104q73 0 118 32t45 82q0 54 -50.5 91.5t-189.5 67.5q-193 42 -306 153.5t-113 273.5q0 189 137 312t356 123q195 0 333 -95.5t173 -264.5q9 -40 -12 -62.5t-62 -22.5h-208q-33 0 -52 16t-36 52q-35 70 -119 70q-58 0 -93.5 -27.5
t-35.5 -69.5q0 -51 47 -90.5t166 -66.5q217 -50 331.5 -158.5t114.5 -277.5q0 -194 -143.5 -322.5t-377.5 -128.5q-277 0 -483 237q-47 56 2 113z" />
    <glyph glyph-name="T" unicode="T" horiz-adv-x="1123" 
d="M371 1073h-246q-80 0 -80 80v167q0 80 80 80h873q80 0 80 -80v-167q0 -80 -80 -80h-246v-993q0 -80 -80 -80h-221q-80 0 -80 80v993z" />
    <glyph glyph-name="U" unicode="U" horiz-adv-x="1351" 
d="M507 468q0 -71 47.5 -116.5t120.5 -45.5t120 45.5t47 116.5v852q0 80 80 80h221q80 0 80 -80v-870q0 -133 -73 -241.5t-198.5 -169.5t-276.5 -61t-276.5 61t-198.5 169.5t-73 241.5v870q0 80 80 80h220q80 0 80 -80v-852z" />
    <glyph glyph-name="V" unicode="V" horiz-adv-x="1397" 
d="M560 0q-69 0 -91 65l-418 1244q-14 41 3.5 66t61.5 25h224q71 0 90 -67l268 -908l268 908q19 67 90 67h224q44 0 61.5 -25t3.5 -66l-418 -1244q-22 -65 -91 -65h-276z" />
    <glyph glyph-name="W" unicode="W" horiz-adv-x="1995" 
d="M1117 1400q73 0 88 -70l186 -834l178 833q15 71 87 71h227q43 0 61.5 -24t7.5 -65l-327 -1242q-18 -69 -89 -69h-248q-72 0 -88 69l-202 819l-203 -819q-17 -69 -88 -69h-248q-71 0 -89 69l-327 1242q-11 41 7.5 65t61.5 24h227q72 0 87 -71l178 -833l187 834
q15 70 88 70h238z" />
    <glyph glyph-name="X" unicode="X" horiz-adv-x="1317" 
d="M658 975l176 366q28 59 93 59h240q47 0 63 -27t-6 -68l-322 -586l346 -623q23 -42 7 -69t-63 -27h-240q-66 0 -94 58l-200 405l-200 -405q-28 -58 -94 -58h-241q-47 0 -63 27t7 69l347 623l-322 586q-22 41 -6 68t63 27h240q65 0 93 -59z" />
    <glyph glyph-name="Y" unicode="Y" horiz-adv-x="1327" 
d="M664 894l203 446q27 60 93 60h239q47 0 63.5 -27t-5.5 -68l-403 -761v-464q0 -80 -80 -80h-221q-80 0 -80 80v464l-403 761q-22 41 -5.5 68t63.5 27h239q66 0 93 -60z" />
    <glyph glyph-name="Z" unicode="Z" horiz-adv-x="1232" 
d="M672 1073h-463q-80 0 -80 80v167q0 80 80 80h834q80 0 80 -80v-162q0 -53 -33 -99l-540 -732h513q80 0 80 -80v-167q0 -80 -80 -80h-884q-80 0 -80 80v162q0 53 33 99z" />
    <glyph glyph-name="bracketleft" unicode="[" horiz-adv-x="885" 
d="M181 1420q0 80 80 80h512q80 0 80 -80v-167q0 -80 -80 -80h-211v-1126h211q80 0 80 -80v-167q0 -80 -80 -80h-512q-80 0 -80 80v1620z" />
    <glyph glyph-name="backslash" unicode="\" horiz-adv-x="1023" 
d="M38 1363q-28 74 45 103l171 68q74 29 104 -46l627 -1631q28 -74 -45 -103l-173 -68q-74 -29 -104 46z" />
    <glyph glyph-name="bracketright" unicode="]" horiz-adv-x="885" 
d="M704 -200q0 -80 -80 -80h-511q-80 0 -80 80v167q0 80 80 80h210v1126h-210q-80 0 -80 80v167q0 80 80 80h511q80 0 80 -80v-1620z" />
    <glyph glyph-name="asciicircum" unicode="^" horiz-adv-x="1258" 
d="M722 1416q62 0 96 -52l235 -360q41 -64 -19 -111l-56 -44q-61 -47 -113 10l-236 262l-236 -262q-52 -57 -113 -10l-56 44q-60 47 -19 111l235 360q34 52 96 52h186z" />
    <glyph glyph-name="underscore" unicode="_" horiz-adv-x="1000" 
d="M0 -189q0 80 80 80h840q80 0 80 -80v-160q0 -80 -80 -80h-840q-80 0 -80 80v160z" />
    <glyph glyph-name="grave" unicode="`" horiz-adv-x="870" 
d="M228 1305q-29 28 -27 58t33 55l100 82q31 26 60.5 21.5t51.5 -38.5l150 -227q42 -64 -18 -112l-44 -35q-60 -47 -113 6z" />
    <glyph glyph-name="a" unicode="a" horiz-adv-x="1322" 
d="M56 518q0 231 133.5 386.5t339.5 155.5q187 0 314 -129v25q0 80 80 80h200q80 0 80 -80v-876q0 -80 -80 -80h-200q-80 0 -80 80v25q-127 -129 -314 -129q-206 0 -339.5 155.5t-133.5 386.5zM419 518q0 -93 61.5 -157t150.5 -64t150.5 64t61.5 157t-61.5 157t-150.5 64
t-150.5 -64t-61.5 -157z" />
    <glyph glyph-name="b" unicode="b" horiz-adv-x="1322" 
d="M1266 518q0 -231 -133 -386.5t-340 -155.5q-188 0 -314 129v-25q0 -80 -80 -80h-200q-80 0 -80 80v1300q0 80 80 80h200q80 0 80 -80v-449q126 129 314 129q207 0 340 -155.5t133 -386.5zM903 518q0 94 -61 157.5t-150 63.5q-90 0 -151.5 -64t-61.5 -157t61.5 -157
t151.5 -64q89 0 150 63.5t61 157.5z" />
    <glyph glyph-name="c" unicode="c" horiz-adv-x="1180" 
d="M1046 340q60 -49 20 -111q-163 -253 -448 -253q-153 0 -282.5 71.5t-204.5 196t-75 274.5q0 229 157.5 385.5t391.5 156.5q181 0 311.5 -90.5t184.5 -244.5q14 -40 -6 -64.5t-63 -24.5h-211q-30 0 -50 13t-46 42q-43 48 -120 48t-131.5 -64t-54.5 -157q0 -97 60.5 -159
t168.5 -62q125 0 229 84q58 49 112 5z" />
    <glyph glyph-name="d" unicode="d" horiz-adv-x="1322" 
d="M56 518q0 231 133.5 386.5t339.5 155.5q187 0 314 -129v449q0 80 80 80h200q80 0 80 -80v-1300q0 -80 -80 -80h-200q-80 0 -80 80v25q-127 -129 -314 -129q-206 0 -339.5 155.5t-133.5 386.5zM419 518q0 -93 61.5 -157t150.5 -64t150.5 64t61.5 157t-61.5 157t-150.5 64
t-150.5 -64t-61.5 -157z" />
    <glyph glyph-name="e" unicode="e" horiz-adv-x="1239" 
d="M425 421q15 -88 77.5 -134t168.5 -46q154 0 265 68q66 41 112 -15l38 -47q49 -62 -6 -112q-174 -159 -418 -159q-133 0 -247 42t-192.5 114.5t-122.5 172.5t-44 213q0 150 75 274.5t207 196t291 71.5q156 0 283 -70t198.5 -191t71.5 -266q0 -19 -3 -42q-4 -34 -26.5 -52
t-59.5 -18h-668zM623 795q-77 0 -127.5 -42t-67.5 -121h384q-31 163 -189 163z" />
    <glyph glyph-name="f" unicode="f" horiz-adv-x="793" 
d="M752 1264q0 -81 -49 -78q-34 2 -49 2q-52 0 -79.5 -25t-27.5 -71v-56h125q80 0 80 -80v-157q0 -80 -80 -80h-125v-639q0 -80 -80 -80h-209q-80 0 -80 80v639h-77q-80 0 -80 80v157q0 80 80 80h77v62q0 176 99.5 269t290.5 93q53 0 110 -5q74 -6 74 -84v-107z" />
    <glyph glyph-name="g" unicode="g" horiz-adv-x="1322" 
d="M56 518q0 231 133.5 386.5t339.5 155.5q187 0 314 -129v25q0 80 80 80h200q80 0 80 -80v-885q0 -253 -151.5 -394t-409.5 -141q-262 0 -459 175q-54 49 -10 112l42 60q43 62 112 19q120 -73 255 -73q118 0 189.5 58.5t71.5 161.5v74q-129 -127 -314 -127q-136 0 -245 71
t-168.5 190t-59.5 261zM419 518q0 -93 61.5 -157t150.5 -64t150.5 64t61.5 157t-61.5 157t-150.5 64t-150.5 -64t-61.5 -157z" />
    <glyph glyph-name="h" unicode="h" horiz-adv-x="1238" 
d="M488 80q0 -80 -80 -80h-210q-80 0 -80 80v1300q0 80 80 80h210q80 0 80 -80v-446q103 126 277 126q162 0 268 -111.5t106 -288.5v-580q0 -80 -80 -80h-210q-80 0 -80 80v506q0 69 -37 110.5t-100 41.5t-103.5 -45.5t-40.5 -135.5v-477z" />
    <glyph glyph-name="i" unicode="i" horiz-adv-x="600" 
d="M95 1301q0 82 59 137t146 55t146 -55t59 -137q0 -81 -59 -136.5t-146 -55.5t-146 55.5t-59 136.5zM115 956q0 80 80 80h210q80 0 80 -80v-876q0 -80 -80 -80h-210q-80 0 -80 80v876z" />
    <glyph glyph-name="j" unicode="j" horiz-adv-x="600" 
d="M95 1301q0 82 59 137t146 55t146 -55t59 -137q0 -81 -59 -136.5t-146 -55.5t-146 55.5t-59 136.5zM115 956q0 80 80 80h210q80 0 80 -80v-1060q0 -165 -105.5 -262.5t-280.5 -97.5q-29 0 -64 5q-69 9 -69 87v145q0 80 56 80q93 0 93 93v1010z" />
    <glyph glyph-name="k" unicode="k" horiz-adv-x="1139" 
d="M994 1036q39 0 60 -21.5t19 -61.5q-17 -319 -180 -451l190 -408q19 -41 2.5 -67.5t-62.5 -26.5h-225q-67 0 -93 62l-143 340h-74v-322q0 -80 -80 -80h-210q-80 0 -80 80v1300q0 80 80 80h210q80 0 80 -80v-661h50q143 0 164 234q6 83 81 83h211z" />
    <glyph glyph-name="l" unicode="l" horiz-adv-x="600" 
d="M115 1380q0 80 80 80h210q80 0 80 -80v-1300q0 -80 -80 -80h-210q-80 0 -80 80v1300z" />
    <glyph glyph-name="m" unicode="m" horiz-adv-x="1873" 
d="M1131 80q0 -80 -80 -80h-210q-80 0 -80 80v506q0 70 -34.5 111t-97.5 41q-61 0 -101 -44.5t-40 -131.5v-482q0 -80 -80 -80h-210q-80 0 -80 80v876q0 80 80 80h210q80 0 80 -80v-19q112 123 274 123q102 0 186.5 -50.5t132.5 -140.5q54 90 138 140.5t186 50.5
q157 0 263 -111.5t106 -288.5v-580q0 -80 -80 -80h-210q-80 0 -80 80v506q0 65 -36 108.5t-96 43.5q-61 0 -101 -45.5t-40 -135.5v-477z" />
    <glyph glyph-name="n" unicode="n" horiz-adv-x="1238" 
d="M488 80q0 -80 -80 -80h-210q-80 0 -80 80v876q0 80 80 80h210q80 0 80 -80v-22q100 122 272 122q163 0 271 -108t108 -288v-580q0 -80 -80 -80h-210q-80 0 -80 80v506q0 65 -38.5 108.5t-98.5 43.5q-63 0 -103.5 -45.5t-40.5 -135.5v-477z" />
    <glyph glyph-name="o" unicode="o" horiz-adv-x="1283" 
d="M56 518q0 150 76.5 274.5t211 196t297.5 71.5q249 0 417 -156.5t168 -385.5t-168 -385.5t-417 -156.5q-163 0 -297.5 71.5t-211 196t-76.5 274.5zM419 518q0 -94 63 -157.5t159 -63.5t159.5 63.5t63.5 157.5t-63.5 157.5t-159.5 63.5t-159 -63.5t-63 -157.5z" />
    <glyph glyph-name="p" unicode="p" horiz-adv-x="1322" 
d="M1266 518q0 -231 -133 -386.5t-340 -155.5q-188 0 -314 129v-489q0 -80 -80 -80h-200q-80 0 -80 80v1340q0 80 80 80h200q80 0 80 -80v-25q126 129 314 129q207 0 340 -155.5t133 -386.5zM903 518q0 94 -61 157.5t-150 63.5q-90 0 -151.5 -64t-61.5 -157t61.5 -157
t151.5 -64q89 0 150 63.5t61 157.5z" />
    <glyph glyph-name="q" unicode="q" horiz-adv-x="1322" 
d="M56 518q0 231 133.5 386.5t339.5 155.5q187 0 314 -129v25q0 80 80 80h200q80 0 80 -80v-1340q0 -80 -80 -80h-200q-80 0 -80 80v489q-127 -129 -314 -129q-206 0 -339.5 155.5t-133.5 386.5zM419 518q0 -93 61.5 -157t150.5 -64t150.5 64t61.5 157t-61.5 157t-150.5 64
t-150.5 -64t-61.5 -157z" />
    <glyph glyph-name="r" unicode="r" horiz-adv-x="855" 
d="M797 798q-7 -81 -77 -67q-44 7 -72 7q-66 0 -113 -48t-47 -138v-472q0 -80 -80 -80h-210q-80 0 -80 80v876q0 80 80 80h210q80 0 80 -80v-25q102 129 272 129q59 0 52 -86z" />
    <glyph glyph-name="s" unicode="s" horiz-adv-x="958" 
d="M136 289q45 56 112 15q100 -60 211 -60q47 0 73.5 16.5t26.5 45.5q0 31 -31.5 52t-107.5 37q-159 35 -246.5 125t-87.5 219q0 139 111.5 230t282.5 91q156 0 257.5 -71t141.5 -190q13 -40 -7 -64t-63 -24h-145q-13 0 -22.5 2t-20.5 9.5t-15 10t-18 17l-17 17.5
q-27 25 -68 25q-36 0 -57.5 -15.5t-21.5 -41.5q0 -30 30 -50.5t109 -37.5q172 -37 259.5 -124.5t87.5 -217.5q0 -143 -118 -236t-305 -93q-209 0 -375 166q-50 53 -3 113z" />
    <glyph glyph-name="t" unicode="t" horiz-adv-x="817" 
d="M549 390q0 -97 107 -97h32q83 3 83 -76v-124q0 -72 -60 -92q-74 -25 -164 -25q-165 0 -266 100.5t-101 265.5v377h-79q-80 0 -80 80v157q0 80 80 80h79v182q0 76 75 85l210 24q40 5 62 -15.5t22 -60.5v-215h130q80 0 80 -80v-157q0 -80 -80 -80h-130v-329z" />
    <glyph glyph-name="u" unicode="u" horiz-adv-x="1238" 
d="M749 956q0 80 80 80h210q80 0 80 -80v-876q0 -80 -80 -80h-210q-80 0 -80 80v20q-99 -120 -272 -120q-163 0 -271 107.5t-108 287.5v581q0 80 80 80h210q80 0 80 -80v-507q0 -65 38.5 -108.5t98.5 -43.5q63 0 103.5 46.5t40.5 138.5v474z" />
    <glyph glyph-name="v" unicode="v" horiz-adv-x="1110" 
d="M998 1036q43 0 61.5 -25t4.5 -66l-280 -879q-21 -66 -90 -66h-279q-69 0 -90 66l-280 879q-14 41 4.5 66t61.5 25h220q72 0 89 -70l135 -565l134 565q17 70 89 70h220z" />
    <glyph glyph-name="w" unicode="w" horiz-adv-x="1630" 
d="M920 1036q73 0 88 -71l108 -532l111 532q15 71 87 71h206q43 0 61.5 -24t6.5 -66l-250 -878q-20 -68 -89 -68h-237q-72 0 -88 70l-109 463l-109 -463q-16 -70 -88 -70h-237q-69 0 -89 68l-249 878q-12 42 6 66t61 24h206q72 0 87 -71l111 -532l108 532q15 71 88 71h210z
" />
    <glyph glyph-name="x" unicode="x" horiz-adv-x="1110" 
d="M310 528l-218 413q-22 41 -5.5 68t63.5 27h216q67 0 93 -61l96 -225l95 225q26 61 93 61h217q46 0 62.5 -27t-5.5 -68l-217 -413l240 -432q23 -42 7 -69t-63 -27h-217q-65 0 -93 59l-119 246l-119 -246q-28 -59 -94 -59h-217q-47 0 -63 27t7 69z" />
    <glyph glyph-name="y" unicode="y" horiz-adv-x="1110" 
d="M996 1036q44 0 61.5 -25.5t3.5 -66.5l-467 -1343q-22 -65 -91 -65h-218q-45 0 -62.5 26t-0.5 67l154 371l-328 944q-14 41 3.5 66.5t61.5 25.5h219q71 0 89 -68l133 -499l134 499q18 68 89 68h219z" />
    <glyph glyph-name="z" unicode="z" horiz-adv-x="1037" 
d="M73 212q0 57 38 99l374 411h-306q-80 0 -80 80v154q0 80 80 80h680q80 0 80 -80v-132q0 -57 -38 -99l-373 -411h351q80 0 80 -80v-154q0 -80 -80 -80h-726q-80 0 -80 80v132z" />
    <glyph glyph-name="braceleft" unicode="{" horiz-adv-x="885" 
d="M105 700q0 35 17.5 53.5t55.5 31.5q104 37 104 154v222q0 145 103.5 242t261.5 97h126q80 0 80 -80v-167q0 -80 -77 -80q-50 0 -82 -29.5t-32 -76.5v-227q0 -89 -45.5 -148.5t-130.5 -81.5q85 -22 130.5 -81.5t45.5 -148.5v-227q0 -47 32 -76.5t82 -29.5q77 0 77 -80
v-167q0 -80 -80 -80h-126q-158 0 -261.5 97t-103.5 242v221q0 57 -27.5 97.5t-76.5 57.5q-38 13 -55.5 31.5t-17.5 53.5v180z" />
    <glyph glyph-name="bar" unicode="|" horiz-adv-x="668" 
d="M154 1420q0 80 80 80h200q80 0 80 -80v-1620q0 -80 -80 -80h-200q-80 0 -80 80v1620z" />
    <glyph glyph-name="braceright" unicode="}" horiz-adv-x="885" 
d="M780 520q0 -35 -17.5 -53.5t-55.5 -31.5q-49 -17 -76.5 -57.5t-27.5 -97.5v-221q0 -145 -103.5 -242t-261.5 -97h-125q-80 0 -80 80v167q0 80 77 80q50 0 81.5 30t31.5 76v227q0 88 46 148t130 82q-84 22 -130 82t-46 148v227q0 46 -31.5 76t-81.5 30q-77 0 -77 80v167
q0 80 80 80h125q158 0 261.5 -97t103.5 -242v-222q0 -117 104 -154q38 -13 55.5 -31.5t17.5 -53.5v-180z" />
    <glyph glyph-name="asciitilde" unicode="~" horiz-adv-x="1178" 
d="M818 408q-122 0 -232 84q-31 24 -47.5 35.5t-40 22.5t-41.5 11q-31 0 -50 -33q-20 -37 -40 -51.5t-55 -8.5l-191 33q-39 7 -56.5 31.5t-8.5 62.5q33 149 110 227.5t193 78.5q124 0 232 -84q87 -69 129 -69q30 0 50 33q20 37 40 51.5t55 8.5l191 -33q39 -7 55.5 -39.5
t2.5 -83.5q-35 -135 -110.5 -206t-185.5 -71z" />
    <glyph glyph-name="uni00A0" unicode="&#xa0;" horiz-adv-x="609" 
 />
    <glyph glyph-name="exclamdown" unicode="&#xa1;" horiz-adv-x="633" 
d="M93 859q0 85 64 143t159 58q96 0 160 -58t64 -143t-64 -143t-160 -58q-95 0 -159 58t-64 143zM138 508q2 79 80 79h196q78 0 80 -79l12 -791q1 -40 -20 -60.5t-60 -20.5h-219q-39 0 -60 20.5t-20 60.5z" />
    <glyph glyph-name="cent" unicode="&#xa2;" horiz-adv-x="1180" 
d="M605 739q-77 0 -131.5 -64t-54.5 -157q0 -97 60.5 -159t168.5 -62q125 0 229 84q58 49 112 5l57 -46q60 -49 20 -111q-113 -174 -280 -228v-1v-104q0 -80 -80 -80h-168q-80 0 -80 80v102q-177 49 -289.5 192t-112.5 328q0 184 105.5 325.5t276.5 192.5v103q0 80 80 80
h168q80 0 80 -80v-100q121 -34 207.5 -115.5t127.5 -198.5q14 -40 -6 -64.5t-63 -24.5h-211q-30 0 -50 13t-46 42q-43 48 -120 48z" />
    <glyph glyph-name="sterling" unicode="&#xa3;" horiz-adv-x="1177" 
d="M198 530q-80 0 -80 80v81q0 80 80 80h29q-63 137 -63 251q0 168 134.5 285t330.5 117q178 0 305.5 -100t166.5 -276q8 -40 -12.5 -63t-61.5 -23h-206q-33 0 -53 16.5t-37 51.5q-34 65 -96 65q-40 0 -64.5 -27t-24.5 -69q0 -68 54 -190q1 -3 7 -16.5t8 -21.5h198
q80 0 80 -80v-81q0 -80 -80 -80h-146q-11 -141 -116 -202h458q80 0 80 -80v-168q0 -80 -80 -80h-805q-80 0 -80 80v163q0 32 14.5 53.5t44.5 41.5q99 65 104 192h-89z" />
    <glyph glyph-name="currency" unicode="&#xa4;" horiz-adv-x="1284" 
d="M152 652q0 117 58 217l-112 114q-56 57 2 113l84 80q58 56 113 -1l118 -119q105 50 227 50t227 -50l118 119q55 57 113 1l84 -80q57 -55 1 -113l-112 -114q59 -99 59 -217q0 -119 -59 -218l112 -113q57 -57 -1 -113l-84 -80q-58 -56 -113 1l-118 119q-102 -50 -227 -50
t-227 50l-118 -119q-55 -57 -113 -1l-84 80q-57 55 -1 113l111 113q-58 100 -58 218zM481 652q0 -71 46 -119.5t115 -48.5t115 48.5t46 119.5t-46 119.5t-115 48.5t-115 -48.5t-46 -119.5z" />
    <glyph glyph-name="yen" unicode="&#xa5;" horiz-adv-x="1327" 
d="M367 1400q67 0 93 -60l203 -453l203 453q26 60 93 60h240q47 0 63 -26.5t-6 -68.5l-303 -562h140q80 0 80 -80v-10q0 -80 -80 -80h-231l-9 -16v-54h240q80 0 80 -80v-10q0 -80 -80 -80h-240v-253q0 -80 -80 -80h-220q-80 0 -80 80v253h-240q-80 0 -80 80v10q0 80 80 80
h240v54l-9 16h-231q-80 0 -80 80v10q0 80 80 80h140l-302 562q-22 42 -6 68.5t63 26.5h239z" />
    <glyph glyph-name="brokenbar" unicode="&#xa6;" horiz-adv-x="668" 
d="M154 1420q0 80 80 80h200q80 0 80 -80v-640q0 -80 -80 -80h-200q-80 0 -80 80v640zM154 440q0 80 80 80h200q80 0 80 -80v-640q0 -80 -80 -80h-200q-80 0 -80 80v640z" />
    <glyph glyph-name="section" unicode="&#xa7;" horiz-adv-x="1033" 
d="M82 569q0 180 176 259q-89 47 -133 114t-44 165q0 143 125.5 230t338.5 87q159 0 266.5 -67.5t152.5 -186.5q15 -40 -5 -64.5t-64 -24.5h-171q-21 0 -38.5 8t-27 17t-29.5 30q-33 31 -72 31q-36 0 -56 -15.5t-20 -41.5q0 -30 43.5 -55t172.5 -69q153 -52 220.5 -127.5
t67.5 -196.5q0 -81 -52.5 -146.5t-144.5 -105.5q101 -47 149.5 -115t48.5 -169q0 -144 -118 -235t-331 -91q-130 0 -245 56t-198 154q-49 58 9 112l24 23q52 51 113 2q115 -89 256 -89q90 0 90 56q0 29 -32 51.5t-126 52.5q-180 58 -263 137.5t-83 213.5zM541 500
q86 38 86 113q0 76 -102 118q-87 -36 -87 -112t103 -119z" />
    <glyph glyph-name="dieresis" unicode="&#xa8;" horiz-adv-x="870" 
d="M47 1292q0 74 51 124t127 50q75 0 126 -50t51 -124t-51 -124t-126 -50q-76 0 -127 50t-51 124zM468 1292q0 74 51 124t126 50q76 0 127 -50t51 -124t-51 -124t-127 -50q-75 0 -126 50t-51 124z" />
    <glyph glyph-name="copyright" unicode="&#xa9;" horiz-adv-x="1608" 
d="M80 700q0 149 56.5 283t153.5 231t231 153.5t283 56.5t283 -56.5t231 -153.5t153.5 -231t56.5 -283t-56.5 -283t-153.5 -231t-231 -153.5t-283 -56.5t-283 56.5t-231 153.5t-153.5 231t-56.5 283zM212 700q0 -165 78.5 -303t214.5 -217.5t299 -79.5t299 79.5t214.5 217.5
t78.5 303t-78.5 303t-214.5 217.5t-299 79.5t-299 -79.5t-214.5 -217.5t-78.5 -303zM1120 575q64 -50 20 -111q-118 -166 -320 -166q-174 0 -293 114t-119 283q0 170 113 283t286 113q133 0 227 -63t134 -168q15 -40 -5 -64.5t-64 -24.5h-108q-21 0 -39 8.5t-25.5 15
t-30.5 29.5q-33 30 -84 30q-55 0 -95 -44.5t-40 -114.5q0 -72 45 -116t123 -44q80 0 148 47q61 43 112 4z" />
    <glyph glyph-name="ordfeminine" unicode="&#xaa;" horiz-adv-x="933" 
d="M50 1036q0 159 96.5 269.5t235.5 110.5q118 0 196 -86q0 70 80 70h115q80 0 80 -80v-568q0 -80 -80 -80h-115q-80 0 -80 69q-79 -85 -196 -85q-139 0 -235.5 110.5t-96.5 269.5zM326 1036q0 -59 36 -98.5t90 -39.5t90 39.5t36 98.5t-36 98.5t-90 39.5t-90 -39.5
t-36 -98.5z" />
    <glyph glyph-name="guillemotleft" unicode="&#xab;" horiz-adv-x="1303" 
d="M75 671q0 62 51 97l389 267q65 45 112 -19l32 -44q44 -62 -13 -112l-271 -235l271 -236q59 -51 13 -112l-32 -44q-46 -63 -112 -18l-389 267q-51 35 -51 97v92zM618 671q0 62 51 97l389 267q65 45 112 -19l32 -44q44 -62 -13 -112l-271 -235l271 -236q59 -51 13 -112
l-32 -44q-46 -63 -112 -18l-389 267q-51 35 -51 97v92z" />
    <glyph glyph-name="logicalnot" unicode="&#xac;" horiz-adv-x="1178" 
d="M704 501h-510q-80 0 -80 80v166q0 80 80 80h790q80 0 80 -80v-452q0 -80 -80 -80h-200q-80 0 -80 80v206z" />
    <glyph glyph-name="uni00AD" unicode="&#xad;" horiz-adv-x="860" 
d="M194 499q-80 0 -80 80v170q0 80 80 80h472q80 0 80 -80v-170q0 -80 -80 -80h-472z" />
    <glyph glyph-name="registered" unicode="&#xae;" horiz-adv-x="1608" 
d="M80 700q0 149 56.5 283t153.5 231t231 153.5t283 56.5t283 -56.5t231 -153.5t153.5 -231t56.5 -283t-56.5 -283t-153.5 -231t-231 -153.5t-283 -56.5t-283 56.5t-231 153.5t-153.5 231t-56.5 283zM212 700q0 -165 78.5 -303t214.5 -217.5t299 -79.5t299 79.5t214.5 217.5
t78.5 303t-78.5 303t-214.5 217.5t-299 79.5t-299 -79.5t-214.5 -217.5t-78.5 -303zM767 569v-175q0 -80 -80 -80h-69q-80 0 -80 80v610q0 80 80 80h230q120 0 200 -73t80 -185q0 -68 -32 -123t-87 -88l100 -207q20 -41 3 -67.5t-63 -26.5h-79q-67 0 -93 61l-86 194h-24z
M821 736q34 0 57 23t23 60q0 35 -24 58.5t-56 23.5h-54v-165h54z" />
    <glyph glyph-name="macron" unicode="&#xaf;" horiz-adv-x="870" 
d="M105 1341q0 80 80 80h500q80 0 80 -80v-106q0 -80 -80 -80h-500q-80 0 -80 80v106z" />
    <glyph glyph-name="degree" unicode="&#xb0;" horiz-adv-x="812" 
d="M96 1132q0 123 89.5 207.5t220.5 84.5t220.5 -84.5t89.5 -207.5t-89.5 -208t-220.5 -85t-220.5 85t-89.5 208zM322 1132q0 -37 23.5 -60.5t60.5 -23.5t60.5 23.5t23.5 60.5q0 36 -23.5 59.5t-60.5 23.5t-60.5 -23.5t-23.5 -59.5z" />
    <glyph glyph-name="plusminus" unicode="&#xb1;" horiz-adv-x="1178" 
d="M408 656h-215q-80 0 -80 80v138q0 80 80 80h215v214q0 80 80 80h201q80 0 80 -80v-214h215q80 0 80 -80v-138q0 -80 -80 -80h-215v-214q0 -80 -80 -80h-201q-80 0 -80 80v214zM193 0q-80 0 -80 80v137q0 80 80 80h791q80 0 80 -80v-137q0 -80 -80 -80h-791z" />
    <glyph glyph-name="uni00B2" unicode="&#xb2;" 
d="M436 691h206q80 0 80 -80v-79q0 -80 -80 -80h-474q-80 0 -80 80v78q0 56 39 99l276 301q55 59 55 111q0 31 -18.5 50.5t-49.5 19.5q-35 0 -56 -29q-31 -44 -44 -53q-18 -12 -44 -12h-95q-42 0 -63 22.5t-11 62.5q26 110 110.5 176t214.5 66q142 0 236 -77t94 -196
q0 -138 -118 -265z" />
    <glyph glyph-name="uni00B3" unicode="&#xb3;" 
d="M457 764q0 41 -27.5 68.5t-67.5 27.5q-64 3 -92 38l-20 25q-47 58 4 112l123 130h-200q-80 0 -80 80v75q0 80 80 80h441q80 0 80 -80v-83q0 -57 -42 -99l-123 -120q100 -35 155.5 -110t55.5 -176q0 -131 -99.5 -217.5t-247.5 -86.5q-166 0 -290 139q-48 54 3 112l16 17
q47 52 112 8q59 -38 124 -38q41 0 68 28t27 70z" />
    <glyph glyph-name="acute" unicode="&#xb4;" horiz-adv-x="870" 
d="M441 1115q-53 -53 -113 -6l-45 35q-60 48 -17 112l150 227q22 34 51.5 38.5t60.5 -21.5l100 -82q31 -25 33 -55t-27 -58z" />
    <glyph glyph-name="uni00B5" unicode="&#xb5;" horiz-adv-x="1258" 
d="M769 956q0 80 80 80h210q80 0 80 -80v-876q0 -80 -80 -80h-210q-80 0 -80 80v20q-96 -114 -281 -114v-370q0 -80 -80 -80h-210q-80 0 -80 80v1340q0 80 80 80h210q80 0 80 -80v-511q0 -68 37 -108t100 -40t103.5 45.5t40.5 135.5v478z" />
    <glyph glyph-name="paragraph" unicode="&#xb6;" horiz-adv-x="1189" 
d="M487 536q-188 0 -316 124.5t-128 307.5t128 307.5t316 124.5h488q80 0 80 -80v-1502q0 -80 -80 -80h-53q-80 0 -80 80v1364h-92v-1364q0 -80 -80 -80h-53q-80 0 -80 80v718h-50z" />
    <glyph glyph-name="periodcentered" unicode="&#xb7;" horiz-adv-x="609" 
d="M92 655q0 86 60 144t152 58t152.5 -58t60.5 -144t-60.5 -144t-152.5 -58t-152 58t-60 144z" />
    <glyph glyph-name="cedilla" unicode="&#xb8;" horiz-adv-x="870" 
d="M507 -292q0 27 -23 45.5t-56 18.5q-55 8 -85 38q-19 19 -19 76v34q0 80 80 80h60q80 0 80 -80v-13q95 -12 150 -70.5t55 -132.5q0 -96 -90 -160t-224 -64q-95 0 -169 35.5t-115 104.5q-22 39 -2.5 65.5t65.5 26.5h49q15 0 29 -4.5t21 -9.5t23 -17.5t23 -17.5
q26 -17 64 -17t61 17.5t23 44.5z" />
    <glyph glyph-name="uni00B9" unicode="&#xb9;" 
d="M526 1400q80 0 80 -80v-788q0 -80 -80 -80h-124q-80 0 -80 80v604l-64 -35q-34 -19 -62.5 -10.5t-46.5 42.5l-24 46q-36 70 32 108l163 88q46 25 99 25h107z" />
    <glyph glyph-name="ordmasculine" unicode="&#xba;" horiz-adv-x="933" 
d="M57 1036q0 159 119 269.5t291 110.5q171 0 290 -110.5t119 -269.5t-119 -269.5t-290 -110.5q-172 0 -291 110.5t-119 269.5zM333 1036q0 -59 38 -98.5t96 -39.5q57 0 95.5 39.5t38.5 98.5t-38.5 98.5t-95.5 39.5q-58 0 -96 -39.5t-38 -98.5z" />
    <glyph glyph-name="guillemotright" unicode="&#xbb;" horiz-adv-x="1303" 
d="M684 579q0 -62 -51 -97l-389 -267q-65 -45 -112 19l-32 43q-46 61 13 112l271 236l-271 235q-59 51 -13 112l32 44q47 64 112 19l389 -267q51 -35 51 -97v-92zM1227 579q0 -62 -51 -97l-389 -267q-65 -45 -112 19l-32 43q-46 61 13 112l271 236l-271 235q-59 51 -13 112
l32 44q47 64 112 19l389 -267q51 -35 51 -97v-92z" />
    <glyph glyph-name="onequarter" unicode="&#xbc;" horiz-adv-x="1960" 
d="M1180 1382q36 74 108 35l68 -36q70 -37 36 -108l-612 -1256q-35 -74 -108 -35l-69 36q-69 37 -35 108zM526 1400q80 0 80 -80v-788q0 -80 -80 -80h-124q-80 0 -80 80v604l-64 -35q-34 -19 -62.5 -10.5t-46.5 42.5l-24 46q-36 70 32 108l163 88q46 25 99 25h107zM1174 304
q0 53 30 99l328 493q35 52 96 52h107q80 0 80 -80v-492h19q80 0 80 -80v-62q0 -80 -80 -80h-19v-74q0 -80 -80 -80h-102q-80 0 -80 80v74h-299q-80 0 -80 80v70zM1553 375v226l-150 -226h150z" />
    <glyph glyph-name="onehalf" unicode="&#xbd;" horiz-adv-x="1960" 
d="M1180 1382q36 74 108 35l68 -36q70 -37 36 -108l-612 -1256q-35 -74 -108 -35l-69 36q-69 37 -35 108zM526 1400q80 0 80 -80v-788q0 -80 -80 -80h-124q-80 0 -80 80v604l-64 -35q-34 -19 -62.5 -10.5t-46.5 42.5l-24 46q-36 70 32 108l163 88q46 25 99 25h107zM1581 239
h206q80 0 80 -80v-79q0 -80 -80 -80h-474q-80 0 -80 80v78q0 56 39 99l276 301q55 59 55 111q0 31 -18.5 50.5t-49.5 19.5q-35 0 -56 -29q-31 -44 -44 -53q-18 -12 -44 -12h-95q-42 0 -63 22.5t-11 62.5q26 110 110.5 176t214.5 66q142 0 236 -77t94 -196q0 -138 -118 -265z
" />
    <glyph glyph-name="threequarters" unicode="&#xbe;" horiz-adv-x="1960" 
d="M1180 1382q36 74 108 35l68 -36q70 -37 36 -108l-612 -1256q-35 -74 -108 -35l-69 36q-69 37 -35 108zM457 764q0 41 -27.5 68.5t-67.5 27.5q-64 3 -92 38l-20 25q-47 58 4 112l123 130h-200q-80 0 -80 80v75q0 80 80 80h441q80 0 80 -80v-83q0 -57 -42 -99l-123 -120
q100 -35 155.5 -110t55.5 -176q0 -131 -99.5 -217.5t-247.5 -86.5q-166 0 -290 139q-48 54 3 112l16 17q47 52 112 8q59 -38 124 -38q41 0 68 28t27 70zM1174 304q0 53 30 99l328 493q35 52 96 52h107q80 0 80 -80v-492h19q80 0 80 -80v-62q0 -80 -80 -80h-19v-74
q0 -80 -80 -80h-102q-80 0 -80 80v74h-299q-80 0 -80 80v70zM1553 375v226l-150 -226h150z" />
    <glyph glyph-name="questiondown" unicode="&#xbf;" horiz-adv-x="1120" 
d="M809 859q0 -85 -64 -143t-159 -58q-96 0 -160 58t-64 143t64 143t160 58q95 0 159 -58t64 -143zM710 587q40 0 61 -21.5t17 -61.5q-12 -118 -69.5 -193t-188.5 -149q-44 -25 -59.5 -51.5t-15.5 -68.5q0 -35 28 -62t73 -27q85 0 118 75q17 38 34.5 54.5t51.5 16.5h210
q41 0 62 -22t15 -61q-26 -188 -162.5 -296t-337.5 -108q-209 0 -341.5 124t-132.5 301q0 124 61 213.5t198 166.5q59 33 73 93q9 39 28 58t55 19h222z" />
    <glyph glyph-name="Agrave" unicode="&#xc0;" horiz-adv-x="1397" 
d="M469 1695q-29 28 -27 58t33 55l100 82q31 26 60.5 21.5t51.5 -38.5l150 -227q42 -64 -18 -112l-44 -35q-60 -47 -113 6zM836 1400q69 0 91 -65l418 -1244q14 -41 -3.5 -66t-61.5 -25h-225q-71 0 -90 67l-58 201h-419l-58 -201q-19 -67 -89 -67h-225q-44 0 -61.5 25
t-3.5 66l418 1244q22 65 91 65h276zM568 557h260l-130 449z" />
    <glyph glyph-name="Aacute" unicode="&#xc1;" horiz-adv-x="1397" 
d="M722 1505q-53 -53 -113 -6l-45 35q-60 48 -17 112l150 227q22 34 51.5 38.5t60.5 -21.5l100 -82q31 -25 33 -55t-27 -58zM836 1400q69 0 91 -65l418 -1244q14 -41 -3.5 -66t-61.5 -25h-225q-71 0 -90 67l-58 201h-419l-58 -201q-19 -67 -89 -67h-225q-44 0 -61.5 25
t-3.5 66l418 1244q22 65 91 65h276zM568 557h260l-130 449z" />
    <glyph glyph-name="Acircumflex" unicode="&#xc2;" horiz-adv-x="1397" 
d="M811 1851q60 0 98 -46l122 -146q51 -62 -11 -113l-42 -33q-57 -47 -113 4l-168 157l-168 -157q-55 -52 -113 -4l-42 33q-63 49 -11 113l122 146q38 46 98 46h228zM836 1400q69 0 91 -65l418 -1244q14 -41 -3.5 -66t-61.5 -25h-225q-71 0 -90 67l-58 201h-419l-58 -201
q-19 -67 -89 -67h-225q-44 0 -61.5 25t-3.5 66l418 1244q22 65 91 65h276zM568 557h260l-130 449z" />
    <glyph glyph-name="Atilde" unicode="&#xc3;" horiz-adv-x="1397" 
d="M708 1550q-62 33 -85 33q-12 0 -20 -7l-20.5 -18t-17.5 -15t-16.5 -11.5t-19 -6t-24.5 1.5l-126 24q-40 8 -56.5 33.5t-3.5 63.5q57 164 214 164q77 0 155 -42q62 -33 85 -33q12 0 20 7q9 7 21 18l17 15.5t16.5 11.5t19 5.5t24.5 -1.5l126 -24q40 -8 56.5 -33.5
t3.5 -63.5q-57 -164 -214 -164q-75 0 -155 42zM836 1400q69 0 91 -65l418 -1244q14 -41 -3.5 -66t-61.5 -25h-225q-71 0 -90 67l-58 201h-419l-58 -201q-19 -67 -89 -67h-225q-44 0 -61.5 25t-3.5 66l418 1244q22 65 91 65h276zM568 557h260l-130 449z" />
    <glyph glyph-name="Adieresis" unicode="&#xc4;" horiz-adv-x="1397" 
d="M310 1664q0 74 51 124t127 50q75 0 126 -50t51 -124t-51 -124t-126 -50q-76 0 -127 50t-51 124zM731 1664q0 74 51 124t126 50q76 0 127 -50t51 -124t-51 -124t-127 -50q-75 0 -126 50t-51 124zM836 1400q69 0 91 -65l418 -1244q14 -41 -3.5 -66t-61.5 -25h-225
q-71 0 -90 67l-58 201h-419l-58 -201q-19 -67 -89 -67h-225q-44 0 -61.5 25t-3.5 66l418 1244q22 65 91 65h276zM568 557h260l-130 449z" />
    <glyph glyph-name="Aring" unicode="&#xc5;" horiz-adv-x="1397" 
d="M452 1686q0 95 71 159.5t175 64.5t175 -64.5t71 -159.5t-71 -160t-175 -65t-175 65t-71 160zM640 1686q0 -25 16.5 -41t41.5 -16t41.5 16t16.5 41q0 24 -16.5 40t-41.5 16t-41.5 -16t-16.5 -40zM836 1400q69 0 91 -65l418 -1244q14 -41 -3.5 -66t-61.5 -25h-225
q-71 0 -90 67l-58 201h-419l-58 -201q-19 -67 -89 -67h-225q-44 0 -61.5 25t-3.5 66l418 1244q22 65 91 65h276zM568 557h260l-130 449z" />
    <glyph glyph-name="AE" unicode="&#xc6;" horiz-adv-x="1895" 
d="M115 0q-47 0 -63.5 27t5.5 68l660 1248q30 57 94 57h899q80 0 80 -80v-158q0 -80 -80 -80h-447v-222h399q80 0 80 -80v-152q0 -80 -80 -80h-399v-230h465q80 0 80 -80v-158q0 -80 -80 -80h-758q-80 0 -80 80v189h-358l-102 -210q-28 -59 -93 -59h-222zM669 557h221v455z
" />
    <glyph glyph-name="Ccedilla" unicode="&#xc7;" horiz-adv-x="1514" 
d="M872 -292q0 26 -22.5 45t-55.5 19q-56 8 -86 38q-19 19 -19 76v98q-269 38 -443.5 238.5t-174.5 477.5q0 202 93.5 367.5t260.5 261t374 95.5q221 0 386 -114.5t234 -322.5q13 -41 -6.5 -65.5t-62.5 -24.5h-240q-33 0 -54.5 15t-38.5 48q-34 64 -93 100t-132 36
q-149 0 -244.5 -112.5t-95.5 -283.5t100.5 -283.5t259.5 -112.5q212 0 363 158q53 57 112 13l80 -59q63 -47 21 -111q-186 -278 -479 -320v-78q95 -12 150 -70.5t55 -132.5q0 -96 -89.5 -160t-223.5 -64q-95 0 -169.5 35.5t-115.5 104.5q-22 39 -2.5 65.5t65.5 26.5h48
q12 0 22.5 -2t20.5 -8l16.5 -10t18.5 -14t19 -15q28 -17 65 -17q38 0 60.5 17.5t22.5 44.5z" />
    <glyph glyph-name="Egrave" unicode="&#xc8;" horiz-adv-x="1158" 
d="M329 1695q-29 28 -27 58t33 55l100 82q31 26 60.5 21.5t51.5 -38.5l150 -227q42 -64 -18 -112l-44 -35q-60 -47 -113 6zM140 1320q0 80 80 80h752q80 0 80 -80v-158q0 -80 -80 -80h-451v-222h403q80 0 80 -80v-152q0 -80 -80 -80h-403v-230h469q80 0 80 -80v-158
q0 -80 -80 -80h-770q-80 0 -80 80v1240z" />
    <glyph glyph-name="Eacute" unicode="&#xc9;" horiz-adv-x="1158" 
d="M621 1505q-53 -53 -113 -6l-45 35q-60 48 -17 112l150 227q22 34 51.5 38.5t60.5 -21.5l100 -82q31 -25 33 -55t-27 -58zM140 1320q0 80 80 80h752q80 0 80 -80v-158q0 -80 -80 -80h-451v-222h403q80 0 80 -80v-152q0 -80 -80 -80h-403v-230h469q80 0 80 -80v-158
q0 -80 -80 -80h-770q-80 0 -80 80v1240z" />
    <glyph glyph-name="Ecircumflex" unicode="&#xca;" horiz-adv-x="1158" 
d="M705 1851q60 0 98 -46l122 -146q51 -62 -11 -113l-42 -33q-57 -47 -113 4l-168 157l-168 -157q-55 -52 -113 -4l-42 33q-63 49 -11 113l122 146q38 46 98 46h228zM140 1320q0 80 80 80h752q80 0 80 -80v-158q0 -80 -80 -80h-451v-222h403q80 0 80 -80v-152q0 -80 -80 -80
h-403v-230h469q80 0 80 -80v-158q0 -80 -80 -80h-770q-80 0 -80 80v1240z" />
    <glyph glyph-name="Edieresis" unicode="&#xcb;" horiz-adv-x="1158" 
d="M208 1664q0 74 51 124t127 50q75 0 126 -50t51 -124t-51 -124t-126 -50q-76 0 -127 50t-51 124zM629 1664q0 74 51 124t126 50q76 0 127 -50t51 -124t-51 -124t-127 -50q-75 0 -126 50t-51 124zM140 1320q0 80 80 80h752q80 0 80 -80v-158q0 -80 -80 -80h-451v-222h403
q80 0 80 -80v-152q0 -80 -80 -80h-403v-230h469q80 0 80 -80v-158q0 -80 -80 -80h-770q-80 0 -80 80v1240z" />
    <glyph glyph-name="Igrave" unicode="&#xcc;" horiz-adv-x="666" 
d="M102 1695q-29 28 -27 58t33 55l100 82q31 26 60.5 21.5t51.5 -38.5l150 -227q42 -64 -18 -112l-44 -35q-60 -47 -113 6zM523 80q0 -80 -80 -80h-221q-80 0 -80 80v1240q0 80 80 80h221q80 0 80 -80v-1240z" />
    <glyph glyph-name="Iacute" unicode="&#xcd;" horiz-adv-x="666" 
d="M363 1505q-53 -53 -113 -6l-45 35q-60 48 -17 112l150 227q22 34 51.5 38.5t60.5 -21.5l100 -82q31 -25 33 -55t-27 -58zM523 80q0 -80 -80 -80h-221q-80 0 -80 80v1240q0 80 80 80h221q80 0 80 -80v-1240z" />
    <glyph glyph-name="Icircumflex" unicode="&#xce;" horiz-adv-x="666" 
d="M446 1851q60 0 98 -46l122 -146q51 -62 -11 -113l-42 -33q-57 -47 -113 4l-168 157l-168 -157q-55 -52 -113 -4l-42 33q-63 49 -11 113l122 146q38 46 98 46h228zM523 80q0 -80 -80 -80h-221q-80 0 -80 80v1240q0 80 80 80h221q80 0 80 -80v-1240z" />
    <glyph glyph-name="Idieresis" unicode="&#xcf;" horiz-adv-x="666" 
d="M-55 1664q0 74 51 124t127 50q75 0 126 -50t51 -124t-51 -124t-126 -50q-76 0 -127 50t-51 124zM366 1664q0 74 51 124t126 50q76 0 127 -50t51 -124t-51 -124t-127 -50q-75 0 -126 50t-51 124zM523 80q0 -80 -80 -80h-221q-80 0 -80 80v1240q0 80 80 80h221q80 0 80 -80
v-1240z" />
    <glyph glyph-name="Eth" unicode="&#xd0;" horiz-adv-x="1492" 
d="M262 0q-80 0 -80 80v511h-85q-80 0 -80 80v57q0 80 80 80h85v512q0 80 80 80h457q206 0 366 -88t248 -247.5t88 -364.5q0 -206 -88 -365t-248 -247t-366 -88h-457zM689 328q162 0 256 98t94 274t-94 273.5t-256 97.5h-127v-263h120q80 0 80 -80v-57q0 -80 -80 -80h-120
v-263h127z" />
    <glyph glyph-name="Ntilde" unicode="&#xd1;" horiz-adv-x="1429" 
d="M724 1550q-62 33 -85 33q-12 0 -20 -7l-20.5 -18t-17.5 -15t-16.5 -11.5t-19 -6t-24.5 1.5l-126 24q-40 8 -56.5 33.5t-3.5 63.5q57 164 214 164q77 0 155 -42q62 -33 85 -33q12 0 20 7q9 7 21 18l17 15.5t16.5 11.5t19 5.5t24.5 -1.5l126 -24q40 -8 56.5 -33.5
t3.5 -63.5q-57 -164 -214 -164q-75 0 -155 42zM140 1320q0 80 80 80h263q66 0 93 -60l364 -795v775q0 80 80 80h188q80 0 80 -80v-1240q0 -80 -80 -80h-262q-66 0 -93 60l-364 795v-775q0 -80 -80 -80h-189q-80 0 -80 80v1240z" />
    <glyph glyph-name="Ograve" unicode="&#xd2;" horiz-adv-x="1664" 
d="M572 1695q-29 28 -27 58t33 55l100 82q31 26 60.5 21.5t51.5 -38.5l150 -227q42 -64 -18 -112l-44 -35q-60 -47 -113 6zM71 700q0 201 99.5 367t274.5 261.5t387 95.5t387 -95.5t274.5 -261.5t99.5 -367t-99.5 -367t-274.5 -261.5t-387 -95.5t-387 95.5t-274.5 261.5
t-99.5 367zM452 700q0 -169 109 -282.5t271 -113.5t271 113.5t109 282.5t-109 282.5t-271 113.5t-271 -113.5t-109 -282.5z" />
    <glyph glyph-name="Oacute" unicode="&#xd3;" horiz-adv-x="1664" 
d="M891 1505q-53 -53 -113 -6l-45 35q-60 48 -17 112l150 227q22 34 51.5 38.5t60.5 -21.5l100 -82q31 -25 33 -55t-27 -58zM71 700q0 201 99.5 367t274.5 261.5t387 95.5t387 -95.5t274.5 -261.5t99.5 -367t-99.5 -367t-274.5 -261.5t-387 -95.5t-387 95.5t-274.5 261.5
t-99.5 367zM452 700q0 -169 109 -282.5t271 -113.5t271 113.5t109 282.5t-109 282.5t-271 113.5t-271 -113.5t-109 -282.5z" />
    <glyph glyph-name="Ocircumflex" unicode="&#xd4;" horiz-adv-x="1664" 
d="M945 1851q60 0 98 -46l122 -146q51 -62 -11 -113l-42 -33q-57 -47 -113 4l-168 157l-168 -157q-55 -52 -113 -4l-42 33q-63 49 -11 113l122 146q38 46 98 46h228zM71 700q0 201 99.5 367t274.5 261.5t387 95.5t387 -95.5t274.5 -261.5t99.5 -367t-99.5 -367
t-274.5 -261.5t-387 -95.5t-387 95.5t-274.5 261.5t-99.5 367zM452 700q0 -169 109 -282.5t271 -113.5t271 113.5t109 282.5t-109 282.5t-271 113.5t-271 -113.5t-109 -282.5z" />
    <glyph glyph-name="Otilde" unicode="&#xd5;" horiz-adv-x="1664" 
d="M842 1550q-62 33 -85 33q-12 0 -20 -7l-20.5 -18t-17.5 -15t-16.5 -11.5t-19 -6t-24.5 1.5l-126 24q-40 8 -56.5 33.5t-3.5 63.5q57 164 214 164q77 0 155 -42q62 -33 85 -33q12 0 20 7q9 7 21 18l17 15.5t16.5 11.5t19 5.5t24.5 -1.5l126 -24q40 -8 56.5 -33.5
t3.5 -63.5q-57 -164 -214 -164q-75 0 -155 42zM71 700q0 201 99.5 367t274.5 261.5t387 95.5t387 -95.5t274.5 -261.5t99.5 -367t-99.5 -367t-274.5 -261.5t-387 -95.5t-387 95.5t-274.5 261.5t-99.5 367zM452 700q0 -169 109 -282.5t271 -113.5t271 113.5t109 282.5
t-109 282.5t-271 113.5t-271 -113.5t-109 -282.5z" />
    <glyph glyph-name="Odieresis" unicode="&#xd6;" horiz-adv-x="1664" 
d="M444 1664q0 74 51 124t127 50q75 0 126 -50t51 -124t-51 -124t-126 -50q-76 0 -127 50t-51 124zM865 1664q0 74 51 124t126 50q76 0 127 -50t51 -124t-51 -124t-127 -50q-75 0 -126 50t-51 124zM71 700q0 201 99.5 367t274.5 261.5t387 95.5t387 -95.5t274.5 -261.5
t99.5 -367t-99.5 -367t-274.5 -261.5t-387 -95.5t-387 95.5t-274.5 261.5t-99.5 367zM452 700q0 -169 109 -282.5t271 -113.5t271 113.5t109 282.5t-109 282.5t-271 113.5t-271 -113.5t-109 -282.5z" />
    <glyph glyph-name="multiply" unicode="&#xd7;" horiz-adv-x="1178" 
d="M352 664l-197 194q-57 57 -1 113l122 120q56 56 113 0l200 -196l199 196q56 57 113 0l122 -120q57 -55 -1 -113l-197 -194l197 -194q57 -57 1 -113l-122 -120q-57 -57 -113 0l-199 196l-200 -196q-57 -57 -113 0l-122 120q-57 55 1 113z" />
    <glyph glyph-name="Oslash" unicode="&#xd8;" horiz-adv-x="1664" 
d="M71 700q0 201 99.5 367t274.5 261.5t387 95.5q188 0 350 -78l88 115q48 64 113 15l40 -30q64 -48 15 -113l-80 -103q111 -100 173 -236.5t62 -293.5q0 -201 -99.5 -367t-274.5 -261.5t-387 -95.5q-201 0 -370 87l-96 -124q-48 -64 -112 -16l-41 31q-63 48 -15 112l92 119
q-104 99 -161.5 231.5t-57.5 283.5zM452 700q0 -123 63 -221l454 590q-67 27 -137 27q-162 0 -271 -113.5t-109 -282.5zM1212 700q0 135 -76 240l-463 -601q76 -35 159 -35q162 0 271 113.5t109 282.5z" />
    <glyph glyph-name="Ugrave" unicode="&#xd9;" horiz-adv-x="1351" 
d="M411 1695q-29 28 -27 58t33 55l100 82q31 26 60.5 21.5t51.5 -38.5l150 -227q42 -64 -18 -112l-44 -35q-60 -47 -113 6zM507 468q0 -71 47.5 -116.5t120.5 -45.5t120 45.5t47 116.5v852q0 80 80 80h221q80 0 80 -80v-870q0 -133 -73 -241.5t-198.5 -169.5t-276.5 -61
t-276.5 61t-198.5 169.5t-73 241.5v870q0 80 80 80h220q80 0 80 -80v-852z" />
    <glyph glyph-name="Uacute" unicode="&#xda;" horiz-adv-x="1351" 
d="M738 1505q-53 -53 -113 -6l-45 35q-60 48 -17 112l150 227q22 34 51.5 38.5t60.5 -21.5l100 -82q31 -25 33 -55t-27 -58zM507 468q0 -71 47.5 -116.5t120.5 -45.5t120 45.5t47 116.5v852q0 80 80 80h221q80 0 80 -80v-870q0 -133 -73 -241.5t-198.5 -169.5t-276.5 -61
t-276.5 61t-198.5 169.5t-73 241.5v870q0 80 80 80h220q80 0 80 -80v-852z" />
    <glyph glyph-name="Ucircumflex" unicode="&#xdb;" horiz-adv-x="1351" 
d="M788 1851q60 0 98 -46l122 -146q51 -62 -11 -113l-42 -33q-57 -47 -113 4l-168 157l-168 -157q-55 -52 -113 -4l-42 33q-63 49 -11 113l122 146q38 46 98 46h228zM507 468q0 -71 47.5 -116.5t120.5 -45.5t120 45.5t47 116.5v852q0 80 80 80h221q80 0 80 -80v-870
q0 -133 -73 -241.5t-198.5 -169.5t-276.5 -61t-276.5 61t-198.5 169.5t-73 241.5v870q0 80 80 80h220q80 0 80 -80v-852z" />
    <glyph glyph-name="Udieresis" unicode="&#xdc;" horiz-adv-x="1351" 
d="M287 1664q0 74 51 124t127 50q75 0 126 -50t51 -124t-51 -124t-126 -50q-76 0 -127 50t-51 124zM708 1664q0 74 51 124t126 50q76 0 127 -50t51 -124t-51 -124t-127 -50q-75 0 -126 50t-51 124zM507 468q0 -71 47.5 -116.5t120.5 -45.5t120 45.5t47 116.5v852q0 80 80 80
h221q80 0 80 -80v-870q0 -133 -73 -241.5t-198.5 -169.5t-276.5 -61t-276.5 61t-198.5 169.5t-73 241.5v870q0 80 80 80h220q80 0 80 -80v-852z" />
    <glyph glyph-name="Yacute" unicode="&#xdd;" horiz-adv-x="1327" 
d="M727 1505q-53 -53 -113 -6l-45 35q-60 48 -17 112l150 227q22 34 51.5 38.5t60.5 -21.5l100 -82q31 -25 33 -55t-27 -58zM664 894l203 446q27 60 93 60h239q47 0 63.5 -27t-5.5 -68l-403 -761v-464q0 -80 -80 -80h-221q-80 0 -80 80v464l-403 761q-22 41 -5.5 68t63.5 27
h239q66 0 93 -60z" />
    <glyph glyph-name="Thorn" unicode="&#xde;" horiz-adv-x="1228" 
d="M520 223v-143q0 -80 -80 -80h-220q-80 0 -80 80v1240q0 80 80 80h220q80 0 80 -80v-144h161q217 0 358 -135t141 -341q0 -207 -141 -342t-358 -135h-161zM632 518q80 0 128 50.5t48 131.5t-48 131t-128 50h-112v-363h112z" />
    <glyph glyph-name="germandbls" unicode="&#xdf;" horiz-adv-x="1248" 
d="M573 273q24 70 94 49q38 -11 72 -11q50 0 80.5 42t30.5 112q0 64 -38 109t-95 45q-8 0 -20 2t-37 13.5t-35 30.5l-39 72q-30 52 -2 109l126 251h-228v-1017q0 -80 -80 -80h-195q-80 0 -80 80v1240q0 80 80 80h750q80 0 80 -80v-159q0 -53 -25 -99l-121 -223
q125 -40 202.5 -155t77.5 -291q0 -201 -99.5 -308.5t-249.5 -107.5q-138 0 -255 89q-50 39 -28 106z" />
    <glyph glyph-name="agrave" unicode="&#xe0;" horiz-adv-x="1322" 
d="M427 1371q-29 28 -27 58t33 55l100 82q31 26 60.5 21.5t51.5 -38.5l150 -227q42 -64 -18 -112l-44 -35q-60 -47 -113 6zM56 518q0 231 133.5 386.5t339.5 155.5q187 0 314 -129v25q0 80 80 80h200q80 0 80 -80v-876q0 -80 -80 -80h-200q-80 0 -80 80v25
q-127 -129 -314 -129q-206 0 -339.5 155.5t-133.5 386.5zM419 518q0 -93 61.5 -157t150.5 -64t150.5 64t61.5 157t-61.5 157t-150.5 64t-150.5 -64t-61.5 -157z" />
    <glyph glyph-name="aacute" unicode="&#xe1;" horiz-adv-x="1322" 
d="M691 1181q-53 -53 -113 -6l-45 35q-60 48 -17 112l150 227q22 34 51.5 38.5t60.5 -21.5l100 -82q31 -25 33 -55t-27 -58zM56 518q0 231 133.5 386.5t339.5 155.5q187 0 314 -129v25q0 80 80 80h200q80 0 80 -80v-876q0 -80 -80 -80h-200q-80 0 -80 80v25
q-127 -129 -314 -129q-206 0 -339.5 155.5t-133.5 386.5zM419 518q0 -93 61.5 -157t150.5 -64t150.5 64t61.5 157t-61.5 157t-150.5 64t-150.5 -64t-61.5 -157z" />
    <glyph glyph-name="acircumflex" unicode="&#xe2;" horiz-adv-x="1322" 
d="M781 1527q60 0 98 -46l122 -146q51 -62 -11 -113l-42 -33q-57 -47 -113 4l-168 157l-168 -157q-55 -52 -113 -4l-42 33q-63 49 -11 113l122 146q38 46 98 46h228zM56 518q0 231 133.5 386.5t339.5 155.5q187 0 314 -129v25q0 80 80 80h200q80 0 80 -80v-876
q0 -80 -80 -80h-200q-80 0 -80 80v25q-127 -129 -314 -129q-206 0 -339.5 155.5t-133.5 386.5zM419 518q0 -93 61.5 -157t150.5 -64t150.5 64t61.5 157t-61.5 157t-150.5 64t-150.5 -64t-61.5 -157z" />
    <glyph glyph-name="atilde" unicode="&#xe3;" horiz-adv-x="1322" 
d="M667 1219q-62 33 -85 33q-12 0 -20 -7l-20.5 -18t-17.5 -15t-16.5 -11.5t-19 -6t-24.5 1.5l-126 24q-40 8 -56.5 33.5t-3.5 63.5q57 164 214 164q77 0 155 -42q62 -33 85 -33q12 0 20 7q9 7 21 18l17 15.5t16.5 11t19 5.5t24.5 -1l126 -24q40 -8 56.5 -33.5t3.5 -63.5
q-57 -164 -214 -164q-75 0 -155 42zM56 518q0 231 133.5 386.5t339.5 155.5q187 0 314 -129v25q0 80 80 80h200q80 0 80 -80v-876q0 -80 -80 -80h-200q-80 0 -80 80v25q-127 -129 -314 -129q-206 0 -339.5 155.5t-133.5 386.5zM419 518q0 -93 61.5 -157t150.5 -64t150.5 64
t61.5 157t-61.5 157t-150.5 64t-150.5 -64t-61.5 -157z" />
    <glyph glyph-name="adieresis" unicode="&#xe4;" horiz-adv-x="1322" 
d="M258 1340q0 74 51 124t127 50q75 0 126 -50t51 -124t-51 -124t-126 -50q-76 0 -127 50t-51 124zM679 1340q0 74 51 124t126 50q76 0 127 -50t51 -124t-51 -124t-127 -50q-75 0 -126 50t-51 124zM56 518q0 231 133.5 386.5t339.5 155.5q187 0 314 -129v25q0 80 80 80h200
q80 0 80 -80v-876q0 -80 -80 -80h-200q-80 0 -80 80v25q-127 -129 -314 -129q-206 0 -339.5 155.5t-133.5 386.5zM419 518q0 -93 61.5 -157t150.5 -64t150.5 64t61.5 157t-61.5 157t-150.5 64t-150.5 -64t-61.5 -157z" />
    <glyph glyph-name="aring" unicode="&#xe5;" horiz-adv-x="1322" 
d="M404 1362q0 95 71 159.5t175 64.5t175 -64.5t71 -159.5t-71 -160t-175 -65t-175 65t-71 160zM592 1362q0 -25 16.5 -41t41.5 -16t41.5 16t16.5 41q0 24 -16.5 40t-41.5 16t-41.5 -16t-16.5 -40zM56 518q0 231 133.5 386.5t339.5 155.5q187 0 314 -129v25q0 80 80 80h200
q80 0 80 -80v-876q0 -80 -80 -80h-200q-80 0 -80 80v25q-127 -129 -314 -129q-206 0 -339.5 155.5t-133.5 386.5zM419 518q0 -93 61.5 -157t150.5 -64t150.5 64t61.5 157t-61.5 157t-150.5 64t-150.5 -64t-61.5 -157z" />
    <glyph glyph-name="ae" unicode="&#xe6;" horiz-adv-x="2066" 
d="M1218 421q33 -180 247 -180q154 0 265 68q66 41 112 -15l40 -49q48 -61 -2 -112q-70 -73 -160 -115t-191 -42q-105 0 -189.5 37.5t-136.5 104.5v-38q0 -80 -80 -80h-200q-80 0 -80 80v25q-127 -129 -314 -129q-206 0 -339.5 155.5t-133.5 386.5t133.5 386.5t339.5 155.5
q187 0 314 -129v25q0 80 80 80h200q80 0 80 -80v-33q102 137 297 137q139 0 248.5 -70.5t168.5 -190.5t59 -266q0 -19 -3 -42q-4 -34 -26.5 -52t-59.5 -18h-669zM1417 795q-74 0 -125.5 -44t-70.5 -119h384q-31 163 -188 163zM419 518q0 -93 61.5 -157t150.5 -64t150.5 64
t61.5 157t-61.5 157t-150.5 64t-150.5 -64t-61.5 -157z" />
    <glyph glyph-name="ccedilla" unicode="&#xe7;" horiz-adv-x="1180" 
d="M686 -292q0 26 -22.5 45t-55.5 19q-55 8 -85 38q-19 19 -19 76v102q-195 37 -321.5 184.5t-126.5 345.5q0 229 157.5 385.5t391.5 156.5q181 0 311.5 -90.5t184.5 -244.5q14 -40 -6 -64.5t-63 -24.5h-211q-30 0 -50 13t-46 42q-43 48 -120 48t-131.5 -64t-54.5 -157
q0 -97 60.5 -159t168.5 -62q125 0 229 84q57 50 112 5l57 -46q59 -48 20 -111q-132 -204 -343 -243v-79q96 -12 150.5 -70.5t54.5 -132.5q0 -96 -89.5 -160t-223.5 -64q-95 0 -169.5 35.5t-115.5 104.5q-22 39 -2.5 65.5t65.5 26.5h48q12 0 22.5 -2t20.5 -8l16.5 -10
t18.5 -14t19 -15q28 -17 65 -17q38 0 60.5 17.5t22.5 44.5z" />
    <glyph glyph-name="egrave" unicode="&#xe8;" horiz-adv-x="1239" 
d="M364 1371q-29 28 -27 58t33 55l100 82q31 26 60.5 21.5t51.5 -38.5l150 -227q42 -64 -18 -112l-44 -35q-60 -47 -113 6zM425 421q15 -88 77.5 -134t168.5 -46q154 0 265 68q66 41 112 -15l38 -47q49 -62 -6 -112q-174 -159 -418 -159q-133 0 -247 42t-192.5 114.5
t-122.5 172.5t-44 213q0 150 75 274.5t207 196t291 71.5q156 0 283 -70t198.5 -191t71.5 -266q0 -19 -3 -42q-4 -34 -26.5 -52t-59.5 -18h-668zM623 795q-77 0 -127.5 -42t-67.5 -121h384q-31 163 -189 163z" />
    <glyph glyph-name="eacute" unicode="&#xe9;" horiz-adv-x="1239" 
d="M677 1181q-53 -53 -113 -6l-45 35q-60 48 -17 112l150 227q22 34 51.5 38.5t60.5 -21.5l100 -82q31 -25 33 -55t-27 -58zM425 421q15 -88 77.5 -134t168.5 -46q154 0 265 68q66 41 112 -15l38 -47q49 -62 -6 -112q-174 -159 -418 -159q-133 0 -247 42t-192.5 114.5
t-122.5 172.5t-44 213q0 150 75 274.5t207 196t291 71.5q156 0 283 -70t198.5 -191t71.5 -266q0 -19 -3 -42q-4 -34 -26.5 -52t-59.5 -18h-668zM623 795q-77 0 -127.5 -42t-67.5 -121h384q-31 163 -189 163z" />
    <glyph glyph-name="ecircumflex" unicode="&#xea;" horiz-adv-x="1239" 
d="M732 1527q60 0 98 -46l122 -146q51 -62 -11 -113l-42 -33q-57 -47 -113 4l-168 157l-168 -157q-55 -52 -113 -4l-42 33q-63 49 -11 113l122 146q38 46 98 46h228zM425 421q15 -88 77.5 -134t168.5 -46q154 0 265 68q66 41 112 -15l38 -47q49 -62 -6 -112
q-174 -159 -418 -159q-133 0 -247 42t-192.5 114.5t-122.5 172.5t-44 213q0 150 75 274.5t207 196t291 71.5q156 0 283 -70t198.5 -191t71.5 -266q0 -19 -3 -42q-4 -34 -26.5 -52t-59.5 -18h-668zM623 795q-77 0 -127.5 -42t-67.5 -121h384q-31 163 -189 163z" />
    <glyph glyph-name="edieresis" unicode="&#xeb;" horiz-adv-x="1239" 
d="M231 1340q0 74 51 124t127 50q75 0 126 -50t51 -124t-51 -124t-126 -50q-76 0 -127 50t-51 124zM652 1340q0 74 51 124t126 50q76 0 127 -50t51 -124t-51 -124t-127 -50q-75 0 -126 50t-51 124zM425 421q15 -88 77.5 -134t168.5 -46q154 0 265 68q66 41 112 -15l38 -47
q49 -62 -6 -112q-174 -159 -418 -159q-133 0 -247 42t-192.5 114.5t-122.5 172.5t-44 213q0 150 75 274.5t207 196t291 71.5q156 0 283 -70t198.5 -191t71.5 -266q0 -19 -3 -42q-4 -34 -26.5 -52t-59.5 -18h-668zM623 795q-77 0 -127.5 -42t-67.5 -121h384q-31 163 -189 163
z" />
    <glyph glyph-name="igrave" unicode="&#xec;" horiz-adv-x="600" 
d="M61 1371q-29 28 -27 58t33 55l100 82q31 26 60.5 21.5t51.5 -38.5l150 -227q42 -64 -18 -112l-44 -35q-60 -47 -113 6zM115 956q0 80 80 80h210q80 0 80 -80v-876q0 -80 -80 -80h-210q-80 0 -80 80v876z" />
    <glyph glyph-name="iacute" unicode="&#xed;" horiz-adv-x="600" 
d="M338 1181q-53 -53 -113 -6l-45 35q-60 48 -17 112l150 227q22 34 51.5 38.5t60.5 -21.5l100 -82q31 -25 33 -55t-27 -58zM115 956q0 80 80 80h210q80 0 80 -80v-876q0 -80 -80 -80h-210q-80 0 -80 80v876z" />
    <glyph glyph-name="icircumflex" unicode="&#xee;" horiz-adv-x="600" 
d="M413 1527q60 0 98 -46l122 -146q51 -62 -11 -113l-42 -33q-57 -47 -113 4l-168 157l-168 -157q-55 -52 -113 -4l-42 33q-63 49 -11 113l122 146q38 46 98 46h228zM115 956q0 80 80 80h210q80 0 80 -80v-876q0 -80 -80 -80h-210q-80 0 -80 80v876z" />
    <glyph glyph-name="idieresis" unicode="&#xef;" horiz-adv-x="600" 
d="M-88 1340q0 74 51 124t127 50q75 0 126 -50t51 -124t-51 -124t-126 -50q-76 0 -127 50t-51 124zM333 1340q0 74 51 124t126 50q76 0 127 -50t51 -124t-51 -124t-127 -50q-75 0 -126 50t-51 124zM115 956q0 80 80 80h210q80 0 80 -80v-876q0 -80 -80 -80h-210
q-80 0 -80 80v876z" />
    <glyph glyph-name="eth" unicode="&#xf0;" horiz-adv-x="1261" 
d="M287 1065q-41 70 32 107l83 42q-40 22 -84 42q-80 38 -30 109l69 98q43 61 109 30q153 -70 234 -130l104 52q71 36 109 -33l5 -9q40 -72 -33 -108l-36 -18q165 -147 254.5 -334.5t89.5 -394.5q0 -229 -160.5 -385.5t-407.5 -156.5q-158 0 -288.5 67.5t-205.5 185.5
t-75 259q0 107 46.5 202.5t120.5 160.5t167.5 103t187.5 38q76 0 130 -34q-59 82 -144 150l-166 -80q-68 -33 -108 32zM416 499q0 -85 61 -143.5t150 -58.5t150 58.5t61 143.5q0 86 -61 144.5t-150 58.5t-150 -58.5t-61 -144.5z" />
    <glyph glyph-name="ntilde" unicode="&#xf1;" horiz-adv-x="1238" 
d="M639 1219q-62 33 -85 33q-12 0 -20 -7l-20.5 -18t-17.5 -15t-16.5 -11.5t-19 -6t-24.5 1.5l-126 24q-40 8 -56.5 33.5t-3.5 63.5q57 164 214 164q77 0 155 -42q62 -33 85 -33q12 0 20 7q9 7 21 18l17 15.5t16.5 11t19 5.5t24.5 -1l126 -24q40 -8 56.5 -33.5t3.5 -63.5
q-57 -164 -214 -164q-75 0 -155 42zM488 80q0 -80 -80 -80h-210q-80 0 -80 80v876q0 80 80 80h210q80 0 80 -80v-22q100 122 272 122q163 0 271 -108t108 -288v-580q0 -80 -80 -80h-210q-80 0 -80 80v506q0 65 -38.5 108.5t-98.5 43.5q-63 0 -103.5 -45.5t-40.5 -135.5v-477
z" />
    <glyph glyph-name="ograve" unicode="&#xf2;" horiz-adv-x="1283" 
d="M381 1371q-29 28 -27 58t33 55l100 82q31 26 60.5 21.5t51.5 -38.5l150 -227q42 -64 -18 -112l-44 -35q-60 -47 -113 6zM56 518q0 150 76.5 274.5t211 196t297.5 71.5q249 0 417 -156.5t168 -385.5t-168 -385.5t-417 -156.5q-163 0 -297.5 71.5t-211 196t-76.5 274.5z
M419 518q0 -94 63 -157.5t159 -63.5t159.5 63.5t63.5 157.5t-63.5 157.5t-159.5 63.5t-159 -63.5t-63 -157.5z" />
    <glyph glyph-name="oacute" unicode="&#xf3;" horiz-adv-x="1283" 
d="M702 1181q-53 -53 -113 -6l-45 35q-60 48 -17 112l150 227q22 34 51.5 38.5t60.5 -21.5l100 -82q31 -25 33 -55t-27 -58zM56 518q0 150 76.5 274.5t211 196t297.5 71.5q249 0 417 -156.5t168 -385.5t-168 -385.5t-417 -156.5q-163 0 -297.5 71.5t-211 196t-76.5 274.5z
M419 518q0 -94 63 -157.5t159 -63.5t159.5 63.5t63.5 157.5t-63.5 157.5t-159.5 63.5t-159 -63.5t-63 -157.5z" />
    <glyph glyph-name="ocircumflex" unicode="&#xf4;" horiz-adv-x="1283" 
d="M754 1527q60 0 98 -46l122 -146q51 -62 -11 -113l-42 -33q-57 -47 -113 4l-168 157l-168 -157q-55 -52 -113 -4l-42 33q-63 49 -11 113l122 146q38 46 98 46h228zM56 518q0 150 76.5 274.5t211 196t297.5 71.5q249 0 417 -156.5t168 -385.5t-168 -385.5t-417 -156.5
q-163 0 -297.5 71.5t-211 196t-76.5 274.5zM419 518q0 -94 63 -157.5t159 -63.5t159.5 63.5t63.5 157.5t-63.5 157.5t-159.5 63.5t-159 -63.5t-63 -157.5z" />
    <glyph glyph-name="otilde" unicode="&#xf5;" horiz-adv-x="1283" 
d="M651 1219q-62 33 -85 33q-12 0 -20 -7l-20.5 -18t-17.5 -15t-16.5 -11.5t-19 -6t-24.5 1.5l-126 24q-40 8 -56.5 33.5t-3.5 63.5q57 164 214 164q77 0 155 -42q62 -33 85 -33q12 0 20 7q9 7 21 18l17 15.5t16.5 11t19 5.5t24.5 -1l126 -24q40 -8 56.5 -33.5t3.5 -63.5
q-57 -164 -214 -164q-75 0 -155 42zM56 518q0 150 76.5 274.5t211 196t297.5 71.5q249 0 417 -156.5t168 -385.5t-168 -385.5t-417 -156.5q-163 0 -297.5 71.5t-211 196t-76.5 274.5zM419 518q0 -94 63 -157.5t159 -63.5t159.5 63.5t63.5 157.5t-63.5 157.5t-159.5 63.5
t-159 -63.5t-63 -157.5z" />
    <glyph glyph-name="odieresis" unicode="&#xf6;" horiz-adv-x="1283" 
d="M253 1340q0 74 51 124t127 50q75 0 126 -50t51 -124t-51 -124t-126 -50q-76 0 -127 50t-51 124zM674 1340q0 74 51 124t126 50q76 0 127 -50t51 -124t-51 -124t-127 -50q-75 0 -126 50t-51 124zM56 518q0 150 76.5 274.5t211 196t297.5 71.5q249 0 417 -156.5t168 -385.5
t-168 -385.5t-417 -156.5q-163 0 -297.5 71.5t-211 196t-76.5 274.5zM419 518q0 -94 63 -157.5t159 -63.5t159.5 63.5t63.5 157.5t-63.5 157.5t-159.5 63.5t-159 -63.5t-63 -157.5z" />
    <glyph glyph-name="divide" unicode="&#xf7;" horiz-adv-x="1178" 
d="M385 1079q0 82 56.5 138t139.5 56t139.5 -56t56.5 -138q0 -81 -56.5 -137t-139.5 -56t-139.5 56t-56.5 137zM194 508q-80 0 -80 80v152q0 80 80 80h790q80 0 80 -80v-152q0 -80 -80 -80h-790zM385 248q0 81 56.5 137t139.5 56t139.5 -56t56.5 -137t-56.5 -137t-139.5 -56
t-139.5 56t-56.5 137z" />
    <glyph glyph-name="oslash" unicode="&#xf8;" horiz-adv-x="1283" 
d="M56 518q0 150 76.5 274.5t211 196t297.5 71.5q138 0 258 -53l63 82q23 31 52.5 35t60.5 -19l26 -19q64 -48 15 -113l-56 -71q79 -74 122.5 -173t43.5 -211q0 -229 -168 -385.5t-417 -156.5q-139 0 -259 53l-65 -83q-49 -63 -112 -16l-26 19q-64 47 -15 112l57 74
q-78 74 -121.5 172.5t-43.5 210.5zM406 518q0 -59 27 -110l262 336q-27 8 -54 8q-100 0 -167.5 -67.5t-67.5 -166.5zM877 518q0 59 -29 111l-263 -338q25 -7 56 -7q101 0 168.5 67.5t67.5 166.5z" />
    <glyph glyph-name="ugrave" unicode="&#xf9;" horiz-adv-x="1238" 
d="M343 1371q-29 28 -27 58t33 55l100 82q31 26 60.5 21.5t51.5 -38.5l150 -227q42 -64 -18 -112l-44 -35q-60 -47 -113 6zM749 956q0 80 80 80h210q80 0 80 -80v-876q0 -80 -80 -80h-210q-80 0 -80 80v20q-99 -120 -272 -120q-163 0 -271 107.5t-108 287.5v581q0 80 80 80
h210q80 0 80 -80v-507q0 -65 38.5 -108.5t98.5 -43.5q63 0 103.5 46.5t40.5 138.5v474z" />
    <glyph glyph-name="uacute" unicode="&#xfa;" horiz-adv-x="1238" 
d="M672 1181q-53 -53 -113 -6l-45 35q-60 48 -17 112l150 227q22 34 51.5 38.5t60.5 -21.5l100 -82q31 -25 33 -55t-27 -58zM749 956q0 80 80 80h210q80 0 80 -80v-876q0 -80 -80 -80h-210q-80 0 -80 80v20q-99 -120 -272 -120q-163 0 -271 107.5t-108 287.5v581q0 80 80 80
h210q80 0 80 -80v-507q0 -65 38.5 -108.5t98.5 -43.5q63 0 103.5 46.5t40.5 138.5v474z" />
    <glyph glyph-name="ucircumflex" unicode="&#xfb;" horiz-adv-x="1238" 
d="M722 1527q60 0 98 -46l122 -146q51 -62 -11 -113l-42 -33q-57 -47 -113 4l-168 157l-168 -157q-55 -52 -113 -4l-42 33q-63 49 -11 113l122 146q38 46 98 46h228zM749 956q0 80 80 80h210q80 0 80 -80v-876q0 -80 -80 -80h-210q-80 0 -80 80v20q-99 -120 -272 -120
q-163 0 -271 107.5t-108 287.5v581q0 80 80 80h210q80 0 80 -80v-507q0 -65 38.5 -108.5t98.5 -43.5q63 0 103.5 46.5t40.5 138.5v474z" />
    <glyph glyph-name="udieresis" unicode="&#xfc;" horiz-adv-x="1238" 
d="M221 1340q0 74 51 124t127 50q75 0 126 -50t51 -124t-51 -124t-126 -50q-76 0 -127 50t-51 124zM642 1340q0 74 51 124t126 50q76 0 127 -50t51 -124t-51 -124t-127 -50q-75 0 -126 50t-51 124zM749 956q0 80 80 80h210q80 0 80 -80v-876q0 -80 -80 -80h-210
q-80 0 -80 80v20q-99 -120 -272 -120q-163 0 -271 107.5t-108 287.5v581q0 80 80 80h210q80 0 80 -80v-507q0 -65 38.5 -108.5t98.5 -43.5q63 0 103.5 46.5t40.5 138.5v474z" />
    <glyph glyph-name="yacute" unicode="&#xfd;" horiz-adv-x="1110" 
d="M616 1181q-53 -53 -113 -6l-45 35q-60 48 -17 112l150 227q22 34 51.5 38.5t60.5 -21.5l100 -82q31 -25 33 -55t-27 -58zM996 1036q44 0 61.5 -25.5t3.5 -66.5l-467 -1343q-22 -65 -91 -65h-218q-45 0 -62.5 26t-0.5 67l154 371l-328 944q-14 41 3.5 66.5t61.5 25.5h219
q71 0 89 -68l133 -499l134 499q18 68 89 68h219z" />
    <glyph glyph-name="thorn" unicode="&#xfe;" horiz-adv-x="1322" 
d="M1266 518q0 -231 -133 -386.5t-340 -155.5q-188 0 -314 129v-489q0 -80 -80 -80h-200q-80 0 -80 80v1764q0 80 80 80h200q80 0 80 -80v-449q126 129 314 129q207 0 340 -155.5t133 -386.5zM903 518q0 94 -61 157.5t-150 63.5q-90 0 -151.5 -64t-61.5 -157t61.5 -157
t151.5 -64q89 0 150 63.5t61 157.5z" />
    <glyph glyph-name="ydieresis" unicode="&#xff;" horiz-adv-x="1110" 
d="M167 1340q0 74 51 124t127 50q75 0 126 -50t51 -124t-51 -124t-126 -50q-76 0 -127 50t-51 124zM588 1340q0 74 51 124t126 50q76 0 127 -50t51 -124t-51 -124t-127 -50q-75 0 -126 50t-51 124zM996 1036q44 0 61.5 -25.5t3.5 -66.5l-467 -1343q-22 -65 -91 -65h-218
q-45 0 -62.5 26t-0.5 67l154 371l-328 944q-14 41 3.5 66.5t61.5 25.5h219q71 0 89 -68l133 -499l134 499q18 68 89 68h219z" />
    <glyph glyph-name="Amacron" unicode="&#x100;" horiz-adv-x="1397" 
d="M368 1715q0 80 80 80h500q80 0 80 -80v-106q0 -80 -80 -80h-500q-80 0 -80 80v106zM836 1400q69 0 91 -65l418 -1244q14 -41 -3.5 -66t-61.5 -25h-225q-71 0 -90 67l-58 201h-419l-58 -201q-19 -67 -89 -67h-225q-44 0 -61.5 25t-3.5 66l418 1244q22 65 91 65h276z
M568 557h260l-130 449z" />
    <glyph glyph-name="amacron" unicode="&#x101;" horiz-adv-x="1322" 
d="M319 1391q0 80 80 80h500q80 0 80 -80v-106q0 -80 -80 -80h-500q-80 0 -80 80v106zM56 518q0 231 133.5 386.5t339.5 155.5q187 0 314 -129v25q0 80 80 80h200q80 0 80 -80v-876q0 -80 -80 -80h-200q-80 0 -80 80v25q-127 -129 -314 -129q-206 0 -339.5 155.5
t-133.5 386.5zM419 518q0 -93 61.5 -157t150.5 -64t150.5 64t61.5 157t-61.5 157t-150.5 64t-150.5 -64t-61.5 -157z" />
    <glyph glyph-name="Abreve" unicode="&#x102;" horiz-adv-x="1397" 
d="M698 1488q-127 0 -229 62.5t-138 165.5q-14 39 7.5 62.5t64.5 23.5h132q8 0 15.5 -1.5t13 -2.5t12 -5.5l9.5 -6.5t9.5 -9.5t9 -10t10 -12.5t10.5 -13q29 -32 74 -32t74 32q3 3 10.5 13t10 12.5t9 10t9.5 9.5l9.5 6.5t12 5.5t13 2.5t15.5 1.5h132q42 0 64 -21.5t11 -57.5
q-34 -105 -138 -170t-232 -65zM836 1400q69 0 91 -65l418 -1244q14 -41 -3.5 -66t-61.5 -25h-225q-71 0 -90 67l-58 201h-419l-58 -201q-19 -67 -89 -67h-225q-44 0 -61.5 25t-3.5 66l418 1244q22 65 91 65h276zM568 557h260l-130 449z" />
    <glyph glyph-name="abreve" unicode="&#x103;" horiz-adv-x="1322" 
d="M649 1164q-127 0 -229 62.5t-138 165.5q-14 39 7.5 62.5t64.5 23.5h132q8 0 15.5 -1.5t13 -2.5t12 -5.5l9.5 -6.5t9.5 -9.5t9 -10t10 -12.5t10.5 -13q29 -32 74 -32t74 32q3 3 10.5 13t10 12.5t9 10t9.5 9.5l9.5 6.5t12 5.5t13 2.5t15.5 1.5h132q42 0 64 -21.5t11 -57.5
q-34 -105 -138 -170t-232 -65zM56 518q0 231 133.5 386.5t339.5 155.5q187 0 314 -129v25q0 80 80 80h200q80 0 80 -80v-876q0 -80 -80 -80h-200q-80 0 -80 80v25q-127 -129 -314 -129q-206 0 -339.5 155.5t-133.5 386.5zM419 518q0 -93 61.5 -157t150.5 -64t150.5 64
t61.5 157t-61.5 157t-150.5 64t-150.5 -64t-61.5 -157z" />
    <glyph glyph-name="Aogonek" unicode="&#x104;" horiz-adv-x="1397" 
d="M1055 0q-71 0 -90 67l-58 201h-419l-57 -201q-21 -67 -90 -67h-225q-44 0 -61.5 25t-3.5 66l418 1244q22 65 91 65h276q69 0 91 -65l427 -1270q21 -61 -32 -109q-114 -100 -114 -187q0 -44 19.5 -68t49.5 -24q37 0 59 33q17 25 26 36.5t25.5 20.5t38.5 9h69q43 0 64 -24
t8 -64q-32 -94 -111 -143.5t-198 -49.5q-123 0 -211 68.5t-88 170.5q0 72 51 142.5t134 123.5h-89zM568 557h260l-130 449z" />
    <glyph glyph-name="aogonek" unicode="&#x105;" horiz-adv-x="1322" 
d="M56 518q0 231 133.5 386.5t339.5 155.5q187 0 314 -129v25q0 80 80 80h200q80 0 80 -80v-896q0 -57 -48 -99q-119 -105 -119 -192q0 -44 19 -68.5t49 -24.5q38 0 60 34q16 25 25 36.5t25.5 20.5t38.5 9h70q43 0 64 -24t7 -64q-32 -94 -110.5 -143.5t-197.5 -49.5
q-123 0 -211.5 68t-88.5 170q0 72 51.5 143t134.5 124h-49q-80 0 -80 80v25q-127 -129 -314 -129q-206 0 -339.5 155.5t-133.5 386.5zM419 518q0 -93 61.5 -157t150.5 -64t150.5 64t61.5 157t-61.5 157t-150.5 64t-150.5 -64t-61.5 -157z" />
    <glyph glyph-name="Cacute" unicode="&#x106;" horiz-adv-x="1514" 
d="M814 1505q-53 -53 -113 -6l-45 35q-60 48 -17 112l150 227q22 34 51.5 38.5t60.5 -21.5l100 -82q31 -25 33 -55t-27 -58zM805 -24q-206 0 -374.5 95.5t-264.5 261.5t-96 367q0 205 90 370t254 259.5t371 94.5q225 0 394.5 -114.5t239.5 -322.5q13 -41 -6.5 -65.5
t-62.5 -24.5h-241q-61 0 -92 63q-34 64 -93 99.5t-132 35.5q-153 0 -246.5 -111.5t-93.5 -283.5q0 -171 101.5 -283.5t258.5 -112.5q214 0 362 158q52 57 112 13l81 -60q62 -47 23 -108q-221 -331 -585 -331z" />
    <glyph glyph-name="cacute" unicode="&#x107;" horiz-adv-x="1180" 
d="M632 1181q-53 -53 -113 -6l-45 35q-60 48 -17 112l150 227q22 34 51.5 38.5t60.5 -21.5l100 -82q31 -25 33 -55t-27 -58zM1046 340q60 -49 20 -111q-163 -253 -448 -253q-153 0 -282.5 71.5t-204.5 196t-75 274.5q0 229 157.5 385.5t391.5 156.5q181 0 311.5 -90.5
t184.5 -244.5q14 -40 -6 -64.5t-63 -24.5h-211q-30 0 -50 13t-46 42q-43 48 -120 48t-131.5 -64t-54.5 -157q0 -97 60.5 -159t168.5 -62q125 0 229 84q58 49 112 5z" />
    <glyph glyph-name="Ccircumflex" unicode="&#x108;" horiz-adv-x="1514" 
d="M903 1851q60 0 98 -46l122 -146q51 -62 -11 -113l-42 -33q-57 -47 -113 4l-168 157l-168 -157q-55 -52 -113 -4l-42 33q-63 49 -11 113l122 146q38 46 98 46h228zM805 -24q-206 0 -374.5 95.5t-264.5 261.5t-96 367q0 205 90 370t254 259.5t371 94.5q225 0 394.5 -114.5
t239.5 -322.5q13 -41 -6.5 -65.5t-62.5 -24.5h-241q-61 0 -92 63q-34 64 -93 99.5t-132 35.5q-153 0 -246.5 -111.5t-93.5 -283.5q0 -171 101.5 -283.5t258.5 -112.5q214 0 362 158q52 57 112 13l81 -60q62 -47 23 -108q-221 -331 -585 -331z" />
    <glyph glyph-name="ccircumflex" unicode="&#x109;" horiz-adv-x="1180" 
d="M713 1527q60 0 98 -46l122 -146q51 -62 -11 -113l-42 -33q-57 -47 -113 4l-168 157l-168 -157q-55 -52 -113 -4l-42 33q-63 49 -11 113l122 146q38 46 98 46h228zM1046 340q60 -49 20 -111q-163 -253 -448 -253q-153 0 -282.5 71.5t-204.5 196t-75 274.5
q0 229 157.5 385.5t391.5 156.5q181 0 311.5 -90.5t184.5 -244.5q14 -40 -6 -64.5t-63 -24.5h-211q-30 0 -50 13t-46 42q-43 48 -120 48t-131.5 -64t-54.5 -157q0 -97 60.5 -159t168.5 -62q125 0 229 84q58 49 112 5z" />
    <glyph glyph-name="Cdotaccent" unicode="&#x10a;" horiz-adv-x="1514" 
d="M602 1664q0 76 53.5 128.5t131.5 52.5t131.5 -52.5t53.5 -128.5t-53.5 -129t-131.5 -53t-131.5 53t-53.5 129zM805 -24q-206 0 -374.5 95.5t-264.5 261.5t-96 367q0 205 90 370t254 259.5t371 94.5q225 0 394.5 -114.5t239.5 -322.5q13 -41 -6.5 -65.5t-62.5 -24.5h-241
q-61 0 -92 63q-34 64 -93 99.5t-132 35.5q-153 0 -246.5 -111.5t-93.5 -283.5q0 -171 101.5 -283.5t258.5 -112.5q214 0 362 158q52 57 112 13l81 -60q62 -47 23 -108q-221 -331 -585 -331z" />
    <glyph glyph-name="cdotaccent" unicode="&#x10b;" horiz-adv-x="1180" 
d="M428 1340q0 76 53.5 128.5t131.5 52.5t131.5 -52.5t53.5 -128.5t-53.5 -129t-131.5 -53t-131.5 53t-53.5 129zM1046 340q60 -49 20 -111q-163 -253 -448 -253q-153 0 -282.5 71.5t-204.5 196t-75 274.5q0 229 157.5 385.5t391.5 156.5q181 0 311.5 -90.5t184.5 -244.5
q14 -40 -6 -64.5t-63 -24.5h-211q-30 0 -50 13t-46 42q-43 48 -120 48t-131.5 -64t-54.5 -157q0 -97 60.5 -159t168.5 -62q125 0 229 84q58 49 112 5z" />
    <glyph glyph-name="Ccaron" unicode="&#x10c;" horiz-adv-x="1514" 
d="M675 1508q-60 0 -98 46l-122 146q-51 62 11 113l42 33q57 47 113 -4l168 -157l168 157q55 52 113 4l42 -33q63 -49 11 -113l-122 -146q-38 -46 -98 -46h-228zM805 -24q-206 0 -374.5 95.5t-264.5 261.5t-96 367q0 205 90 370t254 259.5t371 94.5q225 0 394.5 -114.5
t239.5 -322.5q13 -41 -6.5 -65.5t-62.5 -24.5h-241q-61 0 -92 63q-34 64 -93 99.5t-132 35.5q-153 0 -246.5 -111.5t-93.5 -283.5q0 -171 101.5 -283.5t258.5 -112.5q214 0 362 158q52 57 112 13l81 -60q62 -47 23 -108q-221 -331 -585 -331z" />
    <glyph glyph-name="ccaron" unicode="&#x10d;" horiz-adv-x="1180" 
d="M486 1164q-60 0 -98 46l-122 146q-51 62 11 113l42 33q57 47 113 -4l168 -157l168 157q55 52 113 4l42 -33q63 -49 11 -113l-122 -146q-38 -46 -98 -46h-228zM1046 340q60 -49 20 -111q-163 -253 -448 -253q-153 0 -282.5 71.5t-204.5 196t-75 274.5q0 229 157.5 385.5
t391.5 156.5q181 0 311.5 -90.5t184.5 -244.5q14 -40 -6 -64.5t-63 -24.5h-211q-30 0 -50 13t-46 42q-43 48 -120 48t-131.5 -64t-54.5 -157q0 -97 60.5 -159t168.5 -62q125 0 229 84q58 49 112 5z" />
    <glyph glyph-name="Dcaron" unicode="&#x10e;" horiz-adv-x="1450" 
d="M545 1508q-60 0 -98 46l-122 146q-51 62 11 113l42 33q57 47 113 -4l168 -157l168 157q55 52 113 4l42 -33q63 -49 11 -113l-122 -146q-38 -46 -98 -46h-228zM220 0q-80 0 -80 80v1240q0 80 80 80h457q206 0 366 -88t248 -247.5t88 -364.5q0 -206 -88 -365t-248 -247
t-366 -88h-457zM647 328q162 0 256 98t94 274t-94 273.5t-256 97.5h-127v-743h127z" />
    <glyph glyph-name="dcaron" unicode="&#x10f;" horiz-adv-x="1716" 
d="M1308 1316q0 63 54 115t142 52q81 0 134.5 -54t53.5 -141q0 -131 -75.5 -246.5t-225.5 -184.5q-67 -30 -108 34q-24 37 43 88q62 45 81.5 83.5t5.5 71.5t-59 76q-46 43 -46 106zM56 518q0 231 133.5 386.5t339.5 155.5q187 0 314 -129v449q0 80 80 80h200q80 0 80 -80
v-1300q0 -80 -80 -80h-200q-80 0 -80 80v25q-127 -129 -314 -129q-206 0 -339.5 155.5t-133.5 386.5zM419 518q0 -93 61.5 -157t150.5 -64t150.5 64t61.5 157t-61.5 157t-150.5 64t-150.5 -64t-61.5 -157z" />
    <glyph glyph-name="Dcroat" unicode="&#x110;" horiz-adv-x="1492" 
d="M262 0q-80 0 -80 80v511h-85q-80 0 -80 80v57q0 80 80 80h85v512q0 80 80 80h457q206 0 366 -88t248 -247.5t88 -364.5q0 -206 -88 -365t-248 -247t-366 -88h-457zM689 328q162 0 256 98t94 274t-94 273.5t-256 97.5h-127v-263h120q80 0 80 -80v-57q0 -80 -80 -80h-120
v-263h127z" />
    <glyph glyph-name="dcroat" unicode="&#x111;" horiz-adv-x="1354" 
d="M56 518q0 231 133 386.5t340 155.5q91 0 172.5 -34t141.5 -95v206h-172q-80 0 -80 80v37q0 80 80 80h172v46q0 80 80 80h200q80 0 80 -80v-46h51q80 0 80 -80v-37q0 -80 -80 -80h-51v-1057q0 -80 -80 -80h-200q-80 0 -80 80v24q-126 -128 -314 -128q-207 0 -340 155
t-133 387zM419 518q0 -94 61 -157.5t150 -63.5q90 0 151.5 63.5t61.5 157.5q0 93 -61.5 156.5t-151.5 63.5q-89 0 -150 -63.5t-61 -156.5z" />
    <glyph glyph-name="Emacron" unicode="&#x112;" horiz-adv-x="1158" 
d="M256 1715q0 80 80 80h500q80 0 80 -80v-106q0 -80 -80 -80h-500q-80 0 -80 80v106zM140 1320q0 80 80 80h752q80 0 80 -80v-158q0 -80 -80 -80h-451v-222h403q80 0 80 -80v-152q0 -80 -80 -80h-403v-230h469q80 0 80 -80v-158q0 -80 -80 -80h-770q-80 0 -80 80v1240z" />
    <glyph glyph-name="emacron" unicode="&#x113;" horiz-adv-x="1239" 
d="M289 1391q0 80 80 80h500q80 0 80 -80v-106q0 -80 -80 -80h-500q-80 0 -80 80v106zM425 421q15 -88 77.5 -134t168.5 -46q154 0 265 68q66 41 112 -15l38 -47q49 -62 -6 -112q-174 -159 -418 -159q-133 0 -247 42t-192.5 114.5t-122.5 172.5t-44 213q0 150 75 274.5
t207 196t291 71.5q156 0 283 -70t198.5 -191t71.5 -266q0 -19 -3 -42q-4 -34 -26.5 -52t-59.5 -18h-668zM623 795q-77 0 -127.5 -42t-67.5 -121h384q-31 163 -189 163z" />
    <glyph glyph-name="Ebreve" unicode="&#x114;" horiz-adv-x="1158" 
d="M593 1488q-127 0 -229 62.5t-138 165.5q-14 39 7.5 62.5t64.5 23.5h132q8 0 15.5 -1.5t13 -2.5t12 -5.5l9.5 -6.5t9.5 -9.5t9 -10t10 -12.5t10.5 -13q29 -32 74 -32t74 32q3 3 10.5 13t10 12.5t9 10t9.5 9.5l9.5 6.5t12 5.5t13 2.5t15.5 1.5h132q42 0 64 -21.5t11 -57.5
q-34 -105 -138 -170t-232 -65zM140 1320q0 80 80 80h752q80 0 80 -80v-158q0 -80 -80 -80h-451v-222h403q80 0 80 -80v-152q0 -80 -80 -80h-403v-230h469q80 0 80 -80v-158q0 -80 -80 -80h-770q-80 0 -80 80v1240z" />
    <glyph glyph-name="ebreve" unicode="&#x115;" horiz-adv-x="1239" 
d="M619 1164q-127 0 -229 62.5t-138 165.5q-14 39 7.5 62.5t64.5 23.5h132q8 0 15.5 -1.5t13 -2.5t12 -5.5l9.5 -6.5t9.5 -9.5t9 -10t10 -12.5t10.5 -13q29 -32 74 -32t74 32q3 3 10.5 13t10 12.5t9 10t9.5 9.5l9.5 6.5t12 5.5t13 2.5t15.5 1.5h132q42 0 64 -21.5t11 -57.5
q-34 -105 -138 -170t-232 -65zM425 421q15 -88 77.5 -134t168.5 -46q154 0 265 68q66 41 112 -15l38 -47q49 -62 -6 -112q-174 -159 -418 -159q-133 0 -247 42t-192.5 114.5t-122.5 172.5t-44 213q0 150 75 274.5t207 196t291 71.5q156 0 283 -70t198.5 -191t71.5 -266
q0 -19 -3 -42q-4 -34 -26.5 -52t-59.5 -18h-668zM623 795q-77 0 -127.5 -42t-67.5 -121h384q-31 163 -189 163z" />
    <glyph glyph-name="Edotaccent" unicode="&#x116;" horiz-adv-x="1158" 
d="M415 1664q0 76 53.5 128.5t131.5 52.5t131.5 -52.5t53.5 -128.5t-53.5 -129t-131.5 -53t-131.5 53t-53.5 129zM140 1320q0 80 80 80h752q80 0 80 -80v-158q0 -80 -80 -80h-451v-222h403q80 0 80 -80v-152q0 -80 -80 -80h-403v-230h469q80 0 80 -80v-158q0 -80 -80 -80
h-770q-80 0 -80 80v1240z" />
    <glyph glyph-name="edotaccent" unicode="&#x117;" horiz-adv-x="1239" 
d="M434 1340q0 76 53.5 128.5t131.5 52.5t131.5 -52.5t53.5 -128.5t-53.5 -129t-131.5 -53t-131.5 53t-53.5 129zM425 421q15 -88 77.5 -134t168.5 -46q154 0 265 68q66 41 112 -15l38 -47q49 -62 -6 -112q-174 -159 -418 -159q-133 0 -247 42t-192.5 114.5t-122.5 172.5
t-44 213q0 150 75 274.5t207 196t291 71.5q156 0 283 -70t198.5 -191t71.5 -266q0 -19 -3 -42q-4 -34 -26.5 -52t-59.5 -18h-668zM623 795q-77 0 -127.5 -42t-67.5 -121h384q-31 163 -189 163z" />
    <glyph glyph-name="Eogonek" unicode="&#x118;" horiz-adv-x="1158" 
d="M140 1320q0 80 80 80h752q80 0 80 -80v-158q0 -80 -80 -80h-451v-222h403q80 0 80 -80v-152q0 -80 -80 -80h-403v-230h469q80 0 80 -80v-158q0 -80 -80 -80h-80q-168 -127 -168 -231q0 -45 19 -69t50 -24q39 0 59 34q16 25 25 36.5t25.5 20.5t38.5 9h70q43 0 64 -24
t8 -64q-32 -94 -111 -143.5t-198 -49.5q-123 0 -211 68t-88 170q0 72 51 143t134 124h-458q-80 0 -80 80v1240z" />
    <glyph glyph-name="eogonek" unicode="&#x119;" horiz-adv-x="1239" 
d="M425 421q15 -88 77.5 -134t168.5 -46q154 0 265 68q66 41 112 -15l38 -47q49 -61 -6 -113q-130 -119 -299 -148q-150 -119 -150 -217q0 -44 19.5 -68.5t49.5 -24.5q38 0 60 34q16 25 25 36.5t25.5 20.5t38.5 9h70q43 0 63.5 -24t7.5 -64q-32 -94 -111 -143.5t-198 -49.5
q-123 0 -211 68t-88 170q0 67 44.5 133t118.5 119q-221 33 -355 180.5t-134 352.5q0 150 75 274.5t207 196t291 71.5q156 0 283 -70t198.5 -191t71.5 -266q0 -19 -3 -42q-4 -34 -26.5 -52t-59.5 -18h-668zM623 795q-77 0 -127.5 -42t-67.5 -121h384q-31 163 -189 163z" />
    <glyph glyph-name="Ecaron" unicode="&#x11a;" horiz-adv-x="1158" 
d="M477 1508q-60 0 -98 46l-122 146q-51 62 11 113l42 33q57 47 113 -4l168 -157l168 157q55 52 113 4l42 -33q63 -49 11 -113l-122 -146q-38 -46 -98 -46h-228zM140 1320q0 80 80 80h752q80 0 80 -80v-158q0 -80 -80 -80h-451v-222h403q80 0 80 -80v-152q0 -80 -80 -80
h-403v-230h469q80 0 80 -80v-158q0 -80 -80 -80h-770q-80 0 -80 80v1240z" />
    <glyph glyph-name="ecaron" unicode="&#x11b;" horiz-adv-x="1239" 
d="M504 1164q-60 0 -98 46l-122 146q-51 62 11 113l42 33q57 47 113 -4l168 -157l168 157q55 52 113 4l42 -33q63 -49 11 -113l-122 -146q-38 -46 -98 -46h-228zM425 421q15 -88 77.5 -134t168.5 -46q154 0 265 68q66 41 112 -15l38 -47q49 -62 -6 -112q-174 -159 -418 -159
q-133 0 -247 42t-192.5 114.5t-122.5 172.5t-44 213q0 150 75 274.5t207 196t291 71.5q156 0 283 -70t198.5 -191t71.5 -266q0 -19 -3 -42q-4 -34 -26.5 -52t-59.5 -18h-668zM623 795q-77 0 -127.5 -42t-67.5 -121h384q-31 163 -189 163z" />
    <glyph glyph-name="Gcircumflex" unicode="&#x11c;" horiz-adv-x="1533" 
d="M903 1851q60 0 98 -46l122 -146q51 -62 -11 -113l-42 -33q-57 -47 -113 4l-168 157l-168 -157q-55 -52 -113 -4l-42 33q-63 49 -11 113l122 146q38 46 98 46h228zM1382 762q80 0 80 -62q0 -334 -185 -529t-490 -195q-144 0 -276 56.5t-228.5 152.5t-154 230.5
t-57.5 284.5t55.5 284.5t150.5 230.5t228 152.5t282 56.5q224 0 390.5 -106.5t243.5 -319.5q15 -41 -4 -66t-63 -25h-244q-60 0 -94 61q-74 128 -235 128q-135 0 -232 -112t-97 -284t97 -284t245 -112q104 0 177.5 53.5t101.5 144.5h-236q-80 0 -80 80v100q0 80 80 80h545z
" />
    <glyph glyph-name="gcircumflex" unicode="&#x11d;" horiz-adv-x="1322" 
d="M781 1527q60 0 98 -46l122 -146q51 -62 -11 -113l-42 -33q-57 -47 -113 4l-168 157l-168 -157q-55 -52 -113 -4l-42 33q-63 49 -11 113l122 146q38 46 98 46h228zM56 518q0 231 133.5 386.5t339.5 155.5q187 0 314 -129v25q0 80 80 80h200q80 0 80 -80v-885
q0 -253 -151.5 -394t-409.5 -141q-262 0 -459 175q-54 49 -10 112l42 60q43 62 112 19q120 -73 255 -73q118 0 189.5 58.5t71.5 161.5v74q-129 -127 -314 -127q-136 0 -245 71t-168.5 190t-59.5 261zM419 518q0 -93 61.5 -157t150.5 -64t150.5 64t61.5 157t-61.5 157
t-150.5 64t-150.5 -64t-61.5 -157z" />
    <glyph glyph-name="Gbreve" unicode="&#x11e;" horiz-adv-x="1533" 
d="M790 1488q-127 0 -229 62.5t-138 165.5q-14 39 7.5 62.5t64.5 23.5h132q8 0 15.5 -1.5t13 -2.5t12 -5.5l9.5 -6.5t9.5 -9.5t9 -10t10 -12.5t10.5 -13q29 -32 74 -32t74 32q3 3 10.5 13t10 12.5t9 10t9.5 9.5l9.5 6.5t12 5.5t13 2.5t15.5 1.5h132q42 0 64 -21.5t11 -57.5
q-34 -105 -138 -170t-232 -65zM1382 762q80 0 80 -62q0 -334 -185 -529t-490 -195q-144 0 -276 56.5t-228.5 152.5t-154 230.5t-57.5 284.5t55.5 284.5t150.5 230.5t228 152.5t282 56.5q224 0 390.5 -106.5t243.5 -319.5q15 -41 -4 -66t-63 -25h-244q-60 0 -94 61
q-74 128 -235 128q-135 0 -232 -112t-97 -284t97 -284t245 -112q104 0 177.5 53.5t101.5 144.5h-236q-80 0 -80 80v100q0 80 80 80h545z" />
    <glyph glyph-name="gbreve" unicode="&#x11f;" horiz-adv-x="1322" 
d="M649 1164q-127 0 -229 62.5t-138 165.5q-14 39 7.5 62.5t64.5 23.5h132q8 0 15.5 -1.5t13 -2.5t12 -5.5l9.5 -6.5t9.5 -9.5t9 -10t10 -12.5t10.5 -13q29 -32 74 -32t74 32q3 3 10.5 13t10 12.5t9 10t9.5 9.5l9.5 6.5t12 5.5t13 2.5t15.5 1.5h132q42 0 64 -21.5t11 -57.5
q-34 -105 -138 -170t-232 -65zM56 518q0 231 133.5 386.5t339.5 155.5q187 0 314 -129v25q0 80 80 80h200q80 0 80 -80v-885q0 -253 -151.5 -394t-409.5 -141q-262 0 -459 175q-54 49 -10 112l42 60q43 62 112 19q120 -73 255 -73q118 0 189.5 58.5t71.5 161.5v74
q-129 -127 -314 -127q-136 0 -245 71t-168.5 190t-59.5 261zM419 518q0 -93 61.5 -157t150.5 -64t150.5 64t61.5 157t-61.5 157t-150.5 64t-150.5 -64t-61.5 -157z" />
    <glyph glyph-name="Gdotaccent" unicode="&#x120;" horiz-adv-x="1533" 
d="M602 1664q0 76 53.5 128.5t131.5 52.5t131.5 -52.5t53.5 -128.5t-53.5 -129t-131.5 -53t-131.5 53t-53.5 129zM1382 762q80 0 80 -62q0 -334 -185 -529t-490 -195q-144 0 -276 56.5t-228.5 152.5t-154 230.5t-57.5 284.5t55.5 284.5t150.5 230.5t228 152.5t282 56.5
q224 0 390.5 -106.5t243.5 -319.5q15 -41 -4 -66t-63 -25h-244q-60 0 -94 61q-74 128 -235 128q-135 0 -232 -112t-97 -284t97 -284t245 -112q104 0 177.5 53.5t101.5 144.5h-236q-80 0 -80 80v100q0 80 80 80h545z" />
    <glyph glyph-name="gdotaccent" unicode="&#x121;" horiz-adv-x="1322" 
d="M462 1340q0 76 53.5 128.5t131.5 52.5t131.5 -52.5t53.5 -128.5t-53.5 -129t-131.5 -53t-131.5 53t-53.5 129zM56 518q0 231 133.5 386.5t339.5 155.5q187 0 314 -129v25q0 80 80 80h200q80 0 80 -80v-885q0 -253 -151.5 -394t-409.5 -141q-262 0 -459 175
q-54 49 -10 112l42 60q43 62 112 19q120 -73 255 -73q118 0 189.5 58.5t71.5 161.5v74q-129 -127 -314 -127q-136 0 -245 71t-168.5 190t-59.5 261zM419 518q0 -93 61.5 -157t150.5 -64t150.5 64t61.5 157t-61.5 157t-150.5 64t-150.5 -64t-61.5 -157z" />
    <glyph glyph-name="Gcommaaccent" unicode="&#x122;" horiz-adv-x="1533" 
d="M1382 762q80 0 80 -62q0 -334 -185 -529t-490 -195q-144 0 -276 56.5t-228.5 152.5t-154 230.5t-57.5 284.5t55.5 284.5t150.5 230.5t228 152.5t282 56.5q224 0 390.5 -106.5t243.5 -319.5q15 -41 -4 -66t-63 -25h-244q-60 0 -94 61q-74 128 -235 128q-135 0 -232 -112
t-97 -284t97 -284t245 -112q104 0 177.5 53.5t101.5 144.5h-236q-80 0 -80 80v100q0 80 80 80h545zM911 -192q31 -25 33 -55t-27 -58l-193 -191q-54 -54 -113 -6l-45 36q-60 48 -17 112l150 227q22 34 51.5 38.5t60.5 -21.5z" />
    <glyph glyph-name="gcommaaccent" unicode="&#x123;" horiz-adv-x="1322" 
d="M538 1236q-31 25 -33 55t27 58l193 191q54 54 113 6l45 -36q60 -48 17 -112l-150 -227q-22 -34 -51.5 -38.5t-60.5 21.5zM56 518q0 231 133.5 386.5t339.5 155.5q187 0 314 -129v25q0 80 80 80h200q80 0 80 -80v-885q0 -253 -151.5 -394t-409.5 -141q-262 0 -459 175
q-54 49 -10 112l42 60q43 62 112 19q120 -73 255 -73q118 0 189.5 58.5t71.5 161.5v74q-129 -127 -314 -127q-136 0 -245 71t-168.5 190t-59.5 261zM419 518q0 -93 61.5 -157t150.5 -64t150.5 64t61.5 157t-61.5 157t-150.5 64t-150.5 -64t-61.5 -157z" />
    <glyph glyph-name="Hcircumflex" unicode="&#x124;" horiz-adv-x="1429" 
d="M827 1851q60 0 98 -46l122 -146q51 -62 -11 -113l-42 -33q-57 -47 -113 4l-168 157l-168 -157q-55 -52 -113 -4l-42 33q-63 49 -11 113l122 146q38 46 98 46h228zM140 1320q0 80 80 80h221q80 0 80 -80v-452h387v452q0 80 80 80h220q80 0 80 -80v-1240q0 -80 -80 -80
h-220q-80 0 -80 80v460h-387v-460q0 -80 -80 -80h-221q-80 0 -80 80v1240z" />
    <glyph glyph-name="hcircumflex" unicode="&#x125;" horiz-adv-x="1238" 
d="M414 1911q60 0 98 -46l122 -146q51 -62 -11 -113l-42 -33q-57 -47 -113 4l-168 157l-168 -157q-55 -52 -113 -4l-42 33q-63 49 -11 113l122 146q38 46 98 46h228zM488 80q0 -80 -80 -80h-210q-80 0 -80 80v1300q0 80 80 80h210q80 0 80 -80v-446q103 126 277 126
q162 0 268 -111.5t106 -288.5v-580q0 -80 -80 -80h-210q-80 0 -80 80v506q0 69 -37 110.5t-100 41.5t-103.5 -45.5t-40.5 -135.5v-477z" />
    <glyph glyph-name="Hbar" unicode="&#x126;" horiz-adv-x="1443" 
d="M147 1017h-40q-80 0 -80 80v49q0 80 80 80h40v94q0 80 80 80h221q80 0 80 -80v-94h387v94q0 80 80 80h220q80 0 80 -80v-94h40q80 0 80 -80v-49q0 -80 -80 -80h-40v-937q0 -80 -80 -80h-220q-80 0 -80 80v468h-387v-468q0 -80 -80 -80h-221q-80 0 -80 80v937zM915 860
v157h-387v-157h387z" />
    <glyph glyph-name="hbar" unicode="&#x127;" horiz-adv-x="1265" 
d="M20 1254q0 80 80 80h45v46q0 80 80 80h210q80 0 80 -80v-46h167q80 0 80 -80v-37q0 -80 -80 -80h-167v-203q101 123 275 123q162 0 269 -109t107 -288v-580q0 -80 -80 -80h-210q-80 0 -80 80v506q0 64 -38.5 108t-98.5 44q-64 0 -104 -46.5t-40 -138.5v-473
q0 -80 -80 -80h-210q-80 0 -80 80v1057h-45q-80 0 -80 80v37z" />
    <glyph glyph-name="Itilde" unicode="&#x128;" horiz-adv-x="666" 
d="M343 1550q-62 33 -85 33q-12 0 -20 -7l-20.5 -18t-17.5 -15t-16.5 -11.5t-19 -6t-24.5 1.5l-126 24q-40 8 -56.5 33.5t-3.5 63.5q57 164 214 164q77 0 155 -42q62 -33 85 -33q12 0 20 7q9 7 21 18l17 15.5t16.5 11.5t19 5.5t24.5 -1.5l126 -24q40 -8 56.5 -33.5
t3.5 -63.5q-57 -164 -214 -164q-75 0 -155 42zM523 80q0 -80 -80 -80h-221q-80 0 -80 80v1240q0 80 80 80h221q80 0 80 -80v-1240z" />
    <glyph glyph-name="itilde" unicode="&#x129;" horiz-adv-x="600" 
d="M310 1219q-62 33 -85 33q-12 0 -20 -7l-20.5 -18t-17.5 -15t-16.5 -11.5t-19 -6t-24.5 1.5l-126 24q-40 8 -56.5 33.5t-3.5 63.5q57 164 214 164q77 0 155 -42q62 -33 85 -33q12 0 20 7q9 7 21 18l17 15.5t16.5 11t19 5.5t24.5 -1l126 -24q40 -8 56.5 -33.5t3.5 -63.5
q-57 -164 -214 -164q-75 0 -155 42zM115 956q0 80 80 80h210q80 0 80 -80v-876q0 -80 -80 -80h-210q-80 0 -80 80v876z" />
    <glyph glyph-name="Imacron" unicode="&#x12a;" horiz-adv-x="666" 
d="M3 1715q0 80 80 80h500q80 0 80 -80v-106q0 -80 -80 -80h-500q-80 0 -80 80v106zM523 80q0 -80 -80 -80h-221q-80 0 -80 80v1240q0 80 80 80h221q80 0 80 -80v-1240z" />
    <glyph glyph-name="imacron" unicode="&#x12b;" horiz-adv-x="600" 
d="M-30 1391q0 80 80 80h500q80 0 80 -80v-106q0 -80 -80 -80h-500q-80 0 -80 80v106zM115 956q0 80 80 80h210q80 0 80 -80v-876q0 -80 -80 -80h-210q-80 0 -80 80v876z" />
    <glyph glyph-name="Ibreve" unicode="&#x12c;" horiz-adv-x="666" 
d="M333 1488q-127 0 -229 62.5t-138 165.5q-14 39 7.5 62.5t64.5 23.5h132q8 0 15.5 -1.5t13 -2.5t12 -5.5l9.5 -6.5t9.5 -9.5t9 -10t10 -12.5t10.5 -13q29 -32 74 -32t74 32q3 3 10.5 13t10 12.5t9 10t9.5 9.5l9.5 6.5t12 5.5t13 2.5t15.5 1.5h132q42 0 64 -21.5t11 -57.5
q-34 -105 -138 -170t-232 -65zM523 80q0 -80 -80 -80h-221q-80 0 -80 80v1240q0 80 80 80h221q80 0 80 -80v-1240z" />
    <glyph glyph-name="ibreve" unicode="&#x12d;" horiz-adv-x="600" 
d="M300 1164q-127 0 -229 62.5t-138 165.5q-14 39 7.5 62.5t64.5 23.5h132q8 0 15.5 -1.5t13 -2.5t12 -5.5l9.5 -6.5t9.5 -9.5t9 -10t10 -12.5t10.5 -13q29 -32 74 -32t74 32q3 3 10.5 13t10 12.5t9 10t9.5 9.5l9.5 6.5t12 5.5t13 2.5t15.5 1.5h132q42 0 64 -21.5t11 -57.5
q-34 -105 -138 -170t-232 -65zM115 956q0 80 80 80h210q80 0 80 -80v-876q0 -80 -80 -80h-210q-80 0 -80 80v876z" />
    <glyph glyph-name="Iogonek" unicode="&#x12e;" horiz-adv-x="666" 
d="M218 0q-75 0 -75 80v1240q0 80 80 80h220q80 0 80 -80v-1260q0 -57 -48 -99q-120 -105 -120 -192q0 -44 19.5 -68.5t49.5 -24.5q38 0 60 34q16 25 25 36.5t25.5 20.5t38.5 9h70q43 0 64 -24t7 -64q-32 -94 -110.5 -143.5t-197.5 -49.5q-123 0 -211.5 68t-88.5 170
q0 72 51.5 143t134.5 124h-74z" />
    <glyph glyph-name="iogonek" unicode="&#x12f;" horiz-adv-x="600" 
d="M95 1301q0 82 59 137t146 55t146 -55t59 -137q0 -81 -59 -136.5t-146 -55.5t-146 55.5t-59 136.5zM115 956q0 80 80 80h210q80 0 80 -80v-896q0 -57 -48 -99q-120 -105 -120 -192q0 -45 19 -69t50 -24q39 0 59 34q16 25 25 36.5t25.5 20.5t38.5 9h70q43 0 64 -24t7 -64
q-32 -94 -110.5 -143.5t-197.5 -49.5q-123 0 -211 68t-88 170q0 72 51 143t134 124h-58q-80 0 -80 80v876z" />
    <glyph glyph-name="Idotaccent" unicode="&#x130;" horiz-adv-x="666" 
d="M148 1664q0 76 53.5 128.5t131.5 52.5t131.5 -52.5t53.5 -128.5t-53.5 -129t-131.5 -53t-131.5 53t-53.5 129zM523 80q0 -80 -80 -80h-221q-80 0 -80 80v1240q0 80 80 80h221q80 0 80 -80v-1240z" />
    <glyph glyph-name="dotlessi" unicode="&#x131;" horiz-adv-x="600" 
d="M115 956q0 80 80 80h210q80 0 80 -80v-876q0 -80 -80 -80h-210q-80 0 -80 80v876z" />
    <glyph glyph-name="IJ" unicode="&#x132;" horiz-adv-x="1570" 
d="M523 80q0 -80 -80 -80h-221q-80 0 -80 80v1240q0 80 80 80h221q80 0 80 -80v-1240zM1062 1320q0 80 80 80h220q80 0 80 -80v-874q0 -229 -118.5 -349.5t-303.5 -120.5q-176 0 -320 90q-59 37 -32 107l41 105q27 69 103 43q49 -17 97 -17q70 0 111.5 45.5t41.5 126.5v844z
" />
    <glyph glyph-name="ij" unicode="&#x133;" horiz-adv-x="1200" 
d="M95 1301q0 82 59 137t146 55t146 -55t59 -137q0 -81 -59 -136.5t-146 -55.5t-146 55.5t-59 136.5zM695 1301q0 82 59 137t146 55t146 -55t59 -137q0 -81 -59 -136.5t-146 -55.5t-146 55.5t-59 136.5zM115 956q0 80 80 80h210q80 0 80 -80v-876q0 -80 -80 -80h-210
q-80 0 -80 80v876zM715 956q0 80 80 80h210q80 0 80 -80v-1060q0 -165 -105.5 -262.5t-280.5 -97.5q-29 0 -64 5q-69 9 -69 87v145q0 80 56 80q93 0 93 93v1010z" />
    <glyph glyph-name="Jcircumflex" unicode="&#x134;" horiz-adv-x="943" 
d="M741 1851q60 0 98 -46l122 -146q51 -62 -11 -113l-42 -33q-57 -47 -113 4l-168 157l-168 -157q-55 -52 -113 -4l-42 33q-63 49 -11 113l122 146q38 46 98 46h228zM436 1320q0 80 80 80h220q80 0 80 -80v-874q0 -229 -118.5 -349.5t-303.5 -120.5q-176 0 -320 90
q-59 37 -32 107l41 105q27 69 103 43q49 -17 97 -17q70 0 111.5 45.5t41.5 126.5v844z" />
    <glyph glyph-name="jcircumflex" unicode="&#x135;" horiz-adv-x="600" 
d="M413 1527q60 0 98 -46l122 -146q51 -62 -11 -113l-42 -33q-57 -47 -113 4l-168 157l-168 -157q-55 -52 -113 -4l-42 33q-63 49 -11 113l122 146q38 46 98 46h228zM115 956q0 80 80 80h210q80 0 80 -80v-1060q0 -165 -105.5 -262.5t-280.5 -97.5q-30 0 -60 3q-73 6 -73 85
v149q0 80 56 80q93 0 93 93v1010z" />
    <glyph glyph-name="Kcommaaccent" unicode="&#x136;" horiz-adv-x="1287" 
d="M1147 1400q39 0 59.5 -21t19.5 -61q-17 -459 -236 -632l291 -591q20 -42 3.5 -68.5t-62.5 -26.5h-236q-65 0 -93 59l-247 512h-125v-491q0 -80 -80 -80h-221q-80 0 -80 80v1240q0 80 80 80h221q80 0 80 -80v-421h49q132 0 199 98t77 320q5 83 81 83h220zM779 -192
q31 -25 33 -55t-27 -58l-193 -191q-54 -54 -113 -6l-45 36q-60 48 -17 112l150 227q22 34 51.5 38.5t60.5 -21.5z" />
    <glyph glyph-name="kcommaaccent" unicode="&#x137;" horiz-adv-x="1139" 
d="M994 1036q39 0 60 -21.5t19 -61.5q-17 -319 -180 -451l190 -408q19 -41 2.5 -67.5t-62.5 -26.5h-225q-67 0 -93 62l-143 340h-74v-322q0 -80 -80 -80h-210q-80 0 -80 80v1300q0 80 80 80h210q80 0 80 -80v-661h50q143 0 164 234q6 83 81 83h211zM666 -192q31 -25 33 -55
t-27 -58l-193 -191q-54 -54 -113 -6l-45 36q-60 48 -17 112l150 227q22 34 51.5 38.5t60.5 -21.5z" />
    <glyph glyph-name="kgreenlandic" unicode="&#x138;" horiz-adv-x="1139" 
d="M994 1036q39 0 60 -21.5t19 -61.5q-18 -318 -180 -450l190 -409q19 -41 2.5 -67.5t-62.5 -26.5h-224q-67 0 -92 62l-140 341h-79v-323q0 -80 -80 -80h-209q-80 0 -80 80v876q0 80 80 80h209q80 0 80 -80v-237h51q144 0 164 234q6 83 81 83h210z" />
    <glyph glyph-name="Lacute" unicode="&#x139;" horiz-adv-x="1055" 
d="M412 1505q-53 -53 -113 -6l-45 35q-60 48 -17 112l150 227q22 34 51.5 38.5t60.5 -21.5l100 -82q31 -25 33 -55t-27 -58zM140 1320q0 80 80 80h221q80 0 80 -80v-993h429q80 0 80 -80v-167q0 -80 -80 -80h-730q-80 0 -80 80v1240z" />
    <glyph glyph-name="lacute" unicode="&#x13a;" horiz-adv-x="600" 
d="M336 1565q-53 -53 -113 -6l-45 35q-60 48 -17 112l150 227q22 34 51.5 38.5t60.5 -21.5l100 -82q31 -25 33 -55t-27 -58zM115 1380q0 80 80 80h210q80 0 80 -80v-1300q0 -80 -80 -80h-210q-80 0 -80 80v1300z" />
    <glyph glyph-name="Lcommaaccent" unicode="&#x13b;" horiz-adv-x="1055" 
d="M140 1320q0 80 80 80h221q80 0 80 -80v-993h429q80 0 80 -80v-167q0 -80 -80 -80h-730q-80 0 -80 80v1240zM689 -192q31 -25 33 -55t-27 -58l-193 -191q-54 -54 -113 -6l-45 36q-60 48 -17 112l150 227q22 34 51.5 38.5t60.5 -21.5z" />
    <glyph glyph-name="lcommaaccent" unicode="&#x13c;" horiz-adv-x="600" 
d="M115 1380q0 80 80 80h210q80 0 80 -80v-1300q0 -80 -80 -80h-210q-80 0 -80 80v1300zM403 -192q31 -25 33 -55t-27 -58l-193 -191q-54 -54 -113 -6l-45 36q-60 48 -17 112l150 227q22 34 51.5 38.5t60.5 -21.5z" />
    <glyph glyph-name="Lcaron" unicode="&#x13d;" horiz-adv-x="1076" 
d="M651 1256q0 63 54 115t142 52q81 0 134.5 -54t53.5 -141q0 -131 -75.5 -246.5t-225.5 -184.5q-67 -30 -108 34q-24 37 43 88q62 45 81.5 83.5t5.5 71.5t-59 76q-46 43 -46 106zM140 1320q0 80 80 80h221q80 0 80 -80v-993h429q80 0 80 -80v-167q0 -80 -80 -80h-730
q-80 0 -80 80v1240z" />
    <glyph glyph-name="lcaron" unicode="&#x13e;" horiz-adv-x="997" 
d="M589 1316q0 63 54 115t142 52q81 0 134.5 -54t53.5 -141q0 -131 -75.5 -246.5t-225.5 -184.5q-67 -30 -108 34q-24 37 43 88q62 45 81.5 83.5t5.5 71.5t-59 76q-46 43 -46 106zM115 1380q0 80 80 80h210q80 0 80 -80v-1300q0 -80 -80 -80h-210q-80 0 -80 80v1300z" />
    <glyph glyph-name="Ldot" unicode="&#x13f;" horiz-adv-x="1059" 
d="M140 1320q0 80 80 80h221q80 0 80 -80v-993h429q80 0 80 -80v-167q0 -80 -80 -80h-730q-80 0 -80 80v1240zM635 782q0 76 53.5 128.5t131.5 52.5t131.5 -52.5t53.5 -128.5t-53.5 -129t-131.5 -53t-131.5 53t-53.5 129z" />
    <glyph glyph-name="ldot" unicode="&#x140;" horiz-adv-x="962" 
d="M115 1380q0 80 80 80h210q80 0 80 -80v-1300q0 -80 -80 -80h-210q-80 0 -80 80v1300zM566 752q0 76 53.5 128.5t131.5 52.5t131.5 -52.5t53.5 -128.5t-53.5 -129t-131.5 -53t-131.5 53t-53.5 129z" />
    <glyph glyph-name="Lslash" unicode="&#x141;" horiz-adv-x="1078" 
d="M163 480l-18 -9q-71 -36 -108 35l-25 49q-36 71 35 107l116 59v599q0 80 80 80h220q80 0 80 -80v-404l161 83q71 35 108 -34l25 -47q38 -71 -33 -108l-261 -135v-348h430q80 0 80 -80v-167q0 -80 -80 -80h-730q-80 0 -80 80v400z" />
    <glyph glyph-name="lslash" unicode="&#x142;" horiz-adv-x="679" 
d="M154 541l-18 -9q-71 -36 -108 35l-25 48q-37 71 35 108l116 58v599q0 80 80 80h210q80 0 80 -80v-413l19 10q71 35 108 -34l26 -48q38 -71 -35 -107l-118 -60v-648q0 -80 -80 -80h-210q-80 0 -80 80v461z" />
    <glyph glyph-name="Nacute" unicode="&#x143;" horiz-adv-x="1429" 
d="M774 1505q-53 -53 -113 -6l-45 35q-60 48 -17 112l150 227q22 34 51.5 38.5t60.5 -21.5l100 -82q31 -25 33 -55t-27 -58zM140 1320q0 80 80 80h263q66 0 93 -60l364 -795v775q0 80 80 80h188q80 0 80 -80v-1240q0 -80 -80 -80h-262q-66 0 -93 60l-364 795v-775
q0 -80 -80 -80h-189q-80 0 -80 80v1240z" />
    <glyph glyph-name="nacute" unicode="&#x144;" horiz-adv-x="1238" 
d="M681 1181q-53 -53 -113 -6l-45 35q-60 48 -17 112l150 227q22 34 51.5 38.5t60.5 -21.5l100 -82q31 -25 33 -55t-27 -58zM488 80q0 -80 -80 -80h-210q-80 0 -80 80v876q0 80 80 80h210q80 0 80 -80v-22q100 122 272 122q163 0 271 -108t108 -288v-580q0 -80 -80 -80h-210
q-80 0 -80 80v506q0 65 -38.5 108.5t-98.5 43.5q-63 0 -103.5 -45.5t-40.5 -135.5v-477z" />
    <glyph glyph-name="Ncommaaccent" unicode="&#x145;" horiz-adv-x="1429" 
d="M140 1320q0 80 80 80h263q66 0 93 -60l364 -795v775q0 80 80 80h188q80 0 80 -80v-1240q0 -80 -80 -80h-262q-66 0 -93 60l-364 795v-775q0 -80 -80 -80h-189q-80 0 -80 80v1240zM832 -192q31 -25 33 -55t-27 -58l-193 -191q-54 -54 -113 -6l-45 36q-60 48 -17 112
l150 227q22 34 51.5 38.5t60.5 -21.5z" />
    <glyph glyph-name="ncommaaccent" unicode="&#x146;" horiz-adv-x="1238" 
d="M488 80q0 -80 -80 -80h-210q-80 0 -80 80v876q0 80 80 80h210q80 0 80 -80v-22q100 122 272 122q163 0 271 -108t108 -288v-580q0 -80 -80 -80h-210q-80 0 -80 80v506q0 65 -38.5 108.5t-98.5 43.5q-63 0 -103.5 -45.5t-40.5 -135.5v-477zM739 -192q31 -25 33 -55
t-27 -58l-193 -191q-54 -54 -113 -6l-45 36q-60 48 -17 112l150 227q22 34 51.5 38.5t60.5 -21.5z" />
    <glyph glyph-name="Ncaron" unicode="&#x147;" horiz-adv-x="1429" 
d="M599 1508q-60 0 -98 46l-122 146q-51 62 11 113l42 33q57 47 113 -4l168 -157l168 157q55 52 113 4l42 -33q63 -49 11 -113l-122 -146q-38 -46 -98 -46h-228zM140 1320q0 80 80 80h263q66 0 93 -60l364 -795v775q0 80 80 80h188q80 0 80 -80v-1240q0 -80 -80 -80h-262
q-66 0 -93 60l-364 795v-775q0 -80 -80 -80h-189q-80 0 -80 80v1240z" />
    <glyph glyph-name="ncaron" unicode="&#x148;" horiz-adv-x="1238" 
d="M509 1164q-60 0 -98 46l-122 146q-51 62 11 113l42 33q57 47 113 -4l168 -157l168 157q55 52 113 4l42 -33q63 -49 11 -113l-122 -146q-38 -46 -98 -46h-228zM488 80q0 -80 -80 -80h-210q-80 0 -80 80v876q0 80 80 80h210q80 0 80 -80v-22q100 122 272 122
q163 0 271 -108t108 -288v-580q0 -80 -80 -80h-210q-80 0 -80 80v506q0 65 -38.5 108.5t-98.5 43.5q-63 0 -103.5 -45.5t-40.5 -135.5v-477z" />
    <glyph glyph-name="napostrophe" unicode="&#x149;" horiz-adv-x="1528" 
d="M40 1316q0 63 54 115t142 52q81 0 134.5 -54t53.5 -141q0 -131 -75.5 -246.5t-225.5 -184.5q-67 -30 -108 34q-24 37 43 88q62 45 81.5 83.5t5.5 71.5t-59 76q-46 43 -46 106zM778 80q0 -80 -80 -80h-210q-80 0 -80 80v876q0 80 80 80h210q80 0 80 -80v-22
q100 122 272 122q163 0 271 -108t108 -288v-580q0 -80 -80 -80h-210q-80 0 -80 80v506q0 65 -38.5 108.5t-98.5 43.5q-63 0 -103.5 -45.5t-40.5 -135.5v-477z" />
    <glyph glyph-name="Eng" unicode="&#x14a;" horiz-adv-x="1429" 
d="M1288 -102q0 -168 -117 -265t-319 -97q-18 0 -50 2q-72 7 -72 86v109q0 81 51 78q18 -2 52 -2q53 0 80 24.5t27 70.5v111l-452 841v-776q0 -80 -80 -80h-188q-80 0 -80 80v1240q0 80 80 80h216q64 0 94 -57l410 -763v740q0 80 80 80h188q80 0 80 -80v-1422z" />
    <glyph glyph-name="eng" unicode="&#x14b;" horiz-adv-x="1238" 
d="M488 80q0 -80 -80 -80h-210q-80 0 -80 80v876q0 80 80 80h210q80 0 80 -80v-22q103 126 277 126q162 0 268 -111.5t106 -288.5v-762q0 -168 -118 -265t-320 -97q-33 0 -64 3q-73 7 -73 86v108q0 81 49 78q17 -2 49 -2q49 0 78 25t29 70v682q0 65 -38.5 108.5t-98.5 43.5
q-63 0 -103.5 -45.5t-40.5 -135.5v-477z" />
    <glyph glyph-name="Omacron" unicode="&#x14c;" horiz-adv-x="1664" 
d="M502 1715q0 80 80 80h500q80 0 80 -80v-106q0 -80 -80 -80h-500q-80 0 -80 80v106zM71 700q0 201 99.5 367t274.5 261.5t387 95.5t387 -95.5t274.5 -261.5t99.5 -367t-99.5 -367t-274.5 -261.5t-387 -95.5t-387 95.5t-274.5 261.5t-99.5 367zM452 700q0 -169 109 -282.5
t271 -113.5t271 113.5t109 282.5t-109 282.5t-271 113.5t-271 -113.5t-109 -282.5z" />
    <glyph glyph-name="omacron" unicode="&#x14d;" horiz-adv-x="1283" 
d="M311 1391q0 80 80 80h500q80 0 80 -80v-106q0 -80 -80 -80h-500q-80 0 -80 80v106zM56 518q0 150 76.5 274.5t211 196t297.5 71.5q249 0 417 -156.5t168 -385.5t-168 -385.5t-417 -156.5q-163 0 -297.5 71.5t-211 196t-76.5 274.5zM419 518q0 -94 63 -157.5t159 -63.5
t159.5 63.5t63.5 157.5t-63.5 157.5t-159.5 63.5t-159 -63.5t-63 -157.5z" />
    <glyph glyph-name="Obreve" unicode="&#x14e;" horiz-adv-x="1664" 
d="M832 1488q-127 0 -229 62.5t-138 165.5q-14 39 7.5 62.5t64.5 23.5h132q8 0 15.5 -1.5t13 -2.5t12 -5.5l9.5 -6.5t9.5 -9.5t9 -10t10 -12.5t10.5 -13q29 -32 74 -32t74 32q3 3 10.5 13t10 12.5t9 10t9.5 9.5l9.5 6.5t12 5.5t13 2.5t15.5 1.5h132q42 0 64 -21.5t11 -57.5
q-34 -105 -138 -170t-232 -65zM71 700q0 201 99.5 367t274.5 261.5t387 95.5t387 -95.5t274.5 -261.5t99.5 -367t-99.5 -367t-274.5 -261.5t-387 -95.5t-387 95.5t-274.5 261.5t-99.5 367zM452 700q0 -169 109 -282.5t271 -113.5t271 113.5t109 282.5t-109 282.5t-271 113.5
t-271 -113.5t-109 -282.5z" />
    <glyph glyph-name="obreve" unicode="&#x14f;" horiz-adv-x="1283" 
d="M641 1164q-127 0 -229 62.5t-138 165.5q-14 39 7.5 62.5t64.5 23.5h132q8 0 15.5 -1.5t13 -2.5t12 -5.5l9.5 -6.5t9.5 -9.5t9 -10t10 -12.5t10.5 -13q29 -32 74 -32t74 32q3 3 10.5 13t10 12.5t9 10t9.5 9.5l9.5 6.5t12 5.5t13 2.5t15.5 1.5h132q42 0 64 -21.5t11 -57.5
q-34 -105 -138 -170t-232 -65zM56 518q0 150 76.5 274.5t211 196t297.5 71.5q249 0 417 -156.5t168 -385.5t-168 -385.5t-417 -156.5q-163 0 -297.5 71.5t-211 196t-76.5 274.5zM419 518q0 -94 63 -157.5t159 -63.5t159.5 63.5t63.5 157.5t-63.5 157.5t-159.5 63.5
t-159 -63.5t-63 -157.5z" />
    <glyph glyph-name="Ohungarumlaut" unicode="&#x150;" horiz-adv-x="1664" 
d="M686 1525q-54 -54 -113 -6l-19 15q-59 49 -17 112l151 227q47 70 112 16l74 -60q31 -26 32 -55t-27 -58zM1073 1525q-54 -54 -113 -6l-19 15q-59 49 -17 112l151 227q47 70 112 16l74 -60q31 -26 32 -55t-27 -58zM71 700q0 201 99.5 367t274.5 261.5t387 95.5t387 -95.5
t274.5 -261.5t99.5 -367t-99.5 -367t-274.5 -261.5t-387 -95.5t-387 95.5t-274.5 261.5t-99.5 367zM452 700q0 -169 109 -282.5t271 -113.5t271 113.5t109 282.5t-109 282.5t-271 113.5t-271 -113.5t-109 -282.5z" />
    <glyph glyph-name="ohungarumlaut" unicode="&#x151;" horiz-adv-x="1283" 
d="M484 1201q-54 -54 -113 -6l-19 15q-59 49 -17 112l151 227q47 70 112 16l74 -60q31 -26 32 -55t-27 -58zM871 1201q-54 -54 -113 -6l-19 15q-59 49 -17 112l151 227q47 70 112 16l74 -60q31 -26 32 -55t-27 -58zM56 518q0 150 76.5 274.5t211 196t297.5 71.5
q249 0 417 -156.5t168 -385.5t-168 -385.5t-417 -156.5q-163 0 -297.5 71.5t-211 196t-76.5 274.5zM419 518q0 -94 63 -157.5t159 -63.5t159.5 63.5t63.5 157.5t-63.5 157.5t-159.5 63.5t-159 -63.5t-63 -157.5z" />
    <glyph glyph-name="OE" unicode="&#x152;" horiz-adv-x="1842" 
d="M70 700q0 145 59.5 274.5t161 223t243 148t298.5 54.5h824q80 0 80 -80v-159q0 -80 -80 -80h-447v-221h399q80 0 80 -80v-153q0 -80 -80 -80h-399v-229h465q80 0 80 -80v-158q0 -80 -80 -80h-842q-210 0 -385 92.5t-276 253.5t-101 354zM449 700q0 -163 113 -266.5
t274 -108.5v749q-104 -3 -191.5 -49t-141.5 -131.5t-54 -193.5z" />
    <glyph glyph-name="oe" unicode="&#x153;" horiz-adv-x="2164" 
d="M56 518q0 150 76.5 274.5t211 196t297.5 71.5q141 0 264 -66t198 -173q72 106 192.5 172.5t258.5 66.5q156 0 283 -70t198.5 -191t71.5 -266q0 -19 -3 -42q-4 -34 -26.5 -52t-59.5 -18h-669q16 -86 81 -133t163 -47q140 0 251 73q64 43 112 -9l43 -47q54 -59 -1 -113
q-183 -169 -414 -169q-151 0 -279 65t-203 173q-75 -107 -198 -172.5t-263 -65.5q-163 0 -297.5 71.5t-211 196t-76.5 274.5zM1548 795q-77 0 -127.5 -42t-67.5 -121h384q-33 163 -189 163zM419 518q0 -94 63 -157.5t159 -63.5t159.5 63.5t63.5 157.5t-63.5 157.5
t-159.5 63.5t-159 -63.5t-63 -157.5z" />
    <glyph glyph-name="Racute" unicode="&#x154;" horiz-adv-x="1268" 
d="M653 1505q-53 -53 -113 -6l-45 35q-60 48 -17 112l150 227q22 34 51.5 38.5t60.5 -21.5l100 -82q31 -25 33 -55t-27 -58zM514 477v-397q0 -80 -80 -80h-214q-80 0 -80 80v1240q0 80 80 80h461q218 0 358.5 -128.5t140.5 -333.5q0 -137 -66 -241.5t-183 -160.5l239 -441
q22 -42 6.5 -68.5t-62.5 -26.5h-238q-65 0 -94 58l-212 419h-56zM635 751q68 0 120.5 51.5t52.5 125.5q0 80 -47.5 128.5t-125.5 48.5h-121v-354h121z" />
    <glyph glyph-name="racute" unicode="&#x155;" horiz-adv-x="855" 
d="M449 1181q-53 -53 -113 -6l-45 35q-60 48 -17 112l150 227q22 34 51.5 38.5t60.5 -21.5l100 -82q31 -25 33 -55t-27 -58zM797 798q-7 -81 -77 -67q-44 7 -72 7q-66 0 -113 -48t-47 -138v-472q0 -80 -80 -80h-210q-80 0 -80 80v876q0 80 80 80h210q80 0 80 -80v-25
q102 129 272 129q59 0 52 -86z" />
    <glyph glyph-name="Rcommaaccent" unicode="&#x156;" horiz-adv-x="1268" 
d="M514 477v-397q0 -80 -80 -80h-214q-80 0 -80 80v1240q0 80 80 80h461q218 0 358.5 -128.5t140.5 -333.5q0 -137 -66 -241.5t-183 -160.5l239 -441q22 -42 6.5 -68.5t-62.5 -26.5h-238q-65 0 -94 58l-212 419h-56zM635 751q68 0 120.5 51.5t52.5 125.5q0 80 -47.5 128.5
t-125.5 48.5h-121v-354h121zM727 -192q31 -25 33 -55t-27 -58l-193 -191q-54 -54 -113 -6l-45 36q-60 48 -17 112l150 227q22 34 51.5 38.5t60.5 -21.5z" />
    <glyph glyph-name="rcommaaccent" unicode="&#x157;" horiz-adv-x="855" 
d="M797 798q-7 -81 -77 -67q-44 7 -72 7q-66 0 -113 -48t-47 -138v-472q0 -80 -80 -80h-210q-80 0 -80 80v876q0 80 80 80h210q80 0 80 -80v-25q102 129 272 129q6 -4 15.5 -11.5t24 -30t12.5 -44.5zM407 -192q31 -25 33 -55t-27 -58l-193 -191q-54 -54 -113 -6l-45 36
q-60 48 -17 112l150 227q22 34 51.5 38.5t60.5 -21.5z" />
    <glyph glyph-name="Rcaron" unicode="&#x158;" horiz-adv-x="1268" 
d="M495 1508q-60 0 -98 46l-122 146q-51 62 11 113l42 33q57 47 113 -4l168 -157l168 157q55 52 113 4l42 -33q63 -49 11 -113l-122 -146q-38 -46 -98 -46h-228zM514 477v-397q0 -80 -80 -80h-214q-80 0 -80 80v1240q0 80 80 80h461q218 0 358.5 -128.5t140.5 -333.5
q0 -137 -66 -241.5t-183 -160.5l239 -441q22 -42 6.5 -68.5t-62.5 -26.5h-238q-65 0 -94 58l-212 419h-56zM635 751q68 0 120.5 51.5t52.5 125.5q0 80 -47.5 128.5t-125.5 48.5h-121v-354h121z" />
    <glyph glyph-name="rcaron" unicode="&#x159;" horiz-adv-x="855" 
d="M302 1164q-60 0 -98 46l-122 146q-51 62 11 113l42 33q57 47 113 -4l168 -157l168 157q55 52 113 4l42 -33q63 -49 11 -113l-122 -146q-38 -46 -98 -46h-228zM797 798q-7 -81 -77 -67q-44 7 -72 7q-66 0 -113 -48t-47 -138v-472q0 -80 -80 -80h-210q-80 0 -80 80v876
q0 80 80 80h210q80 0 80 -80v-25q102 129 272 129q59 0 52 -86z" />
    <glyph glyph-name="Sacute" unicode="&#x15a;" horiz-adv-x="1206" 
d="M622 1505q-53 -53 -113 -6l-45 35q-60 48 -17 112l150 227q22 34 51.5 38.5t60.5 -21.5l100 -82q31 -25 33 -55t-27 -58zM196 384q50 56 113 9q140 -104 294 -104q73 0 118 32t45 82q0 54 -50.5 91.5t-189.5 67.5q-193 42 -306 153.5t-113 273.5q0 189 137 312t356 123
q195 0 333 -95.5t173 -264.5q9 -40 -12 -62.5t-62 -22.5h-208q-33 0 -52 16t-36 52q-35 70 -119 70q-58 0 -93.5 -27.5t-35.5 -69.5q0 -51 47 -90.5t166 -66.5q217 -50 331.5 -158.5t114.5 -277.5q0 -194 -143.5 -322.5t-377.5 -128.5q-277 0 -483 237q-47 56 2 113z" />
    <glyph glyph-name="sacute" unicode="&#x15b;" horiz-adv-x="958" 
d="M499 1181q-53 -53 -113 -6l-45 35q-60 48 -17 112l150 227q22 34 51.5 38.5t60.5 -21.5l100 -82q31 -25 33 -55t-27 -58zM136 289q45 56 112 15q100 -60 211 -60q47 0 73.5 16.5t26.5 45.5q0 31 -31.5 52t-107.5 37q-159 35 -246.5 125t-87.5 219q0 139 111.5 230
t282.5 91q156 0 257.5 -71t141.5 -190q13 -40 -7 -64t-63 -24h-145q-13 0 -22.5 2t-20.5 9.5t-15 10t-18 17l-17 17.5q-27 25 -68 25q-36 0 -57.5 -15.5t-21.5 -41.5q0 -30 30 -50.5t109 -37.5q172 -37 259.5 -124.5t87.5 -217.5q0 -143 -118 -236t-305 -93q-209 0 -375 166
q-50 53 -3 113z" />
    <glyph glyph-name="Scircumflex" unicode="&#x15c;" horiz-adv-x="1206" 
d="M719 1851q60 0 98 -46l122 -146q51 -62 -11 -113l-42 -33q-57 -47 -113 4l-168 157l-168 -157q-55 -52 -113 -4l-42 33q-63 49 -11 113l122 146q38 46 98 46h228zM196 384q50 56 113 9q140 -104 294 -104q73 0 118 32t45 82q0 54 -50.5 91.5t-189.5 67.5
q-193 42 -306 153.5t-113 273.5q0 189 137 312t356 123q195 0 333 -95.5t173 -264.5q9 -40 -12 -62.5t-62 -22.5h-208q-33 0 -52 16t-36 52q-35 70 -119 70q-58 0 -93.5 -27.5t-35.5 -69.5q0 -51 47 -90.5t166 -66.5q217 -50 331.5 -158.5t114.5 -277.5
q0 -194 -143.5 -322.5t-377.5 -128.5q-277 0 -483 237q-47 56 2 113z" />
    <glyph glyph-name="scircumflex" unicode="&#x15d;" horiz-adv-x="958" 
d="M583 1527q60 0 98 -46l122 -146q51 -62 -11 -113l-42 -33q-57 -47 -113 4l-168 157l-168 -157q-55 -52 -113 -4l-42 33q-63 49 -11 113l122 146q38 46 98 46h228zM136 289q45 56 112 15q100 -60 211 -60q47 0 73.5 16.5t26.5 45.5q0 31 -31.5 52t-107.5 37
q-159 35 -246.5 125t-87.5 219q0 139 111.5 230t282.5 91q156 0 257.5 -71t141.5 -190q13 -40 -7 -64t-63 -24h-145q-13 0 -22.5 2t-20.5 9.5t-15 10t-18 17l-17 17.5q-27 25 -68 25q-36 0 -57.5 -15.5t-21.5 -41.5q0 -30 30 -50.5t109 -37.5q172 -37 259.5 -124.5
t87.5 -217.5q0 -143 -118 -236t-305 -93q-209 0 -375 166q-50 53 -3 113z" />
    <glyph glyph-name="Scedilla" unicode="&#x15e;" horiz-adv-x="1206" 
d="M697 -292q0 27 -23 45.5t-56 18.5q-55 8 -85 38q-19 19 -19 76v101q-209 39 -371 226q-47 56 2 113l51 58q50 56 113 9q140 -104 294 -104q73 0 118 32t45 82q0 54 -50.5 91.5t-189.5 67.5q-193 42 -306 153.5t-113 273.5q0 189 137 312t356 123q195 0 333 -95.5
t173 -264.5q9 -40 -12 -62.5t-62 -22.5h-208q-33 0 -52 16t-36 52q-35 70 -119 70q-58 0 -93.5 -27.5t-35.5 -69.5q0 -51 47 -90.5t166 -66.5q217 -50 331.5 -158.5t114.5 -277.5q0 -170 -112 -291.5t-301 -151.5v-77q95 -12 150 -70.5t55 -132.5q0 -96 -90 -160t-224 -64
q-95 0 -169 35.5t-115 104.5q-22 39 -2.5 65.5t65.5 26.5h49q15 0 29 -4.5t21 -9.5t23 -17.5t23 -17.5q26 -17 64 -17t61 17.5t23 44.5z" />
    <glyph glyph-name="scedilla" unicode="&#x15f;" horiz-adv-x="958" 
d="M564 -292q0 27 -23 45.5t-56 18.5q-55 8 -85 38q-19 19 -19 76v102q-147 32 -269 154q-50 52 -3 112l28 35q44 56 111 15q100 -60 211 -60q47 0 73.5 16.5t26.5 45.5q0 31 -31.5 52t-107.5 37q-159 35 -246.5 125t-87.5 219q0 139 111.5 230t282.5 91q156 0 257.5 -71
t141.5 -190q13 -40 -7 -64t-63 -24h-145q-13 0 -22.5 2t-20.5 9.5t-15 10t-18 17l-17 17.5q-27 25 -68 25q-36 0 -57.5 -15.5t-21.5 -41.5q0 -30 30 -50.5t109 -37.5q172 -37 259.5 -124.5t87.5 -217.5q0 -119 -84.5 -205.5t-225.5 -112.5v-80q96 -12 151 -70.5t55 -132.5
q0 -96 -90 -160t-224 -64q-95 0 -169 35.5t-115 104.5q-22 39 -2.5 65.5t65.5 26.5h49q15 0 29 -4.5t21 -9.5t23 -17.5t23 -17.5q26 -17 64 -17t61 17.5t23 44.5z" />
    <glyph glyph-name="Scaron" unicode="&#x160;" horiz-adv-x="1206" 
d="M476 1508q-60 0 -98 46l-122 146q-51 62 11 113l42 33q57 47 113 -4l168 -157l168 157q55 52 113 4l42 -33q63 -49 11 -113l-122 -146q-38 -46 -98 -46h-228zM196 384q50 56 113 9q140 -104 294 -104q73 0 118 32t45 82q0 54 -50.5 91.5t-189.5 67.5q-193 42 -306 153.5
t-113 273.5q0 189 137 312t356 123q195 0 333 -95.5t173 -264.5q9 -40 -12 -62.5t-62 -22.5h-208q-33 0 -52 16t-36 52q-35 70 -119 70q-58 0 -93.5 -27.5t-35.5 -69.5q0 -51 47 -90.5t166 -66.5q217 -50 331.5 -158.5t114.5 -277.5q0 -194 -143.5 -322.5t-377.5 -128.5
q-277 0 -483 237q-47 56 2 113z" />
    <glyph glyph-name="scaron" unicode="&#x161;" horiz-adv-x="958" 
d="M355 1164q-60 0 -98 46l-122 146q-51 62 11 113l42 33q57 47 113 -4l168 -157l168 157q55 52 113 4l42 -33q63 -49 11 -113l-122 -146q-38 -46 -98 -46h-228zM136 289q45 56 112 15q100 -60 211 -60q47 0 73.5 16.5t26.5 45.5q0 31 -31.5 52t-107.5 37
q-159 35 -246.5 125t-87.5 219q0 139 111.5 230t282.5 91q156 0 257.5 -71t141.5 -190q13 -40 -7 -64t-63 -24h-145q-13 0 -22.5 2t-20.5 9.5t-15 10t-18 17l-17 17.5q-27 25 -68 25q-36 0 -57.5 -15.5t-21.5 -41.5q0 -30 30 -50.5t109 -37.5q172 -37 259.5 -124.5
t87.5 -217.5q0 -143 -118 -236t-305 -93q-209 0 -375 166q-50 53 -3 113z" />
    <glyph glyph-name="uni0162" unicode="&#x162;" horiz-adv-x="1123" 
d="M371 1073h-246q-80 0 -80 80v167q0 80 80 80h873q80 0 80 -80v-167q0 -80 -80 -80h-246v-993q0 -80 -80 -80v-93q96 -12 150.5 -70.5t54.5 -132.5q0 -96 -89.5 -160t-223.5 -64q-95 0 -169.5 35.5t-115.5 104.5q-22 39 -2.5 65.5t65.5 26.5h48q12 0 22.5 -2t20.5 -8
l16.5 -10t18.5 -14t19 -15q28 -17 65 -17q38 0 60.5 17.5t22.5 44.5q0 26 -22.5 45t-55.5 19q-55 8 -85 38q-19 19 -19 76v114h-2q-80 0 -80 80v993z" />
    <glyph glyph-name="uni0163" unicode="&#x163;" horiz-adv-x="817" 
d="M492 -291q0 26 -22.5 45t-55.5 19q-52 4 -74 25q-31 47 -31 88v164q-130 101 -130 292v376h-72q-80 0 -80 80v158q0 80 80 80h72v182q0 76 75 85l211 24q40 5 62 -15.5t22 -60.5v-215h129q80 0 80 -80v-158q0 -80 -80 -80h-129v-328q0 -97 107 -97h31q83 3 83 -76v-125
q0 -73 -61 -91q-75 -24 -180 -24v-70q96 -11 150.5 -70t54.5 -132q0 -96 -89.5 -160.5t-223.5 -64.5q-96 0 -169.5 36t-115.5 105q-22 39 -2.5 65.5t65.5 26.5h48q15 0 29 -5t21.5 -9.5t23 -16.5l23.5 -18q26 -17 65 -17q38 0 60.5 17t22.5 45z" />
    <glyph glyph-name="Tcaron" unicode="&#x164;" horiz-adv-x="1123" 
d="M447 1508q-60 0 -98 46l-122 146q-51 62 11 113l42 33q57 47 113 -4l168 -157l168 157q55 52 113 4l42 -33q63 -49 11 -113l-122 -146q-38 -46 -98 -46h-228zM371 1073h-246q-80 0 -80 80v167q0 80 80 80h873q80 0 80 -80v-167q0 -80 -80 -80h-246v-993q0 -80 -80 -80
h-221q-80 0 -80 80v993z" />
    <glyph glyph-name="tcaron" unicode="&#x165;" horiz-adv-x="1218" 
d="M810 1316q0 63 54 115t142 52q81 0 134.5 -54t53.5 -141q0 -131 -75.5 -246.5t-225.5 -184.5q-67 -30 -108 34q-24 37 43 88q62 45 81.5 83.5t5.5 71.5t-59 76q-46 43 -46 106zM549 390q0 -97 107 -97h32q83 3 83 -76v-124q0 -72 -60 -92q-74 -25 -164 -25
q-165 0 -266 100.5t-101 265.5v377h-79q-80 0 -80 80v157q0 80 80 80h79v182q0 76 75 85l210 24q40 5 62 -15.5t22 -60.5v-215h130q80 0 80 -80v-157q0 -80 -80 -80h-130v-329z" />
    <glyph glyph-name="Tbar" unicode="&#x166;" horiz-adv-x="1123" 
d="M371 561h-122q-80 0 -80 80v65q0 80 80 80h122v287h-246q-80 0 -80 80v167q0 80 80 80h873q80 0 80 -80v-167q0 -80 -80 -80h-246v-287h122q80 0 80 -80v-65q0 -80 -80 -80h-122v-481q0 -80 -80 -80h-221q-80 0 -80 80v481z" />
    <glyph glyph-name="tbar" unicode="&#x167;" horiz-adv-x="817" 
d="M549 612h85q80 0 80 -80v-37q0 -80 -80 -80h-85v-51q0 -97 107 -97h32q83 3 83 -76v-109q0 -75 -65 -89q-74 -17 -159 -17q-166 0 -266.5 95t-100.5 258v86h-31q-80 0 -80 80v37q0 80 80 80h31v133h-66q-80 0 -80 80v131q0 80 80 80h66v182q0 76 75 85l210 24
q40 5 62 -15.5t22 -60.5v-215h130q80 0 80 -80v-131q0 -80 -80 -80h-130v-133z" />
    <glyph glyph-name="Utilde" unicode="&#x168;" horiz-adv-x="1351" 
d="M685 1550q-62 33 -85 33q-12 0 -20 -7l-20.5 -18t-17.5 -15t-16.5 -11.5t-19 -6t-24.5 1.5l-126 24q-40 8 -56.5 33.5t-3.5 63.5q57 164 214 164q77 0 155 -42q62 -33 85 -33q12 0 20 7q9 7 21 18l17 15.5t16.5 11.5t19 5.5t24.5 -1.5l126 -24q40 -8 56.5 -33.5
t3.5 -63.5q-57 -164 -214 -164q-75 0 -155 42zM507 468q0 -71 47.5 -116.5t120.5 -45.5t120 45.5t47 116.5v852q0 80 80 80h221q80 0 80 -80v-870q0 -133 -73 -241.5t-198.5 -169.5t-276.5 -61t-276.5 61t-198.5 169.5t-73 241.5v870q0 80 80 80h220q80 0 80 -80v-852z" />
    <glyph glyph-name="utilde" unicode="&#x169;" horiz-adv-x="1238" 
d="M619 1219q-62 33 -85 33q-12 0 -20 -7l-20.5 -18t-17.5 -15t-16.5 -11.5t-19 -6t-24.5 1.5l-126 24q-40 8 -56.5 33.5t-3.5 63.5q57 164 214 164q77 0 155 -42q62 -33 85 -33q12 0 20 7q9 7 21 18l17 15.5t16.5 11t19 5.5t24.5 -1l126 -24q40 -8 56.5 -33.5t3.5 -63.5
q-57 -164 -214 -164q-75 0 -155 42zM749 956q0 80 80 80h210q80 0 80 -80v-876q0 -80 -80 -80h-210q-80 0 -80 80v20q-99 -120 -272 -120q-163 0 -271 107.5t-108 287.5v581q0 80 80 80h210q80 0 80 -80v-507q0 -65 38.5 -108.5t98.5 -43.5q63 0 103.5 46.5t40.5 138.5v474z
" />
    <glyph glyph-name="Umacron" unicode="&#x16a;" horiz-adv-x="1351" 
d="M345 1715q0 80 80 80h500q80 0 80 -80v-106q0 -80 -80 -80h-500q-80 0 -80 80v106zM507 468q0 -71 47.5 -116.5t120.5 -45.5t120 45.5t47 116.5v852q0 80 80 80h221q80 0 80 -80v-870q0 -133 -73 -241.5t-198.5 -169.5t-276.5 -61t-276.5 61t-198.5 169.5t-73 241.5v870
q0 80 80 80h220q80 0 80 -80v-852z" />
    <glyph glyph-name="umacron" unicode="&#x16b;" horiz-adv-x="1238" 
d="M279 1391q0 80 80 80h500q80 0 80 -80v-106q0 -80 -80 -80h-500q-80 0 -80 80v106zM749 956q0 80 80 80h210q80 0 80 -80v-876q0 -80 -80 -80h-210q-80 0 -80 80v20q-99 -120 -272 -120q-163 0 -271 107.5t-108 287.5v581q0 80 80 80h210q80 0 80 -80v-507
q0 -65 38.5 -108.5t98.5 -43.5q63 0 103.5 46.5t40.5 138.5v474z" />
    <glyph glyph-name="Ubreve" unicode="&#x16c;" horiz-adv-x="1351" 
d="M675 1488q-127 0 -229 62.5t-138 165.5q-14 39 7.5 62.5t64.5 23.5h132q8 0 15.5 -1.5t13 -2.5t12 -5.5l9.5 -6.5t9.5 -9.5t9 -10t10 -12.5t10.5 -13q29 -32 74 -32t74 32q3 3 10.5 13t10 12.5t9 10t9.5 9.5l9.5 6.5t12 5.5t13 2.5t15.5 1.5h132q42 0 64 -21.5t11 -57.5
q-34 -105 -138 -170t-232 -65zM507 468q0 -71 47.5 -116.5t120.5 -45.5t120 45.5t47 116.5v852q0 80 80 80h221q80 0 80 -80v-870q0 -133 -73 -241.5t-198.5 -169.5t-276.5 -61t-276.5 61t-198.5 169.5t-73 241.5v870q0 80 80 80h220q80 0 80 -80v-852z" />
    <glyph glyph-name="ubreve" unicode="&#x16d;" horiz-adv-x="1238" 
d="M609 1164q-127 0 -229 62.5t-138 165.5q-14 39 7.5 62.5t64.5 23.5h132q8 0 15.5 -1.5t13 -2.5t12 -5.5l9.5 -6.5t9.5 -9.5t9 -10t10 -12.5t10.5 -13q29 -32 74 -32t74 32q3 3 10.5 13t10 12.5t9 10t9.5 9.5l9.5 6.5t12 5.5t13 2.5t15.5 1.5h132q42 0 64 -21.5t11 -57.5
q-34 -105 -138 -170t-232 -65zM749 956q0 80 80 80h210q80 0 80 -80v-876q0 -80 -80 -80h-210q-80 0 -80 80v20q-99 -120 -272 -120q-163 0 -271 107.5t-108 287.5v581q0 80 80 80h210q80 0 80 -80v-507q0 -65 38.5 -108.5t98.5 -43.5q63 0 103.5 46.5t40.5 138.5v474z" />
    <glyph glyph-name="Uring" unicode="&#x16e;" horiz-adv-x="1351" 
d="M429 1686q0 95 71 159.5t175 64.5t175 -64.5t71 -159.5t-71 -160t-175 -65t-175 65t-71 160zM617 1686q0 -25 16.5 -41t41.5 -16t41.5 16t16.5 41q0 24 -16.5 40t-41.5 16t-41.5 -16t-16.5 -40zM507 468q0 -71 47.5 -116.5t120.5 -45.5t120 45.5t47 116.5v852q0 80 80 80
h221q80 0 80 -80v-870q0 -133 -73 -241.5t-198.5 -169.5t-276.5 -61t-276.5 61t-198.5 169.5t-73 241.5v870q0 80 80 80h220q80 0 80 -80v-852z" />
    <glyph glyph-name="uring" unicode="&#x16f;" horiz-adv-x="1238" 
d="M362 1362q0 95 71 159.5t175 64.5t175 -64.5t71 -159.5t-71 -160t-175 -65t-175 65t-71 160zM550 1362q0 -25 16.5 -41t41.5 -16t41.5 16t16.5 41q0 24 -16.5 40t-41.5 16t-41.5 -16t-16.5 -40zM749 956q0 80 80 80h210q80 0 80 -80v-876q0 -80 -80 -80h-210
q-80 0 -80 80v20q-99 -120 -272 -120q-163 0 -271 107.5t-108 287.5v581q0 80 80 80h210q80 0 80 -80v-507q0 -65 38.5 -108.5t98.5 -43.5q63 0 103.5 46.5t40.5 138.5v474z" />
    <glyph glyph-name="Uhungarumlaut" unicode="&#x170;" horiz-adv-x="1351" 
d="M539 1531q-54 -54 -113 -6l-19 15q-59 49 -17 112l151 227q47 70 112 16l74 -60q31 -26 32 -55t-27 -58zM926 1531q-54 -54 -113 -6l-19 15q-59 49 -17 112l151 227q47 70 112 16l74 -60q31 -26 32 -55t-27 -58zM507 468q0 -71 47.5 -116.5t120.5 -45.5t120 45.5
t47 116.5v852q0 80 80 80h221q80 0 80 -80v-870q0 -133 -73 -241.5t-198.5 -169.5t-276.5 -61t-276.5 61t-198.5 169.5t-73 241.5v870q0 80 80 80h220q80 0 80 -80v-852z" />
    <glyph glyph-name="uhungarumlaut" unicode="&#x171;" horiz-adv-x="1238" 
d="M471 1204q-54 -54 -113 -6l-19 15q-59 49 -17 112l151 227q47 70 112 16l74 -60q31 -26 32 -55t-27 -58zM858 1204q-54 -54 -113 -6l-19 15q-59 49 -17 112l151 227q47 70 112 16l74 -60q31 -26 32 -55t-27 -58zM749 956q0 80 80 80h210q80 0 80 -80v-876q0 -80 -80 -80
h-210q-80 0 -80 80v20q-99 -120 -272 -120q-163 0 -271 107.5t-108 287.5v581q0 80 80 80h210q80 0 80 -80v-507q0 -65 38.5 -108.5t98.5 -43.5q63 0 103.5 46.5t40.5 138.5v474z" />
    <glyph glyph-name="Uogonek" unicode="&#x172;" horiz-adv-x="1351" 
d="M507 468q0 -67 48.5 -114.5t119.5 -47.5q73 0 120 45.5t47 116.5v852q0 80 80 80h221q80 0 80 -80v-870q0 -171 -117 -297t-300 -161q-157 -122 -157 -223q0 -44 19.5 -68t49.5 -24q37 0 59 33q17 25 26 36.5t25.5 20.5t38.5 9h70q43 0 63.5 -24t7.5 -64
q-32 -93 -110.5 -143t-197.5 -50q-123 0 -211.5 68.5t-88.5 170.5q0 67 45.5 134t120.5 120q-191 30 -315 158t-124 304v870q0 80 80 80h220q80 0 80 -80v-852z" />
    <glyph glyph-name="uogonek" unicode="&#x173;" horiz-adv-x="1238" 
d="M818 0q-69 0 -69 80v20q-100 -121 -276 -121q-162 0 -268.5 108.5t-106.5 287.5v581q0 80 80 80h210q80 0 80 -80v-507q0 -65 38.5 -108.5t98.5 -43.5q63 0 103.5 46.5t40.5 138.5v474q0 80 80 80h210q80 0 80 -80v-896q0 -57 -48 -99q-120 -103 -120 -192q0 -44 19 -68
t50 -24q37 0 59 33q16 25 25 36.5t25.5 20.5t38.5 9h70q43 0 64 -24t7 -64q-32 -94 -110.5 -143.5t-197.5 -49.5q-123 0 -211.5 68.5t-88.5 170.5q0 72 51.5 142.5t134.5 123.5h-69z" />
    <glyph glyph-name="Wcircumflex" unicode="&#x174;" horiz-adv-x="1995" 
d="M1111 1851q60 0 98 -46l122 -146q51 -62 -11 -113l-42 -33q-57 -47 -113 4l-168 157l-168 -157q-55 -52 -113 -4l-42 33q-63 49 -11 113l122 146q38 46 98 46h228zM1117 1400q73 0 88 -70l186 -834l178 833q15 71 87 71h227q43 0 61.5 -24t7.5 -65l-327 -1242
q-18 -69 -89 -69h-248q-72 0 -88 69l-202 819l-203 -819q-17 -69 -88 -69h-248q-71 0 -89 69l-327 1242q-11 41 7.5 65t61.5 24h227q72 0 87 -71l178 -833l187 834q15 70 88 70h238z" />
    <glyph glyph-name="wcircumflex" unicode="&#x175;" horiz-adv-x="1630" 
d="M928 1527q60 0 98 -46l122 -146q51 -62 -11 -113l-42 -33q-57 -47 -113 4l-168 157l-168 -157q-55 -52 -113 -4l-42 33q-63 49 -11 113l122 146q38 46 98 46h228zM920 1036q73 0 88 -71l108 -532l111 532q15 71 87 71h206q43 0 61.5 -24t6.5 -66l-250 -878
q-20 -68 -89 -68h-237q-72 0 -88 70l-109 463l-109 -463q-16 -70 -88 -70h-237q-69 0 -89 68l-249 878q-12 42 6 66t61 24h206q72 0 87 -71l111 -532l108 532q15 71 88 71h210z" />
    <glyph glyph-name="Ycircumflex" unicode="&#x176;" horiz-adv-x="1327" 
d="M777 1851q60 0 98 -46l122 -146q51 -62 -11 -113l-42 -33q-57 -47 -113 4l-168 157l-168 -157q-55 -52 -113 -4l-42 33q-63 49 -11 113l122 146q38 46 98 46h228zM664 894l203 446q27 60 93 60h239q47 0 63.5 -27t-5.5 -68l-403 -761v-464q0 -80 -80 -80h-221
q-80 0 -80 80v464l-403 761q-22 41 -5.5 68t63.5 27h239q66 0 93 -60z" />
    <glyph glyph-name="ycircumflex" unicode="&#x177;" horiz-adv-x="1110" 
d="M667 1527q60 0 98 -46l122 -146q51 -62 -11 -113l-42 -33q-57 -47 -113 4l-168 157l-168 -157q-55 -52 -113 -4l-42 33q-63 49 -11 113l122 146q38 46 98 46h228zM996 1036q44 0 61.5 -25.5t3.5 -66.5l-467 -1343q-22 -65 -91 -65h-218q-45 0 -62.5 26t-0.5 67l154 371
l-328 944q-14 41 3.5 66.5t61.5 25.5h219q71 0 89 -68l133 -499l134 499q18 68 89 68h219z" />
    <glyph glyph-name="Ydieresis" unicode="&#x178;" horiz-adv-x="1327" 
d="M276 1664q0 74 51 124t127 50q75 0 126 -50t51 -124t-51 -124t-126 -50q-76 0 -127 50t-51 124zM697 1664q0 74 51 124t126 50q76 0 127 -50t51 -124t-51 -124t-127 -50q-75 0 -126 50t-51 124zM664 894l203 446q27 60 93 60h239q47 0 63.5 -27t-5.5 -68l-403 -761v-464
q0 -80 -80 -80h-221q-80 0 -80 80v464l-403 761q-22 41 -5.5 68t63.5 27h239q66 0 93 -60z" />
    <glyph glyph-name="Zacute" unicode="&#x179;" horiz-adv-x="1232" 
d="M645 1505q-53 -53 -113 -6l-45 35q-60 48 -17 112l150 227q22 34 51.5 38.5t60.5 -21.5l100 -82q31 -25 33 -55t-27 -58zM672 1073h-463q-80 0 -80 80v167q0 80 80 80h834q80 0 80 -80v-162q0 -53 -33 -99l-540 -732h513q80 0 80 -80v-167q0 -80 -80 -80h-884
q-80 0 -80 80v162q0 53 33 99z" />
    <glyph glyph-name="zacute" unicode="&#x17a;" horiz-adv-x="1037" 
d="M540 1181q-53 -53 -113 -6l-45 35q-60 48 -17 112l150 227q22 34 51.5 38.5t60.5 -21.5l100 -82q31 -25 33 -55t-27 -58zM73 212q0 57 38 99l374 411h-306q-80 0 -80 80v154q0 80 80 80h680q80 0 80 -80v-132q0 -57 -38 -99l-373 -411h351q80 0 80 -80v-154
q0 -80 -80 -80h-726q-80 0 -80 80v132z" />
    <glyph glyph-name="Zdotaccent" unicode="&#x17b;" horiz-adv-x="1232" 
d="M442 1664q0 76 53.5 128.5t131.5 52.5t131.5 -52.5t53.5 -128.5t-53.5 -129t-131.5 -53t-131.5 53t-53.5 129zM672 1073h-463q-80 0 -80 80v167q0 80 80 80h834q80 0 80 -80v-162q0 -53 -33 -99l-540 -732h513q80 0 80 -80v-167q0 -80 -80 -80h-884q-80 0 -80 80v162
q0 53 33 99z" />
    <glyph glyph-name="zdotaccent" unicode="&#x17c;" horiz-adv-x="1037" 
d="M334 1340q0 76 53.5 128.5t131.5 52.5t131.5 -52.5t53.5 -128.5t-53.5 -129t-131.5 -53t-131.5 53t-53.5 129zM73 212q0 57 38 99l374 411h-306q-80 0 -80 80v154q0 80 80 80h680q80 0 80 -80v-132q0 -57 -38 -99l-373 -411h351q80 0 80 -80v-154q0 -80 -80 -80h-726
q-80 0 -80 80v132z" />
    <glyph glyph-name="Zcaron" unicode="&#x17d;" horiz-adv-x="1232" 
d="M500 1508q-60 0 -98 46l-122 146q-51 62 11 113l42 33q57 47 113 -4l168 -157l168 157q55 52 113 4l42 -33q63 -49 11 -113l-122 -146q-38 -46 -98 -46h-228zM672 1073h-463q-80 0 -80 80v167q0 80 80 80h834q80 0 80 -80v-162q0 -53 -33 -99l-540 -732h513q80 0 80 -80
v-167q0 -80 -80 -80h-884q-80 0 -80 80v162q0 53 33 99z" />
    <glyph glyph-name="zcaron" unicode="&#x17e;" horiz-adv-x="1037" 
d="M396 1164q-60 0 -98 46l-122 146q-51 62 11 113l42 33q57 47 113 -4l168 -157l168 157q55 52 113 4l42 -33q63 -49 11 -113l-122 -146q-38 -46 -98 -46h-228zM73 212q0 57 38 99l374 411h-306q-80 0 -80 80v154q0 80 80 80h680q80 0 80 -80v-132q0 -57 -38 -99l-373 -411
h351q80 0 80 -80v-154q0 -80 -80 -80h-726q-80 0 -80 80v132z" />
    <glyph glyph-name="longs" unicode="&#x17f;" horiz-adv-x="792" 
d="M752 1264q0 -81 -49 -78q-34 2 -49 2q-52 0 -79.5 -25t-27.5 -71v-1012q0 -80 -80 -80h-209q-80 0 -80 80v639h-70q-80 0 -80 80v157q0 80 80 80h70v62q0 176 99.5 269t290.5 93q53 0 110 -5q74 -6 74 -84v-107z" />
    <glyph glyph-name="uni0191" unicode="&#x191;" horiz-adv-x="1090" 
d="M521 -88q0 -168 -120.5 -272t-314.5 -104q-44 0 -88 3q-73 7 -73 85v159q0 81 51 78q17 -2 52 -2q54 0 83 27.5t29 76.5v1357q0 80 80 80h732q80 0 80 -80v-164q0 -80 -80 -80h-431v-255h383q80 0 80 -80v-164q0 -80 -80 -80h-383v-585z" />
    <glyph glyph-name="florin" unicode="&#x192;" horiz-adv-x="793" 
d="M752 1263q0 -81 -49 -78q-34 2 -49 2q-53 0 -80 -24.5t-27 -70.5v-56h125q80 0 80 -80v-158q0 -80 -80 -80h-125v-820q0 -168 -117.5 -265t-319.5 -97q-32 0 -64 3q-72 7 -72 86v108q0 39 12.5 59t35.5 19q16 -2 48 -2q53 0 80 24.5t27 70.5v814h-70q-80 0 -80 80v158
q0 80 80 80h70v62q0 361 408 361q54 0 93 -4q74 -6 74 -85v-107z" />
    <glyph glyph-name="Aringacute" unicode="&#x1fa;" horiz-adv-x="1397" 
d="M590 1761q-49 60 6 113l115 111q61 58 113 -8l45 -59q52 -67 -20 -111l-134 -81q-63 -39 -111 19zM465 1455q0 89 67 151t165 62q97 0 164 -62t67 -151q0 -74 -48 -132q48 0 70 -65l395 -1167q14 -42 -3.5 -66.5t-61.5 -24.5h-225q-71 0 -90 67l-58 201h-419l-57 -201
q-21 -67 -90 -67h-225q-44 0 -61.5 25t-3.5 66l394 1167q22 65 68 65q-48 58 -48 132zM638 1455q0 -26 17 -43t42 -17t41.5 17t16.5 43t-16.5 43t-41.5 17t-42 -17t-17 -43zM568 557h260l-130 449z" />
    <glyph glyph-name="aringacute" unicode="&#x1fb;" horiz-adv-x="1322" 
d="M528 1627q-49 60 6 113l115 112q29 28 58.5 26t54.5 -34l45 -59q51 -67 -21 -111l-134 -81q-63 -39 -111 19zM400 1322q0 89 67 151t165 62q97 0 164 -62t67 -151q0 -90 -66.5 -151.5t-164.5 -61.5t-165 61.5t-67 151.5zM573 1322q0 -26 17 -43t42 -17t41.5 17t16.5 43
t-16.5 43t-41.5 17t-42 -17t-17 -43zM56 518q0 231 133 386.5t340 155.5q187 0 314 -129v25q0 80 80 80h200q80 0 80 -80v-876q0 -80 -80 -80h-200q-80 0 -80 80v24q-126 -128 -314 -128q-207 0 -340 155t-133 387zM419 518q0 -94 61 -157.5t150 -63.5q90 0 151.5 63.5
t61.5 157.5q0 93 -61.5 156.5t-151.5 63.5q-89 0 -150 -63.5t-61 -156.5z" />
    <glyph glyph-name="AEacute" unicode="&#x1fc;" horiz-adv-x="1895" 
d="M983 1505q-53 -53 -113 -6l-45 35q-60 48 -17 112l150 227q22 34 51.5 38.5t60.5 -21.5l100 -82q31 -25 33 -55t-27 -58zM115 0q-47 0 -63.5 27t5.5 68l660 1248q30 57 94 57h899q80 0 80 -80v-158q0 -80 -80 -80h-447v-222h399q80 0 80 -80v-152q0 -80 -80 -80h-399
v-230h465q80 0 80 -80v-158q0 -80 -80 -80h-758q-80 0 -80 80v189h-358l-102 -210q-28 -59 -93 -59h-222zM669 557h221v455z" />
    <glyph glyph-name="aeacute" unicode="&#x1fd;" horiz-adv-x="2052" 
d="M1052 1181q-53 -53 -113 -6l-45 35q-60 48 -17 112l150 227q22 34 51.5 38.5t60.5 -21.5l100 -82q31 -25 33 -55t-27 -58zM1218 421q33 -180 247 -180q154 0 265 68q66 41 112 -15l40 -49q48 -61 -2 -112q-70 -73 -160 -115t-191 -42q-105 0 -189.5 37.5t-136.5 104.5
v-38q0 -80 -80 -80h-200q-80 0 -80 80v25q-127 -129 -314 -129q-206 0 -339.5 155.5t-133.5 386.5t133.5 386.5t339.5 155.5q187 0 314 -129v25q0 80 80 80h200q80 0 80 -80v-33q102 137 297 137q139 0 248.5 -70.5t168.5 -190.5t59 -266q0 -19 -3 -42q-4 -34 -26.5 -52
t-59.5 -18h-669zM1417 795q-74 0 -125.5 -44t-70.5 -119h384q-31 163 -188 163zM419 518q0 -93 61.5 -157t150.5 -64t150.5 64t61.5 157t-61.5 157t-150.5 64t-150.5 -64t-61.5 -157z" />
    <glyph glyph-name="Oslashacute" unicode="&#x1fe;" horiz-adv-x="1664" 
d="M891 1505q-53 -53 -113 -6l-45 35q-60 48 -17 112l150 227q22 34 51.5 38.5t60.5 -21.5l100 -82q31 -25 33 -55t-27 -58zM71 700q0 201 99.5 367t274.5 261.5t387 95.5q188 0 350 -78l88 115q48 64 113 15l40 -30q64 -48 15 -113l-80 -103q111 -100 173 -236.5t62 -293.5
q0 -201 -99.5 -367t-274.5 -261.5t-387 -95.5q-201 0 -370 87l-96 -124q-48 -64 -112 -16l-41 31q-63 48 -15 112l92 119q-104 99 -161.5 231.5t-57.5 283.5zM452 700q0 -123 63 -221l454 590q-67 27 -137 27q-162 0 -271 -113.5t-109 -282.5zM1212 700q0 135 -76 240
l-463 -601q76 -35 159 -35q162 0 271 113.5t109 282.5z" />
    <glyph glyph-name="oslashacute" unicode="&#x1ff;" horiz-adv-x="1283" 
d="M702 1181q-53 -53 -113 -6l-45 35q-60 48 -17 112l150 227q22 34 51.5 38.5t60.5 -21.5l100 -82q31 -25 33 -55t-27 -58zM56 518q0 150 76.5 274.5t211 196t297.5 71.5q138 0 258 -53l63 82q23 31 52.5 35t60.5 -19l26 -19q64 -48 15 -113l-56 -71q79 -74 122.5 -173
t43.5 -211q0 -229 -168 -385.5t-417 -156.5q-139 0 -259 53l-65 -83q-49 -63 -112 -16l-26 19q-64 47 -15 112l57 74q-78 74 -121.5 172.5t-43.5 210.5zM406 518q0 -59 27 -110l262 336q-27 8 -54 8q-100 0 -167.5 -67.5t-67.5 -166.5zM877 518q0 59 -29 111l-263 -338
q25 -7 56 -7q101 0 168.5 67.5t67.5 166.5z" />
    <glyph glyph-name="Scommaaccent" unicode="&#x218;" horiz-adv-x="1206" 
d="M196 384q50 56 113 9q140 -104 294 -104q73 0 118 32t45 82q0 54 -50.5 91.5t-189.5 67.5q-193 42 -306 153.5t-113 273.5q0 189 137 312t356 123q195 0 333 -95.5t173 -264.5q9 -40 -12 -62.5t-62 -22.5h-208q-33 0 -52 16t-36 52q-35 70 -119 70q-58 0 -93.5 -27.5
t-35.5 -69.5q0 -51 47 -90.5t166 -66.5q217 -50 331.5 -158.5t114.5 -277.5q0 -194 -143.5 -322.5t-377.5 -128.5q-277 0 -483 237q-47 56 2 113zM765 -192q31 -25 33 -55t-27 -58l-193 -191q-54 -54 -113 -6l-45 36q-60 48 -17 112l150 227q22 34 51.5 38.5t60.5 -21.5z
" />
    <glyph glyph-name="scommaaccent" unicode="&#x219;" horiz-adv-x="958" 
d="M136 289q45 56 112 15q100 -60 211 -60q47 0 73.5 16.5t26.5 45.5q0 31 -31.5 52t-107.5 37q-159 35 -246.5 125t-87.5 219q0 139 111.5 230t282.5 91q156 0 257.5 -71t141.5 -190q13 -40 -7 -64t-63 -24h-145q-13 0 -22.5 2t-20.5 9.5t-15 10t-18 17l-17 17.5
q-27 25 -68 25q-36 0 -57.5 -15.5t-21.5 -41.5q0 -30 30 -50.5t109 -37.5q172 -37 259.5 -124.5t87.5 -217.5q0 -143 -118 -236t-305 -93q-209 0 -375 166q-50 53 -3 113zM637 -192q31 -25 33 -55t-27 -58l-193 -191q-54 -54 -113 -6l-45 36q-60 48 -17 112l150 227
q22 34 51.5 38.5t60.5 -21.5z" />
    <glyph glyph-name="uni021A" unicode="&#x21a;" horiz-adv-x="1123" 
d="M371 1073h-246q-80 0 -80 80v167q0 80 80 80h873q80 0 80 -80v-167q0 -80 -80 -80h-246v-993q0 -80 -80 -80h-221q-80 0 -80 80v993zM717 -192q31 -25 33 -55t-27 -58l-193 -191q-54 -54 -113 -6l-45 36q-60 48 -17 112l150 227q22 34 51.5 38.5t60.5 -21.5z" />
    <glyph glyph-name="uni021B" unicode="&#x21b;" horiz-adv-x="817" 
d="M549 390q0 -97 107 -97h32q83 3 83 -76v-124q0 -72 -60 -92q-74 -25 -164 -25q-165 0 -266 100.5t-101 265.5v377h-79q-80 0 -80 80v157q0 80 80 80h79v182q0 76 75 85l210 24q40 5 62 -15.5t22 -60.5v-215h130q80 0 80 -80v-157q0 -80 -80 -80h-130v-329zM569 -192
q31 -25 33 -55t-27 -58l-193 -191q-54 -54 -113 -6l-45 36q-60 48 -17 112l150 227q22 34 51.5 38.5t60.5 -21.5z" />
    <glyph glyph-name="uni0237" unicode="&#x237;" horiz-adv-x="600" 
d="M115 956q0 80 80 80h210q80 0 80 -80v-1060q0 -165 -105.5 -262.5t-280.5 -97.5q-30 0 -60 3q-73 6 -73 85v149q0 80 56 80q93 0 93 93v1010z" />
    <glyph glyph-name="uni02BC" unicode="&#x2bc;" horiz-adv-x="870" 
d="M250 1316q0 63 54 115t142 52q81 0 134.5 -54t53.5 -141q0 -131 -75.5 -246.5t-225.5 -184.5q-67 -30 -108 34q-24 37 43 88q62 45 81.5 83.5t5.5 71.5t-59 76q-46 43 -46 106z" />
    <glyph glyph-name="circumflex" unicode="&#x2c6;" horiz-adv-x="870" 
d="M548 1461q60 0 98 -46l122 -146q51 -62 -11 -113l-42 -33q-57 -47 -113 4l-168 157l-168 -157q-55 -52 -113 -4l-42 33q-63 49 -11 113l122 146q38 46 98 46h228z" />
    <glyph glyph-name="caron" unicode="&#x2c7;" horiz-adv-x="870" 
d="M320 1118q-60 0 -98 46l-122 146q-51 62 11 113l42 33q57 47 113 -4l168 -157l168 157q55 52 113 4l42 -33q63 -49 11 -113l-122 -146q-38 -46 -98 -46h-228z" />
    <glyph glyph-name="uni02C9" unicode="&#x2c9;" horiz-adv-x="870" 
d="M105 1341q0 80 80 80h500q80 0 80 -80v-106q0 -80 -80 -80h-500q-80 0 -80 80v106z" />
    <glyph glyph-name="breve" unicode="&#x2d8;" horiz-adv-x="870" 
d="M435 1126q-127 0 -229 62.5t-138 165.5q-14 39 7.5 62.5t64.5 23.5h132q8 0 15.5 -1.5t13 -2.5t12 -5.5l9.5 -6.5t9.5 -9.5t9 -10t10 -12.5t10.5 -13q29 -32 74 -32t74 32q3 3 10.5 13t10 12.5t9 10t9.5 9.5l9.5 6.5t12 5.5t13 2.5t15.5 1.5h132q42 0 64 -21.5t11 -57.5
q-34 -105 -138 -170t-232 -65z" />
    <glyph glyph-name="dotaccent" unicode="&#x2d9;" horiz-adv-x="870" 
d="M250 1292q0 76 53.5 128.5t131.5 52.5t131.5 -52.5t53.5 -128.5t-53.5 -129t-131.5 -53t-131.5 53t-53.5 129z" />
    <glyph glyph-name="ring" unicode="&#x2da;" horiz-adv-x="870" 
d="M189 1286q0 95 71 159.5t175 64.5t175 -64.5t71 -159.5t-71 -160t-175 -65t-175 65t-71 160zM377 1286q0 -25 16.5 -41t41.5 -16t41.5 16t16.5 41q0 24 -16.5 40t-41.5 16t-41.5 -16t-16.5 -40z" />
    <glyph glyph-name="ogonek" unicode="&#x2db;" horiz-adv-x="870" 
d="M436 0q45 0 49 -24.5t-33 -64.5q-68 -77 -68 -142q0 -45 19 -69t50 -24q39 0 59 34q16 25 25 36.5t25.5 20.5t38.5 9h70q43 0 64 -24t8 -64q-32 -94 -111 -143.5t-198 -49.5q-123 0 -211 68t-88 170q0 62 38 123t102 112q40 32 99 32h62z" />
    <glyph glyph-name="tilde" unicode="&#x2dc;" horiz-adv-x="870" 
d="M445 1173q-62 33 -85 33q-12 0 -20 -7l-20.5 -18t-17.5 -15t-16.5 -11.5t-19 -6t-24.5 1.5l-126 24q-40 8 -56.5 33.5t-3.5 63.5q57 164 214 164q77 0 155 -42q62 -33 85 -33q12 0 20 7q9 7 21 18l17 15.5t16.5 11t19 5.5t24.5 -1l126 -24q40 -8 56.5 -33.5t3.5 -63.5
q-57 -164 -214 -164q-75 0 -155 42z" />
    <glyph glyph-name="hungarumlaut" unicode="&#x2dd;" horiz-adv-x="870" 
d="M244 1135q-54 -54 -113 -6l-19 15q-59 49 -17 112l151 227q47 70 112 16l74 -60q31 -26 32 -55t-27 -58zM631 1135q-54 -54 -113 -6l-19 15q-59 49 -17 112l151 227q47 70 112 16l74 -60q31 -26 32 -55t-27 -58z" />
    <glyph glyph-name="gravecomb" unicode="&#x300;" horiz-adv-x="0" 
d="M-642 1305q-29 28 -27 58t33 55l100 82q31 26 60.5 21.5t51.5 -38.5l150 -227q42 -64 -18 -112l-44 -35q-60 -47 -113 6z" />
    <glyph glyph-name="acutecomb" unicode="&#x301;" horiz-adv-x="0" 
d="M-429 1115q-53 -53 -113 -6l-45 35q-60 48 -17 112l150 227q22 34 51.5 38.5t60.5 -21.5l100 -82q31 -25 33 -55t-27 -58z" />
    <glyph glyph-name="uni0302" unicode="&#x302;" horiz-adv-x="0" 
d="M-322 1461q60 0 98 -46l122 -146q51 -62 -11 -113l-42 -33q-57 -47 -113 4l-168 157l-168 -157q-55 -52 -113 -4l-42 33q-63 49 -11 113l122 146q38 46 98 46h228z" />
    <glyph glyph-name="tildecomb" unicode="&#x303;" horiz-adv-x="0" 
d="M-425 1173q-62 33 -85 33q-12 0 -20 -7l-20.5 -18t-17.5 -15t-16.5 -11.5t-19 -6t-24.5 1.5l-126 24q-40 8 -56.5 33.5t-3.5 63.5q57 164 214 164q77 0 155 -42q62 -33 85 -33q12 0 20 7q9 7 21 18l17 15.5t16.5 11t19 5.5t24.5 -1l126 -24q40 -8 56.5 -33.5t3.5 -63.5
q-57 -164 -214 -164q-75 0 -155 42z" />
    <glyph glyph-name="uni0304" unicode="&#x304;" horiz-adv-x="0" 
d="M-765 1341q0 80 80 80h500q80 0 80 -80v-106q0 -80 -80 -80h-500q-80 0 -80 80v106z" />
    <glyph glyph-name="uni0306" unicode="&#x306;" horiz-adv-x="0" 
d="M-435 1126q-127 0 -229 62.5t-138 165.5q-14 39 7.5 62.5t64.5 23.5h132q8 0 15.5 -1.5t13 -2.5t12 -5.5l9.5 -6.5t9.5 -9.5t9 -10t10 -12.5t10.5 -13q29 -32 74 -32t74 32q3 3 10.5 13t10 12.5t9 10t9.5 9.5l9.5 6.5t12 5.5t13 2.5t15.5 1.5h132q42 0 64 -21.5t11 -57.5
q-34 -105 -138 -170t-232 -65z" />
    <glyph glyph-name="uni0307" unicode="&#x307;" horiz-adv-x="0" 
d="M-620 1292q0 76 53.5 128.5t131.5 52.5t131.5 -52.5t53.5 -128.5t-53.5 -129t-131.5 -53t-131.5 53t-53.5 129z" />
    <glyph glyph-name="uni0308" unicode="&#x308;" horiz-adv-x="0" 
d="M-823 1292q0 74 51 124t127 50q75 0 126 -50t51 -124t-51 -124t-126 -50q-76 0 -127 50t-51 124zM-402 1292q0 74 51 124t126 50q76 0 127 -50t51 -124t-51 -124t-127 -50q-75 0 -126 50t-51 124z" />
    <glyph glyph-name="uni030A" unicode="&#x30a;" horiz-adv-x="0" 
d="M-681 1286q0 95 71 159.5t175 64.5t175 -64.5t71 -159.5t-71 -160t-175 -65t-175 65t-71 160zM-493 1286q0 -25 16.5 -41t41.5 -16t41.5 16t16.5 41q0 24 -16.5 40t-41.5 16t-41.5 -16t-16.5 -40z" />
    <glyph glyph-name="uni030C" unicode="&#x30c;" horiz-adv-x="0" 
d="M-550 1118q-60 0 -98 46l-122 146q-51 62 11 113l42 33q57 47 113 -4l168 -157l168 157q55 52 113 4l42 -33q63 -49 11 -113l-122 -146q-38 -46 -98 -46h-228z" />
    <glyph glyph-name="uni0327" unicode="&#x327;" horiz-adv-x="0" 
d="M-360 -292q0 27 -23 45.5t-56 18.5q-55 8 -85 38q-19 19 -19 76v34q0 80 80 80h60q80 0 80 -80v-13q95 -12 150 -70.5t55 -132.5q0 -96 -90 -160t-224 -64q-95 0 -169 35.5t-115 104.5q-22 39 -2.5 65.5t65.5 26.5h49q15 0 29 -4.5t21 -9.5t23 -17.5t23 -17.5
q26 -17 64 -17t61 17.5t23 44.5z" />
    <glyph glyph-name="tonos" unicode="&#x384;" horiz-adv-x="870" 
d="M439 1115q-53 -53 -113 -6l-44 35q-60 48 -18 112l150 227q22 34 51.5 38.5t60.5 -21.5l100 -82q31 -25 33 -55t-27 -58z" />
    <glyph glyph-name="dieresistonos" unicode="&#x385;" horiz-adv-x="870" 
d="M349 1338q-51 57 0 113l107 117q27 30 57 29.5t56 -31.5l47 -55q26 -31 22 -60t-37 -52l-127 -88q-62 -43 -112 13zM84 1143q0 63 46 106.5t113 43.5q68 0 113.5 -43.5t45.5 -106.5t-45.5 -106t-113.5 -43q-67 0 -113 43.5t-46 105.5zM467 1143q0 63 46 106.5t113 43.5
t113 -43.5t46 -106.5q0 -62 -46 -105.5t-113 -43.5t-113 43.5t-46 105.5z" />
    <glyph glyph-name="Alphatonos" unicode="&#x386;" horiz-adv-x="1563" 
d="M287 1055q-53 -53 -113 -6l-44 35q-60 48 -18 112l150 227q22 34 51.5 38.5t60.5 -21.5l100 -82q31 -25 33 -55t-27 -58zM1002 1400q69 0 91 -65l418 -1244q14 -41 -3.5 -66t-61.5 -25h-225q-71 0 -90 67l-58 201h-419l-58 -201q-19 -67 -89 -67h-225q-44 0 -61.5 25
t-3.5 66l418 1244q22 65 91 65h276zM734 557h260l-130 449z" />
    <glyph glyph-name="anoteleia" unicode="&#x387;" horiz-adv-x="609" 
d="M92 655q0 86 60 144t152 58t152.5 -58t60.5 -144t-60.5 -144t-152.5 -58t-152 58t-60 144z" />
    <glyph glyph-name="Epsilontonos" unicode="&#x388;" horiz-adv-x="1622" 
d="M287 1055q-53 -53 -113 -6l-44 35q-60 48 -18 112l150 227q22 34 51.5 38.5t60.5 -21.5l100 -82q31 -25 33 -55t-27 -58zM603 1320q0 80 80 80h752q80 0 80 -80v-158q0 -80 -80 -80h-451v-222h403q80 0 80 -80v-152q0 -80 -80 -80h-403v-230h469q80 0 80 -80v-158
q0 -80 -80 -80h-770q-80 0 -80 80v1240z" />
    <glyph glyph-name="Etatonos" unicode="&#x389;" horiz-adv-x="1892" 
d="M287 1055q-53 -53 -113 -6l-44 35q-60 48 -18 112l150 227q22 34 51.5 38.5t60.5 -21.5l100 -82q31 -25 33 -55t-27 -58zM603 1320q0 80 80 80h221q80 0 80 -80v-452h387v452q0 80 80 80h220q80 0 80 -80v-1240q0 -80 -80 -80h-220q-80 0 -80 80v460h-387v-460
q0 -80 -80 -80h-221q-80 0 -80 80v1240z" />
    <glyph glyph-name="Iotatonos" unicode="&#x38a;" horiz-adv-x="1127" 
d="M287 1055q-53 -53 -113 -6l-44 35q-60 48 -18 112l150 227q22 34 51.5 38.5t60.5 -21.5l100 -82q31 -25 33 -55t-27 -58zM984 80q0 -80 -80 -80h-221q-80 0 -80 80v1240q0 80 80 80h221q80 0 80 -80v-1240z" />
    <glyph glyph-name="Omicrontonos" unicode="&#x38c;" horiz-adv-x="1979" 
d="M287 1055q-53 -53 -113 -6l-44 35q-60 48 -18 112l150 227q22 34 51.5 38.5t60.5 -21.5l100 -82q31 -25 33 -55t-27 -58zM386 700q0 201 99.5 367t274.5 261.5t387 95.5t387 -95.5t274.5 -261.5t99.5 -367t-99.5 -367t-274.5 -261.5t-387 -95.5t-387 95.5t-274.5 261.5
t-99.5 367zM767 700q0 -169 109 -282.5t271 -113.5t271 113.5t109 282.5t-109 282.5t-271 113.5t-271 -113.5t-109 -282.5z" />
    <glyph glyph-name="Upsilontonos" unicode="&#x38e;" horiz-adv-x="1894" 
d="M287 1055q-53 -53 -113 -6l-44 35q-60 48 -18 112l150 227q22 34 51.5 38.5t60.5 -21.5l100 -82q31 -25 33 -55t-27 -58zM1230 894l203 446q27 60 93 60h239q47 0 63.5 -27t-5.5 -68l-403 -761v-464q0 -80 -80 -80h-221q-80 0 -80 80v464l-403 761q-22 41 -5.5 68
t63.5 27h239q66 0 93 -60z" />
    <glyph glyph-name="Omegatonos" unicode="&#x38f;" horiz-adv-x="1961" 
d="M287 1055q-53 -53 -113 -6l-44 35q-60 48 -18 112l150 227q22 34 51.5 38.5t60.5 -21.5l100 -82q31 -25 33 -55t-27 -58zM1500 728q0 155 -102 261.5t-251 106.5t-251 -106.5t-102 -261.5q0 -123 58.5 -224.5t166.5 -167.5q57 -36 57 -96v-160q0 -80 -80 -80h-480
q-80 0 -80 80v168q0 80 80 80h147q-125 80 -188 193t-63 250q0 180 97 330t266 236.5t372 86.5t372 -86.5t266 -236.5t97 -330q0 -137 -63 -250t-188 -193h147q80 0 80 -80v-168q0 -80 -80 -80h-480q-80 0 -80 80v160q0 60 60 97q106 66 164 167.5t58 223.5z" />
    <glyph glyph-name="iotadieresistonos" unicode="&#x390;" horiz-adv-x="660" 
d="M214 1472q-51 57 0 113l107 117q27 30 57 29.5t56 -31.5l47 -55q26 -31 22 -60t-37 -52l-127 -88q-62 -43 -112 13zM-51 1277q0 63 46 106.5t113 43.5q68 0 113.5 -43.5t45.5 -106.5t-45.5 -106t-113.5 -43q-67 0 -113 43.5t-46 105.5zM332 1277q0 63 46 106.5t113 43.5
t113 -43.5t46 -106.5q0 -62 -46 -105.5t-113 -43.5t-113 43.5t-46 105.5zM115 956q0 80 80 80h210q80 0 80 -80v-540q0 -96 94 -96q40 0 40 -80v-157q0 -79 -58 -82q-19 -1 -58 -1q-199 0 -293.5 83t-94.5 250v623z" />
    <glyph glyph-name="Alpha" unicode="&#x391;" horiz-adv-x="1397" 
d="M836 1400q69 0 91 -65l418 -1244q14 -41 -3.5 -66t-61.5 -25h-225q-71 0 -90 67l-58 201h-419l-58 -201q-19 -67 -89 -67h-225q-44 0 -61.5 25t-3.5 66l418 1244q22 65 91 65h276zM568 557h260l-130 449z" />
    <glyph glyph-name="Beta" unicode="&#x392;" horiz-adv-x="1264" 
d="M220 0q-80 0 -80 80v1240q0 80 80 80h477q196 0 315.5 -105.5t119.5 -274.5q0 -98 -49 -176t-131 -111q111 -30 177.5 -116.5t66.5 -207.5q0 -178 -124 -293.5t-316 -115.5h-536zM790 978q0 58 -33.5 91.5t-86.5 33.5h-164v-249h164q53 0 86.5 33.5t33.5 90.5zM824 432
q0 60 -36.5 98t-93.5 38h-188v-271h188q57 0 93.5 37.5t36.5 97.5z" />
    <glyph glyph-name="Gamma" unicode="&#x393;" horiz-adv-x="1056" 
d="M140 1320q0 80 80 80h731q80 0 80 -80v-167q0 -80 -80 -80h-430v-993q0 -80 -80 -80h-221q-80 0 -80 80v1240z" />
    <glyph glyph-name="uni0394" unicode="&#x394;" horiz-adv-x="1397" 
d="M1345 91q14 -41 -3.5 -66t-61.5 -25h-1164q-44 0 -61.5 25t-3.5 66l418 1244q22 65 91 65h277q69 0 91 -65zM492 309h413l-207 698z" />
    <glyph glyph-name="Epsilon" unicode="&#x395;" horiz-adv-x="1158" 
d="M140 1320q0 80 80 80h752q80 0 80 -80v-158q0 -80 -80 -80h-451v-222h403q80 0 80 -80v-152q0 -80 -80 -80h-403v-230h469q80 0 80 -80v-158q0 -80 -80 -80h-770q-80 0 -80 80v1240z" />
    <glyph glyph-name="Zeta" unicode="&#x396;" horiz-adv-x="1232" 
d="M672 1073h-463q-80 0 -80 80v167q0 80 80 80h834q80 0 80 -80v-162q0 -53 -33 -99l-540 -732h513q80 0 80 -80v-167q0 -80 -80 -80h-884q-80 0 -80 80v162q0 53 33 99z" />
    <glyph glyph-name="Eta" unicode="&#x397;" horiz-adv-x="1429" 
d="M140 1320q0 80 80 80h221q80 0 80 -80v-452h387v452q0 80 80 80h220q80 0 80 -80v-1240q0 -80 -80 -80h-220q-80 0 -80 80v460h-387v-460q0 -80 -80 -80h-221q-80 0 -80 80v1240z" />
    <glyph glyph-name="Theta" unicode="&#x398;" horiz-adv-x="1664" 
d="M71 700q0 201 99.5 367t274.5 261.5t387 95.5t387 -95.5t274.5 -261.5t99.5 -367t-99.5 -367t-274.5 -261.5t-387 -95.5t-387 95.5t-274.5 261.5t-99.5 367zM437 700q0 -174 114 -292.5t281 -118.5t281 118.5t114 292.5t-114 292.5t-281 118.5t-281 -118.5t-114 -292.5z
M579 765q0 80 80 80h346q80 0 80 -80v-130q0 -80 -80 -80h-346q-80 0 -80 80v130z" />
    <glyph glyph-name="Iota" unicode="&#x399;" horiz-adv-x="666" 
d="M523 80q0 -80 -80 -80h-221q-80 0 -80 80v1240q0 80 80 80h221q80 0 80 -80v-1240z" />
    <glyph glyph-name="Kappa" unicode="&#x39a;" horiz-adv-x="1287" 
d="M1147 1400q39 0 59.5 -21t19.5 -61q-17 -459 -236 -632l291 -591q20 -42 3.5 -68.5t-62.5 -26.5h-236q-65 0 -93 59l-247 512h-125v-491q0 -80 -80 -80h-221q-80 0 -80 80v1240q0 80 80 80h221q80 0 80 -80v-421h49q132 0 199 98t77 320q5 83 81 83h220z" />
    <glyph glyph-name="Lambda" unicode="&#x39b;" horiz-adv-x="1397" 
d="M836 1400q69 0 91 -65l418 -1244q14 -41 -3.5 -66t-61.5 -25h-225q-70 0 -89 67l-268 926l-268 -926q-19 -67 -89 -67h-225q-44 0 -61.5 25t-3.5 66l418 1244q22 65 91 65h276z" />
    <glyph glyph-name="Mu" unicode="&#x39c;" horiz-adv-x="1733" 
d="M857 218q-65 0 -94 59l-274 563v-760q0 -80 -80 -80h-189q-80 0 -80 80v1240q0 80 80 80h252q65 0 93 -59l335 -696l334 696q27 59 93 59h252q80 0 80 -80v-1240q0 -80 -80 -80h-188q-80 0 -80 80v760l-275 -563q-29 -59 -94 -59h-85z" />
    <glyph glyph-name="Nu" unicode="&#x39d;" horiz-adv-x="1429" 
d="M140 1320q0 80 80 80h263q66 0 93 -60l364 -795v775q0 80 80 80h188q80 0 80 -80v-1240q0 -80 -80 -80h-262q-66 0 -93 60l-364 795v-775q0 -80 -80 -80h-189q-80 0 -80 80v1240z" />
    <glyph glyph-name="Xi" unicode="&#x39e;" horiz-adv-x="1163" 
d="M109 1320q0 80 80 80h785q80 0 80 -80v-158q0 -80 -80 -80h-785q-80 0 -80 80v158zM248 548q-80 0 -80 80v152q0 80 80 80h653q80 0 80 -80v-152q0 -80 -80 -80h-653zM88 238q0 80 80 80h827q80 0 80 -80v-158q0 -80 -80 -80h-827q-80 0 -80 80v158z" />
    <glyph glyph-name="Omicron" unicode="&#x39f;" horiz-adv-x="1664" 
d="M71 700q0 201 99.5 367t274.5 261.5t387 95.5t387 -95.5t274.5 -261.5t99.5 -367t-99.5 -367t-274.5 -261.5t-387 -95.5t-387 95.5t-274.5 261.5t-99.5 367zM452 700q0 -169 109 -282.5t271 -113.5t271 113.5t109 282.5t-109 282.5t-271 113.5t-271 -113.5t-109 -282.5z
" />
    <glyph glyph-name="Pi" unicode="&#x3a0;" horiz-adv-x="1377" 
d="M1236 80q0 -80 -80 -80h-220q-80 0 -80 80v993h-335v-993q0 -80 -80 -80h-221q-80 0 -80 80v1240q0 80 80 80h936q80 0 80 -80v-1240z" />
    <glyph glyph-name="Rho" unicode="&#x3a1;" horiz-adv-x="1228" 
d="M520 447v-367q0 -80 -80 -80h-220q-80 0 -80 80v1240q0 80 80 80h461q217 0 358 -135t141 -342q0 -206 -141 -341t-358 -135h-161zM632 742q71 0 123.5 52.5t52.5 128.5q0 81 -48 131.5t-128 50.5h-112v-363h112z" />
    <glyph glyph-name="Sigma" unicode="&#x3a3;" horiz-adv-x="1188" 
d="M413 702l-275 290q-39 40 -39 99v229q0 80 80 80h830q80 0 80 -80v-164q0 -80 -80 -80h-494l233 -227q42 -42 42 -99v-98q0 -57 -42 -99l-235 -229h496q80 0 80 -80v-164q0 -80 -80 -80h-830q-80 0 -80 80v229q0 59 39 99z" />
    <glyph glyph-name="Tau" unicode="&#x3a4;" horiz-adv-x="1123" 
d="M371 1073h-246q-80 0 -80 80v167q0 80 80 80h873q80 0 80 -80v-167q0 -80 -80 -80h-246v-993q0 -80 -80 -80h-221q-80 0 -80 80v993z" />
    <glyph glyph-name="Upsilon" unicode="&#x3a5;" horiz-adv-x="1327" 
d="M664 894l203 446q27 60 93 60h239q47 0 63.5 -27t-5.5 -68l-403 -761v-464q0 -80 -80 -80h-221q-80 0 -80 80v464l-403 761q-22 41 -5.5 68t63.5 27h239q66 0 93 -60z" />
    <glyph glyph-name="Phi" unicode="&#x3a6;" horiz-adv-x="1566" 
d="M958 80q0 -80 -80 -80h-191q-80 0 -80 80v112q-237 0 -398.5 146t-161.5 360t161.5 360t398.5 146v116q0 80 80 80h191q80 0 80 -80v-116q237 0 398.5 -146t161.5 -360t-161.5 -360t-398.5 -146v-112zM607 889q-89 0 -149 -55t-60 -136q0 -82 60 -137.5t149 -55.5v384z
M958 505q89 0 149 55.5t60 137.5q0 81 -60 136t-149 55v-384z" />
    <glyph glyph-name="Chi" unicode="&#x3a7;" horiz-adv-x="1317" 
d="M658 975l176 366q28 59 93 59h240q47 0 63 -27t-6 -68l-322 -586l346 -623q23 -42 7 -69t-63 -27h-240q-66 0 -94 58l-200 405l-200 -405q-28 -58 -94 -58h-241q-47 0 -63 27t7 69l347 623l-322 586q-22 41 -6 68t63 27h240q65 0 93 -59z" />
    <glyph glyph-name="Psi" unicode="&#x3a8;" horiz-adv-x="1417" 
d="M872 656q53 33 84.5 87.5t31.5 119.5v457q0 80 80 80h166q80 0 80 -80v-467q0 -190 -123 -335t-319 -193v-245q0 -80 -80 -80h-167q-80 0 -80 80v245q-196 48 -319 193t-123 335v467q0 80 80 80h166q80 0 80 -80v-457q0 -65 31 -119.5t85 -87.5v664q0 80 80 80h167
q80 0 80 -80v-664z" />
    <glyph glyph-name="uni03A9" unicode="&#x3a9;" horiz-adv-x="1628" 
d="M1167 728q0 155 -102 261.5t-251 106.5t-251 -106.5t-102 -261.5q0 -123 58.5 -224.5t166.5 -167.5q57 -36 57 -96v-160q0 -80 -80 -80h-480q-80 0 -80 80v168q0 80 80 80h147q-125 80 -188 193t-63 250q0 180 97 330t266 236.5t372 86.5t372 -86.5t266 -236.5t97 -330
q0 -137 -63 -250t-188 -193h147q80 0 80 -80v-168q0 -80 -80 -80h-480q-80 0 -80 80v160q0 60 60 97q106 66 164 167.5t58 223.5z" />
    <glyph glyph-name="Iotadieresis" unicode="&#x3aa;" horiz-adv-x="666" 
d="M-55 1664q0 74 51 124t127 50q75 0 126 -50t51 -124t-51 -124t-126 -50q-76 0 -127 50t-51 124zM366 1664q0 74 51 124t126 50q76 0 127 -50t51 -124t-51 -124t-127 -50q-75 0 -126 50t-51 124zM523 80q0 -80 -80 -80h-221q-80 0 -80 80v1240q0 80 80 80h221q80 0 80 -80
v-1240z" />
    <glyph glyph-name="Upsilondieresis" unicode="&#x3ab;" horiz-adv-x="1327" 
d="M276 1664q0 74 51 124t127 50q75 0 126 -50t51 -124t-51 -124t-126 -50q-76 0 -127 50t-51 124zM697 1664q0 74 51 124t126 50q76 0 127 -50t51 -124t-51 -124t-127 -50q-75 0 -126 50t-51 124zM664 894l203 446q27 60 93 60h239q47 0 63.5 -27t-5.5 -68l-403 -761v-464
q0 -80 -80 -80h-221q-80 0 -80 80v464l-403 761q-22 41 -5.5 68t63.5 27h239q66 0 93 -60z" />
    <glyph glyph-name="alphatonos" unicode="&#x3ac;" horiz-adv-x="1389" 
d="M691 1181q-53 -53 -113 -6l-45 35q-60 48 -17 112l150 227q22 34 51.5 38.5t60.5 -21.5l100 -82q31 -25 33 -55t-27 -58zM1204 416q0 -96 94 -96q40 0 40 -80v-157q0 -79 -53 -82q-17 -1 -53 -1q-244 0 -319 148q-66 -81 -159.5 -126.5t-204.5 -45.5q-211 0 -352 156
t-141 386q0 150 63.5 274.5t175 196t246.5 71.5q87 0 166 -32t135 -87v15q0 80 80 80h202q80 0 80 -80v-540zM419 518q0 -94 61 -157.5t150 -63.5q90 0 151 63.5t61 157.5q0 93 -61 156.5t-151 63.5q-89 0 -150 -63.5t-61 -156.5z" />
    <glyph glyph-name="epsilontonos" unicode="&#x3ad;" horiz-adv-x="979" 
d="M510 1181q-53 -53 -113 -6l-45 35q-60 48 -17 112l150 227q22 34 51.5 38.5t60.5 -21.5l100 -82q31 -25 33 -55t-27 -58zM588 654q71 0 71 -80v-103q0 -80 -80 -80h-62q-48 0 -80.5 -22t-32.5 -58q0 -35 34.5 -60.5t76.5 -25.5q98 0 191 67q62 47 113 -2l46 -44
q58 -56 4 -113q-154 -157 -363 -157q-199 0 -329 88t-130 223q0 85 57.5 148.5t144.5 92.5q-72 26 -117.5 93t-45.5 147q0 124 118 208t296 84q139 0 238 -65t141 -181q14 -40 -6 -64.5t-64 -24.5h-150q-9 0 -17 1t-15.5 4.5l-12.5 6t-12.5 9.5l-10.5 10l-12.5 13t-12.5 14
q-24 26 -62 26q-34 0 -52.5 -18.5t-18.5 -47.5q0 -39 24 -64t60 -25h71z" />
    <glyph glyph-name="etatonos" unicode="&#x3ae;" horiz-adv-x="1238" 
d="M681 1181q-53 -53 -113 -6l-45 35q-60 48 -17 112l150 227q22 34 51.5 38.5t60.5 -21.5l100 -82q31 -25 33 -55t-27 -58zM488 80q0 -80 -80 -80h-210q-80 0 -80 80v876q0 80 80 80h210q80 0 80 -80v-22q103 126 277 126q162 0 268 -111.5t106 -288.5v-1044q0 -80 -80 -80
h-210q-80 0 -80 80v970q0 69 -37 110.5t-100 41.5t-103.5 -45.5t-40.5 -135.5v-477z" />
    <glyph glyph-name="iotatonos" unicode="&#x3af;" horiz-adv-x="660" 
d="M339 1181q-53 -53 -113 -6l-45 35q-60 48 -17 112l150 227q22 34 51.5 38.5t60.5 -21.5l100 -82q31 -25 33 -55t-27 -58zM115 956q0 80 80 80h210q80 0 80 -80v-540q0 -96 94 -96q40 0 40 -80v-157q0 -79 -58 -82q-19 -1 -58 -1q-199 0 -293.5 83t-94.5 250v623z" />
    <glyph glyph-name="upsilondieresistonos" unicode="&#x3b0;" horiz-adv-x="1181" 
d="M505 1472q-51 57 0 113l107 117q27 30 57 29.5t56 -31.5l47 -55q26 -31 22 -60t-37 -52l-127 -88q-62 -43 -112 13zM240 1277q0 63 46 106.5t113 43.5q68 0 113.5 -43.5t45.5 -106.5t-45.5 -106t-113.5 -43q-67 0 -113 43.5t-46 105.5zM623 1277q0 63 46 106.5t113 43.5
t113 -43.5t46 -106.5q0 -62 -46 -105.5t-113 -43.5t-113 43.5t-46 105.5zM591 -24q-136 0 -249 57t-178 156.5t-65 218.5v548q0 80 80 80h209q80 0 80 -80v-529q0 -56 35 -93t88 -37t87.5 37t34.5 93v529q0 80 80 80h210q80 0 80 -80v-548q0 -181 -143 -306.5t-349 -125.5z
" />
    <glyph glyph-name="alpha" unicode="&#x3b1;" horiz-adv-x="1389" 
d="M1204 416q0 -96 94 -96q40 0 40 -80v-157q0 -79 -53 -82q-17 -1 -53 -1q-244 0 -319 148q-66 -81 -159.5 -126.5t-204.5 -45.5q-211 0 -352 156t-141 386q0 150 63.5 274.5t175 196t246.5 71.5q87 0 166 -32t135 -87v15q0 80 80 80h202q80 0 80 -80v-540zM419 518
q0 -94 61 -157.5t150 -63.5q90 0 151 63.5t61 157.5q0 93 -61 156.5t-151 63.5q-89 0 -150 -63.5t-61 -156.5z" />
    <glyph glyph-name="beta" unicode="&#x3b2;" horiz-adv-x="1228" 
d="M575 273q24 70 94 49q38 -11 72 -11q50 0 80.5 42t30.5 112q0 64 -38 109t-95 45q-8 0 -20 2t-37 13.5t-35 30.5l-39 72q-30 52 -2 109l126 251h-228v-1481q0 -80 -80 -80h-195q-80 0 -80 80v1704q0 80 80 80h750q80 0 80 -80v-159q0 -53 -25 -99l-121 -223
q125 -40 202.5 -155t77.5 -291q0 -201 -99.5 -308.5t-249.5 -107.5q-138 0 -255 89q-50 39 -28 106z" />
    <glyph glyph-name="gamma" unicode="&#x3b3;" horiz-adv-x="1111" 
d="M371 3l-323 942q-14 41 4 66t62 25h218q71 0 89 -69l134 -512l134 512q18 69 89 69h219q44 0 62 -25t4 -66l-323 -942v-387q0 -80 -80 -80h-209q-80 0 -80 80v387z" />
    <glyph glyph-name="delta" unicode="&#x3b4;" horiz-adv-x="1153" 
d="M575 -24q-141 0 -260 60.5t-189.5 168.5t-70.5 239q0 160 105.5 283.5t273.5 164.5l-199 203q-40 41 -40 99v126q0 80 80 80h611q80 0 80 -80v-158q0 -80 -80 -80h-241l321 -326q130 -133 130 -312q0 -131 -70.5 -239t-189.5 -168.5t-261 -60.5zM418 444q0 -67 45.5 -112
t112.5 -45t112.5 45t45.5 112q0 66 -45.5 111t-112.5 45t-112.5 -45t-45.5 -111z" />
    <glyph glyph-name="epsilon" unicode="&#x3b5;" horiz-adv-x="979" 
d="M588 654q71 0 71 -80v-103q0 -80 -80 -80h-62q-48 0 -80.5 -22t-32.5 -58q0 -35 34.5 -60.5t76.5 -25.5q98 0 191 67q62 47 113 -2l46 -44q58 -56 4 -113q-154 -157 -363 -157q-199 0 -329 88t-130 223q0 85 57.5 148.5t144.5 92.5q-72 26 -117.5 93t-45.5 147
q0 124 118 208t296 84q139 0 238 -65t141 -181q14 -40 -6 -64.5t-64 -24.5h-150q-9 0 -17 1t-15.5 4.5l-12.5 6t-12.5 9.5l-10.5 10l-12.5 13t-12.5 14q-24 26 -62 26q-34 0 -52.5 -18.5t-18.5 -47.5q0 -39 24 -64t60 -25h71z" />
    <glyph glyph-name="zeta" unicode="&#x3b6;" horiz-adv-x="964" 
d="M48 364q0 178 180 389l278 330h-276q-80 0 -80 80v157q0 80 80 80h612q80 0 80 -80v-157q0 -56 -35 -99l-365 -454q-98 -123 -98 -230q0 -116 111 -179l225 -128q80 -45 121 -119.5t41 -162.5q0 -104 -60 -204q-31 -51 -96 -51h-198q-92 0 -52 91q30 66 30 123
q0 45 -22 81.5t-60 57.5l-168 92q-118 64 -183 162.5t-65 220.5z" />
    <glyph glyph-name="eta" unicode="&#x3b7;" horiz-adv-x="1238" 
d="M488 80q0 -80 -80 -80h-210q-80 0 -80 80v876q0 80 80 80h210q80 0 80 -80v-22q103 126 277 126q162 0 268 -111.5t106 -288.5v-1044q0 -80 -80 -80h-210q-80 0 -80 80v970q0 69 -37 110.5t-100 41.5t-103.5 -45.5t-40.5 -135.5v-477z" />
    <glyph glyph-name="theta" unicode="&#x3b8;" horiz-adv-x="1299" 
d="M50 700q0 198 77.5 364t215.5 263t307 97q168 0 306.5 -97t216 -263t77.5 -364t-77.5 -364t-216 -263t-306.5 -97q-169 0 -307 97t-215.5 263t-77.5 364zM650 1119q-82 0 -141.5 -76t-81.5 -200h445q-22 124 -81.5 200t-140.5 76zM650 281q81 0 140.5 76t81.5 200h-445
q22 -124 81.5 -200t141.5 -76z" />
    <glyph glyph-name="iota" unicode="&#x3b9;" horiz-adv-x="660" 
d="M115 956q0 80 80 80h210q80 0 80 -80v-540q0 -96 94 -96q40 0 40 -80v-157q0 -79 -58 -82q-19 -1 -58 -1q-199 0 -293.5 83t-94.5 250v623z" />
    <glyph glyph-name="kappa" unicode="&#x3ba;" horiz-adv-x="1139" 
d="M994 1036q39 0 60 -21.5t19 -61.5q-18 -318 -180 -450l190 -409q19 -41 2.5 -67.5t-62.5 -26.5h-224q-67 0 -92 62l-140 341h-79v-323q0 -80 -80 -80h-209q-80 0 -80 80v876q0 80 80 80h209q80 0 80 -80v-237h51q144 0 164 234q6 83 81 83h210z" />
    <glyph glyph-name="lambda" unicode="&#x3bb;" horiz-adv-x="1110" 
d="M776 0q-69 0 -89 68l-133 473l-132 -473q-20 -68 -89 -68h-220q-44 0 -61.5 25.5t-3.5 66.5l324 924l-147 351q-17 42 0 67.5t62 25.5h219q69 0 91 -64l463 -1304q15 -41 -2.5 -66.5t-61.5 -25.5h-220z" />
    <glyph glyph-name="uni03BC" unicode="&#x3bc;" horiz-adv-x="1258" 
d="M769 956q0 80 80 80h210q80 0 80 -80v-876q0 -80 -80 -80h-210q-80 0 -80 80v20q-96 -114 -281 -114v-370q0 -80 -80 -80h-210q-80 0 -80 80v1340q0 80 80 80h210q80 0 80 -80v-511q0 -68 37 -108t100 -40t103.5 45.5t40.5 135.5v478z" />
    <glyph glyph-name="nu" unicode="&#x3bd;" horiz-adv-x="1110" 
d="M998 1036q43 0 61.5 -25t4.5 -66l-280 -879q-21 -66 -90 -66h-279q-69 0 -90 66l-280 879q-14 41 4.5 66t61.5 25h220q72 0 89 -70l135 -565l134 565q17 70 89 70h220z" />
    <glyph glyph-name="xi" unicode="&#x3be;" horiz-adv-x="973" 
d="M350 -86q-141 52 -224 172.5t-83 263.5q0 135 75 246.5t196 159.5q-100 44 -154.5 126.5t-54.5 183.5q0 151 123.5 254.5t304.5 103.5q167 0 278.5 -86t136.5 -235q7 -39 -14 -61t-62 -22h-147q-22 0 -38.5 9.5t-24 19.5t-24.5 37q-29 43 -83 43q-45 0 -73.5 -33.5
t-28.5 -85.5q0 -54 34 -91t91 -37h131q80 0 80 -80v-141q0 -80 -80 -80h-81q-87 0 -148 -59.5t-61 -150.5q0 -62 35.5 -112.5t102.5 -75.5l120 -45q110 -41 175 -128t65 -195q0 -115 -62 -227q-29 -52 -95 -52h-197q-46 0 -58.5 24t7.5 67q28 62 28 120q0 45 -23.5 79.5
t-64.5 49.5z" />
    <glyph glyph-name="omicron" unicode="&#x3bf;" horiz-adv-x="1283" 
d="M56 518q0 150 76.5 274.5t211 196t297.5 71.5q249 0 417 -156.5t168 -385.5t-168 -385.5t-417 -156.5q-163 0 -297.5 71.5t-211 196t-76.5 274.5zM419 518q0 -94 63 -157.5t159 -63.5t159.5 63.5t63.5 157.5t-63.5 157.5t-159.5 63.5t-159 -63.5t-63 -157.5z" />
    <glyph glyph-name="pi" unicode="&#x3c0;" horiz-adv-x="1175" 
d="M502 80q0 -80 -80 -80h-203q-80 0 -80 80v635h-27q-80 0 -80 80v161q0 80 80 80h952q80 0 80 -80v-161q0 -80 -80 -80h-28v-635q0 -80 -80 -80h-203q-80 0 -80 80v635h-171v-635z" />
    <glyph glyph-name="rho" unicode="&#x3c1;" horiz-adv-x="1302" 
d="M99 518q0 149 75 273.5t207 196.5t292 72q159 0 291 -72t207 -196.5t75 -273.5t-76 -274.5t-201 -196.5t-268 -71q-152 0 -242 83v-443q0 -80 -80 -80h-200q-80 0 -80 80v902zM459 403q35 -48 90 -77t118 -29q92 0 154 63.5t62 157.5t-60.5 157.5t-151.5 63.5
t-151.5 -63.5t-60.5 -157.5v-115z" />
    <glyph glyph-name="uni03C2" unicode="&#x3c2;" horiz-adv-x="1092" 
d="M425 518q0 -188 180 -274l168 -80q116 -55 177.5 -146t61.5 -204q0 -114 -56 -224q-28 -54 -95 -54h-193q-92 0 -52 91q29 64 29 120q0 101 -97 146l-163 75q-159 73 -244 215.5t-85 334.5q0 150 76.5 274.5t211 196t297.5 71.5q198 0 352 -105q63 -44 18 -111l-85 -129
q-40 -62 -110 -23q-84 47 -169 47q-96 0 -159 -63.5t-63 -157.5z" />
    <glyph glyph-name="sigma" unicode="&#x3c3;" horiz-adv-x="1336" 
d="M56 506q0 146 76 268t207.5 192t289.5 70h587q80 0 80 -80v-161q0 -80 -80 -80h-124q51 -43 80.5 -108t29.5 -136q0 -93 -43.5 -182.5t-117.5 -158.5t-182.5 -111.5t-229.5 -42.5q-158 0 -289.5 70t-207.5 192t-76 268zM418 506q0 -88 61 -148.5t150 -60.5q90 0 151 60
t61 149t-61 149t-151 60q-89 0 -150 -60.5t-61 -148.5z" />
    <glyph glyph-name="tau" unicode="&#x3c4;" horiz-adv-x="995" 
d="M302 714h-193q-80 0 -80 80v162q0 80 80 80h776q80 0 80 -80v-162q0 -80 -80 -80h-214v-284q0 -111 105 -111q45 0 45 -80v-157q0 -79 -58 -81q-19 -1 -58 -1q-210 0 -306.5 88.5t-96.5 274.5v351z" />
    <glyph glyph-name="upsilon" unicode="&#x3c5;" horiz-adv-x="1181" 
d="M591 -24q-136 0 -249 57t-178 156.5t-65 218.5v548q0 80 80 80h209q80 0 80 -80v-529q0 -56 35 -93t88 -37t87.5 37t34.5 93v529q0 80 80 80h210q80 0 80 -80v-548q0 -181 -143 -306.5t-349 -125.5z" />
    <glyph glyph-name="phi" unicode="&#x3c6;" horiz-adv-x="1418" 
d="M421 780q46 -49 0 -112q-50 -69 -50 -150q0 -82 52 -144t135 -82v688q0 80 80 80h146q160 0 293 -72t208.5 -196.5t75.5 -273.5q0 -208 -141 -359.5t-356 -177.5v-365q0 -80 -80 -80h-146q-80 0 -80 80v365q-217 25 -359.5 176.5t-142.5 360.5q0 216 152 373
q55 56 113 -5zM1047 518q0 80 -51 141.5t-132 82.5v-449q81 21 132 82.5t51 142.5z" />
    <glyph glyph-name="chi" unicode="&#x3c7;" horiz-adv-x="1114" 
d="M790 305l273 -676q17 -41 0 -67t-62 -26h-220q-69 0 -91 65l-133 393l-134 -393q-22 -65 -91 -65h-219q-45 0 -62 26t0 67l273 676l-254 638q-17 41 0.5 67t62.5 26h219q69 0 91 -65l114 -342l113 342q22 65 91 65h220q45 0 62.5 -26t0.5 -67z" />
    <glyph glyph-name="psi" unicode="&#x3c8;" horiz-adv-x="1394" 
d="M98 956q0 80 80 80h155q80 0 80 -80v-438q0 -63 35 -114t95 -79v631q0 80 80 80h147q80 0 80 -80v-631q60 28 95 79t35 114v438q0 80 80 80h155q80 0 80 -80v-470q0 -181 -124.5 -316.5t-320.5 -176.5v-377q0 -80 -80 -80h-147q-80 0 -80 80v377q-197 41 -321 176.5
t-124 316.5v470z" />
    <glyph glyph-name="omega" unicode="&#x3c9;" horiz-adv-x="1633" 
d="M816 167q-46 -84 -132.5 -137.5t-189.5 -53.5q-121 0 -221.5 70t-158.5 192t-58 270q0 234 145 476q31 52 95 52h192q47 0 61.5 -26t-7.5 -69q-119 -231 -119 -433q0 -77 30 -144t76 -67q55 0 80 79.5t25 208.5v153q0 80 80 80h204q80 0 80 -80v-153q0 -129 25 -208.5
t80 -79.5q47 0 76.5 59.5t29.5 151.5q0 202 -119 433q-22 43 -7.5 69t61.5 26h192q64 0 95 -52q145 -242 145 -476q0 -148 -58 -270t-158.5 -192t-221.5 -70q-103 0 -189.5 53.5t-132.5 137.5z" />
    <glyph glyph-name="iotadieresis" unicode="&#x3ca;" horiz-adv-x="660" 
d="M-88 1340q0 74 51 124t127 50q75 0 126 -50t51 -124t-51 -124t-126 -50q-76 0 -127 50t-51 124zM333 1340q0 74 51 124t126 50q76 0 127 -50t51 -124t-51 -124t-127 -50q-75 0 -126 50t-51 124zM115 956q0 80 80 80h210q80 0 80 -80v-540q0 -96 94 -96q40 0 40 -80v-157
q0 -79 -58 -82q-19 -1 -58 -1q-199 0 -293.5 83t-94.5 250v623z" />
    <glyph glyph-name="upsilondieresis" unicode="&#x3cb;" horiz-adv-x="1181" 
d="M203 1340q0 74 51 124t127 50q75 0 126 -50t51 -124t-51 -124t-126 -50q-76 0 -127 50t-51 124zM624 1340q0 74 51 124t126 50q76 0 127 -50t51 -124t-51 -124t-127 -50q-75 0 -126 50t-51 124zM591 -24q-136 0 -249 57t-178 156.5t-65 218.5v548q0 80 80 80h209
q80 0 80 -80v-529q0 -56 35 -93t88 -37t87.5 37t34.5 93v529q0 80 80 80h210q80 0 80 -80v-548q0 -181 -143 -306.5t-349 -125.5z" />
    <glyph glyph-name="omicrontonos" unicode="&#x3cc;" horiz-adv-x="1283" 
d="M702 1181q-53 -53 -113 -6l-45 35q-60 48 -17 112l150 227q22 34 51.5 38.5t60.5 -21.5l100 -82q31 -25 33 -55t-27 -58zM56 518q0 150 76.5 274.5t211 196t297.5 71.5q249 0 417 -156.5t168 -385.5t-168 -385.5t-417 -156.5q-163 0 -297.5 71.5t-211 196t-76.5 274.5z
M419 518q0 -94 63 -157.5t159 -63.5t159.5 63.5t63.5 157.5t-63.5 157.5t-159.5 63.5t-159 -63.5t-63 -157.5z" />
    <glyph glyph-name="upsilontonos" unicode="&#x3cd;" horiz-adv-x="1181" 
d="M647 1181q-53 -53 -113 -6l-45 35q-60 48 -17 112l150 227q22 34 51.5 38.5t60.5 -21.5l100 -82q31 -25 33 -55t-27 -58zM591 -24q-136 0 -249 57t-178 156.5t-65 218.5v548q0 80 80 80h209q80 0 80 -80v-529q0 -56 35 -93t88 -37t87.5 37t34.5 93v529q0 80 80 80h210
q80 0 80 -80v-548q0 -181 -143 -306.5t-349 -125.5z" />
    <glyph glyph-name="omegatonos" unicode="&#x3ce;" horiz-adv-x="1633" 
d="M881 1181q-53 -53 -113 -6l-45 35q-60 48 -17 112l150 227q22 34 51.5 38.5t60.5 -21.5l100 -82q31 -25 33 -55t-27 -58zM816 167q-46 -84 -132.5 -137.5t-189.5 -53.5q-121 0 -221.5 70t-158.5 192t-58 270q0 234 145 476q31 52 95 52h192q47 0 61.5 -26t-7.5 -69
q-119 -231 -119 -433q0 -77 30 -144t76 -67q55 0 80 79.5t25 208.5v153q0 80 80 80h204q80 0 80 -80v-153q0 -129 25 -208.5t80 -79.5q47 0 76.5 59.5t29.5 151.5q0 202 -119 433q-22 43 -7.5 69t61.5 26h192q64 0 95 -52q145 -242 145 -476q0 -148 -58 -270t-158.5 -192
t-221.5 -70q-103 0 -189.5 53.5t-132.5 137.5z" />
    <glyph glyph-name="uni0400" unicode="&#x400;" horiz-adv-x="1158" 
d="M329 1695q-29 28 -27 58t33 55l100 82q31 26 60.5 21.5t51.5 -38.5l150 -227q42 -64 -18 -112l-44 -35q-60 -47 -113 6zM140 1320q0 80 80 80h752q80 0 80 -80v-158q0 -80 -80 -80h-451v-222h403q80 0 80 -80v-152q0 -80 -80 -80h-403v-230h469q80 0 80 -80v-158
q0 -80 -80 -80h-770q-80 0 -80 80v1240z" />
    <glyph glyph-name="uni0401" unicode="&#x401;" horiz-adv-x="1158" 
d="M215 1664q0 74 51 124t127 50q75 0 126 -50t51 -124t-51 -124t-126 -50q-76 0 -127 50t-51 124zM636 1664q0 74 51 124t126 50q76 0 127 -50t51 -124t-51 -124t-127 -50q-75 0 -126 50t-51 124zM140 1320q0 80 80 80h752q80 0 80 -80v-158q0 -80 -80 -80h-451v-222h403
q80 0 80 -80v-152q0 -80 -80 -80h-403v-230h469q80 0 80 -80v-158q0 -80 -80 -80h-770q-80 0 -80 80v1240z" />
    <glyph glyph-name="uni0402" unicode="&#x402;" horiz-adv-x="1467" 
d="M994 -4h-44q-78 2 -78 82v155q0 80 40 80q51 0 84.5 31t33.5 78v39q0 40 -42 75.5t-88 35.5q-61 0 -105 -46t-44 -113v-333q0 -80 -80 -80h-220q-80 0 -80 80v1001h-247q-80 0 -80 80v159q0 80 80 80h874q80 0 80 -80v-159q0 -80 -80 -80h-247v-279q93 98 247 98
q179 0 296 -114t117 -288v-109q0 -166 -120.5 -279.5t-296.5 -113.5z" />
    <glyph glyph-name="uni0403" unicode="&#x403;" horiz-adv-x="1056" 
d="M581 1518q-53 -53 -113 -6l-45 35q-60 48 -17 112l150 227q22 34 51.5 38.5t60.5 -21.5l100 -82q31 -25 33 -55t-27 -58zM140 1320q0 80 80 80h731q80 0 80 -80v-167q0 -80 -80 -80h-430v-993q0 -80 -80 -80h-221q-80 0 -80 80v1240z" />
    <glyph glyph-name="uni0404" unicode="&#x404;" horiz-adv-x="1514" 
d="M798 -24q-202 0 -369.5 95.5t-263 261.5t-95.5 367q0 151 55 285t151 230.5t231.5 152.5t290.5 56q221 0 386 -114.5t235 -322.5q13 -41 -6.5 -65.5t-62.5 -24.5h-241q-61 0 -92 63q-34 64 -93 99.5t-132 35.5q-117 0 -202.5 -70.5t-118.5 -187.5h453q80 0 80 -80v-115
q0 -80 -80 -80h-452q34 -117 125 -187.5t215 -70.5q214 0 362 158q52 57 112 13l81 -60q63 -47 24 -106q-221 -333 -593 -333z" />
    <glyph glyph-name="uni0405" unicode="&#x405;" horiz-adv-x="1206" 
d="M196 384q50 56 113 9q140 -104 294 -104q73 0 118 32t45 82q0 54 -50.5 91.5t-189.5 67.5q-193 42 -306 153.5t-113 273.5q0 189 137 312t356 123q195 0 333 -95.5t173 -264.5q9 -40 -12 -62.5t-62 -22.5h-208q-33 0 -52 16t-36 52q-35 70 -119 70q-58 0 -93.5 -27.5
t-35.5 -69.5q0 -51 47 -90.5t166 -66.5q217 -50 331.5 -158.5t114.5 -277.5q0 -194 -143.5 -322.5t-377.5 -128.5q-277 0 -483 237q-47 56 2 113z" />
    <glyph glyph-name="uni0406" unicode="&#x406;" horiz-adv-x="666" 
d="M523 80q0 -80 -80 -80h-221q-80 0 -80 80v1240q0 80 80 80h221q80 0 80 -80v-1240z" />
    <glyph glyph-name="uni0407" unicode="&#x407;" horiz-adv-x="666" 
d="M-55 1664q0 74 51 124t127 50q75 0 126 -50t51 -124t-51 -124t-126 -50q-76 0 -127 50t-51 124zM366 1664q0 74 51 124t126 50q76 0 127 -50t51 -124t-51 -124t-127 -50q-75 0 -126 50t-51 124zM523 80q0 -80 -80 -80h-221q-80 0 -80 80v1240q0 80 80 80h221q80 0 80 -80
v-1240z" />
    <glyph glyph-name="uni0408" unicode="&#x408;" horiz-adv-x="943" 
d="M436 1320q0 80 80 80h220q80 0 80 -80v-874q0 -229 -118.5 -349.5t-303.5 -120.5q-176 0 -320 90q-59 37 -32 107l41 105q27 69 103 43q49 -17 97 -17q70 0 111.5 45.5t41.5 126.5v844z" />
    <glyph glyph-name="uni0409" unicode="&#x409;" horiz-adv-x="2057" 
d="M1297 907h206q219 0 362.5 -129.5t143.5 -324.5t-143.5 -324t-362.5 -129h-507q-80 0 -80 80v993h-317v-687q0 -390 -472 -390h-24q-78 2 -78 82v165q0 80 56 80q138 0 138 156v841q0 80 80 80h918q80 0 80 -80v-413zM1628 453q0 67 -41.5 108t-112.5 41h-177v-297h177
q71 0 112.5 40.5t41.5 107.5z" />
    <glyph glyph-name="uni040A" unicode="&#x40a;" horiz-adv-x="2044" 
d="M1284 907h205q219 0 363 -129.5t144 -324.5t-144 -324t-363 -129h-506q-80 0 -80 80v460h-382v-460q0 -80 -80 -80h-221q-80 0 -80 80v1240q0 80 80 80h221q80 0 80 -80v-452h382v452q0 80 80 80h221q80 0 80 -80v-413zM1615 453q0 67 -42 108t-112 41h-177v-297h177
q71 0 112.5 40.5t41.5 107.5z" />
    <glyph glyph-name="uni040B" unicode="&#x40b;" horiz-adv-x="1510" 
d="M751 80q0 -80 -80 -80h-220q-80 0 -80 80v1001h-247q-80 0 -80 80v159q0 80 80 80h874q80 0 80 -80v-159q0 -80 -80 -80h-247v-305q101 124 282 124q162 0 270 -111.5t108 -288.5v-420q0 -80 -80 -80h-221q-80 0 -80 80v346q0 70 -33.5 111t-96.5 41q-69 0 -109 -47.5
t-40 -137.5v-313z" />
    <glyph glyph-name="uni040C" unicode="&#x40c;" horiz-adv-x="1287" 
d="M682 1505q-53 -53 -113 -6l-45 35q-60 48 -17 112l150 227q22 34 51.5 38.5t60.5 -21.5l100 -82q31 -25 33 -55t-27 -58zM1147 1400q39 0 59.5 -21t19.5 -61q-17 -459 -236 -632l291 -591q20 -42 3.5 -68.5t-62.5 -26.5h-236q-65 0 -93 59l-247 512h-125v-491
q0 -80 -80 -80h-221q-80 0 -80 80v1240q0 80 80 80h221q80 0 80 -80v-421h49q132 0 199 98t77 320q5 83 81 83h220z" />
    <glyph glyph-name="uni040D" unicode="&#x40d;" horiz-adv-x="1429" 
d="M480 1695q-29 28 -27 58t33 55l100 82q31 26 60.5 21.5t51.5 -38.5l150 -227q42 -64 -18 -112l-44 -35q-60 -47 -113 6zM1288 80q0 -80 -80 -80h-188q-80 0 -80 80v775l-364 -795q-27 -60 -93 -60h-263q-80 0 -80 80v1240q0 80 80 80h189q80 0 80 -80v-775l364 795
q27 60 93 60h262q80 0 80 -80v-1240z" />
    <glyph glyph-name="uni040E" unicode="&#x40e;" horiz-adv-x="1328" 
d="M665 1488q-127 0 -229 62.5t-138 165.5q-14 39 7.5 62.5t64.5 23.5h132q8 0 15.5 -1.5t13 -2.5t12 -5.5l9.5 -6.5t9.5 -9.5t9 -10t10 -12.5t10.5 -13q29 -32 74 -32t74 32q3 3 10.5 13t10 12.5t9 10t9.5 9.5l9.5 6.5t12 5.5t13 2.5t15.5 1.5h132q42 0 64 -21.5t11 -57.5
q-34 -105 -138 -170t-232 -65zM776 242q-111 -242 -368 -242h-146q-80 0 -80 80v167q0 80 80 80h52q79 0 111 68l31 64l-392 847q-19 41 -2.5 67.5t62.5 26.5h241q67 0 92 -62l208 -517l206 517q25 62 92 62h242q46 0 62.5 -26.5t-2.5 -67.5z" />
    <glyph glyph-name="uni040F" unicode="&#x40f;" horiz-adv-x="1377" 
d="M1236 80q0 -80 -80 -80h-278v-200q0 -80 -80 -80h-220q-80 0 -80 80v200h-278q-80 0 -80 80v1240q0 80 80 80h220q80 0 80 -80v-993h335v993q0 80 80 80h221q80 0 80 -80v-1240z" />
    <glyph glyph-name="uni0410" unicode="&#x410;" horiz-adv-x="1397" 
d="M836 1400q69 0 91 -65l418 -1244q14 -41 -3.5 -66t-61.5 -25h-225q-71 0 -90 67l-58 201h-419l-58 -201q-19 -67 -89 -67h-225q-44 0 -61.5 25t-3.5 66l418 1244q22 65 91 65h276zM568 557h260l-130 449z" />
    <glyph glyph-name="uni0411" unicode="&#x411;" horiz-adv-x="1283" 
d="M140 1320q0 80 80 80h794q80 0 80 -80v-145q0 -80 -80 -80h-494v-188h206q219 0 363 -129.5t144 -324.5t-144 -324t-363 -129h-506q-80 0 -80 80v1240zM851 453q0 76 -48 112.5t-133 36.5h-150v-298h150q181 0 181 149z" />
    <glyph glyph-name="uni0412" unicode="&#x412;" horiz-adv-x="1264" 
d="M220 0q-80 0 -80 80v1240q0 80 80 80h477q196 0 315.5 -105.5t119.5 -274.5q0 -98 -49 -176t-131 -111q111 -30 177.5 -116.5t66.5 -207.5q0 -178 -124 -293.5t-316 -115.5h-536zM790 978q0 58 -33.5 91.5t-86.5 33.5h-164v-249h164q53 0 86.5 33.5t33.5 90.5zM824 432
q0 60 -36.5 98t-93.5 38h-188v-271h188q57 0 93.5 37.5t36.5 97.5z" />
    <glyph glyph-name="uni0413" unicode="&#x413;" horiz-adv-x="1056" 
d="M140 1320q0 80 80 80h731q80 0 80 -80v-167q0 -80 -80 -80h-430v-993q0 -80 -80 -80h-221q-80 0 -80 80v1240z" />
    <glyph glyph-name="uni0414" unicode="&#x414;" horiz-adv-x="1386" 
d="M1341 -200q0 -80 -80 -80h-205q-80 0 -80 80v200h-566v-200q0 -80 -80 -80h-205q-80 0 -80 80v417q0 80 80 80h18q152 347 152 830v193q0 80 80 80h755q80 0 80 -80v-1023h51q80 0 80 -80v-417zM845 297v806h-189q0 -479 -128 -806h317z" />
    <glyph glyph-name="uni0415" unicode="&#x415;" horiz-adv-x="1158" 
d="M140 1320q0 80 80 80h752q80 0 80 -80v-158q0 -80 -80 -80h-451v-222h403q80 0 80 -80v-152q0 -80 -80 -80h-403v-230h469q80 0 80 -80v-158q0 -80 -80 -80h-770q-80 0 -80 80v1240z" />
    <glyph glyph-name="uni0416" unicode="&#x416;" horiz-adv-x="1876" 
d="M1727 1400q39 0 60 -21t20 -61q-18 -464 -241 -637l288 -587q20 -41 3.5 -67.5t-62.5 -26.5h-235q-65 0 -93 59l-247 512h-92v-491q0 -80 -80 -80h-221q-80 0 -80 80v491h-92l-247 -512q-28 -59 -93 -59h-235q-46 0 -62.5 26.5t3.5 67.5l288 587q-224 173 -242 637
q-1 40 20 61t60 21h221q76 0 81 -83q10 -223 76.5 -321t198.5 -98h23v422q0 80 80 80h221q80 0 80 -80v-422h22q135 0 199.5 97.5t75.5 322.5q5 82 82 82h220z" />
    <glyph glyph-name="uni0417" unicode="&#x417;" horiz-adv-x="1084" 
d="M467 890q60 0 103 38.5t43 88.5q0 48 -35.5 79t-90.5 31q-74 0 -115 -57q-16 -24 -25 -34.5t-25 -19.5t-38 -9h-142q-41 0 -62 22.5t-13 61.5q30 151 151.5 242t295.5 91q190 0 318 -107t128 -264q0 -98 -53 -182.5t-147 -128.5q118 -42 192 -135.5t74 -213.5
q0 -128 -64 -224t-173.5 -144.5t-248.5 -48.5q-132 0 -251.5 54.5t-211.5 163.5q-48 57 8 113l46 45q51 51 113 3q108 -83 241 -83q69 0 116 44.5t47 114.5q0 77 -49 117t-140 40h-75q-80 0 -80 80v142q0 80 80 80h83z" />
    <glyph glyph-name="uni0418" unicode="&#x418;" horiz-adv-x="1429" 
d="M1288 80q0 -80 -80 -80h-188q-80 0 -80 80v775l-364 -795q-27 -60 -93 -60h-263q-80 0 -80 80v1240q0 80 80 80h189q80 0 80 -80v-775l364 795q27 60 93 60h262q80 0 80 -80v-1240z" />
    <glyph glyph-name="uni0419" unicode="&#x419;" horiz-adv-x="1429" 
d="M714 1488q-127 0 -229 62.5t-138 165.5q-14 39 7.5 62.5t64.5 23.5h132q8 0 15.5 -1.5t13 -2.5t12 -5.5l9.5 -6.5t9.5 -9.5t9 -10t10 -12.5t10.5 -13q29 -32 74 -32t74 32q3 3 10.5 13t10 12.5t9 10t9.5 9.5l9.5 6.5t12 5.5t13 2.5t15.5 1.5h132q42 0 64 -21.5t11 -57.5
q-34 -105 -138 -170t-232 -65zM1288 80q0 -80 -80 -80h-188q-80 0 -80 80v775l-364 -795q-27 -60 -93 -60h-263q-80 0 -80 80v1240q0 80 80 80h189q80 0 80 -80v-775l364 795q27 60 93 60h262q80 0 80 -80v-1240z" />
    <glyph glyph-name="uni041A" unicode="&#x41a;" horiz-adv-x="1287" 
d="M1147 1400q39 0 59.5 -21t19.5 -61q-17 -459 -236 -632l291 -591q20 -42 3.5 -68.5t-62.5 -26.5h-236q-65 0 -93 59l-247 512h-125v-491q0 -80 -80 -80h-221q-80 0 -80 80v1240q0 80 80 80h221q80 0 80 -80v-421h49q132 0 199 98t77 320q5 83 81 83h220z" />
    <glyph glyph-name="uni041B" unicode="&#x41b;" horiz-adv-x="1469" 
d="M1328 80q0 -80 -80 -80h-221q-80 0 -80 80v992h-348v-686q0 -390 -472 -390h-25q-78 3 -78 82v165q0 80 56 80q138 0 138 156v841q0 80 80 80h950q80 0 80 -80v-1240z" />
    <glyph glyph-name="uni041C" unicode="&#x41c;" horiz-adv-x="1733" 
d="M857 218q-65 0 -94 59l-274 563v-760q0 -80 -80 -80h-189q-80 0 -80 80v1240q0 80 80 80h252q65 0 93 -59l335 -696l334 696q27 59 93 59h252q80 0 80 -80v-1240q0 -80 -80 -80h-188q-80 0 -80 80v760l-275 -563q-29 -59 -94 -59h-85z" />
    <glyph glyph-name="uni041D" unicode="&#x41d;" horiz-adv-x="1429" 
d="M140 1320q0 80 80 80h221q80 0 80 -80v-452h387v452q0 80 80 80h220q80 0 80 -80v-1240q0 -80 -80 -80h-220q-80 0 -80 80v460h-387v-460q0 -80 -80 -80h-221q-80 0 -80 80v1240z" />
    <glyph glyph-name="uni041E" unicode="&#x41e;" horiz-adv-x="1664" 
d="M71 700q0 201 99.5 367t274.5 261.5t387 95.5t387 -95.5t274.5 -261.5t99.5 -367t-99.5 -367t-274.5 -261.5t-387 -95.5t-387 95.5t-274.5 261.5t-99.5 367zM452 700q0 -169 109 -282.5t271 -113.5t271 113.5t109 282.5t-109 282.5t-271 113.5t-271 -113.5t-109 -282.5z
" />
    <glyph glyph-name="uni041F" unicode="&#x41f;" horiz-adv-x="1377" 
d="M1236 80q0 -80 -80 -80h-220q-80 0 -80 80v993h-335v-993q0 -80 -80 -80h-221q-80 0 -80 80v1240q0 80 80 80h936q80 0 80 -80v-1240z" />
    <glyph glyph-name="uni0420" unicode="&#x420;" horiz-adv-x="1228" 
d="M520 447v-367q0 -80 -80 -80h-220q-80 0 -80 80v1240q0 80 80 80h461q217 0 358 -135t141 -342q0 -206 -141 -341t-358 -135h-161zM632 742q71 0 123.5 52.5t52.5 128.5q0 81 -48 131.5t-128 50.5h-112v-363h112z" />
    <glyph glyph-name="uni0421" unicode="&#x421;" horiz-adv-x="1514" 
d="M805 -24q-206 0 -374.5 95.5t-264.5 261.5t-96 367q0 205 90 370t254 259.5t371 94.5q225 0 394.5 -114.5t239.5 -322.5q13 -41 -6.5 -65.5t-62.5 -24.5h-241q-61 0 -92 63q-34 64 -93 99.5t-132 35.5q-153 0 -246.5 -111.5t-93.5 -283.5q0 -171 101.5 -283.5
t258.5 -112.5q214 0 362 158q52 57 112 13l81 -60q62 -47 23 -108q-221 -331 -585 -331z" />
    <glyph glyph-name="uni0422" unicode="&#x422;" horiz-adv-x="1123" 
d="M371 1073h-246q-80 0 -80 80v167q0 80 80 80h873q80 0 80 -80v-167q0 -80 -80 -80h-246v-993q0 -80 -80 -80h-221q-80 0 -80 80v993z" />
    <glyph glyph-name="uni0423" unicode="&#x423;" horiz-adv-x="1328" 
d="M776 242q-111 -242 -368 -242h-146q-80 0 -80 80v167q0 80 80 80h52q79 0 111 68l31 64l-392 847q-19 41 -2.5 67.5t62.5 26.5h241q67 0 92 -62l208 -517l206 517q25 62 92 62h242q46 0 62.5 -26.5t-2.5 -67.5z" />
    <glyph glyph-name="uni0424" unicode="&#x424;" horiz-adv-x="1566" 
d="M958 80q0 -80 -80 -80h-191q-80 0 -80 80v112q-237 0 -398.5 146t-161.5 360t161.5 360t398.5 146v116q0 80 80 80h191q80 0 80 -80v-116q237 0 398.5 -146t161.5 -360t-161.5 -360t-398.5 -146v-112zM607 889q-89 0 -149 -55t-60 -136q0 -82 60 -137.5t149 -55.5v384z
M958 505q89 0 149 55.5t60 137.5q0 81 -60 136t-149 55v-384z" />
    <glyph glyph-name="uni0425" unicode="&#x425;" horiz-adv-x="1317" 
d="M658 975l176 366q28 59 93 59h240q47 0 63 -27t-6 -68l-322 -586l346 -623q23 -42 7 -69t-63 -27h-240q-66 0 -94 58l-200 405l-200 -405q-28 -58 -94 -58h-241q-47 0 -63 27t7 69l347 623l-322 586q-22 41 -6 68t63 27h240q65 0 93 -59z" />
    <glyph glyph-name="uni0426" unicode="&#x426;" horiz-adv-x="1409" 
d="M1236 327h48q80 0 80 -80v-447q0 -80 -80 -80h-182q-80 0 -80 80v200h-802q-80 0 -80 80v1240q0 80 80 80h220q80 0 80 -80v-993h335v993q0 80 80 80h221q80 0 80 -80v-993z" />
    <glyph glyph-name="uni0427" unicode="&#x427;" horiz-adv-x="1319" 
d="M798 1320q0 80 80 80h220q80 0 80 -80v-1240q0 -80 -80 -80h-220q-80 0 -80 80v511q-49 -59 -129.5 -91t-169.5 -32q-106 0 -197 49.5t-147 142t-56 208.5v452q0 80 80 80h220q80 0 80 -80v-378q0 -65 44.5 -109t108.5 -44q67 0 116.5 47.5t49.5 138.5v345z" />
    <glyph glyph-name="uni0428" unicode="&#x428;" horiz-adv-x="1987" 
d="M1467 1320q0 80 80 80h220q80 0 80 -80v-1240q0 -80 -80 -80h-1547q-80 0 -80 80v1240q0 80 80 80h221q80 0 80 -80v-993h282v993q0 80 80 80h221q80 0 80 -80v-993h283v993z" />
    <glyph glyph-name="uni0429" unicode="&#x429;" horiz-adv-x="2020" 
d="M1633 0h-1413q-80 0 -80 80v1240q0 80 80 80h220q80 0 80 -80v-993h283v993q0 80 80 80h220q80 0 80 -80v-993h283v993q0 80 80 80h221q80 0 80 -80v-993h47q80 0 80 -80v-447q0 -80 -80 -80h-181q-80 0 -80 80v200z" />
    <glyph glyph-name="uni042A" unicode="&#x42a;" horiz-adv-x="1486" 
d="M645 1400q80 0 80 -80v-413h206q219 0 362.5 -129.5t143.5 -324.5t-143.5 -324t-362.5 -129h-507q-80 0 -80 80v1015h-220q-80 0 -80 80v145q0 80 80 80h521zM1056 453q0 76 -48 112.5t-133 36.5h-150v-298h150q181 0 181 149z" />
    <glyph glyph-name="uni042B" unicode="&#x42b;" horiz-adv-x="1831" 
d="M440 1400q80 0 80 -80v-413h206q219 0 363 -129.5t144 -324.5t-144 -324t-363 -129h-506q-80 0 -80 80v1240q0 80 80 80h220zM1690 80q0 -80 -80 -80h-220q-80 0 -80 80v1240q0 80 80 80h220q80 0 80 -80v-1240zM851 453q0 76 -48 112.5t-133 36.5h-150v-298h150
q181 0 181 149z" />
    <glyph glyph-name="uni042C" unicode="&#x42c;" horiz-adv-x="1281" 
d="M441 1400q80 0 80 -80v-413h206q219 0 362.5 -129t143.5 -325q0 -195 -143.5 -324t-362.5 -129h-507q-80 0 -80 80v1240q0 80 80 80h221zM852 453q0 67 -41.5 108t-112.5 41h-177v-297h177q71 0 112.5 40.5t41.5 107.5z" />
    <glyph glyph-name="uni042D" unicode="&#x42d;" horiz-adv-x="1514" 
d="M715 -24q-370 0 -590 328q-42 64 21 111l81 60q60 44 112 -13q148 -158 363 -158q124 0 214.5 70.5t124.5 187.5h-452q-80 0 -80 80v115q0 80 80 80h453q-33 117 -118.5 187.5t-201.5 70.5q-71 0 -131 -36t-94 -99q-18 -33 -39 -48t-54 -15h-241q-43 0 -62.5 24.5
t-6.5 65.5q70 208 235 322.5t386 114.5q207 0 374 -95.5t260.5 -261t93.5 -367.5q0 -201 -95.5 -367t-262.5 -261.5t-370 -95.5z" />
    <glyph glyph-name="uni042E" unicode="&#x42e;" horiz-adv-x="2204" 
d="M521 80q0 -80 -80 -80h-221q-80 0 -80 80v1240q0 80 80 80h221q80 0 80 -80v-452h125q58 244 261 400t472 156q156 0 296 -56.5t240 -153t159 -230.5t59 -284t-59 -284.5t-159 -230.5t-240 -152.5t-296 -56.5q-272 0 -476 158.5t-259 405.5h-123v-460zM1007 700
q0 -168 107.5 -282t264.5 -114t264.5 114t107.5 282t-107.5 282t-264.5 114t-264.5 -114t-107.5 -282z" />
    <glyph glyph-name="uni042F" unicode="&#x42f;" horiz-adv-x="1268" 
d="M697 477l-212 -419q-29 -58 -94 -58h-238q-47 0 -62.5 26.5t6.5 68.5l239 441q-117 55 -183 160t-66 242q0 205 140.5 333.5t358.5 128.5h461q80 0 80 -80v-1240q0 -80 -80 -80h-214q-80 0 -80 80v397h-56zM753 751v354h-121q-78 0 -125.5 -48.5t-47.5 -128.5
q0 -79 47.5 -128t125.5 -49h121z" />
    <glyph glyph-name="uni0430" unicode="&#x430;" horiz-adv-x="1322" 
d="M56 518q0 231 133.5 386.5t339.5 155.5q187 0 314 -129v25q0 80 80 80h200q80 0 80 -80v-876q0 -80 -80 -80h-200q-80 0 -80 80v25q-127 -129 -314 -129q-206 0 -339.5 155.5t-133.5 386.5zM419 518q0 -93 61.5 -157t150.5 -64t150.5 64t61.5 157t-61.5 157t-150.5 64
t-150.5 -64t-61.5 -157z" />
    <glyph glyph-name="uni0431" unicode="&#x431;" horiz-adv-x="1247" 
d="M489 890q88 66 216 66q209 0 348.5 -139t139.5 -344q0 -138 -72.5 -252t-200 -179.5t-283.5 -65.5q-117 0 -218.5 39.5t-179 114.5t-122 193.5t-44.5 265.5q0 217 38.5 365.5t128.5 252t231 160.5t354 84q78 11 92 -68l28 -163q7 -39 -31 -64t-118 -40
q-155 -28 -222 -78.5t-85 -147.5zM438 521q1 -113 55.5 -168.5t143.5 -55.5q85 0 139 47.5t54 121.5q0 73 -52 121t-131 48q-66 0 -120 -30.5t-89 -83.5z" />
    <glyph glyph-name="uni0432" unicode="&#x432;" horiz-adv-x="1056" 
d="M199 0q-80 0 -80 80v876q0 80 80 80h381q152 0 256.5 -84t104.5 -208q0 -64 -36.5 -115.5t-98.5 -76.5q81 -21 132 -89t51 -150q0 -133 -109 -223t-268 -90h-413zM539 641q39 0 63.5 20.5t24.5 52.5t-24.5 52.5t-63.5 20.5h-102v-146h102zM437 423v-174h115q46 0 75 24
t29 62q0 39 -29 63.5t-75 24.5h-115z" />
    <glyph glyph-name="uni0433" unicode="&#x433;" horiz-adv-x="864" 
d="M488 715v-635q0 -80 -80 -80h-209q-80 0 -80 80v876q0 80 80 80h544q80 0 80 -80v-161q0 -80 -80 -80h-255z" />
    <glyph glyph-name="uni0434" unicode="&#x434;" horiz-adv-x="1164" 
d="M1123 -132q0 -80 -80 -80h-163q-80 0 -80 80v132h-436v-132q0 -80 -80 -80h-163q-80 0 -80 80v305q0 80 80 80h17q120 255 128 702q2 81 81 81h591q80 0 80 -80v-703h25q80 0 80 -80v-305zM696 253v530h-116q0 -137 -25.5 -278.5t-72.5 -251.5h214z" />
    <glyph glyph-name="uni0435" unicode="&#x435;" horiz-adv-x="1239" 
d="M425 421q15 -88 77.5 -134t168.5 -46q154 0 265 68q66 41 112 -15l38 -47q49 -62 -6 -112q-174 -159 -418 -159q-133 0 -247 42t-192.5 114.5t-122.5 172.5t-44 213q0 150 75 274.5t207 196t291 71.5q156 0 283 -70t198.5 -191t71.5 -266q0 -19 -3 -42q-4 -34 -26.5 -52
t-59.5 -18h-668zM623 795q-77 0 -127.5 -42t-67.5 -121h384q-31 163 -189 163z" />
    <glyph glyph-name="uni0436" unicode="&#x436;" horiz-adv-x="1671" 
d="M355 1036q75 0 81 -83q20 -234 165 -234h50v237q0 80 80 80h209q80 0 80 -80v-237h51q144 0 164 234q6 83 81 83h210q39 0 60 -21.5t19 -61.5q-18 -318 -180 -450l190 -409q19 -41 2.5 -67.5t-62.5 -26.5h-224q-67 0 -92 62l-140 341h-79v-323q0 -80 -80 -80h-209
q-80 0 -80 80v323h-79l-140 -341q-25 -62 -92 -62h-224q-46 0 -62.5 26.5t2.5 67.5l190 409q-162 132 -180 450q-2 40 19 61.5t60 21.5h210z" />
    <glyph glyph-name="uni0437" unicode="&#x437;" horiz-adv-x="979" 
d="M459 654q37 0 60.5 25t23.5 65q0 29 -18.5 47t-52.5 18q-38 0 -62 -26q-3 -3 -9 -9.5t-8.5 -9.5t-7.5 -8.5t-8 -8l-8 -6.5t-8.5 -5.5l-9 -4t-10.5 -3.5t-11 -2t-13 -1h-149q-43 0 -63.5 24.5t-6.5 64.5q42 116 141 181t238 65q177 0 295 -84t118 -208q0 -80 -45.5 -147
t-117.5 -93q87 -29 144.5 -92.5t57.5 -148.5q0 -135 -130 -223t-328 -88q-209 0 -364 157q-54 57 4 113l46 44q50 49 113 3q94 -68 192 -68q50 0 80.5 25.5t30.5 60.5q0 37 -32 58.5t-81 21.5h-62q-80 0 -80 80v103q0 80 80 80h61z" />
    <glyph glyph-name="uni0438" unicode="&#x438;" horiz-adv-x="1258" 
d="M1139 80q0 -80 -80 -80h-198q-80 0 -80 80v427l-310 -456q-34 -51 -97 -51h-175q-80 0 -80 80v876q0 80 80 80h198q80 0 80 -80v-427l310 456q34 51 97 51h175q80 0 80 -80v-876z" />
    <glyph glyph-name="uni0439" unicode="&#x439;" horiz-adv-x="1258" 
d="M629 1164q-127 0 -229 62.5t-138 165.5q-14 39 7.5 62.5t64.5 23.5h132q8 0 15.5 -1.5t13 -2.5t12 -5.5l9.5 -6.5t9.5 -9.5t9 -10t10 -12.5t10.5 -13q29 -32 74 -32t74 32q3 3 10.5 13t10 12.5t9 10t9.5 9.5l9.5 6.5t12 5.5t13 2.5t15.5 1.5h132q42 0 64 -21.5t11 -57.5
q-34 -105 -138 -170t-232 -65zM1139 80q0 -80 -80 -80h-198q-80 0 -80 80v427l-310 -456q-34 -51 -97 -51h-175q-80 0 -80 80v876q0 80 80 80h198q80 0 80 -80v-427l310 456q34 51 97 51h175q80 0 80 -80v-876z" />
    <glyph glyph-name="uni043A" unicode="&#x43a;" horiz-adv-x="1139" 
d="M994 1036q39 0 60 -21.5t19 -61.5q-18 -318 -180 -450l190 -409q19 -41 2.5 -67.5t-62.5 -26.5h-224q-67 0 -92 62l-140 341h-79v-323q0 -80 -80 -80h-209q-80 0 -80 80v876q0 80 80 80h209q80 0 80 -80v-237h51q144 0 164 234q6 83 81 83h210z" />
    <glyph glyph-name="uni043B" unicode="&#x43b;" horiz-adv-x="1270" 
d="M1151 80q0 -80 -80 -80h-209q-80 0 -80 80v642h-198v-388q0 -152 -118.5 -247t-298.5 -95q-34 0 -50 1q-37 1 -56.5 23t-19.5 60v159q0 80 54 80q55 0 87.5 30.5t32.5 83.5v527q0 80 80 80h776q80 0 80 -80v-876z" />
    <glyph glyph-name="uni043C" unicode="&#x43c;" horiz-adv-x="1395" 
d="M697 579l177 397q26 60 93 60h230q80 0 80 -80v-876q0 -80 -80 -80h-181q-80 0 -80 80v495l-113 -245q-27 -60 -93 -60h-64q-66 0 -94 60l-113 245v-495q0 -80 -80 -80h-180q-80 0 -80 80v876q0 80 80 80h229q67 0 93 -61z" />
    <glyph glyph-name="uni043D" unicode="&#x43d;" horiz-adv-x="1258" 
d="M1139 80q0 -80 -80 -80h-210q-80 0 -80 80v298h-281v-298q0 -80 -80 -80h-210q-80 0 -80 80v876q0 80 80 80h210q80 0 80 -80v-264h281v264q0 80 80 80h210q80 0 80 -80v-876z" />
    <glyph glyph-name="uni043E" unicode="&#x43e;" horiz-adv-x="1283" 
d="M56 518q0 150 76.5 274.5t211 196t297.5 71.5q249 0 417 -156.5t168 -385.5t-168 -385.5t-417 -156.5q-163 0 -297.5 71.5t-211 196t-76.5 274.5zM419 518q0 -94 63 -157.5t159 -63.5t159.5 63.5t63.5 157.5t-63.5 157.5t-159.5 63.5t-159 -63.5t-63 -157.5z" />
    <glyph glyph-name="uni043F" unicode="&#x43f;" horiz-adv-x="1258" 
d="M1139 80q0 -80 -80 -80h-210q-80 0 -80 80v641h-281v-641q0 -80 -80 -80h-210q-80 0 -80 80v876q0 80 80 80h861q80 0 80 -80v-876z" />
    <glyph glyph-name="uni0440" unicode="&#x440;" horiz-adv-x="1322" 
d="M1266 518q0 -231 -133 -386.5t-340 -155.5q-188 0 -314 129v-489q0 -80 -80 -80h-200q-80 0 -80 80v1340q0 80 80 80h200q80 0 80 -80v-25q126 129 314 129q207 0 340 -155.5t133 -386.5zM903 518q0 94 -61 157.5t-150 63.5q-90 0 -151.5 -64t-61.5 -157t61.5 -157
t151.5 -64q89 0 150 63.5t61 157.5z" />
    <glyph glyph-name="uni0441" unicode="&#x441;" horiz-adv-x="1180" 
d="M1046 340q60 -49 20 -111q-163 -253 -448 -253q-153 0 -282.5 71.5t-204.5 196t-75 274.5q0 229 157.5 385.5t391.5 156.5q181 0 311.5 -90.5t184.5 -244.5q14 -40 -6 -64.5t-63 -24.5h-211q-30 0 -50 13t-46 42q-43 48 -120 48t-131.5 -64t-54.5 -157q0 -97 60.5 -159
t168.5 -62q125 0 229 84q58 49 112 5z" />
    <glyph glyph-name="uni0442" unicode="&#x442;" horiz-adv-x="1002" 
d="M120 714q-80 0 -80 80v162q0 80 80 80h761q80 0 80 -80v-162q0 -80 -80 -80h-196v-634q0 -80 -80 -80h-209q-80 0 -80 80v634h-196z" />
    <glyph glyph-name="uni0443" unicode="&#x443;" horiz-adv-x="1110" 
d="M996 1036q44 0 61.5 -25.5t3.5 -66.5l-467 -1343q-22 -65 -91 -65h-218q-45 0 -62.5 26t-0.5 67l154 371l-328 944q-14 41 3.5 66.5t61.5 25.5h219q71 0 89 -68l133 -499l134 499q18 68 89 68h219z" />
    <glyph glyph-name="uni0444" unicode="&#x444;" horiz-adv-x="2046" 
d="M56 518q0 231 133 386.5t340 155.5q188 0 314 -129v449q0 80 80 80h200q80 0 80 -80v-449q126 129 313 129q207 0 340.5 -155.5t133.5 -386.5q0 -232 -133.5 -387t-340.5 -155q-188 0 -313 128v-488q0 -80 -80 -80h-200q-80 0 -80 80v488q-125 -128 -314 -128
q-207 0 -340 155t-133 387zM419 518q0 -94 61 -157.5t150 -63.5q90 0 151.5 63.5t61.5 157.5q0 93 -61.5 156.5t-151.5 63.5q-89 0 -150 -63.5t-61 -156.5zM1627 518q0 93 -61.5 156.5t-150.5 63.5t-150.5 -63.5t-61.5 -156.5q0 -94 61.5 -157.5t150.5 -63.5t150.5 63.5
t61.5 157.5z" />
    <glyph glyph-name="uni0445" unicode="&#x445;" horiz-adv-x="1110" 
d="M310 528l-218 413q-22 41 -5.5 68t63.5 27h216q67 0 93 -61l96 -225l95 225q26 61 93 61h217q46 0 62.5 -27t-5.5 -68l-217 -413l240 -432q23 -42 7 -69t-63 -27h-217q-65 0 -93 59l-119 246l-119 -246q-28 -59 -94 -59h-217q-47 0 -63 27t7 69z" />
    <glyph glyph-name="uni0446" unicode="&#x446;" horiz-adv-x="1307" 
d="M1203 313q63 0 63 -80v-433q0 -80 -80 -80h-173q-80 0 -80 80v200h-735q-80 0 -80 80v876q0 80 80 80h210q80 0 80 -80v-643h281v643q0 80 80 80h210q80 0 80 -80v-643h64z" />
    <glyph glyph-name="uni0447" unicode="&#x447;" horiz-adv-x="1135" 
d="M647 369q-91 -97 -226 -97q-159 0 -260 101.5t-101 292.5v290q0 80 80 80h210q80 0 80 -80v-252q0 -51 25 -84t73 -33q62 0 90.5 40.5t28.5 132.5v196q0 80 80 80h209q80 0 80 -80v-876q0 -80 -80 -80h-209q-80 0 -80 80v289z" />
    <glyph glyph-name="uni0448" unicode="&#x448;" horiz-adv-x="1606" 
d="M1487 80q0 -80 -80 -80h-1208q-80 0 -80 80v876q0 80 80 80h189q80 0 80 -80v-642h162v642q0 80 80 80h187q80 0 80 -80v-642h161v642q0 80 80 80h189q80 0 80 -80v-876z" />
    <glyph glyph-name="uni0449" unicode="&#x449;" horiz-adv-x="1656" 
d="M1281 0h-1083q-80 0 -80 80v876q0 80 80 80h190q80 0 80 -80v-643h161v643q0 80 80 80h187q80 0 80 -80v-643h162v643q0 80 80 80h189q80 0 80 -80v-643h47q80 0 80 -80v-433q0 -80 -80 -80h-173q-80 0 -80 80v200z" />
    <glyph glyph-name="uni044A" unicode="&#x44a;" horiz-adv-x="1247" 
d="M1193 363q0 -153 -116.5 -258t-285.5 -105h-439q-80 0 -80 80v667h-151q-80 0 -80 80v129q0 80 80 80h420q80 0 80 -80v-229h170q169 0 285.5 -105.5t116.5 -258.5zM845 363q0 50 -33.5 82.5t-85.5 32.5h-105v-229h105q52 0 85.5 32t33.5 82z" />
    <glyph glyph-name="uni044B" unicode="&#x44b;" horiz-adv-x="1598" 
d="M1040 363q0 -153 -116.5 -258t-285.5 -105h-439q-80 0 -80 80v876q0 80 80 80h188q80 0 80 -80v-229h171q169 0 285.5 -105.5t116.5 -258.5zM1110 956q0 80 80 80h210q80 0 80 -80v-876q0 -80 -80 -80h-210q-80 0 -80 80v876zM692 363q0 50 -34 82.5t-86 32.5h-105v-229
h105q52 0 86 32.5t34 81.5z" />
    <glyph glyph-name="uni044C" unicode="&#x44c;" horiz-adv-x="1094" 
d="M1040 363q0 -153 -116.5 -258t-285.5 -105h-439q-80 0 -80 80v876q0 80 80 80h188q80 0 80 -80v-229h171q169 0 285.5 -105.5t116.5 -258.5zM692 363q0 50 -34 82.5t-86 32.5h-105v-229h105q52 0 86 32.5t34 81.5z" />
    <glyph glyph-name="uni044D" unicode="&#x44d;" horiz-adv-x="1179" 
d="M180 366q54 44 113 -3q107 -84 235 -84q85 0 143.5 36.5t84.5 100.5h-274q-80 0 -80 80v39q0 80 80 80h276q-23 64 -73.5 103t-111.5 39q-84 0 -131 -47q-27 -27 -47.5 -39t-50.5 -12h-193q-44 0 -64 25t-4 65q58 143 187 227t303 84q154 0 280 -71.5t198 -196t72 -274.5
t-75 -274.5t-204.5 -196t-283.5 -71.5q-279 0 -443 244q-40 62 20 111z" />
    <glyph glyph-name="uni044E" unicode="&#x44e;" horiz-adv-x="1782" 
d="M480 680h102q54 169 206 274.5t352 105.5q249 0 417 -156.5t168 -385.5q0 -113 -45 -213.5t-122.5 -172.5t-186 -114t-231.5 -42q-202 0 -354.5 106t-204.5 277h-101v-279q0 -80 -80 -80h-202q-80 0 -80 80v876q0 80 80 80h202q80 0 80 -80v-276zM918 518q0 -95 63 -158
t159 -63t159 63t63 158q0 94 -63 157t-159 63t-159 -63t-63 -157z" />
    <glyph glyph-name="uni044F" unicode="&#x44f;" horiz-adv-x="1135" 
d="M163 0q-50 0 -64.5 28t15.5 69l208 282q-108 37 -173.5 122.5t-65.5 194.5q0 144 111 242t274 98h468q80 0 80 -80v-876q0 -80 -80 -80h-174q-80 0 -80 80v259h-42q-28 -40 -94.5 -145l-91.5 -143q-33 -51 -96 -51h-195zM536 787q-43 0 -73.5 -26.5t-30.5 -64.5
q0 -40 29 -66t75 -26h146v183h-146z" />
    <glyph glyph-name="uni0450" unicode="&#x450;" horiz-adv-x="1239" 
d="M364 1371q-29 28 -27 58t33 55l100 82q31 26 60.5 21.5t51.5 -38.5l150 -227q42 -64 -18 -112l-44 -35q-60 -47 -113 6zM425 421q15 -88 77.5 -134t168.5 -46q154 0 265 68q66 41 112 -15l38 -47q49 -62 -6 -112q-174 -159 -418 -159q-133 0 -247 42t-192.5 114.5
t-122.5 172.5t-44 213q0 150 75 274.5t207 196t291 71.5q156 0 283 -70t198.5 -191t71.5 -266q0 -19 -3 -42q-4 -34 -26.5 -52t-59.5 -18h-668zM623 795q-77 0 -127.5 -42t-67.5 -121h384q-31 163 -189 163z" />
    <glyph glyph-name="uni0451" unicode="&#x451;" horiz-adv-x="1239" 
d="M231 1340q0 74 51 124t127 50q75 0 126 -50t51 -124t-51 -124t-126 -50q-76 0 -127 50t-51 124zM652 1340q0 74 51 124t126 50q76 0 127 -50t51 -124t-51 -124t-127 -50q-75 0 -126 50t-51 124zM425 421q15 -88 77.5 -134t168.5 -46q154 0 265 68q66 41 112 -15l38 -47
q49 -62 -6 -112q-174 -159 -418 -159q-133 0 -247 42t-192.5 114.5t-122.5 172.5t-44 213q0 150 75 274.5t207 196t291 71.5q156 0 283 -70t198.5 -191t71.5 -266q0 -19 -3 -42q-4 -34 -26.5 -52t-59.5 -18h-668zM623 795q-77 0 -127.5 -42t-67.5 -121h384q-31 163 -189 163
z" />
    <glyph glyph-name="uni0452" unicode="&#x452;" horiz-adv-x="1265" 
d="M515 1137v-203q101 123 275 123q162 0 269 -109t107 -288v-762q0 -168 -117.5 -265t-319.5 -97q-33 0 -65 3q-73 7 -73 86v108q0 81 49 78q16 -2 49 -2q107 0 107 104v673q0 64 -38.5 108t-98.5 44q-64 0 -104 -46.5t-40 -138.5v-473q0 -80 -80 -80h-210q-80 0 -80 80
v1057h-45q-80 0 -80 80v37q0 80 80 80h45v46q0 80 80 80h210q80 0 80 -80v-46h167q80 0 80 -80v-37q0 -80 -80 -80h-167z" />
    <glyph glyph-name="uni0453" unicode="&#x453;" horiz-adv-x="864" 
d="M463 1181q-53 -53 -113 -6l-45 35q-60 48 -17 112l150 227q22 34 51.5 38.5t60.5 -21.5l100 -82q31 -25 33 -55t-27 -58zM488 715v-635q0 -80 -80 -80h-209q-80 0 -80 80v876q0 80 80 80h544q80 0 80 -80v-161q0 -80 -80 -80h-255z" />
    <glyph glyph-name="uni0454" unicode="&#x454;" horiz-adv-x="1179" 
d="M1042 331q60 -49 19 -111q-162 -244 -442 -244q-154 0 -283.5 71.5t-204.5 196t-75 274.5t72 274.5t198 196t280 71.5q174 0 303 -84t187 -227q16 -40 -4 -65t-64 -25h-193q-30 0 -50.5 12t-47.5 39q-47 47 -131 47q-62 0 -112 -39t-73 -103h276q80 0 80 -80v-39
q0 -80 -80 -80h-275q26 -64 84.5 -100.5t144.5 -36.5q128 0 235 84q59 47 113 3z" />
    <glyph glyph-name="uni0455" unicode="&#x455;" horiz-adv-x="958" 
d="M136 289q45 56 112 15q100 -60 211 -60q47 0 73.5 16.5t26.5 45.5q0 31 -31.5 52t-107.5 37q-159 35 -246.5 125t-87.5 219q0 139 111.5 230t282.5 91q156 0 257.5 -71t141.5 -190q13 -40 -7 -64t-63 -24h-145q-13 0 -22.5 2t-20.5 9.5t-15 10t-18 17l-17 17.5
q-27 25 -68 25q-36 0 -57.5 -15.5t-21.5 -41.5q0 -30 30 -50.5t109 -37.5q172 -37 259.5 -124.5t87.5 -217.5q0 -143 -118 -236t-305 -93q-209 0 -375 166q-50 53 -3 113z" />
    <glyph glyph-name="uni0456" unicode="&#x456;" horiz-adv-x="600" 
d="M95 1301q0 82 59 137t146 55t146 -55t59 -137q0 -81 -59 -136.5t-146 -55.5t-146 55.5t-59 136.5zM115 956q0 80 80 80h210q80 0 80 -80v-876q0 -80 -80 -80h-210q-80 0 -80 80v876z" />
    <glyph glyph-name="uni0457" unicode="&#x457;" horiz-adv-x="600" 
d="M-88 1340q0 74 51 124t127 50q75 0 126 -50t51 -124t-51 -124t-126 -50q-76 0 -127 50t-51 124zM333 1340q0 74 51 124t126 50q76 0 127 -50t51 -124t-51 -124t-127 -50q-75 0 -126 50t-51 124zM115 956q0 80 80 80h210q80 0 80 -80v-876q0 -80 -80 -80h-210
q-80 0 -80 80v876z" />
    <glyph glyph-name="uni0458" unicode="&#x458;" horiz-adv-x="600" 
d="M95 1301q0 82 59 137t146 55t146 -55t59 -137q0 -81 -59 -136.5t-146 -55.5t-146 55.5t-59 136.5zM115 956q0 80 80 80h210q80 0 80 -80v-1060q0 -165 -105.5 -262.5t-280.5 -97.5q-29 0 -64 5q-69 9 -69 87v145q0 80 56 80q93 0 93 93v1010z" />
    <glyph glyph-name="uni0459" unicode="&#x459;" horiz-adv-x="1745" 
d="M1118 727h171q169 0 285.5 -105.5t116.5 -258.5t-116.5 -258t-285.5 -105h-439q-80 0 -80 80v649h-186v-395q0 -152 -119 -247t-298 -95q-34 0 -51 1q-37 1 -56.5 23t-19.5 60v158q0 80 54 80q55 0 87.5 31t32.5 84v527q0 80 80 80h744q80 0 80 -80v-229zM1343 363
q0 50 -34 82.5t-86 32.5h-105v-230h105q52 0 86 32.5t34 82.5z" />
    <glyph glyph-name="uni045A" unicode="&#x45a;" horiz-adv-x="1733" 
d="M1679 363q0 -153 -116.5 -258t-285.5 -105h-439q-80 0 -80 80v299h-270v-299q0 -80 -80 -80h-209q-80 0 -80 80v876q0 80 80 80h209q80 0 80 -80v-263h270v263q0 80 80 80h188q80 0 80 -80v-229h171q169 0 285.5 -105.5t116.5 -258.5zM1331 363q0 50 -33.5 82.5
t-85.5 32.5h-106v-229h106q52 0 85.5 32t33.5 82z" />
    <glyph glyph-name="uni045B" unicode="&#x45b;" horiz-adv-x="1265" 
d="M20 1254q0 80 80 80h45v46q0 80 80 80h210q80 0 80 -80v-46h167q80 0 80 -80v-37q0 -80 -80 -80h-167v-203q101 123 275 123q162 0 269 -109t107 -288v-580q0 -80 -80 -80h-210q-80 0 -80 80v506q0 64 -38.5 108t-98.5 44q-64 0 -104 -46.5t-40 -138.5v-473
q0 -80 -80 -80h-210q-80 0 -80 80v1057h-45q-80 0 -80 80v37z" />
    <glyph glyph-name="uni045C" unicode="&#x45c;" horiz-adv-x="1139" 
d="M586 1181q-53 -53 -113 -6l-45 35q-60 48 -17 112l150 227q22 34 51.5 38.5t60.5 -21.5l100 -82q31 -25 33 -55t-27 -58zM994 1036q39 0 60 -21.5t19 -61.5q-18 -318 -180 -450l190 -409q19 -41 2.5 -67.5t-62.5 -26.5h-224q-67 0 -92 62l-140 341h-79v-323
q0 -80 -80 -80h-209q-80 0 -80 80v876q0 80 80 80h209q80 0 80 -80v-237h51q144 0 164 234q6 83 81 83h210z" />
    <glyph glyph-name="uni045D" unicode="&#x45d;" horiz-adv-x="1258" 
d="M380 1371q-29 28 -27 58t33 55l100 82q31 26 60.5 21.5t51.5 -38.5l150 -227q42 -64 -18 -112l-44 -35q-60 -47 -113 6zM1139 80q0 -80 -80 -80h-198q-80 0 -80 80v427l-310 -456q-34 -51 -97 -51h-175q-80 0 -80 80v876q0 80 80 80h198q80 0 80 -80v-427l310 456
q34 51 97 51h175q80 0 80 -80v-876z" />
    <glyph glyph-name="uni045E" unicode="&#x45e;" horiz-adv-x="1110" 
d="M554 1164q-127 0 -229 62.5t-138 165.5q-14 39 7.5 62.5t64.5 23.5h132q8 0 15.5 -1.5t13 -2.5t12 -5.5l9.5 -6.5t9.5 -9.5t9 -10t10 -12.5t10.5 -13q29 -32 74 -32t74 32q3 3 10.5 13t10 12.5t9 10t9.5 9.5l9.5 6.5t12 5.5t13 2.5t15.5 1.5h132q42 0 64 -21.5t11 -57.5
q-34 -105 -138 -170t-232 -65zM996 1036q44 0 61.5 -25.5t3.5 -66.5l-467 -1343q-22 -65 -91 -65h-218q-45 0 -62.5 26t-0.5 67l154 371l-328 944q-14 41 3.5 66.5t61.5 25.5h219q71 0 89 -68l133 -499l134 499q18 68 89 68h219z" />
    <glyph glyph-name="uni045F" unicode="&#x45f;" horiz-adv-x="1258" 
d="M1139 80q0 -80 -80 -80h-246v-200q0 -80 -80 -80h-209q-80 0 -80 80v200h-246q-80 0 -80 80v876q0 80 80 80h210q80 0 80 -80v-643h281v643q0 80 80 80h210q80 0 80 -80v-876z" />
    <glyph glyph-name="uni0490" unicode="&#x490;" horiz-adv-x="1063" 
d="M140 1320q0 80 80 80h476v200q0 80 80 80h181q80 0 80 -80v-448q0 -80 -80 -80h-437v-992q0 -80 -80 -80h-220q-80 0 -80 80v1240z" />
    <glyph glyph-name="uni0491" unicode="&#x491;" horiz-adv-x="871" 
d="M488 714v-634q0 -80 -80 -80h-210q-80 0 -80 80v876q0 80 80 80h298v200q0 80 80 80h173q80 0 80 -80v-442q0 -80 -80 -80h-261z" />
    <glyph glyph-name="Wgrave" unicode="&#x1e80;" horiz-adv-x="1995" 
d="M737 1695q-29 28 -27 58t33 55l100 82q31 26 60.5 21.5t51.5 -38.5l150 -227q42 -64 -18 -112l-44 -35q-60 -47 -113 6zM1117 1400q73 0 88 -70l186 -834l178 833q15 71 87 71h227q43 0 61.5 -24t7.5 -65l-327 -1242q-18 -69 -89 -69h-248q-72 0 -88 69l-202 819
l-203 -819q-17 -69 -88 -69h-248q-71 0 -89 69l-327 1242q-11 41 7.5 65t61.5 24h227q72 0 87 -71l178 -833l187 834q15 70 88 70h238z" />
    <glyph glyph-name="wgrave" unicode="&#x1e81;" horiz-adv-x="1630" 
d="M551 1371q-29 28 -27 58t33 55l100 82q31 26 60.5 21.5t51.5 -38.5l150 -227q42 -64 -18 -112l-44 -35q-60 -47 -113 6zM920 1036q73 0 88 -71l108 -532l111 532q15 71 87 71h206q43 0 61.5 -24t6.5 -66l-250 -878q-20 -68 -89 -68h-237q-72 0 -88 70l-109 463l-109 -463
q-16 -70 -88 -70h-237q-69 0 -89 68l-249 878q-12 42 6 66t61 24h206q72 0 87 -71l111 -532l108 532q15 71 88 71h210z" />
    </font>
</defs>
</svg>
