<?xml version="1.0" encoding="UTF-8"?>
<svg width="17px" height="17px" viewBox="0 0 17 17" version="1.1" xmlns="http://www.w3.org/2000/svg" xmlns:xlink="http://www.w3.org/1999/xlink">
    <!-- Generator: Sketch 50.2 (55047) - http://www.bohemiancoding.com/sketch -->
    <title>FB</title>
    <desc>Created with Sketch.</desc>
    <defs></defs>
    <g id="Symbols" stroke="none" stroke-width="1" fill="none" fill-rule="evenodd">
        <g id="footer" transform="translate(-516.000000, -221.000000)" fill="#EEF6F8" fill-rule="nonzero">
            <g id="links">
                <g transform="translate(165.000000, 192.000000)">
                    <g id="Follow-us" transform="translate(350.000000, 0.000000)">
                        <path d="M16.4545455,29 L2.54545455,29 C1.69192357,29 1,29.6919236 1,30.5454545 L1,44.4545455 C1,45.3080764 1.69192357,46 2.54545455,46 L8.34090909,46 C8.55429184,46 8.72727273,45.8270191 8.72727273,45.6136364 L8.72727273,40.2045455 C8.72727273,39.9911627 8.55429184,39.8181818 8.34090909,39.8181818 L7.56818182,39.8181818 C7.35479907,39.8181818 7.18181818,39.6452009 7.18181818,39.4318182 L7.18181818,37.1136364 C7.18181818,36.9002536 7.35479907,36.7272727 7.56818182,36.7272727 L8.34090909,36.7272727 C8.55429184,36.7272727 8.72727273,36.5542918 8.72727273,36.3409091 L8.72727273,35.5681818 C8.72727273,33.6477371 10.2841008,32.0909091 12.2045455,32.0909091 L14.5227273,32.0909091 C14.73611,32.0909091 14.9090909,32.26389 14.9090909,32.4772727 L14.9090909,34.7954545 C14.9090909,35.0088373 14.73611,35.1818182 14.5227273,35.1818182 L12.2045455,35.1818182 C11.9911627,35.1818182 11.8181818,35.3547991 11.8181818,35.5681818 L11.8181818,36.3409091 C11.8181818,36.5542918 11.9911627,36.7272727 12.2045455,36.7272727 L14.5227273,36.7272727 C14.6355176,36.728075 14.7423255,36.7781251 14.8151167,36.8642862 C14.887908,36.9504473 14.9194134,37.0641149 14.9013636,37.1754545 L14.515,39.4936364 C14.4848473,39.6796933 14.3248433,39.8168396 14.1363636,39.8181818 L12.2045455,39.8181818 C11.9911627,39.8181818 11.8181818,39.9911627 11.8181818,40.2045455 L11.8181818,45.6136364 C11.8181818,45.8270191 11.9911627,46 12.2045455,46 L16.4545455,46 C17.3080764,46 18,45.3080764 18,44.4545455 L18,30.5454545 C18,29.9764339 17.4848485,29.4612824 16.4545455,29 Z" id="FB"></path>
                    </g>
                </g>
            </g>
        </g>
    </g>
</svg>