<?xml version="1.0" encoding="UTF-8"?>
<svg width="17px" height="17px" viewBox="0 0 17 17" version="1.1" xmlns="http://www.w3.org/2000/svg" xmlns:xlink="http://www.w3.org/1999/xlink">
    <!-- Generator: Sketch 50.2 (55047) - http://www.bohemiancoding.com/sketch -->
    <title>Linkedin</title>
    <desc>Created with Sketch.</desc>
    <defs></defs>
    <g id="Symbols" stroke="none" stroke-width="1" fill="none" fill-rule="evenodd">
        <g id="footer" transform="translate(-543.000000, -221.000000)" fill="#EEF6F8" fill-rule="nonzero">
            <g id="links">
                <g transform="translate(165.000000, 192.000000)">
                    <g id="Follow-us" transform="translate(350.000000, 0.000000)">
                        <path d="M43.9375,29 L43.38075,29 L29.61925,29 L29.0625,29 C28.476,29 28,29.4754688 28,30.0625 L28,30.6187188 L28,44.3812813 L28,44.9375 C28,45.5245313 28.476,46 29.0625,46 L29.61925,46 L43.38075,46 L43.9375,46 C44.524,46 45,45.5245313 45,44.9375 L45,44.3812813 L45,30.6187188 L45,30.0625 C45,29.4754688 44.524,29 43.9375,29 Z M42.5652813,42.7795625 L40.169875,42.7795625 L40.169875,38.9593438 C40.169875,38.0004375 39.8973438,37.344875 39.030875,37.344875 C38.3684063,37.344875 37.9731563,37.786875 37.8010313,38.2134688 C37.7378125,38.3659375 37.7224063,38.5789688 37.7224063,38.7925313 L37.7224063,42.7800938 L35.2494375,42.7800938 C35.2494375,42.7800938 35.2813125,36.108125 35.2494375,35.4382188 L37.7224063,35.4382188 L37.7224063,36.4497188 C38.0400938,35.9641563 38.6085313,35.2698125 39.8819375,35.2698125 C41.4581563,35.2698125 42.5652813,36.4943438 42.5652813,38.6868125 L42.5652813,42.7795625 Z M32.328625,32.2395625 C33.0644063,32.2395625 33.5175625,32.7708125 33.5324375,33.4678125 C33.5324375,34.1494063 33.0644063,34.6960625 32.3148125,34.6960625 L32.301,34.6960625 C31.5785,34.6960625 31.1120625,34.1494063 31.1120625,33.4678125 C31.1115313,32.7708125 31.5923125,32.2395625 32.328625,32.2395625 Z M33.6684375,35.4653125 L33.6684375,42.7795625 L31.2385,42.7795625 L31.2385,35.4653125 L33.6684375,35.4653125 Z" id="Linkedin"></path>
                    </g>
                </g>
            </g>
        </g>
    </g>
</svg>