<?xml version="1.0" encoding="utf-8"?>
<!-- Generator: Adobe Illustrator 22.0.0, SVG Export Plug-In . SVG Version: 6.00 Build 0)  -->
<svg version="1.1" id="Layer_1" xmlns="http://www.w3.org/2000/svg" xmlns:xlink="http://www.w3.org/1999/xlink" x="0px" y="0px"
	 viewBox="0 0 720.9 114.8" style="enable-background:new 0 0 720.9 114.8;" xml:space="preserve">
<style type="text/css">
	.st0{fill:#FFFFFF;}
	.st1{fill:#FFFFFF;}
</style>
<g>
	<g>
		<g>
			<g>
				<path class="st0" d="M180,84.1V45.7c0-1.1-0.9-2-2-2h-4.9c-1.1,0-2,0.9-2,2v1.8c-3.9-2.9-8.3-4.3-13-4.3
					c-6.4,0-12.5,2.7-16.7,7.5s-6.1,10.9-5.3,17.3c1.4,10.9,10.9,19.3,22,19.3c0.3,0,0.5,0,0.8,0c4.6-0.2,8.9-1.7,12.6-4.6
					c0.3,0.6,0.8,1.1,1.5,1.4l4.4,1.9c0.6,0.3,1.3,0.2,1.8-0.2C179.7,85.4,180,84.8,180,84.1z M171.1,65.1c0,7.4-5.7,13.1-13.1,13.1
					c-7.4,0-13.1-5.8-13.1-13.1c0-7.3,5.8-13.1,13.1-13.1C165.4,52.1,171.1,57.8,171.1,65.1z"/>
				<path class="st0" d="M205.8,87.3c0.1,0,0.2,0,0.4,0c8-0.1,15.2-4.4,18.7-11.1c0.3-0.5,0.3-1.1,0.1-1.6s-0.7-1-1.2-1.1l-4.7-1.6
					c-0.9-0.3-1.9,0.1-2.3,0.9c-2.3,4.1-8,6.4-13.5,5.4c-6.3-1.1-10.7-6.7-10.6-13.2c0.2-7.2,5.9-12.8,13.1-12.8
					c4.1,0,7.8,1.7,10.1,4.6c0.7,0.8,1.9,1,2.7,0.3l3.8-2.9c0.4-0.3,0.7-0.8,0.8-1.4c0-0.5-0.1-1.1-0.5-1.5
					c-4.8-5.2-10.8-8.1-16.9-8.1c-6.5,0-12.6,2.8-16.8,7.7c-4.2,4.8-6,11.3-5,17.7C185.5,79.3,194.9,87.3,205.8,87.3z"/>
				<path class="st0" d="M248.9,87.3c0.1,0,0.2,0,0.4,0c8-0.1,15.2-4.4,18.7-11.1c0.3-0.5,0.3-1.1,0.1-1.6s-0.7-1-1.2-1.1l-4.7-1.6
					c-0.9-0.3-1.9,0.1-2.3,0.9c-2.3,4.1-8,6.4-13.5,5.4c-6.3-1.1-10.7-6.7-10.6-13.2c0.2-7.2,5.9-12.8,13.1-12.8
					c4.1,0,7.8,1.7,10.1,4.6c0.6,0.8,1.9,1,2.7,0.3l3.8-2.9c0.4-0.3,0.7-0.8,0.8-1.4c0-0.5-0.1-1.1-0.5-1.5
					c-4.8-5.2-10.8-8.1-16.9-8.1c-6.5,0-12.6,2.8-16.8,7.7c-4.2,4.8-6,11.3-5,17.7C228.6,79.3,238,87.3,248.9,87.3z"/>
				<path class="st0" d="M291.9,43.2c-12.2,0-22.1,9.9-22.1,22c0,5.9,2.3,11.5,6.4,15.7c4.2,4.2,9.7,6.5,15.7,6.5
					c12.1,0,22-9.9,22-22.1C313.8,53,304,43.2,291.9,43.2z M304.9,65.1c0,7.4-5.7,13.1-13.1,13.1c-7.4,0-13.1-5.8-13.1-13.1
					c0-7.3,5.8-13.1,13.1-13.1C299.2,52.1,304.9,57.8,304.9,65.1z"/>
				<path class="st0" d="M364.8,43.2c-5.6,0-10.8,2.3-14.3,6.3c-3.6-4-8.8-6.3-14.4-6.3c-4,0-7.5,1-10.5,3.1
					c-0.3,0.2-0.6,0.2-0.9,0.1l-4.5-1.9c-0.6-0.3-1.3-0.2-1.9,0.2c-0.5,0.4-0.9,1-0.9,1.6v38.3c0,1.1,0.9,2,2,2h4.9c1.1,0,2-0.9,2-2
					V61.3c0-3,0.8-5.4,2.3-6.9c1.6-1.6,4.2-2.4,7.6-2.4l0,0c5.4,0,9.8,4.4,9.8,9.9v22.8c0,1.1,0.9,2,2,2h4.8c1.1,0,2-0.9,2-2V62.9
					c0-4.1,2.1-7.9,5.6-9.7c3-1.6,6.4-1.5,9.3,0.2c3.1,1.8,5,5.1,5,8.5v22.8c0,1.1,0.9,2,2,2h4.9c1.1,0,2-0.9,2-2V61
					C383.7,51.3,375.1,43.2,364.8,43.2z"/>
				<path class="st0" d="M434.7,43.2c-5.6,0-10.8,2.3-14.3,6.3c-3.6-4-8.8-6.3-14.4-6.3c-4,0-7.5,1-10.5,3.1
					c-0.3,0.2-0.6,0.2-0.9,0.1l-4.5-1.9c-0.6-0.3-1.3-0.2-1.9,0.2c-0.5,0.4-0.9,1-0.9,1.6v38.3c0,1.1,0.9,2,2,2h4.9c1.1,0,2-0.9,2-2
					V61.3c0-3,0.8-5.4,2.3-6.9c1.6-1.6,4.2-2.4,7.6-2.4l0,0c5.4,0,9.8,4.4,9.8,9.9v22.8c0,1.1,0.9,2,2,2h4.8c1.1,0,2-0.9,2-2V62.9
					c0-4.1,2.1-7.9,5.6-9.7c3-1.6,6.4-1.5,9.3,0.2c3.1,1.8,5,5.1,5,8.5v22.8c0,1.1,0.9,2,2,2h4.9c1.1,0,2-0.9,2-2V61
					C453.5,51.3,444.9,43.2,434.7,43.2z"/>
				<path class="st0" d="M479.3,43.2c-12.2,0-22.1,9.9-22.1,22c0,5.9,2.3,11.5,6.4,15.7c4.2,4.2,9.7,6.5,15.7,6.5
					c12.1,0,22-9.9,22-22.1C501.3,53,491.4,43.2,479.3,43.2z M492.4,65.1c0,7.4-5.7,13.1-13.1,13.1c-7.4,0-13.1-5.8-13.1-13.1
					c0-7.3,5.8-13.1,13.1-13.1C486.6,52.1,492.4,57.8,492.4,65.1z"/>
				<path class="st0" d="M547,27.4h-4.9c-1.1,0-2,0.9-2,2v18.1c-3.7-2.8-8.3-4.3-13.1-4.3c-6.2,0-12.2,2.6-16.4,7.2
					c-4.2,4.6-6.2,10.5-5.7,16.8c1,11.3,10.7,20.1,22,20.1l0,0c4.9,0,9.6-1.6,13.4-4.6c0.3,0.6,0.8,1.1,1.4,1.3l4.3,1.9
					c0.6,0.3,1.3,0.2,1.9-0.2c0.6-0.4,0.9-1,0.9-1.7V29.3C549,28.3,548.1,27.4,547,27.4z M540.1,65.1c0,7.4-5.7,13.1-13.1,13.1
					c-7.4,0-13.1-5.8-13.1-13.1c0-7.3,5.8-13.1,13.1-13.1C534.4,52.1,540.1,57.8,540.1,65.1z"/>
				<path class="st0" d="M587.9,47.5c-3.9-2.8-8.4-4.3-13.1-4.3c-6.3,0-12.3,2.7-16.5,7.3c-4.2,4.7-6.1,10.7-5.5,17.1
					c1.2,11.3,10.6,19.7,22,19.7c0.2,0,0.5,0,0.7,0c4.6-0.1,9-1.7,12.7-4.6c0.3,0.6,0.8,1.1,1.5,1.4L594,86c0.5,0.2,1.1,0.3,1.6,0
					c0.8-0.3,1.2-1,1.2-1.8V44.7c0-0.5-0.4-1-1-1h-6.9c-0.5,0-1,0.4-1,1V47.5z M587.9,65.1c0,7.4-5.7,13.1-13.1,13.1
					s-13.1-5.8-13.1-13.1c0-7.3,5.8-13.1,13.1-13.1C582.1,52.1,587.9,57.8,587.9,65.1z"/>
				<g>
					<path class="st0" d="M623.1,84.6c0,1.1,0.9,2,2,2h4.9c1.1,0,2-0.9,2-2V45.8c0-1.1-0.9-2-2-2h-4.9c-1.1,0-2,0.9-2,2V84.6z"/>
					<path class="st0" d="M627.6,27.4c-3.4,0-6.1,2.6-6.1,5.9c0,3.4,2.7,6.1,6.1,6.1c3.2,0,6-2.8,6-6.1
						C633.5,30.3,630.6,27.4,627.6,27.4z"/>
				</g>
				<path class="st0" d="M657.7,43.2c-12.2,0-22.1,9.9-22.1,22c0,5.9,2.3,11.5,6.4,15.7c4.2,4.2,9.7,6.5,15.7,6.5
					c12.1,0,22-9.9,22-22.1C679.7,53,669.8,43.2,657.7,43.2z M657.7,78.3c-7.4,0-13.1-5.8-13.1-13.1c0-7.3,5.8-13.1,13.1-13.1
					c7.3,0,13.1,5.7,13.1,13.1C670.8,72.5,665,78.3,657.7,78.3z"/>
				<path class="st0" d="M702,43.2c-4,0-7.5,1-10.5,3.1c-0.3,0.2-0.6,0.2-0.9,0.1l-4.5-1.9c-0.6-0.3-1.3-0.2-1.9,0.2
					c-0.5,0.4-0.9,1-0.9,1.6v38.3c0,1.1,0.9,2,2,2h4.9c1.1,0,2-0.9,2-2V61.4c0-3.1,0.8-5.4,2.4-7s4.2-2.5,7.5-2.5l0,0
					c5.4,0,9.8,4.4,9.8,9.9v22.8c0,1.1,0.9,2,2,2h4.9c1.1,0,2-0.9,2-2V60.9C720.9,51.3,712.2,43.2,702,43.2z"/>
				<g>
					<path class="st0" d="M617.2,79.1c-0.5,0-1,0-1.4,0c-4.9,0-6.8-2.1-6.8-6.4V51.5h8c1.1,0,2-0.9,2-2v-3.6c0-1.1-0.9-2-2-2h-8
						V33.4c0-1.1-0.9-2-2-2h-4.7c-1.1,0-2,0.9-2,2V73c0,9.1,4.5,13.6,12.8,13.6c0.9,0,2.9-0.1,4.4-0.2c1.1-0.1,1.9-0.9,1.9-2v-1V81
						C619.4,79.7,618.6,79,617.2,79.1z"/>
				</g>
			</g>
		</g>
	</g>
	<g>
		<path class="st1" d="M81,13.7H67.9c-4.8,0-8.7-4.2-8.7-9.3V1.9c0-1.1-0.9-1.9-1.9-1.9h-2.5C35.5,0,21,4.5,11.8,13.3
			C4.8,20,0.9,29.1,0.1,40.4c0,0.1,0,0.3,0,0.4V41c0,0.4,0,0.9-0.1,1.3v0.3c0,0.3,0,0.6,0,0.9V85c0,16.4,12.8,29.8,28.6,29.8h52.5
			c15.8,0,28.6-13.4,28.6-29.8V43.5C109.7,27,96.8,13.7,81,13.7z M100.9,43.5V85c0,11.6-8.9,21-19.8,21H28.6
			c-10.9,0-19.8-9.4-19.8-21V43.5c0-0.1,0-0.2,0-0.2v-0.7c0-0.2,0-0.5,0-0.7v-0.8C9.5,30.9,13.4,23,20.4,17.7
			c7-5.4,17.2-8.3,30.4-8.8h0.1V9c2,8,9,13.6,17,13.6H81C92,22.5,100.9,31.9,100.9,43.5z"/>
		<g>
			<path class="st1" d="M73.4,68.8c-0.6,0-1.2,0.4-1.4,1c-0.9,3.7-3,6.9-5.9,9.3c-3.3,2.7-7.6,4.1-11.9,4
				c-8.1-0.2-14.9-5.7-16.8-13.3c-0.2-0.6-0.7-1-1.3-1h-5.8c-0.9,0-1.6,0.8-1.4,1.7C31.3,82.7,42,91.8,54.7,91.8
				c1.3,0,2.7-0.1,4.1-0.3c11-1.6,19.7-10.2,21.9-21c0.2-0.9-0.5-1.7-1.4-1.7H73.4z"/>
		</g>
	</g>
</g>
<g>
	<path class="st0" d="M637.3,109.9c-1.5,0-2.5,1.1-2.5,2.4c0,1.4,1.1,2.4,2.5,2.4c1.5,0,2.5-1.1,2.5-2.4
		C639.8,111,638.8,109.9,637.3,109.9z"/>
	<path class="st0" d="M650.6,99.4c1.6,0,3,0.8,3.7,2.3c0.2,0.5,0.6,0.8,1.1,0.8h2.7c0.7,0,1-0.4,0.8-1.1c-1.2-3.7-4.3-5.8-8.4-5.8
		c-5.5,0-9.4,4.1-9.4,9.6c0,5.4,4,9.6,9.4,9.6c4,0,7.1-2.1,8.4-5.8c0.2-0.6-0.1-1.1-0.8-1.1h-2.7c-0.5,0-0.9,0.3-1.1,0.8
		c-0.7,1.5-2.1,2.3-3.7,2.3c-2.9,0-5.1-2.5-5.1-5.8S647.6,99.4,650.6,99.4z"/>
	<path class="st0" d="M670.5,95.6c-5.7,0-10,4.2-10,9.6s4.3,9.6,10,9.6s10-4.2,10-9.6S676.1,95.6,670.5,95.6z M670.5,111
		c-3.1,0-5.6-2.5-5.6-5.8s2.4-5.8,5.6-5.8c3.1,0,5.6,2.5,5.6,5.8S673.6,111,670.5,111z"/>
	<path class="st0" d="M684,109.9c-1.5,0-2.5,1.1-2.5,2.4c0,1.4,1.1,2.4,2.5,2.4c1.5,0,2.5-1.1,2.5-2.4
		C686.5,111,685.5,109.9,684,109.9z"/>
	<path class="st0" d="M702.1,95.9h-2.5c-0.6,0-1,0.3-1,1v11.4c0,1.6-1.2,2.7-2.7,2.7s-2.7-1.1-2.7-2.7V96.9c0-0.6-0.3-1-1-1h-2.5
		c-0.6,0-1,0.3-1,1v11.4c0,3.8,3.2,6.4,7.1,6.4c4,0,7.1-2.7,7.1-6.4V96.9C703.1,96.3,702.8,95.9,702.1,95.9z"/>
	<path class="st0" d="M720.7,113.3l-4.1-8c2.1-1.5,3.1-4.2,3.3-8.4c0-0.6-0.3-1-1-1h-2.5c-0.6,0-0.9,0.3-1,1
		c-0.1,4.4-1.4,5.9-4.1,5.9h-0.9v-6c0-0.6-0.3-1-1-1h-2.5c-0.6,0-1,0.3-1,1v16.6c0,0.6,0.3,1,1,1h2.5c0.6,0,1-0.3,1-1v-6.9h1.3
		c0.3,0,0.5,0,0.7,0l3.7,7.2c0.2,0.5,0.6,0.7,1.1,0.7h2.7C720.8,114.4,721.1,114,720.7,113.3z"/>
</g>
</svg>
