<?xml version="1.0" encoding="UTF-8"?>
<svg width="15px" height="12px" viewBox="0 0 15 12" version="1.1" xmlns="http://www.w3.org/2000/svg" xmlns:xlink="http://www.w3.org/1999/xlink">
    <!-- Generator: Sketch 50.2 (55047) - http://www.bohemiancoding.com/sketch -->
    <title>paw</title>
    <desc>Created with Sketch.</desc>
    <defs></defs>
    <g id="Symbols" stroke="none" stroke-width="1" fill="none" fill-rule="evenodd">
        <g id="paw" transform="translate(1.000000, 1.000000)" stroke="#AFAFAF">
            <g>
                <path d="M6.33995374,9.5 C5.48224163,9.5 4.09818425,10.6846285 2.90391494,9.65644474 C1.77571497,8.68511961 3.03988563,5.03726147 6.33383843,5.03726147 C9.73178435,5.03726147 10.8879977,8.68149034 9.76349763,9.65644474 C8.61111628,10.6557043 7.19753372,9.5 6.33995374,9.5 Z" id="Fill-1"></path>
                <path d="M5.50411166,1.4381166 C5.6705534,2.34194352 5.33908344,3.16991165 4.76378165,3.28723364 C4.18836206,3.40455563 3.58714576,2.76682345 3.42070403,1.86299653 C3.25449788,0.959169607 3.58573225,0.13120148 4.16115184,0.0138794921 C4.73657143,-0.103324703 5.33766993,0.534171883 5.50411166,1.4381166" id="Fill-4"></path>
                <path d="M1.8393186,3.67935428 C2.26384516,4.29623706 2.2683213,5.05564957 1.84909544,5.37522242 C1.42986958,5.69479526 0.745962486,5.45379045 0.321318142,4.83714326 C-0.10320841,4.22026047 -0.10768455,3.46084797 0.311541309,3.14127512 C0.730884962,2.82170228 1.41455647,3.06258929 1.8393186,3.67935428" id="Fill-6"></path>
                <path d="M7.70010096,1.4381166 C7.53354143,2.34194352 7.86489359,3.16991165 8.44043098,3.28723364 C9.01585057,3.40455563 9.61683127,2.76682345 9.7835086,1.86299653 C9.94959695,0.959169607 9.61836258,0.13120148 9.0428252,0.0138794921 C8.4675234,-0.103324703 7.8664249,0.534171883 7.70010096,1.4381166" id="Fill-9"></path>
                <path d="M11.3213778,3.67935428 C10.8968512,4.29623706 10.8922573,5.05564957 11.3114832,5.37522242 C11.7308268,5.69479526 12.4146161,5.45379045 12.839496,4.83714326 C13.2639048,4.22026047 13.2682632,3.46084797 12.8491551,3.14127512 C12.4298114,2.82170228 11.7461399,3.06258929 11.3213778,3.67935428" id="Fill-11"></path>
            </g>
        </g>
    </g>
</svg>