<?xml version="1.0" standalone="no"?>
<!DOCTYPE svg PUBLIC "-//W3C//DTD SVG 1.1//EN" "http://www.w3.org/Graphics/SVG/1.1/DTD/svg11.dtd" >
<svg>
<metadata>
Created by FontForge 20090622 at Tue Dec  5 09:15:48 2017
 By deploy user
Copyright (c) 2017 by Lee, Hyun-Seung. All rights reserved.
</metadata>
<defs>
<font id="CarosSoft" horiz-adv-x="792" >
  <font-face 
    font-family="Caros Soft"
    font-weight="400"
    font-stretch="normal"
    units-per-em="2000"
    panose-1="2 15 5 3 3 3 2 2 2 4"
    ascent="1600"
    descent="-400"
    x-height="1036"
    cap-height="1400"
    bbox="-746.062 -520 2484 1989.25"
    underline-thickness="48"
    underline-position="-366"
    unicode-range="U+0009-U+FB04"
  />
<missing-glyph horiz-adv-x="1000" 
d="M178 0q-48 0 -48 48v1404q0 48 48 48h644q48 0 48 -48v-1404q0 -48 -48 -48h-644zM717 146v1207h-434v-1207h434z" />
    <glyph glyph-name="ff" unicode="ff" horiz-adv-x="1426" 
d="M1381 1345q0 -49 -45 -46q-16 1 -46 1q-109 0 -156.5 -50t-47.5 -153v-61h247q48 0 48 -48v-64q0 -48 -48 -48h-247v-828q0 -48 -48 -48h-86q-48 0 -48 48v828h-498v-828q0 -48 -48 -48h-86q-48 0 -48 48v828h-131q-48 0 -48 48v64q0 48 48 48h131v63q0 184 92.5 272.5
t288.5 88.5q56 0 107 -9q46 -8 37 -56l-11 -61q-9 -45 -56 -39q-37 5 -68 5q-111 0 -159.5 -50t-48.5 -153v-61h498v63q0 183 91 272t280 89q33 0 61 -3q45 -3 45 -50v-62z" />
    <glyph glyph-name="fi" unicode="fi" horiz-adv-x="1256" 
d="M406 1036h632q48 0 48 -48v-940q0 -48 -48 -48h-86q-48 0 -48 48v828h-498v-828q0 -48 -48 -48h-86q-48 0 -48 48v828h-131q-48 0 -48 48v64q0 48 48 48h131v63q0 184 91.5 272.5t282.5 88.5q33 0 63 -3q45 -3 45 -50v-62q0 -49 -46 -46q-16 1 -47 1q-110 0 -158.5 -50
t-48.5 -153v-61zM875 1325q0 51 34.5 85.5t85.5 34.5t85.5 -34.5t34.5 -85.5q0 -50 -34.5 -84.5t-85.5 -34.5t-85.5 34.5t-34.5 84.5z" />
    <glyph glyph-name="fl" unicode="fl" horiz-adv-x="1256" 
d="M904 1183q-127 117 -294 117q-109 0 -156.5 -50t-47.5 -153v-61h287q48 0 48 -48v-64q0 -48 -48 -48h-287v-828q0 -48 -48 -48h-86q-48 0 -48 48v828h-161q-48 0 -48 48v64q0 48 48 48h161v63q0 183 91 272t280 89q86 0 166.5 -31t142.5 -89v72q0 48 48 48h86
q48 0 48 -48v-1364q0 -48 -48 -48h-86q-48 0 -48 48v1135z" />
    <glyph glyph-name="ffi" unicode="ffi" horiz-adv-x="1936" 
d="M406 1036h498v63q0 184 91.5 272.5t282.5 88.5q33 0 63 -3q45 -3 45 -50v-62q0 -49 -46 -46q-16 1 -47 1q-110 0 -158.5 -50t-48.5 -153v-61h632q48 0 48 -48v-940q0 -48 -48 -48h-86q-48 0 -48 48v828h-498v-828q0 -48 -48 -48h-86q-48 0 -48 48v828h-498v-828
q0 -48 -48 -48h-86q-48 0 -48 48v828h-131q-48 0 -48 48v64q0 48 48 48h131v63q0 184 92.5 272.5t288.5 88.5q56 0 107 -9q46 -8 37 -56l-11 -61q-9 -45 -56 -39q-37 5 -68 5q-111 0 -159.5 -50t-48.5 -153v-61zM1555 1325q0 51 34.5 85.5t85.5 34.5t85.5 -34.5t34.5 -85.5
q0 -50 -34.5 -84.5t-85.5 -34.5t-85.5 34.5t-34.5 84.5z" />
    <glyph glyph-name="ffl" unicode="ffl" horiz-adv-x="1936" 
d="M1584 1183q-142 117 -294 117q-109 0 -156.5 -50t-47.5 -153v-61h287q48 0 48 -48v-64q0 -48 -48 -48h-287v-828q0 -48 -48 -48h-86q-48 0 -48 48v828h-498v-828q0 -48 -48 -48h-86q-48 0 -48 48v828h-131q-48 0 -48 48v64q0 48 48 48h131v63q0 184 92.5 272.5
t288.5 88.5q56 0 107 -9q46 -8 37 -56l-11 -61q-9 -45 -56 -39q-37 5 -68 5q-111 0 -159.5 -50t-48.5 -153v-61h498v63q0 183 91 272t280 89q180 0 309 -120v72q0 48 48 48h86q48 0 48 -48v-1364q0 -48 -48 -48h-86q-48 0 -48 48v1135z" />
    <glyph glyph-name=".notdef" horiz-adv-x="1000" 
d="M178 0q-48 0 -48 48v1404q0 48 48 48h644q48 0 48 -48v-1404q0 -48 -48 -48h-644zM717 146v1207h-434v-1207h434z" />
    <glyph glyph-name=".null" horiz-adv-x="0" 
 />
    <glyph glyph-name=".null" horiz-adv-x="0" 
 />
    <glyph glyph-name="nonmarkingreturn" horiz-adv-x="666" 
 />
    <glyph glyph-name="CR" unicode="&#x9;" horiz-adv-x="0" 
 />
    <glyph glyph-name="space" unicode=" " horiz-adv-x="594" 
 />
    <glyph glyph-name="exclam" unicode="!" horiz-adv-x="618" 
d="M216 1351q-1 23 12 36t36 13h90q23 0 36 -13t12 -36l-28 -910q-2 -47 -48 -47h-34q-46 0 -48 47zM185 100q0 53 35.5 88.5t88.5 35.5t88.5 -35.5t35.5 -88.5t-35.5 -88.5t-88.5 -35.5t-88.5 35.5t-35.5 88.5z" />
    <glyph glyph-name="quotedbl" unicode="&#x22;" horiz-adv-x="963" 
d="M226 1351q-1 23 11.5 36t35.5 13h82q23 0 35.5 -13t11.5 -36l-24 -391q-3 -46 -50 -46h-28q-47 0 -50 46zM560 1351q-1 23 11.5 36t35.5 13h82q23 0 35.5 -13t11.5 -36l-24 -391q-3 -46 -50 -46h-28q-47 0 -50 46z" />
    <glyph glyph-name="numbersign" unicode="#" horiz-adv-x="1367" 
d="M285 359h-161q-48 0 -48 48v57q0 48 48 48h187l65 376h-178q-48 0 -48 48v57q0 48 48 48h204l54 315q8 44 52 44h82q25 0 36.5 -14t7.5 -38l-53 -307h321l54 315q8 44 52 44h82q25 0 36.5 -14t7.5 -38l-53 -307h162q48 0 48 -48v-57q0 -48 -48 -48h-188l-65 -376h179
q48 0 48 -48v-57q0 -48 -48 -48h-205l-54 -315q-8 -44 -51 -44h-82q-25 0 -36.5 14t-7.5 38l52 307h-321l-54 -315q-8 -44 -51 -44h-82q-25 0 -36.5 14t-7.5 38zM490 512h321l65 376h-321z" />
    <glyph glyph-name="dollar" unicode="$" horiz-adv-x="1176" 
d="M189 292q33 36 68 1q132 -128 285 -148v505q-202 46 -305.5 147t-103.5 248q0 160 113 263.5t296 114.5v133q0 48 48 48h35q48 0 48 -48v-139q73 -11 136.5 -37t116 -67t87 -102t42.5 -135q3 -24 -9.5 -37t-36.5 -13h-96q-42 0 -50 46q-13 70 -63.5 115t-126.5 62v-456
q218 -54 317.5 -157.5t99.5 -261.5q0 -160 -112 -267.5t-305 -126.5v-136q0 -48 -48 -48h-35q-48 0 -48 48v135q-222 23 -389 208q-30 33 1 67zM324 1058q0 -155 218 -229v426q-99 -11 -158.5 -64.5t-59.5 -132.5zM899 373q0 169 -226 243v-467q103 18 164.5 77.5
t61.5 146.5z" />
    <glyph glyph-name="percent" unicode="%" horiz-adv-x="1811" 
d="M92 1063q0 146 104.5 248.5t261.5 102.5t261.5 -102.5t104.5 -248.5t-104.5 -248.5t-261.5 -102.5t-261.5 102.5t-104.5 248.5zM1160 1382q22 43 65 21l65 -33q43 -22 21 -65l-662 -1286q-22 -43 -65 -21l-64 33q-43 22 -21 65zM269 1063q0 -79 53 -138t136 -59t136 59
t53 138t-53 138t-136 59t-136 -59t-53 -138zM987 337q0 146 104.5 248.5t261.5 102.5t261.5 -102.5t104.5 -248.5t-104.5 -248.5t-261.5 -102.5t-261.5 102.5t-104.5 248.5zM1164 337q0 -79 53 -138t136 -59t136 59t53 138t-53 138t-136 59t-136 -59t-53 -138z" />
    <glyph glyph-name="ampersand" unicode="&#x26;" horiz-adv-x="1465" 
d="M870 1069q-40 0 -54 41q-25 75 -80.5 119t-128.5 44q-84 0 -142 -54.5t-58 -128.5q0 -62 44 -125.5t155 -165.5l408 -375q47 81 76 234q8 44 51 44h71q24 0 36.5 -13t10.5 -37q-18 -187 -111 -353l181 -166q35 -32 3 -68l-52 -55q-32 -35 -68 -3l-174 159
q-185 -190 -442 -190q-203 0 -338 114.5t-135 283.5q0 238 262 399q-85 88 -121 160t-36 155q0 143 111 239.5t268 96.5q138 0 241 -75t143 -226q7 -25 -5 -39.5t-37 -14.5h-79zM596 136q84 0 166.5 37.5t149.5 109.5l-410 377q-197 -117 -197 -274q0 -105 82.5 -177.5
t208.5 -72.5z" />
    <glyph glyph-name="quotesingle" unicode="'" horiz-adv-x="628" 
d="M226 1351q-1 23 11.5 36t35.5 13h82q23 0 35.5 -13t11.5 -36l-24 -391q-3 -46 -50 -46h-28q-47 0 -50 46z" />
    <glyph glyph-name="parenleft" unicode="(" horiz-adv-x="831" 
d="M240 610q0 254 89 488.5t250 408.5q30 34 67 5l54 -41q39 -30 6 -67q-134 -161 -206 -368t-72 -426t72 -426t206 -368q33 -37 -6 -67l-54 -41q-36 -29 -65 2q-162 175 -251.5 410t-89.5 490z" />
    <glyph glyph-name="parenright" unicode=")" horiz-adv-x="831" 
d="M591 610q0 -254 -89 -488.5t-250 -408.5q-30 -34 -67 -5l-54 41q-39 30 -6 67q134 161 206 368t72 426t-72 426t-206 368q-33 37 6 67l54 41q36 29 65 -2q162 -175 251.5 -410t89.5 -490z" />
    <glyph glyph-name="asterisk" unicode="*" horiz-adv-x="1110" 
d="M481 794l-3 264q0 48 47 48h60q47 0 47 -48l-3 -264l228 135q43 25 66 -17l29 -50q23 -42 -18 -66l-233 -132l233 -132q41 -24 18 -66l-29 -50q-23 -42 -66 -17l-228 135l3 -264q0 -48 -47 -48h-60q-47 0 -47 48l3 264l-228 -135q-43 -25 -66 17l-29 50q-23 42 18 66
l233 132l-233 132q-41 24 -18 66l29 50q23 42 66 17z" />
    <glyph glyph-name="plus" unicode="+" horiz-adv-x="1148" 
d="M483 586h-316q-48 0 -48 48v61q0 48 48 48h316v327q0 48 48 48h86q48 0 48 -48v-327h316q48 0 48 -48v-61q0 -48 -48 -48h-316v-328q0 -48 -48 -48h-86q-48 0 -48 48v328z" />
    <glyph glyph-name="comma" unicode="," horiz-adv-x="594" 
d="M172 110q0 47 36.5 81.5t89.5 34.5q56 0 91 -39t35 -112q0 -213 -207 -343q-38 -23 -67 11q-29 35 6 69q69 63 75 113.5t-42 126.5q-17 30 -17 58z" />
    <glyph glyph-name="hyphen" unicode="-" horiz-adv-x="804" 
d="M166 578q-48 0 -48 48v76q0 48 48 48h472q48 0 48 -48v-76q0 -48 -48 -48h-472z" />
    <glyph glyph-name="period" unicode="." horiz-adv-x="594" 
d="M172 101q0 53 36 89t89 36t89 -36t36 -89t-36 -89t-89 -36t-89 36t-36 89z" />
    <glyph glyph-name="slash" unicode="/" horiz-adv-x="914" 
d="M229 -236q-17 -43 -62 -28l-79 28q-45 17 -29 61l626 1631q17 43 62 28l78 -28q46 -16 29 -61z" />
    <glyph glyph-name="zero" unicode="0" horiz-adv-x="1188" 
d="M121 700q0 155 29.5 285.5t86.5 229t148.5 154t208.5 55.5t208.5 -55.5t148.5 -154t86.5 -229t29.5 -285.5t-29.5 -285.5t-86.5 -229t-148.5 -154t-208.5 -55.5t-208.5 55.5t-148.5 154t-86.5 229t-29.5 285.5zM306 700q0 -167 29.5 -288.5t95 -194t163.5 -72.5
t163.5 72.5t95 194t29.5 288.5t-29.5 288.5t-95 194t-163.5 72.5t-163.5 -72.5t-95 -194t-29.5 -288.5z" />
    <glyph glyph-name="one" unicode="1" horiz-adv-x="1188" 
d="M711 1400q48 0 48 -48v-1304q0 -48 -48 -48h-89q-48 0 -48 48v1166l-223 -122q-43 -24 -66 18l-30 54q-23 42 19 65l287 156q27 15 60 15h90z" />
    <glyph glyph-name="two" unicode="2" horiz-adv-x="1188" 
d="M430 160h539q48 0 48 -48v-64q0 -48 -48 -48h-734q-48 0 -48 48v70q0 33 23 59l478 527q85 94 121.5 168.5t36.5 152.5q0 105 -70.5 172t-180.5 67q-93 0 -166 -58t-101 -163q-12 -43 -53 -43h-74q-24 0 -36 13.5t-8 37.5q28 159 142.5 266t295.5 107q190 0 313 -110
t123 -288q0 -112 -47 -208t-152 -213z" />
    <glyph glyph-name="three" unicode="3" horiz-adv-x="1188" 
d="M840 434q0 124 -89 211t-221 87q-24 0 -43 -4q-42 -6 -64 22l-21 28q-26 34 1 67l332 392h-506q-48 0 -48 48v67q0 48 48 48h683q48 0 48 -48v-81q0 -34 -22 -60l-312 -360q178 -13 288.5 -135.5t110.5 -298.5q0 -84 -35 -163t-97 -141t-155 -99.5t-202 -37.5
q-229 0 -386 213q-28 37 9 67l33 26q36 30 67 -9q113 -137 271 -137q132 0 221 86.5t89 211.5z" />
    <glyph glyph-name="four" unicode="4" horiz-adv-x="1188" 
d="M79 418q0 32 18 60l600 891q21 31 58 31h100q48 0 48 -48v-899h117q48 0 48 -48v-73q0 -48 -48 -48h-117v-236q0 -48 -48 -48h-89q-48 0 -48 48v236h-591q-48 0 -48 48v86zM718 451v645l-434 -645h434z" />
    <glyph glyph-name="five" unicode="5" horiz-adv-x="1188" 
d="M556 -24q-234 0 -386 209q-27 38 10 67l38 29q37 29 67 -10q108 -135 265 -135q132 0 219.5 85.5t87.5 212.5t-87.5 212.5t-219.5 85.5q-62 0 -115.5 -22.5t-88.5 -60.5q-28 -28 -62 -24l-45 5q-47 6 -42 53l74 672q5 45 50 45h621q48 0 48 -48v-67q0 -48 -48 -48h-502
l-49 -415q79 67 203 67q121 0 222.5 -54t163.5 -158.5t62 -238.5q0 -204 -133.5 -333t-352.5 -129z" />
    <glyph glyph-name="six" unicode="6" horiz-adv-x="1188" 
d="M489 863q51 31 127 31q188 0 324.5 -130.5t136.5 -327.5q0 -130 -68 -237t-178.5 -165t-238.5 -58t-239 58t-179 165t-68 237q0 135 69 242l444 690q20 32 57 32h91q29 0 38.5 -16.5t-6.5 -41.5zM892 436q0 127 -87.5 214t-212.5 87t-213 -87t-88 -214q0 -126 87.5 -213
t213.5 -87q125 0 212.5 87t87.5 213z" />
    <glyph glyph-name="seven" unicode="7" horiz-adv-x="1188" 
d="M978 1400q48 0 48 -48v-77q0 -32 -12 -59l-494 -1179q-15 -37 -56 -37h-107q-27 0 -37 15t0 41l498 1181h-601q-48 0 -48 48v67q0 48 48 48h761z" />
    <glyph glyph-name="eight" unicode="8" horiz-adv-x="1188" 
d="M594 -24q-202 0 -340 124.5t-138 307.5q0 126 71.5 224t194.5 138q-85 35 -139.5 115t-54.5 173q0 154 115.5 260t290.5 106t290.5 -106t115.5 -260q0 -93 -54.5 -173t-139.5 -115q123 -40 194.5 -138t71.5 -224q0 -183 -138 -307.5t-340 -124.5zM594 841q95 0 161 63
t66 150t-66 148.5t-161 61.5t-161 -61.5t-66 -148.5t66 -150t161 -63zM594 687q-124 0 -208.5 -81t-84.5 -195t84.5 -194.5t208.5 -80.5t208.5 80.5t84.5 194.5t-84.5 195t-208.5 81z" />
    <glyph glyph-name="nine" unicode="9" horiz-adv-x="1188" 
d="M699 537q-51 -31 -127 -31q-188 0 -324.5 130.5t-136.5 327.5q0 130 68 237t178.5 165t238.5 58t239 -58t179 -165t68 -237q0 -135 -69 -242l-444 -690q-20 -32 -57 -32h-91q-29 0 -38.5 16.5t6.5 41.5zM296 964q0 -127 87.5 -214t212.5 -87t213 87t88 214
q0 126 -87.5 213t-213.5 87q-125 0 -212.5 -87t-87.5 -213z" />
    <glyph glyph-name="colon" unicode=":" horiz-adv-x="594" 
d="M172 935q0 53 36 89t89 36t89 -36t36 -89t-36 -89t-89 -36t-89 36t-36 89zM172 101q0 53 36 89t89 36t89 -36t36 -89t-36 -89t-89 -36t-89 36t-36 89z" />
    <glyph glyph-name="semicolon" unicode=";" horiz-adv-x="594" 
d="M172 935q0 53 36 89t89 36t89 -36t36 -89t-36 -89t-89 -36t-89 36t-36 89zM172 110q0 47 36.5 81.5t89.5 34.5q56 0 91 -39t35 -112q0 -213 -207 -343q-38 -23 -67 11q-29 35 6 69q69 63 75 113.5t-42 126.5q-17 30 -17 58z" />
    <glyph glyph-name="less" unicode="&#x3c;" horiz-adv-x="1148" 
d="M140 708q0 37 33 57l689 406q42 25 65 -20l25 -51q20 -41 -18 -65l-585 -372l585 -373q38 -24 18 -65l-25 -51q-23 -45 -65 -20l-689 406q-33 20 -33 57v91z" />
    <glyph glyph-name="equal" unicode="=" horiz-adv-x="1148" 
d="M167 812q-48 0 -48 48v61q0 48 48 48h814q48 0 48 -48v-61q0 -48 -48 -48h-814zM167 360q-48 0 -48 48v61q0 48 48 48h814q48 0 48 -48v-61q0 -48 -48 -48h-814z" />
    <glyph glyph-name="greater" unicode="&#x3e;" horiz-adv-x="1148" 
d="M1012 617q0 -37 -33 -57l-689 -406q-42 -25 -65 20l-25 51q-20 41 18 65l585 373l-585 372q-38 24 -18 65l25 51q23 45 65 20l689 -406q33 -20 33 -57v-91z" />
    <glyph glyph-name="question" unicode="?" horiz-adv-x="1093" 
d="M481 400q-49 0 -47 49q5 146 51.5 225.5t164.5 151.5q92 56 129.5 105t37.5 127q0 88 -73 144t-189 56q-109 0 -185.5 -56t-91.5 -154q-8 -46 -50 -46h-96q-24 0 -36.5 13t-9.5 37q8 73 38.5 134.5t76.5 104.5t105.5 73.5t124.5 45t133 14.5q197 0 320.5 -105.5
t123.5 -273.5q0 -122 -54 -201t-194 -158q-82 -46 -109.5 -96.5t-29.5 -141.5q-2 -48 -49 -48h-91zM403 100q0 53 35.5 88.5t88.5 35.5t88.5 -35.5t35.5 -88.5t-35.5 -88.5t-88.5 -35.5t-88.5 35.5t-35.5 88.5z" />
    <glyph glyph-name="at" unicode="@" horiz-adv-x="1920" 
d="M1443 112q-73 0 -138.5 40.5t-97.5 102.5q-50 -66 -122 -104.5t-155 -38.5q-113 0 -205.5 57.5t-144 155.5t-51.5 213t51.5 213t144 155.5t205.5 57.5q158 0 266 -131v63q0 48 48 48h58q48 0 48 -48v-526q0 -51 30 -85t82 -34q96 0 162.5 92t66.5 250q0 144 -59 273
t-158 220.5t-234 145t-283 53.5t-283 -57.5t-232.5 -155t-155 -234t-57.5 -288.5t57.5 -288t157 -234t239.5 -155.5t298 -57.5q243 0 443 124q43 28 65 -18l20 -41q19 -41 -19 -65q-242 -139 -509 -139q-191 0 -359.5 67t-288.5 182.5t-189.5 278t-69.5 346.5q0 183 70 346
t188.5 278.5t281.5 182.5t343 67q187 0 352 -63.5t283 -173t186 -264t68 -330.5q0 -216 -113 -348.5t-290 -132.5zM941 825q-113 0 -184.5 -82.5t-71.5 -204.5t71.5 -204.5t184.5 -82.5q112 0 183.5 82t71.5 205t-71.5 205t-183.5 82z" />
    <glyph glyph-name="A" unicode="A" horiz-adv-x="1362" 
d="M1150 0q-42 0 -55 39l-116 322h-596l-116 -322q-13 -39 -55 -39h-105q-26 0 -36.5 15t-1.5 40l493 1307q15 38 55 38h128q40 0 55 -38l493 -1307q9 -25 -1.5 -40t-36.5 -15h-105zM923 524l-242 668l-242 -668h484z" />
    <glyph glyph-name="B" unicode="B" horiz-adv-x="1235" 
d="M216 0q-48 0 -48 48v1304q0 48 48 48h444q187 0 293 -100.5t106 -270.5q0 -108 -51.5 -181.5t-137.5 -104.5q115 -25 192 -117t77 -227q0 -178 -114 -288.5t-305 -110.5h-504zM868 1020q0 102 -61 159.5t-160 57.5h-291v-433h291q100 0 160.5 57t60.5 159zM948 405
q0 110 -67.5 176t-176.5 66h-348v-484h348q109 0 176.5 66t67.5 176z" />
    <glyph glyph-name="C" unicode="C" horiz-adv-x="1517" 
d="M81 700q0 156 55 292t149.5 230t223.5 148t273 54q234 0 403.5 -117.5t235.5 -321.5q8 -24 -3.5 -39t-37.5 -15h-98q-38 0 -55 39q-55 137 -174.5 212.5t-264.5 75.5q-79 0 -154 -22.5t-141 -69t-115 -112t-77.5 -157t-28.5 -197.5q0 -132 43.5 -240.5t116 -176.5
t164 -104.5t191.5 -36.5q146 0 270.5 69.5t206.5 188.5q29 39 67 13l47 -33q39 -28 15 -67q-105 -168 -261 -252.5t-350 -84.5q-144 0 -273 54t-223.5 148t-149.5 230t-55 292z" />
    <glyph glyph-name="D" unicode="D" horiz-adv-x="1413" 
d="M643 1400q316 0 502.5 -189.5t186.5 -510.5t-186.5 -510.5t-502.5 -189.5h-427q-48 0 -48 48v1304q0 48 48 48h427zM356 1234v-1068h287q227 0 362.5 138.5t135.5 395.5t-135.5 395.5t-362.5 138.5h-287z" />
    <glyph glyph-name="E" unicode="E" horiz-adv-x="1129" 
d="M168 1352q0 48 48 48h731q48 0 48 -48v-67q0 -48 -48 -48h-591v-452h540q48 0 48 -48v-67q0 -48 -48 -48h-540v-459h609q48 0 48 -48v-67q0 -48 -48 -48h-749q-48 0 -48 48v1304z" />
    <glyph glyph-name="F" unicode="F" horiz-adv-x="1057" 
d="M168 1352q0 48 48 48h711q48 0 48 -48v-67q0 -48 -48 -48h-571v-451h520q48 0 48 -48v-67q0 -48 -48 -48h-520v-575q0 -48 -48 -48h-92q-48 0 -48 48v1304z" />
    <glyph glyph-name="G" unicode="G" horiz-adv-x="1541" 
d="M1279 948q-40 0 -56 38q-56 126 -173.5 198.5t-261.5 72.5q-75 0 -148 -22.5t-139.5 -69t-117.5 -111t-81 -156.5t-30 -198q0 -128 46 -235.5t122.5 -177t172.5 -107.5t198 -38q117 0 216.5 52t162 147t69.5 215h-442q-48 0 -48 48v60q0 48 48 48h595q48 0 48 -48v-2
q0 -162 -51 -293t-140 -216.5t-207 -131t-255 -45.5q-144 0 -277 55.5t-232 150.5t-158 230.5t-59 287.5q0 156 57.5 292.5t153.5 230t223.5 147.5t266.5 54q241 0 407.5 -118t232.5 -304q8 -24 -3.5 -39t-37.5 -15h-102z" />
    <glyph glyph-name="H" unicode="H" horiz-adv-x="1394" 
d="M168 1352q0 48 48 48h92q48 0 48 -48v-567h682v567q0 48 48 48h92q48 0 48 -48v-1304q0 -48 -48 -48h-92q-48 0 -48 48v574h-682v-574q0 -48 -48 -48h-92q-48 0 -48 48v1304z" />
    <glyph glyph-name="I" unicode="I" horiz-adv-x="570" 
d="M331 1400q48 0 48 -48v-1304q0 -48 -48 -48h-92q-48 0 -48 48v1304q0 48 48 48h92z" />
    <glyph glyph-name="J" unicode="J" horiz-adv-x="909" 
d="M566 1352q0 48 48 48h92q48 0 48 -48v-921q0 -455 -428 -455q-121 0 -234 67q-35 22 -20 64l19 49q16 44 63 24q86 -38 168 -38q244 0 244 289v921z" />
    <glyph glyph-name="K" unicode="K" horiz-adv-x="1201" 
d="M356 785h70q227 0 345 133.5t127 431.5q2 49 49 49h92q49 0 47 -49q-13 -520 -328 -669l403 -623q16 -25 7 -41.5t-38 -16.5h-115q-37 0 -57 32l-382 597q-50 -7 -112 -7h-108v-574q0 -48 -48 -48h-92q-48 0 -48 48v1304q0 48 48 48h92q48 0 48 -48v-567z" />
    <glyph glyph-name="L" unicode="L" horiz-adv-x="1030" 
d="M168 1352q0 48 48 48h92q48 0 48 -48v-1189h579q48 0 48 -48v-67q0 -48 -48 -48h-719q-48 0 -48 48v1304z" />
    <glyph glyph-name="M" unicode="M" horiz-adv-x="1798" 
d="M892 162q-38 0 -57 33l-485 834v-981q0 -48 -48 -48h-86q-48 0 -48 48v1304q0 48 48 48h89q38 0 57 -33l537 -928l537 928q19 33 57 33h89q48 0 48 -48v-1304q0 -48 -48 -48h-86q-48 0 -48 48v981l-485 -834q-19 -33 -57 -33h-14z" />
    <glyph glyph-name="N" unicode="N" horiz-adv-x="1399" 
d="M168 1352q0 48 48 48h96q37 0 57 -31l680 -1043v1026q0 48 48 48h86q48 0 48 -48v-1304q0 -48 -48 -48h-96q-37 0 -57 31l-680 1043v-1026q0 -48 -48 -48h-86q-48 0 -48 48v1304z" />
    <glyph glyph-name="O" unicode="O" horiz-adv-x="1634" 
d="M817 1424q153 0 289.5 -56t234.5 -152.5t155 -230.5t57 -285t-57 -285t-155 -230.5t-234.5 -152.5t-289.5 -56t-289.5 56t-234.5 152.5t-155 230.5t-57 285t57 285t155 230.5t234.5 152.5t289.5 56zM817 142q228 0 386.5 162t158.5 396t-158.5 396t-386.5 162
t-386.5 -162t-158.5 -396t158.5 -396t386.5 -162z" />
    <glyph glyph-name="P" unicode="P" horiz-adv-x="1170" 
d="M356 528v-480q0 -48 -48 -48h-92q-48 0 -48 48v1304q0 48 48 48h399q222 0 351.5 -118.5t129.5 -317.5t-129.5 -317.5t-351.5 -118.5h-259zM905 964q0 126 -78.5 199.5t-218.5 73.5h-252v-546h252q140 0 218.5 73.5t78.5 199.5z" />
    <glyph glyph-name="Q" unicode="Q" horiz-adv-x="1634" 
d="M817 1424q153 0 289.5 -56t234.5 -152.5t155 -230.5t57 -285q0 -147 -53.5 -277.5t-150.5 -229.5l166 -179q33 -36 -2 -68l-51 -46q-35 -32 -68 3l-174 187q-182 -114 -403 -114q-153 0 -289.5 56t-234.5 152.5t-155 230.5t-57 285t57 285t155 230.5t234.5 152.5
t289.5 56zM817 142q152 0 282 79l-213 231q-33 36 2 68l51 46q35 32 67 -3l219 -236q137 158 137 373q0 234 -158.5 396t-386.5 162t-386.5 -162t-158.5 -396t158.5 -396t386.5 -162z" />
    <glyph glyph-name="R" unicode="R" horiz-adv-x="1200" 
d="M356 528v-480q0 -48 -48 -48h-92q-48 0 -48 48v1304q0 48 48 48h399q222 0 351.5 -118.5t129.5 -317.5q0 -168 -94 -280t-259 -144l338 -482q17 -24 8 -41t-38 -17h-100q-37 0 -58 30l-349 498h-188zM905 964q0 126 -78.5 199.5t-218.5 73.5h-252v-546h252
q140 0 218.5 73.5t78.5 199.5z" />
    <glyph glyph-name="S" unicode="S" horiz-adv-x="1176" 
d="M189 292q33 36 68 1q156 -151 332 -151q138 0 224 63.5t86 167.5q0 99 -78 167t-255 105q-214 45 -323.5 147t-109.5 253q0 168 123.5 273.5t320.5 105.5q86 0 165.5 -21.5t146.5 -62.5t111.5 -109.5t54.5 -154.5q3 -24 -9.5 -37t-36.5 -13h-96q-42 0 -50 46
q-17 89 -92.5 137.5t-184.5 48.5q-116 0 -189 -56t-73 -144q0 -95 79 -158t242 -100q234 -53 339.5 -158t105.5 -268q0 -177 -133.5 -287.5t-358.5 -110.5q-129 0 -243 56.5t-202 154.5q-30 33 1 67z" />
    <glyph glyph-name="T" unicode="T" horiz-adv-x="1098" 
d="M455 1237h-345q-48 0 -48 48v67q0 48 48 48h878q48 0 48 -48v-67q0 -48 -48 -48h-345v-1189q0 -48 -48 -48h-92q-48 0 -48 48v1189z" />
    <glyph glyph-name="U" unicode="U" horiz-adv-x="1326" 
d="M1171 489q0 -152 -67.5 -269t-182.5 -179.5t-258 -62.5t-258 62.5t-182.5 179.5t-67.5 269v863q0 48 48 48h92q48 0 48 -48v-884q0 -144 91 -234t229 -90t229 90t91 234v884q0 48 48 48h92q48 0 48 -48v-863z" />
    <glyph glyph-name="V" unicode="V" horiz-adv-x="1360" 
d="M680 237l417 1125q15 38 55 38h102q26 0 36.5 -15t1.5 -40l-493 -1307q-15 -38 -55 -38h-128q-40 0 -55 38l-493 1307q-9 25 1.5 40t36.5 15h102q40 0 55 -38z" />
    <glyph glyph-name="W" unicode="W" horiz-adv-x="1934" 
d="M1019 1400q43 0 54 -40l312 -1085l293 1084q10 41 53 41h100q26 0 37 -14.5t4 -39.5l-375 -1306q-11 -40 -54 -40h-104q-43 0 -54 40l-318 1101l-318 -1101q-11 -40 -54 -40h-104q-43 0 -54 40l-375 1306q-7 25 4 39.5t37 14.5h100q43 0 53 -41l293 -1084l312 1085
q11 40 54 40h104z" />
    <glyph glyph-name="X" unicode="X" horiz-adv-x="1260" 
d="M109 0q-29 0 -38 17t7 41l440 654l-422 630q-16 24 -7 41t38 17h99q38 0 58 -31l346 -520l346 520q20 31 58 31h99q29 0 38 -17t-7 -41l-422 -630l440 -654q16 -24 7 -41t-38 -17h-99q-38 0 -58 31l-364 544l-364 -544q-20 -31 -58 -31h-99z" />
    <glyph glyph-name="Y" unicode="Y" horiz-adv-x="1286" 
d="M643 758l373 610q19 32 58 32h97q29 0 38.5 -16.5t-5.5 -41.5l-467 -768v-526q0 -48 -48 -48h-92q-48 0 -48 48v526l-467 768q-15 25 -5.5 41.5t38.5 16.5h97q39 0 58 -32z" />
    <glyph glyph-name="Z" unicode="Z" horiz-adv-x="1201" 
d="M845 1237h-646q-48 0 -48 48v67q0 48 48 48h823q48 0 48 -48v-82q0 -32 -18 -60l-706 -1047h696q48 0 48 -48v-67q0 -48 -48 -48h-873q-48 0 -48 48v82q0 32 18 60z" />
    <glyph glyph-name="bracketleft" unicode="[" horiz-adv-x="831" 
d="M234 1452q0 48 48 48h451q48 0 48 -48v-67q0 -48 -48 -48h-311v-1454h311q48 0 48 -48v-67q0 -48 -48 -48h-451q-48 0 -48 48v1684z" />
    <glyph glyph-name="backslash" unicode="\" horiz-adv-x="914" 
d="M59 1395q-17 45 29 61l78 28q45 17 62 -28l626 -1631q16 -44 -29 -61l-79 -28q-45 -16 -62 28z" />
    <glyph glyph-name="bracketright" unicode="]" horiz-adv-x="831" 
d="M597 -232q0 -48 -48 -48h-451q-48 0 -48 48v67q0 48 48 48h311v1454h-311q-48 0 -48 48v67q0 48 48 48h451q48 0 48 -48v-1684z" />
    <glyph glyph-name="asciicircum" unicode="^" horiz-adv-x="1228" 
d="M661 1400q37 0 59 -28l216 -260q31 -37 -6 -68l-20 -16q-36 -30 -67 3l-229 230l-230 -230q-32 -32 -67 -3l-20 16q-37 31 -6 68l216 260q22 28 59 28h95z" />
    <glyph glyph-name="underscore" unicode="_" horiz-adv-x="1000" 
d="M0 -249q0 48 48 48h904q48 0 48 -48v-46q0 -48 -48 -48h-904q-48 0 -48 48v46z" />
    <glyph glyph-name="grave" unicode="`" horiz-adv-x="832" 
d="M576 1208q29 -37 -7 -68l-20 -17q-34 -29 -67 4l-221 221q-35 35 2 68l46 42q36 33 68 -5z" />
    <glyph glyph-name="a" unicode="a" horiz-adv-x="1297" 
d="M74 518q0 149 65.5 273t183 197t262.5 73q116 0 215 -48.5t169 -133.5v109q0 48 48 48h86q48 0 48 -48v-940q0 -48 -48 -48h-86q-48 0 -48 48v109q-70 -85 -169 -133t-215 -48q-145 0 -262.5 72.5t-183 196.5t-65.5 273zM259 518q0 -158 102.5 -268t254.5 -110
q151 0 252 110t101 268q0 159 -99.5 269t-253.5 110q-155 0 -256 -110t-101 -269z" />
    <glyph glyph-name="b" unicode="b" horiz-adv-x="1334" 
d="M1223 518q0 -149 -65.5 -273t-183 -196.5t-262.5 -72.5q-117 0 -216 48t-168 133v-109q0 -48 -48 -48h-86q-48 0 -48 48v1364q0 48 48 48h86q48 0 48 -48v-533q69 85 168 133.5t216 48.5q145 0 262.5 -73t183 -197t65.5 -273zM1038 518q0 159 -101 269t-256 110
q-154 0 -253.5 -110t-99.5 -269q0 -158 101 -268t252 -110q152 0 254.5 110t102.5 268z" />
    <glyph glyph-name="c" unicode="c" horiz-adv-x="1179" 
d="M74 518q0 115 41.5 216t112 172t169 112.5t208.5 41.5q173 0 302 -83.5t182 -231.5q9 -24 -3 -39t-38 -15h-95q-38 0 -55 38q-37 80 -110.5 124t-169.5 44q-67 0 -130.5 -26t-115 -73t-82.5 -120.5t-31 -159.5q0 -115 56.5 -203.5t142 -132t181.5 -43.5q88 0 167 38.5
t136 109.5q29 36 67 14l41 -24q43 -24 17 -66q-74 -115 -187.5 -175t-254.5 -60q-143 0 -269 69.5t-204 195t-78 277.5z" />
    <glyph glyph-name="d" unicode="d" horiz-adv-x="1297" 
d="M74 518q0 149 65.5 273t183 197t262.5 73q116 0 215 -48.5t169 -133.5v533q0 48 48 48h86q48 0 48 -48v-1364q0 -48 -48 -48h-86q-48 0 -48 48v109q-70 -85 -169 -133t-215 -48q-145 0 -262.5 72.5t-183 196.5t-65.5 273zM259 518q0 -158 102.5 -268t254.5 -110
q151 0 252 110t101 268q0 159 -99.5 269t-253.5 110q-155 0 -256 -110t-101 -269z" />
    <glyph glyph-name="e" unicode="e" horiz-adv-x="1224" 
d="M260 461q15 -141 119.5 -234.5t252.5 -93.5q96 0 173.5 32.5t149.5 99.5q35 32 68 1l37 -35q34 -33 3 -67q-85 -91 -187.5 -139.5t-238.5 -48.5q-124 0 -230 42.5t-178.5 115.5t-113.5 172.5t-41 211.5q0 111 41.5 211t114 173t174.5 115.5t218 42.5q151 0 272.5 -70
t188.5 -188.5t67 -260.5q0 -12 -2 -36q-4 -44 -51 -44h-837zM622 903q-128 0 -228 -83t-127 -208h692q-21 127 -114 209t-223 82z" />
    <glyph glyph-name="f" unicode="f" horiz-adv-x="746" 
d="M701 1345q0 -49 -45 -46q-16 1 -46 1q-109 0 -156.5 -50t-47.5 -153v-61h247q48 0 48 -48v-64q0 -48 -48 -48h-247v-828q0 -48 -48 -48h-86q-48 0 -48 48v828h-161q-48 0 -48 48v64q0 48 48 48h161v63q0 183 91 272t280 89q33 0 61 -3q45 -3 45 -50v-62z" />
    <glyph glyph-name="g" unicode="g" horiz-adv-x="1297" 
d="M74 518q0 149 65.5 273t183 197t262.5 73q116 0 215 -48.5t169 -133.5v109q0 48 48 48h86q48 0 48 -48v-955q0 -227 -137 -362t-387 -135q-244 0 -419 193q-30 34 3 67l33 32q33 33 67 -1q141 -134 315 -134q156 0 249.5 88t93.5 240v136q-70 -85 -169 -133t-215 -48
q-145 0 -262.5 72.5t-183 196.5t-65.5 273zM259 518q0 -158 102.5 -268t254.5 -110q151 0 252 110t101 268q0 159 -99.5 269t-253.5 110q-155 0 -256 -110t-101 -269z" />
    <glyph glyph-name="h" unicode="h" horiz-adv-x="1207" 
d="M328 48q0 -48 -48 -48h-86q-48 0 -48 48v1364q0 48 48 48h86q48 0 48 -48v-535q52 81 141 132t195 51q191 0 304 -114t113 -309v-589q0 -48 -48 -48h-86q-48 0 -48 48v579q0 125 -71.5 197.5t-197.5 72.5q-121 0 -211.5 -93.5t-90.5 -226.5v-529z" />
    <glyph glyph-name="i" unicode="i" horiz-adv-x="522" 
d="M141 1325q0 51 34.5 85.5t85.5 34.5t85.5 -34.5t34.5 -85.5q0 -50 -34.5 -84.5t-85.5 -34.5t-85.5 34.5t-34.5 84.5zM170 988q0 48 48 48h86q48 0 48 -48v-940q0 -48 -48 -48h-86q-48 0 -48 48v940z" />
    <glyph glyph-name="j" unicode="j" horiz-adv-x="522" 
d="M141 1325q0 51 34.5 85.5t85.5 34.5t85.5 -34.5t34.5 -85.5q0 -50 -34.5 -84.5t-85.5 -34.5t-85.5 34.5t-34.5 84.5zM170 988q0 48 48 48h86q48 0 48 -48v-1122q0 -172 -72 -251t-215 -79q-27 0 -57 5q-41 7 -41 53v55q0 47 28 47h29q73 0 109.5 39t36.5 128v1125z" />
    <glyph glyph-name="k" unicode="k" horiz-adv-x="1029" 
d="M889 1036q50 0 48 -49q-9 -159 -74 -274t-174 -170l297 -485q15 -25 5.5 -41.5t-38.5 -16.5h-104q-39 0 -58 32l-282 465h-181v-449q0 -48 -48 -48h-86q-48 0 -48 48v1364q0 48 48 48h86q48 0 48 -48v-758h120q130 0 212.5 85t93.5 249q5 48 49 48h86z" />
    <glyph glyph-name="l" unicode="l" horiz-adv-x="522" 
d="M170 1412q0 48 48 48h86q48 0 48 -48v-1364q0 -48 -48 -48h-86q-48 0 -48 48v1364z" />
    <glyph glyph-name="m" unicode="m" horiz-adv-x="1872" 
d="M328 48q0 -48 -48 -48h-86q-48 0 -48 48v940q0 48 48 48h86q48 0 48 -48v-107q56 82 137 130.5t175 48.5q120 0 214 -58.5t141 -162.5q52 101 145.5 161t208.5 60q173 0 285 -115.5t112 -307.5v-589q0 -48 -48 -48h-86q-48 0 -48 48v579q0 123 -68 196.5t-181 73.5
q-102 0 -190 -95t-88 -225v-529q0 -48 -48 -48h-86q-48 0 -48 48v579q0 123 -68 196.5t-181 73.5q-102 0 -190 -95t-88 -225v-529z" />
    <glyph glyph-name="n" unicode="n" horiz-adv-x="1207" 
d="M328 48q0 -48 -48 -48h-86q-48 0 -48 48v940q0 48 48 48h86q48 0 48 -48v-111q52 81 141 132t195 51q191 0 304 -114t113 -309v-589q0 -48 -48 -48h-86q-48 0 -48 48v579q0 125 -71.5 197.5t-197.5 72.5q-121 0 -211.5 -93.5t-90.5 -226.5v-529z" />
    <glyph glyph-name="o" unicode="o" horiz-adv-x="1268" 
d="M634 1060q158 0 287 -73t201 -197t72 -272t-72 -272t-201 -197t-287 -73t-287 73t-201 197t-72 272t72 272t201 197t287 73zM634 139q158 0 266.5 110.5t108.5 268.5t-108.5 268.5t-266.5 110.5t-266.5 -110.5t-108.5 -268.5t108.5 -268.5t266.5 -110.5z" />
    <glyph glyph-name="p" unicode="p" horiz-adv-x="1297" 
d="M1223 518q0 -149 -65.5 -273t-183 -196.5t-262.5 -72.5q-117 0 -216 48t-168 133v-573q0 -48 -48 -48h-86q-48 0 -48 48v1404q0 48 48 48h86q48 0 48 -48v-109q69 85 168 133.5t216 48.5q145 0 262.5 -73t183 -197t65.5 -273zM1038 518q0 159 -101 269t-256 110
q-154 0 -253.5 -110t-99.5 -269q0 -158 101 -268t252 -110q152 0 254.5 110t102.5 268z" />
    <glyph glyph-name="q" unicode="q" horiz-adv-x="1297" 
d="M74 518q0 149 65.5 273t183 197t262.5 73q116 0 215 -48.5t169 -133.5v109q0 48 48 48h86q48 0 48 -48v-1404q0 -48 -48 -48h-86q-48 0 -48 48v573q-70 -85 -169 -133t-215 -48q-145 0 -262.5 72.5t-183 196.5t-65.5 273zM259 518q0 -158 102.5 -268t254.5 -110
q151 0 252 110t101 268q0 159 -99.5 269t-253.5 110q-155 0 -256 -110t-101 -269z" />
    <glyph glyph-name="r" unicode="r" 
d="M741 932q-4 -47 -55 -39q-24 4 -56 4q-121 0 -211.5 -93.5t-90.5 -226.5v-529q0 -48 -48 -48h-86q-48 0 -48 48v940q0 48 48 48h86q48 0 48 -48v-111q52 81 141 132t195 51q28 0 41 -1q23 -1 34 -15.5t9 -37.5z" />
    <glyph glyph-name="s" unicode="s" horiz-adv-x="932" 
d="M143 232q31 37 68 2q108 -101 253 -101q98 0 155 42t57 111q0 66 -55 109t-175 66q-337 65 -337 312q0 125 94 206t253 81q139 0 232.5 -63.5t123.5 -184.5q6 -24 -6 -38.5t-37 -14.5h-86q-38 0 -52 43q-15 46 -57.5 73.5t-104.5 27.5q-80 0 -129 -37t-49 -96
q0 -57 54 -100t160 -64q179 -35 266 -114.5t87 -208.5q0 -135 -102.5 -221t-279.5 -86q-215 0 -358 158q-28 34 0 68z" />
    <glyph glyph-name="t" unicode="t" horiz-adv-x="764" 
d="M414 331q0 -100 47 -147.5t155 -47.5q28 0 43 1q50 3 50 -46v-46q0 -44 -38 -55q-53 -14 -110 -14q-329 0 -329 353v547h-169q-48 0 -48 48v64q0 48 48 48h169v208q0 42 41 53l87 24q25 7 39.5 -4t14.5 -37v-244h235q48 0 48 -48v-64q0 -48 -48 -48h-235v-545z" />
    <glyph glyph-name="u" unicode="u" horiz-adv-x="1207" 
d="M879 989q0 48 48 48h86q48 0 48 -48v-940q0 -48 -48 -48h-86q-48 0 -48 48v111q-52 -81 -141 -132t-195 -51q-191 0 -304 114t-113 309v589q0 48 48 48h86q48 0 48 -48v-579q0 -125 71.5 -197.5t197.5 -72.5q121 0 211.5 93.5t90.5 226.5v529z" />
    <glyph glyph-name="v" unicode="v" horiz-adv-x="1046" 
d="M632 38q-15 -38 -56 -38h-106q-41 0 -56 38l-365 943q-10 25 0.5 40t37.5 15h89q41 0 56 -38l291 -760l291 760q15 38 56 38h89q27 0 37.5 -15t0.5 -40z" />
    <glyph glyph-name="w" unicode="w" horiz-adv-x="1560" 
d="M832 1036q43 0 54 -40l219 -752l226 752q11 40 54 40h91q26 0 37 -15t3 -40l-302 -941q-12 -40 -55 -40h-104q-43 0 -54 40l-221 756l-221 -756q-11 -40 -54 -40h-104q-43 0 -55 40l-302 941q-8 25 3 40t37 15h91q43 0 54 -40l226 -752l219 752q11 40 54 40h104z" />
    <glyph glyph-name="x" unicode="x" horiz-adv-x="1046" 
d="M99 0q-30 0 -38.5 17t8.5 41l339 471l-314 449q-17 24 -8 41t38 17h95q38 0 58 -30l246 -354l246 354q20 30 58 30h95q29 0 38 -17t-8 -41l-314 -449l339 -471q17 -24 8.5 -41t-38.5 -17h-94q-37 0 -58 30l-272 376l-272 -376q-21 -30 -58 -30h-94z" />
    <glyph glyph-name="y" unicode="y" horiz-adv-x="1050" 
d="M432 4l-383 976q-10 25 0.5 40.5t37.5 15.5h89q41 0 56 -38l293 -763l293 763q15 38 56 38h89q27 0 37.5 -15.5t0.5 -40.5l-548 -1406q-15 -38 -55 -38h-90q-27 0 -37.5 15.5t-0.5 40.5z" />
    <glyph glyph-name="z" unicode="z" horiz-adv-x="1012" 
d="M98 127q0 34 21 59l551 690h-498q-48 0 -48 48v64q0 48 48 48h669q48 0 48 -48v-79q0 -34 -21 -59l-550 -690h543q48 0 48 -48v-64q0 -48 -48 -48h-715q-48 0 -48 48v79z" />
    <glyph glyph-name="braceleft" unicode="{" horiz-adv-x="831" 
d="M149 645q0 42 46 50q73 11 114.5 59.5t41.5 125.5v306q0 133 95.5 223.5t240.5 90.5h50q48 0 48 -48v-67q0 -48 -48 -48h-38q-70 0 -115 -46t-45 -117v-321q0 -193 -183 -243q183 -50 183 -243v-321q0 -71 45 -117t115 -46h38q48 0 48 -48v-67q0 -48 -48 -48h-50
q-145 0 -240.5 90.5t-95.5 223.5v306q0 77 -41.5 125.5t-114.5 59.5q-46 8 -46 50v70z" />
    <glyph glyph-name="bar" unicode="|" horiz-adv-x="649" 
d="M238 1452q0 48 48 48h77q48 0 48 -48v-1684q0 -48 -48 -48h-77q-48 0 -48 48v1684z" />
    <glyph glyph-name="braceright" unicode="}" horiz-adv-x="831" 
d="M682 575q0 -42 -46 -50q-73 -11 -114.5 -59.5t-41.5 -125.5v-306q0 -133 -95.5 -223.5t-240.5 -90.5h-50q-48 0 -48 48v67q0 48 48 48h38q70 0 115 46t45 117v321q0 193 183 243q-183 50 -183 243v321q0 71 -45 117t-115 46h-38q-48 0 -48 48v67q0 48 48 48h50
q145 0 240.5 -90.5t95.5 -223.5v-306q0 -77 41.5 -125.5t114.5 -59.5q46 -8 46 -50v-70z" />
    <glyph glyph-name="asciitilde" unicode="~" horiz-adv-x="1148" 
d="M542 575q-36 36 -56.5 54t-53 36t-60.5 18q-91 0 -126 -131q-13 -49 -57 -37l-79 20q-48 13 -36 58q30 122 101.5 187.5t178.5 65.5q136 0 251 -112l57 -54t52.5 -36t60.5 -18q91 0 126 131q13 49 57 37l79 -20q48 -13 36 -58q-30 -122 -101.5 -187.5t-178.5 -65.5
q-137 0 -251 112z" />
    <glyph glyph-name="uni00A0" unicode="&#xa0;" horiz-adv-x="594" 
 />
    <glyph glyph-name="exclamdown" unicode="&#xa1;" horiz-adv-x="618" 
d="M185 936q0 53 35.5 88.5t88.5 35.5t88.5 -35.5t35.5 -88.5t-35.5 -88.5t-88.5 -35.5t-88.5 35.5t-35.5 88.5zM244 595q2 47 48 47h34q46 0 48 -47l28 -910q1 -23 -12 -36t-36 -13h-90q-23 0 -36 13t-12 36z" />
    <glyph glyph-name="cent" unicode="&#xa2;" horiz-adv-x="1179" 
d="M74 518q0 218 136.5 369t343.5 170v115q0 48 48 48h36q48 0 48 -48v-117q145 -19 250.5 -99.5t152.5 -210.5q9 -24 -3 -39t-38 -15h-95q-38 0 -55 38q-30 65 -84.5 106t-127.5 55v-748q156 19 256 145q29 36 67 14l41 -24q43 -24 17 -66q-132 -207 -381 -232v-115
q0 -48 -48 -48h-36q-48 0 -48 48v117q-96 13 -183.5 58.5t-153 115t-104.5 164t-39 199.5zM259 518q0 -146 85 -244t210 -126v743q-123 -24 -209 -123.5t-86 -249.5z" />
    <glyph glyph-name="sterling" unicode="&#xa3;" horiz-adv-x="1148" 
d="M505 562q7 -45 7 -80q0 -93 -39.5 -174.5t-106.5 -141.5h622q48 0 48 -48v-70q0 -48 -48 -48h-793q-48 0 -48 48v78q0 35 29 58q145 124 145 298q0 34 -7 80h-125q-48 0 -48 48v51q0 48 48 48h84l-28 75t-30.5 84.5t-18 70.5t-9.5 83q0 169 122.5 285.5t302.5 116.5
q159 0 267 -91t143 -244q5 -24 -7 -38t-37 -14h-84q-41 0 -53 43q-23 84 -86.5 131t-142.5 47q-100 0 -167 -67.5t-67 -168.5q0 -36 9.5 -79t19.5 -72t30.5 -83.5l29.5 -78.5h333q48 0 48 -48v-51q0 -48 -48 -48h-295z" />
    <glyph glyph-name="currency" unicode="&#xa4;" horiz-adv-x="1252" 
d="M626 220q-135 0 -244 67l-157 -154q-34 -33 -68 1l-49 49q-34 34 0 68l149 149q-84 109 -84 252t84 252l-149 149q-34 34 0 68l49 49q34 34 68 1l157 -154q109 67 244 67t244 -67l157 154q34 33 68 -1l49 -49q34 -34 0 -68l-149 -149q84 -109 84 -252t-84 -252l149 -149
q34 -34 0 -68l-49 -49q-34 -34 -68 -1l-157 154q-109 -67 -244 -67zM626 927q-115 0 -194.5 -80.5t-79.5 -194.5t79.5 -194.5t194.5 -80.5t194.5 80.5t79.5 194.5t-79.5 194.5t-194.5 80.5z" />
    <glyph glyph-name="yen" unicode="&#xa5;" horiz-adv-x="1286" 
d="M643 758l373 610q19 32 58 32h97q29 0 38.5 -16.5t-5.5 -41.5l-382 -628h243q48 0 48 -48v-22q0 -48 -48 -48h-315l-13 -22v-91h328q48 0 48 -48v-22q0 -48 -48 -48h-328v-317q0 -48 -48 -48h-92q-48 0 -48 48v317h-328q-48 0 -48 48v22q0 48 48 48h328v91l-14 22h-314
q-48 0 -48 48v22q0 48 48 48h243l-382 628q-15 25 -5.5 41.5t38.5 16.5h97q39 0 58 -32z" />
    <glyph glyph-name="brokenbar" unicode="&#xa6;" horiz-adv-x="649" 
d="M238 1452q0 48 48 48h77q48 0 48 -48v-704q0 -48 -48 -48h-77q-48 0 -48 48v704zM238 472q0 48 48 48h77q48 0 48 -48v-704q0 -48 -48 -48h-77q-48 0 -48 48v704z" />
    <glyph glyph-name="section" unicode="&#xa7;" horiz-adv-x="1008" 
d="M512 -56q103 0 155.5 45.5t52.5 116.5q0 70 -49 114t-179 74q-340 78 -340 318q0 95 51 164t141 108q-90 34 -143 100t-53 156q0 128 97 206t267 78q146 0 237 -69t125 -194q7 -24 -5 -38.5t-37 -14.5h-77q-39 0 -53 42q-20 58 -69 94t-117 36q-84 0 -138 -42t-54 -104
q0 -59 59.5 -101t186.5 -77q172 -48 247 -125.5t75 -192.5q0 -92 -49 -161.5t-133 -106.5q82 -33 134 -100.5t52 -151.5q0 -145 -96 -231.5t-288 -86.5q-181 0 -334 152q-33 33 -1 68l17 20q31 36 69 2q119 -98 249 -98zM716 630q0 80 -48 127t-148 65q-85 -15 -138.5 -67.5
t-53.5 -126.5q0 -80 48 -127t148 -65q85 15 138.5 67.5t53.5 126.5z" />
    <glyph glyph-name="dieresis" unicode="&#xa8;" horiz-adv-x="832" 
d="M124 1292q0 47 32.5 80t80.5 33t80.5 -33t32.5 -80q0 -48 -32.5 -80.5t-80.5 -32.5t-80.5 32.5t-32.5 80.5zM482 1292q0 47 32.5 80t80.5 33t80.5 -33t32.5 -80q0 -48 -32.5 -80.5t-80.5 -32.5t-80.5 32.5t-32.5 80.5z" />
    <glyph glyph-name="copyright" unicode="&#xa9;" horiz-adv-x="1602" 
d="M77 700q0 149 56.5 283t153.5 231t231 153.5t283 56.5t283 -56.5t231 -153.5t153.5 -231t56.5 -283t-56.5 -283t-153.5 -231t-231 -153.5t-283 -56.5t-283 56.5t-231 153.5t-153.5 231t-56.5 283zM187 700q0 -171 81.5 -313.5t223 -225t309.5 -82.5t309.5 82.5t223 225
t81.5 313.5t-81.5 313.5t-223 225t-309.5 82.5t-309.5 -82.5t-223 -225t-81.5 -313.5zM415 696q0 169 111 282t274 113q121 0 213 -56t134 -157q10 -24 -1.5 -39.5t-38.5 -15.5h-58q-37 0 -56 37q-54 97 -183 97q-101 0 -173.5 -71.5t-72.5 -189.5t77 -188.5t185 -70.5
q127 0 210 85q32 33 67 12l10 -6q43 -25 16 -66q-112 -159 -313 -159q-105 0 -196.5 50.5t-148 142t-56.5 200.5z" />
    <glyph glyph-name="ordfeminine" unicode="&#xaa;" horiz-adv-x="912" 
d="M656 757q-80 -101 -221 -101q-155 0 -262.5 110t-107.5 270t107.5 270t262.5 110q141 0 221 -101v37q0 48 48 48h66q48 0 48 -48v-632q0 -48 -48 -48h-66q-48 0 -48 48v37zM442 1270q-96 0 -155.5 -67t-59.5 -167t59.5 -167t155.5 -67t155 67t59 167t-59 167t-155 67z
" />
    <glyph glyph-name="guillemotleft" unicode="&#xab;" horiz-adv-x="1271" 
d="M105 669q0 36 31 58l424 292q40 27 67 -12l14 -20q26 -38 -9 -67l-358 -297l358 -298q35 -29 9 -67l-14 -20q-27 -38 -66 -12l-425 292q-31 22 -31 58v93zM595 669q0 36 31 58l424 292q40 27 67 -12l14 -20q26 -38 -9 -67l-358 -297l358 -298q35 -29 9 -67l-14 -20
q-27 -38 -66 -12l-425 292q-31 22 -31 58v93z" />
    <glyph glyph-name="logicalnot" unicode="&#xac;" horiz-adv-x="1148" 
d="M847 586h-680q-48 0 -48 48v61q0 48 48 48h814q48 0 48 -48v-411q0 -48 -48 -48h-86q-48 0 -48 48v302z" />
    <glyph glyph-name="uni00AD" unicode="&#xad;" horiz-adv-x="804" 
d="M166 578q-48 0 -48 48v76q0 48 48 48h472q48 0 48 -48v-76q0 -48 -48 -48h-472z" />
    <glyph glyph-name="registered" unicode="&#xae;" horiz-adv-x="1602" 
d="M77 700q0 149 56.5 283t153.5 231t231 153.5t283 56.5t283 -56.5t231 -153.5t153.5 -231t56.5 -283t-56.5 -283t-153.5 -231t-231 -153.5t-283 -56.5t-283 56.5t-231 153.5t-153.5 231t-56.5 283zM187 700q0 -171 81.5 -313.5t223 -225t309.5 -82.5t309.5 82.5t223 225
t81.5 313.5t-81.5 313.5t-223 225t-309.5 82.5t-309.5 -82.5t-223 -225t-81.5 -313.5zM699 364q0 -48 -48 -48h-44q-48 0 -48 48v669q0 48 48 48h223q117 0 192.5 -69t75.5 -175q0 -83 -48 -145t-128 -85l154 -233q16 -24 7 -41t-38 -17h-47q-38 0 -58 31l-161 245h-80v-228
zM958 831q0 53 -38.5 86.5t-101.5 33.5h-119v-241h119q63 0 101.5 33.5t38.5 87.5z" />
    <glyph glyph-name="macron" unicode="&#xaf;" horiz-adv-x="832" 
d="M126 1311q0 48 48 48h484q48 0 48 -48v-46q0 -48 -48 -48h-484q-48 0 -48 48v46z" />
    <glyph glyph-name="degree" unicode="&#xb0;" 
d="M121 1154q0 113 79.5 190t195.5 77t195.5 -77t79.5 -190t-79.5 -190t-195.5 -77t-195.5 77t-79.5 190zM256 1154q0 -59 40 -99.5t100 -40.5t100 40.5t40 99.5t-40 99.5t-100 40.5t-100 -40.5t-40 -99.5z" />
    <glyph glyph-name="plusminus" unicode="&#xb1;" horiz-adv-x="1148" 
d="M483 663h-316q-48 0 -48 48v61q0 48 48 48h316v320q0 48 48 48h86q48 0 48 -48v-320h316q48 0 48 -48v-61q0 -48 -48 -48h-316v-320q0 -48 -48 -48h-86q-48 0 -48 48v320zM167 0q-48 0 -48 48v61q0 48 48 48h814q48 0 48 -48v-61q0 -48 -48 -48h-814z" />
    <glyph glyph-name="uni00B2" unicode="&#xb2;" 
d="M308 585h328q48 0 48 -48v-37q0 -48 -48 -48h-495q-48 0 -48 48v36q0 33 23 59l315 346q54 60 77 107.5t23 97.5q0 63 -41.5 104t-106.5 41q-59 0 -102 -37.5t-62 -107.5q-12 -43 -53 -43h-55q-24 0 -36 14t-8 38q25 134 110 201.5t206 67.5q135 0 223 -77t88 -201
q0 -76 -32.5 -142.5t-104.5 -145.5z" />
    <glyph glyph-name="uni00B3" unicode="&#xb3;" 
d="M546 746q0 77 -53.5 130t-132.5 53q-8 0 -26 -2q-40 -6 -63 22l-10 12q-26 34 1 67l202 237h-308q-48 0 -48 48v39q0 48 48 48h460q48 0 48 -48v-41q0 -34 -22 -60l-190 -218q113 -19 184.5 -102t71.5 -197q0 -122 -96.5 -214t-247.5 -92q-163 0 -272 141q-28 36 9 67
l17 15q36 30 68 -6q81 -84 174 -84q79 0 132.5 53.5t53.5 131.5z" />
    <glyph glyph-name="acute" unicode="&#xb4;" horiz-adv-x="832" 
d="M455 1453q32 38 68 5l46 -42q37 -33 2 -68l-221 -221q-32 -32 -67 -3l-20 17q-36 30 -7 67z" />
    <glyph glyph-name="uni00B5" unicode="&#xb5;" horiz-adv-x="1227" 
d="M899 989q0 48 48 48h86q48 0 48 -48v-940q0 -48 -48 -48h-86q-48 0 -48 48v111q-52 -81 -141 -132t-195 -51q-137 0 -235 60v-453q0 -48 -48 -48h-86q-48 0 -48 48v1405q0 48 48 48h86q48 0 48 -48v-592q0 -118 72.5 -187.5t196.5 -69.5q121 0 211.5 93.5t90.5 226.5v529
z" />
    <glyph glyph-name="paragraph" unicode="&#xb6;" horiz-adv-x="1160" 
d="M531 536q-188 0 -316 124.5t-128 307.5t128 307.5t316 124.5h405q48 0 48 -48v-1566q0 -48 -48 -48h-41q-48 0 -48 48v1485h-122v-1485q0 -48 -48 -48h-41q-48 0 -48 48v750h-57z" />
    <glyph glyph-name="periodcentered" unicode="&#xb7;" horiz-adv-x="594" 
d="M172 653q0 53 36 89t89 36t89 -36t36 -89t-36 -89t-89 -36t-89 36t-36 89z" />
    <glyph glyph-name="cedilla" unicode="&#xb8;" horiz-adv-x="832" 
d="M418 -214q-21 0 -30 -1q-42 -3 -64 11q-3 3 -3 39v117q0 48 48 48h33q48 0 48 -48v-73q101 0 158 -54t57 -137q0 -90 -70 -149t-177 -59q-85 0 -152.5 41.5t-94.5 108.5q-9 24 3.5 38.5t38.5 14.5h45q33 0 56 -38q32 -53 95 -53q52 0 83 28t31 71q0 41 -32 68t-73 27z
" />
    <glyph glyph-name="uni00B9" unicode="&#xb9;" 
d="M485 1400q48 0 48 -48v-852q0 -48 -48 -48h-66q-48 0 -48 48v735l-126 -68q-42 -24 -65 20l-18 34q-21 42 20 65l185 99q27 15 60 15h58z" />
    <glyph glyph-name="ordmasculine" unicode="&#xba;" horiz-adv-x="912" 
d="M64 1036q0 159 114 269.5t278 110.5t278 -110.5t114 -269.5t-114 -269.5t-278 -110.5t-278 110.5t-114 269.5zM226 1036q0 -100 66 -167t164 -67t164 67t66 167t-66 167t-164 67t-164 -67t-66 -167z" />
    <glyph glyph-name="guillemotright" unicode="&#xbb;" horiz-adv-x="1271" 
d="M675 576q0 -36 -31 -58l-424 -292q-40 -27 -67 12l-14 20q-26 38 9 67l358 298l-358 297q-35 29 -9 67l14 20q27 38 66 12l425 -292q31 -22 31 -58v-93zM1165 576q0 -36 -31 -58l-424 -292q-40 -27 -67 12l-14 20q-26 38 9 67l358 298l-358 297q-35 29 -9 67l14 20
q27 38 66 12l425 -292q31 -22 31 -58v-93z" />
    <glyph glyph-name="onequarter" unicode="&#xbc;" horiz-adv-x="1911" 
d="M1209 1381q22 43 64 22l42 -21q43 -22 22 -64l-636 -1299q-21 -43 -64 -21l-40 20q-42 22 -22 65zM485 1400q48 0 48 -48v-852q0 -48 -48 -48h-66q-48 0 -48 48v735l-126 -68q-42 -24 -65 20l-18 34q-21 42 20 65l185 99q27 15 60 15h58zM1158 280q0 32 18 60l394 577
q21 31 58 31h69q48 0 48 -48v-574h61q48 0 48 -48v-43q0 -48 -48 -48h-61v-139q0 -48 -48 -48h-66q-48 0 -48 48v139h-377q-48 0 -48 48v45zM1583 325v368l-246 -368h246z" />
    <glyph glyph-name="onehalf" unicode="&#xbd;" horiz-adv-x="1911" 
d="M1209 1381q22 43 64 22l42 -21q43 -22 22 -64l-636 -1299q-21 -43 -64 -21l-40 20q-42 22 -22 65zM485 1400q48 0 48 -48v-852q0 -48 -48 -48h-66q-48 0 -48 48v735l-126 -68q-42 -24 -65 20l-18 34q-21 42 20 65l185 99q27 15 60 15h58zM1427 133h328q48 0 48 -48v-37
q0 -48 -48 -48h-495q-48 0 -48 48v36q0 33 23 59l315 346q54 60 77 107.5t23 97.5q0 63 -41.5 104t-106.5 41q-59 0 -102 -37.5t-62 -107.5q-12 -43 -53 -43h-55q-24 0 -36 14t-8 38q25 134 110 201.5t206 67.5q135 0 223 -77t88 -201q0 -76 -32.5 -142.5t-104.5 -145.5z
" />
    <glyph glyph-name="threequarters" unicode="&#xbe;" horiz-adv-x="1911" 
d="M1209 1381q22 43 64 22l42 -21q43 -22 22 -64l-636 -1299q-21 -43 -64 -21l-40 20q-42 22 -22 65zM546 746q0 77 -53.5 130t-132.5 53q-8 0 -26 -2q-40 -6 -63 22l-10 12q-26 34 1 67l202 237h-308q-48 0 -48 48v39q0 48 48 48h460q48 0 48 -48v-41q0 -34 -22 -60
l-190 -218q113 -19 184.5 -102t71.5 -197q0 -122 -96.5 -214t-247.5 -92q-163 0 -272 141q-28 36 9 67l17 15q36 30 68 -6q81 -84 174 -84q79 0 132.5 53.5t53.5 131.5zM1158 280q0 32 18 60l394 577q21 31 58 31h69q48 0 48 -48v-574h61q48 0 48 -48v-43q0 -48 -48 -48h-61
v-139q0 -48 -48 -48h-66q-48 0 -48 48v139h-377q-48 0 -48 48v45zM1583 325v368l-246 -368h246z" />
    <glyph glyph-name="questiondown" unicode="&#xbf;" horiz-adv-x="1093" 
d="M690 936q0 -53 -35.5 -88.5t-88.5 -35.5t-88.5 35.5t-35.5 88.5t35.5 88.5t88.5 35.5t88.5 -35.5t35.5 -88.5zM612 636q49 0 47 -49q-5 -146 -51.5 -225.5t-164.5 -151.5q-92 -56 -129.5 -105t-37.5 -127q0 -88 73 -144t189 -56q109 0 185.5 56t91.5 154q8 46 50 46h96
q24 0 36.5 -13t9.5 -37q-8 -73 -38.5 -134.5t-76.5 -104.5t-105.5 -73.5t-124.5 -45t-133 -14.5q-197 0 -320.5 105.5t-123.5 273.5q0 122 54 201t194 158q82 46 109.5 96.5t29.5 141.5q2 48 49 48h91z" />
    <glyph glyph-name="Agrave" unicode="&#xc0;" horiz-adv-x="1362" 
d="M800 1595q29 -37 -7 -68l-20 -17q-34 -29 -67 4l-221 221q-35 35 2 68l46 42q36 33 68 -5zM1150 0q-42 0 -55 39l-116 322h-596l-116 -322q-13 -39 -55 -39h-105q-26 0 -36.5 15t-1.5 40l493 1307q15 38 55 38h128q40 0 55 -38l493 -1307q9 -25 -1.5 -40t-36.5 -15h-105z
M923 524l-242 668l-242 -668h484z" />
    <glyph glyph-name="Aacute" unicode="&#xc1;" horiz-adv-x="1362" 
d="M795 1840q32 38 68 5l46 -42q37 -33 2 -68l-221 -221q-32 -32 -67 -3l-20 17q-36 30 -7 67zM1150 0q-42 0 -55 39l-116 322h-596l-116 -322q-13 -39 -55 -39h-105q-26 0 -36.5 15t-1.5 40l493 1307q15 38 55 38h128q40 0 55 -38l493 -1307q9 -25 -1.5 -40t-36.5 -15h-105
zM923 524l-242 668l-242 -668h484z" />
    <glyph glyph-name="Acircumflex" unicode="&#xc2;" horiz-adv-x="1362" 
d="M729 1847q35 0 59 -28l187 -230q29 -37 -7 -68l-20 -16q-36 -30 -67 3l-199 200l-200 -200q-32 -32 -67 -3l-20 17q-36 30 -7 67l187 230q24 28 59 28h95zM1150 0q-42 0 -55 39l-116 322h-596l-116 -322q-13 -39 -55 -39h-105q-26 0 -36.5 15t-1.5 40l493 1307
q15 38 55 38h128q40 0 55 -38l493 -1307q9 -25 -1.5 -40t-36.5 -15h-105zM923 524l-242 668l-242 -668h484z" />
    <glyph glyph-name="Atilde" unicode="&#xc3;" horiz-adv-x="1362" 
d="M676 1580q-6 4 -22.5 16.5t-24.5 17.5l-20.5 13t-23.5 11t-21 3q-36 0 -57 -55q-15 -46 -57 -37l-60 12q-50 10 -36 58q48 164 176 164q77 0 156 -58q6 -4 22.5 -16.5t24.5 -17.5l20.5 -13t23.5 -11t21 -3q36 0 57 55q15 46 57 37l60 -12q50 -10 36 -58
q-48 -164 -176 -164q-77 0 -156 58zM1150 0q-42 0 -55 39l-116 322h-596l-116 -322q-13 -39 -55 -39h-105q-26 0 -36.5 15t-1.5 40l493 1307q15 38 55 38h128q40 0 55 -38l493 -1307q9 -25 -1.5 -40t-36.5 -15h-105zM923 524l-242 668l-242 -668h484z" />
    <glyph glyph-name="Adieresis" unicode="&#xc4;" horiz-adv-x="1362" 
d="M389 1664q0 47 32.5 80t80.5 33t80.5 -33t32.5 -80q0 -48 -32.5 -80.5t-80.5 -32.5t-80.5 32.5t-32.5 80.5zM747 1664q0 47 32.5 80t80.5 33t80.5 -33t32.5 -80q0 -48 -32.5 -80.5t-80.5 -32.5t-80.5 32.5t-32.5 80.5zM1150 0q-42 0 -55 39l-116 322h-596l-116 -322
q-13 -39 -55 -39h-105q-26 0 -36.5 15t-1.5 40l493 1307q15 38 55 38h128q40 0 55 -38l493 -1307q9 -25 -1.5 -40t-36.5 -15h-105zM923 524l-242 668l-242 -668h484z" />
    <glyph glyph-name="Aring" unicode="&#xc5;" horiz-adv-x="1362" 
d="M471 1686q0 83 60 139t150 56t150 -56t60 -139t-60 -139t-150 -56t-150 56t-60 139zM590 1686q0 -38 26 -63.5t65 -25.5t65 25.5t26 63.5t-26 63.5t-65 25.5t-65 -25.5t-26 -63.5zM1150 0q-42 0 -55 39l-116 322h-596l-116 -322q-13 -39 -55 -39h-105q-26 0 -36.5 15
t-1.5 40l493 1307q15 38 55 38h128q40 0 55 -38l493 -1307q9 -25 -1.5 -40t-36.5 -15h-105zM923 524l-242 668l-242 -668h484z" />
    <glyph glyph-name="AE" unicode="&#xc6;" horiz-adv-x="1846" 
d="M84 0q-29 0 -38 16t5 41l752 1310q19 33 57 33h804q48 0 48 -48v-67q0 -48 -48 -48h-573v-452h523q48 0 48 -48v-67q0 -48 -48 -48h-523v-459h591q48 0 48 -48v-67q0 -48 -48 -48h-731q-48 0 -48 48v313h-467l-185 -328q-19 -33 -57 -33h-110zM903 524v665l-376 -665h376
z" />
    <glyph glyph-name="Ccedilla" unicode="&#xc7;" horiz-adv-x="1517" 
d="M810 -214q-21 0 -30 -1q-42 -3 -64 11q-3 3 -3 39v144q-133 12 -249 70.5t-200.5 151.5t-133.5 222.5t-49 276.5q0 156 55 292t149.5 230t223.5 148t273 54q234 0 403.5 -117.5t235.5 -321.5q8 -24 -3.5 -39t-37.5 -15h-98q-38 0 -55 39q-55 137 -174.5 212.5
t-264.5 75.5q-79 0 -154 -22.5t-141 -69t-115 -112t-77.5 -157t-28.5 -197.5q0 -132 43.5 -240.5t116 -176.5t164 -104.5t191.5 -36.5q146 0 270.5 69.5t206.5 188.5q29 39 67 13l47 -33q39 -28 14 -67q-192 -310 -550 -335v-99q101 0 158 -54t57 -137q0 -90 -70 -149
t-177 -59q-85 0 -152.5 41.5t-94.5 108.5q-9 24 3.5 38.5t38.5 14.5h45q33 0 56 -38q32 -53 95 -53q52 0 83 28t31 71q0 41 -32 68t-73 27z" />
    <glyph glyph-name="Egrave" unicode="&#xc8;" horiz-adv-x="1129" 
d="M686 1595q29 -37 -7 -68l-20 -17q-34 -29 -67 4l-221 221q-35 35 2 68l46 42q36 33 68 -5zM168 1352q0 48 48 48h731q48 0 48 -48v-67q0 -48 -48 -48h-591v-452h540q48 0 48 -48v-67q0 -48 -48 -48h-540v-459h609q48 0 48 -48v-67q0 -48 -48 -48h-749q-48 0 -48 48v1304z
" />
    <glyph glyph-name="Eacute" unicode="&#xc9;" horiz-adv-x="1129" 
d="M718 1840q32 38 68 5l46 -42q37 -33 2 -68l-221 -221q-32 -32 -67 -3l-20 17q-36 30 -7 67zM168 1352q0 48 48 48h731q48 0 48 -48v-67q0 -48 -48 -48h-591v-452h540q48 0 48 -48v-67q0 -48 -48 -48h-540v-459h609q48 0 48 -48v-67q0 -48 -48 -48h-749q-48 0 -48 48v1304
z" />
    <glyph glyph-name="Ecircumflex" unicode="&#xca;" horiz-adv-x="1129" 
d="M630 1847q35 0 59 -28l187 -230q29 -37 -7 -68l-20 -16q-36 -30 -67 3l-199 200l-200 -200q-32 -32 -67 -3l-20 17q-36 30 -7 67l187 230q24 28 59 28h95zM168 1352q0 48 48 48h731q48 0 48 -48v-67q0 -48 -48 -48h-591v-452h540q48 0 48 -48v-67q0 -48 -48 -48h-540
v-459h609q48 0 48 -48v-67q0 -48 -48 -48h-749q-48 0 -48 48v1304z" />
    <glyph glyph-name="Edieresis" unicode="&#xcb;" horiz-adv-x="1129" 
d="M288 1664q0 47 32.5 80t80.5 33t80.5 -33t32.5 -80q0 -48 -32.5 -80.5t-80.5 -32.5t-80.5 32.5t-32.5 80.5zM646 1664q0 47 32.5 80t80.5 33t80.5 -33t32.5 -80q0 -48 -32.5 -80.5t-80.5 -32.5t-80.5 32.5t-32.5 80.5zM168 1352q0 48 48 48h731q48 0 48 -48v-67
q0 -48 -48 -48h-591v-452h540q48 0 48 -48v-67q0 -48 -48 -48h-540v-459h609q48 0 48 -48v-67q0 -48 -48 -48h-749q-48 0 -48 48v1304z" />
    <glyph glyph-name="Igrave" unicode="&#xcc;" horiz-adv-x="570" 
d="M445 1595q29 -37 -7 -68l-20 -17q-34 -29 -67 4l-221 221q-35 35 2 68l46 42q36 33 68 -5zM331 1400q48 0 48 -48v-1304q0 -48 -48 -48h-92q-48 0 -48 48v1304q0 48 48 48h92z" />
    <glyph glyph-name="Iacute" unicode="&#xcd;" horiz-adv-x="570" 
d="M324 1840q32 38 68 5l46 -42q37 -33 2 -68l-221 -221q-32 -32 -67 -3l-20 17q-36 30 -7 67zM331 1400q48 0 48 -48v-1304q0 -48 -48 -48h-92q-48 0 -48 48v1304q0 48 48 48h92z" />
    <glyph glyph-name="Icircumflex" unicode="&#xce;" horiz-adv-x="570" 
d="M333 1847q35 0 59 -28l187 -230q29 -37 -7 -68l-20 -16q-36 -30 -67 3l-199 200l-200 -200q-32 -32 -67 -3l-20 17q-36 30 -7 67l187 230q24 28 59 28h95zM331 1400q48 0 48 -48v-1304q0 -48 -48 -48h-92q-48 0 -48 48v1304q0 48 48 48h92z" />
    <glyph glyph-name="Idieresis" unicode="&#xcf;" horiz-adv-x="570" 
d="M-7 1664q0 47 32.5 80t80.5 33t80.5 -33t32.5 -80q0 -48 -32.5 -80.5t-80.5 -32.5t-80.5 32.5t-32.5 80.5zM351 1664q0 47 32.5 80t80.5 33t80.5 -33t32.5 -80q0 -48 -32.5 -80.5t-80.5 -32.5t-80.5 32.5t-32.5 80.5zM331 1400q48 0 48 -48v-1304q0 -48 -48 -48h-92
q-48 0 -48 48v1304q0 48 48 48h92z" />
    <glyph glyph-name="Eth" unicode="&#xd0;" horiz-adv-x="1452" 
d="M682 1400q316 0 502.5 -189.5t186.5 -510.5t-186.5 -510.5t-502.5 -189.5h-427q-48 0 -48 48v581h-135q-48 0 -48 48v46q0 48 48 48h135v581q0 48 48 48h427zM395 1234v-463h259q48 0 48 -48v-46q0 -48 -48 -48h-259v-463h287q227 0 362.5 138.5t135.5 395.5
t-135.5 395.5t-362.5 138.5h-287z" />
    <glyph glyph-name="Ntilde" unicode="&#xd1;" horiz-adv-x="1399" 
d="M694 1580q-6 4 -22.5 16.5t-24.5 17.5l-20.5 13t-23.5 11t-21 3q-36 0 -57 -55q-15 -46 -57 -37l-60 12q-50 10 -36 58q48 164 176 164q77 0 156 -58q6 -4 22.5 -16.5t24.5 -17.5l20.5 -13t23.5 -11t21 -3q36 0 57 55q15 46 57 37l60 -12q50 -10 36 -58
q-48 -164 -176 -164q-77 0 -156 58zM168 1352q0 48 48 48h96q37 0 57 -31l680 -1043v1026q0 48 48 48h86q48 0 48 -48v-1304q0 -48 -48 -48h-96q-37 0 -57 31l-680 1043v-1026q0 -48 -48 -48h-86q-48 0 -48 48v1304z" />
    <glyph glyph-name="Ograve" unicode="&#xd2;" horiz-adv-x="1634" 
d="M977 1595q29 -37 -7 -68l-20 -17q-34 -29 -67 4l-221 221q-35 35 2 68l46 42q36 33 68 -5zM817 1424q153 0 289.5 -56t234.5 -152.5t155 -230.5t57 -285t-57 -285t-155 -230.5t-234.5 -152.5t-289.5 -56t-289.5 56t-234.5 152.5t-155 230.5t-57 285t57 285t155 230.5
t234.5 152.5t289.5 56zM817 142q228 0 386.5 162t158.5 396t-158.5 396t-386.5 162t-386.5 -162t-158.5 -396t158.5 -396t386.5 -162z" />
    <glyph glyph-name="Oacute" unicode="&#xd3;" horiz-adv-x="1634" 
d="M856 1840q32 38 68 5l46 -42q37 -33 2 -68l-221 -221q-32 -32 -67 -3l-20 17q-36 30 -7 67zM817 1424q153 0 289.5 -56t234.5 -152.5t155 -230.5t57 -285t-57 -285t-155 -230.5t-234.5 -152.5t-289.5 -56t-289.5 56t-234.5 152.5t-155 230.5t-57 285t57 285t155 230.5
t234.5 152.5t289.5 56zM817 142q228 0 386.5 162t158.5 396t-158.5 396t-386.5 162t-386.5 -162t-158.5 -396t158.5 -396t386.5 -162z" />
    <glyph glyph-name="Ocircumflex" unicode="&#xd4;" horiz-adv-x="1634" 
d="M865 1847q35 0 59 -28l187 -230q29 -37 -7 -68l-20 -16q-36 -30 -67 3l-199 200l-200 -200q-32 -32 -67 -3l-20 17q-36 30 -7 67l187 230q24 28 59 28h95zM817 1424q153 0 289.5 -56t234.5 -152.5t155 -230.5t57 -285t-57 -285t-155 -230.5t-234.5 -152.5t-289.5 -56
t-289.5 56t-234.5 152.5t-155 230.5t-57 285t57 285t155 230.5t234.5 152.5t289.5 56zM817 142q228 0 386.5 162t158.5 396t-158.5 396t-386.5 162t-386.5 -162t-158.5 -396t158.5 -396t386.5 -162z" />
    <glyph glyph-name="Otilde" unicode="&#xd5;" horiz-adv-x="1634" 
d="M812 1580q-6 4 -22.5 16.5t-24.5 17.5l-20.5 13t-23.5 11t-21 3q-36 0 -57 -55q-15 -46 -57 -37l-60 12q-50 10 -36 58q48 164 176 164q77 0 156 -58q6 -4 22.5 -16.5t24.5 -17.5l20.5 -13t23.5 -11t21 -3q36 0 57 55q15 46 57 37l60 -12q50 -10 36 -58
q-48 -164 -176 -164q-77 0 -156 58zM817 1424q153 0 289.5 -56t234.5 -152.5t155 -230.5t57 -285t-57 -285t-155 -230.5t-234.5 -152.5t-289.5 -56t-289.5 56t-234.5 152.5t-155 230.5t-57 285t57 285t155 230.5t234.5 152.5t289.5 56zM817 142q228 0 386.5 162t158.5 396
t-158.5 396t-386.5 162t-386.5 -162t-158.5 -396t158.5 -396t386.5 -162z" />
    <glyph glyph-name="Odieresis" unicode="&#xd6;" horiz-adv-x="1634" 
d="M525 1664q0 47 32.5 80t80.5 33t80.5 -33t32.5 -80q0 -48 -32.5 -80.5t-80.5 -32.5t-80.5 32.5t-32.5 80.5zM883 1664q0 47 32.5 80t80.5 33t80.5 -33t32.5 -80q0 -48 -32.5 -80.5t-80.5 -32.5t-80.5 32.5t-32.5 80.5zM817 1424q153 0 289.5 -56t234.5 -152.5t155 -230.5
t57 -285t-57 -285t-155 -230.5t-234.5 -152.5t-289.5 -56t-289.5 56t-234.5 152.5t-155 230.5t-57 285t57 285t155 230.5t234.5 152.5t289.5 56zM817 142q228 0 386.5 162t158.5 396t-158.5 396t-386.5 162t-386.5 -162t-158.5 -396t158.5 -396t386.5 -162z" />
    <glyph glyph-name="multiply" unicode="&#xd7;" horiz-adv-x="1148" 
d="M451 660l-270 273q-34 34 0 68l55 55q34 34 68 0l270 -273l270 273q34 34 68 0l55 -55q34 -34 0 -68l-271 -273l271 -273q34 -34 0 -68l-55 -55q-34 -34 -68 0l-270 272l-270 -272q-34 -34 -68 0l-55 55q-34 34 0 68z" />
    <glyph glyph-name="Oslash" unicode="&#xd8;" horiz-adv-x="1634" 
d="M817 1424q211 0 386 -104l114 144q28 36 66 11l37 -24q43 -27 12 -67l-116 -147q112 -100 174.5 -239t62.5 -298q0 -151 -57 -285t-155 -230.5t-234.5 -152.5t-289.5 -56q-224 0 -404 114l-118 -150q-28 -36 -67 -11l-37 24q-41 28 -11 67l123 156q-105 99 -163.5 234.5
t-58.5 289.5q0 151 57 285t155 230.5t234.5 152.5t289.5 56zM272 700q0 -223 144 -381l679 863q-128 76 -278 76q-228 0 -386.5 -162t-158.5 -396zM817 142q228 0 386.5 162t158.5 396q0 115 -41.5 217t-116.5 178l-682 -867q133 -86 295 -86z" />
    <glyph glyph-name="Ugrave" unicode="&#xd9;" horiz-adv-x="1326" 
d="M823 1595q29 -37 -7 -68l-20 -17q-34 -29 -67 4l-221 221q-35 35 2 68l46 42q36 33 68 -5zM1171 489q0 -152 -67.5 -269t-182.5 -179.5t-258 -62.5t-258 62.5t-182.5 179.5t-67.5 269v863q0 48 48 48h92q48 0 48 -48v-884q0 -144 91 -234t229 -90t229 90t91 234v884
q0 48 48 48h92q48 0 48 -48v-863z" />
    <glyph glyph-name="Uacute" unicode="&#xda;" horiz-adv-x="1326" 
d="M702 1840q32 38 68 5l46 -42q37 -33 2 -68l-221 -221q-32 -32 -67 -3l-20 17q-36 30 -7 67zM1171 489q0 -152 -67.5 -269t-182.5 -179.5t-258 -62.5t-258 62.5t-182.5 179.5t-67.5 269v863q0 48 48 48h92q48 0 48 -48v-884q0 -144 91 -234t229 -90t229 90t91 234v884
q0 48 48 48h92q48 0 48 -48v-863z" />
    <glyph glyph-name="Ucircumflex" unicode="&#xdb;" horiz-adv-x="1326" 
d="M711 1847q35 0 59 -28l187 -230q29 -37 -7 -68l-20 -16q-36 -30 -67 3l-199 200l-200 -200q-32 -32 -67 -3l-20 17q-36 30 -7 67l187 230q24 28 59 28h95zM1171 489q0 -152 -67.5 -269t-182.5 -179.5t-258 -62.5t-258 62.5t-182.5 179.5t-67.5 269v863q0 48 48 48h92
q48 0 48 -48v-884q0 -144 91 -234t229 -90t229 90t91 234v884q0 48 48 48h92q48 0 48 -48v-863z" />
    <glyph glyph-name="Udieresis" unicode="&#xdc;" horiz-adv-x="1326" 
d="M371 1664q0 47 32.5 80t80.5 33t80.5 -33t32.5 -80q0 -48 -32.5 -80.5t-80.5 -32.5t-80.5 32.5t-32.5 80.5zM729 1664q0 47 32.5 80t80.5 33t80.5 -33t32.5 -80q0 -48 -32.5 -80.5t-80.5 -32.5t-80.5 32.5t-32.5 80.5zM1171 489q0 -152 -67.5 -269t-182.5 -179.5
t-258 -62.5t-258 62.5t-182.5 179.5t-67.5 269v863q0 48 48 48h92q48 0 48 -48v-884q0 -144 91 -234t229 -90t229 90t91 234v884q0 48 48 48h92q48 0 48 -48v-863z" />
    <glyph glyph-name="Yacute" unicode="&#xdd;" horiz-adv-x="1286" 
d="M682 1840q32 38 68 5l46 -42q37 -33 2 -68l-221 -221q-32 -32 -67 -3l-20 17q-36 30 -7 67zM643 758l373 610q19 32 58 32h97q29 0 38.5 -16.5t-5.5 -41.5l-467 -768v-526q0 -48 -48 -48h-92q-48 0 -48 48v526l-467 768q-15 25 -5.5 41.5t38.5 16.5h97q39 0 58 -32z" />
    <glyph glyph-name="Thorn" unicode="&#xde;" horiz-adv-x="1170" 
d="M356 264v-216q0 -48 -48 -48h-92q-48 0 -48 48v1304q0 48 48 48h92q48 0 48 -48v-216h259q222 0 351.5 -118.5t129.5 -317.5t-129.5 -317.5t-351.5 -118.5h-259zM905 700q0 126 -78.5 199.5t-218.5 73.5h-252v-546h252q140 0 218.5 73.5t78.5 199.5z" />
    <glyph glyph-name="germandbls" unicode="&#xdf;" horiz-adv-x="1215" 
d="M458 134q13 46 61 29q71 -27 161 -27q119 0 189.5 85t70.5 213q0 124 -89 211t-221 87q-24 0 -43 -4q-42 -6 -64 22l-24 31q-24 31 -5 66l211 390h-362v-1189q0 -48 -48 -48h-92q-48 0 -48 48v1304q0 48 48 48h658q48 0 48 -48v-83q0 -33 -15 -60l-198 -358
q184 0 306.5 -123.5t122.5 -310.5q0 -85 -28 -163t-80.5 -140.5t-138.5 -100t-192 -37.5q-114 0 -215 58q-36 20 -24 62z" />
    <glyph glyph-name="agrave" unicode="&#xe0;" horiz-adv-x="1297" 
d="M808 1271q29 -37 -7 -68l-20 -17q-34 -29 -67 4l-221 221q-35 35 2 68l46 42q36 33 68 -5zM74 518q0 149 65.5 273t183 197t262.5 73q116 0 215 -48.5t169 -133.5v109q0 48 48 48h86q48 0 48 -48v-940q0 -48 -48 -48h-86q-48 0 -48 48v109q-70 -85 -169 -133t-215 -48
q-145 0 -262.5 72.5t-183 196.5t-65.5 273zM259 518q0 -158 102.5 -268t254.5 -110q151 0 252 110t101 268q0 159 -99.5 269t-253.5 110q-155 0 -256 -110t-101 -269z" />
    <glyph glyph-name="aacute" unicode="&#xe1;" horiz-adv-x="1297" 
d="M727 1516q32 38 68 5l46 -42q37 -33 2 -68l-221 -221q-32 -32 -67 -3l-20 17q-36 30 -7 67zM74 518q0 149 65.5 273t183 197t262.5 73q116 0 215 -48.5t169 -133.5v109q0 48 48 48h86q48 0 48 -48v-940q0 -48 -48 -48h-86q-48 0 -48 48v109q-70 -85 -169 -133t-215 -48
q-145 0 -262.5 72.5t-183 196.5t-65.5 273zM259 518q0 -158 102.5 -268t254.5 -110q151 0 252 110t101 268q0 159 -99.5 269t-253.5 110q-155 0 -256 -110t-101 -269z" />
    <glyph glyph-name="acircumflex" unicode="&#xe2;" horiz-adv-x="1297" 
d="M679 1523q35 0 59 -28l187 -230q29 -37 -7 -68l-20 -16q-36 -30 -67 3l-199 200l-200 -200q-32 -32 -67 -3l-20 17q-36 30 -7 67l187 230q24 28 59 28h95zM74 518q0 149 65.5 273t183 197t262.5 73q116 0 215 -48.5t169 -133.5v109q0 48 48 48h86q48 0 48 -48v-940
q0 -48 -48 -48h-86q-48 0 -48 48v109q-70 -85 -169 -133t-215 -48q-145 0 -262.5 72.5t-183 196.5t-65.5 273zM259 518q0 -158 102.5 -268t254.5 -110q151 0 252 110t101 268q0 159 -99.5 269t-253.5 110q-155 0 -256 -110t-101 -269z" />
    <glyph glyph-name="atilde" unicode="&#xe3;" horiz-adv-x="1297" 
d="M643 1256q-6 4 -22.5 16.5t-24.5 17.5l-20.5 13t-23.5 11t-21 3q-36 0 -57 -55q-15 -46 -57 -37l-60 12q-50 10 -36 58q48 164 176 164q77 0 156 -58q6 -4 22.5 -16.5t24.5 -17.5l20.5 -13t23.5 -11t21 -3q36 0 57 55q15 46 57 37l60 -12q50 -10 36 -58
q-48 -164 -176 -164q-77 0 -156 58zM74 518q0 149 65.5 273t183 197t262.5 73q116 0 215 -48.5t169 -133.5v109q0 48 48 48h86q48 0 48 -48v-940q0 -48 -48 -48h-86q-48 0 -48 48v109q-70 -85 -169 -133t-215 -48q-145 0 -262.5 72.5t-183 196.5t-65.5 273zM259 518
q0 -158 102.5 -268t254.5 -110q151 0 252 110t101 268q0 159 -99.5 269t-253.5 110q-155 0 -256 -110t-101 -269z" />
    <glyph glyph-name="adieresis" unicode="&#xe4;" horiz-adv-x="1297" 
d="M324 1340q0 47 32.5 80t80.5 33t80.5 -33t32.5 -80q0 -48 -32.5 -80.5t-80.5 -32.5t-80.5 32.5t-32.5 80.5zM682 1340q0 47 32.5 80t80.5 33t80.5 -33t32.5 -80q0 -48 -32.5 -80.5t-80.5 -32.5t-80.5 32.5t-32.5 80.5zM74 518q0 149 65.5 273t183 197t262.5 73
q116 0 215 -48.5t169 -133.5v109q0 48 48 48h86q48 0 48 -48v-940q0 -48 -48 -48h-86q-48 0 -48 48v109q-70 -85 -169 -133t-215 -48q-145 0 -262.5 72.5t-183 196.5t-65.5 273zM259 518q0 -158 102.5 -268t254.5 -110q151 0 252 110t101 268q0 159 -99.5 269t-253.5 110
q-155 0 -256 -110t-101 -269z" />
    <glyph glyph-name="aring" unicode="&#xe5;" horiz-adv-x="1297" 
d="M438 1362q0 83 60 139t150 56t150 -56t60 -139t-60 -139t-150 -56t-150 56t-60 139zM557 1362q0 -38 26 -63.5t65 -25.5t65 25.5t26 63.5t-26 63.5t-65 25.5t-65 -25.5t-26 -63.5zM74 518q0 149 65.5 273t183 197t262.5 73q116 0 215 -48.5t169 -133.5v109q0 48 48 48h86
q48 0 48 -48v-940q0 -48 -48 -48h-86q-48 0 -48 48v109q-70 -85 -169 -133t-215 -48q-145 0 -262.5 72.5t-183 196.5t-65.5 273zM259 518q0 -158 102.5 -268t254.5 -110q151 0 252 110t101 268q0 159 -99.5 269t-253.5 110q-155 0 -256 -110t-101 -269z" />
    <glyph glyph-name="ae" unicode="&#xe6;" horiz-adv-x="2119" 
d="M1155 461q15 -141 119.5 -234.5t252.5 -93.5q164 0 294 117q34 32 67 1l37 -35q36 -34 4 -67q-159 -173 -397 -173q-249 0 -381 183v-111q0 -48 -48 -48h-86q-48 0 -48 48v109q-70 -85 -169 -133t-215 -48q-145 0 -262.5 72.5t-183 196.5t-65.5 273t65.5 273t183 197
t262.5 73q116 0 215 -48.5t169 -133.5v109q0 48 48 48h86q48 0 48 -48v-112q131 184 366 184q151 0 272.5 -70t188.5 -188.5t67 -260.5q0 -12 -2 -36q-4 -44 -51 -44h-837zM1517 903q-128 0 -228 -83t-127 -208h692q-21 127 -114 209t-223 82zM259 518q0 -158 102.5 -268
t254.5 -110q151 0 252 110t101 268q0 159 -99.5 269t-253.5 110q-155 0 -256 -110t-101 -269z" />
    <glyph glyph-name="ccedilla" unicode="&#xe7;" horiz-adv-x="1179" 
d="M660 -214q-21 0 -30 -1q-42 -3 -64 11q-3 3 -3 39v145q-131 15 -242 87t-179 191t-68 260q0 115 41.5 216t112 172t169 112.5t208.5 41.5q173 0 302 -83.5t182 -231.5q9 -24 -3 -39t-38 -15h-95q-38 0 -55 38q-37 80 -110.5 124t-169.5 44q-67 0 -130.5 -26t-115 -73
t-82.5 -120.5t-31 -159.5q0 -115 56.5 -203.5t142 -132t181.5 -43.5q88 0 167 38.5t136 109.5q29 36 67 14l41 -24q43 -24 17 -66q-131 -205 -375 -231v-101q101 0 158 -54t57 -137q0 -90 -70 -149t-177 -59q-85 0 -152.5 41.5t-94.5 108.5q-9 24 3.5 38.5t38.5 14.5h45
q33 0 56 -38q32 -53 95 -53q52 0 83 28t31 71q0 41 -32 68t-73 27z" />
    <glyph glyph-name="egrave" unicode="&#xe8;" horiz-adv-x="1224" 
d="M772 1271q29 -37 -7 -68l-20 -17q-34 -29 -67 4l-221 221q-35 35 2 68l46 42q36 33 68 -5zM260 461q15 -141 119.5 -234.5t252.5 -93.5q96 0 173.5 32.5t149.5 99.5q35 32 68 1l37 -35q34 -33 3 -67q-85 -91 -187.5 -139.5t-238.5 -48.5q-124 0 -230 42.5t-178.5 115.5
t-113.5 172.5t-41 211.5q0 111 41.5 211t114 173t174.5 115.5t218 42.5q151 0 272.5 -70t188.5 -188.5t67 -260.5q0 -12 -2 -36q-4 -44 -51 -44h-837zM622 903q-128 0 -228 -83t-127 -208h692q-21 127 -114 209t-223 82z" />
    <glyph glyph-name="eacute" unicode="&#xe9;" horiz-adv-x="1224" 
d="M722 1516q32 38 68 5l46 -42q37 -33 2 -68l-221 -221q-32 -32 -67 -3l-20 17q-36 30 -7 67zM260 461q15 -141 119.5 -234.5t252.5 -93.5q96 0 173.5 32.5t149.5 99.5q35 32 68 1l37 -35q34 -33 3 -67q-85 -91 -187.5 -139.5t-238.5 -48.5q-124 0 -230 42.5t-178.5 115.5
t-113.5 172.5t-41 211.5q0 111 41.5 211t114 173t174.5 115.5t218 42.5q151 0 272.5 -70t188.5 -188.5t67 -260.5q0 -12 -2 -36q-4 -44 -51 -44h-837zM622 903q-128 0 -228 -83t-127 -208h692q-21 127 -114 209t-223 82z" />
    <glyph glyph-name="ecircumflex" unicode="&#xea;" horiz-adv-x="1224" 
d="M660 1523q35 0 59 -28l187 -230q29 -37 -7 -68l-20 -16q-36 -30 -67 3l-199 200l-200 -200q-32 -32 -67 -3l-20 17q-36 30 -7 67l187 230q24 28 59 28h95zM260 461q15 -141 119.5 -234.5t252.5 -93.5q96 0 173.5 32.5t149.5 99.5q35 32 68 1l37 -35q34 -33 3 -67
q-85 -91 -187.5 -139.5t-238.5 -48.5q-124 0 -230 42.5t-178.5 115.5t-113.5 172.5t-41 211.5q0 111 41.5 211t114 173t174.5 115.5t218 42.5q151 0 272.5 -70t188.5 -188.5t67 -260.5q0 -12 -2 -36q-4 -44 -51 -44h-837zM622 903q-128 0 -228 -83t-127 -208h692
q-21 127 -114 209t-223 82z" />
    <glyph glyph-name="edieresis" unicode="&#xeb;" horiz-adv-x="1224" 
d="M320 1340q0 47 32.5 80t80.5 33t80.5 -33t32.5 -80q0 -48 -32.5 -80.5t-80.5 -32.5t-80.5 32.5t-32.5 80.5zM678 1340q0 47 32.5 80t80.5 33t80.5 -33t32.5 -80q0 -48 -32.5 -80.5t-80.5 -32.5t-80.5 32.5t-32.5 80.5zM260 461q15 -141 119.5 -234.5t252.5 -93.5
q96 0 173.5 32.5t149.5 99.5q35 32 68 1l37 -35q34 -33 3 -67q-85 -91 -187.5 -139.5t-238.5 -48.5q-124 0 -230 42.5t-178.5 115.5t-113.5 172.5t-41 211.5q0 111 41.5 211t114 173t174.5 115.5t218 42.5q151 0 272.5 -70t188.5 -188.5t67 -260.5q0 -12 -2 -36
q-4 -44 -51 -44h-837zM622 903q-128 0 -228 -83t-127 -208h692q-21 127 -114 209t-223 82z" />
    <glyph glyph-name="igrave" unicode="&#xec;" horiz-adv-x="522" 
d="M421 1271q29 -37 -7 -68l-20 -17q-34 -29 -67 4l-221 221q-35 35 2 68l46 42q36 33 68 -5zM170 988q0 48 48 48h86q48 0 48 -48v-940q0 -48 -48 -48h-86q-48 0 -48 48v940z" />
    <glyph glyph-name="iacute" unicode="&#xed;" horiz-adv-x="522" 
d="M300 1516q32 38 68 5l46 -42q37 -33 2 -68l-221 -221q-32 -32 -67 -3l-20 17q-36 30 -7 67zM170 988q0 48 48 48h86q48 0 48 -48v-940q0 -48 -48 -48h-86q-48 0 -48 48v940z" />
    <glyph glyph-name="icircumflex" unicode="&#xee;" horiz-adv-x="522" 
d="M309 1523q35 0 59 -28l187 -230q29 -37 -7 -68l-20 -16q-36 -30 -67 3l-199 200l-200 -200q-32 -32 -67 -3l-20 17q-36 30 -7 67l187 230q24 28 59 28h95zM170 988q0 48 48 48h86q48 0 48 -48v-940q0 -48 -48 -48h-86q-48 0 -48 48v940z" />
    <glyph glyph-name="idieresis" unicode="&#xef;" horiz-adv-x="522" 
d="M-31 1340q0 47 32.5 80t80.5 33t80.5 -33t32.5 -80q0 -48 -32.5 -80.5t-80.5 -32.5t-80.5 32.5t-32.5 80.5zM327 1340q0 47 32.5 80t80.5 33t80.5 -33t32.5 -80q0 -48 -32.5 -80.5t-80.5 -32.5t-80.5 32.5t-32.5 80.5zM170 988q0 48 48 48h86q48 0 48 -48v-940
q0 -48 -48 -48h-86q-48 0 -48 48v940z" />
    <glyph glyph-name="eth" unicode="&#xf0;" horiz-adv-x="1229" 
d="M350 1056q-44 -20 -64 24l-12 25q-19 43 23 63l202 95q-73 47 -159 87q-43 22 -22 65l19 39q21 43 64 24q161 -66 261 -140l183 86q44 21 64 -23l11 -24q19 -43 -23 -63l-127 -60q176 -153 275.5 -354t99.5 -418q0 -140 -71 -256t-194 -183t-271 -67t-271 67t-194 183
t-71 256q0 137 71 252.5t188.5 181.5t252.5 66q178 0 302 -130q-95 191 -272 329zM611 831q-148 0 -250.5 -100t-102.5 -246t102.5 -246t250.5 -100t250 100.5t102 245.5t-102 245.5t-250 100.5z" />
    <glyph glyph-name="ntilde" unicode="&#xf1;" horiz-adv-x="1207" 
d="M608 1256q-6 4 -22.5 16.5t-24.5 17.5l-20.5 13t-23.5 11t-21 3q-36 0 -57 -55q-15 -46 -57 -37l-60 12q-50 10 -36 58q48 164 176 164q77 0 156 -58q6 -4 22.5 -16.5t24.5 -17.5l20.5 -13t23.5 -11t21 -3q36 0 57 55q15 46 57 37l60 -12q50 -10 36 -58
q-48 -164 -176 -164q-77 0 -156 58zM328 48q0 -48 -48 -48h-86q-48 0 -48 48v940q0 48 48 48h86q48 0 48 -48v-111q52 81 141 132t195 51q191 0 304 -114t113 -309v-589q0 -48 -48 -48h-86q-48 0 -48 48v579q0 125 -71.5 197.5t-197.5 72.5q-121 0 -211.5 -93.5
t-90.5 -226.5v-529z" />
    <glyph glyph-name="ograve" unicode="&#xf2;" horiz-adv-x="1268" 
d="M794 1271q29 -37 -7 -68l-20 -17q-34 -29 -67 4l-221 221q-35 35 2 68l46 42q36 33 68 -5zM634 1060q158 0 287 -73t201 -197t72 -272t-72 -272t-201 -197t-287 -73t-287 73t-201 197t-72 272t72 272t201 197t287 73zM634 139q158 0 266.5 110.5t108.5 268.5
t-108.5 268.5t-266.5 110.5t-266.5 -110.5t-108.5 -268.5t108.5 -268.5t266.5 -110.5z" />
    <glyph glyph-name="oacute" unicode="&#xf3;" horiz-adv-x="1268" 
d="M673 1516q32 38 68 5l46 -42q37 -33 2 -68l-221 -221q-32 -32 -67 -3l-20 17q-36 30 -7 67zM634 1060q158 0 287 -73t201 -197t72 -272t-72 -272t-201 -197t-287 -73t-287 73t-201 197t-72 272t72 272t201 197t287 73zM634 139q158 0 266.5 110.5t108.5 268.5
t-108.5 268.5t-266.5 110.5t-266.5 -110.5t-108.5 -268.5t108.5 -268.5t266.5 -110.5z" />
    <glyph glyph-name="ocircumflex" unicode="&#xf4;" horiz-adv-x="1268" 
d="M682 1523q35 0 59 -28l187 -230q29 -37 -7 -68l-20 -16q-36 -30 -67 3l-199 200l-200 -200q-32 -32 -67 -3l-20 17q-36 30 -7 67l187 230q24 28 59 28h95zM634 1060q158 0 287 -73t201 -197t72 -272t-72 -272t-201 -197t-287 -73t-287 73t-201 197t-72 272t72 272
t201 197t287 73zM634 139q158 0 266.5 110.5t108.5 268.5t-108.5 268.5t-266.5 110.5t-266.5 -110.5t-108.5 -268.5t108.5 -268.5t266.5 -110.5z" />
    <glyph glyph-name="otilde" unicode="&#xf5;" horiz-adv-x="1268" 
d="M629 1256q-6 4 -22.5 16.5t-24.5 17.5l-20.5 13t-23.5 11t-21 3q-36 0 -57 -55q-15 -46 -57 -37l-60 12q-50 10 -36 58q48 164 176 164q77 0 156 -58q6 -4 22.5 -16.5t24.5 -17.5l20.5 -13t23.5 -11t21 -3q36 0 57 55q15 46 57 37l60 -12q50 -10 36 -58
q-48 -164 -176 -164q-77 0 -156 58zM634 1060q158 0 287 -73t201 -197t72 -272t-72 -272t-201 -197t-287 -73t-287 73t-201 197t-72 272t72 272t201 197t287 73zM634 139q158 0 266.5 110.5t108.5 268.5t-108.5 268.5t-266.5 110.5t-266.5 -110.5t-108.5 -268.5
t108.5 -268.5t266.5 -110.5z" />
    <glyph glyph-name="odieresis" unicode="&#xf6;" horiz-adv-x="1268" 
d="M342 1340q0 47 32.5 80t80.5 33t80.5 -33t32.5 -80q0 -48 -32.5 -80.5t-80.5 -32.5t-80.5 32.5t-32.5 80.5zM700 1340q0 47 32.5 80t80.5 33t80.5 -33t32.5 -80q0 -48 -32.5 -80.5t-80.5 -32.5t-80.5 32.5t-32.5 80.5zM634 1060q158 0 287 -73t201 -197t72 -272t-72 -272
t-201 -197t-287 -73t-287 73t-201 197t-72 272t72 272t201 197t287 73zM634 139q158 0 266.5 110.5t108.5 268.5t-108.5 268.5t-266.5 110.5t-266.5 -110.5t-108.5 -268.5t108.5 -268.5t266.5 -110.5z" />
    <glyph glyph-name="divide" unicode="&#xf7;" horiz-adv-x="1148" 
d="M449 1042q0 53 36 89t89 36t89 -36t36 -89t-36 -89t-89 -36t-89 36t-36 89zM167 586q-48 0 -48 48v61q0 48 48 48h814q48 0 48 -48v-61q0 -48 -48 -48h-814zM449 287q0 53 36 89t89 36t89 -36t36 -89t-36 -89t-89 -36t-89 36t-36 89z" />
    <glyph glyph-name="oslash" unicode="&#xf8;" horiz-adv-x="1268" 
d="M634 1060q157 0 288 -74l90 113q28 35 67 9l29 -21q40 -29 10 -67l-90 -113q79 -75 122.5 -175.5t43.5 -213.5q0 -148 -72 -272t-201 -197t-287 -73q-160 0 -287 73l-87 -109q-29 -36 -67 -10l-29 21q-40 29 -10 67l87 109q-80 75 -123.5 176t-43.5 215q0 148 72 272
t201 197t287 73zM259 518q0 -145 92 -251l464 584q-84 46 -181 46q-158 0 -266.5 -110.5t-108.5 -268.5zM634 139q158 0 266.5 110.5t108.5 268.5q0 144 -91 249l-464 -583q82 -45 180 -45z" />
    <glyph glyph-name="ugrave" unicode="&#xf9;" horiz-adv-x="1207" 
d="M690 1271q29 -37 -7 -68l-20 -17q-34 -29 -67 4l-221 221q-35 35 2 68l46 42q36 33 68 -5zM879 989q0 48 48 48h86q48 0 48 -48v-940q0 -48 -48 -48h-86q-48 0 -48 48v111q-52 -81 -141 -132t-195 -51q-191 0 -304 114t-113 309v589q0 48 48 48h86q48 0 48 -48v-579
q0 -125 71.5 -197.5t197.5 -72.5q121 0 211.5 93.5t90.5 226.5v529z" />
    <glyph glyph-name="uacute" unicode="&#xfa;" horiz-adv-x="1207" 
d="M642 1516q32 38 68 5l46 -42q37 -33 2 -68l-221 -221q-32 -32 -67 -3l-20 17q-36 30 -7 67zM879 989q0 48 48 48h86q48 0 48 -48v-940q0 -48 -48 -48h-86q-48 0 -48 48v111q-52 -81 -141 -132t-195 -51q-191 0 -304 114t-113 309v589q0 48 48 48h86q48 0 48 -48v-579
q0 -125 71.5 -197.5t197.5 -72.5q121 0 211.5 93.5t90.5 226.5v529z" />
    <glyph glyph-name="ucircumflex" unicode="&#xfb;" horiz-adv-x="1207" 
d="M641 1523q35 0 59 -28l187 -230q29 -37 -7 -68l-20 -16q-36 -30 -67 3l-199 200l-200 -200q-32 -32 -67 -3l-20 17q-36 30 -7 67l187 230q24 28 59 28h95zM879 989q0 48 48 48h86q48 0 48 -48v-940q0 -48 -48 -48h-86q-48 0 -48 48v111q-52 -81 -141 -132t-195 -51
q-191 0 -304 114t-113 309v589q0 48 48 48h86q48 0 48 -48v-579q0 -125 71.5 -197.5t197.5 -72.5q121 0 211.5 93.5t90.5 226.5v529z" />
    <glyph glyph-name="udieresis" unicode="&#xfc;" horiz-adv-x="1207" 
d="M301 1340q0 47 32.5 80t80.5 33t80.5 -33t32.5 -80q0 -48 -32.5 -80.5t-80.5 -32.5t-80.5 32.5t-32.5 80.5zM659 1340q0 47 32.5 80t80.5 33t80.5 -33t32.5 -80q0 -48 -32.5 -80.5t-80.5 -32.5t-80.5 32.5t-32.5 80.5zM879 989q0 48 48 48h86q48 0 48 -48v-940
q0 -48 -48 -48h-86q-48 0 -48 48v111q-52 -81 -141 -132t-195 -51q-191 0 -304 114t-113 309v589q0 48 48 48h86q48 0 48 -48v-579q0 -125 71.5 -197.5t197.5 -72.5q121 0 211.5 93.5t90.5 226.5v529z" />
    <glyph glyph-name="yacute" unicode="&#xfd;" horiz-adv-x="1050" 
d="M564 1516q32 38 68 5l46 -42q37 -33 2 -68l-221 -221q-32 -32 -67 -3l-20 17q-36 30 -7 67zM432 4l-383 976q-10 25 0.5 40.5t37.5 15.5h89q41 0 56 -38l293 -763l293 763q15 38 56 38h89q27 0 37.5 -15.5t0.5 -40.5l-548 -1406q-15 -38 -55 -38h-90q-27 0 -37.5 15.5
t-0.5 40.5z" />
    <glyph glyph-name="thorn" unicode="&#xfe;" horiz-adv-x="1297" 
d="M1223 518q0 -149 -65.5 -273t-183 -196.5t-262.5 -72.5q-117 0 -216 48t-168 133v-573q0 -48 -48 -48h-86q-48 0 -48 48v1828q0 48 48 48h86q48 0 48 -48v-533q69 85 168 133.5t216 48.5q145 0 262.5 -73t183 -197t65.5 -273zM1038 518q0 159 -101 269t-256 110
q-154 0 -253.5 -110t-99.5 -269q0 -158 101 -268t252 -110q152 0 254.5 110t102.5 268z" />
    <glyph glyph-name="ydieresis" unicode="&#xff;" horiz-adv-x="1050" 
d="M233 1340q0 47 32.5 80t80.5 33t80.5 -33t32.5 -80q0 -48 -32.5 -80.5t-80.5 -32.5t-80.5 32.5t-32.5 80.5zM591 1340q0 47 32.5 80t80.5 33t80.5 -33t32.5 -80q0 -48 -32.5 -80.5t-80.5 -32.5t-80.5 32.5t-32.5 80.5zM432 4l-383 976q-10 25 0.5 40.5t37.5 15.5h89
q41 0 56 -38l293 -763l293 763q15 38 56 38h89q27 0 37.5 -15.5t0.5 -40.5l-548 -1406q-15 -38 -55 -38h-90q-27 0 -37.5 15.5t-0.5 40.5z" />
    <glyph glyph-name="Amacron" unicode="&#x100;" horiz-adv-x="1362" 
d="M391 1681q0 48 48 48h484q48 0 48 -48v-46q0 -48 -48 -48h-484q-48 0 -48 48v46zM1150 0q-42 0 -55 39l-116 322h-596l-116 -322q-13 -39 -55 -39h-105q-26 0 -36.5 15t-1.5 40l493 1307q15 38 55 38h128q40 0 55 -38l493 -1307q9 -25 -1.5 -40t-36.5 -15h-105zM923 524
l-242 668l-242 -668h484z" />
    <glyph glyph-name="amacron" unicode="&#x101;" horiz-adv-x="1297" 
d="M358 1357q0 48 48 48h484q48 0 48 -48v-46q0 -48 -48 -48h-484q-48 0 -48 48v46zM74 518q0 149 65.5 273t183 197t262.5 73q116 0 215 -48.5t169 -133.5v109q0 48 48 48h86q48 0 48 -48v-940q0 -48 -48 -48h-86q-48 0 -48 48v109q-70 -85 -169 -133t-215 -48
q-145 0 -262.5 72.5t-183 196.5t-65.5 273zM259 518q0 -158 102.5 -268t254.5 -110q151 0 252 110t101 268q0 159 -99.5 269t-253.5 110q-155 0 -256 -110t-101 -269z" />
    <glyph glyph-name="Abreve" unicode="&#x102;" horiz-adv-x="1362" 
d="M681 1490q-118 0 -207 72t-112 186q-5 24 7.5 37.5t36.5 13.5h66q40 0 51 -44q15 -58 57 -93.5t101 -35.5t101 35.5t57 93.5q11 44 51 44h66q25 0 37 -14t7 -38q-24 -114 -112.5 -185.5t-206.5 -71.5zM1150 0q-42 0 -55 39l-116 322h-596l-116 -322q-13 -39 -55 -39h-105
q-26 0 -36.5 15t-1.5 40l493 1307q15 38 55 38h128q40 0 55 -38l493 -1307q9 -25 -1.5 -40t-36.5 -15h-105zM923 524l-242 668l-242 -668h484z" />
    <glyph glyph-name="abreve" unicode="&#x103;" horiz-adv-x="1297" 
d="M626 1166q-118 0 -207 72t-112 186q-5 24 7.5 37.5t36.5 13.5h66q40 0 51 -44q15 -58 57 -93.5t101 -35.5t101 35.5t57 93.5q11 44 51 44h66q25 0 37 -14t7 -38q-24 -114 -112.5 -185.5t-206.5 -71.5zM74 518q0 149 65.5 273t183 197t262.5 73q116 0 215 -48.5
t169 -133.5v109q0 48 48 48h86q48 0 48 -48v-940q0 -48 -48 -48h-86q-48 0 -48 48v109q-70 -85 -169 -133t-215 -48q-145 0 -262.5 72.5t-183 196.5t-65.5 273zM259 518q0 -158 102.5 -268t254.5 -110q151 0 252 110t101 268q0 159 -99.5 269t-253.5 110q-155 0 -256 -110
t-101 -269z" />
    <glyph glyph-name="Aogonek" unicode="&#x104;" horiz-adv-x="1362" 
d="M1143 0q-35 0 -48 39l-116 322h-596l-116 -322q-13 -39 -55 -39h-105q-26 0 -36.5 15t-1.5 40l493 1307q15 38 55 38h128q40 0 55 -38l499 -1321q14 -40 -23 -65q-112 -71 -162.5 -133t-50.5 -142q0 -55 29.5 -82t79.5 -27q72 0 103 71q17 40 54 40h45q26 0 38 -14.5
t4 -38.5q-26 -77 -91.5 -123.5t-161.5 -46.5q-104 0 -173 61t-69 157q0 97 66.5 175t188.5 127h-33zM923 524l-242 668l-242 -668h484z" />
    <glyph glyph-name="aogonek" unicode="&#x105;" horiz-adv-x="1297" 
d="M74 518q0 149 65.5 273t183 197t262.5 73q116 0 215 -48.5t169 -133.5v109q0 48 48 48h86q48 0 48 -48v-950q0 -38 -33 -58q-115 -74 -166.5 -136t-51.5 -143q0 -55 29.5 -82t79.5 -27q72 0 103 71q17 40 54 40h45q26 0 38 -14.5t4 -38.5q-26 -77 -91.5 -123.5
t-161.5 -46.5q-104 0 -173 61t-69 157q0 97 66.5 175t188.5 127q-44 0 -44 48v109q-70 -85 -169 -133t-215 -48q-145 0 -262.5 72.5t-183 196.5t-65.5 273zM259 518q0 -158 102.5 -268t254.5 -110q151 0 252 110t101 268q0 159 -99.5 269t-253.5 110q-155 0 -256 -110
t-101 -269z" />
    <glyph glyph-name="Cacute" unicode="&#x106;" horiz-adv-x="1517" 
d="M797 1840q32 38 68 5l46 -42q37 -33 2 -68l-221 -221q-32 -32 -67 -3l-20 17q-36 30 -7 67zM81 700q0 156 55 292t149.5 230t223.5 148t273 54q234 0 403.5 -117.5t235.5 -321.5q8 -24 -3.5 -39t-37.5 -15h-98q-38 0 -55 39q-55 137 -174.5 212.5t-264.5 75.5
q-79 0 -154 -22.5t-141 -69t-115 -112t-77.5 -157t-28.5 -197.5q0 -132 43.5 -240.5t116 -176.5t164 -104.5t191.5 -36.5q146 0 270.5 69.5t206.5 188.5q29 39 67 13l47 -33q39 -28 15 -67q-105 -168 -261 -252.5t-350 -84.5q-144 0 -273 54t-223.5 148t-149.5 230t-55 292z
" />
    <glyph glyph-name="cacute" unicode="&#x107;" horiz-adv-x="1179" 
d="M709 1516q32 38 68 5l46 -42q37 -33 2 -68l-221 -221q-32 -32 -67 -3l-20 17q-36 30 -7 67zM74 518q0 115 41.5 216t112 172t169 112.5t208.5 41.5q173 0 302 -83.5t182 -231.5q9 -24 -3 -39t-38 -15h-95q-38 0 -55 38q-37 80 -110.5 124t-169.5 44q-67 0 -130.5 -26
t-115 -73t-82.5 -120.5t-31 -159.5q0 -115 56.5 -203.5t142 -132t181.5 -43.5q88 0 167 38.5t136 109.5q29 36 67 14l41 -24q43 -24 17 -66q-74 -115 -187.5 -175t-254.5 -60q-143 0 -269 69.5t-204 195t-78 277.5z" />
    <glyph glyph-name="Ccircumflex" unicode="&#x108;" horiz-adv-x="1517" 
d="M806 1847q35 0 59 -28l187 -230q29 -37 -7 -68l-20 -16q-36 -30 -67 3l-199 200l-200 -200q-32 -32 -67 -3l-20 17q-36 30 -7 67l187 230q24 28 59 28h95zM81 700q0 156 55 292t149.5 230t223.5 148t273 54q234 0 403.5 -117.5t235.5 -321.5q8 -24 -3.5 -39t-37.5 -15
h-98q-38 0 -55 39q-55 137 -174.5 212.5t-264.5 75.5q-79 0 -154 -22.5t-141 -69t-115 -112t-77.5 -157t-28.5 -197.5q0 -132 43.5 -240.5t116 -176.5t164 -104.5t191.5 -36.5q146 0 270.5 69.5t206.5 188.5q29 39 67 13l47 -33q39 -28 15 -67q-105 -168 -261 -252.5
t-350 -84.5q-144 0 -273 54t-223.5 148t-149.5 230t-55 292z" />
    <glyph glyph-name="ccircumflex" unicode="&#x109;" horiz-adv-x="1179" 
d="M629 1523q35 0 59 -28l187 -230q29 -37 -7 -68l-20 -16q-36 -30 -67 3l-199 200l-200 -200q-32 -32 -67 -3l-20 17q-36 30 -7 67l187 230q24 28 59 28h95zM74 518q0 115 41.5 216t112 172t169 112.5t208.5 41.5q173 0 302 -83.5t182 -231.5q9 -24 -3 -39t-38 -15h-95
q-38 0 -55 38q-37 80 -110.5 124t-169.5 44q-67 0 -130.5 -26t-115 -73t-82.5 -120.5t-31 -159.5q0 -115 56.5 -203.5t142 -132t181.5 -43.5q88 0 167 38.5t136 109.5q29 36 67 14l41 -24q43 -24 17 -66q-74 -115 -187.5 -175t-254.5 -60q-143 0 -269 69.5t-204 195
t-78 277.5z" />
    <glyph glyph-name="Cdotaccent" unicode="&#x10a;" horiz-adv-x="1517" 
d="M645 1664q0 47 32.5 80t80.5 33t80.5 -33t32.5 -80t-32.5 -80t-80.5 -33t-80.5 33t-32.5 80zM81 700q0 -156 55 -292t149.5 -230t223.5 -148t273 -54q206 0 368 94.5t266 282.5l-125 88q-81 -136 -213 -217.5t-291 -81.5q-100 0 -191.5 36.5t-164 104.5t-116 176.5
t-43.5 240.5q0 106 28.5 197.5t77.5 157t115 112t141 69t154 22.5q156 0 281 -86t172 -241h195q-54 228 -229.5 360.5t-424.5 132.5q-144 0 -273 -54t-223.5 -148t-149.5 -230t-55 -292z" />
    <glyph glyph-name="cdotaccent" unicode="&#x10b;" horiz-adv-x="1179" 
d="M488 1340q0 47 32.5 80t80.5 33t80.5 -33t32.5 -80t-32.5 -80t-80.5 -33t-80.5 33t-32.5 80zM74 518q0 115 41.5 216t112 172t169 112.5t208.5 41.5q173 0 302 -83.5t182 -231.5q9 -24 -3 -39t-38 -15h-95q-38 0 -55 38q-37 80 -110.5 124t-169.5 44q-67 0 -130.5 -26
t-115 -73t-82.5 -120.5t-31 -159.5q0 -115 56.5 -203.5t142 -132t181.5 -43.5q88 0 167 38.5t136 109.5q29 36 67 14l41 -24q43 -24 17 -66q-74 -115 -187.5 -175t-254.5 -60q-143 0 -269 69.5t-204 195t-78 277.5z" />
    <glyph glyph-name="Ccaron" unicode="&#x10c;" horiz-adv-x="1517" 
d="M711 1509q-35 0 -59 28l-187 230q-29 37 7 68l20 16q36 30 67 -3l199 -200l200 200q32 32 67 3l20 -17q36 -30 7 -67l-187 -230q-24 -28 -59 -28h-95zM81 700q0 -156 55 -292t149.5 -230t223.5 -148t273 -54q206 0 368 94.5t266 282.5l-125 88q-81 -136 -213 -217.5
t-291 -81.5q-100 0 -191.5 36.5t-164 104.5t-116 176.5t-43.5 240.5q0 106 28.5 197.5t77.5 157t115 112t141 69t154 22.5q156 0 281 -86t172 -241h195q-54 228 -229.5 360.5t-424.5 132.5q-144 0 -273 -54t-223.5 -148t-149.5 -230t-55 -292z" />
    <glyph glyph-name="ccaron" unicode="&#x10d;" horiz-adv-x="1179" 
d="M535 1165q-35 0 -59 28l-187 230q-29 37 7 68l20 16q36 30 67 -3l199 -200l200 200q32 32 67 3l20 -17q36 -30 7 -67l-187 -230q-24 -28 -59 -28h-95zM74 518q0 115 41.5 216t112 172t169 112.5t208.5 41.5q173 0 302 -83.5t182 -231.5q9 -24 -3 -39t-38 -15h-95
q-38 0 -55 38q-37 80 -110.5 124t-169.5 44q-67 0 -130.5 -26t-115 -73t-82.5 -120.5t-31 -159.5q0 -115 56.5 -203.5t142 -132t181.5 -43.5q88 0 167 38.5t136 109.5q29 36 67 14l41 -24q43 -24 17 -66q-74 -115 -187.5 -175t-254.5 -60q-143 0 -269 69.5t-204 195
t-78 277.5z" />
    <glyph glyph-name="Dcaron" unicode="&#x10e;" horiz-adv-x="1413" 
d="M659 1509q-35 0 -59 28l-187 230q-29 37 7 68l20 16q36 30 67 -3l199 -200l200 200q32 32 67 3l20 -17q36 -30 7 -67l-187 -230q-24 -28 -59 -28h-95zM643 1400q316 0 502.5 -189.5t186.5 -510.5t-186.5 -510.5t-502.5 -189.5h-427q-48 0 -48 48v1304q0 48 48 48h427z
M356 1234v-1068h287q227 0 362.5 138.5t135.5 395.5t-135.5 395.5t-362.5 138.5h-287z" />
    <glyph glyph-name="dcaron" unicode="&#x10f;" horiz-adv-x="1602" 
d="M1327 1379q0 45 30.5 75t75.5 30q47 0 76 -32.5t29 -93.5q0 -84 -43 -157.5t-121 -122.5q-36 -22 -67 9q-22 22 10 60q45 53 48.5 99.5t-23.5 83.5q-15 26 -15 49zM74 518q0 149 65.5 273t183 197t262.5 73q116 0 215 -48.5t169 -133.5v533q0 48 48 48h86q48 0 48 -48
v-1364q0 -48 -48 -48h-86q-48 0 -48 48v109q-70 -85 -169 -133t-215 -48q-145 0 -262.5 72.5t-183 196.5t-65.5 273zM259 518q0 -158 102.5 -268t254.5 -110q151 0 252 110t101 268q0 159 -99.5 269t-253.5 110q-155 0 -256 -110t-101 -269z" />
    <glyph glyph-name="Dcroat" unicode="&#x110;" horiz-adv-x="1452" 
d="M682 1400q316 0 502.5 -189.5t186.5 -510.5t-186.5 -510.5t-502.5 -189.5h-427q-48 0 -48 48v581h-135q-48 0 -48 48v46q0 48 48 48h135v581q0 48 48 48h427zM395 1234v-463h259q48 0 48 -48v-46q0 -48 -48 -48h-259v-463h287q227 0 362.5 138.5t135.5 395.5
t-135.5 395.5t-362.5 138.5h-287z" />
    <glyph glyph-name="dcroat" unicode="&#x111;" horiz-adv-x="1328" 
d="M74 518q0 149 65.5 273t183 197t262.5 73q116 0 215 -48.5t169 -133.5v294h-298q-48 0 -48 48v30q0 48 48 48h298v113q0 48 48 48h86q48 0 48 -48v-113h102q48 0 48 -48v-30q0 -48 -48 -48h-102v-1125q0 -48 -48 -48h-86q-48 0 -48 48v109q-70 -85 -169 -133t-215 -48
q-145 0 -262.5 72.5t-183 196.5t-65.5 273zM259 518q0 -158 102.5 -268t254.5 -110q151 0 252 110t101 268q0 159 -99.5 269t-253.5 110q-155 0 -256 -110t-101 -269z" />
    <glyph glyph-name="Emacron" unicode="&#x112;" horiz-adv-x="1129" 
d="M290 1681q0 48 48 48h484q48 0 48 -48v-46q0 -48 -48 -48h-484q-48 0 -48 48v46zM168 1352q0 48 48 48h731q48 0 48 -48v-67q0 -48 -48 -48h-591v-452h540q48 0 48 -48v-67q0 -48 -48 -48h-540v-459h609q48 0 48 -48v-67q0 -48 -48 -48h-749q-48 0 -48 48v1304z" />
    <glyph glyph-name="emacron" unicode="&#x113;" horiz-adv-x="1224" 
d="M322 1357q0 48 48 48h484q48 0 48 -48v-46q0 -48 -48 -48h-484q-48 0 -48 48v46zM260 461q15 -141 119.5 -234.5t252.5 -93.5q96 0 173.5 32.5t149.5 99.5q35 32 68 1l37 -35q34 -33 3 -67q-85 -91 -187.5 -139.5t-238.5 -48.5q-124 0 -230 42.5t-178.5 115.5
t-113.5 172.5t-41 211.5q0 111 41.5 211t114 173t174.5 115.5t218 42.5q151 0 272.5 -70t188.5 -188.5t67 -260.5q0 -12 -2 -36q-4 -44 -51 -44h-837zM622 903q-128 0 -228 -83t-127 -208h692q-21 127 -114 209t-223 82z" />
    <glyph glyph-name="Ebreve" unicode="&#x114;" horiz-adv-x="1129" 
d="M578 1490q-118 0 -207 72t-112 186q-5 24 7.5 37.5t36.5 13.5h66q40 0 51 -44q15 -58 57 -93.5t101 -35.5t101 35.5t57 93.5q11 44 51 44h66q25 0 37 -14t7 -38q-24 -114 -112.5 -185.5t-206.5 -71.5zM168 1352q0 48 48 48h731q48 0 48 -48v-67q0 -48 -48 -48h-591v-452
h540q48 0 48 -48v-67q0 -48 -48 -48h-540v-459h609q48 0 48 -48v-67q0 -48 -48 -48h-749q-48 0 -48 48v1304z" />
    <glyph glyph-name="ebreve" unicode="&#x115;" horiz-adv-x="1224" 
d="M612 1166q-118 0 -207 72t-112 186q-5 24 7.5 37.5t36.5 13.5h66q40 0 51 -44q15 -58 57 -93.5t101 -35.5t101 35.5t57 93.5q11 44 51 44h66q25 0 37 -14t7 -38q-24 -114 -112.5 -185.5t-206.5 -71.5zM260 461q15 -141 119.5 -234.5t252.5 -93.5q96 0 173.5 32.5
t149.5 99.5q35 32 68 1l37 -35q34 -33 3 -67q-85 -91 -187.5 -139.5t-238.5 -48.5q-124 0 -230 42.5t-178.5 115.5t-113.5 172.5t-41 211.5q0 111 41.5 211t114 173t174.5 115.5t218 42.5q151 0 272.5 -70t188.5 -188.5t67 -260.5q0 -12 -2 -36q-4 -44 -51 -44h-837z
M622 903q-128 0 -228 -83t-127 -208h692q-21 127 -114 209t-223 82z" />
    <glyph glyph-name="Edotaccent" unicode="&#x116;" horiz-adv-x="1129" 
d="M474 1664q0 47 32.5 80t80.5 33t80.5 -33t32.5 -80t-32.5 -80t-80.5 -33t-80.5 33t-32.5 80zM168 1352q0 48 48 48h731q48 0 48 -48v-67q0 -48 -48 -48h-591v-452h540q48 0 48 -48v-67q0 -48 -48 -48h-540v-459h609q48 0 48 -48v-67q0 -48 -48 -48h-749q-48 0 -48 48
v1304z" />
    <glyph glyph-name="edotaccent" unicode="&#x117;" horiz-adv-x="1224" 
d="M499 1340q0 47 32.5 80t80.5 33t80.5 -33t32.5 -80t-32.5 -80t-80.5 -33t-80.5 33t-32.5 80zM260 461q15 -141 119.5 -234.5t252.5 -93.5q96 0 173.5 32.5t149.5 99.5q35 32 68 1l37 -35q34 -33 3 -67q-85 -91 -187.5 -139.5t-238.5 -48.5q-124 0 -230 42.5t-178.5 115.5
t-113.5 172.5t-41 211.5q0 111 41.5 211t114 173t174.5 115.5t218 42.5q151 0 272.5 -70t188.5 -188.5t67 -260.5q0 -12 -2 -36q-4 -44 -51 -44h-837zM622 903q-128 0 -228 -83t-127 -208h692q-21 127 -114 209t-223 82z" />
    <glyph glyph-name="Eogonek" unicode="&#x118;" horiz-adv-x="1129" 
d="M168 1352q0 48 48 48h731q48 0 48 -48v-67q0 -48 -48 -48h-591v-452h540q48 0 48 -48v-67q0 -48 -48 -48h-540v-459h609q48 0 48 -48v-67q0 -48 -48 -48h-127q-134 -82 -192.5 -147.5t-58.5 -151.5q0 -55 29.5 -82t79.5 -27q72 0 103 71q17 40 54 40h45q26 0 38 -14.5
t4 -38.5q-26 -77 -91.5 -123.5t-161.5 -46.5q-104 0 -173 61t-69 157q0 97 66.5 175t188.5 127h-484q-48 0 -48 48v1304z" />
    <glyph glyph-name="eogonek" unicode="&#x119;" horiz-adv-x="1224" 
d="M260 461q15 -141 119.5 -234.5t252.5 -93.5q164 0 294 117q34 32 67 1l37 -35q36 -34 4 -67q-124 -136 -299 -165q-119 -75 -172 -138t-53 -145q0 -55 29.5 -82t79.5 -27q72 0 103 71q17 40 54 40h45q26 0 38 -14.5t4 -38.5q-26 -77 -91.5 -123.5t-161.5 -46.5
q-104 0 -173 61t-69 157q0 87 53.5 159t153.5 122q-224 20 -362.5 172.5t-138.5 366.5q0 111 41.5 211t114 173t174.5 115.5t218 42.5q151 0 272.5 -70t188.5 -188.5t67 -260.5q0 -12 -2 -36q-4 -44 -51 -44h-837zM622 903q-128 0 -228 -83t-127 -208h692q-21 127 -114 209
t-223 82z" />
    <glyph glyph-name="Ecaron" unicode="&#x11a;" horiz-adv-x="1129" 
d="M534 1509q-35 0 -59 28l-187 230q-29 37 7 68l20 16q36 30 67 -3l199 -200l200 200q32 32 67 3l20 -17q36 -30 7 -67l-187 -230q-24 -28 -59 -28h-95zM168 1352q0 48 48 48h731q48 0 48 -48v-67q0 -48 -48 -48h-591v-452h540q48 0 48 -48v-67q0 -48 -48 -48h-540v-459
h609q48 0 48 -48v-67q0 -48 -48 -48h-749q-48 0 -48 48v1304z" />
    <glyph glyph-name="ecaron" unicode="&#x11b;" horiz-adv-x="1224" 
d="M565 1165q-35 0 -59 28l-187 230q-29 37 7 68l20 16q36 30 67 -3l199 -200l200 200q32 32 67 3l20 -17q36 -30 7 -67l-187 -230q-24 -28 -59 -28h-95zM260 461q15 -141 119.5 -234.5t252.5 -93.5q96 0 173.5 32.5t149.5 99.5q35 32 68 1l37 -35q34 -33 3 -67
q-85 -91 -187.5 -139.5t-238.5 -48.5q-124 0 -230 42.5t-178.5 115.5t-113.5 172.5t-41 211.5q0 111 41.5 211t114 173t174.5 115.5t218 42.5q151 0 272.5 -70t188.5 -188.5t67 -260.5q0 -12 -2 -36q-4 -44 -51 -44h-837zM622 903q-128 0 -228 -83t-127 -208h692
q-21 127 -114 209t-223 82z" />
    <glyph glyph-name="Gcircumflex" unicode="&#x11c;" horiz-adv-x="1541" 
d="M813 1847q35 0 59 -28l187 -230q29 -37 -7 -68l-20 -16q-36 -30 -67 3l-199 200l-200 -200q-32 -32 -67 -3l-20 17q-36 30 -7 67l187 230q24 28 59 28h95zM1438 948q-52 206 -225 341t-431 135q-139 0 -266.5 -54t-223.5 -147.5t-153.5 -230t-57.5 -292.5
q0 -152 59 -287.5t158 -230.5t232 -150.5t277 -55.5q137 0 255 45.5t207 131t140 216.5t51 293v50h-691v-156h439q24 0 36.5 -13.5t8.5 -37.5q-27 -161 -152 -262t-290 -101q-102 0 -198 38t-172.5 107.5t-122.5 177t-46 235.5q0 106 30 198t81 156.5t117.5 111t139.5 69
t148 22.5q155 0 278 -83t172 -226h200z" />
    <glyph glyph-name="gcircumflex" unicode="&#x11d;" horiz-adv-x="1297" 
d="M680 1523q35 0 59 -28l187 -230q29 -37 -7 -68l-20 -16q-36 -30 -67 3l-199 200l-200 -200q-32 -32 -67 -3l-20 17q-36 30 -7 67l187 230q24 28 59 28h95zM74 518q0 149 65.5 273t183 197t262.5 73q116 0 215 -48.5t169 -133.5v109q0 48 48 48h86q48 0 48 -48v-955
q0 -227 -137 -362t-387 -135q-244 0 -419 193q-30 34 3 67l33 32q33 33 67 -1q141 -134 315 -134q156 0 249.5 88t93.5 240v136q-70 -85 -169 -133t-215 -48q-145 0 -262.5 72.5t-183 196.5t-65.5 273zM259 518q0 -158 102.5 -268t254.5 -110q151 0 252 110t101 268
q0 159 -99.5 269t-253.5 110q-155 0 -256 -110t-101 -269z" />
    <glyph glyph-name="Gbreve" unicode="&#x11e;" horiz-adv-x="1541" 
d="M765 1490q-118 0 -207 72t-112 186q-5 24 7.5 37.5t36.5 13.5h66q40 0 51 -44q15 -58 57 -93.5t101 -35.5t101 35.5t57 93.5q11 44 51 44h66q25 0 37 -14t7 -38q-24 -114 -112.5 -185.5t-206.5 -71.5zM1279 948q-40 0 -56 38q-56 126 -173.5 198.5t-261.5 72.5
q-75 0 -148 -22.5t-139.5 -69t-117.5 -111t-81 -156.5t-30 -198q0 -128 46 -235.5t122.5 -177t172.5 -107.5t198 -38q117 0 216.5 52t162 147t69.5 215h-442q-48 0 -48 48v60q0 48 48 48h595q48 0 48 -48v-2q0 -162 -51 -293t-140 -216.5t-207 -131t-255 -45.5
q-144 0 -277 55.5t-232 150.5t-158 230.5t-59 287.5q0 156 57.5 292.5t153.5 230t223.5 147.5t266.5 54q241 0 407.5 -118t232.5 -304q8 -24 -3.5 -39t-37.5 -15h-102z" />
    <glyph glyph-name="gbreve" unicode="&#x11f;" horiz-adv-x="1297" 
d="M624 1166q-118 0 -207 72t-112 186q-5 24 7.5 37.5t36.5 13.5h66q40 0 51 -44q15 -58 57 -93.5t101 -35.5t101 35.5t57 93.5q11 44 51 44h66q25 0 37 -14t7 -38q-24 -114 -112.5 -185.5t-206.5 -71.5zM74 518q0 149 65.5 273t183 197t262.5 73q116 0 215 -48.5
t169 -133.5v109q0 48 48 48h86q48 0 48 -48v-955q0 -227 -137 -362t-387 -135q-244 0 -419 193q-30 34 3 67l33 32q33 33 67 -1q141 -134 315 -134q156 0 249.5 88t93.5 240v136q-70 -85 -169 -133t-215 -48q-145 0 -262.5 72.5t-183 196.5t-65.5 273zM259 518
q0 -158 102.5 -268t254.5 -110q151 0 252 110t101 268q0 159 -99.5 269t-253.5 110q-155 0 -256 -110t-101 -269z" />
    <glyph glyph-name="Gdotaccent" unicode="&#x120;" horiz-adv-x="1541" 
d="M652 1664q0 47 32.5 80t80.5 33t80.5 -33t32.5 -80t-32.5 -80t-80.5 -33t-80.5 33t-32.5 80zM1438 948q-52 206 -225 341t-431 135q-139 0 -266.5 -54t-223.5 -147.5t-153.5 -230t-57.5 -292.5q0 -152 59 -287.5t158 -230.5t232 -150.5t277 -55.5q137 0 255 45.5t207 131
t140 216.5t51 293v50h-691v-156h439q24 0 36.5 -13.5t8.5 -37.5q-27 -161 -152 -262t-290 -101q-102 0 -198 38t-172.5 107.5t-122.5 177t-46 235.5q0 106 30 198t81 156.5t117.5 111t139.5 69t148 22.5q155 0 278 -83t172 -226h200z" />
    <glyph glyph-name="gdotaccent" unicode="&#x121;" horiz-adv-x="1297" 
d="M504 1340q0 47 32.5 80t80.5 33t80.5 -33t32.5 -80t-32.5 -80t-80.5 -33t-80.5 33t-32.5 80zM74 518q0 149 65.5 273t183 197t262.5 73q116 0 215 -48.5t169 -133.5v109q0 48 48 48h86q48 0 48 -48v-955q0 -227 -137 -362t-387 -135q-244 0 -419 193q-30 34 3 67l33 32
q33 33 67 -1q141 -134 315 -134q156 0 249.5 88t93.5 240v136q-70 -85 -169 -133t-215 -48q-145 0 -262.5 72.5t-183 196.5t-65.5 273zM259 518q0 -158 102.5 -268t254.5 -110q151 0 252 110t101 268q0 159 -99.5 269t-253.5 110q-155 0 -256 -110t-101 -269z" />
    <glyph glyph-name="Gcommaaccent" unicode="&#x122;" horiz-adv-x="1541" 
d="M1279 948q-40 0 -56 38q-56 126 -173.5 198.5t-261.5 72.5q-75 0 -148 -22.5t-139.5 -69t-117.5 -111t-81 -156.5t-30 -198q0 -128 46 -235.5t122.5 -177t172.5 -107.5t198 -38q117 0 216.5 52t162 147t69.5 215h-442q-48 0 -48 48v60q0 48 48 48h595q48 0 48 -48v-2
q0 -162 -51 -293t-140 -216.5t-207 -131t-255 -45.5q-144 0 -277 55.5t-232 150.5t-158 230.5t-59 287.5q0 156 57.5 292.5t153.5 230t223.5 147.5t266.5 54q241 0 407.5 -118t232.5 -304q8 -24 -3.5 -39t-37.5 -15h-102zM809 -139q32 38 68 5l46 -42q37 -33 2 -68
l-221 -221q-32 -32 -67 -3l-20 17q-36 30 -7 67z" />
    <glyph glyph-name="gcommaaccent" unicode="&#x123;" horiz-adv-x="1297" 
d="M609 1183q-32 -38 -68 -5l-46 42q-37 33 -2 68l221 221q32 32 67 3l20 -17q36 -30 7 -67zM74 518q0 149 65.5 273t183 197t262.5 73q116 0 215 -48.5t169 -133.5v109q0 48 48 48h86q48 0 48 -48v-955q0 -227 -137 -362t-387 -135q-244 0 -419 193q-30 34 3 67l33 32
q33 33 67 -1q141 -134 315 -134q156 0 249.5 88t93.5 240v136q-70 -85 -169 -133t-215 -48q-145 0 -262.5 72.5t-183 196.5t-65.5 273zM259 518q0 -158 102.5 -268t254.5 -110q151 0 252 110t101 268q0 159 -99.5 269t-253.5 110q-155 0 -256 -110t-101 -269z" />
    <glyph glyph-name="Hcircumflex" unicode="&#x124;" horiz-adv-x="1394" 
d="M745 1847q35 0 59 -28l187 -230q29 -37 -7 -68l-20 -16q-36 -30 -67 3l-199 200l-200 -200q-32 -32 -67 -3l-20 17q-36 30 -7 67l187 230q24 28 59 28h95zM168 1352q0 48 48 48h92q48 0 48 -48v-567h682v567q0 48 48 48h92q48 0 48 -48v-1304q0 -48 -48 -48h-92
q-48 0 -48 48v574h-682v-574q0 -48 -48 -48h-92q-48 0 -48 48v1304z" />
    <glyph glyph-name="hcircumflex" unicode="&#x125;" horiz-adv-x="1207" 
d="M285 1907q35 0 59 -28l187 -230q29 -37 -7 -68l-20 -16q-36 -30 -67 3l-199 200l-200 -200q-32 -32 -67 -3l-20 17q-36 30 -7 67l187 230q24 28 59 28h95zM328 48q0 -48 -48 -48h-86q-48 0 -48 48v1364q0 48 48 48h86q48 0 48 -48v-535q52 81 141 132t195 51
q191 0 304 -114t113 -309v-589q0 -48 -48 -48h-86q-48 0 -48 48v579q0 125 -71.5 197.5t-197.5 72.5q-121 0 -211.5 -93.5t-90.5 -226.5v-529z" />
    <glyph glyph-name="Hbar" unicode="&#x126;" horiz-adv-x="1416" 
d="M179 1048h-77q-48 0 -48 48v43q0 48 48 48h77v165q0 48 48 48h92q48 0 48 -48v-165h682v165q0 48 48 48h92q48 0 48 -48v-165h77q48 0 48 -48v-43q0 -48 -48 -48h-77v-1000q0 -48 -48 -48h-92q-48 0 -48 48v574h-682v-574q0 -48 -48 -48h-92q-48 0 -48 48v1000zM1049 785
v263h-682v-263h682z" />
    <glyph glyph-name="hbar" unicode="&#x127;" horiz-adv-x="1238" 
d="M27 1251q0 48 48 48h102v113q0 48 48 48h86q48 0 48 -48v-113h298q48 0 48 -48v-30q0 -48 -48 -48h-298v-296q52 81 141 132t195 51q191 0 304 -114t113 -309v-589q0 -48 -48 -48h-86q-48 0 -48 48v579q0 125 -71.5 197.5t-197.5 72.5q-121 0 -211.5 -93.5t-90.5 -226.5
v-529q0 -48 -48 -48h-86q-48 0 -48 48v1125h-102q-48 0 -48 48v30z" />
    <glyph glyph-name="Itilde" unicode="&#x128;" horiz-adv-x="570" 
d="M280 1580q-6 4 -22.5 16.5t-24.5 17.5l-20.5 13t-23.5 11t-21 3q-36 0 -57 -55q-15 -46 -57 -37l-60 12q-50 10 -36 58q48 164 176 164q77 0 156 -58q6 -4 22.5 -16.5t24.5 -17.5l20.5 -13t23.5 -11t21 -3q36 0 57 55q15 46 57 37l60 -12q50 -10 36 -58
q-48 -164 -176 -164q-77 0 -156 58zM331 1400q48 0 48 -48v-1304q0 -48 -48 -48h-92q-48 0 -48 48v1304q0 48 48 48h92z" />
    <glyph glyph-name="itilde" unicode="&#x129;" horiz-adv-x="522" 
d="M256 1256q-6 4 -22.5 16.5t-24.5 17.5l-20.5 13t-23.5 11t-21 3q-36 0 -57 -55q-15 -46 -57 -37l-60 12q-50 10 -36 58q48 164 176 164q77 0 156 -58q6 -4 22.5 -16.5t24.5 -17.5l20.5 -13t23.5 -11t21 -3q36 0 57 55q15 46 57 37l60 -12q50 -10 36 -58
q-48 -164 -176 -164q-77 0 -156 58zM170 988q0 48 48 48h86q48 0 48 -48v-940q0 -48 -48 -48h-86q-48 0 -48 48v940z" />
    <glyph glyph-name="Imacron" unicode="&#x12a;" horiz-adv-x="570" 
d="M-5 1681q0 48 48 48h484q48 0 48 -48v-46q0 -48 -48 -48h-484q-48 0 -48 48v46zM331 1400q48 0 48 -48v-1304q0 -48 -48 -48h-92q-48 0 -48 48v1304q0 48 48 48h92z" />
    <glyph glyph-name="imacron" unicode="&#x12b;" horiz-adv-x="522" 
d="M-29 1357q0 48 48 48h484q48 0 48 -48v-46q0 -48 -48 -48h-484q-48 0 -48 48v46zM170 988q0 48 48 48h86q48 0 48 -48v-940q0 -48 -48 -48h-86q-48 0 -48 48v940z" />
    <glyph glyph-name="Ibreve" unicode="&#x12c;" horiz-adv-x="570" 
d="M285 1490q-118 0 -207 72t-112 186q-5 24 7.5 37.5t36.5 13.5h66q40 0 51 -44q15 -58 57 -93.5t101 -35.5t101 35.5t57 93.5q11 44 51 44h66q25 0 37 -14t7 -38q-24 -114 -112.5 -185.5t-206.5 -71.5zM331 1400q48 0 48 -48v-1304q0 -48 -48 -48h-92q-48 0 -48 48v1304
q0 48 48 48h92z" />
    <glyph glyph-name="ibreve" unicode="&#x12d;" horiz-adv-x="522" 
d="M261 1166q-118 0 -207 72t-112 186q-5 24 7.5 37.5t36.5 13.5h66q40 0 51 -44q15 -58 57 -93.5t101 -35.5t101 35.5t57 93.5q11 44 51 44h66q25 0 37 -14t7 -38q-24 -114 -112.5 -185.5t-206.5 -71.5zM170 988q0 48 48 48h86q48 0 48 -48v-940q0 -48 -48 -48h-86
q-48 0 -48 48v940z" />
    <glyph glyph-name="Iogonek" unicode="&#x12e;" horiz-adv-x="570" 
d="M216 0q-25 0 -25 48v1304q0 48 48 48h92q48 0 48 -48v-1314q0 -37 -32 -59q-90 -61 -129.5 -127t-39.5 -151q0 -55 29.5 -82t79.5 -27q72 0 103 71q17 40 54 40h45q26 0 38 -14.5t4 -38.5q-26 -77 -91.5 -123.5t-161.5 -46.5q-104 0 -173 61t-69 157q0 194 205 302h-25z
" />
    <glyph glyph-name="iogonek" unicode="&#x12f;" horiz-adv-x="522" 
d="M141 1325q0 51 34.5 85.5t85.5 34.5t85.5 -34.5t34.5 -85.5q0 -50 -34.5 -84.5t-85.5 -34.5t-85.5 34.5t-34.5 84.5zM170 988q0 48 48 48h86q48 0 48 -48v-950q0 -37 -32 -59q-90 -61 -129.5 -127t-39.5 -151q0 -55 29.5 -82t79.5 -27q72 0 103 71q17 40 54 40h45
q26 0 38 -14.5t4 -38.5q-26 -77 -91.5 -123.5t-161.5 -46.5q-104 0 -173 61t-69 157q0 194 205 302q-44 0 -44 48v940z" />
    <glyph glyph-name="Idotaccent" unicode="&#x130;" horiz-adv-x="570" 
d="M172 1664q0 47 32.5 80t80.5 33t80.5 -33t32.5 -80t-32.5 -80t-80.5 -33t-80.5 33t-32.5 80zM331 1400q48 0 48 -48v-1304q0 -48 -48 -48h-92q-48 0 -48 48v1304q0 48 48 48h92z" />
    <glyph glyph-name="dotlessi" unicode="&#x131;" horiz-adv-x="522" 
d="M170 988q0 48 48 48h86q48 0 48 -48v-940q0 -48 -48 -48h-86q-48 0 -48 48v940z" />
    <glyph glyph-name="IJ" unicode="&#x132;" horiz-adv-x="1449" 
d="M331 1400q48 0 48 -48v-1304q0 -48 -48 -48h-92q-48 0 -48 48v1304q0 48 48 48h92zM1106 1352q0 48 48 48h92q48 0 48 -48v-921q0 -455 -428 -455q-121 0 -234 67q-35 22 -20 64l19 49q16 44 63 24q86 -38 168 -38q244 0 244 289v921z" />
    <glyph glyph-name="ij" unicode="&#x133;" horiz-adv-x="1044" 
d="M141 1325q0 51 34.5 85.5t85.5 34.5t85.5 -34.5t34.5 -85.5q0 -50 -34.5 -84.5t-85.5 -34.5t-85.5 34.5t-34.5 84.5zM663 1325q0 51 34.5 85.5t85.5 34.5t85.5 -34.5t34.5 -85.5q0 -50 -34.5 -84.5t-85.5 -34.5t-85.5 34.5t-34.5 84.5zM170 988q0 48 48 48h86
q48 0 48 -48v-940q0 -48 -48 -48h-86q-48 0 -48 48v940zM692 988q0 48 48 48h86q48 0 48 -48v-1122q0 -172 -72 -251t-215 -79q-27 0 -57 5q-41 7 -41 53v55q0 47 28 47h29q73 0 109.5 39t36.5 128v1125z" />
    <glyph glyph-name="Jcircumflex" unicode="&#x134;" horiz-adv-x="909" 
d="M708 1847q35 0 59 -28l187 -230q29 -37 -7 -68l-20 -16q-36 -30 -67 3l-199 200l-200 -200q-32 -32 -67 -3l-20 17q-36 30 -7 67l187 230q24 28 59 28h95zM566 1352q0 48 48 48h92q48 0 48 -48v-921q0 -455 -428 -455q-121 0 -234 67q-35 22 -20 64l19 49q16 44 63 24
q86 -38 168 -38q244 0 244 289v921z" />
    <glyph glyph-name="jcircumflex" unicode="&#x135;" horiz-adv-x="522" 
d="M309 1523q35 0 59 -28l187 -230q29 -37 -7 -68l-20 -16q-36 -30 -67 3l-199 200l-200 -200q-32 -32 -67 -3l-20 17q-36 30 -7 67l187 230q24 28 59 28h95zM170 988q0 48 48 48h86q48 0 48 -48v-1122q0 -173 -75 -251.5t-232 -78.5q-21 0 -32 1q-46 2 -46 49v63
q0 47 28 47h29q73 0 109.5 39t36.5 128v1125z" />
    <glyph glyph-name="Kcommaaccent" unicode="&#x136;" horiz-adv-x="1201" 
d="M356 785h70q227 0 345 133.5t127 431.5q2 49 49 49h92q49 0 47 -49q-13 -520 -328 -669l403 -623q16 -25 7 -41.5t-38 -16.5h-115q-37 0 -57 32l-382 597q-50 -7 -112 -7h-108v-574q0 -48 -48 -48h-92q-48 0 -48 48v1304q0 48 48 48h92q48 0 48 -48v-567zM635 -139
q32 38 68 5l46 -42q37 -33 2 -68l-221 -221q-32 -32 -67 -3l-20 17q-36 30 -7 67z" />
    <glyph glyph-name="kcommaaccent" unicode="&#x137;" horiz-adv-x="1029" 
d="M889 1036q50 0 48 -49q-9 -159 -74 -274t-174 -170l297 -485q15 -25 5.5 -41.5t-38.5 -16.5h-104q-39 0 -58 32l-282 465h-181v-449q0 -48 -48 -48h-86q-48 0 -48 48v1364q0 48 48 48h86q48 0 48 -48v-758h120q130 0 212.5 85t93.5 249q5 48 49 48h86zM524 -139
q32 38 68 5l46 -42q37 -33 2 -68l-221 -221q-32 -32 -67 -3l-20 17q-36 30 -7 67z" />
    <glyph glyph-name="kgreenlandic" unicode="&#x138;" horiz-adv-x="1029" 
d="M889 1036q50 0 48 -49q-9 -159 -74 -274t-174 -170l297 -485q15 -25 5.5 -41.5t-38.5 -16.5h-104q-39 0 -58 32l-282 465h-181v-449q0 -48 -48 -48h-86q-48 0 -48 48v940q0 48 48 48h86q48 0 48 -48v-334h120q130 0 212.5 85t93.5 249q5 48 49 48h86z" />
    <glyph glyph-name="Lacute" unicode="&#x139;" horiz-adv-x="1030" 
d="M437 1840q32 38 68 5l46 -42q37 -33 2 -68l-221 -221q-32 -32 -67 -3l-20 17q-36 30 -7 67zM168 1352q0 48 48 48h92q48 0 48 -48v-1189h579q48 0 48 -48v-67q0 -48 -48 -48h-719q-48 0 -48 48v1304z" />
    <glyph glyph-name="lacute" unicode="&#x13a;" horiz-adv-x="522" 
d="M380 1900q32 38 68 5l46 -42q37 -33 2 -68l-221 -221q-32 -32 -67 -3l-20 17q-36 30 -7 67zM170 1412q0 48 48 48h86q48 0 48 -48v-1364q0 -48 -48 -48h-86q-48 0 -48 48v1364z" />
    <glyph glyph-name="Lcommaaccent" unicode="&#x13b;" horiz-adv-x="1030" 
d="M168 1352q0 48 48 48h92q48 0 48 -48v-1189h579q48 0 48 -48v-67q0 -48 -48 -48h-719q-48 0 -48 48v1304zM582 -139q32 38 68 5l46 -42q37 -33 2 -68l-221 -221q-32 -32 -67 -3l-20 17q-36 30 -7 67z" />
    <glyph glyph-name="lcommaaccent" unicode="&#x13c;" horiz-adv-x="522" 
d="M170 1412q0 48 48 48h86q48 0 48 -48v-1364q0 -48 -48 -48h-86q-48 0 -48 48v1364zM259 -139q32 38 68 5l46 -42q37 -33 2 -68l-221 -221q-32 -32 -67 -3l-20 17q-36 30 -7 67z" />
    <glyph glyph-name="Lcaron" unicode="&#x13d;" horiz-adv-x="1030" 
d="M644 1319q0 45 30.5 75t75.5 30q47 0 76 -32.5t29 -93.5q0 -84 -43 -157.5t-121 -122.5q-36 -22 -67 9q-22 22 10 60q45 53 48.5 99.5t-23.5 83.5q-15 26 -15 49zM168 1352q0 48 48 48h92q48 0 48 -48v-1189h579q48 0 48 -48v-67q0 -48 -48 -48h-719q-48 0 -48 48v1304z
" />
    <glyph glyph-name="lcaron" unicode="&#x13e;" horiz-adv-x="804" 
d="M529 1379q0 45 30.5 75t75.5 30q47 0 76 -32.5t29 -93.5q0 -84 -43 -157.5t-121 -122.5q-36 -22 -67 9q-22 22 10 60q45 53 48.5 99.5t-23.5 83.5q-15 26 -15 49zM170 1412q0 48 48 48h86q48 0 48 -48v-1364q0 -48 -48 -48h-86q-48 0 -48 48v1364z" />
    <glyph glyph-name="Ldot" unicode="&#x13f;" horiz-adv-x="1030" 
d="M168 1352q0 48 48 48h92q48 0 48 -48v-1189h579q48 0 48 -48v-67q0 -48 -48 -48h-719q-48 0 -48 48v1304zM612 752q0 47 32.5 80t80.5 33t80.5 -33t32.5 -80t-32.5 -80t-80.5 -33t-80.5 33t-32.5 80z" />
    <glyph glyph-name="ldot" unicode="&#x140;" horiz-adv-x="802" 
d="M170 1412q0 48 48 48h86q48 0 48 -48v-1364q0 -48 -48 -48h-86q-48 0 -48 48v1364zM524 752q0 47 32.5 80t80.5 33t80.5 -33t32.5 -80t-32.5 -80t-80.5 -33t-80.5 33t-32.5 80z" />
    <glyph glyph-name="Lslash" unicode="&#x141;" horiz-adv-x="1061" 
d="M199 550l-63 -32q-44 -24 -64 22l-16 37q-18 43 22 64l121 62v649q0 48 48 48h92q48 0 48 -48v-552l277 142q44 24 64 -22l16 -37q18 -43 -22 -64l-335 -172v-484h579q48 0 48 -48v-67q0 -48 -48 -48h-719q-48 0 -48 48v502z" />
    <glyph glyph-name="lslash" unicode="&#x142;" horiz-adv-x="588" 
d="M203 643l-132 -66q-44 -22 -64 23l-12 28q-18 43 23 64l185 93v627q0 48 48 48h86q48 0 48 -48v-535l132 66q44 22 64 -23l12 -28q18 -43 -23 -64l-185 -93v-687q0 -48 -48 -48h-86q-48 0 -48 48v595z" />
    <glyph glyph-name="Nacute" unicode="&#x143;" horiz-adv-x="1399" 
d="M738 1840q32 38 68 5l46 -42q37 -33 2 -68l-221 -221q-32 -32 -67 -3l-20 17q-36 30 -7 67zM168 1352q0 48 48 48h96q37 0 57 -31l680 -1043v1026q0 48 48 48h86q48 0 48 -48v-1304q0 -48 -48 -48h-96q-37 0 -57 31l-680 1043v-1026q0 -48 -48 -48h-86q-48 0 -48 48v1304
z" />
    <glyph glyph-name="nacute" unicode="&#x144;" horiz-adv-x="1207" 
d="M733 1516q32 38 68 5l46 -42q37 -33 2 -68l-221 -221q-32 -32 -67 -3l-20 17q-36 30 -7 67zM328 48q0 -48 -48 -48h-86q-48 0 -48 48v940q0 48 48 48h86q48 0 48 -48v-111q52 81 141 132t195 51q191 0 304 -114t113 -309v-589q0 -48 -48 -48h-86q-48 0 -48 48v579
q0 125 -71.5 197.5t-197.5 72.5q-121 0 -211.5 -93.5t-90.5 -226.5v-529z" />
    <glyph glyph-name="Ncommaaccent" unicode="&#x145;" horiz-adv-x="1399" 
d="M168 1352q0 48 48 48h96q37 0 57 -31l680 -1043v1026q0 48 48 48h86q48 0 48 -48v-1304q0 -48 -48 -48h-96q-37 0 -57 31l-680 1043v-1026q0 -48 -48 -48h-86q-48 0 -48 48v1304zM713 -139q32 38 68 5l46 -42q37 -33 2 -68l-221 -221q-32 -32 -67 -3l-20 17q-36 30 -7 67
z" />
    <glyph glyph-name="ncommaaccent" unicode="&#x146;" horiz-adv-x="1207" 
d="M328 48q0 -48 -48 -48h-86q-48 0 -48 48v940q0 48 48 48h86q48 0 48 -48v-111q52 81 141 132t195 51q191 0 304 -114t113 -309v-589q0 -48 -48 -48h-86q-48 0 -48 48v579q0 125 -71.5 197.5t-197.5 72.5q-121 0 -211.5 -93.5t-90.5 -226.5v-529zM621 -139q32 38 68 5
l46 -42q37 -33 2 -68l-221 -221q-32 -32 -67 -3l-20 17q-36 30 -7 67z" />
    <glyph glyph-name="Ncaron" unicode="&#x147;" horiz-adv-x="1399" 
d="M652 1509q-35 0 -59 28l-187 230q-29 37 7 68l20 16q36 30 67 -3l199 -200l200 200q32 32 67 3l20 -17q36 -30 7 -67l-187 -230q-24 -28 -59 -28h-95zM168 1352q0 48 48 48h96q37 0 57 -31l680 -1043v1026q0 48 48 48h86q48 0 48 -48v-1304q0 -48 -48 -48h-96
q-37 0 -57 31l-680 1043v-1026q0 -48 -48 -48h-86q-48 0 -48 48v1304z" />
    <glyph glyph-name="ncaron" unicode="&#x148;" horiz-adv-x="1207" 
d="M556 1165q-35 0 -59 28l-187 230q-29 37 7 68l20 16q36 30 67 -3l199 -200l200 200q32 32 67 3l20 -17q36 -30 7 -67l-187 -230q-24 -28 -59 -28h-95zM328 48q0 -48 -48 -48h-86q-48 0 -48 48v940q0 48 48 48h86q48 0 48 -48v-111q52 81 141 132t195 51q191 0 304 -114
t113 -309v-589q0 -48 -48 -48h-86q-48 0 -48 48v579q0 125 -71.5 197.5t-197.5 72.5q-121 0 -211.5 -93.5t-90.5 -226.5v-529z" />
    <glyph glyph-name="napostrophe" unicode="&#x149;" horiz-adv-x="1401" 
d="M85 1379q0 45 30.5 75t75.5 30q47 0 76 -32.5t29 -93.5q0 -84 -43 -157.5t-121 -122.5q-36 -22 -67 9q-22 22 10 60q45 53 48.5 99.5t-23.5 83.5q-15 26 -15 49zM522 48q0 -48 -48 -48h-86q-48 0 -48 48v940q0 48 48 48h86q48 0 48 -48v-111q52 81 141 132t195 51
q191 0 304 -114t113 -309v-589q0 -48 -48 -48h-86q-48 0 -48 48v579q0 125 -71.5 197.5t-197.5 72.5q-121 0 -211.5 -93.5t-90.5 -226.5v-529z" />
    <glyph glyph-name="Eng" unicode="&#x14a;" horiz-adv-x="1399" 
d="M1231 -103q0 -361 -376 -361q-29 0 -56 3q-45 3 -45 50v62q0 49 45 46q16 -1 46 -1q109 0 156.5 50t47.5 153v102l-699 1073v-1026q0 -48 -48 -48h-86q-48 0 -48 48v1304q0 48 48 48h96q37 0 57 -31l680 -1043v1026q0 48 48 48h86q48 0 48 -48v-1455z" />
    <glyph glyph-name="eng" unicode="&#x14b;" horiz-adv-x="1207" 
d="M328 48q0 -48 -48 -48h-86q-48 0 -48 48v940q0 48 48 48h86q48 0 48 -48v-111q52 81 141 132t195 51q191 0 304 -114t113 -309v-740q0 -183 -91 -272t-280 -89q-32 0 -61 3q-45 3 -45 50v62q0 49 45 46q16 -1 46 -1q109 0 156.5 50t47.5 153v728q0 125 -71.5 197.5
t-197.5 72.5q-121 0 -211.5 -93.5t-90.5 -226.5v-529z" />
    <glyph glyph-name="Omacron" unicode="&#x14c;" horiz-adv-x="1634" 
d="M527 1681q0 48 48 48h484q48 0 48 -48v-46q0 -48 -48 -48h-484q-48 0 -48 48v46zM817 1424q153 0 289.5 -56t234.5 -152.5t155 -230.5t57 -285t-57 -285t-155 -230.5t-234.5 -152.5t-289.5 -56t-289.5 56t-234.5 152.5t-155 230.5t-57 285t57 285t155 230.5t234.5 152.5
t289.5 56zM817 142q228 0 386.5 162t158.5 396t-158.5 396t-386.5 162t-386.5 -162t-158.5 -396t158.5 -396t386.5 -162z" />
    <glyph glyph-name="omacron" unicode="&#x14d;" horiz-adv-x="1268" 
d="M344 1357q0 48 48 48h484q48 0 48 -48v-46q0 -48 -48 -48h-484q-48 0 -48 48v46zM634 1060q158 0 287 -73t201 -197t72 -272t-72 -272t-201 -197t-287 -73t-287 73t-201 197t-72 272t72 272t201 197t287 73zM634 139q158 0 266.5 110.5t108.5 268.5t-108.5 268.5
t-266.5 110.5t-266.5 -110.5t-108.5 -268.5t108.5 -268.5t266.5 -110.5z" />
    <glyph glyph-name="Obreve" unicode="&#x14e;" horiz-adv-x="1634" 
d="M817 1490q-118 0 -207 72t-112 186q-5 24 7.5 37.5t36.5 13.5h66q40 0 51 -44q15 -58 57 -93.5t101 -35.5t101 35.5t57 93.5q11 44 51 44h66q25 0 37 -14t7 -38q-24 -114 -112.5 -185.5t-206.5 -71.5zM817 1424q153 0 289.5 -56t234.5 -152.5t155 -230.5t57 -285
t-57 -285t-155 -230.5t-234.5 -152.5t-289.5 -56t-289.5 56t-234.5 152.5t-155 230.5t-57 285t57 285t155 230.5t234.5 152.5t289.5 56zM817 142q228 0 386.5 162t158.5 396t-158.5 396t-386.5 162t-386.5 -162t-158.5 -396t158.5 -396t386.5 -162z" />
    <glyph glyph-name="obreve" unicode="&#x14f;" horiz-adv-x="1268" 
d="M634 1166q-118 0 -207 72t-112 186q-5 24 7.5 37.5t36.5 13.5h66q40 0 51 -44q15 -58 57 -93.5t101 -35.5t101 35.5t57 93.5q11 44 51 44h66q25 0 37 -14t7 -38q-24 -114 -112.5 -185.5t-206.5 -71.5zM634 1060q158 0 287 -73t201 -197t72 -272t-72 -272t-201 -197
t-287 -73t-287 73t-201 197t-72 272t72 272t201 197t287 73zM634 139q158 0 266.5 110.5t108.5 268.5t-108.5 268.5t-266.5 110.5t-266.5 -110.5t-108.5 -268.5t108.5 -268.5t266.5 -110.5z" />
    <glyph glyph-name="Ohungarumlaut" unicode="&#x150;" horiz-adv-x="1634" 
d="M698 1840q32 38 68 5l46 -42q37 -33 2 -68l-221 -221q-32 -32 -67 -3l-20 17q-36 30 -7 67zM1015 1840q32 38 68 5l46 -42q37 -33 2 -68l-221 -221q-32 -32 -67 -3l-20 17q-36 30 -7 67zM817 1424q153 0 289.5 -56t234.5 -152.5t155 -230.5t57 -285t-57 -285t-155 -230.5
t-234.5 -152.5t-289.5 -56t-289.5 56t-234.5 152.5t-155 230.5t-57 285t57 285t155 230.5t234.5 152.5t289.5 56zM817 142q228 0 386.5 162t158.5 396t-158.5 396t-386.5 162t-386.5 -162t-158.5 -396t158.5 -396t386.5 -162z" />
    <glyph glyph-name="ohungarumlaut" unicode="&#x151;" horiz-adv-x="1268" 
d="M515 1516q32 38 68 5l46 -42q37 -33 2 -68l-221 -221q-32 -32 -67 -3l-20 17q-36 30 -7 67zM832 1516q32 38 68 5l46 -42q37 -33 2 -68l-221 -221q-32 -32 -67 -3l-20 17q-36 30 -7 67zM634 1060q158 0 287 -73t201 -197t72 -272t-72 -272t-201 -197t-287 -73t-287 73
t-201 197t-72 272t72 272t201 197t287 73zM634 139q158 0 266.5 110.5t108.5 268.5t-108.5 268.5t-266.5 110.5t-266.5 -110.5t-108.5 -268.5t108.5 -268.5t266.5 -110.5z" />
    <glyph glyph-name="OE" unicode="&#x152;" horiz-adv-x="1796" 
d="M836 0q-155 0 -295 54t-241 147t-160 223t-59 276q0 194 100.5 355t273.5 253t381 92h778q48 0 48 -48v-67q0 -48 -48 -48h-574v-452h523q48 0 48 -48v-67q0 -48 -48 -48h-523v-459h592q48 0 48 -48v-67q0 -48 -48 -48h-796zM852 166v1068h-16q-156 0 -285.5 -70
t-204 -192.5t-74.5 -271.5t74.5 -271.5t204 -192.5t285.5 -70h16z" />
    <glyph glyph-name="oe" unicode="&#x153;" horiz-adv-x="2134" 
d="M626 1060q147 0 269.5 -73t189.5 -194q65 119 186 193t266 74q150 0 270.5 -70t186.5 -188.5t66 -260.5q0 -12 -2 -36q-3 -44 -51 -44h-828q16 -140 119.5 -234t249.5 -94q160 0 288 117q35 32 68 2l35 -32q36 -33 4 -68q-165 -176 -391 -176q-154 0 -279.5 73
t-188.5 191q-67 -120 -189 -192t-269 -72q-155 0 -282 72t-198.5 196.5t-71.5 273.5t71.5 273.5t198.5 196.5t282 72zM1537 903q-126 0 -225 -83t-125 -208h682q-22 127 -113 209t-219 82zM626 139q155 0 261 109.5t106 269.5q0 159 -106.5 269t-260.5 110t-260.5 -110
t-106.5 -269q0 -160 106 -269.5t261 -109.5z" />
    <glyph glyph-name="Racute" unicode="&#x154;" horiz-adv-x="1200" 
d="M705 1840q32 38 68 5l46 -42q37 -33 2 -68l-221 -221q-32 -32 -67 -3l-20 17q-36 30 -7 67zM356 528v-480q0 -48 -48 -48h-92q-48 0 -48 48v1304q0 48 48 48h399q222 0 351.5 -118.5t129.5 -317.5q0 -168 -94 -280t-259 -144l338 -482q17 -24 8 -41t-38 -17h-100
q-37 0 -58 30l-349 498h-188zM905 964q0 126 -78.5 199.5t-218.5 73.5h-252v-546h252q140 0 218.5 73.5t78.5 199.5z" />
    <glyph glyph-name="racute" unicode="&#x155;" 
d="M509 1516q32 38 68 5l46 -42q37 -33 2 -68l-221 -221q-32 -32 -67 -3l-20 17q-36 30 -7 67zM741 932q-4 -47 -55 -39q-24 4 -56 4q-121 0 -211.5 -93.5t-90.5 -226.5v-529q0 -48 -48 -48h-86q-48 0 -48 48v940q0 48 48 48h86q48 0 48 -48v-111q52 81 141 132t195 51
q28 0 41 -1q23 -1 34 -15.5t9 -37.5z" />
    <glyph glyph-name="Rcommaaccent" unicode="&#x156;" horiz-adv-x="1200" 
d="M356 528v-480q0 -48 -48 -48h-92q-48 0 -48 48v1304q0 48 48 48h399q222 0 351.5 -118.5t129.5 -317.5q0 -168 -94 -280t-259 -144l338 -482q17 -24 8 -41t-38 -17h-100q-37 0 -58 30l-349 498h-188zM905 964q0 126 -78.5 199.5t-218.5 73.5h-252v-546h252
q140 0 218.5 73.5t78.5 199.5zM600 -139q32 38 68 5l46 -42q37 -33 2 -68l-221 -221q-32 -32 -67 -3l-20 17q-36 30 -7 67z" />
    <glyph glyph-name="rcommaaccent" unicode="&#x157;" 
d="M741 932q-4 -47 -55 -39q-24 4 -56 4q-121 0 -211.5 -93.5t-90.5 -226.5v-529q0 -48 -48 -48h-86q-48 0 -48 48v940q0 48 48 48h86q48 0 48 -48v-111q52 81 141 132t195 51q28 0 41 -1q23 -1 34 -15.5t9 -37.5zM367 -139q32 38 68 5l46 -42q37 -33 2 -68l-221 -221
q-32 -32 -67 -3l-20 17q-36 30 -7 67z" />
    <glyph glyph-name="Rcaron" unicode="&#x158;" horiz-adv-x="1200" 
d="M553 1509q-35 0 -59 28l-187 230q-29 37 7 68l20 16q36 30 67 -3l199 -200l200 200q32 32 67 3l20 -17q36 -30 7 -67l-187 -230q-24 -28 -59 -28h-95zM356 528v-480q0 -48 -48 -48h-92q-48 0 -48 48v1304q0 48 48 48h399q222 0 351.5 -118.5t129.5 -317.5
q0 -168 -94 -280t-259 -144l338 -482q17 -24 8 -41t-38 -17h-100q-37 0 -58 30l-349 498h-188zM905 964q0 126 -78.5 199.5t-218.5 73.5h-252v-546h252q140 0 218.5 73.5t78.5 199.5z" />
    <glyph glyph-name="rcaron" unicode="&#x159;" 
d="M349 1165q-35 0 -59 28l-187 230q-29 37 7 68l20 16q36 30 67 -3l199 -200l200 200q32 32 67 3l20 -17q36 -30 7 -67l-187 -230q-24 -28 -59 -28h-95zM741 932q-4 -47 -55 -39q-24 4 -56 4q-121 0 -211.5 -93.5t-90.5 -226.5v-529q0 -48 -48 -48h-86q-48 0 -48 48v940
q0 48 48 48h86q48 0 48 -48v-111q52 81 141 132t195 51q28 0 41 -1q23 -1 34 -15.5t9 -37.5z" />
    <glyph glyph-name="Sacute" unicode="&#x15a;" horiz-adv-x="1176" 
d="M627 1840q32 38 68 5l46 -42q37 -33 2 -68l-221 -221q-32 -32 -67 -3l-20 17q-36 30 -7 67zM189 292q33 36 68 1q156 -151 332 -151q138 0 224 63.5t86 167.5q0 99 -78 167t-255 105q-214 45 -323.5 147t-109.5 253q0 168 123.5 273.5t320.5 105.5q86 0 165.5 -21.5
t146.5 -62.5t111.5 -109.5t54.5 -154.5q3 -24 -9.5 -37t-36.5 -13h-96q-42 0 -50 46q-17 89 -92.5 137.5t-184.5 48.5q-116 0 -189 -56t-73 -144q0 -95 79 -158t242 -100q234 -53 339.5 -158t105.5 -268q0 -177 -133.5 -287.5t-358.5 -110.5q-129 0 -243 56.5t-202 154.5
q-30 33 1 67z" />
    <glyph glyph-name="sacute" unicode="&#x15b;" horiz-adv-x="932" 
d="M576 1516q32 38 68 5l46 -42q37 -33 2 -68l-221 -221q-32 -32 -67 -3l-20 17q-36 30 -7 67zM143 232q31 37 68 2q108 -101 253 -101q98 0 155 42t57 111q0 66 -55 109t-175 66q-337 65 -337 312q0 125 94 206t253 81q139 0 232.5 -63.5t123.5 -184.5q6 -24 -6 -38.5
t-37 -14.5h-86q-38 0 -52 43q-15 46 -57.5 73.5t-104.5 27.5q-80 0 -129 -37t-49 -96q0 -57 54 -100t160 -64q179 -35 266 -114.5t87 -208.5q0 -135 -102.5 -221t-279.5 -86q-215 0 -358 158q-28 34 0 68z" />
    <glyph glyph-name="Scircumflex" unicode="&#x15c;" horiz-adv-x="1176" 
d="M623 1847q35 0 59 -28l187 -230q29 -37 -7 -68l-20 -16q-36 -30 -67 3l-199 200l-200 -200q-32 -32 -67 -3l-20 17q-36 30 -7 67l187 230q24 28 59 28h95zM189 292q33 36 68 1q156 -151 332 -151q138 0 224 63.5t86 167.5q0 99 -78 167t-255 105q-214 45 -323.5 147
t-109.5 253q0 168 123.5 273.5t320.5 105.5q86 0 165.5 -21.5t146.5 -62.5t111.5 -109.5t54.5 -154.5q3 -24 -9.5 -37t-36.5 -13h-96q-42 0 -50 46q-17 89 -92.5 137.5t-184.5 48.5q-116 0 -189 -56t-73 -144q0 -95 79 -158t242 -100q234 -53 339.5 -158t105.5 -268
q0 -177 -133.5 -287.5t-358.5 -110.5q-129 0 -243 56.5t-202 154.5q-30 33 1 67z" />
    <glyph glyph-name="scircumflex" unicode="&#x15d;" horiz-adv-x="932" 
d="M502 1523q35 0 59 -28l187 -230q29 -37 -7 -68l-20 -16q-36 -30 -67 3l-199 200l-200 -200q-32 -32 -67 -3l-20 17q-36 30 -7 67l187 230q24 28 59 28h95zM143 232q31 37 68 2q108 -101 253 -101q98 0 155 42t57 111q0 66 -55 109t-175 66q-337 65 -337 312q0 125 94 206
t253 81q139 0 232.5 -63.5t123.5 -184.5q6 -24 -6 -38.5t-37 -14.5h-86q-38 0 -52 43q-15 46 -57.5 73.5t-104.5 27.5q-80 0 -129 -37t-49 -96q0 -57 54 -100t160 -64q179 -35 266 -114.5t87 -208.5q0 -135 -102.5 -221t-279.5 -86q-215 0 -358 158q-28 34 0 68z" />
    <glyph glyph-name="Scedilla" unicode="&#x15e;" horiz-adv-x="1176" 
d="M634 -214q-21 0 -30 -1q-42 -3 -64 11q-3 3 -3 39v145q-220 24 -384 207q-30 33 1 67l35 39q32 36 68 0q156 -151 332 -151q138 0 224 63.5t86 167.5q0 99 -78 167t-255 105q-214 45 -323.5 147t-109.5 253q0 168 123.5 273.5t320.5 105.5q86 0 165.5 -21.5t146.5 -62.5
t111.5 -109.5t54.5 -154.5q3 -24 -9.5 -37t-36.5 -13h-96q-42 0 -50 46q-17 89 -92.5 137.5t-184.5 48.5q-116 0 -189 -56t-73 -144q0 -95 79 -158t242 -100q234 -53 339.5 -158t105.5 -268q0 -162 -114 -270t-310 -125v-100q101 0 158 -54t57 -137q0 -90 -70 -149t-177 -59
q-85 0 -152.5 41.5t-94.5 108.5q-9 24 3.5 38.5t38.5 14.5h45q33 0 56 -38q32 -53 95 -53q52 0 83 28t31 71q0 41 -32 68t-73 27z" />
    <glyph glyph-name="scedilla" unicode="&#x15f;" horiz-adv-x="932" 
d="M490 -214q-21 0 -30 -1q-42 -3 -64 11q-3 3 -3 39v147q-161 25 -275 152q-29 34 0 68l25 30q31 37 68 2q108 -101 253 -101q98 0 155 42t57 111q0 66 -55 109t-175 66q-337 65 -337 312q0 125 94 206t253 81q139 0 232.5 -63.5t123.5 -184.5q6 -24 -6 -38.5t-37 -14.5
h-86q-38 0 -52 43q-15 46 -57.5 73.5t-104.5 27.5q-80 0 -129 -37t-49 -96q0 -57 54 -100t160 -64q179 -35 266 -114.5t87 -208.5q0 -125 -89.5 -209t-246.5 -96v-99q101 0 158 -54t57 -137q0 -90 -70 -149t-177 -59q-85 0 -152.5 41.5t-94.5 108.5q-9 24 3.5 38.5
t38.5 14.5h45q33 0 56 -38q32 -53 95 -53q52 0 83 28t31 71q0 41 -32 68t-73 27z" />
    <glyph glyph-name="Scaron" unicode="&#x160;" horiz-adv-x="1176" 
d="M541 1509q-35 0 -59 28l-187 230q-29 37 7 68l20 16q36 30 67 -3l199 -200l200 200q32 32 67 3l20 -17q36 -30 7 -67l-187 -230q-24 -28 -59 -28h-95zM189 292q33 36 68 1q156 -151 332 -151q138 0 224 63.5t86 167.5q0 99 -78 167t-255 105q-214 45 -323.5 147
t-109.5 253q0 168 123.5 273.5t320.5 105.5q86 0 165.5 -21.5t146.5 -62.5t111.5 -109.5t54.5 -154.5q3 -24 -9.5 -37t-36.5 -13h-96q-42 0 -50 46q-17 89 -92.5 137.5t-184.5 48.5q-116 0 -189 -56t-73 -144q0 -95 79 -158t242 -100q234 -53 339.5 -158t105.5 -268
q0 -177 -133.5 -287.5t-358.5 -110.5q-129 0 -243 56.5t-202 154.5q-30 33 1 67z" />
    <glyph glyph-name="scaron" unicode="&#x161;" horiz-adv-x="932" 
d="M409 1165q-35 0 -59 28l-187 230q-29 37 7 68l20 16q36 30 67 -3l199 -200l200 200q32 32 67 3l20 -17q36 -30 7 -67l-187 -230q-24 -28 -59 -28h-95zM143 232q31 37 68 2q108 -101 253 -101q98 0 155 42t57 111q0 66 -55 109t-175 66q-337 65 -337 312q0 125 94 206
t253 81q139 0 232.5 -63.5t123.5 -184.5q6 -24 -6 -38.5t-37 -14.5h-86q-38 0 -52 43q-15 46 -57.5 73.5t-104.5 27.5q-80 0 -129 -37t-49 -96q0 -57 54 -100t160 -64q179 -35 266 -114.5t87 -208.5q0 -135 -102.5 -221t-279.5 -86q-215 0 -358 158q-28 34 0 68z" />
    <glyph glyph-name="uni0162" unicode="&#x162;" horiz-adv-x="1098" 
d="M455 1237h-345q-48 0 -48 48v67q0 48 48 48h878q48 0 48 -48v-67q0 -48 -48 -48h-345v-1189q0 -48 -28 -48v-121q101 0 158 -54t57 -137q0 -90 -70 -149t-177 -59q-85 0 -152.5 41.5t-94.5 108.5q-9 24 3.5 38.5t38.5 14.5h45q33 0 56 -38q32 -53 95 -53q52 0 83 28
t31 71q0 41 -32 68t-73 27q-21 0 -30 -1q-42 -3 -64 11q-3 3 -3 39v165q-31 0 -31 48v1189z" />
    <glyph glyph-name="uni0163" unicode="&#x163;" horiz-adv-x="764" 
d="M438 -214q-21 0 -30 -1q-42 -3 -64 11q-3 3 -3 39v205q-109 88 -109 289v547h-169q-48 0 -48 48v64q0 48 48 48h169v235q0 45 45 50l86 9q24 3 37.5 -9t13.5 -36v-249h235q48 0 48 -48v-64q0 -48 -48 -48h-235v-545q0 -100 47 -147.5t155 -47.5q28 0 43 1q50 3 50 -46
v-46q0 -44 -38 -55q-53 -14 -110 -14q-46 0 -91 8v-105q101 0 158 -54t57 -137q0 -90 -70 -149t-177 -59q-85 0 -152.5 41.5t-94.5 108.5q-9 24 3.5 38.5t38.5 14.5h45q33 0 56 -38q32 -53 95 -53q52 0 83 28t31 71q0 41 -32 68t-73 27z" />
    <glyph glyph-name="Tcaron" unicode="&#x164;" horiz-adv-x="1098" 
d="M502 1509q-35 0 -59 28l-187 230q-29 37 7 68l20 16q36 30 67 -3l199 -200l200 200q32 32 67 3l20 -17q36 -30 7 -67l-187 -230q-24 -28 -59 -28h-95zM455 1237h-345q-48 0 -48 48v67q0 48 48 48h878q48 0 48 -48v-67q0 -48 -48 -48h-345v-1189q0 -48 -48 -48h-92
q-48 0 -48 48v1189z" />
    <glyph glyph-name="tcaron" unicode="&#x165;" horiz-adv-x="962" 
d="M708 1379q0 45 30.5 75t75.5 30q47 0 76 -32.5t29 -93.5q0 -84 -43 -157.5t-121 -122.5q-36 -22 -67 9q-22 22 10 60q45 53 48.5 99.5t-23.5 83.5q-15 26 -15 49zM414 331q0 -100 47 -147.5t155 -47.5q28 0 43 1q50 3 50 -46v-46q0 -44 -38 -55q-53 -14 -110 -14
q-329 0 -329 353v547h-169q-48 0 -48 48v64q0 48 48 48h169v208q0 42 41 53l87 24q25 7 39.5 -4t14.5 -37v-244h235q48 0 48 -48v-64q0 -48 -48 -48h-235v-545z" />
    <glyph glyph-name="Tbar" unicode="&#x166;" horiz-adv-x="1098" 
d="M455 629h-218q-48 0 -48 48v45q0 48 48 48h218v467h-345q-48 0 -48 48v67q0 48 48 48h878q48 0 48 -48v-67q0 -48 -48 -48h-345v-467h218q48 0 48 -48v-45q0 -48 -48 -48h-218v-581q0 -48 -48 -48h-92q-48 0 -48 48v581z" />
    <glyph glyph-name="tbar" unicode="&#x167;" horiz-adv-x="764" 
d="M414 599h193q48 0 48 -48v-30q0 -48 -48 -48h-193v-142q0 -100 47 -147.5t155 -47.5q28 0 43 1q50 3 50 -46v-46q0 -44 -38 -55q-53 -14 -110 -14q-329 0 -329 353v144h-114q-48 0 -48 48v30q0 48 48 48h114v277h-169q-48 0 -48 48v64q0 48 48 48h169v235q0 45 45 50
l86 9q24 3 37.5 -9t13.5 -36v-249h235q48 0 48 -48v-64q0 -48 -48 -48h-235v-277z" />
    <glyph glyph-name="Utilde" unicode="&#x168;" horiz-adv-x="1326" 
d="M658 1580q-6 4 -22.5 16.5t-24.5 17.5l-20.5 13t-23.5 11t-21 3q-36 0 -57 -55q-15 -46 -57 -37l-60 12q-50 10 -36 58q48 164 176 164q77 0 156 -58q6 -4 22.5 -16.5t24.5 -17.5l20.5 -13t23.5 -11t21 -3q36 0 57 55q15 46 57 37l60 -12q50 -10 36 -58
q-48 -164 -176 -164q-77 0 -156 58zM1171 489q0 -152 -67.5 -269t-182.5 -179.5t-258 -62.5t-258 62.5t-182.5 179.5t-67.5 269v863q0 48 48 48h92q48 0 48 -48v-884q0 -144 91 -234t229 -90t229 90t91 234v884q0 48 48 48h92q48 0 48 -48v-863z" />
    <glyph glyph-name="utilde" unicode="&#x169;" horiz-adv-x="1207" 
d="M587 1256q-6 4 -22.5 16.5t-24.5 17.5l-20.5 13t-23.5 11t-21 3q-36 0 -57 -55q-15 -46 -57 -37l-60 12q-50 10 -36 58q48 164 176 164q77 0 156 -58q6 -4 22.5 -16.5t24.5 -17.5l20.5 -13t23.5 -11t21 -3q36 0 57 55q15 46 57 37l60 -12q50 -10 36 -58
q-48 -164 -176 -164q-77 0 -156 58zM879 989q0 48 48 48h86q48 0 48 -48v-940q0 -48 -48 -48h-86q-48 0 -48 48v111q-52 -81 -141 -132t-195 -51q-191 0 -304 114t-113 309v589q0 48 48 48h86q48 0 48 -48v-579q0 -125 71.5 -197.5t197.5 -72.5q121 0 211.5 93.5t90.5 226.5
v529z" />
    <glyph glyph-name="Umacron" unicode="&#x16a;" horiz-adv-x="1326" 
d="M373 1681q0 48 48 48h484q48 0 48 -48v-46q0 -48 -48 -48h-484q-48 0 -48 48v46zM1171 489q0 -152 -67.5 -269t-182.5 -179.5t-258 -62.5t-258 62.5t-182.5 179.5t-67.5 269v863q0 48 48 48h92q48 0 48 -48v-884q0 -144 91 -234t229 -90t229 90t91 234v884q0 48 48 48h92
q48 0 48 -48v-863z" />
    <glyph glyph-name="umacron" unicode="&#x16b;" horiz-adv-x="1207" 
d="M303 1357q0 48 48 48h484q48 0 48 -48v-46q0 -48 -48 -48h-484q-48 0 -48 48v46zM879 989q0 48 48 48h86q48 0 48 -48v-940q0 -48 -48 -48h-86q-48 0 -48 48v111q-52 -81 -141 -132t-195 -51q-191 0 -304 114t-113 309v589q0 48 48 48h86q48 0 48 -48v-579
q0 -125 71.5 -197.5t197.5 -72.5q121 0 211.5 93.5t90.5 226.5v529z" />
    <glyph glyph-name="Ubreve" unicode="&#x16c;" horiz-adv-x="1326" 
d="M663 1490q-118 0 -207 72t-112 186q-5 24 7.5 37.5t36.5 13.5h66q40 0 51 -44q15 -58 57 -93.5t101 -35.5t101 35.5t57 93.5q11 44 51 44h66q25 0 37 -14t7 -38q-24 -114 -112.5 -185.5t-206.5 -71.5zM1171 489q0 -152 -67.5 -269t-182.5 -179.5t-258 -62.5t-258 62.5
t-182.5 179.5t-67.5 269v863q0 48 48 48h92q48 0 48 -48v-884q0 -144 91 -234t229 -90t229 90t91 234v884q0 48 48 48h92q48 0 48 -48v-863z" />
    <glyph glyph-name="ubreve" unicode="&#x16d;" horiz-adv-x="1207" 
d="M592 1166q-118 0 -207 72t-112 186q-5 24 7.5 37.5t36.5 13.5h66q40 0 51 -44q15 -58 57 -93.5t101 -35.5t101 35.5t57 93.5q11 44 51 44h66q25 0 37 -14t7 -38q-24 -114 -112.5 -185.5t-206.5 -71.5zM879 989q0 48 48 48h86q48 0 48 -48v-940q0 -48 -48 -48h-86
q-48 0 -48 48v111q-52 -81 -141 -132t-195 -51q-191 0 -304 114t-113 309v589q0 48 48 48h86q48 0 48 -48v-579q0 -125 71.5 -197.5t197.5 -72.5q121 0 211.5 93.5t90.5 226.5v529z" />
    <glyph glyph-name="Uring" unicode="&#x16e;" horiz-adv-x="1326" 
d="M453 1686q0 83 60 139t150 56t150 -56t60 -139t-60 -139t-150 -56t-150 56t-60 139zM572 1686q0 -38 26 -63.5t65 -25.5t65 25.5t26 63.5t-26 63.5t-65 25.5t-65 -25.5t-26 -63.5zM1171 489q0 -152 -67.5 -269t-182.5 -179.5t-258 -62.5t-258 62.5t-182.5 179.5
t-67.5 269v863q0 48 48 48h92q48 0 48 -48v-884q0 -144 91 -234t229 -90t229 90t91 234v884q0 48 48 48h92q48 0 48 -48v-863z" />
    <glyph glyph-name="uring" unicode="&#x16f;" horiz-adv-x="1207" 
d="M380 1362q0 83 60 139t150 56t150 -56t60 -139t-60 -139t-150 -56t-150 56t-60 139zM499 1362q0 -38 26 -63.5t65 -25.5t65 25.5t26 63.5t-26 63.5t-65 25.5t-65 -25.5t-26 -63.5zM879 989q0 48 48 48h86q48 0 48 -48v-940q0 -48 -48 -48h-86q-48 0 -48 48v111
q-52 -81 -141 -132t-195 -51q-191 0 -304 114t-113 309v589q0 48 48 48h86q48 0 48 -48v-579q0 -125 71.5 -197.5t197.5 -72.5q121 0 211.5 93.5t90.5 226.5v529z" />
    <glyph glyph-name="Uhungarumlaut" unicode="&#x170;" horiz-adv-x="1326" 
d="M544 1840q32 38 68 5l46 -42q37 -33 2 -68l-221 -221q-32 -32 -67 -3l-20 17q-36 30 -7 67zM861 1840q32 38 68 5l46 -42q37 -33 2 -68l-221 -221q-32 -32 -67 -3l-20 17q-36 30 -7 67zM1171 489q0 -152 -67.5 -269t-182.5 -179.5t-258 -62.5t-258 62.5t-182.5 179.5
t-67.5 269v863q0 48 48 48h92q48 0 48 -48v-884q0 -144 91 -234t229 -90t229 90t91 234v884q0 48 48 48h92q48 0 48 -48v-863z" />
    <glyph glyph-name="uhungarumlaut" unicode="&#x171;" horiz-adv-x="1207" 
d="M484 1516q32 38 68 5l46 -42q37 -33 2 -68l-221 -221q-32 -32 -67 -3l-20 17q-36 30 -7 67zM801 1516q32 38 68 5l46 -42q37 -33 2 -68l-221 -221q-32 -32 -67 -3l-20 17q-36 30 -7 67zM879 989q0 48 48 48h86q48 0 48 -48v-940q0 -48 -48 -48h-86q-48 0 -48 48v111
q-52 -81 -141 -132t-195 -51q-191 0 -304 114t-113 309v589q0 48 48 48h86q48 0 48 -48v-579q0 -125 71.5 -197.5t197.5 -72.5q121 0 211.5 93.5t90.5 226.5v529z" />
    <glyph glyph-name="Uogonek" unicode="&#x172;" horiz-adv-x="1326" 
d="M1171 489q0 -195 -107 -328t-280 -170q-100 -64 -143 -132.5t-43 -157.5q0 -55 29.5 -82t79.5 -27q72 0 103 71q17 40 54 40h45q26 0 38 -14.5t4 -38.5q-26 -77 -91.5 -123.5t-161.5 -46.5q-104 0 -173 61t-69 157q0 177 169 282q-205 13 -337.5 152t-132.5 357v863
q0 48 48 48h92q48 0 48 -48v-884q0 -144 91 -234t229 -90t229 90t91 234v884q0 48 48 48h92q48 0 48 -48v-863z" />
    <glyph glyph-name="uogonek" unicode="&#x173;" horiz-adv-x="1207" 
d="M901 0q-22 0 -22 48v111q-52 -81 -141 -132t-195 -51q-191 0 -304 114t-113 309v589q0 48 48 48h86q48 0 48 -48v-579q0 -125 71.5 -197.5t197.5 -72.5q121 0 211.5 93.5t90.5 226.5v529q0 48 48 48h86q48 0 48 -48v-950q0 -37 -32 -59q-90 -61 -129.5 -127t-39.5 -151
q0 -55 29.5 -82t79.5 -27q72 0 103 71q17 40 54 40h45q26 0 38 -14.5t4 -38.5q-26 -77 -91.5 -123.5t-161.5 -46.5q-104 0 -173 61t-69 157q0 194 205 302h-22z" />
    <glyph glyph-name="Wcircumflex" unicode="&#x174;" horiz-adv-x="1934" 
d="M1015 1847q35 0 59 -28l187 -230q29 -37 -7 -68l-20 -16q-36 -30 -67 3l-199 200l-200 -200q-32 -32 -67 -3l-20 17q-36 30 -7 67l187 230q24 28 59 28h95zM1019 1400q43 0 54 -40l312 -1085l293 1084q10 41 53 41h100q26 0 37 -14.5t4 -39.5l-375 -1306q-11 -40 -54 -40
h-104q-43 0 -54 40l-318 1101l-318 -1101q-11 -40 -54 -40h-104q-43 0 -54 40l-375 1306q-7 25 4 39.5t37 14.5h100q43 0 53 -41l293 -1084l312 1085q11 40 54 40h104z" />
    <glyph glyph-name="wcircumflex" unicode="&#x175;" horiz-adv-x="1560" 
d="M828 1523q35 0 59 -28l187 -230q29 -37 -7 -68l-20 -16q-36 -30 -67 3l-199 200l-200 -200q-32 -32 -67 -3l-20 17q-36 30 -7 67l187 230q24 28 59 28h95zM832 1036q43 0 54 -40l219 -752l226 752q11 40 54 40h91q26 0 37 -15t3 -40l-302 -941q-12 -40 -55 -40h-104
q-43 0 -54 40l-221 756l-221 -756q-11 -40 -54 -40h-104q-43 0 -55 40l-302 941q-8 25 3 40t37 15h91q43 0 54 -40l226 -752l219 752q11 40 54 40h104z" />
    <glyph glyph-name="Ycircumflex" unicode="&#x176;" horiz-adv-x="1286" 
d="M691 1847q35 0 59 -28l187 -230q29 -37 -7 -68l-20 -16q-36 -30 -67 3l-199 200l-200 -200q-32 -32 -67 -3l-20 17q-36 30 -7 67l187 230q24 28 59 28h95zM643 758l373 610q19 32 58 32h97q29 0 38.5 -16.5t-5.5 -41.5l-467 -768v-526q0 -48 -48 -48h-92q-48 0 -48 48
v526l-467 768q-15 25 -5.5 41.5t38.5 16.5h97q39 0 58 -32z" />
    <glyph glyph-name="ycircumflex" unicode="&#x177;" horiz-adv-x="1050" 
d="M573 1523q35 0 59 -28l187 -230q29 -37 -7 -68l-20 -16q-36 -30 -67 3l-199 200l-200 -200q-32 -32 -67 -3l-20 17q-36 30 -7 67l187 230q24 28 59 28h95zM432 4l-383 976q-10 25 0.5 40.5t37.5 15.5h89q41 0 56 -38l293 -763l293 763q15 38 56 38h89q27 0 37.5 -15.5
t0.5 -40.5l-548 -1406q-15 -38 -55 -38h-90q-27 0 -37.5 15.5t-0.5 40.5z" />
    <glyph glyph-name="Ydieresis" unicode="&#x178;" horiz-adv-x="1286" 
d="M351 1664q0 47 32.5 80t80.5 33t80.5 -33t32.5 -80q0 -48 -32.5 -80.5t-80.5 -32.5t-80.5 32.5t-32.5 80.5zM709 1664q0 47 32.5 80t80.5 33t80.5 -33t32.5 -80q0 -48 -32.5 -80.5t-80.5 -32.5t-80.5 32.5t-32.5 80.5zM643 758l373 610q19 32 58 32h97q29 0 38.5 -16.5
t-5.5 -41.5l-467 -768v-526q0 -48 -48 -48h-92q-48 0 -48 48v526l-467 768q-15 25 -5.5 41.5t38.5 16.5h97q39 0 58 -32z" />
    <glyph glyph-name="Zacute" unicode="&#x179;" horiz-adv-x="1201" 
d="M703 1840q32 38 68 5l46 -42q37 -33 2 -68l-221 -221q-32 -32 -67 -3l-20 17q-36 30 -7 67zM845 1237h-646q-48 0 -48 48v67q0 48 48 48h823q48 0 48 -48v-82q0 -32 -18 -60l-706 -1047h696q48 0 48 -48v-67q0 -48 -48 -48h-873q-48 0 -48 48v82q0 32 18 60z" />
    <glyph glyph-name="zacute" unicode="&#x17a;" horiz-adv-x="1012" 
d="M545 1516q32 38 68 5l46 -42q37 -33 2 -68l-221 -221q-32 -32 -67 -3l-20 17q-36 30 -7 67zM98 127q0 34 21 59l551 690h-498q-48 0 -48 48v64q0 48 48 48h669q48 0 48 -48v-79q0 -34 -21 -59l-550 -690h543q48 0 48 -48v-64q0 -48 -48 -48h-715q-48 0 -48 48v79z" />
    <glyph glyph-name="Zdotaccent" unicode="&#x17b;" horiz-adv-x="1201" 
d="M490 1664q0 47 32.5 80t80.5 33t80.5 -33t32.5 -80t-32.5 -80t-80.5 -33t-80.5 33t-32.5 80zM845 1237h-646q-48 0 -48 48v67q0 48 48 48h823q48 0 48 -48v-82q0 -32 -18 -60l-706 -1047h696q48 0 48 -48v-67q0 -48 -48 -48h-873q-48 0 -48 48v82q0 32 18 60z" />
    <glyph glyph-name="zdotaccent" unicode="&#x17c;" horiz-adv-x="1012" 
d="M395 1340q0 47 32.5 80t80.5 33t80.5 -33t32.5 -80t-32.5 -80t-80.5 -33t-80.5 33t-32.5 80zM98 127q0 34 21 59l551 690h-498q-48 0 -48 48v64q0 48 48 48h669q48 0 48 -48v-79q0 -34 -21 -59l-550 -690h543q48 0 48 -48v-64q0 -48 -48 -48h-715q-48 0 -48 48v79z" />
    <glyph glyph-name="Zcaron" unicode="&#x17d;" horiz-adv-x="1201" 
d="M557 1509q-35 0 -59 28l-187 230q-29 37 7 68l20 16q36 30 67 -3l199 -200l200 200q32 32 67 3l20 -17q36 -30 7 -67l-187 -230q-24 -28 -59 -28h-95zM845 1237h-646q-48 0 -48 48v67q0 48 48 48h823q48 0 48 -48v-82q0 -32 -18 -60l-706 -1047h696q48 0 48 -48v-67
q0 -48 -48 -48h-873q-48 0 -48 48v82q0 32 18 60z" />
    <glyph glyph-name="zcaron" unicode="&#x17e;" horiz-adv-x="1012" 
d="M459 1165q-35 0 -59 28l-187 230q-29 37 7 68l20 16q36 30 67 -3l199 -200l200 200q32 32 67 3l20 -17q36 -30 7 -67l-187 -230q-24 -28 -59 -28h-95zM98 127q0 34 21 59l551 690h-498q-48 0 -48 48v64q0 48 48 48h669q48 0 48 -48v-79q0 -34 -21 -59l-550 -690h543
q48 0 48 -48v-64q0 -48 -48 -48h-715q-48 0 -48 48v79z" />
    <glyph glyph-name="longs" unicode="&#x17f;" horiz-adv-x="746" 
d="M701 1345q0 -49 -45 -46q-16 1 -46 1q-109 0 -156.5 -50t-47.5 -153v-1049q0 -48 -48 -48h-86q-48 0 -48 48v828h-131q-48 0 -48 48v64q0 48 48 48h131v63q0 183 91 272t280 89q33 0 61 -3q45 -3 45 -50v-62z" />
    <glyph glyph-name="uni0191" unicode="&#x191;" horiz-adv-x="1057" 
d="M168 1352q0 48 48 48h711q48 0 48 -48v-67q0 -48 -48 -48h-571v-451h520q48 0 48 -48v-67q0 -48 -48 -48h-520v-726q0 -361 -365 -361q-31 0 -58 3q-45 3 -45 50v62q0 49 42 46q14 -1 43 -1q102 0 148.5 50t46.5 153v1453z" />
    <glyph glyph-name="florin" unicode="&#x192;" horiz-adv-x="746" 
d="M224 876h-131q-48 0 -48 48v64q0 48 48 48h131v63q0 183 91 272t280 89q33 0 61 -3q45 -3 45 -50v-62q0 -49 -45 -46q-16 1 -46 1q-109 0 -156.5 -50t-47.5 -153v-61h247q48 0 48 -48v-64q0 -48 -48 -48h-247v-979q0 -183 -91 -272t-280 -89q-33 0 -61 3q-45 3 -45 50v62
q0 49 45 46q16 -1 46 -1q109 0 156.5 50t47.5 153v977z" />
    <glyph glyph-name="Aringacute" unicode="&#x1fa;" horiz-adv-x="1362" 
d="M738 1973q34 32 67 1l39 -36q37 -35 -2 -68l-204 -166q-35 -29 -68 3l-16 15q-34 34 0 68zM554 1334q-78 54 -78 147q0 80 58.5 133.5t146.5 53.5t146.5 -53.5t58.5 -133.5q0 -93 -78 -147l485 -1279q10 -25 -0.5 -40t-37.5 -15h-105q-42 0 -55 39l-116 322h-596
l-116 -322q-13 -39 -55 -39h-105q-27 0 -37.5 15t-0.5 40zM595 1481q0 -35 24.5 -58t61.5 -23t61.5 23t24.5 58t-24.5 58t-61.5 23t-61.5 -23t-24.5 -58zM439 524h484l-242 668z" />
    <glyph glyph-name="aringacute" unicode="&#x1fb;" horiz-adv-x="1297" 
d="M738 1833q34 32 67 1l39 -36q37 -35 -2 -68l-204 -166q-35 -29 -68 3l-16 15q-34 34 0 68zM421 1329q0 83 60.5 139.5t149.5 56.5t149.5 -56.5t60.5 -139.5t-60.5 -139.5t-149.5 -56.5t-149.5 56.5t-60.5 139.5zM540 1329q0 -38 26.5 -64t64.5 -26t64.5 26t26.5 64
t-26.5 64t-64.5 26t-64.5 -26t-26.5 -64zM74 518q0 149 65.5 273t183 197t262.5 73q116 0 215 -48.5t169 -133.5v109q0 48 48 48h86q48 0 48 -48v-940q0 -48 -48 -48h-86q-48 0 -48 48v109q-70 -85 -169 -133t-215 -48q-145 0 -262.5 72.5t-183 196.5t-65.5 273zM259 518
q0 -158 102.5 -268t254.5 -110q151 0 252 110t101 268q0 159 -99.5 269t-253.5 110q-155 0 -256 -110t-101 -269z" />
    <glyph glyph-name="AEacute" unicode="&#x1fc;" horiz-adv-x="1846" 
d="M1053 1840q32 38 68 5l46 -42q37 -33 2 -68l-221 -221q-32 -32 -67 -3l-20 17q-36 30 -7 67zM84 0q-29 0 -38 16t5 41l752 1310q19 33 57 33h804q48 0 48 -48v-67q0 -48 -48 -48h-573v-452h523q48 0 48 -48v-67q0 -48 -48 -48h-523v-459h591q48 0 48 -48v-67
q0 -48 -48 -48h-731q-48 0 -48 48v313h-467l-185 -328q-19 -33 -57 -33h-110zM903 524v665l-376 -665h376z" />
    <glyph glyph-name="aeacute" unicode="&#x1fd;" horiz-adv-x="2024" 
d="M1119 1516q32 38 68 5l46 -42q37 -33 2 -68l-221 -221q-32 -32 -67 -3l-20 17q-36 30 -7 67zM1192 461q15 -141 119.5 -234.5t252.5 -93.5q164 0 294 117q34 32 67 1l37 -35q36 -34 4 -67q-159 -173 -397 -173q-249 0 -381 183v-111q0 -48 -48 -48h-86q-48 0 -48 48v109
q-70 -85 -169 -133t-215 -48q-145 0 -262.5 72.5t-183 196.5t-65.5 273t65.5 273t183 197t262.5 73q116 0 215 -48.5t169 -133.5v109q0 48 48 48h86q48 0 48 -48v-112q131 184 366 184q151 0 272.5 -70t188.5 -188.5t67 -260.5q0 -12 -2 -36q-4 -44 -51 -44h-837zM1554 903
q-128 0 -228 -83t-127 -208h692q-21 127 -114 209t-223 82zM296 518q0 -158 102.5 -268t254.5 -110q151 0 252 110t101 268q0 159 -99.5 269t-253.5 110q-155 0 -256 -110t-101 -269z" />
    <glyph glyph-name="Oslashacute" unicode="&#x1fe;" horiz-adv-x="1634" 
d="M941 1840q32 38 68 5l46 -42q37 -33 2 -68l-221 -221q-32 -32 -67 -3l-20 17q-36 30 -7 67zM817 1424q211 0 386 -104l114 144q28 36 66 11l37 -24q43 -27 12 -67l-116 -147q112 -100 174.5 -239t62.5 -298q0 -151 -57 -285t-155 -230.5t-234.5 -152.5t-289.5 -56
q-224 0 -404 114l-118 -150q-28 -36 -67 -11l-37 24q-41 28 -11 67l123 156q-105 99 -163.5 234.5t-58.5 289.5q0 151 57 285t155 230.5t234.5 152.5t289.5 56zM272 700q0 -223 144 -381l679 863q-128 76 -278 76q-228 0 -386.5 -162t-158.5 -396zM817 142q228 0 386.5 162
t158.5 396q0 115 -41.5 217t-116.5 178l-682 -867q133 -86 295 -86z" />
    <glyph glyph-name="oslashacute" unicode="&#x1ff;" horiz-adv-x="1268" 
d="M758 1516q32 38 68 5l46 -42q37 -33 2 -68l-221 -221q-32 -32 -67 -3l-20 17q-36 30 -7 67zM634 1060q157 0 288 -74l90 113q28 35 67 9l29 -21q40 -29 10 -67l-90 -113q79 -75 122.5 -175.5t43.5 -213.5q0 -148 -72 -272t-201 -197t-287 -73q-160 0 -287 73l-87 -109
q-29 -36 -67 -10l-29 21q-40 29 -10 67l87 109q-80 75 -123.5 176t-43.5 215q0 148 72 272t201 197t287 73zM259 518q0 -145 92 -251l464 584q-84 46 -181 46q-158 0 -266.5 -110.5t-108.5 -268.5zM634 139q158 0 266.5 110.5t108.5 268.5q0 144 -91 249l-464 -583
q82 -45 180 -45z" />
    <glyph glyph-name="Scommaaccent" unicode="&#x218;" horiz-adv-x="1176" 
d="M189 292q33 36 68 1q156 -151 332 -151q138 0 224 63.5t86 167.5q0 99 -78 167t-255 105q-214 45 -323.5 147t-109.5 253q0 168 123.5 273.5t320.5 105.5q86 0 165.5 -21.5t146.5 -62.5t111.5 -109.5t54.5 -154.5q3 -24 -9.5 -37t-36.5 -13h-96q-42 0 -50 46
q-17 89 -92.5 137.5t-184.5 48.5q-116 0 -189 -56t-73 -144q0 -95 79 -158t242 -100q234 -53 339.5 -158t105.5 -268q0 -177 -133.5 -287.5t-358.5 -110.5q-129 0 -243 56.5t-202 154.5q-30 33 1 67zM622 -139q32 38 68 5l46 -42q37 -33 2 -68l-221 -221q-32 -32 -67 -3
l-20 17q-36 30 -7 67z" />
    <glyph glyph-name="scommaaccent" unicode="&#x219;" horiz-adv-x="932" 
d="M143 232q31 37 68 2q108 -101 253 -101q98 0 155 42t57 111q0 66 -55 109t-175 66q-337 65 -337 312q0 125 94 206t253 81q139 0 232.5 -63.5t123.5 -184.5q6 -24 -6 -38.5t-37 -14.5h-86q-38 0 -52 43q-15 46 -57.5 73.5t-104.5 27.5q-80 0 -129 -37t-49 -96
q0 -57 54 -100t160 -64q179 -35 266 -114.5t87 -208.5q0 -135 -102.5 -221t-279.5 -86q-215 0 -358 158q-28 34 0 68zM486 -139q32 38 68 5l46 -42q37 -33 2 -68l-221 -221q-32 -32 -67 -3l-20 17q-36 30 -7 67z" />
    <glyph glyph-name="uni021A" unicode="&#x21a;" horiz-adv-x="1098" 
d="M455 1237h-345q-48 0 -48 48v67q0 48 48 48h878q48 0 48 -48v-67q0 -48 -48 -48h-345v-1189q0 -48 -48 -48h-92q-48 0 -48 48v1189zM562 -139q32 38 68 5l46 -42q37 -33 2 -68l-221 -221q-32 -32 -67 -3l-20 17q-36 30 -7 67z" />
    <glyph glyph-name="uni021B" unicode="&#x21b;" horiz-adv-x="764" 
d="M414 331q0 -100 47 -147.5t155 -47.5q28 0 43 1q50 3 50 -46v-46q0 -44 -38 -55q-53 -14 -110 -14q-329 0 -329 353v547h-169q-48 0 -48 48v64q0 48 48 48h169v208q0 42 41 53l87 24q25 7 39.5 -4t14.5 -37v-244h235q48 0 48 -48v-64q0 -48 -48 -48h-235v-545zM459 -139
q32 38 68 5l46 -42q37 -33 2 -68l-221 -221q-32 -32 -67 -3l-20 17q-36 30 -7 67z" />
    <glyph glyph-name="uni0237" unicode="&#x237;" horiz-adv-x="522" 
d="M170 988q0 48 48 48h86q48 0 48 -48v-1122q0 -173 -75 -251.5t-232 -78.5q-21 0 -32 1q-46 2 -46 49v63q0 47 28 47h29q73 0 109.5 39t36.5 128v1125z" />
    <glyph glyph-name="uni02BC" unicode="&#x2bc;" horiz-adv-x="832" 
d="M314 1364q0 45 30.5 75t75.5 30q47 0 76 -32.5t29 -93.5q0 -84 -43 -157.5t-121 -122.5q-36 -22 -67 9q-22 22 10 60q45 53 48.5 99.5t-23.5 83.5q-15 26 -15 49z" />
    <glyph glyph-name="circumflex" unicode="&#x2c6;" horiz-adv-x="832" 
d="M464 1457q35 0 59 -28l187 -230q29 -37 -7 -68l-20 -16q-36 -30 -67 3l-199 200l-200 -200q-32 -32 -67 -3l-20 17q-36 30 -7 67l187 230q24 28 59 28h95z" />
    <glyph glyph-name="caron" unicode="&#x2c7;" horiz-adv-x="832" 
d="M369 1119q-35 0 -59 28l-187 230q-29 37 7 68l20 16q36 30 67 -3l199 -200l200 200q32 32 67 3l20 -17q36 -30 7 -67l-187 -230q-24 -28 -59 -28h-95z" />
    <glyph glyph-name="uni02C9" unicode="&#x2c9;" horiz-adv-x="832" 
d="M126 1311q0 48 48 48h484q48 0 48 -48v-46q0 -48 -48 -48h-484q-48 0 -48 48v46z" />
    <glyph glyph-name="breve" unicode="&#x2d8;" horiz-adv-x="832" 
d="M416 1128q-118 0 -207 72t-112 186q-5 24 7.5 37.5t36.5 13.5h66q40 0 51 -44q15 -58 57 -93.5t101 -35.5t101 35.5t57 93.5q11 44 51 44h66q25 0 37 -14t7 -38q-24 -114 -112.5 -185.5t-206.5 -71.5z" />
    <glyph glyph-name="dotaccent" unicode="&#x2d9;" horiz-adv-x="832" 
d="M303 1292q0 47 32.5 80t80.5 33t80.5 -33t32.5 -80t-32.5 -80t-80.5 -33t-80.5 33t-32.5 80z" />
    <glyph glyph-name="ring" unicode="&#x2da;" horiz-adv-x="832" 
d="M206 1286q0 83 60 139t150 56t150 -56t60 -139t-60 -139t-150 -56t-150 56t-60 139zM325 1286q0 -38 26 -63.5t65 -25.5t65 25.5t26 63.5t-26 63.5t-65 25.5t-65 -25.5t-26 -63.5z" />
    <glyph glyph-name="ogonek" unicode="&#x2db;" horiz-adv-x="832" 
d="M470 0q32 0 18 -25q-7 -14 -27 -30q-123 -99 -123 -244q0 -55 29.5 -82t79.5 -27q72 0 103 71q17 40 54 40h45q26 0 38 -14.5t4 -38.5q-26 -77 -91.5 -123.5t-161.5 -46.5q-104 0 -173 61t-69 157q0 179 177 286q27 16 60 16h37z" />
    <glyph glyph-name="tilde" unicode="&#x2dc;" horiz-adv-x="832" 
d="M411 1210q-6 4 -22.5 16.5t-24.5 17.5l-20.5 13t-23.5 11t-21 3q-36 0 -57 -55q-15 -46 -57 -37l-60 12q-50 10 -36 58q48 164 176 164q77 0 156 -58q6 -4 22.5 -16.5t24.5 -17.5l20.5 -13t23.5 -11t21 -3q36 0 57 55q15 46 57 37l60 -12q50 -10 36 -58
q-48 -164 -176 -164q-77 0 -156 58z" />
    <glyph glyph-name="hungarumlaut" unicode="&#x2dd;" horiz-adv-x="832" 
d="M351 1453q32 38 68 5l46 -42q37 -33 2 -68l-221 -221q-32 -32 -67 -3l-20 17q-36 30 -7 67zM668 1453q32 38 68 5l46 -42q37 -33 2 -68l-221 -221q-32 -32 -67 -3l-20 17q-36 30 -7 67z" />
    <glyph glyph-name="gravecomb" unicode="&#x300;" horiz-adv-x="0" 
d="M-277 1208q29 -37 -7 -68l-20 -17q-34 -29 -67 4l-221 221q-35 35 2 68l46 42q36 33 68 -5z" />
    <glyph glyph-name="acutecomb" unicode="&#x301;" horiz-adv-x="0" 
d="M-318 1453q32 38 68 5l46 -42q37 -33 2 -68l-221 -221q-32 -32 -67 -3l-20 17q-36 30 -7 67z" />
    <glyph glyph-name="uni0302" unicode="&#x302;" horiz-adv-x="0" 
d="M-368 1457q35 0 59 -28l187 -230q29 -37 -7 -68l-20 -16q-36 -30 -67 3l-199 200l-200 -200q-32 -32 -67 -3l-20 17q-36 30 -7 67l187 230q24 28 59 28h95z" />
    <glyph glyph-name="tildecomb" unicode="&#x303;" horiz-adv-x="0" 
d="M-421 1210q-6 4 -22.5 16.5t-24.5 17.5l-20.5 13t-23.5 11t-21 3q-36 0 -57 -55q-15 -46 -57 -37l-60 12q-50 10 -36 58q48 164 176 164q77 0 156 -58q6 -4 22.5 -16.5t24.5 -17.5l20.5 -13t23.5 -11t21 -3q36 0 57 55q15 46 57 37l60 -12q50 -10 36 -58
q-48 -164 -176 -164q-77 0 -156 58z" />
    <glyph glyph-name="uni0304" unicode="&#x304;" horiz-adv-x="0" 
d="M-706 1313q0 48 48 48h484q48 0 48 -48v-46q0 -48 -48 -48h-484q-48 0 -48 48v46z" />
    <glyph glyph-name="uni0306" unicode="&#x306;" horiz-adv-x="0" 
d="M-416 1128q-118 0 -207 72t-112 186q-5 24 7.5 37.5t36.5 13.5h66q40 0 51 -44q15 -58 57 -93.5t101 -35.5t101 35.5t57 93.5q11 44 51 44h66q25 0 37 -14t7 -38q-24 -114 -112.5 -185.5t-206.5 -71.5z" />
    <glyph glyph-name="uni0307" unicode="&#x307;" horiz-adv-x="0" 
d="M-529 1292q0 47 32.5 80t80.5 33t80.5 -33t32.5 -80t-32.5 -80t-80.5 -33t-80.5 33t-32.5 80z" />
    <glyph glyph-name="uni0308" unicode="&#x308;" horiz-adv-x="0" 
d="M-708 1292q0 47 32.5 80t80.5 33t80.5 -33t32.5 -80q0 -48 -32.5 -80.5t-80.5 -32.5t-80.5 32.5t-32.5 80.5zM-350 1292q0 47 32.5 80t80.5 33t80.5 -33t32.5 -80q0 -48 -32.5 -80.5t-80.5 -32.5t-80.5 32.5t-32.5 80.5z" />
    <glyph glyph-name="uni030A" unicode="&#x30a;" horiz-adv-x="0" 
d="M-626 1286q0 83 60 139t150 56t150 -56t60 -139t-60 -139t-150 -56t-150 56t-60 139zM-507 1286q0 -38 26 -63.5t65 -25.5t65 25.5t26 63.5t-26 63.5t-65 25.5t-65 -25.5t-26 -63.5z" />
    <glyph glyph-name="uni030C" unicode="&#x30c;" horiz-adv-x="0" 
d="M-463 1119q-35 0 -59 28l-187 230q-29 37 7 68l20 16q36 30 67 -3l199 -200l200 200q32 32 67 3l20 -17q36 -30 7 -67l-187 -230q-24 -28 -59 -28h-95z" />
    <glyph glyph-name="uni0327" unicode="&#x327;" horiz-adv-x="0" 
d="M-404 -214q-21 0 -30 -1q-42 -3 -64 11q-3 3 -3 39v117q0 48 48 48h33q48 0 48 -48v-73q101 0 158 -54t57 -137q0 -90 -70 -149t-177 -59q-85 0 -152.5 41.5t-94.5 108.5q-9 24 3.5 38.5t38.5 14.5h45q33 0 56 -38q32 -53 95 -53q52 0 83 28t31 71q0 41 -32 68t-73 27z
" />
    <glyph glyph-name="tonos" unicode="&#x384;" horiz-adv-x="832" 
d="M455 1453q32 38 68 5l46 -42q37 -33 2 -68l-221 -221q-32 -32 -67 -3l-20 17q-36 30 -7 67z" />
    <glyph glyph-name="dieresistonos" unicode="&#x385;" horiz-adv-x="832" 
d="M538 1603q32 38 68 5l46 -42q37 -33 2 -68l-221 -221q-32 -32 -67 -3l-20 17q-36 30 -7 67zM118 1140q0 50 34 83.5t85 33.5t85 -33.5t34 -83.5t-34 -83.5t-85 -33.5t-85 33.5t-34 83.5zM476 1140q0 50 34 83.5t85 33.5t85 -33.5t34 -83.5t-34 -83.5t-85 -33.5t-85 33.5
t-34 83.5z" />
    <glyph glyph-name="Alphatonos" unicode="&#x386;" horiz-adv-x="1379" 
d="M236 1393q32 38 68 5l46 -42q37 -33 2 -68l-221 -221q-32 -32 -67 -3l-20 17q-36 30 -7 67zM1167 0q-41 0 -55 39l-116 322h-596l-116 -322q-14 -39 -55 -39h-105q-26 0 -36.5 15t-1.5 40l493 1307q15 38 55 38h128q40 0 55 -38l493 -1307q9 -25 -1.5 -40t-36.5 -15h-105
zM940 524l-242 668l-242 -668h484z" />
    <glyph glyph-name="anoteleia" unicode="&#x387;" horiz-adv-x="594" 
d="M172 627q0 53 36 89t89 36t89 -36t36 -89t-36 -89t-89 -36t-89 36t-36 89z" />
    <glyph glyph-name="Epsilontonos" unicode="&#x388;" horiz-adv-x="1451" 
d="M236 1393q32 38 68 5l46 -42q37 -33 2 -68l-221 -221q-32 -32 -67 -3l-20 17q-36 30 -7 67zM490 1352q0 48 48 48h731q48 0 48 -48v-67q0 -48 -48 -48h-591v-452h540q48 0 48 -48v-67q0 -48 -48 -48h-540v-459h609q48 0 48 -48v-67q0 -48 -48 -48h-749q-48 0 -48 48v1304
z" />
    <glyph glyph-name="Etatonos" unicode="&#x389;" horiz-adv-x="1716" 
d="M236 1393q32 38 68 5l46 -42q37 -33 2 -68l-221 -221q-32 -32 -67 -3l-20 17q-36 30 -7 67zM490 1352q0 48 48 48h92q48 0 48 -48v-567h682v567q0 48 48 48h92q48 0 48 -48v-1304q0 -48 -48 -48h-92q-48 0 -48 48v574h-682v-574q0 -48 -48 -48h-92q-48 0 -48 48v1304z
" />
    <glyph glyph-name="Iotatonos" unicode="&#x38a;" horiz-adv-x="869" 
d="M236 1393q32 38 68 5l46 -42q37 -33 2 -68l-221 -221q-32 -32 -67 -3l-20 17q-36 30 -7 67zM630 1400q48 0 48 -48v-1304q0 -48 -48 -48h-92q-48 0 -48 48v1304q0 48 48 48h92z" />
    <glyph glyph-name="Omicrontonos" unicode="&#x38c;" horiz-adv-x="1838" 
d="M1021 1424q153 0 289.5 -56t234.5 -152.5t155 -230.5t57 -285t-57 -285t-155 -230.5t-234.5 -152.5t-289.5 -56t-289.5 56t-234.5 152.5t-155 230.5t-57 285t57 285t155 230.5t234.5 152.5t289.5 56zM236 1393q32 38 68 5l46 -42q37 -33 2 -68l-221 -221q-32 -32 -67 -3
l-20 17q-36 30 -7 67zM1021 142q228 0 386.5 162t158.5 396t-158.5 396t-386.5 162t-386.5 -162t-158.5 -396t158.5 -396t386.5 -162z" />
    <glyph glyph-name="Upsilontonos" unicode="&#x38e;" horiz-adv-x="1683" 
d="M236 1393q32 38 68 5l46 -42q37 -33 2 -68l-221 -221q-32 -32 -67 -3l-20 17q-36 30 -7 67zM1040 758l373 610q19 32 58 32h97q29 0 38.5 -16.5t-5.5 -41.5l-467 -768v-526q0 -48 -48 -48h-92q-48 0 -48 48v526l-467 768q-15 25 -5.5 41.5t38.5 16.5h97q39 0 58 -32z" />
    <glyph glyph-name="Omegatonos" unicode="&#x38f;" horiz-adv-x="1798" 
d="M1515 733q0 220 -148.5 372.5t-362.5 152.5t-362.5 -152.5t-148.5 -372.5q0 -169 91.5 -314t268.5 -241q35 -19 35 -57v-73q0 -48 -48 -48h-474q-48 0 -48 48v70q0 48 48 48h288q-174 106 -263 254.5t-89 327.5q0 139 54.5 264t148 215.5t224 143.5t275.5 53t275.5 -53
t224 -143.5t148 -215.5t54.5 -264q0 -179 -89 -327.5t-263 -254.5h288q48 0 48 -48v-70q0 -48 -48 -48h-474q-48 0 -48 48v73q0 37 43 62q172 96 262 240t90 310zM236 1393q32 38 68 5l46 -42q37 -33 2 -68l-221 -221q-32 -32 -67 -3l-20 17q-36 30 -7 67z" />
    <glyph glyph-name="iotadieresistonos" unicode="&#x390;" horiz-adv-x="549" 
d="M382 1737q32 38 68 5l46 -42q37 -33 2 -68l-221 -221q-32 -32 -67 -3l-20 17q-36 30 -7 67zM-38 1274q0 50 34 83.5t85 33.5t85 -33.5t34 -83.5t-34 -83.5t-85 -33.5t-85 33.5t-34 83.5zM320 1274q0 50 34 83.5t85 33.5t85 -33.5t34 -83.5t-34 -83.5t-85 -33.5t-85 33.5
t-34 83.5zM170 988q0 48 48 48h86q48 0 48 -48v-716q0 -112 109 -112q43 0 43 -48v-62q0 -47 -38 -49q-13 -1 -39 -1q-257 0 -257 225v763z" />
    <glyph glyph-name="Alpha" unicode="&#x391;" horiz-adv-x="1362" 
d="M1150 0q-42 0 -55 39l-116 322h-596l-116 -322q-13 -39 -55 -39h-105q-26 0 -36.5 15t-1.5 40l493 1307q15 38 55 38h128q40 0 55 -38l493 -1307q9 -25 -1.5 -40t-36.5 -15h-105zM923 524l-242 668l-242 -668h484z" />
    <glyph glyph-name="Beta" unicode="&#x392;" horiz-adv-x="1235" 
d="M216 0q-48 0 -48 48v1304q0 48 48 48h444q187 0 293 -100.5t106 -270.5q0 -108 -51.5 -181.5t-137.5 -104.5q115 -25 192 -117t77 -227q0 -178 -114 -288.5t-305 -110.5h-504zM868 1020q0 102 -61 159.5t-160 57.5h-291v-433h291q100 0 160.5 57t60.5 159zM948 405
q0 110 -67.5 176t-176.5 66h-348v-484h348q109 0 176.5 66t67.5 176z" />
    <glyph glyph-name="Gamma" unicode="&#x393;" horiz-adv-x="1029" 
d="M168 1352q0 48 48 48h718q48 0 48 -48v-67q0 -48 -48 -48h-578v-1189q0 -48 -48 -48h-92q-48 0 -48 48v1304z" />
    <glyph glyph-name="uni0394" unicode="&#x394;" horiz-adv-x="1362" 
d="M1293 55q9 -25 -1.5 -40t-36.5 -15h-1148q-26 0 -36.5 15t-1.5 40l493 1307q15 38 55 38h128q40 0 55 -38zM307 163h748l-374 1029z" />
    <glyph glyph-name="Epsilon" unicode="&#x395;" horiz-adv-x="1129" 
d="M168 1352q0 48 48 48h731q48 0 48 -48v-67q0 -48 -48 -48h-591v-452h540q48 0 48 -48v-67q0 -48 -48 -48h-540v-459h609q48 0 48 -48v-67q0 -48 -48 -48h-749q-48 0 -48 48v1304z" />
    <glyph glyph-name="Zeta" unicode="&#x396;" horiz-adv-x="1201" 
d="M845 1237h-646q-48 0 -48 48v67q0 48 48 48h823q48 0 48 -48v-82q0 -32 -18 -60l-706 -1047h696q48 0 48 -48v-67q0 -48 -48 -48h-873q-48 0 -48 48v82q0 32 18 60z" />
    <glyph glyph-name="Eta" unicode="&#x397;" horiz-adv-x="1394" 
d="M168 1352q0 48 48 48h92q48 0 48 -48v-567h682v567q0 48 48 48h92q48 0 48 -48v-1304q0 -48 -48 -48h-92q-48 0 -48 48v574h-682v-574q0 -48 -48 -48h-92q-48 0 -48 48v1304z" />
    <glyph glyph-name="Theta" unicode="&#x398;" horiz-adv-x="1634" 
d="M817 1424q153 0 289.5 -56t234.5 -152.5t155 -230.5t57 -285t-57 -285t-155 -230.5t-234.5 -152.5t-289.5 -56t-289.5 56t-234.5 152.5t-155 230.5t-57 285t57 285t155 230.5t234.5 152.5t289.5 56zM817 142q228 0 386.5 162t158.5 396t-158.5 396t-386.5 162
t-386.5 -162t-158.5 -396t158.5 -396t386.5 -162zM529 730q0 48 48 48h480q48 0 48 -48v-61q0 -48 -48 -48h-480q-48 0 -48 48v61z" />
    <glyph glyph-name="Iota" unicode="&#x399;" horiz-adv-x="570" 
d="M331 1400q48 0 48 -48v-1304q0 -48 -48 -48h-92q-48 0 -48 48v1304q0 48 48 48h92z" />
    <glyph glyph-name="Kappa" unicode="&#x39a;" horiz-adv-x="1201" 
d="M356 785h70q227 0 345 133.5t127 431.5q2 49 49 49h92q49 0 47 -49q-13 -520 -328 -669l403 -623q16 -25 7 -41.5t-38 -16.5h-115q-37 0 -57 32l-382 597q-50 -7 -112 -7h-108v-574q0 -48 -48 -48h-92q-48 0 -48 48v1304q0 48 48 48h92q48 0 48 -48v-567z" />
    <glyph glyph-name="Lambda" unicode="&#x39b;" horiz-adv-x="1362" 
d="M681 1177l-414 -1139q-13 -38 -55 -38h-105q-26 0 -36.5 15t-1.5 40l493 1307q15 38 55 38h128q40 0 55 -38l493 -1307q9 -25 -1.5 -40t-36.5 -15h-105q-42 0 -55 38z" />
    <glyph glyph-name="Mu" unicode="&#x39c;" horiz-adv-x="1698" 
d="M892 162q-38 0 -57 33l-485 834v-981q0 -48 -48 -48h-86q-48 0 -48 48v1304q0 48 48 48h89q38 0 57 -33l537 -928l537 928q19 33 57 33h89q48 0 48 -48v-1304q0 -48 -48 -48h-86q-48 0 -48 48v981l-485 -834q-19 -33 -57 -33h-14z" />
    <glyph glyph-name="Nu" unicode="&#x39d;" horiz-adv-x="1399" 
d="M168 1352q0 48 48 48h96q37 0 57 -31l680 -1043v1026q0 48 48 48h86q48 0 48 -48v-1304q0 -48 -48 -48h-96q-37 0 -57 31l-680 1043v-1026q0 -48 -48 -48h-86q-48 0 -48 48v1304z" />
    <glyph glyph-name="Xi" unicode="&#x39e;" horiz-adv-x="1167" 
d="M134 1352q0 48 48 48h803q48 0 48 -48v-67q0 -48 -48 -48h-803q-48 0 -48 48v67zM240 622q-48 0 -48 48v67q0 48 48 48h687q48 0 48 -48v-67q0 -48 -48 -48h-687zM116 115q0 48 48 48h839q48 0 48 -48v-67q0 -48 -48 -48h-839q-48 0 -48 48v67z" />
    <glyph glyph-name="Omicron" unicode="&#x39f;" horiz-adv-x="1634" 
d="M817 1424q153 0 289.5 -56t234.5 -152.5t155 -230.5t57 -285t-57 -285t-155 -230.5t-234.5 -152.5t-289.5 -56t-289.5 56t-234.5 152.5t-155 230.5t-57 285t57 285t155 230.5t234.5 152.5t289.5 56zM817 142q228 0 386.5 162t158.5 396t-158.5 396t-386.5 162
t-386.5 -162t-158.5 -396t158.5 -396t386.5 -162z" />
    <glyph glyph-name="Pi" unicode="&#x3a0;" horiz-adv-x="1349" 
d="M1181 48q0 -48 -48 -48h-92q-48 0 -48 48v1189h-637v-1189q0 -48 -48 -48h-92q-48 0 -48 48v1304q0 48 48 48h917q48 0 48 -48v-1304z" />
    <glyph glyph-name="Rho" unicode="&#x3a1;" horiz-adv-x="1170" 
d="M356 528v-480q0 -48 -48 -48h-92q-48 0 -48 48v1304q0 48 48 48h399q222 0 351.5 -118.5t129.5 -317.5t-129.5 -317.5t-351.5 -118.5h-259zM905 964q0 126 -78.5 199.5t-218.5 73.5h-252v-546h252q140 0 218.5 73.5t78.5 199.5z" />
    <glyph glyph-name="Sigma" unicode="&#x3a3;" horiz-adv-x="1159" 
d="M540 702l-398 512q-20 27 -20 59v79q0 48 48 48h819q48 0 48 -48v-67q0 -48 -48 -48h-637l369 -472q21 -27 21 -59v-10q0 -32 -21 -59l-371 -474h639q48 0 48 -48v-67q0 -48 -48 -48h-819q-48 0 -48 48v79q0 32 20 59z" />
    <glyph glyph-name="Tau" unicode="&#x3a4;" horiz-adv-x="1098" 
d="M455 1237h-345q-48 0 -48 48v67q0 48 48 48h878q48 0 48 -48v-67q0 -48 -48 -48h-345v-1189q0 -48 -48 -48h-92q-48 0 -48 48v1189z" />
    <glyph glyph-name="Upsilon" unicode="&#x3a5;" horiz-adv-x="1286" 
d="M643 758l373 610q19 32 58 32h97q29 0 38.5 -16.5t-5.5 -41.5l-467 -768v-526q0 -48 -48 -48h-92q-48 0 -48 48v526l-467 768q-15 25 -5.5 41.5t38.5 16.5h97q39 0 58 -32z" />
    <glyph glyph-name="Phi" unicode="&#x3a6;" horiz-adv-x="1516" 
d="M712 0q-48 0 -48 48v144q-161 0 -296.5 66.5t-214.5 183t-79 256.5t79 256.5t214.5 183t296.5 66.5v148q0 48 48 48h92q48 0 48 -48v-148q161 0 296.5 -66.5t214.5 -183t79 -256.5t-79 -256.5t-214.5 -183t-296.5 -66.5v-144q0 -48 -48 -48h-92zM664 1041
q-167 0 -283 -100.5t-116 -242.5t116 -242.5t283 -100.5v686zM852 355q167 0 283 100.5t116 242.5t-116 242.5t-283 100.5v-686z" />
    <glyph glyph-name="Chi" unicode="&#x3a7;" horiz-adv-x="1260" 
d="M109 0q-29 0 -38 17t7 41l440 654l-422 630q-16 24 -7 41t38 17h99q38 0 58 -31l346 -520l346 520q20 31 58 31h99q29 0 38 -17t-7 -41l-422 -630l440 -654q16 -24 7 -41t-38 -17h-99q-38 0 -58 31l-364 544l-364 -544q-20 -31 -58 -31h-99z" />
    <glyph glyph-name="Psi" unicode="&#x3a8;" horiz-adv-x="1382" 
d="M785 497q122 29 199 128t77 240v487q0 48 48 48h92q48 0 48 -48v-496q0 -206 -131 -354t-333 -178v-276q0 -48 -48 -48h-92q-48 0 -48 48v276q-202 30 -333 178t-131 354v496q0 48 48 48h92q48 0 48 -48v-487q0 -141 77 -240t199 -128v855q0 48 48 48h92q48 0 48 -48
v-855z" />
    <glyph glyph-name="uni03A9" unicode="&#x3a9;" horiz-adv-x="1588" 
d="M1305 733q0 220 -148.5 372.5t-362.5 152.5t-362.5 -152.5t-148.5 -372.5q0 -169 91.5 -314t268.5 -241q35 -19 35 -57v-73q0 -48 -48 -48h-474q-48 0 -48 48v70q0 48 48 48h288q-174 106 -263 254.5t-89 327.5q0 139 54.5 264t148 215.5t224 143.5t275.5 53t275.5 -53
t224 -143.5t148 -215.5t54.5 -264q0 -179 -89 -327.5t-263 -254.5h288q48 0 48 -48v-70q0 -48 -48 -48h-474q-48 0 -48 48v73q0 37 43 62q172 96 262 240t90 310z" />
    <glyph glyph-name="Iotadieresis" unicode="&#x3aa;" horiz-adv-x="570" 
d="M-7 1664q0 47 32.5 80t80.5 33t80.5 -33t32.5 -80q0 -48 -32.5 -80.5t-80.5 -32.5t-80.5 32.5t-32.5 80.5zM351 1664q0 47 32.5 80t80.5 33t80.5 -33t32.5 -80q0 -48 -32.5 -80.5t-80.5 -32.5t-80.5 32.5t-32.5 80.5zM331 1400q48 0 48 -48v-1304q0 -48 -48 -48h-92
q-48 0 -48 48v1304q0 48 48 48h92z" />
    <glyph glyph-name="Upsilondieresis" unicode="&#x3ab;" horiz-adv-x="1286" 
d="M351 1664q0 47 32.5 80t80.5 33t80.5 -33t32.5 -80q0 -48 -32.5 -80.5t-80.5 -32.5t-80.5 32.5t-32.5 80.5zM709 1664q0 47 32.5 80t80.5 33t80.5 -33t32.5 -80q0 -48 -32.5 -80.5t-80.5 -32.5t-80.5 32.5t-32.5 80.5zM643 758l373 610q19 32 58 32h97q29 0 38.5 -16.5
t-5.5 -41.5l-467 -768v-526q0 -48 -48 -48h-92q-48 0 -48 48v526l-467 768q-15 25 -5.5 41.5t38.5 16.5h97q39 0 58 -32z" />
    <glyph glyph-name="alphatonos" unicode="&#x3ac;" horiz-adv-x="1378" 
d="M727 1516q32 38 68 5l46 -42q37 -33 2 -68l-221 -221q-32 -32 -67 -3l-20 17q-36 30 -7 67zM74 518q0 149 65.5 273t183 197t262.5 73q116 0 215 -48.5t169 -133.5v109q0 48 48 48h86q48 0 48 -48v-716q0 -112 109 -112h5q48 0 48 -48v-62q0 -47 -43 -49q-16 -1 -44 -1
q-201 0 -246 172q-69 -92 -171.5 -144t-223.5 -52q-145 0 -262.5 72.5t-183 196.5t-65.5 273zM259 518q0 -158 102.5 -268t254.5 -110q151 0 252 110t101 268q0 159 -99.5 269t-253.5 110q-155 0 -256 -110t-101 -269z" />
    <glyph glyph-name="epsilontonos" unicode="&#x3ad;" horiz-adv-x="949" 
d="M567 1516q32 38 68 5l46 -42q37 -33 2 -68l-221 -221q-32 -32 -67 -3l-20 17q-36 30 -7 67zM255 307q0 -73 68 -123.5t167 -50.5q141 0 238 94q33 33 67 6l39 -31q37 -31 8 -68q-133 -158 -352 -158q-176 0 -296.5 92t-120.5 227q0 94 64 167t155 98q-83 27 -130 87.5
t-47 133.5q0 118 106 198.5t263 80.5q144 0 244.5 -67.5t136.5 -184.5q7 -24 -4.5 -38.5t-37.5 -14.5h-78q-37 0 -55 38q-56 110 -206 110q-80 0 -133.5 -39t-53.5 -96q0 -58 53.5 -96.5t133.5 -38.5h106q48 0 48 -48v-55q0 -48 -48 -48h-100q-100 0 -167.5 -50.5
t-67.5 -124.5z" />
    <glyph glyph-name="etatonos" unicode="&#x3ae;" horiz-adv-x="1207" 
d="M733 1516q32 38 68 5l46 -42q37 -33 2 -68l-221 -221q-32 -32 -67 -3l-20 17q-36 30 -7 67zM328 48q0 -48 -48 -48h-86q-48 0 -48 48v940q0 48 48 48h86q48 0 48 -48v-111q52 81 141 132t195 51q191 0 304 -114t113 -309v-1053q0 -48 -48 -48h-86q-48 0 -48 48v1043
q0 125 -71.5 197.5t-197.5 72.5q-121 0 -211.5 -93.5t-90.5 -226.5v-529z" />
    <glyph glyph-name="iotatonos" unicode="&#x3af;" horiz-adv-x="549" 
d="M390 1516q32 38 68 5l46 -42q37 -33 2 -68l-221 -221q-32 -32 -67 -3l-20 17q-36 30 -7 67zM170 988q0 48 48 48h86q48 0 48 -48v-716q0 -112 109 -112q43 0 43 -48v-62q0 -47 -38 -49q-13 -1 -39 -1q-257 0 -257 225v763z" />
    <glyph glyph-name="upsilondieresistonos" unicode="&#x3b0;" horiz-adv-x="1140" 
d="M692 1737q32 38 68 5l46 -42q37 -33 2 -68l-221 -221q-32 -32 -67 -3l-20 17q-36 30 -7 67zM272 1274q0 50 34 83.5t85 33.5t85 -33.5t34 -83.5t-34 -83.5t-85 -33.5t-85 33.5t-34 83.5zM630 1274q0 50 34 83.5t85 33.5t85 -33.5t34 -83.5t-34 -83.5t-85 -33.5t-85 33.5
t-34 83.5zM570 -24q-187 0 -315.5 124t-128.5 305v583q0 48 48 48h86q48 0 48 -48v-574q0 -117 75.5 -196t186.5 -79t186.5 79t75.5 196v574q0 48 48 48h86q48 0 48 -48v-583q0 -181 -128.5 -305t-315.5 -124z" />
    <glyph glyph-name="alpha" unicode="&#x3b1;" horiz-adv-x="1378" 
d="M74 518q0 149 65.5 273t183 197t262.5 73q116 0 215 -48.5t169 -133.5v109q0 48 48 48h86q48 0 48 -48v-716q0 -112 109 -112h5q48 0 48 -48v-62q0 -47 -43 -49q-16 -1 -44 -1q-201 0 -246 172q-69 -92 -171.5 -144t-223.5 -52q-145 0 -262.5 72.5t-183 196.5t-65.5 273z
M259 518q0 -158 102.5 -268t254.5 -110q151 0 252 110t101 268q0 159 -99.5 269t-253.5 110q-155 0 -256 -110t-101 -269z" />
    <glyph glyph-name="beta" unicode="&#x3b2;" horiz-adv-x="1200" 
d="M458 134q13 46 61 29q71 -27 161 -27q119 0 189.5 85t70.5 213q0 124 -89 211t-221 87q-24 0 -43 -4q-42 -6 -64 22l-24 31q-24 31 -5 66l211 390h-362v-1652q0 -48 -48 -48h-92q-48 0 -48 48v1767q0 48 48 48h658q48 0 48 -48v-83q0 -33 -15 -60l-198 -358
q184 0 306.5 -123.5t122.5 -310.5q0 -85 -28 -163t-80.5 -140.5t-138.5 -100t-192 -37.5q-114 0 -215 58q-36 20 -24 62z" />
    <glyph glyph-name="gamma" unicode="&#x3b3;" horiz-adv-x="1050" 
d="M434 1l-385 979q-10 25 0.5 40.5t37.5 15.5h89q41 0 56 -38l293 -763l293 763q15 38 56 38h89q27 0 37.5 -15.5t0.5 -40.5l-385 -979v-417q0 -48 -48 -48h-86q-48 0 -48 48v417z" />
    <glyph glyph-name="delta" unicode="&#x3b4;" horiz-adv-x="1124" 
d="M71 444q0 100 39.5 186t106 144.5t155.5 92t187 33.5l-325 322q-25 25 -25 59v71q0 48 48 48h620q48 0 48 -48v-67q0 -48 -48 -48h-434l481 -479q61 -61 94.5 -144t33.5 -170q0 -100 -40.5 -188t-108 -149t-157.5 -96t-187 -35q-95 0 -184 35t-156 96t-107.5 149
t-40.5 188zM256 444q0 -130 89.5 -219t216.5 -89t216 89t89 219q0 129 -89 218.5t-216 89.5t-216.5 -89.5t-89.5 -218.5z" />
    <glyph glyph-name="epsilon" unicode="&#x3b5;" horiz-adv-x="949" 
d="M255 307q0 -73 68 -123.5t167 -50.5q141 0 238 94q33 33 67 6l39 -31q37 -31 8 -68q-133 -158 -352 -158q-176 0 -296.5 92t-120.5 227q0 94 64 167t155 98q-83 27 -130 87.5t-47 133.5q0 118 106 198.5t263 80.5q144 0 244.5 -67.5t136.5 -184.5q7 -24 -4.5 -38.5
t-37.5 -14.5h-78q-37 0 -55 38q-56 110 -206 110q-80 0 -133.5 -39t-53.5 -96q0 -58 53.5 -96.5t133.5 -38.5h106q48 0 48 -48v-55q0 -48 -48 -48h-100q-100 0 -167.5 -50.5t-67.5 -124.5z" />
    <glyph glyph-name="zeta" unicode="&#x3b6;" horiz-adv-x="934" 
d="M74 370q0 95 47 183.5t133 192.5l403 491h-436q-48 0 -48 48v67q0 48 48 48h601q48 0 48 -48v-72q0 -35 -21 -60l-453 -558q-67 -82 -104.5 -152t-37.5 -140q0 -148 186 -231l236 -105q192 -85 192 -255q0 -104 -66 -212q-18 -31 -57 -31h-77q-29 0 -37.5 16t6.5 41
q50 84 50 160q0 49 -34 88t-89 63l-221 95q-129 56 -199 152t-70 219z" />
    <glyph glyph-name="eta" unicode="&#x3b7;" horiz-adv-x="1207" 
d="M328 48q0 -48 -48 -48h-86q-48 0 -48 48v940q0 48 48 48h86q48 0 48 -48v-111q52 81 141 132t195 51q191 0 304 -114t113 -309v-1053q0 -48 -48 -48h-86q-48 0 -48 48v1043q0 125 -71.5 197.5t-197.5 72.5q-121 0 -211.5 -93.5t-90.5 -226.5v-529z" />
    <glyph glyph-name="theta" unicode="&#x3b8;" horiz-adv-x="1274" 
d="M74 700q0 147 41 279.5t114 231t179 156t229 57.5t229 -57.5t179 -156t114 -231t41 -279.5t-41 -279.5t-114 -231t-179 -156t-229 -57.5t-229 57.5t-179 156t-114 231t-41 279.5zM637 1261q-150 0 -253.5 -138.5t-120.5 -344.5h748q-17 206 -120.5 344.5t-253.5 138.5z
M637 139q150 0 253.5 138.5t120.5 343.5h-748q17 -205 120.5 -343.5t253.5 -138.5z" />
    <glyph glyph-name="iota" unicode="&#x3b9;" horiz-adv-x="549" 
d="M170 988q0 48 48 48h86q48 0 48 -48v-716q0 -112 109 -112q43 0 43 -48v-62q0 -47 -38 -49q-13 -1 -39 -1q-257 0 -257 225v763z" />
    <glyph glyph-name="kappa" unicode="&#x3ba;" horiz-adv-x="1029" 
d="M889 1036q50 0 48 -49q-9 -159 -74 -274t-174 -170l297 -485q15 -25 5.5 -41.5t-38.5 -16.5h-104q-39 0 -58 32l-282 465h-181v-449q0 -48 -48 -48h-86q-48 0 -48 48v940q0 48 48 48h86q48 0 48 -48v-334h120q130 0 212.5 85t93.5 249q5 48 49 48h86z" />
    <glyph glyph-name="lambda" unicode="&#x3bb;" horiz-adv-x="1050" 
d="M280 1404q-10 25 0.5 40.5t37.5 15.5h90q40 0 55 -38l538 -1366q10 -25 -0.5 -40.5t-37.5 -15.5h-90q-40 0 -55 38l-295 745l-291 -745q-15 -38 -55 -38h-90q-27 0 -37.5 15.5t-0.5 40.5l384 960z" />
    <glyph glyph-name="uni03BC" unicode="&#x3bc;" horiz-adv-x="1227" 
d="M899 989q0 48 48 48h86q48 0 48 -48v-940q0 -48 -48 -48h-86q-48 0 -48 48v111q-52 -81 -141 -132t-195 -51q-137 0 -235 60v-453q0 -48 -48 -48h-86q-48 0 -48 48v1405q0 48 48 48h86q48 0 48 -48v-592q0 -118 72.5 -187.5t196.5 -69.5q121 0 211.5 93.5t90.5 226.5v529
z" />
    <glyph glyph-name="nu" unicode="&#x3bd;" horiz-adv-x="1046" 
d="M632 38q-15 -38 -56 -38h-106q-41 0 -56 38l-365 943q-10 25 0.5 40t37.5 15h89q41 0 56 -38l291 -760l291 760q15 38 56 38h89q27 0 37.5 -15t0.5 -40z" />
    <glyph glyph-name="xi" unicode="&#x3be;" horiz-adv-x="944" 
d="M263 376q0 -191 215 -271l189 -70q101 -37 157.5 -103.5t56.5 -153.5q0 -102 -71 -212q-19 -30 -58 -30h-75q-29 0 -37 16t7 41q54 88 54 159q0 101 -126 147l-181 65q-146 53 -229 164t-83 241q0 132 82.5 240.5t210.5 155.5q-103 39 -167 123.5t-64 187.5
q0 147 113 247.5t278 100.5q150 0 251 -74.5t130 -203.5q5 -24 -7 -38t-37 -14h-80q-38 0 -53 42q-23 62 -80 99.5t-124 37.5q-89 0 -149 -62t-60 -154t60 -154t149 -62h168q48 0 48 -48v-55q0 -48 -48 -48h-133q-130 0 -218.5 -90.5t-88.5 -223.5z" />
    <glyph glyph-name="omicron" unicode="&#x3bf;" horiz-adv-x="1268" 
d="M634 1060q158 0 287 -73t201 -197t72 -272t-72 -272t-201 -197t-287 -73t-287 73t-201 197t-72 272t72 272t201 197t287 73zM634 139q158 0 266.5 110.5t108.5 268.5t-108.5 268.5t-266.5 110.5t-266.5 -110.5t-108.5 -268.5t108.5 -268.5t266.5 -110.5z" />
    <glyph glyph-name="pi" unicode="&#x3c0;" horiz-adv-x="1142" 
d="M389 48q0 -48 -48 -48h-86q-48 0 -48 48v825h-109q-48 0 -48 48v67q0 48 48 48h946q48 0 48 -48v-67q0 -48 -48 -48h-109v-825q0 -48 -48 -48h-86q-48 0 -48 48v825h-364v-825z" />
    <glyph glyph-name="rho" unicode="&#x3c1;" horiz-adv-x="1282" 
d="M683 -24q-115 0 -211.5 48t-163.5 133v-573q0 -48 -48 -48h-86q-48 0 -48 48v934q0 150 69 273.5t193.5 196t279.5 72.5q154 0 278 -72.5t193 -196t69 -273.5q0 -147 -67.5 -271t-188.5 -197.5t-269 -73.5zM308 386q37 -112 132 -179.5t213 -67.5q156 0 263 109.5
t107 269.5t-102 269.5t-255 109.5q-154 0 -256 -109.5t-102 -269.5v-132z" />
    <glyph glyph-name="uni03C2" unicode="&#x3c2;" horiz-adv-x="1075" 
d="M74 518q0 148 72 272t201 197t287 73q192 0 341 -109q36 -27 11 -66l-42 -63q-28 -40 -67 -10q-115 85 -243 85q-158 0 -266.5 -110.5t-108.5 -268.5q0 -123 65.5 -218t189.5 -148l276 -119q190 -82 190 -254q0 -104 -72 -213q-19 -30 -58 -30h-74q-29 0 -37 16t8 41
q52 87 52 160q0 98 -121 149l-259 110q-159 67 -252 199.5t-93 306.5z" />
    <glyph glyph-name="sigma" unicode="&#x3c3;" horiz-adv-x="1311" 
d="M74 506q0 146 72.5 267.5t198.5 192t277 70.5h591q48 0 48 -48v-67q0 -48 -48 -48h-236q89 -66 141 -166.5t52 -215.5q0 -140 -72.5 -258.5t-199 -187.5t-276.5 -69q-151 0 -277 70.5t-198.5 192t-72.5 267.5zM985 506q0 155 -105 261t-258 106t-258 -106t-105 -261
t105 -261t258 -106t258 106t105 261z" />
    <glyph glyph-name="tau" unicode="&#x3c4;" horiz-adv-x="980" 
d="M388 873h-290q-48 0 -48 48v67q0 48 48 48h784q48 0 48 -48v-67q0 -48 -48 -48h-312v-559q0 -85 34 -121t107 -36h9q48 0 48 -48v-62q0 -47 -39 -49q-13 -1 -39 -1q-158 0 -230 72.5t-72 237.5v566z" />
    <glyph glyph-name="upsilon" unicode="&#x3c5;" horiz-adv-x="1140" 
d="M570 -24q-187 0 -315.5 124t-128.5 305v583q0 48 48 48h86q48 0 48 -48v-574q0 -117 75.5 -196t186.5 -79t186.5 79t75.5 196v574q0 48 48 48h86q48 0 48 -48v-583q0 -181 -128.5 -305t-315.5 -124z" />
    <glyph glyph-name="phi" unicode="&#x3c6;" horiz-adv-x="1388" 
d="M362 858q34 -31 2 -68q-105 -123 -105 -272t98.5 -255.5t245.5 -120.5v870q0 48 48 48h93q161 0 292 -72t204.5 -196.5t73.5 -273.5q0 -219 -150.5 -373t-378.5 -167v-394q0 -48 -48 -48h-86q-48 0 -48 48v394q-228 13 -378.5 167t-150.5 373q0 115 44 216t118 176
q32 32 67 0zM1129 518q0 149 -98.5 255.5t-245.5 120.5v-752q147 14 245.5 120.5t98.5 255.5z" />
    <glyph glyph-name="chi" unicode="&#x3c7;" horiz-adv-x="1028" 
d="M861 -464q-40 0 -57 34l-290 559l-290 -559q-17 -34 -57 -34h-93q-28 0 -37.5 16t3.5 41l370 712l-350 674q-13 25 -3.5 41t37.5 16h93q40 0 57 -34l270 -523l270 523q17 34 57 34h93q28 0 37.5 -16t-3.5 -41l-350 -674l370 -712q13 -25 3.5 -41t-37.5 -16h-93z" />
    <glyph glyph-name="psi" unicode="&#x3c8;" horiz-adv-x="1369" 
d="M777 152q124 26 202.5 122.5t78.5 226.5v487q0 48 48 48h89q48 0 48 -48v-495q0 -195 -132 -338t-334 -171v-400q0 -48 -48 -48h-89q-48 0 -48 48v400q-202 28 -334 171t-132 338v495q0 48 48 48h89q48 0 48 -48v-487q0 -130 78.5 -226.5t202.5 -122.5v836q0 48 48 48h89
q48 0 48 -48v-836z" />
    <glyph glyph-name="omega" unicode="&#x3c9;" horiz-adv-x="1588" 
d="M794 207q-45 -101 -129.5 -166t-191.5 -65q-111 0 -202.5 70t-144 192t-52.5 270q0 233 158 496q19 32 58 32h78q28 0 37.5 -16t-4.5 -41q-142 -257 -142 -471q0 -157 65 -263t161 -106q90 0 154 97t64 234v300q0 48 48 48h86q48 0 48 -48v-300q0 -137 64 -234t154 -97
q96 0 161 106t65 263q0 214 -142 471q-14 25 -4.5 41t37.5 16h78q39 0 58 -32q158 -263 158 -496q0 -148 -52.5 -270t-144 -192t-202.5 -70q-107 0 -191.5 65t-129.5 166z" />
    <glyph glyph-name="iotadieresis" unicode="&#x3ca;" horiz-adv-x="549" 
d="M-31 1340q0 47 32.5 80t80.5 33t80.5 -33t32.5 -80q0 -48 -32.5 -80.5t-80.5 -32.5t-80.5 32.5t-32.5 80.5zM327 1340q0 47 32.5 80t80.5 33t80.5 -33t32.5 -80q0 -48 -32.5 -80.5t-80.5 -32.5t-80.5 32.5t-32.5 80.5zM170 988q0 48 48 48h86q48 0 48 -48v-716
q0 -112 109 -112q43 0 43 -48v-62q0 -47 -38 -49q-13 -1 -39 -1q-257 0 -257 225v763z" />
    <glyph glyph-name="upsilondieresis" unicode="&#x3cb;" horiz-adv-x="1140" 
d="M278 1340q0 47 32.5 80t80.5 33t80.5 -33t32.5 -80q0 -48 -32.5 -80.5t-80.5 -32.5t-80.5 32.5t-32.5 80.5zM636 1340q0 47 32.5 80t80.5 33t80.5 -33t32.5 -80q0 -48 -32.5 -80.5t-80.5 -32.5t-80.5 32.5t-32.5 80.5zM570 -24q-187 0 -315.5 124t-128.5 305v583
q0 48 48 48h86q48 0 48 -48v-574q0 -117 75.5 -196t186.5 -79t186.5 79t75.5 196v574q0 48 48 48h86q48 0 48 -48v-583q0 -181 -128.5 -305t-315.5 -124z" />
    <glyph glyph-name="omicrontonos" unicode="&#x3cc;" horiz-adv-x="1268" 
d="M758 1516q32 38 68 5l46 -42q37 -33 2 -68l-221 -221q-32 -32 -67 -3l-20 17q-36 30 -7 67zM634 1060q158 0 287 -73t201 -197t72 -272t-72 -272t-201 -197t-287 -73t-287 73t-201 197t-72 272t72 272t201 197t287 73zM634 139q158 0 266.5 110.5t108.5 268.5
t-108.5 268.5t-266.5 110.5t-266.5 -110.5t-108.5 -268.5t108.5 -268.5t266.5 -110.5z" />
    <glyph glyph-name="upsilontonos" unicode="&#x3cd;" horiz-adv-x="1140" 
d="M682 1516q32 38 68 5l46 -42q37 -33 2 -68l-221 -221q-32 -32 -67 -3l-20 17q-36 30 -7 67zM570 -24q-187 0 -315.5 124t-128.5 305v583q0 48 48 48h86q48 0 48 -48v-574q0 -117 75.5 -196t186.5 -79t186.5 79t75.5 196v574q0 48 48 48h86q48 0 48 -48v-583
q0 -181 -128.5 -305t-315.5 -124z" />
    <glyph glyph-name="omegatonos" unicode="&#x3ce;" horiz-adv-x="1588" 
d="M925 1516q32 38 68 5l46 -42q37 -33 2 -68l-221 -221q-32 -32 -67 -3l-20 17q-36 30 -7 67zM794 207q-45 -101 -129.5 -166t-191.5 -65q-111 0 -202.5 70t-144 192t-52.5 270q0 233 158 496q19 32 58 32h78q28 0 37.5 -16t-4.5 -41q-142 -257 -142 -471q0 -157 65 -263
t161 -106q90 0 154 97t64 234v300q0 48 48 48h86q48 0 48 -48v-300q0 -137 64 -234t154 -97q96 0 161 106t65 263q0 214 -142 471q-14 25 -4.5 41t37.5 16h78q39 0 58 -32q158 -263 158 -496q0 -148 -52.5 -270t-144 -192t-202.5 -70q-107 0 -191.5 65t-129.5 166z" />
    <glyph glyph-name="uni0400" unicode="&#x400;" horiz-adv-x="1129" 
d="M686 1595q29 -37 -7 -68l-20 -17q-34 -29 -67 4l-221 221q-35 35 2 68l46 42q36 33 68 -5zM168 1352q0 48 48 48h731q48 0 48 -48v-67q0 -48 -48 -48h-591v-452h540q48 0 48 -48v-67q0 -48 -48 -48h-540v-459h609q48 0 48 -48v-67q0 -48 -48 -48h-749q-48 0 -48 48v1304z
" />
    <glyph glyph-name="uni0401" unicode="&#x401;" horiz-adv-x="1129" 
d="M288 1664q0 47 32.5 80t80.5 33t80.5 -33t32.5 -80q0 -48 -32.5 -80.5t-80.5 -32.5t-80.5 32.5t-32.5 80.5zM646 1664q0 47 32.5 80t80.5 33t80.5 -33t32.5 -80q0 -48 -32.5 -80.5t-80.5 -32.5t-80.5 32.5t-32.5 80.5zM168 1352q0 48 48 48h731q48 0 48 -48v-67
q0 -48 -48 -48h-591v-452h540q48 0 48 -48v-67q0 -48 -48 -48h-540v-459h609q48 0 48 -48v-67q0 -48 -48 -48h-749q-48 0 -48 48v1304z" />
    <glyph glyph-name="uni0402" unicode="&#x402;" horiz-adv-x="1425" 
d="M642 717q52 83 134 133t177 50q179 0 288 -114.5t109 -308.5v-89q0 -165 -116 -278.5t-286 -113.5q-23 0 -35 1q-46 2 -46 49v63q0 47 30 47h30q100 0 167.5 68.5t67.5 169.5v73q0 126 -62.5 198t-180.5 72q-114 0 -195.5 -92.5t-81.5 -227.5v-369q0 -48 -48 -48h-92
q-48 0 -48 48v1189h-344q-48 0 -48 48v67q0 48 48 48h877q48 0 48 -48v-67q0 -48 -48 -48h-345v-520z" />
    <glyph glyph-name="uni0403" unicode="&#x403;" horiz-adv-x="1029" 
d="M700 1881q32 38 68 5l46 -42q37 -33 2 -68l-221 -221q-32 -32 -67 -3l-20 17q-36 30 -7 67zM168 1352q0 48 48 48h718q48 0 48 -48v-67q0 -48 -48 -48h-578v-1189q0 -48 -48 -48h-92q-48 0 -48 48v1304z" />
    <glyph glyph-name="uni0404" unicode="&#x404;" horiz-adv-x="1517" 
d="M81 700q0 156 55 292t149.5 230t223.5 148t273 54q234 0 403.5 -117.5t235.5 -321.5q8 -24 -3.5 -39t-37.5 -15h-98q-38 0 -55 39q-55 137 -174.5 212.5t-264.5 75.5q-92 0 -177.5 -31t-156 -89.5t-118 -151t-60.5 -205.5h674q48 0 48 -48v-67q0 -48 -48 -48h-674
q13 -113 60.5 -205t117.5 -150.5t155.5 -89.5t177.5 -31q146 0 270.5 69.5t206.5 188.5q29 39 67 13l47 -33q39 -28 15 -67q-105 -168 -261 -252.5t-350 -84.5q-144 0 -273 54t-223.5 148t-149.5 230t-55 292z" />
    <glyph glyph-name="uni0405" unicode="&#x405;" horiz-adv-x="1176" 
d="M189 292q33 36 68 1q156 -151 332 -151q138 0 224 63.5t86 167.5q0 99 -78 167t-255 105q-214 45 -323.5 147t-109.5 253q0 168 123.5 273.5t320.5 105.5q86 0 165.5 -21.5t146.5 -62.5t111.5 -109.5t54.5 -154.5q3 -24 -9.5 -37t-36.5 -13h-96q-42 0 -50 46
q-17 89 -92.5 137.5t-184.5 48.5q-116 0 -189 -56t-73 -144q0 -95 79 -158t242 -100q234 -53 339.5 -158t105.5 -268q0 -177 -133.5 -287.5t-358.5 -110.5q-129 0 -243 56.5t-202 154.5q-30 33 1 67z" />
    <glyph glyph-name="uni0406" unicode="&#x406;" horiz-adv-x="570" 
d="M331 1400q48 0 48 -48v-1304q0 -48 -48 -48h-92q-48 0 -48 48v1304q0 48 48 48h92z" />
    <glyph glyph-name="uni0407" unicode="&#x407;" horiz-adv-x="570" 
d="M-7 1664q0 47 32.5 80t80.5 33t80.5 -33t32.5 -80q0 -48 -32.5 -80.5t-80.5 -32.5t-80.5 32.5t-32.5 80.5zM351 1664q0 47 32.5 80t80.5 33t80.5 -33t32.5 -80q0 -48 -32.5 -80.5t-80.5 -32.5t-80.5 32.5t-32.5 80.5zM331 1400q48 0 48 -48v-1304q0 -48 -48 -48h-92
q-48 0 -48 48v1304q0 48 48 48h92z" />
    <glyph glyph-name="uni0408" unicode="&#x408;" horiz-adv-x="909" 
d="M566 1352q0 48 48 48h92q48 0 48 -48v-921q0 -455 -428 -455q-121 0 -234 67q-35 22 -20 64l19 49q16 44 63 24q86 -38 168 -38q244 0 244 289v921z" />
    <glyph glyph-name="uni0409" unicode="&#x409;" horiz-adv-x="2004" 
d="M1058 0q-48 0 -48 48v1189h-569v-909q0 -332 -316 -332q-21 0 -32 1q-46 2 -46 49v66q0 47 30 47h30q73 0 109.5 39t36.5 128v1026q0 48 48 48h849q48 0 48 -48v-460h243q223 0 356 -123t133 -323t-133 -323t-356 -123h-383zM1434 163q142 0 224 77.5t82 205.5t-82 205.5
t-224 77.5h-236v-566h236z" />
    <glyph glyph-name="uni040A" unicode="&#x40a;" horiz-adv-x="2015" 
d="M168 1352q0 48 48 48h92q48 0 48 -48v-567h664v567q0 48 48 48h92q48 0 48 -48v-460h244q223 0 356 -123t133 -323t-133 -323t-356 -123h-384q-48 0 -48 48v574h-664v-574q0 -48 -48 -48h-92q-48 0 -48 48v1304zM1444 163q142 0 224.5 77.5t82.5 205.5t-82.5 205.5
t-224.5 77.5h-236v-566h236z" />
    <glyph glyph-name="uni040B" unicode="&#x40b;" horiz-adv-x="1476" 
d="M642 48q0 -48 -48 -48h-91q-48 0 -48 48v1189h-345q-48 0 -48 48v67q0 48 48 48h877q48 0 48 -48v-67q0 -48 -48 -48h-345v-520q52 83 134 133t177 50q179 0 288 -114.5t109 -308.5v-429q0 -48 -48 -48h-92q-48 0 -48 48v419q0 126 -62.5 198t-180.5 72
q-114 0 -195.5 -92.5t-81.5 -227.5v-369z" />
    <glyph glyph-name="uni040C" unicode="&#x40c;" horiz-adv-x="1201" 
d="M692 1840q32 38 68 5l46 -42q37 -33 2 -68l-221 -221q-32 -32 -67 -3l-20 17q-36 30 -7 67zM356 785h70q227 0 345 133.5t127 431.5q2 49 49 49h92q49 0 47 -49q-13 -520 -328 -669l403 -623q16 -25 7 -41.5t-38 -16.5h-115q-37 0 -57 32l-382 597q-50 -7 -112 -7h-108
v-574q0 -48 -48 -48h-92q-48 0 -48 48v1304q0 48 48 48h92q48 0 48 -48v-567z" />
    <glyph glyph-name="uni040D" unicode="&#x40d;" horiz-adv-x="1399" 
d="M806 1595q29 -37 -7 -68l-20 -17q-34 -29 -67 4l-221 221q-35 35 2 68l46 42q36 33 68 -5zM1231 48q0 -48 -48 -48h-86q-48 0 -48 48v1026l-680 -1043q-20 -31 -57 -31h-96q-48 0 -48 48v1304q0 48 48 48h86q48 0 48 -48v-1026l680 1043q20 31 57 31h96q48 0 48 -48
v-1304z" />
    <glyph glyph-name="uni040E" unicode="&#x40e;" horiz-adv-x="1286" 
d="M648 1490q-118 0 -207 72t-112 186q-5 24 7.5 37.5t36.5 13.5h66q40 0 51 -44q15 -58 57 -93.5t101 -35.5t101 35.5t57 93.5q11 44 51 44h66q25 0 37 -14t7 -38q-24 -114 -112.5 -185.5t-206.5 -71.5zM550 410l-474 933q-13 25 -3 41t38 16h95q40 0 57 -35l385 -765
l376 765q17 35 56 35h96q28 0 37.5 -16t-2.5 -41l-574 -1154q-94 -189 -287 -189h-96q-48 0 -48 48v67q0 48 48 48h72q97 0 149 101z" />
    <glyph glyph-name="uni040F" unicode="&#x40f;" horiz-adv-x="1350" 
d="M1182 48q0 -48 -48 -48h-365v-232q0 -48 -48 -48h-92q-48 0 -48 48v232h-365q-48 0 -48 48v1304q0 48 48 48h92q48 0 48 -48v-1189h638v1189q0 48 48 48h92q48 0 48 -48v-1304z" />
    <glyph glyph-name="uni0410" unicode="&#x410;" horiz-adv-x="1362" 
d="M1150 0q-42 0 -55 39l-116 322h-596l-116 -322q-13 -39 -55 -39h-105q-26 0 -36.5 15t-1.5 40l493 1307q15 38 55 38h128q40 0 55 -38l493 -1307q9 -25 -1.5 -40t-36.5 -15h-105zM923 524l-242 668l-242 -668h484z" />
    <glyph glyph-name="uni0411" unicode="&#x411;" horiz-adv-x="1183" 
d="M168 1352q0 48 48 48h719q48 0 48 -48v-67q0 -48 -48 -48h-579v-345h248q223 0 356 -123t133 -323t-133 -323t-356 -123h-388q-48 0 -48 48v1304zM597 163q141 0 223 77.5t82 205.5t-82 205.5t-223 77.5h-241v-566h241z" />
    <glyph glyph-name="uni0412" unicode="&#x412;" horiz-adv-x="1235" 
d="M216 0q-48 0 -48 48v1304q0 48 48 48h444q187 0 293 -100.5t106 -270.5q0 -108 -51.5 -181.5t-137.5 -104.5q115 -25 192 -117t77 -227q0 -178 -114 -288.5t-305 -110.5h-504zM868 1020q0 102 -61 159.5t-160 57.5h-291v-433h291q100 0 160.5 57t60.5 159zM948 405
q0 110 -67.5 176t-176.5 66h-348v-484h348q109 0 176.5 66t67.5 176z" />
    <glyph glyph-name="uni0413" unicode="&#x413;" horiz-adv-x="1029" 
d="M168 1352q0 48 48 48h718q48 0 48 -48v-67q0 -48 -48 -48h-578v-1189q0 -48 -48 -48h-92q-48 0 -48 48v1304z" />
    <glyph glyph-name="uni0414" unicode="&#x414;" horiz-adv-x="1316" 
d="M1253 -232q0 -48 -48 -48h-92q-48 0 -48 48v232h-814v-232q0 -48 -48 -48h-92q-48 0 -48 48v347q0 48 48 48h60q177 413 177 1107v82q0 48 48 48h684q48 0 48 -48v-1189h77q48 0 48 -48v-347zM940 163v1074h-406q0 -287 -40.5 -572.5t-121.5 -501.5h568z" />
    <glyph glyph-name="uni0415" unicode="&#x415;" horiz-adv-x="1129" 
d="M168 1352q0 48 48 48h731q48 0 48 -48v-67q0 -48 -48 -48h-591v-452h540q48 0 48 -48v-67q0 -48 -48 -48h-540v-459h609q48 0 48 -48v-67q0 -48 -48 -48h-749q-48 0 -48 48v1304z" />
    <glyph glyph-name="uni0416" unicode="&#x416;" horiz-adv-x="1798" 
d="M993 785h40q227 0 345 133.5t127 431.5q2 49 49 49h92q49 0 47 -49q-13 -520 -328 -669l403 -623q16 -25 7 -41.5t-38 -16.5h-115q-37 0 -57 32l-382 597q-50 -7 -112 -7h-78v-574q0 -48 -48 -48h-92q-48 0 -48 48v574h-77q-63 0 -112 7l-382 -597q-20 -32 -57 -32h-115
q-29 0 -38 16.5t7 41.5l403 623q-315 148 -328 669q-2 49 47 49h92q47 0 49 -49q9 -298 127 -431.5t345 -133.5h39v567q0 48 48 48h92q48 0 48 -48v-567z" />
    <glyph glyph-name="uni0417" unicode="&#x417;" horiz-adv-x="1057" 
d="M789 411q0 120 -90 198t-235 78h-97q-48 0 -48 48v58q0 48 48 48h99q114 0 185.5 60.5t71.5 152.5q0 90 -69.5 150t-172.5 60q-172 0 -220 -137q-15 -41 -54 -41h-81q-25 0 -37 14.5t-5 38.5q38 136 144 210.5t268 74.5q177 0 291.5 -105t114.5 -261q0 -96 -57.5 -174
t-150.5 -114q125 -42 202.5 -139.5t77.5 -222.5q0 -183 -138.5 -307.5t-341.5 -124.5q-121 0 -227.5 50t-177.5 138q-27 35 5 67l51 51q35 35 68 -5q116 -141 281 -141q125 0 210 79.5t85 195.5z" />
    <glyph glyph-name="uni0418" unicode="&#x418;" horiz-adv-x="1399" 
d="M1231 48q0 -48 -48 -48h-86q-48 0 -48 48v1026l-680 -1043q-20 -31 -57 -31h-96q-48 0 -48 48v1304q0 48 48 48h86q48 0 48 -48v-1026l680 1043q20 31 57 31h96q48 0 48 -48v-1304z" />
    <glyph glyph-name="uni0419" unicode="&#x419;" horiz-adv-x="1399" 
d="M699 1490q-118 0 -207 72t-112 186q-5 24 7.5 37.5t36.5 13.5h66q40 0 51 -44q15 -58 57 -93.5t101 -35.5t101 35.5t57 93.5q11 44 51 44h66q25 0 37 -14t7 -38q-24 -114 -112.5 -185.5t-206.5 -71.5zM1231 48q0 -48 -48 -48h-86q-48 0 -48 48v1026l-680 -1043
q-20 -31 -57 -31h-96q-48 0 -48 48v1304q0 48 48 48h86q48 0 48 -48v-1026l680 1043q20 31 57 31h96q48 0 48 -48v-1304z" />
    <glyph glyph-name="uni041A" unicode="&#x41a;" horiz-adv-x="1201" 
d="M356 785h70q227 0 345 133.5t127 431.5q2 49 49 49h92q49 0 47 -49q-13 -520 -328 -669l403 -623q16 -25 7 -41.5t-38 -16.5h-115q-37 0 -57 32l-382 597q-50 -7 -112 -7h-108v-574q0 -48 -48 -48h-92q-48 0 -48 48v1304q0 48 48 48h92q48 0 48 -48v-567z" />
    <glyph glyph-name="uni041B" unicode="&#x41b;" horiz-adv-x="1403" 
d="M441 328q0 -332 -316 -332q-21 0 -32 1q-46 2 -46 49v66q0 47 30 47h30q73 0 109.5 39t36.5 128v1026q0 48 48 48h886q48 0 48 -48v-1304q0 -48 -48 -48h-92q-48 0 -48 48v1189h-606v-909z" />
    <glyph glyph-name="uni041C" unicode="&#x41c;" horiz-adv-x="1698" 
d="M892 162q-38 0 -57 33l-485 834v-981q0 -48 -48 -48h-86q-48 0 -48 48v1304q0 48 48 48h89q38 0 57 -33l537 -928l537 928q19 33 57 33h89q48 0 48 -48v-1304q0 -48 -48 -48h-86q-48 0 -48 48v981l-485 -834q-19 -33 -57 -33h-14z" />
    <glyph glyph-name="uni041D" unicode="&#x41d;" horiz-adv-x="1394" 
d="M168 1352q0 48 48 48h92q48 0 48 -48v-567h682v567q0 48 48 48h92q48 0 48 -48v-1304q0 -48 -48 -48h-92q-48 0 -48 48v574h-682v-574q0 -48 -48 -48h-92q-48 0 -48 48v1304z" />
    <glyph glyph-name="uni041E" unicode="&#x41e;" horiz-adv-x="1634" 
d="M817 1424q153 0 289.5 -56t234.5 -152.5t155 -230.5t57 -285t-57 -285t-155 -230.5t-234.5 -152.5t-289.5 -56t-289.5 56t-234.5 152.5t-155 230.5t-57 285t57 285t155 230.5t234.5 152.5t289.5 56zM817 142q228 0 386.5 162t158.5 396t-158.5 396t-386.5 162
t-386.5 -162t-158.5 -396t158.5 -396t386.5 -162z" />
    <glyph glyph-name="uni041F" unicode="&#x41f;" horiz-adv-x="1349" 
d="M1181 48q0 -48 -48 -48h-92q-48 0 -48 48v1189h-637v-1189q0 -48 -48 -48h-92q-48 0 -48 48v1304q0 48 48 48h917q48 0 48 -48v-1304z" />
    <glyph glyph-name="uni0420" unicode="&#x420;" horiz-adv-x="1170" 
d="M356 528v-480q0 -48 -48 -48h-92q-48 0 -48 48v1304q0 48 48 48h399q222 0 351.5 -118.5t129.5 -317.5t-129.5 -317.5t-351.5 -118.5h-259zM905 964q0 126 -78.5 199.5t-218.5 73.5h-252v-546h252q140 0 218.5 73.5t78.5 199.5z" />
    <glyph glyph-name="uni0421" unicode="&#x421;" horiz-adv-x="1517" 
d="M81 700q0 156 55 292t149.5 230t223.5 148t273 54q234 0 403.5 -117.5t235.5 -321.5q8 -24 -3.5 -39t-37.5 -15h-98q-38 0 -55 39q-55 137 -174.5 212.5t-264.5 75.5q-79 0 -154 -22.5t-141 -69t-115 -112t-77.5 -157t-28.5 -197.5q0 -132 43.5 -240.5t116 -176.5
t164 -104.5t191.5 -36.5q146 0 270.5 69.5t206.5 188.5q29 39 67 13l47 -33q39 -28 15 -67q-105 -168 -261 -252.5t-350 -84.5q-144 0 -273 54t-223.5 148t-149.5 230t-55 292z" />
    <glyph glyph-name="uni0422" unicode="&#x422;" horiz-adv-x="1098" 
d="M455 1237h-345q-48 0 -48 48v67q0 48 48 48h878q48 0 48 -48v-67q0 -48 -48 -48h-345v-1189q0 -48 -48 -48h-92q-48 0 -48 48v1189z" />
    <glyph glyph-name="uni0423" unicode="&#x423;" horiz-adv-x="1286" 
d="M550 410l-474 933q-13 25 -3 41t38 16h95q40 0 57 -35l385 -765l376 765q17 35 56 35h96q28 0 37.5 -16t-2.5 -41l-574 -1154q-94 -189 -287 -189h-96q-48 0 -48 48v67q0 48 48 48h72q97 0 149 101z" />
    <glyph glyph-name="uni0424" unicode="&#x424;" horiz-adv-x="1516" 
d="M712 0q-48 0 -48 48v144q-161 0 -296.5 66.5t-214.5 183t-79 256.5t79 256.5t214.5 183t296.5 66.5v148q0 48 48 48h92q48 0 48 -48v-148q161 0 296.5 -66.5t214.5 -183t79 -256.5t-79 -256.5t-214.5 -183t-296.5 -66.5v-144q0 -48 -48 -48h-92zM664 1041
q-167 0 -283 -100.5t-116 -242.5t116 -242.5t283 -100.5v686zM852 355q167 0 283 100.5t116 242.5t-116 242.5t-283 100.5v-686z" />
    <glyph glyph-name="uni0425" unicode="&#x425;" horiz-adv-x="1260" 
d="M109 0q-29 0 -38 17t7 41l440 654l-422 630q-16 24 -7 41t38 17h99q38 0 58 -31l346 -520l346 520q20 31 58 31h99q29 0 38 -17t-7 -41l-422 -630l440 -654q16 -24 7 -41t-38 -17h-99q-38 0 -58 31l-364 544l-364 -544q-20 -31 -58 -31h-99z" />
    <glyph glyph-name="uni0426" unicode="&#x426;" horiz-adv-x="1368" 
d="M1182 163h75q48 0 48 -48v-347q0 -48 -48 -48h-92q-48 0 -48 48v232h-901q-48 0 -48 48v1304q0 48 48 48h92q48 0 48 -48v-1189h638v1189q0 48 48 48h92q48 0 48 -48v-1189z" />
    <glyph glyph-name="uni0427" unicode="&#x427;" horiz-adv-x="1230" 
d="M880 1352q0 48 48 48h86q48 0 48 -48v-1304q0 -48 -48 -48h-86q-48 0 -48 48v635q-52 -81 -141 -132t-195 -51q-191 0 -304 114t-113 309v429q0 48 48 48h86q48 0 48 -48v-419q0 -125 71.5 -197.5t197.5 -72.5q121 0 211.5 93.5t90.5 226.5v369z" />
    <glyph glyph-name="uni0428" unicode="&#x428;" horiz-adv-x="1928" 
d="M1572 1352q0 48 48 48h92q48 0 48 -48v-1304q0 -48 -48 -48h-1496q-48 0 -48 48v1304q0 48 48 48h92q48 0 48 -48v-1189h514v1189q0 48 48 48h92q48 0 48 -48v-1189h514v1189z" />
    <glyph glyph-name="uni0429" unicode="&#x429;" horiz-adv-x="1945" 
d="M168 1352q0 48 48 48h92q48 0 48 -48v-1189h514v1189q0 48 48 48h92q48 0 48 -48v-1189h514v1189q0 48 48 48h92q48 0 48 -48v-1189h74q48 0 48 -48v-347q0 -48 -48 -48h-92q-48 0 -48 48v232h-1478q-48 0 -48 48v1304z" />
    <glyph glyph-name="uni042A" unicode="&#x42a;" horiz-adv-x="1416" 
d="M465 0q-48 0 -48 48v1189h-307q-48 0 -48 48v67q0 48 48 48h447q48 0 48 -48v-460h248q223 0 356 -123t133 -323t-133 -323t-356 -123h-388zM846 163q142 0 224 77.5t82 205.5t-82 205.5t-224 77.5h-241v-566h241z" />
    <glyph glyph-name="uni042B" unicode="&#x42b;" horiz-adv-x="1629" 
d="M216 0q-48 0 -48 48v1304q0 48 48 48h92q48 0 48 -48v-460h248q223 0 356 -123t133 -323t-133 -323t-356 -123h-388zM1413 1400q48 0 48 -48v-1304q0 -48 -48 -48h-92q-48 0 -48 48v1304q0 48 48 48h92zM597 163q142 0 224 77.5t82 205.5t-82 205.5t-224 77.5h-241v-566
h241z" />
    <glyph glyph-name="uni042C" unicode="&#x42c;" horiz-adv-x="1167" 
d="M216 0q-48 0 -48 48v1304q0 48 48 48h92q48 0 48 -48v-460h248q223 0 356 -123t133 -323t-133 -323t-356 -123h-388zM597 163q142 0 224 77.5t82 205.5t-82 205.5t-224 77.5h-241v-566h241z" />
    <glyph glyph-name="uni042D" unicode="&#x42d;" horiz-adv-x="1517" 
d="M1436 700q0 -156 -55 -292t-149.5 -230t-223.5 -148t-273 -54q-194 0 -350 84.5t-261 252.5q-24 38 15 66l47 34q37 27 67 -13q82 -119 206.5 -188.5t270.5 -69.5q92 0 177.5 31t155.5 89.5t117.5 150.5t60.5 205h-674q-48 0 -48 48v67q0 48 48 48h674
q-13 113 -60.5 205.5t-118 151t-156 89.5t-177.5 31q-145 0 -264.5 -75.5t-174.5 -212.5q-16 -39 -55 -39h-98q-26 0 -37.5 15t-3.5 39q66 204 235.5 321.5t403.5 117.5q144 0 273 -54t223.5 -148t149.5 -230t55 -292z" />
    <glyph glyph-name="uni042E" unicode="&#x42e;" horiz-adv-x="2112" 
d="M356 48q0 -48 -48 -48h-92q-48 0 -48 48v1304q0 48 48 48h92q48 0 48 -48v-568h208q20 181 120 327t260.5 229.5t350.5 83.5q205 0 374 -95.5t265.5 -261.5t96.5 -367t-96.5 -367t-265.5 -261.5t-374 -95.5q-143 0 -272 49t-225 134.5t-158 205t-76 256.5h-208v-573z
M1295 142q112 0 213.5 43.5t174 118t115 178t42.5 218.5t-42.5 218.5t-115 178t-174 118t-213.5 43.5q-228 0 -386.5 -162t-158.5 -396t158.5 -396t386.5 -162z" />
    <glyph glyph-name="uni042F" unicode="&#x42f;" horiz-adv-x="1200" 
d="M656 528l-349 -498q-21 -30 -58 -30h-100q-29 0 -38 17t8 41l338 482q-165 32 -259 144t-94 280q0 199 129.5 317.5t351.5 118.5h399q48 0 48 -48v-1304q0 -48 -48 -48h-92q-48 0 -48 48v480h-188zM295 964q0 -126 78.5 -199.5t218.5 -73.5h252v546h-252
q-140 0 -218.5 -73.5t-78.5 -199.5z" />
    <glyph glyph-name="uni0430" unicode="&#x430;" horiz-adv-x="1297" 
d="M74 518q0 149 65.5 273t183 197t262.5 73q116 0 215 -48.5t169 -133.5v109q0 48 48 48h86q48 0 48 -48v-940q0 -48 -48 -48h-86q-48 0 -48 48v109q-70 -85 -169 -133t-215 -48q-145 0 -262.5 72.5t-183 196.5t-65.5 273zM259 518q0 -158 102.5 -268t254.5 -110
q151 0 252 110t101 268q0 159 -99.5 269t-253.5 110q-155 0 -256 -110t-101 -269z" />
    <glyph glyph-name="uni0431" unicode="&#x431;" horiz-adv-x="1216" 
d="M291 778q66 77 160.5 122.5t203.5 45.5q205 0 346 -140.5t141 -344.5q0 -209 -148 -347t-376 -138q-231 0 -377.5 156t-146.5 430q0 232 37.5 389.5t125.5 265t226 163.5t346 76q46 4 54 -42l11 -68q4 -24 -11.5 -38t-47.5 -18q-154 -18 -254 -53.5t-161.5 -99
t-89.5 -147.5t-39 -212zM279 575q0 -203 92 -319.5t247 -116.5q145 0 242 92.5t97 229.5q0 136 -95.5 229t-233.5 93q-107 0 -196 -56.5t-153 -151.5z" />
    <glyph glyph-name="uni0432" unicode="&#x432;" horiz-adv-x="1031" 
d="M194 0q-48 0 -48 48v940q0 48 48 48h359q142 0 238.5 -79t96.5 -195q0 -72 -43 -131t-112 -86q86 -20 144.5 -92t58.5 -160q0 -124 -101.5 -208.5t-250.5 -84.5h-390zM541 609q71 0 118 38.5t47 96.5t-47 96.5t-118 38.5h-213v-270h213zM575 157q76 0 127.5 43t51.5 106
q0 64 -51.5 108t-127.5 44h-247v-301h247z" />
    <glyph glyph-name="uni0433" unicode="&#x433;" horiz-adv-x="820" 
d="M328 873v-825q0 -48 -48 -48h-86q-48 0 -48 48v940q0 48 48 48h533q48 0 48 -48v-67q0 -48 -48 -48h-399z" />
    <glyph glyph-name="uni0434" unicode="&#x434;" horiz-adv-x="1100" 
d="M1051 -164q0 -48 -48 -48h-86q-48 0 -48 48v164h-638v-164q0 -48 -48 -48h-86q-48 0 -48 48v276q0 48 48 48h60q142 301 149 828q0 48 48 48h516q48 0 48 -48v-828h85q48 0 48 -48v-276zM739 160v716h-260q0 -181 -33.5 -375.5t-94.5 -340.5h388z" />
    <glyph glyph-name="uni0435" unicode="&#x435;" horiz-adv-x="1224" 
d="M260 461q15 -141 119.5 -234.5t252.5 -93.5q96 0 173.5 32.5t149.5 99.5q35 32 68 1l37 -35q34 -33 3 -67q-85 -91 -187.5 -139.5t-238.5 -48.5q-124 0 -230 42.5t-178.5 115.5t-113.5 172.5t-41 211.5q0 111 41.5 211t114 173t174.5 115.5t218 42.5q151 0 272.5 -70
t188.5 -188.5t67 -260.5q0 -12 -2 -36q-4 -44 -51 -44h-837zM622 903q-128 0 -228 -83t-127 -208h692q-21 127 -114 209t-223 82z" />
    <glyph glyph-name="uni0436" unicode="&#x436;" horiz-adv-x="1564" 
d="M1434 1036q50 0 48 -49q-9 -159 -74 -274t-174 -170l297 -485q15 -25 5.5 -41.5t-38.5 -16.5h-104q-39 0 -58 32l-282 465h-181v-449q0 -48 -48 -48h-86q-48 0 -48 48v449h-182l-281 -465q-19 -32 -58 -32h-104q-29 0 -38.5 16.5t5.5 41.5l297 485q-109 55 -174 170
t-74 274q-2 49 48 49h86q44 0 49 -48q11 -164 93.5 -249t212.5 -85h120v334q0 48 48 48h86q48 0 48 -48v-334h120q130 0 212.5 85t93.5 249q5 48 49 48h86z" />
    <glyph glyph-name="uni0437" unicode="&#x437;" horiz-adv-x="949" 
d="M695 307q0 74 -67.5 124.5t-167.5 50.5h-100q-48 0 -48 48v55q0 48 48 48h106q80 0 133.5 38.5t53.5 96.5q0 57 -53.5 96t-133.5 39q-150 0 -206 -110q-18 -38 -55 -38h-78q-26 0 -37.5 14.5t-4.5 38.5q36 117 136.5 184.5t244.5 67.5q157 0 263 -80.5t106 -198.5
q0 -73 -47 -133.5t-130 -87.5q91 -25 155 -98t64 -167q0 -135 -120.5 -227t-296.5 -92q-219 0 -352 158q-29 37 8 68l39 31q34 27 67 -6q97 -94 238 -94q99 0 167 50.5t68 123.5z" />
    <glyph glyph-name="uni0438" unicode="&#x438;" horiz-adv-x="1227" 
d="M1081 48q0 -48 -48 -48h-80q-48 0 -48 48v732l-564 -751q-22 -29 -58 -29h-89q-48 0 -48 48v940q0 48 48 48h80q48 0 48 -48v-732l564 751q22 29 58 29h89q48 0 48 -48v-940z" />
    <glyph glyph-name="uni0439" unicode="&#x439;" horiz-adv-x="1227" 
d="M613 1166q-118 0 -207 72t-112 186q-5 24 7.5 37.5t36.5 13.5h66q40 0 51 -44q15 -58 57 -93.5t101 -35.5t101 35.5t57 93.5q11 44 51 44h66q25 0 37 -14t7 -38q-24 -114 -112.5 -185.5t-206.5 -71.5zM1081 48q0 -48 -48 -48h-80q-48 0 -48 48v732l-564 -751
q-22 -29 -58 -29h-89q-48 0 -48 48v940q0 48 48 48h80q48 0 48 -48v-732l564 751q22 29 58 29h89q48 0 48 -48v-940z" />
    <glyph glyph-name="uni043A" unicode="&#x43a;" horiz-adv-x="1029" 
d="M889 1036q50 0 48 -49q-9 -159 -74 -274t-174 -170l297 -485q15 -25 5.5 -41.5t-38.5 -16.5h-104q-39 0 -58 32l-282 465h-181v-449q0 -48 -48 -48h-86q-48 0 -48 48v940q0 48 48 48h86q48 0 48 -48v-334h120q130 0 212.5 85t93.5 249q5 48 49 48h86z" />
    <glyph glyph-name="uni043B" unicode="&#x43b;" horiz-adv-x="1228" 
d="M231 988q0 48 48 48h755q48 0 48 -48v-940q0 -48 -48 -48h-86q-48 0 -48 48v825h-487v-588q0 -126 -79 -209t-201 -83q-29 0 -43 1q-45 3 -45 51v68q0 47 26 47h27q59 0 96 38t37 101v689z" />
    <glyph glyph-name="uni043C" unicode="&#x43c;" horiz-adv-x="1350" 
d="M675 490l340 515q20 31 58 31h83q48 0 48 -48v-940q0 -48 -48 -48h-80q-48 0 -48 48v709l-277 -413q-20 -31 -58 -31h-36q-38 0 -58 31l-277 413v-709q0 -48 -48 -48h-80q-48 0 -48 48v940q0 48 48 48h83q38 0 58 -31z" />
    <glyph glyph-name="uni043D" unicode="&#x43d;" horiz-adv-x="1227" 
d="M1081 48q0 -48 -48 -48h-86q-48 0 -48 48v406h-571v-406q0 -48 -48 -48h-86q-48 0 -48 48v940q0 48 48 48h86q48 0 48 -48v-371h571v371q0 48 48 48h86q48 0 48 -48v-940z" />
    <glyph glyph-name="uni043E" unicode="&#x43e;" horiz-adv-x="1268" 
d="M634 1060q158 0 287 -73t201 -197t72 -272t-72 -272t-201 -197t-287 -73t-287 73t-201 197t-72 272t72 272t201 197t287 73zM634 139q158 0 266.5 110.5t108.5 268.5t-108.5 268.5t-266.5 110.5t-266.5 -110.5t-108.5 -268.5t108.5 -268.5t266.5 -110.5z" />
    <glyph glyph-name="uni043F" unicode="&#x43f;" horiz-adv-x="1227" 
d="M1081 48q0 -48 -48 -48h-86q-48 0 -48 48v825h-571v-825q0 -48 -48 -48h-86q-48 0 -48 48v940q0 48 48 48h839q48 0 48 -48v-940z" />
    <glyph glyph-name="uni0440" unicode="&#x440;" horiz-adv-x="1297" 
d="M1223 518q0 -149 -65.5 -273t-183 -196.5t-262.5 -72.5q-117 0 -216 48t-168 133v-573q0 -48 -48 -48h-86q-48 0 -48 48v1404q0 48 48 48h86q48 0 48 -48v-109q69 85 168 133.5t216 48.5q145 0 262.5 -73t183 -197t65.5 -273zM1038 518q0 159 -101 269t-256 110
q-154 0 -253.5 -110t-99.5 -269q0 -158 101 -268t252 -110q152 0 254.5 110t102.5 268z" />
    <glyph glyph-name="uni0441" unicode="&#x441;" horiz-adv-x="1179" 
d="M74 518q0 115 41.5 216t112 172t169 112.5t208.5 41.5q173 0 302 -83.5t182 -231.5q9 -24 -3 -39t-38 -15h-95q-38 0 -55 38q-37 80 -110.5 124t-169.5 44q-67 0 -130.5 -26t-115 -73t-82.5 -120.5t-31 -159.5q0 -115 56.5 -203.5t142 -132t181.5 -43.5q88 0 167 38.5
t136 109.5q29 36 67 14l41 -24q43 -24 17 -66q-74 -115 -187.5 -175t-254.5 -60q-143 0 -269 69.5t-204 195t-78 277.5z" />
    <glyph glyph-name="uni0442" unicode="&#x442;" horiz-adv-x="940" 
d="M93 873q-48 0 -48 48v67q0 48 48 48h754q48 0 48 -48v-67q0 -48 -48 -48h-286v-825q0 -48 -48 -48h-86q-48 0 -48 48v825h-286z" />
    <glyph glyph-name="uni0443" unicode="&#x443;" horiz-adv-x="1050" 
d="M432 4l-383 976q-10 25 0.5 40.5t37.5 15.5h89q41 0 56 -38l293 -763l293 763q15 38 56 38h89q27 0 37.5 -15.5t0.5 -40.5l-548 -1406q-15 -38 -55 -38h-90q-27 0 -37.5 15.5t-0.5 40.5z" />
    <glyph glyph-name="uni0444" unicode="&#x444;" horiz-adv-x="2120" 
d="M74 518q0 149 65.5 273t183 197t262.5 73q116 0 215 -48.5t169 -133.5v533q0 48 48 48h86q48 0 48 -48v-533q69 85 168 133.5t216 48.5q145 0 262.5 -73t183 -197t65.5 -273t-65.5 -273t-183 -196.5t-262.5 -72.5q-117 0 -216 48t-168 133v-573q0 -48 -48 -48h-86
q-48 0 -48 48v573q-70 -85 -169 -133t-215 -48q-145 0 -262.5 72.5t-183 196.5t-65.5 273zM258 518q0 -158 102.5 -268t254.5 -110q151 0 252 110t101 268q0 159 -99.5 269t-253.5 110q-155 0 -256 -110t-101 -269zM1861 518q0 159 -101 269t-256 110q-154 0 -253.5 -110
t-99.5 -269q0 -158 101 -268t252 -110q152 0 254.5 110t102.5 268z" />
    <glyph glyph-name="uni0445" unicode="&#x445;" horiz-adv-x="1046" 
d="M99 0q-30 0 -38.5 17t8.5 41l339 471l-314 449q-17 24 -8 41t38 17h95q38 0 58 -30l246 -354l246 354q20 30 58 30h95q29 0 38 -17t-8 -41l-314 -449l339 -471q17 -24 8.5 -41t-38.5 -17h-94q-37 0 -58 30l-272 376l-272 -376q-21 -30 -58 -30h-94z" />
    <glyph glyph-name="uni0446" unicode="&#x446;" horiz-adv-x="1252" 
d="M1021 0h-827q-48 0 -48 48v940q0 48 48 48h86q48 0 48 -48v-825h571v825q0 48 48 48h86q48 0 48 -48v-825h74q48 0 48 -48v-347q0 -48 -48 -48h-86q-48 0 -48 48v232z" />
    <glyph glyph-name="uni0447" unicode="&#x447;" horiz-adv-x="1098" 
d="M770 990q0 48 48 48h86q48 0 48 -48v-942q0 -48 -48 -48h-86q-48 0 -48 48v404q-44 -73 -125 -118t-176 -45q-172 0 -272 107.5t-100 305.5v288q0 48 48 48h86q48 0 48 -48v-278q0 -260 224 -260q120 0 193.5 86.5t73.5 223.5v228z" />
    <glyph glyph-name="uni0448" unicode="&#x448;" horiz-adv-x="1576" 
d="M1430 48q0 -48 -48 -48h-1188q-48 0 -48 48v940q0 48 48 48h86q48 0 48 -48v-825h369v825q0 48 48 48h86q48 0 48 -48v-825h369v825q0 48 48 48h86q48 0 48 -48v-940z" />
    <glyph glyph-name="uni0449" unicode="&#x449;" horiz-adv-x="1601" 
d="M146 988q0 48 48 48h86q48 0 48 -48v-825h369v825q0 48 48 48h86q48 0 48 -48v-825h369v825q0 48 48 48h86q48 0 48 -48v-825h74q48 0 48 -48v-347q0 -48 -48 -48h-86q-48 0 -48 48v232h-1176q-48 0 -48 48v940z" />
    <glyph glyph-name="uni044A" unicode="&#x44a;" horiz-adv-x="1191" 
d="M387 0q-48 0 -48 48v831h-246q-48 0 -48 48v61q0 48 48 48h380q48 0 48 -48v-286h234q159 0 267 -102t108 -249q0 -148 -108 -249.5t-267 -101.5h-368zM948 351q0 82 -60.5 138t-147.5 56h-219v-388h219q88 0 148 55.5t60 138.5z" />
    <glyph glyph-name="uni044B" unicode="&#x44b;" horiz-adv-x="1414" 
d="M194 0q-48 0 -48 48v940q0 48 48 48h86q48 0 48 -48v-286h234q158 0 266.5 -102t108.5 -249t-108 -249t-267 -102h-368zM1086 988q0 48 48 48h86q48 0 48 -48v-940q0 -48 -48 -48h-86q-48 0 -48 48v940zM755 351q0 82 -60.5 138t-147.5 56h-219v-388h219q88 0 148 55.5
t60 138.5z" />
    <glyph glyph-name="uni044C" unicode="&#x44c;" horiz-adv-x="998" 
d="M194 0q-48 0 -48 48v940q0 48 48 48h86q48 0 48 -48v-286h234q158 0 266.5 -102t108.5 -249t-108 -249t-267 -102h-368zM755 351q0 82 -60.5 138t-147.5 56h-219v-388h219q88 0 148 55.5t60 138.5z" />
    <glyph glyph-name="uni044D" unicode="&#x44d;" horiz-adv-x="1179" 
d="M1105 518q0 -152 -78 -277.5t-204 -195t-269 -69.5q-141 0 -254.5 60t-187.5 175q-26 42 17 66l41 24q38 22 67 -14q57 -71 136 -109.5t167 -38.5q132 0 239.5 81.5t133.5 220.5h-452q-48 0 -48 48v55q0 48 48 48h452q-24 139 -126 222t-226 83q-96 0 -169.5 -44
t-110.5 -124q-17 -38 -55 -38h-95q-26 0 -38 15t-3 39q53 148 182 231.5t302 83.5q110 0 208.5 -41.5t169 -112.5t112 -172t41.5 -216z" />
    <glyph glyph-name="uni044E" unicode="&#x44e;" horiz-adv-x="1674" 
d="M1040 1060q158 0 287 -73t201 -197t72 -272t-72 -272t-201 -197t-287 -73q-217 0 -371 131.5t-183 330.5h-158v-390q0 -48 -48 -48h-86q-48 0 -48 48v940q0 48 48 48h86q48 0 48 -48v-387h158q30 198 184 328.5t370 130.5zM1040 139q158 0 266.5 110.5t108.5 268.5
t-108.5 268.5t-266.5 110.5t-266.5 -110.5t-108.5 -268.5t108.5 -268.5t266.5 -110.5z" />
    <glyph glyph-name="uni044F" unicode="&#x44f;" horiz-adv-x="1093" 
d="M560 366l-267 -338q-22 -28 -58 -28h-91q-30 0 -38.5 17.5t10.5 41.5l254 320q-123 30 -199 118t-76 204q0 142 111.5 238.5t275.5 96.5h417q48 0 48 -48v-940q0 -48 -48 -48h-86q-48 0 -48 48v318h-205zM765 523v356h-277q-90 0 -150.5 -51t-60.5 -127
q0 -77 60.5 -127.5t150.5 -50.5h277z" />
    <glyph glyph-name="uni0450" unicode="&#x450;" horiz-adv-x="1224" 
d="M740 1271q29 -37 -7 -68l-20 -17q-34 -29 -67 4l-221 221q-35 35 2 68l46 42q36 33 68 -5zM260 461q15 -141 119.5 -234.5t252.5 -93.5q96 0 173.5 32.5t149.5 99.5q35 32 68 1l37 -35q34 -33 3 -67q-85 -91 -187.5 -139.5t-238.5 -48.5q-124 0 -230 42.5t-178.5 115.5
t-113.5 172.5t-41 211.5q0 111 41.5 211t114 173t174.5 115.5t218 42.5q151 0 272.5 -70t188.5 -188.5t67 -260.5q0 -12 -2 -36q-4 -44 -51 -44h-837zM622 903q-128 0 -228 -83t-127 -208h692q-21 127 -114 209t-223 82z" />
    <glyph glyph-name="uni0451" unicode="&#x451;" horiz-adv-x="1224" 
d="M320 1340q0 47 32.5 80t80.5 33t80.5 -33t32.5 -80q0 -48 -32.5 -80.5t-80.5 -32.5t-80.5 32.5t-32.5 80.5zM678 1340q0 47 32.5 80t80.5 33t80.5 -33t32.5 -80q0 -48 -32.5 -80.5t-80.5 -32.5t-80.5 32.5t-32.5 80.5zM260 461q15 -141 119.5 -234.5t252.5 -93.5
q96 0 173.5 32.5t149.5 99.5q35 32 68 1l37 -35q34 -33 3 -67q-85 -91 -187.5 -139.5t-238.5 -48.5q-124 0 -230 42.5t-178.5 115.5t-113.5 172.5t-41 211.5q0 111 41.5 211t114 173t174.5 115.5t218 42.5q151 0 272.5 -70t188.5 -188.5t67 -260.5q0 -12 -2 -36
q-4 -44 -51 -44h-837zM622 903q-128 0 -228 -83t-127 -208h692q-21 127 -114 209t-223 82z" />
    <glyph glyph-name="uni0452" unicode="&#x452;" horiz-adv-x="1238" 
d="M27 1251q0 48 48 48h102v113q0 48 48 48h86q48 0 48 -48v-113h298q48 0 48 -48v-30q0 -48 -48 -48h-298v-296q52 81 141 132t195 51q191 0 304 -114t113 -309v-740q0 -186 -91.5 -273.5t-283.5 -87.5q-29 0 -57 3q-45 3 -45 50v62q0 49 45 46q16 -1 46 -1q109 0 156.5 50
t47.5 153v728q0 125 -71.5 197.5t-197.5 72.5q-121 0 -211.5 -93.5t-90.5 -226.5v-529q0 -48 -48 -48h-86q-48 0 -48 48v1125h-102q-48 0 -48 48v30z" />
    <glyph glyph-name="uni0453" unicode="&#x453;" horiz-adv-x="820" 
d="M511 1516q32 38 68 5l46 -42q37 -33 2 -68l-221 -221q-32 -32 -67 -3l-20 17q-36 30 -7 67zM328 873v-825q0 -48 -48 -48h-86q-48 0 -48 48v940q0 48 48 48h533q48 0 48 -48v-67q0 -48 -48 -48h-399z" />
    <glyph glyph-name="uni0454" unicode="&#x454;" horiz-adv-x="1179" 
d="M74 518q0 115 41.5 216t112 172t169 112.5t208.5 41.5q173 0 302 -83.5t182 -231.5q9 -24 -3 -39t-38 -15h-95q-38 0 -55 38q-37 80 -110.5 124t-169.5 44q-124 0 -226 -83t-127 -222h453q48 0 48 -48v-55q0 -48 -48 -48h-452q26 -139 133.5 -220.5t239.5 -81.5
q88 0 167 38.5t136 109.5q29 36 67 14l41 -24q43 -24 17 -66q-74 -115 -187.5 -175t-254.5 -60q-143 0 -269 69.5t-204 195t-78 277.5z" />
    <glyph glyph-name="uni0455" unicode="&#x455;" horiz-adv-x="932" 
d="M143 232q31 37 68 2q108 -101 253 -101q98 0 155 42t57 111q0 66 -55 109t-175 66q-337 65 -337 312q0 125 94 206t253 81q139 0 232.5 -63.5t123.5 -184.5q6 -24 -6 -38.5t-37 -14.5h-86q-38 0 -52 43q-15 46 -57.5 73.5t-104.5 27.5q-80 0 -129 -37t-49 -96
q0 -57 54 -100t160 -64q179 -35 266 -114.5t87 -208.5q0 -135 -102.5 -221t-279.5 -86q-215 0 -358 158q-28 34 0 68z" />
    <glyph glyph-name="uni0456" unicode="&#x456;" horiz-adv-x="522" 
d="M141 1325q0 51 34.5 85.5t85.5 34.5t85.5 -34.5t34.5 -85.5q0 -50 -34.5 -84.5t-85.5 -34.5t-85.5 34.5t-34.5 84.5zM170 988q0 48 48 48h86q48 0 48 -48v-940q0 -48 -48 -48h-86q-48 0 -48 48v940z" />
    <glyph glyph-name="uni0457" unicode="&#x457;" horiz-adv-x="522" 
d="M-31 1340q0 47 32.5 80t80.5 33t80.5 -33t32.5 -80q0 -48 -32.5 -80.5t-80.5 -32.5t-80.5 32.5t-32.5 80.5zM327 1340q0 47 32.5 80t80.5 33t80.5 -33t32.5 -80q0 -48 -32.5 -80.5t-80.5 -32.5t-80.5 32.5t-32.5 80.5zM170 988q0 48 48 48h86q48 0 48 -48v-940
q0 -48 -48 -48h-86q-48 0 -48 48v940z" />
    <glyph glyph-name="uni0458" unicode="&#x458;" horiz-adv-x="522" 
d="M141 1325q0 51 34.5 85.5t85.5 34.5t85.5 -34.5t34.5 -85.5q0 -50 -34.5 -84.5t-85.5 -34.5t-85.5 34.5t-34.5 84.5zM170 988q0 48 48 48h86q48 0 48 -48v-1122q0 -172 -72 -251t-215 -79q-27 0 -57 5q-41 7 -41 53v55q0 47 28 47h29q73 0 109.5 39t36.5 128v1125z" />
    <glyph glyph-name="uni0459" unicode="&#x459;" horiz-adv-x="1707" 
d="M231 988q0 48 48 48h715q48 0 48 -48v-286h229q159 0 267 -102t108 -249q0 -148 -108 -249.5t-267 -101.5h-363q-48 0 -48 48v825h-447v-588q0 -126 -79 -209t-201 -83q-29 0 -43 1q-45 3 -45 51v68q0 47 26 47h27q59 0 96 38t37 101v689zM1256 157q88 0 148 55.5
t60 138.5q0 82 -60.5 138t-147.5 56h-214v-388h214z" />
    <glyph glyph-name="uni045A" unicode="&#x45a;" horiz-adv-x="1706" 
d="M907 0q-48 0 -48 48v406h-531v-406q0 -48 -48 -48h-86q-48 0 -48 48v940q0 48 48 48h86q48 0 48 -48v-371h531v371q0 48 48 48h86q48 0 48 -48v-286h229q158 0 266.5 -102t108.5 -249t-108 -249t-267 -102h-363zM1463 351q0 82 -60.5 138t-147.5 56h-214v-388h214
q88 0 148 55.5t60 138.5z" />
    <glyph glyph-name="uni045B" unicode="&#x45b;" horiz-adv-x="1238" 
d="M27 1251q0 48 48 48h102v113q0 48 48 48h86q48 0 48 -48v-113h298q48 0 48 -48v-30q0 -48 -48 -48h-298v-296q52 81 141 132t195 51q191 0 304 -114t113 -309v-589q0 -48 -48 -48h-86q-48 0 -48 48v579q0 125 -71.5 197.5t-197.5 72.5q-121 0 -211.5 -93.5t-90.5 -226.5
v-529q0 -48 -48 -48h-86q-48 0 -48 48v1125h-102q-48 0 -48 48v30z" />
    <glyph glyph-name="uni045C" unicode="&#x45c;" horiz-adv-x="1029" 
d="M603 1516q32 38 68 5l46 -42q37 -33 2 -68l-221 -221q-32 -32 -67 -3l-20 17q-36 30 -7 67zM889 1036q50 0 48 -49q-9 -159 -74 -274t-174 -170l297 -485q15 -25 5.5 -41.5t-38.5 -16.5h-104q-39 0 -58 32l-282 465h-181v-449q0 -48 -48 -48h-86q-48 0 -48 48v940
q0 48 48 48h86q48 0 48 -48v-334h120q130 0 212.5 85t93.5 249q5 48 49 48h86z" />
    <glyph glyph-name="uni045D" unicode="&#x45d;" horiz-adv-x="1227" 
d="M729 1271q29 -37 -7 -68l-20 -17q-34 -29 -67 4l-221 221q-35 35 2 68l46 42q36 33 68 -5zM1081 48q0 -48 -48 -48h-80q-48 0 -48 48v732l-564 -751q-22 -29 -58 -29h-89q-48 0 -48 48v940q0 48 48 48h80q48 0 48 -48v-732l564 751q22 29 58 29h89q48 0 48 -48v-940z" />
    <glyph glyph-name="uni045E" unicode="&#x45e;" horiz-adv-x="1050" 
d="M525 1166q-118 0 -207 72t-112 186q-5 24 7.5 37.5t36.5 13.5h66q40 0 51 -44q15 -58 57 -93.5t101 -35.5t101 35.5t57 93.5q11 44 51 44h66q25 0 37 -14t7 -38q-24 -114 -112.5 -185.5t-206.5 -71.5zM432 4l-383 976q-10 25 0.5 40.5t37.5 15.5h89q41 0 56 -38l293 -763
l293 763q15 38 56 38h89q27 0 37.5 -15.5t0.5 -40.5l-548 -1406q-15 -38 -55 -38h-90q-27 0 -37.5 15.5t-0.5 40.5z" />
    <glyph glyph-name="uni045F" unicode="&#x45f;" horiz-adv-x="1228" 
d="M1082 48q0 -48 -48 -48h-329v-232q0 -48 -48 -48h-86q-48 0 -48 48v232h-329q-48 0 -48 48v940q0 48 48 48h86q48 0 48 -48v-825h572v825q0 48 48 48h86q48 0 48 -48v-940z" />
    <glyph glyph-name="uni0490" unicode="&#x490;" horiz-adv-x="1029" 
d="M168 1352q0 48 48 48h578v232q0 48 48 48h92q48 0 48 -48v-347q0 -48 -48 -48h-578v-1189q0 -48 -48 -48h-92q-48 0 -48 48v1304z" />
    <glyph glyph-name="uni0491" unicode="&#x491;" horiz-adv-x="820" 
d="M328 873v-825q0 -48 -48 -48h-86q-48 0 -48 48v940q0 48 48 48h399v232q0 48 48 48h86q48 0 48 -48v-347q0 -48 -48 -48h-399z" />
    <glyph glyph-name="Wgrave" unicode="&#x1e80;" horiz-adv-x="1934" 
d="M1083 1595q29 -37 -7 -68l-20 -17q-34 -29 -67 4l-221 221q-35 35 2 68l46 42q36 33 68 -5zM1019 1400q43 0 54 -40l312 -1085l293 1084q10 41 53 41h100q26 0 37 -14.5t4 -39.5l-375 -1306q-11 -40 -54 -40h-104q-43 0 -54 40l-318 1101l-318 -1101q-11 -40 -54 -40
h-104q-43 0 -54 40l-375 1306q-7 25 4 39.5t37 14.5h100q43 0 53 -41l293 -1084l312 1085q11 40 54 40h104z" />
    <glyph glyph-name="wgrave" unicode="&#x1e81;" horiz-adv-x="1560" 
d="M879 1271q29 -37 -7 -68l-20 -17q-34 -29 -67 4l-221 221q-35 35 2 68l46 42q36 33 68 -5zM832 1036q43 0 54 -40l219 -752l226 752q11 40 54 40h91q26 0 37 -15t3 -40l-302 -941q-12 -40 -55 -40h-104q-43 0 -54 40l-221 756l-221 -756q-11 -40 -54 -40h-104
q-43 0 -55 40l-302 941q-8 25 3 40t37 15h91q43 0 54 -40l226 -752l219 752q11 40 54 40h104z" />
    <glyph glyph-name="Wacute" unicode="&#x1e82;" horiz-adv-x="1934" 
d="M1091 1840q32 38 68 5l46 -42q37 -33 2 -68l-221 -221q-32 -32 -67 -3l-20 17q-36 30 -7 67zM1019 1400q43 0 54 -40l312 -1085l293 1084q10 41 53 41h100q26 0 37 -14.5t4 -39.5l-375 -1306q-11 -40 -54 -40h-104q-43 0 -54 40l-318 1101l-318 -1101q-11 -40 -54 -40
h-104q-43 0 -54 40l-375 1306q-7 25 4 39.5t37 14.5h100q43 0 53 -41l293 -1084l312 1085q11 40 54 40h104z" />
    <glyph glyph-name="wacute" unicode="&#x1e83;" horiz-adv-x="1560" 
d="M911 1516q32 38 68 5l46 -42q37 -33 2 -68l-221 -221q-32 -32 -67 -3l-20 17q-36 30 -7 67zM832 1036q43 0 54 -40l219 -752l226 752q11 40 54 40h91q26 0 37 -15t3 -40l-302 -941q-12 -40 -55 -40h-104q-43 0 -54 40l-221 756l-221 -756q-11 -40 -54 -40h-104
q-43 0 -55 40l-302 941q-8 25 3 40t37 15h91q43 0 54 -40l226 -752l219 752q11 40 54 40h104z" />
    </font>
</defs>
</svg>
