<?xml version="1.0" standalone="no"?>
<!DOCTYPE svg PUBLIC "-//W3C//DTD SVG 1.1//EN" "http://www.w3.org/Graphics/SVG/1.1/DTD/svg11.dtd" >
<svg>
<metadata>
Created by FontForge 20090622 at Tue Dec  5 09:18:02 2017
 By deploy user
Copyright (c) 2017 by Lee, Hyun-Seung. All rights reserved.
</metadata>
<defs>
<font id="CarosSoftExtraBold-Italic" horiz-adv-x="811" >
  <font-face 
    font-family="Caros Soft ExtraBold"
    font-weight="700"
    font-style="italic"
    font-stretch="normal"
    units-per-em="2000"
    panose-1="2 15 8 3 3 3 2 2 2 4"
    ascent="1600"
    descent="-400"
    x-height="1036"
    cap-height="1400"
    bbox="-877.967 -520 2487.28 2008.35"
    underline-thickness="48"
    underline-position="-366"
    slope="-11"
    unicode-range="U+0009-U+FB04"
  />
<missing-glyph horiz-adv-x="1000" 
d="M172 0q-34 0 -53 19t-19 53v1356q0 34 19 53t53 19h656q34 0 53 -19t19 -53v-1356q0 -34 -19 -53t-53 -19h-656zM640 246v1007h-280v-1007h280z" />
    <glyph glyph-name="ff" unicode="ff" horiz-adv-x="1512" 
d="M1617 1273q-7 -33 -21.5 -48.5t-38.5 -13.5q-16 1 -47 1q-133 0 -156 -120l-11 -56h148q37 0 54.5 -20.5t10.5 -57.5l-26 -136q-12 -64 -79 -64h-162l-134 -694q-12 -64 -79 -64h-176q-37 0 -54.5 20.5t-10.5 57.5l132 680h-410l-134 -694q-12 -64 -79 -64h-176
q-37 0 -54.5 20.5t-10.5 57.5l132 680h-73q-37 0 -54.5 20.5t-10.5 57.5l26 136q12 64 79 64h87l12 61q70 363 476 363q68 0 125 -9q36 -5 49 -28.5t2 -59.5l-34 -103q-20 -61 -81 -53q-33 5 -61 5q-132 0 -155 -120l-11 -56h410l12 61q35 179 153.5 271t315.5 92
q40 0 75 -3q36 -3 51.5 -24.5t8.5 -57.5z" />
    <glyph glyph-name="fi" unicode="fi" horiz-adv-x="1369" 
d="M1050 1306q15 74 77.5 124.5t139.5 50.5q78 0 121.5 -50.5t28.5 -124.5q-14 -74 -77 -124.5t-141 -50.5q-77 0 -120 50.5t-29 124.5zM301 1096q69 362 483 362q42 0 96 -7q35 -4 49 -27t5 -58l-24 -100q-16 -64 -73 -58q-27 4 -58 4q-135 0 -158 -120l-11 -56h652
q37 0 54.5 -20.5t10.5 -57.5l-173 -894q-12 -64 -79 -64h-176q-37 0 -54.5 20.5t-10.5 57.5l132 680h-410l-134 -694q-12 -64 -79 -64h-175q-37 0 -54.5 20.5t-10.5 57.5l132 680h-73q-37 0 -54.5 20.5t-10.5 57.5l26 136q12 64 79 64h87z" />
    <glyph glyph-name="fl" unicode="fl" horiz-adv-x="1348" 
d="M1017 1124q-89 88 -240 88q-133 0 -156 -120l-11 -56h168q37 0 54.5 -20.5t10.5 -57.5l-26 -136q-12 -64 -79 -64h-182l-134 -694q-12 -64 -79 -64h-175q-37 0 -54.5 20.5t-10.5 57.5l132 680h-86q-37 0 -54.5 20.5t-10.5 57.5l26 136q12 64 79 64h100l12 60
q34 177 151 268.5t310 91.5q197 0 300 -100l8 39q12 65 78 65h175q37 0 54.5 -20.5t10.5 -57.5l-255 -1318q-12 -64 -79 -64h-175q-37 0 -54.5 20.5t-10.5 57.5z" />
    <glyph glyph-name="ffi" unicode="ffi" horiz-adv-x="2101" 
d="M1781 1306q15 74 77.5 124.5t140.5 50.5t121.5 -50.5t28.5 -124.5q-14 -74 -77 -124.5t-141 -50.5t-121 50.5t-29 124.5zM301 1096q70 364 475 364q72 0 126 -10q35 -5 48 -29t2 -59l-33 -103q-20 -61 -81 -52q-35 5 -62 5q-132 0 -155 -120l-11 -56h411l12 60
q70 362 486 362q23 0 63 -2q36 -2 52 -24t9 -58l-20 -101q-7 -33 -22.5 -48.5t-39.5 -13.5q-17 1 -50 1q-135 0 -158 -120l-11 -56h652q37 0 54.5 -20.5t10.5 -57.5l-173 -894q-12 -64 -79 -64h-176q-37 0 -54.5 20.5t-10.5 57.5l132 680h-410l-134 -694q-12 -64 -79 -64
h-175q-37 0 -54.5 20.5t-10.5 57.5l132 680h-411l-134 -694q-12 -64 -79 -64h-175q-37 0 -54.5 20.5t-10.5 57.5l132 680h-73q-37 0 -54.5 20.5t-10.5 57.5l26 136q12 64 79 64h87z" />
    <glyph glyph-name="ffl" unicode="ffl" horiz-adv-x="2079" 
d="M1749 1124q-88 88 -240 88q-133 0 -156 -120l-11 -56h151q37 0 54.5 -20.5t10.5 -57.5l-26 -136q-12 -64 -79 -64h-165l-134 -694q-12 -64 -79 -64h-175q-37 0 -54.5 20.5t-10.5 57.5l132 680h-411l-134 -694q-12 -64 -79 -64h-175q-37 0 -54.5 20.5t-10.5 57.5l132 680
h-73q-37 0 -54.5 20.5t-10.5 57.5l26 136q12 64 79 64h87l12 60q69 362 488 362q91 0 178 -27q33 -10 43.5 -35.5t-4.5 -57.5l-41 -94q-25 -58 -92 -43q-47 11 -97 11q-132 0 -155 -120l-11 -56h411l12 60q34 177 151 268.5t310 91.5q86 0 166.5 -24.5t133.5 -75.5l8 39
q12 65 78 65h175q37 0 54.5 -20.5t10.5 -57.5l-255 -1318q-12 -64 -79 -64h-175q-37 0 -54.5 20.5t-10.5 57.5z" />
    <glyph glyph-name=".notdef" horiz-adv-x="1000" 
d="M172 0q-34 0 -53 19t-19 53v1356q0 34 19 53t53 19h656q34 0 53 -19t19 -53v-1356q0 -34 -19 -53t-53 -19h-656zM640 246v1007h-280v-1007h280z" />
    <glyph glyph-name=".null" horiz-adv-x="0" 
 />
    <glyph glyph-name=".null" horiz-adv-x="0" 
 />
    <glyph glyph-name="nonmarkingreturn" horiz-adv-x="666" 
 />
    <glyph glyph-name="CR" unicode="&#x9;" horiz-adv-x="0" 
 />
    <glyph glyph-name="space" unicode=" " horiz-adv-x="606" 
 />
    <glyph glyph-name="exclam" unicode="!" horiz-adv-x="629" 
d="M311 1334q11 66 77 66h182q38 0 55 -21.5t8 -58.5l-197 -823q-15 -63 -79 -63h-103q-37 0 -54 20.5t-12 56.5zM47 159q15 77 82 130t152 53q84 0 130 -53t31 -130t-81.5 -130t-150.5 -53q-85 0 -131.5 53t-31.5 130z" />
    <glyph glyph-name="quotedbl" unicode="&#x22;" horiz-adv-x="992" 
d="M304 1332q8 68 75 68h158q38 0 55 -22t6 -59l-98 -344q-18 -61 -80 -61h-85q-36 0 -54 19.5t-14 56.5zM708 1332q8 68 75 68h158q38 0 55 -22t6 -59l-98 -344q-18 -61 -80 -61h-85q-36 0 -54 19.5t-14 56.5z" />
    <glyph glyph-name="numbersign" unicode="#" horiz-adv-x="1394" 
d="M269 549l108 293h-98q-38 0 -55 21t-10 58l21 106q13 64 78 64h155l93 252q20 57 82 57h152q40 0 55.5 -22.5t2.5 -60.5l-83 -226h212l92 251q20 58 82 58h153q40 0 55.5 -22.5t1.5 -60.5l-83 -226h80q38 0 55 -21t10 -58l-21 -106q-13 -64 -78 -64h-137l-108 -293h99
q37 0 54.5 -20.5t10.5 -57.5l-21 -106q-12 -65 -78 -65h-155l-88 -242q-20 -58 -82 -58h-153q-40 0 -55.5 22.5t-2.5 60.5l79 217h-211l-89 -242q-21 -58 -82 -58h-152q-40 0 -55.5 22.5t-2.5 60.5l79 217h-79q-37 0 -54.5 20.5t-10.5 57.5l21 106q12 65 78 65h135zM571 549
h212l107 293h-211z" />
    <glyph glyph-name="dollar" unicode="$" horiz-adv-x="1200" 
d="M172 370q50 46 102 -4q118 -112 277 -112q88 0 150.5 39.5t75.5 103.5q6 32 -1 57t-30.5 49.5t-72 45t-122.5 36.5q-193 43 -283 151.5t-59 268.5q28 145 135 251.5t261 146.5l26 137q12 64 79 64h192q38 0 55 -20.5t10 -57.5l-24 -126q118 -35 185.5 -121.5t69.5 -217.5
q1 -35 -18.5 -53t-54.5 -18h-186q-32 0 -48 16.5t-26 51.5q-25 92 -134 92q-70 0 -121 -33t-62 -86q-12 -62 33.5 -107t171.5 -75q425 -103 361 -436q-29 -152 -142 -263.5t-282 -152.5l-26 -137q-12 -64 -79 -64h-192q-38 0 -55 20.5t-10 57.5l25 127q-158 52 -261 209
q-36 55 14 101z" />
    <glyph glyph-name="percent" unicode="%" horiz-adv-x="1844" 
d="M1329 1389q40 58 100 20l39 -24q61 -40 19 -100l-909 -1283q-40 -56 -99 -20l-41 25q-63 40 -20 100zM187 1053q29 152 159 256.5t292 104.5t251 -104.5t60 -256.5t-158.5 -257t-292.5 -105t-251.5 105t-59.5 257zM448 1053q-10 -52 17 -88t79 -36t93 36t51 88
q10 51 -17 87t-79 36t-93 -36t-51 -87zM966 347q29 152 158.5 257t292.5 105t251.5 -105t59.5 -257t-159 -256.5t-292 -104.5t-251 104.5t-60 256.5zM1227 347q-10 -51 16.5 -87t79.5 -36q52 0 93 36t51 87q10 52 -17 88t-79 36q-53 0 -93.5 -36t-50.5 -88z" />
    <glyph glyph-name="ampersand" unicode="&#x26;" horiz-adv-x="1495" 
d="M935 1045q-31 0 -47.5 15t-30.5 49q-27 67 -105 67q-47 0 -85.5 -30t-46.5 -73q-9 -48 18 -108t104 -151l236 -279q39 62 74 151q24 61 87 52l143 -21q37 -5 52 -28t2 -58q-65 -176 -177 -315l88 -105q46 -55 -10 -101l-124 -103q-54 -45 -101 9l-80 94
q-202 -134 -430 -134q-219 0 -341.5 112.5t-90.5 281.5q47 241 317 401q-59 86 -75 154t-1 145q30 151 171 252.5t317 101.5q168 0 266 -82.5t109 -224.5q3 -34 -17 -53t-55 -19h-167zM551 230q114 0 221 73l-235 278q-130 -86 -149 -190q-14 -69 31 -115t132 -46z" />
    <glyph glyph-name="quotesingle" unicode="'" horiz-adv-x="608" 
d="M314 1332q8 68 75 68h159q38 0 55 -22t6 -59l-99 -344q-18 -61 -80 -61h-84q-36 0 -54 19.5t-14 56.5z" />
    <glyph glyph-name="parenleft" unicode="(" horiz-adv-x="870" 
d="M221 609q49 253 184.5 486t331.5 407q48 44 101 2l80 -64q58 -46 7 -101q-142 -154 -238 -341.5t-135 -388.5q-39 -198 -17 -383.5t103 -338.5q33 -62 -25 -98l-132 -80q-60 -37 -93 10q-127 176 -171 406t4 484z" />
    <glyph glyph-name="parenright" unicode=")" horiz-adv-x="870" 
d="M685 609q-49 -252 -184.5 -485t-331.5 -407q-48 -44 -101 -2l-81 64q-58 46 -7 101q143 153 239 340.5t135 388.5q39 199 16.5 384.5t-103.5 338.5q-34 63 25 98l133 80q60 36 93 -10q127 -176 171 -406.5t-4 -484.5z" />
    <glyph glyph-name="asterisk" unicode="*" horiz-adv-x="1132" 
d="M288 950q43 58 100 15l128 -97l23 185q7 67 76 67h120q38 0 55 -21.5t7 -58.5l-46 -172l171 100q32 19 57 10t38 -44l36 -95q24 -65 -40 -94l-188 -82l139 -73q33 -17 39 -44t-16 -56l-87 -115q-43 -57 -101 -13l-127 96l-23 -185q-7 -67 -76 -67h-120q-38 0 -55 21.5
t-7 58.5l46 172l-172 -100q-32 -19 -57 -10t-38 44l-35 95q-24 65 40 94l187 82l-139 73q-32 17 -38 44t16 56z" />
    <glyph glyph-name="plus" unicode="+" horiz-adv-x="1172" 
d="M429 522h-232q-38 0 -55 20.5t-10 57.5l27 140q12 64 79 64h246l50 259q12 64 79 64h169q38 0 55 -20.5t10 -57.5l-48 -245h232q38 0 55 -20.5t10 -57.5l-27 -140q-12 -64 -79 -64h-246l-50 -258q-12 -64 -79 -64h-169q-38 0 -55 20.5t-10 57.5z" />
    <glyph glyph-name="comma" unicode="," horiz-adv-x="606" 
d="M47 175q12 64 75.5 116.5t150.5 52.5q81 0 123.5 -55t25.5 -142q-26 -135 -126 -252.5t-266 -186.5q-64 -27 -95 37q-19 36 45 76q60 37 91.5 68t38.5 61t-3.5 57.5t-38.5 64.5q-32 44 -21 103z" />
    <glyph glyph-name="hyphen" unicode="-" horiz-adv-x="844" 
d="M196 518q-38 0 -55 20.5t-10 57.5l29 150q12 64 79 64h466q38 0 55 -20.5t10 -57.5l-29 -150q-12 -64 -79 -64h-466z" />
    <glyph glyph-name="period" unicode="." horiz-adv-x="606" 
d="M43 160q15 78 79.5 131t146.5 53t126.5 -53t29.5 -131q-16 -78 -80.5 -131t-146.5 -53t-126.5 53t-28.5 131z" />
    <glyph glyph-name="slash" unicode="/" horiz-adv-x="990" 
d="M162 -277q-34 -59 -96 -32l-127 55q-70 31 -32 97l957 1655q34 59 96 32l128 -56q69 -31 32 -96z" />
    <glyph glyph-name="zero" unicode="0" horiz-adv-x="1212" 
d="M138 700q41 211 128 372.5t221 256.5t295 95q121 0 207.5 -54.5t128.5 -151t51.5 -229.5t-23.5 -289q-41 -211 -128.5 -372.5t-221.5 -256.5t-295 -95q-122 0 -208 54.5t-128 151t-51 229.5t24 289zM458 700q-41 -198 -16.5 -314t116.5 -116t160 113t108 317
q41 197 16 313t-117 116t-160 -113t-107 -316z" />
    <glyph glyph-name="one" unicode="1" horiz-adv-x="1212" 
d="M932 1400q37 0 54.5 -20.5t10.5 -57.5l-244 -1258q-12 -64 -79 -64h-183q-37 0 -54.5 20.5t-10.5 57.5l197 1014l-174 -85q-33 -16 -58 -6.5t-37 44.5l-30 85q-22 64 38 94l319 155q42 21 89 21h162z" />
    <glyph glyph-name="two" unicode="2" horiz-adv-x="1212" 
d="M544 284h395q37 0 54.5 -20.5t10.5 -57.5l-27 -142q-12 -64 -79 -64h-740q-37 0 -54.5 20.5t-10.5 57.5l27 137q10 48 46 82l527 475q71 64 106 113.5t45 102.5q12 65 -21.5 106.5t-98.5 41.5q-52 0 -96.5 -28.5t-71.5 -78.5q-16 -30 -34.5 -43.5t-48.5 -13.5h-164
q-40 0 -57 22.5t-3 59.5q65 167 210.5 268.5t331.5 101.5q200 0 310 -112.5t75 -291.5q-21 -109 -86.5 -206.5t-179.5 -199.5z" />
    <glyph glyph-name="three" unicode="3" horiz-adv-x="1212" 
d="M492 258q86 0 155 57.5t85 139.5t-31 139.5t-133 57.5h-10q-34 -2 -55.5 6.5t-36.5 34.5l-29 49q-34 57 14 100l302 278h-384q-38 0 -55 21t-10 58l27 137q12 64 79 64h690q38 0 55 -21t10 -58l-29 -147q-10 -49 -48 -82l-283 -248q148 -39 215 -154t37 -272
q-17 -88 -68.5 -168t-128 -141t-181 -97t-219.5 -36q-119 0 -214.5 54.5t-157.5 159.5q-32 56 20 99l81 66q50 42 105 -16q81 -81 198 -81z" />
    <glyph glyph-name="four" unicode="4" horiz-adv-x="1212" 
d="M59 467q8 45 40 83l695 809q35 41 88 41h173q38 0 55 -20.5t10 -57.5l-155 -796h70q38 0 55 -20.5t10 -57.5l-27 -139q-12 -64 -79 -64h-84l-35 -180q-12 -65 -78 -65h-174q-37 0 -54.5 20.5t-10.5 57.5l32 167h-494q-37 0 -54.5 20.5t-10.5 57.5zM644 524l85 435
l-372 -435h287z" />
    <glyph glyph-name="five" unicode="5" horiz-adv-x="1212" 
d="M476 -24q-252 0 -380 208q-34 55 19 100l83 68q51 42 101 -8q91 -85 205 -85q83 0 156 58.5t89 140.5q16 85 -31.5 142.5t-134.5 57.5q-65 0 -121 -35q-51 -32 -94 -26l-100 14q-37 5 -51 27.5t-3 58.5l201 643q19 60 82 60h633q38 0 55 -21t10 -58l-27 -137
q-12 -64 -79 -64h-412l-74 -235q53 15 108 15q92 0 168.5 -33.5t126.5 -92t70 -142.5t1 -180q-40 -208 -205.5 -342t-395.5 -134z" />
    <glyph glyph-name="six" unicode="6" horiz-adv-x="1212" 
d="M694 887q37 6 83 6q77 0 145.5 -32t117 -88t69 -140t2.5 -179q-40 -204 -218.5 -341t-390.5 -137q-105 0 -193.5 36t-146.5 98.5t-82.5 152t-4.5 191.5q26 139 118 247l556 658q34 41 89 41h177q46 0 58.5 -26.5t-17.5 -61.5zM793 456q17 88 -29.5 147t-130.5 59
q-85 0 -154.5 -59t-86.5 -147q-17 -87 29.5 -146t131.5 -59q84 0 153.5 59t86.5 146z" />
    <glyph glyph-name="seven" unicode="7" horiz-adv-x="1212" 
d="M1160 1400q38 0 55 -20.5t10 -57.5l-26 -133q-8 -42 -33 -84l-639 -1056q-29 -49 -86 -49h-191q-44 0 -57.5 25t8.5 62l629 1027h-478q-38 0 -55 20.5t-10 57.5l28 144q12 64 79 64h766z" />
    <glyph glyph-name="eight" unicode="8" horiz-adv-x="1212" 
d="M1152 1031q-16 -85 -74 -158.5t-137 -112.5q95 -43 135.5 -136t18.5 -204q-37 -189 -208 -316.5t-386 -127.5q-142 0 -247 58t-152 160t-23 226q22 111 98.5 204t187.5 136q-63 39 -92 112.5t-13 158.5q32 166 181 279.5t341 113.5t297 -113.5t73 -279.5zM558 1021
q-11 -59 22.5 -101t95.5 -42t112.5 42t61.5 101t-23 100t-96 41t-112 -41t-61 -100zM396 433q-16 -81 29.5 -136t127.5 -55q81 0 148 55t83 136t-30 136t-127 55t-148 -55t-83 -136z" />
    <glyph glyph-name="nine" unicode="9" horiz-adv-x="1212" 
d="M587 511q-38 -6 -83 -6q-77 0 -145.5 32.5t-117 88.5t-69 139.5t-2.5 178.5q40 204 218.5 341t390.5 137q105 0 193.5 -36t146.5 -98.5t82.5 -152t4.5 -191.5q-26 -139 -118 -247l-556 -658q-34 -41 -89 -41h-177q-46 0 -58.5 26.5t17.5 61.5zM488 942q-17 -88 29.5 -147
t130.5 -59q85 0 154.5 59t86.5 147q16 87 -31 146t-131 59t-153.5 -59t-85.5 -146z" />
    <glyph glyph-name="colon" unicode=":" horiz-adv-x="606" 
d="M182 876q15 78 80 131t147 53t126 -53t29 -131t-80 -131t-147 -53t-126 53t-29 131zM43 160q15 78 79.5 131t146.5 53t126.5 -53t29.5 -131q-16 -78 -80.5 -131t-146.5 -53t-126.5 53t-28.5 131z" />
    <glyph glyph-name="semicolon" unicode=";" horiz-adv-x="606" 
d="M182 876q15 78 80 131t147 53t126 -53t29 -131t-80 -131t-147 -53t-126 53t-29 131zM48 175q12 64 75.5 116.5t150.5 52.5q81 0 123 -55t25 -142q-26 -134 -125.5 -252t-265.5 -187q-65 -27 -96 36q-18 38 44 77q80 49 110.5 90t23.5 76t-44 85q-32 44 -21 103z" />
    <glyph glyph-name="less" unicode="&#x3c;" horiz-adv-x="1172" 
d="M151 709q10 52 60 77l806 402q66 34 95 -37l29 -71q25 -62 -34 -96l-561 -321l423 -312q58 -43 13 -101l-73 -92q-42 -54 -100 -17l-634 391q-52 33 -40 92z" />
    <glyph glyph-name="equal" unicode="=" horiz-adv-x="1172" 
d="M243 758q-37 0 -54.5 20.5t-10.5 57.5l26 136q12 64 79 64h794q37 0 54.5 -20.5t10.5 -57.5l-26 -136q-12 -64 -79 -64h-794zM152 292q-38 0 -55 20.5t-10 57.5l26 135q12 64 79 64h794q38 0 55 -20.5t10 -57.5l-26 -135q-12 -64 -79 -64h-794z" />
    <glyph glyph-name="greater" unicode="&#x3e;" horiz-adv-x="1172" 
d="M1076 617q-10 -52 -60 -77l-806 -402q-67 -34 -95 36l-29 71q-25 62 33 96l561 322l-423 311q-58 43 -13 101l74 93q42 54 100 17l634 -391q52 -33 40 -92z" />
    <glyph glyph-name="question" unicode="?" horiz-adv-x="1115" 
d="M423 433q-38 0 -56 21.5t-8 58.5q34 126 101 199t217 150q61 31 88 65t36 84q9 49 -22.5 84t-93.5 35t-110.5 -31.5t-74.5 -86.5q-14 -31 -33 -45.5t-49 -14.5h-174q-39 0 -56.5 22t-5.5 59q61 183 215.5 286.5t353.5 103.5q141 0 236 -58.5t130 -153.5t13 -209
q-21 -108 -86.5 -188t-190.5 -150q-75 -42 -110 -75.5t-55 -92.5q-21 -63 -80 -63h-185zM267 159q15 77 82 130t151 53t130.5 -52.5t31.5 -130.5t-81.5 -130.5t-151.5 -52.5q-84 0 -130.5 52.5t-31.5 130.5z" />
    <glyph glyph-name="at" unicode="@" horiz-adv-x="1945" 
d="M509 537q36 186 169 311t299 125q144 0 223 -97l3 13q12 65 78 65h124q37 0 54.5 -20.5t10.5 -57.5l-87 -447q-10 -51 10 -78t58 -27q70 0 134.5 73t88.5 196q33 171 -31.5 318t-207 234t-327.5 87q-187 0 -361 -90t-295.5 -247t-158.5 -345q-27 -142 2 -268t104.5 -217
t197 -144t272.5 -53q222 0 433 108q33 18 58 8.5t36 -45.5l10 -35q18 -64 -38 -93q-262 -135 -536 -135q-197 0 -356.5 67.5t-259.5 183.5t-139 278t-4 345q48 244 207.5 445t388.5 315t476 114q192 0 349.5 -66.5t255 -179t137 -266.5t6.5 -324q-43 -221 -188.5 -353.5
t-350.5 -132.5q-92 0 -156.5 34t-88.5 96q-126 -131 -302 -131q-167 0 -250.5 125.5t-47.5 310.5zM781 537q-17 -88 23 -145t114 -57q76 0 137 56.5t78 145.5q17 88 -22 144.5t-115 56.5q-74 0 -136 -57t-79 -144z" />
    <glyph glyph-name="A" unicode="A" horiz-adv-x="1389" 
d="M981 1400q67 0 77 -66l192 -1257q5 -37 -12 -57t-54 -20h-200q-68 0 -76 67l-27 225h-462l-121 -240q-26 -52 -84 -52h-190q-42 0 -57 24t5 62l684 1263q27 51 86 51h239zM856 551l-58 501l-252 -501h310z" />
    <glyph glyph-name="B" unicode="B" horiz-adv-x="1258" 
d="M127 0q-37 0 -54.5 20.5t-10.5 57.5l244 1258q12 64 79 64h476q194 0 288 -103.5t61 -275.5q-19 -99 -80.5 -174t-147.5 -109q102 -29 153 -117.5t27 -211.5q-35 -179 -176.5 -294t-332.5 -115h-526zM896 989q13 68 -18 106.5t-94 38.5h-196l-56 -290h196q63 0 109 38.5
t59 106.5zM838 427q14 73 -19 117t-100 44h-237l-63 -322h237q66 0 117 44.5t65 116.5z" />
    <glyph glyph-name="C" unicode="C" horiz-adv-x="1515" 
d="M1341 410q54 -47 9 -101q-279 -333 -659 -333q-203 0 -350 95.5t-208.5 261.5t-22.5 367q39 203 162.5 368.5t305 260.5t384.5 95q231 0 375.5 -117t171.5 -328q5 -35 -13.5 -55t-55.5 -20h-208q-32 0 -50 16t-28 49q-25 80 -89.5 123.5t-155.5 43.5q-166 0 -298 -124.5
t-168 -311.5q-37 -187 54 -312t263 -125q240 0 430 186q50 50 102 4z" />
    <glyph glyph-name="D" unicode="D" horiz-adv-x="1445" 
d="M840 1400q316 0 471.5 -192t94.5 -508q-62 -317 -292 -508.5t-546 -191.5h-442q-37 0 -54.5 20.5t-10.5 57.5l244 1258q12 64 79 64h456zM594 1112l-161 -825h98q52 0 103 3q168 9 285 114t154 296q38 199 -46.5 305.5t-262.5 106.5h-170z" />
    <glyph glyph-name="E" unicode="E" horiz-adv-x="1152" 
d="M306 1336q12 64 79 64h746q38 0 55 -21t10 -58l-27 -137q-12 -64 -79 -64h-495l-54 -278h433q37 0 54.5 -20.5t10.5 -57.5l-26 -133q-12 -65 -78 -65h-447l-56 -286h499q37 0 54.5 -20.5t10.5 -57.5l-27 -137q-12 -65 -78 -65h-764q-37 0 -54.5 20.5t-10.5 57.5z" />
    <glyph glyph-name="F" unicode="F" horiz-adv-x="1084" 
d="M306 1336q12 64 79 64h726q38 0 55 -21t10 -58l-28 -141q-13 -64 -78 -64h-476l-58 -300h413q37 0 54.5 -20.5t10.5 -57.5l-27 -142q-12 -64 -79 -64h-427l-91 -468q-12 -64 -78 -64h-185q-37 0 -54.5 20.5t-10.5 57.5z" />
    <glyph glyph-name="G" unicode="G" horiz-adv-x="1540" 
d="M1432 752q38 0 56 -13.5t14 -38.5q-43 -223 -159.5 -387t-286.5 -250.5t-373 -86.5q-144 0 -265 56.5t-198.5 152.5t-108 230.5t-1.5 284.5q39 200 165.5 366.5t309 262t379.5 95.5q230 0 375.5 -108t180.5 -313q7 -36 -11.5 -56.5t-55.5 -20.5h-217q-58 0 -80 61
q-59 150 -251 150q-158 0 -291.5 -125t-169.5 -312q-37 -187 49 -312t249 -125q123 0 223.5 67t148.5 177h-281q-38 0 -55 20.5t-10 57.5l20 103q12 64 79 64h565z" />
    <glyph glyph-name="H" unicode="H" horiz-adv-x="1421" 
d="M306 1336q12 64 79 64h185q38 0 55 -20.5t10 -57.5l-93 -476h465l95 490q12 64 79 64h186q37 0 54.5 -20.5t10.5 -57.5l-244 -1258q-12 -64 -79 -64h-186q-37 0 -54.5 20.5t-10.5 57.5l94 483h-465l-96 -497q-12 -64 -79 -64h-185q-37 0 -54.5 20.5t-10.5 57.5z" />
    <glyph glyph-name="I" unicode="I" horiz-adv-x="636" 
d="M575 1400q37 0 54.5 -20.5t10.5 -57.5l-244 -1258q-12 -64 -79 -64h-185q-37 0 -54.5 20.5t-10.5 57.5l244 1258q12 64 79 64h185z" />
    <glyph glyph-name="J" unicode="J" horiz-adv-x="937" 
d="M629 1336q12 64 79 64h186q38 0 55 -20.5t10 -57.5l-171 -876q-45 -231 -183 -350.5t-329 -119.5q-153 0 -275 74q-57 36 -21 99l58 103q30 55 96 31q57 -19 111 -19q84 0 140 51t75 151z" />
    <glyph glyph-name="K" unicode="K" horiz-adv-x="1262" 
d="M1276 1400q38 0 55 -21.5t9 -59.5q-108 -467 -369 -630l195 -607q12 -37 -4.5 -59.5t-55.5 -22.5h-213q-62 0 -81 60l-169 534q-15 -1 -50 -1h-100l-102 -529q-12 -64 -79 -64h-185q-37 0 -54.5 20.5t-10.5 57.5l244 1258q12 64 79 64h185q38 0 55 -20.5t10 -57.5
l-87 -444h65q158 0 250 102.5t148 353.5q15 66 79 66h186z" />
    <glyph glyph-name="L" unicode="L" horiz-adv-x="1047" 
d="M306 1336q12 64 79 64h185q38 0 55 -20.5t10 -57.5l-202 -1036h459q37 0 54.5 -20.5t10.5 -57.5l-28 -143q-12 -65 -78 -65h-724q-37 0 -54.5 20.5t-10.5 57.5z" />
    <glyph glyph-name="M" unicode="M" horiz-adv-x="1799" 
d="M813 218q-63 0 -82 59l-205 611l-160 -824q-12 -64 -78 -64h-161q-37 0 -54.5 20.5t-10.5 57.5l244 1258q12 64 79 64h215q62 0 81 -59l236 -730l532 744q32 45 87 45h208q37 0 54.5 -20.5t10.5 -57.5l-244 -1258q-12 -64 -79 -64h-162q-37 0 -54.5 20.5t-10.5 57.5
l157 810l-452 -625q-32 -45 -87 -45h-64z" />
    <glyph glyph-name="N" unicode="N" horiz-adv-x="1421" 
d="M306 1336q12 64 79 64h219q63 0 82 -59l278 -840l162 835q12 64 79 64h162q37 0 54.5 -20.5t10.5 -57.5l-244 -1258q-12 -64 -79 -64h-220q-63 0 -82 59l-279 840l-162 -835q-12 -64 -78 -64h-161q-37 0 -54.5 20.5t-10.5 57.5z" />
    <glyph glyph-name="O" unicode="O" horiz-adv-x="1660" 
d="M110 700q39 201 170 367t323 261.5t403 95.5t366 -95.5t222 -261.5t28 -367t-170.5 -367t-323.5 -261.5t-403 -95.5t-366 95.5t-221.5 261.5t-27.5 367zM444 700q-24 -122 12 -222t122 -157t203 -57q179 0 324.5 125t182.5 311q36 186 -61.5 311t-276.5 125t-324.5 -125
t-181.5 -311z" />
    <glyph glyph-name="P" unicode="P" horiz-adv-x="1214" 
d="M468 468l-78 -403q-12 -65 -78 -65h-186q-37 0 -54.5 20.5t-10.5 57.5l244 1258q12 64 79 64h452q219 0 331 -130.5t72 -335.5q-40 -206 -202.5 -336t-382.5 -130h-186zM911 934q18 91 -25 146.5t-138 55.5h-150l-78 -405h150q95 0 159 55t82 148z" />
    <glyph glyph-name="Q" unicode="Q" horiz-adv-x="1660" 
d="M110 700q39 201 170 367t323 261.5t403 95.5t366 -95.5t222 -261.5t28 -367q-52 -266 -259 -463l101 -150q39 -59 -17 -100l-156 -115q-59 -43 -100 18l-110 161q-173 -75 -356 -75q-211 0 -366 95.5t-221.5 261.5t-27.5 367zM1018 615q59 44 100 -17l76 -113
q70 99 94 215q36 186 -61.5 311t-276.5 125t-324.5 -125t-181.5 -311q-24 -122 12 -222t122 -157t203 -57q74 0 141 22l-77 114q-38 57 18 100z" />
    <glyph glyph-name="R" unicode="R" horiz-adv-x="1247" 
d="M836 1400q220 0 332.5 -126t72.5 -330q-28 -147 -123 -255.5t-235 -156.5l179 -449q15 -38 -0.5 -60.5t-56.5 -22.5h-208q-61 0 -83 57l-163 431h-83l-82 -423q-12 -65 -78 -65h-182q-37 0 -54.5 20.5t-10.5 57.5l244 1258q12 64 79 64h452zM594 1136l-77 -399h156
q93 0 157 54.5t81 144.5q18 91 -24.5 145.5t-136.5 54.5h-156z" />
    <glyph glyph-name="S" unicode="S" horiz-adv-x="1200" 
d="M172 370q50 46 102 -4q118 -112 277 -112q88 0 150.5 39.5t75.5 103.5q6 32 -1 57t-30.5 49.5t-72 45t-122.5 36.5q-193 43 -283 151.5t-59 268.5q35 183 191.5 301t368.5 118q193 0 310 -94.5t120 -268.5q0 -35 -19.5 -53t-54.5 -18h-186q-32 0 -48 16.5t-26 51.5
q-25 92 -134 92q-70 0 -121 -33t-62 -86q-12 -62 33.5 -107t171.5 -75q425 -103 361 -436q-37 -191 -202 -314t-400 -123q-264 0 -420 234q-36 55 15 101z" />
    <glyph glyph-name="T" unicode="T" horiz-adv-x="1119" 
d="M510 1114h-264q-38 0 -55 20.5t-10 57.5l28 144q12 64 79 64h873q38 0 55 -20.5t10 -57.5l-28 -144q-12 -64 -79 -64h-278l-203 -1050q-12 -64 -79 -64h-185q-37 0 -54.5 20.5t-10.5 57.5z" />
    <glyph glyph-name="U" unicode="U" horiz-adv-x="1345" 
d="M1200 465q-27 -140 -121 -252t-228.5 -173.5t-283.5 -61.5q-227 0 -355.5 137.5t-87.5 349.5l169 871q12 64 79 64h186q38 0 55 -20.5t10 -57.5l-167 -854q-17 -90 31 -146.5t136 -56.5q89 0 159 56.5t87 146.5l169 868q12 64 79 64h185q38 0 55 -20.5t10 -57.5z" />
    <glyph glyph-name="V" unicode="V" horiz-adv-x="1389" 
d="M668 382l495 966q26 52 85 52h188q42 0 57 -24t-5 -62l-684 -1263q-27 -51 -86 -51h-239q-67 0 -77 66l-192 1257q-5 37 12 57t54 20h198q68 0 76 -67z" />
    <glyph glyph-name="W" unicode="W" horiz-adv-x="1983" 
d="M1258 1400q71 0 74 -70l47 -885l383 900q24 55 83 55h190q41 0 56 -24t-2 -61l-586 -1261q-25 -54 -84 -54h-208q-70 0 -75 69l-61 882l-408 -897q-24 -54 -84 -54h-209q-70 0 -74 69l-95 1256q-3 36 15 55.5t54 19.5h197q71 0 74 -71l31 -884l398 900q24 55 84 55h200z
" />
    <glyph glyph-name="X" unicode="X" horiz-adv-x="1301" 
d="M881 0q-62 0 -82 58l-154 432l-332 -446q-33 -44 -88 -44h-193q-46 0 -58.5 26t15.5 62l492 628l-234 601q-14 38 1 60.5t55 22.5h210q61 0 82 -58l138 -399l303 413q33 44 88 44h194q46 0 58.5 -26t-15.5 -62l-464 -596l251 -633q15 -38 -0.5 -60.5t-56.5 -22.5h-210z
" />
    <glyph glyph-name="Y" unicode="Y" horiz-adv-x="1315" 
d="M724 864l345 491q31 45 87 45h195q45 0 58 -25.5t-14 -62.5l-565 -758l-95 -490q-12 -64 -78 -64h-185q-37 0 -54.5 20.5t-10.5 57.5l92 476l-271 763q-13 37 3 60t56 23h208q64 0 82 -60z" />
    <glyph glyph-name="Z" unicode="Z" horiz-adv-x="1226" 
d="M832 1114h-500q-38 0 -55 20.5t-10 57.5l28 144q12 64 79 64h828q38 0 55 -20.5t10 -57.5l-28 -141q-10 -48 -42 -83l-742 -812h550q37 0 54.5 -20.5t10.5 -57.5l-28 -143q-12 -65 -78 -65h-878q-37 0 -54.5 20.5t-10.5 57.5l27 141q8 46 42 83z" />
    <glyph glyph-name="bracketleft" unicode="[" horiz-adv-x="870" 
d="M375 1436q12 64 79 64h491q38 0 55 -20.5t10 -57.5l-28 -144q-12 -64 -79 -64h-240l-234 -1208h226q38 0 55 -20.5t10 -57.5l-28 -144q-12 -64 -79 -64h-491q-37 0 -54.5 20.5t-10.5 57.5z" />
    <glyph glyph-name="backslash" unicode="\" horiz-adv-x="990" 
d="M204 1379q-12 64 50 88l167 62q35 13 58.5 0t30.5 -49l312 -1638q12 -64 -50 -88l-169 -63q-35 -13 -58.5 0.5t-30.5 49.5z" />
    <glyph glyph-name="bracketright" unicode="]" horiz-adv-x="870" 
d="M531 -216q-12 -64 -79 -64h-491q-37 0 -54.5 20.5t-10.5 57.5l28 143q12 65 78 65h241l234 1208h-227q-38 0 -55 20.5t-10 57.5l28 144q12 64 79 64h492q37 0 54.5 -20.5t10.5 -57.5z" />
    <glyph glyph-name="asciicircum" unicode="^" horiz-adv-x="1252" 
d="M884 1408q60 0 84 -54l190 -422q27 -61 -29 -97l-77 -49q-60 -39 -99 22l-206 330l-347 -343q-49 -49 -102 -3l-38 33q-55 47 -9 101l369 441q34 41 88 41h176z" />
    <glyph glyph-name="underscore" unicode="_" horiz-adv-x="1000" 
d="M-138 -199q12 65 78 65h853q38 0 55 -20.5t10 -57.5l-25 -129q-12 -65 -78 -65h-853q-37 0 -54.5 20.5t-10.5 57.5z" />
    <glyph glyph-name="grave" unicode="`" horiz-adv-x="860" 
d="M498 1498q31 21 56.5 14t41.5 -41l105 -224q27 -59 -27 -97l-50 -34q-58 -38 -100 17l-148 192q-45 59 16 101z" />
    <glyph glyph-name="a" unicode="a" horiz-adv-x="1319" 
d="M61 518q45 230 213 386t380 156q198 0 302 -138l10 49q12 65 78 65h170q37 0 54.5 -20.5t10.5 -57.5l-173 -894q-12 -64 -79 -64h-170q-37 0 -54.5 20.5t-10.5 57.5l7 36q-157 -138 -356 -138q-140 0 -238 72t-135.5 195.5t-8.5 274.5zM380 518q-22 -111 35 -185.5
t162 -74.5t191.5 74.5t108.5 185.5q22 110 -36 185t-163 75q-104 0 -190 -75t-108 -185z" />
    <glyph glyph-name="b" unicode="b" horiz-adv-x="1319" 
d="M1258 518q-45 -230 -213 -386t-379 -156q-201 0 -302 138l-10 -49q-12 -65 -78 -65h-170q-37 0 -54.5 20.5t-10.5 57.5l255 1318q12 64 79 64h170q37 0 54.5 -20.5t10.5 -57.5l-89 -460q154 138 356 138q139 0 237 -72t135.5 -195.5t8.5 -274.5zM939 518
q22 110 -35.5 185t-161.5 75q-105 0 -191.5 -75t-108.5 -185t36 -185t163 -75t190.5 74.5t107.5 185.5z" />
    <glyph glyph-name="c" unicode="c" horiz-adv-x="1182" 
d="M1000 326q51 -48 8 -102q-208 -248 -489 -248q-157 0 -272.5 71.5t-165 196t-20.5 274.5t124.5 274.5t235.5 196t292 71.5q179 0 290.5 -86t138.5 -235q6 -35 -13 -55.5t-56 -20.5h-196q-29 0 -46 12.5t-37 42.5q-41 60 -136 60q-94 0 -175 -75t-103 -185
q-22 -113 35.5 -186.5t178.5 -73.5q141 0 269 101q54 44 102 -1z" />
    <glyph glyph-name="d" unicode="d" horiz-adv-x="1319" 
d="M61 518q45 230 213 386t380 156q198 0 302 -138l92 474q12 64 78 64h170q37 0 54.5 -20.5t10.5 -57.5l-255 -1318q-12 -64 -79 -64h-170q-37 0 -54.5 20.5t-10.5 57.5l7 36q-157 -138 -356 -138q-140 0 -238 72t-135.5 195.5t-8.5 274.5zM380 518q-22 -111 35 -185.5
t162 -74.5t191.5 74.5t108.5 185.5q22 110 -36 185t-163 75q-104 0 -190 -75t-108 -185z" />
    <glyph glyph-name="e" unicode="e" horiz-adv-x="1237" 
d="M366 429q-2 -99 60.5 -155t177.5 -56q161 0 300 85q60 38 100 -18l26 -37q40 -58 -12 -101q-213 -171 -465 -171q-175 0 -298.5 72t-173 195t-20.5 275q29 150 127.5 274.5t243 196t303.5 71.5q155 0 267.5 -70.5t159 -190.5t18.5 -264q-5 -28 -13 -50q-17 -56 -82 -56
h-719zM684 818q-88 0 -160.5 -49.5t-113.5 -136.5h462q-2 87 -51 136.5t-137 49.5z" />
    <glyph glyph-name="f" unicode="f" horiz-adv-x="780" 
d="M885 1273q-7 -33 -21.5 -48.5t-38.5 -13.5q-16 1 -47 1q-133 0 -156 -120l-11 -56h148q37 0 54.5 -20.5t10.5 -57.5l-26 -136q-12 -64 -79 -64h-162l-134 -694q-12 -64 -79 -64h-176q-37 0 -54.5 20.5t-10.5 57.5l132 680h-86q-37 0 -54.5 20.5t-10.5 57.5l26 136
q12 64 79 64h100l12 61q35 179 153 271t316 92q40 0 75 -3q36 -3 51.5 -24.5t8.5 -57.5z" />
    <glyph glyph-name="g" unicode="g" horiz-adv-x="1319" 
d="M61 518q45 230 213 386t380 156q198 0 302 -138l10 49q12 65 78 65h170q38 0 55 -20.5t10 -57.5l-174 -892q-47 -246 -223.5 -388t-435.5 -142q-250 0 -407 170q-45 51 4 102l67 68q47 47 101 3q106 -79 251 -79q126 0 213.5 65.5t109.5 180.5l15 77q-156 -137 -355 -137
q-139 0 -237.5 71.5t-136.5 193t-10 267.5zM380 518q-22 -111 35 -185.5t162 -74.5t191.5 74.5t108.5 185.5q22 110 -36 185t-163 75q-104 0 -190 -75t-108 -185z" />
    <glyph glyph-name="h" unicode="h" horiz-adv-x="1232" 
d="M840 1060q171 0 259 -113.5t53 -296.5l-114 -586q-12 -64 -78 -64h-175q-37 0 -54.5 20.5t-10.5 57.5l101 521q15 77 -23 128t-109 51q-82 0 -148 -58t-86 -160l-96 -495q-12 -65 -78 -65h-175q-37 0 -54.5 20.5t-10.5 57.5l255 1318q12 64 79 64h175q37 0 54.5 -20.5
t10.5 -57.5l-88 -455q135 133 313 133z" />
    <glyph glyph-name="i" unicode="i" horiz-adv-x="576" 
d="M258 1307q14 74 77 124.5t141 50.5t121 -50.5t29 -124.5q-15 -75 -77.5 -125t-140.5 -50t-121.5 50t-28.5 125zM215 972q12 64 79 64h175q37 0 54.5 -20.5t10.5 -57.5l-173 -894q-12 -64 -79 -64h-175q-37 0 -54.5 20.5t-10.5 57.5z" />
    <glyph glyph-name="j" unicode="j" horiz-adv-x="576" 
d="M258 1307q14 74 77 124.5t141 50.5t121 -50.5t29 -124.5q-15 -75 -77.5 -125t-140.5 -50t-121.5 50t-28.5 125zM215 972q12 64 79 64h175q38 0 55 -20.5t10 -57.5l-207 -1062q-33 -174 -148 -267t-291 -93q-12 0 -40 2q-34 3 -49 25t-8 58l25 128q12 65 67 65t86.5 27
t43.5 87z" />
    <glyph glyph-name="k" unicode="k" horiz-adv-x="1106" 
d="M1051 1036q38 0 55.5 -21.5t7.5 -59.5q-82 -325 -281 -448l138 -425q12 -37 -4.5 -59.5t-55.5 -22.5h-200q-63 0 -81 60l-110 368h-90l-70 -364q-12 -64 -79 -64h-175q-37 0 -54.5 20.5t-10.5 57.5l255 1318q12 64 79 64h175q37 0 54.5 -20.5t10.5 -57.5l-132 -679h65
q177 0 248 267q18 66 80 66h175z" />
    <glyph glyph-name="l" unicode="l" horiz-adv-x="576" 
d="M298 1396q12 64 78 64h175q37 0 54.5 -20.5t10.5 -57.5l-255 -1318q-12 -64 -79 -64h-175q-37 0 -54.5 20.5t-10.5 57.5z" />
    <glyph glyph-name="m" unicode="m" horiz-adv-x="1878" 
d="M1495 1060q163 0 250 -114.5t52 -295.5l-114 -586q-12 -64 -78 -64h-175q-37 0 -54.5 20.5t-10.5 57.5l101 521q14 72 -19.5 125.5t-102.5 53.5q-76 0 -141.5 -58t-85.5 -160l-96 -495q-12 -65 -78 -65h-175q-37 0 -54.5 20.5t-10.5 57.5l101 521q15 78 -18.5 128.5
t-103.5 50.5q-76 0 -141.5 -57.5t-84.5 -157.5l-97 -499q-12 -64 -78 -64h-175q-37 0 -54.5 20.5t-10.5 57.5l173 894q12 64 79 64h175q38 0 55 -21t10 -58l-6 -28q133 127 304 127q109 0 187 -51.5t109 -144.5q72 93 168.5 146.5t199.5 53.5z" />
    <glyph glyph-name="n" unicode="n" horiz-adv-x="1232" 
d="M840 1060q171 0 259 -113.5t53 -296.5l-114 -586q-12 -64 -78 -64h-175q-37 0 -54.5 20.5t-10.5 57.5l101 521q14 71 -24.5 125t-107.5 54q-82 0 -148 -58t-86 -160l-96 -495q-12 -65 -78 -65h-175q-37 0 -54.5 20.5t-10.5 57.5l173 894q12 64 79 64h175q37 0 54.5 -20.5
t10.5 -57.5l-6 -31q135 133 313 133z" />
    <glyph glyph-name="o" unicode="o" horiz-adv-x="1281" 
d="M61 518q22 112 86 212.5t155 173t207 114.5t238 42q163 0 282 -71.5t170 -196t22 -274.5t-128.5 -274.5t-246.5 -196t-310 -71.5q-122 0 -222 42t-162.5 114.5t-87.5 173t-3 212.5zM380 518q-22 -111 38.5 -185.5t172.5 -74.5t200.5 74.5t110.5 185.5q22 110 -38 185
t-172 75q-111 0 -200.5 -74.5t-111.5 -185.5z" />
    <glyph glyph-name="p" unicode="p" horiz-adv-x="1319" 
d="M1258 518q-45 -230 -213 -386t-379 -156q-201 0 -302 138l-100 -514q-12 -64 -79 -64h-170q-38 0 -55 20.5t-10 57.5l264 1358q12 64 79 64h170q37 0 54.5 -20.5t10.5 -57.5l-7 -36q154 138 356 138q139 0 237 -72t135.5 -195.5t8.5 -274.5zM939 518q22 110 -35.5 185
t-161.5 75q-105 0 -191.5 -75t-108.5 -185t36 -185t163 -75t190.5 74.5t107.5 185.5z" />
    <glyph glyph-name="q" unicode="q" horiz-adv-x="1319" 
d="M61 518q45 230 213 386t380 156q198 0 302 -138l10 49q12 65 78 65h170q38 0 55 -20.5t10 -57.5l-264 -1358q-12 -64 -79 -64h-170q-38 0 -55 20.5t-10 57.5l98 500q-157 -138 -356 -138q-140 0 -238 72t-135.5 195.5t-8.5 274.5zM380 518q-22 -111 35 -185.5t162 -74.5
t191.5 74.5t108.5 185.5q22 110 -36 185t-163 75q-104 0 -190 -75t-108 -185z" />
    <glyph glyph-name="r" unicode="r" horiz-adv-x="840" 
d="M700 778q-85 0 -155.5 -61.5t-91.5 -166.5l-94 -485q-12 -65 -78 -65h-175q-37 0 -54.5 20.5t-10.5 57.5l173 894q12 64 79 64h175q38 0 55 -21t10 -58l-8 -38q136 141 302 141h3q34 -1 47 -25.5t4 -60.5l-41 -150q-17 -62 -88 -51q-28 5 -52 5z" />
    <glyph glyph-name="s" unicode="s" horiz-adv-x="953" 
d="M106 286q47 46 102 0q84 -66 195 -66q60 0 97 22t45 61t-23 64.5t-115 43.5q-157 34 -226 121t-43 217q26 136 151 223.5t294 87.5q156 0 242.5 -71t100.5 -194q4 -35 -15.5 -54t-55.5 -19h-143q-20 0 -34.5 8.5t-21.5 17.5t-23 33q-25 35 -80 35q-43 0 -74.5 -19.5
t-38.5 -51.5q-7 -36 23 -62.5t109 -43.5q335 -74 283 -338q-27 -142 -159.5 -233.5t-320.5 -91.5q-201 0 -326 164q-40 53 10 101z" />
    <glyph glyph-name="t" unicode="t" horiz-adv-x="802" 
d="M486 375q-12 -63 13.5 -92t96.5 -29h23q39 2 56.5 -17.5t10.5 -57.5l-20 -102q-11 -58 -60 -76q-77 -25 -162 -25q-167 0 -243.5 96.5t-42.5 269.5l81 416h-90q-37 0 -54.5 20.5t-10.5 57.5l26 136q12 64 79 64h104l37 191q12 61 73 70l184 27q39 6 58 -14.5t11 -59.5
l-41 -214h146q37 0 54.5 -20.5t10.5 -57.5l-26 -136q-12 -64 -79 -64h-160z" />
    <glyph glyph-name="u" unicode="u" horiz-adv-x="1232" 
d="M392 -24q-172 0 -260 113.5t-53 295.5l114 587q12 64 79 64h175q38 0 55 -20.5t10 -57.5l-102 -522q-14 -73 24.5 -126t107.5 -53q83 0 149 60t86 166l95 489q12 64 79 64h175q37 0 54.5 -20.5t10.5 -57.5l-173 -894q-12 -64 -79 -64h-175q-38 0 -55.5 20.5t-10.5 57.5
l6 30q-135 -132 -312 -132z" />
    <glyph glyph-name="v" unicode="v" horiz-adv-x="1092" 
d="M1077 1036q42 0 56.5 -24t-5.5 -62l-478 -899q-27 -51 -85 -51h-230q-68 0 -77 66l-128 893q-5 36 12.5 56.5t54.5 20.5h188q69 0 75 -69l55 -602l298 618q25 53 85 53h179z" />
    <glyph glyph-name="w" unicode="w" horiz-adv-x="1612" 
d="M994 1036q71 0 74 -71l22 -577l255 593q24 55 84 55h171q41 0 56.5 -24t-2.5 -61l-438 -898q-26 -53 -85 -53h-202q-69 0 -74 70l-32 535l-246 -551q-24 -54 -84 -54h-202q-70 0 -76 68l-89 893q-4 36 14.5 55.5t54.5 19.5h179q71 0 74 -70l24 -578l253 593q24 55 84 55
h185z" />
    <glyph glyph-name="x" unicode="x" horiz-adv-x="1092" 
d="M691 0q-62 0 -82 57l-101 271l-214 -284q-34 -44 -88 -44h-176q-46 0 -58.5 26t16.5 62l348 440l-160 425q-14 38 2 60.5t56 22.5h192q62 0 81 -60l79 -250l187 265q31 45 87 45h177q45 0 58 -25.5t-14 -62.5l-323 -420l181 -444q15 -38 -0.5 -61t-55.5 -23h-192z" />
    <glyph glyph-name="y" unicode="y" horiz-adv-x="1092" 
d="M110 -464q-43 0 -57 25t8 62l227 377l-156 958q-6 37 11.5 57.5t54.5 20.5h188q67 0 75 -68l62 -560l290 576q26 52 84 52h179q43 0 57 -24.5t-6 -61.5l-753 -1364q-27 -50 -86 -50h-178z" />
    <glyph glyph-name="z" unicode="z" horiz-adv-x="1032" 
d="M19 197q10 49 45 83l516 480h-346q-38 0 -55 20.5t-10 57.5l26 134q12 64 79 64h674q38 0 55 -20.5t10 -57.5l-23 -119q-10 -50 -46 -83l-517 -480h393q37 0 54.5 -20.5t10.5 -57.5l-26 -133q-12 -65 -78 -65h-720q-37 0 -54.5 20.5t-10.5 57.5z" />
    <glyph glyph-name="braceleft" unicode="{" horiz-adv-x="870" 
d="M152 691q6 29 23.5 44.5t50.5 23.5q60 15 100 57.5t53 105.5l47 244q28 142 149.5 238t277.5 96h92q38 0 55 -20.5t10 -57.5l-28 -144q-12 -64 -79 -64h-16q-53 0 -92.5 -32.5t-49.5 -83.5l-49 -253q-18 -92 -76 -152t-150 -83q83 -23 117.5 -83t16.5 -152l-49 -253
q-10 -51 17.5 -83.5t80.5 -32.5h2q38 0 55 -20.5t10 -57.5l-28 -144q-12 -64 -79 -64h-106q-156 0 -240.5 96t-56.5 238l47 243q12 60 -8.5 101.5t-68.5 58.5q-36 13 -50 31t-8 51z" />
    <glyph glyph-name="bar" unicode="|" horiz-adv-x="664" 
d="M354 1436q12 64 79 64h166q37 0 54.5 -20.5t10.5 -57.5l-318 -1638q-12 -64 -79 -64h-166q-37 0 -54.5 20.5t-10.5 57.5z" />
    <glyph glyph-name="braceright" unicode="}" horiz-adv-x="870" 
d="M754 529q-6 -29 -23.5 -44.5t-50.5 -23.5q-60 -15 -100 -57.5t-53 -106.5l-47 -243q-28 -142 -149.5 -238t-277.5 -96h-92q-37 0 -54.5 20.5t-10.5 57.5l28 143q12 65 78 65h16q53 0 93 32.5t50 83.5l49 253q18 92 76 152t150 83q-83 23 -117.5 83t-16.5 152l49 253
q10 51 -18 83.5t-81 32.5h-2q-38 0 -55 20.5t-10 57.5l28 144q12 64 79 64h107q156 0 240.5 -96t56.5 -238l-47 -244q-12 -60 8.5 -101t68.5 -58q36 -13 50 -31t8 -51z" />
    <glyph glyph-name="asciitilde" unicode="~" horiz-adv-x="1172" 
d="M572 511q-30 30 -43.5 42t-37 25.5t-43.5 13.5q-45 0 -81 -64q-33 -59 -91 -48l-148 30q-36 8 -49.5 31.5t1.5 58.5q60 138 150.5 211.5t203.5 73.5q128 0 219 -87q28 -28 43 -41.5t38 -26.5t43 -13q44 0 80 64q33 59 91 48l148 -30q37 -8 50.5 -31.5t-1.5 -58.5
q-61 -139 -151 -212t-203 -73q-130 0 -219 87z" />
    <glyph glyph-name="uni00A0" unicode="&#xa0;" horiz-adv-x="606" 
 />
    <glyph glyph-name="exclamdown" unicode="&#xa1;" horiz-adv-x="629" 
d="M187 877q15 77 82 130t152 53q84 0 130 -53t31 -130t-82 -130t-151 -53t-130.5 52.5t-31.5 130.5zM179 539q13 63 79 63h134q37 0 54.5 -20.5t11.5 -57.5l-138 -822q-11 -66 -77 -66h-184q-38 0 -54.5 21t-8.5 58z" />
    <glyph glyph-name="cent" unicode="&#xa2;" horiz-adv-x="1182" 
d="M1000 326q51 -48 8 -102q-146 -174 -331 -226l-22 -112q-12 -64 -78 -64h-152q-37 0 -54.5 20.5t-10.5 57.5l18 93q-177 45 -265.5 189.5t-51.5 335.5q36 188 175 332t326 191l22 116q12 64 79 64h152q38 0 55 -20.5t10 -57.5l-20 -101q116 -30 188.5 -109t92.5 -194
q7 -35 -12 -55.5t-56 -20.5h-196q-29 0 -46 12.5t-37 42.5q-41 60 -136 60q-94 0 -175 -75t-103 -185q-22 -113 35.5 -186.5t178.5 -73.5q141 0 269 101q54 44 102 -1z" />
    <glyph glyph-name="sterling" unicode="&#xa3;" horiz-adv-x="1171" 
d="M210 536q-37 0 -54.5 20.5t-10.5 57.5l15 76q12 65 78 65h49q-40 146 -17 267q33 168 186.5 285t344.5 117q174 0 281.5 -98.5t108.5 -273.5q0 -35 -20 -53t-54 -18h-183q-32 0 -48 16.5t-26 52.5q-23 86 -111 86q-54 0 -96 -37t-53 -93q-11 -57 14 -183l13 -68h221
q37 0 54.5 -20.5t10.5 -57.5l-15 -76q-12 -65 -78 -65h-190q-36 -164 -170 -249h490q37 0 54.5 -20.5t10.5 -57.5l-28 -144q-12 -65 -78 -65h-797q-37 0 -54.5 20.5t-10.5 57.5l28 141q9 49 59 79q131 80 164 238h-88z" />
    <glyph glyph-name="currency" unicode="&#xa4;" horiz-adv-x="1278" 
d="M184 652q23 120 109 225l-93 117q-44 56 11 101l104 85q56 47 101 -11l98 -122q117 52 238 52q120 0 218 -52l158 133q55 46 101 -9l55 -66q45 -54 -9 -101l-150 -127q44 -104 21 -225q-23 -119 -108 -225l93 -117q44 -56 -11 -101l-104 -85q-56 -47 -101 10l-99 123
q-117 -52 -238 -52q-120 0 -218 52l-157 -132q-55 -47 -101 8l-55 66q-45 54 9 101l150 127q-45 103 -22 225zM478 652q-16 -80 27.5 -135.5t122.5 -55.5t143.5 55t80.5 136q16 80 -27.5 135.5t-122.5 55.5t-143.5 -55t-80.5 -136z" />
    <glyph glyph-name="yen" unicode="&#xa5;" horiz-adv-x="1315" 
d="M488 500l11 60l-8 20h-241q-37 0 -54.5 20.5t-10.5 57.5l3 18q12 64 79 64h167l-206 577q-13 38 2.5 60.5t55.5 22.5h208q63 0 81 -60l149 -480l345 495q32 45 87 45h193q45 0 58 -26t-14 -62l-428 -572h154q37 0 54.5 -20.5t10.5 -57.5l-3 -18q-12 -64 -79 -64h-257
l-14 -20l-11 -60h253q37 0 54.5 -20.5t10.5 -57.5l-3 -18q-12 -64 -79 -64h-267l-53 -276q-12 -64 -79 -64h-186q-37 0 -54.5 20.5t-10.5 57.5l51 262h-253q-37 0 -54.5 20.5t-10.5 57.5l3 18q12 64 79 64h267z" />
    <glyph glyph-name="brokenbar" unicode="&#xa6;" horiz-adv-x="664" 
d="M355 1436q12 64 78 64h166q37 0 54.5 -20.5t10.5 -57.5l-127 -658q-12 -64 -79 -64h-166q-37 0 -54.5 20.5t-10.5 57.5zM164 456q12 64 79 64h166q38 0 55 -20.5t10 -57.5l-128 -658q-12 -64 -79 -64h-166q-37 0 -54.5 20.5t-10.5 57.5z" />
    <glyph glyph-name="section" unicode="&#xa7;" horiz-adv-x="1027" 
d="M671 1190q-44 0 -72 -21t-35 -54q-7 -36 35.5 -65.5t160.5 -70.5q147 -51 201.5 -126.5t31.5 -195.5q-16 -84 -80.5 -150t-164.5 -106q179 -90 142 -278q-27 -142 -159.5 -232.5t-339.5 -90.5q-122 0 -218 52t-160 144q-39 56 20 99l52 37q51 37 101 -10q95 -87 219 -87
q57 0 90 21t39 55q7 38 -23 64.5t-125 57.5q-168 53 -236.5 133t-42.5 212q35 182 231 261q-164 92 -128 273q27 140 162 226t334 86q160 0 254 -69.5t111 -196.5q4 -35 -15.5 -54.5t-55.5 -19.5h-168q-29 0 -46 13.5t-33 43.5q-25 49 -82 49zM530 487q54 17 89.5 51
t43.5 78q18 93 -96 134q-53 -17 -88 -51.5t-44 -78.5q-18 -92 95 -133z" />
    <glyph glyph-name="dieresis" unicode="&#xa8;" horiz-adv-x="860" 
d="M218 1292q13 68 68.5 114t123.5 46q69 0 106.5 -46t24.5 -114q-14 -68 -69 -114t-124 -46q-68 0 -105.5 46.5t-24.5 113.5zM621 1292q13 68 68.5 114t124.5 46q68 0 105.5 -46t24.5 -114q-14 -68 -69 -114t-123 -46q-69 0 -107 46t-24 114z" />
    <glyph glyph-name="copyright" unicode="&#xa9;" horiz-adv-x="1608" 
d="M80 700q0 149 56.5 283t153.5 231t231 153.5t283 56.5t283 -56.5t231 -153.5t153.5 -231t56.5 -283t-56.5 -283t-153.5 -231t-231 -153.5t-283 -56.5t-283 56.5t-231 153.5t-153.5 231t-56.5 283zM212 700q0 -165 78.5 -303t214.5 -217.5t299 -79.5t299 79.5t214.5 217.5
t78.5 303t-78.5 303t-214.5 217.5t-299 79.5t-299 -79.5t-214.5 -217.5t-78.5 -303zM404 698q0 172 111 283.5t284 111.5q141 0 234 -64.5t131 -169.5q13 -35 -5.5 -57t-57.5 -22h-91q-28 0 -45 12t-40 40q-41 51 -115 51q-67 0 -117 -51t-50 -134q0 -87 54 -138t141 -51
t158 54q53 42 101 9l19 -13q62 -42 21 -100q-117 -160 -320 -160q-182 0 -297.5 113t-115.5 286z" />
    <glyph glyph-name="ordfeminine" unicode="&#xaa;" horiz-adv-x="929" 
d="M155 1036q31 160 149 270t261 110q125 0 189 -93l2 13q12 64 79 64h102q38 0 55 -20.5t10 -57.5l-114 -586q-12 -64 -79 -64h-102q-38 0 -55 20t-10 56q-100 -92 -225 -92q-143 0 -218 110t-44 270zM405 1036q-13 -67 20 -112.5t95 -45.5t112.5 45t64.5 113
q13 68 -20 113t-95 45t-113 -45.5t-64 -112.5z" />
    <glyph glyph-name="guillemotleft" unicode="&#xab;" horiz-adv-x="1297" 
d="M112 662q10 52 56 79l470 271q32 18 57.5 9.5t39.5 -41.5l10 -22q26 -60 -27 -98l-333 -237l230 -225q49 -49 6 -101l-38 -46q-45 -54 -101 -12l-348 259q-48 36 -36 93zM637 662q10 52 56 79l470 271q32 18 57.5 9.5t39.5 -41.5l10 -22q26 -60 -27 -98l-333 -237
l230 -225q49 -49 6 -101l-38 -46q-45 -54 -101 -12l-348 259q-48 36 -36 93z" />
    <glyph glyph-name="logicalnot" unicode="&#xac;" horiz-adv-x="1172" 
d="M741 523h-544q-38 0 -55 20.5t-10 57.5l27 139q12 64 79 64h794q38 0 55 -20.5t10 -57.5l-86 -442q-12 -64 -79 -64h-170q-38 0 -55 20.5t-10 57.5z" />
    <glyph glyph-name="uni00AD" unicode="&#xad;" horiz-adv-x="844" 
d="M196 518q-38 0 -55 20.5t-10 57.5l29 150q12 64 79 64h466q38 0 55 -20.5t10 -57.5l-29 -150q-12 -64 -79 -64h-466z" />
    <glyph glyph-name="registered" unicode="&#xae;" horiz-adv-x="1608" 
d="M80 700q0 149 56.5 283t153.5 231t231 153.5t283 56.5t283 -56.5t231 -153.5t153.5 -231t56.5 -283t-56.5 -283t-153.5 -231t-231 -153.5t-283 -56.5t-283 56.5t-231 153.5t-153.5 231t-56.5 283zM212 700q0 -165 78.5 -303t214.5 -217.5t299 -79.5t299 79.5t214.5 217.5
t78.5 303t-78.5 303t-214.5 217.5t-299 79.5t-299 -79.5t-214.5 -217.5t-78.5 -303zM846 1084q119 0 197.5 -72.5t78.5 -183.5q0 -73 -36 -131t-98 -89l111 -208q20 -38 5.5 -62t-56.5 -24h-73q-59 0 -85 52l-106 207h-34v-187q0 -34 -19 -53t-53 -19h-64q-34 0 -53 19
t-19 53v626q0 34 19 53t53 19h232zM750 909v-177h72q41 0 66.5 24.5t25.5 63.5t-25.5 64t-66.5 25h-72z" />
    <glyph glyph-name="macron" unicode="&#xaf;" horiz-adv-x="860" 
d="M270 1342q12 64 79 64h494q38 0 55 -20.5t10 -57.5l-18 -94q-12 -64 -79 -64h-494q-37 0 -54.5 20.5t-10.5 57.5z" />
    <glyph glyph-name="degree" unicode="&#xb0;" horiz-adv-x="808" 
d="M104 1139q0 120 86.5 202.5t213.5 82.5t213.5 -82.5t86.5 -202.5t-86.5 -202t-213.5 -82t-213.5 82t-86.5 202zM310 1139q0 -40 26.5 -67t67.5 -27t67.5 27t26.5 67q0 41 -26.5 68t-67.5 27t-67.5 -27t-26.5 -68z" />
    <glyph glyph-name="plusminus" unicode="&#xb1;" horiz-adv-x="1172" 
d="M454 652h-232q-38 0 -55 20.5t-10 57.5l24 125q12 64 79 64h246l47 245q12 64 79 64h169q37 0 54.5 -20.5t10.5 -57.5l-45 -231h232q38 0 55 -20.5t10 -57.5l-24 -125q-12 -64 -79 -64h-246l-47 -245q-12 -64 -79 -64h-169q-37 0 -54.5 20.5t-10.5 57.5zM96 0
q-38 0 -55 20.5t-10 57.5l24 124q12 65 78 65h793q38 0 55 -20.5t10 -57.5l-24 -124q-12 -65 -78 -65h-793z" />
    <glyph glyph-name="uni00B2" unicode="&#xb2;" 
d="M441 666h223q38 0 55 -21t10 -58l-14 -71q-13 -64 -78 -64h-480q-38 0 -54.5 21t-9.5 58l13 64q10 48 46 82l343 309q85 75 97 138q8 39 -11 63.5t-57 24.5q-57 0 -94 -56q-19 -30 -37 -43t-47 -13h-82q-41 0 -58 23t-1 59q49 110 145.5 176t221.5 66q142 0 220.5 -78
t54.5 -201q-27 -139 -180 -277z" />
    <glyph glyph-name="uni00B3" unicode="&#xb3;" 
d="M525 760q10 50 -16.5 84t-75.5 34q-64 5 -86 40l-8 13q-34 55 14 100l172 158h-215q-37 0 -54.5 20.5t-10.5 57.5l13 69q12 64 79 64h445q38 0 55 -21t10 -58l-14 -70q-10 -51 -47 -82l-165 -145q94 -31 135.5 -109t21.5 -181q-26 -135 -140.5 -220.5t-270.5 -85.5
q-161 0 -253 135q-35 54 18 99l33 28q47 39 101 -6q51 -43 121 -43q49 0 88.5 34.5t49.5 84.5z" />
    <glyph glyph-name="acute" unicode="&#xb4;" horiz-adv-x="860" 
d="M629 1486q48 56 102 6l62 -56q56 -52 -2 -102l-246 -212q-52 -45 -101 1l-18 16q-52 48 -6 102z" />
    <glyph glyph-name="uni00B5" unicode="&#xb5;" horiz-adv-x="1252" 
d="M213 972q12 64 79 64h175q37 0 54.5 -20.5t10.5 -57.5l-102 -524q-15 -76 23 -126.5t109 -50.5q81 0 147.5 58t86.5 160l96 497q12 64 79 64h175q37 0 54.5 -20.5t10.5 -57.5l-173 -894q-12 -64 -79 -64h-175q-38 0 -55.5 20.5t-10.5 57.5l6 30q-126 -123 -315 -123
q-33 0 -65 6l-76 -391q-12 -64 -79 -64h-175q-37 0 -54.5 20.5t-10.5 57.5z" />
    <glyph glyph-name="paragraph" unicode="&#xb6;" horiz-adv-x="1183" 
d="M499 536q-188 0 -316 124.5t-128 307.5t128 307.5t316 124.5h466q35 0 53.5 -19t18.5 -53v-1518q0 -34 -18.5 -53t-53.5 -19h-54q-35 0 -53.5 19t-18.5 53v1392h-92v-1392q0 -34 -18.5 -53t-53.5 -19h-54q-35 0 -53.5 19t-18.5 53v726h-50z" />
    <glyph glyph-name="periodcentered" unicode="&#xb7;" horiz-adv-x="606" 
d="M138 653q16 78 80.5 131t146.5 53t126.5 -53t28.5 -131q-15 -78 -79.5 -131t-146.5 -53t-126.5 53t-29.5 131z" />
    <glyph glyph-name="cedilla" unicode="&#xb8;" horiz-adv-x="860" 
d="M347 -293q5 30 -15 52t-57 22q-51 8 -75 40q-8 11 2 63l10 52q12 64 79 64h52q38 0 54.5 -21t9.5 -58l-3 -14q93 -11 134 -69.5t27 -134.5q-19 -97 -114.5 -160t-222.5 -63q-92 0 -158.5 39t-90.5 112q-11 35 8.5 56t57.5 21h55q14 0 26 -5t17.5 -9t19.5 -18l19 -19
q24 -21 65 -21q40 0 66.5 19t33.5 52z" />
    <glyph glyph-name="uni00B9" unicode="&#xb9;" 
d="M680 1400q38 0 55 -20.5t10 -57.5l-157 -806q-12 -64 -79 -64h-111q-37 0 -54.5 20.5t-10.5 57.5l122 627l-83 -41q-69 -34 -94 38l-12 37q-21 64 39 94l195 95q40 20 89 20h91z" />
    <glyph glyph-name="ordmasculine" unicode="&#xba;" horiz-adv-x="929" 
d="M159 1036q31 159 170.5 269.5t309.5 110.5q171 0 267.5 -110.5t65.5 -269.5t-170.5 -269.5t-310.5 -110.5q-170 0 -266.5 110.5t-65.5 269.5zM409 1036q-13 -67 22.5 -112.5t102.5 -45.5t120 45t67 113q13 68 -22.5 113t-102.5 45t-120.5 -45.5t-66.5 -112.5z" />
    <glyph glyph-name="guillemotright" unicode="&#xbb;" horiz-adv-x="1297" 
d="M700 585q-10 -52 -56 -79l-469 -271q-32 -18 -57.5 -9.5t-39.5 41.5l-10 23q-26 60 27 98l333 235l-231 227q-49 48 -5 101l38 45q45 54 101 12l347 -259q48 -36 36 -93zM1225 585q-10 -52 -56 -79l-469 -271q-32 -18 -57.5 -9.5t-39.5 41.5l-10 23q-26 60 27 98l333 235
l-231 227q-48 48 -5 101l38 45q45 54 101 12l347 -259q48 -36 36 -93z" />
    <glyph glyph-name="onequarter" unicode="&#xbc;" horiz-adv-x="1950" 
d="M1361 1392q39 58 99 22l49 -29q64 -38 22 -99l-873 -1281q-39 -58 -99 -22l-50 29q-31 18 -36.5 44.5t14.5 55.5zM680 1400q38 0 55 -20.5t10 -57.5l-157 -806q-12 -64 -79 -64h-111q-37 0 -54.5 20.5t-10.5 57.5l122 627l-83 -41q-69 -34 -94 38l-12 37q-21 64 39 94
l195 95q40 20 89 20h91zM1129 302q8 45 40 83l452 523q34 40 88 40h97q37 0 54.5 -20.5t10.5 -57.5l-98 -504h19q37 0 54.5 -20.5t10.5 -57.5l-12 -64q-12 -64 -79 -64h-33l-19 -96q-12 -64 -78 -64h-95q-37 0 -54.5 20.5t-10.5 57.5l16 82h-310q-38 0 -55 20.5t-10 57.5z
M1531 365l48 247l-212 -247h164z" />
    <glyph glyph-name="onehalf" unicode="&#xbd;" horiz-adv-x="1950" 
d="M1361 1392q39 58 99 22l49 -29q64 -38 22 -99l-873 -1281q-39 -58 -99 -22l-50 29q-31 18 -36.5 44.5t14.5 55.5zM680 1400q38 0 55 -20.5t10 -57.5l-157 -806q-12 -64 -79 -64h-111q-37 0 -54.5 20.5t-10.5 57.5l122 627l-83 -41q-69 -34 -94 38l-12 37q-21 64 39 94
l195 95q40 20 89 20h91zM1493 214h223q37 0 54.5 -20.5t10.5 -57.5l-14 -71q-12 -65 -78 -65h-479q-37 0 -54.5 20.5t-10.5 57.5l13 65q10 48 46 82l343 309q85 75 97 138q8 39 -11 63.5t-57 24.5q-57 0 -94 -56q-19 -30 -37 -43t-47 -13h-82q-41 0 -58 23t-1 59
q49 110 145.5 176t221.5 66q142 0 220.5 -78t54.5 -201q-27 -139 -180 -277z" />
    <glyph glyph-name="threequarters" unicode="&#xbe;" horiz-adv-x="1950" 
d="M1361 1392q39 58 99 22l49 -29q64 -38 22 -99l-873 -1281q-39 -58 -99 -22l-50 29q-31 18 -36.5 44.5t14.5 55.5zM525 760q10 50 -16.5 84t-75.5 34q-64 5 -86 40l-8 13q-34 55 14 100l172 158h-215q-37 0 -54.5 20.5t-10.5 57.5l13 69q12 64 79 64h445q38 0 55 -21
t10 -58l-14 -70q-10 -51 -47 -82l-165 -145q94 -31 135.5 -109t21.5 -181q-26 -135 -140.5 -220.5t-270.5 -85.5q-161 0 -253 135q-35 54 18 99l33 28q47 39 101 -6q51 -43 121 -43q49 0 88.5 34.5t49.5 84.5zM1129 302q8 45 40 83l452 523q34 40 88 40h97q37 0 54.5 -20.5
t10.5 -57.5l-98 -504h19q37 0 54.5 -20.5t10.5 -57.5l-12 -64q-12 -64 -79 -64h-33l-19 -96q-12 -64 -78 -64h-95q-37 0 -54.5 20.5t-10.5 57.5l16 82h-310q-38 0 -55 20.5t-10 57.5zM1531 365l48 247l-212 -247h164z" />
    <glyph glyph-name="questiondown" unicode="&#xbf;" horiz-adv-x="1115" 
d="M849 876q-15 -77 -82.5 -130t-151.5 -53t-130.5 52.5t-31.5 130.5t82 131t152 53q84 0 130.5 -53t31.5 -131zM693 602q38 0 56 -21.5t8 -58.5q-33 -126 -100.5 -199t-217.5 -150q-61 -32 -88 -65.5t-37 -83.5q-9 -48 22.5 -83t93.5 -35t110.5 31.5t75.5 86.5
q14 31 32.5 45t48.5 14h175q39 0 56.5 -22t4.5 -59q-61 -182 -215.5 -285.5t-353.5 -103.5q-137 0 -232.5 57t-133 150t-15.5 204q21 107 88 191.5t193 155.5q72 41 107.5 74.5t56.5 93.5q21 63 80 63h185z" />
    <glyph glyph-name="Agrave" unicode="&#xc0;" horiz-adv-x="1389" 
d="M816 1888q31 21 56.5 14t41.5 -41l105 -224q27 -59 -27 -97l-50 -34q-59 -39 -101 16l-148 193q-45 59 16 101zM981 1400q67 0 77 -66l192 -1257q5 -37 -12 -57t-54 -20h-200q-68 0 -76 67l-27 225h-462l-121 -240q-26 -52 -84 -52h-190q-42 0 -57 24t5 62l684 1263
q27 51 86 51h239zM856 551l-58 501l-252 -501h310z" />
    <glyph glyph-name="Aacute" unicode="&#xc1;" horiz-adv-x="1389" 
d="M988 1876q48 56 102 6l61 -56q55 -52 -2 -102l-245 -212q-52 -45 -101 1l-18 16q-52 48 -6 102zM981 1400q67 0 77 -66l192 -1257q5 -37 -12 -57t-54 -20h-200q-68 0 -76 67l-27 225h-462l-121 -240q-26 -52 -84 -52h-190q-42 0 -57 24t5 62l684 1263q27 51 86 51h239z
M856 551l-58 501l-252 -501h310z" />
    <glyph glyph-name="Acircumflex" unicode="&#xc2;" horiz-adv-x="1389" 
d="M1048 1851q59 0 86 -51l93 -173q32 -60 -24 -98l-49 -33q-57 -39 -100 16l-134 168l-211 -178q-52 -44 -101 1l-17 15q-54 48 -5 102l179 192q36 39 89 39h194zM981 1400q67 0 77 -66l192 -1257q5 -37 -12 -57t-54 -20h-200q-68 0 -76 67l-27 225h-462l-121 -240
q-26 -52 -84 -52h-190q-42 0 -57 24t5 62l684 1263q27 51 86 51h239zM856 551l-58 501l-252 -501h310z" />
    <glyph glyph-name="Atilde" unicode="&#xc3;" horiz-adv-x="1389" 
d="M908 1555q-59 36 -84 36q-20 0 -37 -18q-25 -27 -45 -37.5t-48 -4.5l-97 20q-38 8 -51 32t5 59q86 161 232 161q72 0 143 -43q57 -36 84 -36q19 0 37 18q24 27 44 37.5t49 4.5l96 -20q38 -8 51 -32t-5 -59q-86 -161 -232 -161q-73 0 -142 43zM981 1400q67 0 77 -66
l192 -1257q5 -37 -12 -57t-54 -20h-200q-68 0 -76 67l-27 225h-462l-121 -240q-26 -52 -84 -52h-190q-42 0 -57 24t5 62l684 1263q27 51 86 51h239zM856 551l-58 501l-252 -501h310z" />
    <glyph glyph-name="Adieresis" unicode="&#xc4;" horiz-adv-x="1389" 
d="M555 1664q13 68 68.5 114t123.5 46q69 0 106.5 -46t24.5 -114q-14 -68 -69 -114t-124 -46q-68 0 -105.5 46.5t-24.5 113.5zM958 1664q13 68 68.5 114t124.5 46q68 0 105.5 -46t24.5 -114q-14 -68 -69 -114t-123 -46q-69 0 -107 46t-24 114zM981 1400q67 0 77 -66
l192 -1257q5 -37 -12 -57t-54 -20h-200q-68 0 -76 67l-27 225h-462l-121 -240q-26 -52 -84 -52h-190q-42 0 -57 24t5 62l684 1263q27 51 86 51h239zM856 551l-58 501l-252 -501h310z" />
    <glyph glyph-name="Aring" unicode="&#xc5;" horiz-adv-x="1389" 
d="M686 1685q18 92 98 154t180 62t156 -62t38 -154t-98 -153.5t-180 -61.5q-101 0 -156.5 62t-37.5 153zM859 1685q-5 -26 9.5 -43.5t41.5 -17.5t48.5 17.5t26.5 43.5t-9 44t-42 18q-27 0 -48.5 -17.5t-26.5 -44.5zM981 1400q67 0 77 -66l192 -1257q5 -37 -12 -57t-54 -20
h-200q-68 0 -76 67l-27 225h-462l-121 -240q-26 -52 -84 -52h-190q-42 0 -57 24t5 62l684 1263q27 51 86 51h239zM856 551l-58 501l-252 -501h310z" />
    <glyph glyph-name="AE" unicode="&#xc6;" horiz-adv-x="1880" 
d="M14 0q-45 0 -58 26t13 62l932 1268q33 44 88 44h869q38 0 55 -21t10 -58l-27 -137q-12 -64 -79 -64h-484l-54 -278h422q37 0 54.5 -20.5t10.5 -57.5l-26 -133q-12 -65 -78 -65h-436l-56 -286h488q37 0 54.5 -20.5t10.5 -57.5l-27 -137q-12 -65 -78 -65h-748
q-37 0 -54.5 20.5t-10.5 57.5l41 214h-385l-173 -247q-32 -45 -87 -45h-187zM640 552h257l97 500z" />
    <glyph glyph-name="Ccedilla" unicode="&#xc7;" horiz-adv-x="1515" 
d="M717 -293q5 30 -15.5 52t-57.5 22q-50 8 -74 40q-8 11 2 63l19 99q-174 23 -296 121.5t-171.5 254.5t-13.5 341q39 202 164 367.5t308.5 261t386.5 95.5q228 0 370.5 -116.5t170.5 -327.5q4 -36 -14.5 -55.5t-54.5 -19.5h-209q-32 0 -50 16t-28 49q-25 80 -89 123
t-155 43q-165 0 -297.5 -124.5t-168.5 -311.5q-24 -122 8 -222t113.5 -157t195.5 -57q240 0 429 185q50 51 102 5l50 -44q54 -47 9 -101q-244 -290 -562 -326l-15 -76q93 -11 134 -70t27 -134q-19 -97 -114.5 -160t-223.5 -63q-92 0 -158 39t-90 112q-11 35 8.5 56t57.5 21
h55q14 0 26 -5t17.5 -9t19.5 -18l19 -19q22 -21 64 -21q40 0 67 19t34 52z" />
    <glyph glyph-name="Egrave" unicode="&#xc8;" horiz-adv-x="1152" 
d="M683 1888q31 21 56.5 14t41.5 -41l105 -224q27 -59 -27 -97l-50 -34q-59 -39 -101 16l-148 193q-45 59 16 101zM306 1336q12 64 79 64h746q38 0 55 -21t10 -58l-27 -137q-12 -64 -79 -64h-495l-54 -278h433q37 0 54.5 -20.5t10.5 -57.5l-26 -133q-12 -65 -78 -65h-447
l-56 -286h499q37 0 54.5 -20.5t10.5 -57.5l-27 -137q-12 -65 -78 -65h-764q-37 0 -54.5 20.5t-10.5 57.5z" />
    <glyph glyph-name="Eacute" unicode="&#xc9;" horiz-adv-x="1152" 
d="M897 1876q48 56 102 6l61 -56q55 -52 -2 -102l-245 -212q-52 -45 -101 1l-18 16q-52 48 -6 102zM306 1336q12 64 79 64h746q38 0 55 -21t10 -58l-27 -137q-12 -64 -79 -64h-495l-54 -278h433q37 0 54.5 -20.5t10.5 -57.5l-26 -133q-12 -65 -78 -65h-447l-56 -286h499
q37 0 54.5 -20.5t10.5 -57.5l-27 -137q-12 -65 -78 -65h-764q-37 0 -54.5 20.5t-10.5 57.5z" />
    <glyph glyph-name="Ecircumflex" unicode="&#xca;" horiz-adv-x="1152" 
d="M943 1851q59 0 86 -51l93 -173q32 -60 -24 -98l-49 -33q-57 -39 -100 16l-134 168l-211 -178q-52 -44 -101 1l-17 15q-54 48 -5 102l179 192q36 39 89 39h194zM306 1336q12 64 79 64h746q38 0 55 -21t10 -58l-27 -137q-12 -64 -79 -64h-495l-54 -278h433q37 0 54.5 -20.5
t10.5 -57.5l-26 -133q-12 -65 -78 -65h-447l-56 -286h499q37 0 54.5 -20.5t10.5 -57.5l-27 -137q-12 -65 -78 -65h-764q-37 0 -54.5 20.5t-10.5 57.5z" />
    <glyph glyph-name="Edieresis" unicode="&#xcb;" horiz-adv-x="1152" 
d="M445 1664q13 68 68.5 114t123.5 46q69 0 106.5 -46t24.5 -114q-14 -68 -69 -114t-124 -46q-68 0 -105.5 46.5t-24.5 113.5zM848 1664q13 68 68.5 114t124.5 46q68 0 105.5 -46t24.5 -114q-14 -68 -69 -114t-123 -46q-69 0 -107 46t-24 114zM306 1336q12 64 79 64h746
q38 0 55 -21t10 -58l-27 -137q-12 -64 -79 -64h-495l-54 -278h433q37 0 54.5 -20.5t10.5 -57.5l-26 -133q-12 -65 -78 -65h-447l-56 -286h499q37 0 54.5 -20.5t10.5 -57.5l-27 -137q-12 -65 -78 -65h-764q-37 0 -54.5 20.5t-10.5 57.5z" />
    <glyph glyph-name="Igrave" unicode="&#xcc;" horiz-adv-x="636" 
d="M438 1888q31 21 56.5 14t41.5 -41l105 -224q27 -59 -27 -97l-50 -34q-59 -39 -101 16l-148 193q-45 59 16 101zM575 1400q37 0 54.5 -20.5t10.5 -57.5l-244 -1258q-12 -64 -79 -64h-185q-37 0 -54.5 20.5t-10.5 57.5l244 1258q12 64 79 64h185z" />
    <glyph glyph-name="Iacute" unicode="&#xcd;" horiz-adv-x="636" 
d="M617 1876q48 56 102 6l61 -56q55 -52 -2 -102l-245 -212q-52 -45 -101 1l-18 16q-52 48 -6 102zM575 1400q37 0 54.5 -20.5t10.5 -57.5l-244 -1258q-12 -64 -79 -64h-185q-37 0 -54.5 20.5t-10.5 57.5l244 1258q12 64 79 64h185z" />
    <glyph glyph-name="Icircumflex" unicode="&#xce;" horiz-adv-x="636" 
d="M671 1851q59 0 86 -51l93 -173q32 -60 -24 -98l-49 -33q-57 -39 -100 16l-134 168l-211 -178q-52 -44 -101 1l-17 15q-54 48 -5 102l179 192q36 39 89 39h194zM575 1400q37 0 54.5 -20.5t10.5 -57.5l-244 -1258q-12 -64 -79 -64h-185q-37 0 -54.5 20.5t-10.5 57.5
l244 1258q12 64 79 64h185z" />
    <glyph glyph-name="Idieresis" unicode="&#xcf;" horiz-adv-x="636" 
d="M178 1664q13 68 68.5 114t123.5 46q69 0 106.5 -46t24.5 -114q-14 -68 -69 -114t-124 -46q-68 0 -105.5 46.5t-24.5 113.5zM581 1664q13 68 68.5 114t124.5 46q68 0 105.5 -46t24.5 -114q-14 -68 -69 -114t-123 -46q-69 0 -107 46t-24 114zM575 1400q37 0 54.5 -20.5
t10.5 -57.5l-244 -1258q-12 -64 -79 -64h-185q-37 0 -54.5 20.5t-10.5 57.5l244 1258q12 64 79 64h185z" />
    <glyph glyph-name="Eth" unicode="&#xd0;" horiz-adv-x="1483" 
d="M878 1400q316 0 471.5 -192t94.5 -508q-62 -317 -292 -508.5t-546 -191.5h-442q-37 0 -54.5 20.5t-10.5 57.5l101 520h-90q-37 0 -54.5 20.5t-10.5 57.5l12 60q12 64 78 64h104l104 536q12 64 79 64h456zM632 1112l-61 -312h148q37 0 54.5 -20.5t10.5 -57.5l-12 -60
q-12 -64 -78 -64h-162l-61 -311h98q52 0 103 3q168 9 285 114t154 296q38 199 -46.5 305.5t-262.5 106.5h-170z" />
    <glyph glyph-name="Ntilde" unicode="&#xd1;" horiz-adv-x="1421" 
d="M924 1555q-59 36 -84 36q-20 0 -37 -18q-25 -27 -45 -37.5t-48 -4.5l-97 20q-38 8 -51 32t5 59q86 161 232 161q72 0 143 -43q57 -36 84 -36q19 0 37 18q24 27 44 37.5t49 4.5l96 -20q38 -8 51 -32t-5 -59q-86 -161 -232 -161q-73 0 -142 43zM306 1336q12 64 79 64h219
q63 0 82 -59l278 -840l162 835q12 64 79 64h162q37 0 54.5 -20.5t10.5 -57.5l-244 -1258q-12 -64 -79 -64h-220q-63 0 -82 59l-279 840l-162 -835q-12 -64 -78 -64h-161q-37 0 -54.5 20.5t-10.5 57.5z" />
    <glyph glyph-name="Ograve" unicode="&#xd2;" horiz-adv-x="1660" 
d="M930 1888q31 21 56.5 14t41.5 -41l105 -224q27 -59 -27 -97l-50 -34q-59 -39 -101 16l-148 193q-45 59 16 101zM110 700q39 201 170 367t323 261.5t403 95.5t366 -95.5t222 -261.5t28 -367t-170.5 -367t-323.5 -261.5t-403 -95.5t-366 95.5t-221.5 261.5t-27.5 367z
M444 700q-24 -122 12 -222t122 -157t203 -57q179 0 324.5 125t182.5 311q36 186 -61.5 311t-276.5 125t-324.5 -125t-181.5 -311z" />
    <glyph glyph-name="Oacute" unicode="&#xd3;" horiz-adv-x="1660" 
d="M1148 1876q48 56 102 6l61 -56q55 -52 -2 -102l-245 -212q-52 -45 -101 1l-18 16q-52 48 -6 102zM110 700q39 201 170 367t323 261.5t403 95.5t366 -95.5t222 -261.5t28 -367t-170.5 -367t-323.5 -261.5t-403 -95.5t-366 95.5t-221.5 261.5t-27.5 367zM444 700
q-24 -122 12 -222t122 -157t203 -57q179 0 324.5 125t182.5 311q36 186 -61.5 311t-276.5 125t-324.5 -125t-181.5 -311z" />
    <glyph glyph-name="Ocircumflex" unicode="&#xd4;" horiz-adv-x="1660" 
d="M1183 1851q59 0 86 -51l93 -173q32 -60 -24 -98l-49 -33q-57 -39 -100 16l-134 168l-211 -178q-52 -44 -101 1l-17 15q-54 48 -5 102l179 192q36 39 89 39h194zM110 700q39 201 170 367t323 261.5t403 95.5t366 -95.5t222 -261.5t28 -367t-170.5 -367t-323.5 -261.5
t-403 -95.5t-366 95.5t-221.5 261.5t-27.5 367zM444 700q-24 -122 12 -222t122 -157t203 -57q179 0 324.5 125t182.5 311q36 186 -61.5 311t-276.5 125t-324.5 -125t-181.5 -311z" />
    <glyph glyph-name="Otilde" unicode="&#xd5;" horiz-adv-x="1660" 
d="M1043 1555q-59 36 -84 36q-20 0 -37 -18q-25 -27 -45 -37.5t-48 -4.5l-97 20q-38 8 -51 32t5 59q86 161 232 161q72 0 143 -43q57 -36 84 -36q19 0 37 18q24 27 44 37.5t49 4.5l96 -20q38 -8 51 -32t-5 -59q-86 -161 -232 -161q-73 0 -142 43zM110 700q39 201 170 367
t323 261.5t403 95.5t366 -95.5t222 -261.5t28 -367t-170.5 -367t-323.5 -261.5t-403 -95.5t-366 95.5t-221.5 261.5t-27.5 367zM444 700q-24 -122 12 -222t122 -157t203 -57q179 0 324.5 125t182.5 311q36 186 -61.5 311t-276.5 125t-324.5 -125t-181.5 -311z" />
    <glyph glyph-name="Odieresis" unicode="&#xd6;" horiz-adv-x="1660" 
d="M690 1664q13 68 68.5 114t123.5 46q69 0 106.5 -46t24.5 -114q-14 -68 -69 -114t-124 -46q-68 0 -105.5 46.5t-24.5 113.5zM1093 1664q13 68 68.5 114t124.5 46q68 0 105.5 -46t24.5 -114q-14 -68 -69 -114t-123 -46q-69 0 -107 46t-24 114zM110 700q39 201 170 367
t323 261.5t403 95.5t366 -95.5t222 -261.5t28 -367t-170.5 -367t-323.5 -261.5t-403 -95.5t-366 95.5t-221.5 261.5t-27.5 367zM444 700q-24 -122 12 -222t122 -157t203 -57q179 0 324.5 125t182.5 311q36 186 -61.5 311t-276.5 125t-324.5 -125t-181.5 -311z" />
    <glyph glyph-name="multiply" unicode="&#xd7;" horiz-adv-x="1172" 
d="M917 1086q56 47 101 -11l75 -93q44 -56 -10 -102l-262 -219l170 -209q44 -55 -10 -101l-135 -114q-56 -47 -102 10l-171 209l-262 -219q-56 -46 -102 11l-75 93q-44 56 10 102l262 218l-170 209q-45 55 10 102l136 114q56 47 102 -10l169 -210z" />
    <glyph glyph-name="Oslash" unicode="&#xd8;" horiz-adv-x="1660" 
d="M110 700q39 201 170 367t323 261.5t403 95.5q191 0 343 -84l126 129q50 51 101 3l24 -22q54 -49 3 -102l-114 -117q92 -100 127.5 -237.5t5.5 -293.5q-39 -201 -170.5 -367t-323.5 -261.5t-403 -95.5q-207 0 -362 94l-134 -138q-50 -51 -102 -4l-24 22q-54 49 -3 101
l128 132q-84 100 -115.5 233t-2.5 284zM444 700q-30 -151 31 -262l641 661q-74 37 -166 37q-179 0 -324.5 -125t-181.5 -311zM1288 700q31 159 -42 279l-649 -669q78 -46 184 -46q179 0 324.5 125t182.5 311z" />
    <glyph glyph-name="Ugrave" unicode="&#xd9;" horiz-adv-x="1345" 
d="M767 1888q31 21 56.5 14t41.5 -41l105 -224q27 -59 -27 -97l-50 -34q-59 -39 -101 16l-148 193q-45 59 16 101zM1200 465q-27 -140 -121 -252t-228.5 -173.5t-283.5 -61.5q-227 0 -355.5 137.5t-87.5 349.5l169 871q12 64 79 64h186q38 0 55 -20.5t10 -57.5l-167 -854
q-17 -90 31 -146.5t136 -56.5q89 0 159 56.5t87 146.5l169 868q12 64 79 64h185q38 0 55 -20.5t10 -57.5z" />
    <glyph glyph-name="Uacute" unicode="&#xda;" horiz-adv-x="1345" 
d="M999 1876q48 56 102 6l61 -56q55 -52 -2 -102l-245 -212q-52 -45 -101 1l-18 16q-52 48 -6 102zM1200 465q-27 -140 -121 -252t-228.5 -173.5t-283.5 -61.5q-227 0 -355.5 137.5t-87.5 349.5l169 871q12 64 79 64h186q38 0 55 -20.5t10 -57.5l-167 -854
q-17 -90 31 -146.5t136 -56.5q89 0 159 56.5t87 146.5l169 868q12 64 79 64h185q38 0 55 -20.5t10 -57.5z" />
    <glyph glyph-name="Ucircumflex" unicode="&#xdb;" horiz-adv-x="1345" 
d="M1026 1851q59 0 86 -51l93 -173q32 -60 -24 -98l-49 -33q-57 -39 -100 16l-134 168l-211 -178q-52 -44 -101 1l-17 15q-54 48 -5 102l179 192q36 39 89 39h194zM1200 465q-27 -140 -121 -252t-228.5 -173.5t-283.5 -61.5q-227 0 -355.5 137.5t-87.5 349.5l169 871
q12 64 79 64h186q38 0 55 -20.5t10 -57.5l-167 -854q-17 -90 31 -146.5t136 -56.5q89 0 159 56.5t87 146.5l169 868q12 64 79 64h185q38 0 55 -20.5t10 -57.5z" />
    <glyph glyph-name="Udieresis" unicode="&#xdc;" horiz-adv-x="1345" 
d="M533 1664q13 68 68.5 114t123.5 46q69 0 106.5 -46t24.5 -114q-14 -68 -69 -114t-124 -46q-68 0 -105.5 46.5t-24.5 113.5zM936 1664q13 68 68.5 114t124.5 46q68 0 105.5 -46t24.5 -114q-14 -68 -69 -114t-123 -46q-69 0 -107 46t-24 114zM1200 465q-27 -140 -121 -252
t-228.5 -173.5t-283.5 -61.5q-227 0 -355.5 137.5t-87.5 349.5l169 871q12 64 79 64h186q38 0 55 -20.5t10 -57.5l-167 -854q-17 -90 31 -146.5t136 -56.5q89 0 159 56.5t87 146.5l169 868q12 64 79 64h185q38 0 55 -20.5t10 -57.5z" />
    <glyph glyph-name="Yacute" unicode="&#xdd;" horiz-adv-x="1315" 
d="M984 1876q48 56 102 6l61 -56q55 -52 -2 -102l-245 -212q-52 -45 -101 1l-18 16q-52 48 -6 102zM724 864l345 491q31 45 87 45h195q45 0 58 -25.5t-14 -62.5l-565 -758l-95 -490q-12 -64 -78 -64h-185q-37 0 -54.5 20.5t-10.5 57.5l92 476l-271 763q-13 37 3 60t56 23
h208q64 0 82 -60z" />
    <glyph glyph-name="Thorn" unicode="&#xde;" horiz-adv-x="1214" 
d="M423 234l-33 -169q-12 -65 -78 -65h-186q-37 0 -54.5 20.5t-10.5 57.5l244 1258q12 64 79 64h186q38 0 55 -20.5t10 -57.5l-31 -157h186q219 0 331 -130t73 -335q-41 -206 -203 -336t-382 -130h-186zM866 700q18 91 -25 146.5t-138 55.5h-150l-79 -405h150q95 0 159.5 55
t82.5 148z" />
    <glyph glyph-name="germandbls" unicode="&#xdf;" horiz-adv-x="1241" 
d="M488 244q30 55 97 31q39 -15 83 -15q68 0 117 52.5t66 144.5q15 76 -28.5 134.5t-119.5 58.5q-8 1 -20.5 3.5t-36 15.5t-29.5 32l-16 46q-17 53 14 97l195 283h-242l-206 -1063q-12 -64 -79 -64h-169q-37 0 -54.5 20.5t-10.5 57.5l244 1258q12 64 79 64h713
q38 0 55 -20.5t10 -57.5l-28 -142q-8 -43 -37 -84l-184 -251q142 -28 208.5 -148t32.5 -291q-40 -206 -168 -315.5t-295 -109.5q-134 0 -227 72q-47 38 -14 99z" />
    <glyph glyph-name="agrave" unicode="&#xe0;" horiz-adv-x="1319" 
d="M705 1564q31 21 56.5 14t41.5 -41l105 -224q27 -59 -27 -97l-50 -34q-59 -39 -101 16l-148 193q-45 59 16 101zM61 518q45 230 213 386t380 156q198 0 302 -138l10 49q12 65 78 65h170q37 0 54.5 -20.5t10.5 -57.5l-173 -894q-12 -64 -79 -64h-170q-37 0 -54.5 20.5
t-10.5 57.5l7 36q-157 -138 -356 -138q-140 0 -238 72t-135.5 195.5t-8.5 274.5zM380 518q-22 -111 35 -185.5t162 -74.5t191.5 74.5t108.5 185.5q22 110 -36 185t-163 75q-104 0 -190 -75t-108 -185z" />
    <glyph glyph-name="aacute" unicode="&#xe1;" horiz-adv-x="1319" 
d="M881 1552q48 56 102 6l61 -56q55 -52 -2 -102l-245 -212q-52 -45 -101 1l-18 16q-52 48 -6 102zM61 518q45 230 213 386t380 156q198 0 302 -138l10 49q12 65 78 65h170q37 0 54.5 -20.5t10.5 -57.5l-173 -894q-12 -64 -79 -64h-170q-37 0 -54.5 20.5t-10.5 57.5l7 36
q-157 -138 -356 -138q-140 0 -238 72t-135.5 195.5t-8.5 274.5zM380 518q-22 -111 35 -185.5t162 -74.5t191.5 74.5t108.5 185.5q22 110 -36 185t-163 75q-104 0 -190 -75t-108 -185z" />
    <glyph glyph-name="acircumflex" unicode="&#xe2;" horiz-adv-x="1319" 
d="M949 1527q59 0 86 -51l93 -173q32 -60 -24 -98l-49 -33q-57 -39 -100 16l-134 168l-211 -178q-52 -44 -101 1l-17 15q-54 48 -5 102l179 192q36 39 89 39h194zM61 518q45 230 213 386t380 156q198 0 302 -138l10 49q12 65 78 65h170q37 0 54.5 -20.5t10.5 -57.5
l-173 -894q-12 -64 -79 -64h-170q-37 0 -54.5 20.5t-10.5 57.5l7 36q-157 -138 -356 -138q-140 0 -238 72t-135.5 195.5t-8.5 274.5zM380 518q-22 -111 35 -185.5t162 -74.5t191.5 74.5t108.5 185.5q22 110 -36 185t-163 75q-104 0 -190 -75t-108 -185z" />
    <glyph glyph-name="atilde" unicode="&#xe3;" horiz-adv-x="1319" 
d="M794 1226q-57 36 -84 36q-20 0 -37 -18q-25 -27 -45 -37.5t-48 -4.5l-97 20q-38 8 -51 32t5 59q86 161 232 161q72 0 143 -43q57 -36 84 -36q19 0 37 18q24 27 44 37.5t49 4.5l96 -20q38 -8 51 -32t-5 -59q-86 -161 -232 -161q-73 0 -142 43zM61 518q45 230 213 386
t380 156q198 0 302 -138l10 49q12 65 78 65h170q37 0 54.5 -20.5t10.5 -57.5l-173 -894q-12 -64 -79 -64h-170q-37 0 -54.5 20.5t-10.5 57.5l7 36q-157 -138 -356 -138q-140 0 -238 72t-135.5 195.5t-8.5 274.5zM380 518q-22 -111 35 -185.5t162 -74.5t191.5 74.5
t108.5 185.5q22 110 -36 185t-163 75q-104 0 -190 -75t-108 -185z" />
    <glyph glyph-name="adieresis" unicode="&#xe4;" horiz-adv-x="1319" 
d="M434 1340q13 68 68.5 114t123.5 46q69 0 106.5 -46t24.5 -114q-14 -68 -69 -114t-124 -46q-68 0 -105.5 46.5t-24.5 113.5zM837 1340q13 68 68.5 114t124.5 46q68 0 105.5 -46t24.5 -114q-14 -68 -69 -114t-123 -46q-69 0 -107 46t-24 114zM61 518q45 230 213 386
t380 156q198 0 302 -138l10 49q12 65 78 65h170q37 0 54.5 -20.5t10.5 -57.5l-173 -894q-12 -64 -79 -64h-170q-37 0 -54.5 20.5t-10.5 57.5l7 36q-157 -138 -356 -138q-140 0 -238 72t-135.5 195.5t-8.5 274.5zM380 518q-22 -111 35 -185.5t162 -74.5t191.5 74.5
t108.5 185.5q22 110 -36 185t-163 75q-104 0 -190 -75t-108 -185z" />
    <glyph glyph-name="aring" unicode="&#xe5;" horiz-adv-x="1319" 
d="M568 1361q18 92 98 154t180 62t156 -62t38 -154t-98 -153.5t-180 -61.5q-101 0 -156.5 62t-37.5 153zM741 1361q-5 -26 9.5 -43.5t41.5 -17.5t48.5 17.5t26.5 43.5t-9 44t-42 18q-27 0 -48.5 -17.5t-26.5 -44.5zM61 518q45 230 213 386t380 156q198 0 302 -138l10 49
q12 65 78 65h170q37 0 54.5 -20.5t10.5 -57.5l-173 -894q-12 -64 -79 -64h-170q-37 0 -54.5 20.5t-10.5 57.5l7 36q-157 -138 -356 -138q-140 0 -238 72t-135.5 195.5t-8.5 274.5zM380 518q-22 -111 35 -185.5t162 -74.5t191.5 74.5t108.5 185.5q22 110 -36 185t-163 75
q-104 0 -190 -75t-108 -185z" />
    <glyph glyph-name="ae" unicode="&#xe6;" horiz-adv-x="2074" 
d="M1187 429q-3 -99 59.5 -155t177.5 -56q163 0 300 85q60 38 100 -18l27 -38q40 -56 -11 -101q-199 -170 -430 -170q-98 0 -177 38.5t-117 104.5l-11 -55q-12 -64 -78 -64h-170q-37 0 -54.5 20.5t-10.5 57.5l7 36q-157 -138 -356 -138q-140 0 -238 72t-135.5 195.5
t-8.5 274.5q45 230 213 386t380 156q198 0 302 -138l10 49q12 65 78 65h170q38 0 54.5 -21t9.5 -58l-7 -37q128 140 327 140q147 0 249 -70.5t141.5 -190t11.5 -264.5q-5 -28 -13 -50q-17 -56 -82 -56h-718zM1504 818q-86 0 -160 -51t-113 -135h462q-2 86 -51.5 136
t-137.5 50zM380 518q-22 -111 35 -185.5t162 -74.5t191.5 74.5t108.5 185.5q22 110 -36 185t-163 75q-104 0 -190 -75t-108 -185z" />
    <glyph glyph-name="ccedilla" unicode="&#xe7;" horiz-adv-x="1182" 
d="M541 -293q5 30 -15.5 52t-57.5 22q-51 8 -75 40q-8 11 2 63l20 101q-194 35 -293.5 183t-60.5 350q29 150 124.5 274.5t235.5 196t292 71.5q179 0 290.5 -86t138.5 -235q6 -35 -13 -55.5t-56 -20.5h-196q-29 0 -46 12.5t-37 42.5q-41 60 -136 60q-94 0 -175 -75
t-103 -185q-22 -113 35.5 -186.5t178.5 -73.5q141 0 269 101q54 44 102 -1l35 -32q52 -48 7 -102q-172 -206 -394 -240l-15 -77q93 -11 134 -70t27 -134q-19 -97 -115 -160t-223 -63q-92 0 -158 39t-90 112q-11 35 8.5 56t57.5 21h55q14 0 26 -5t17.5 -9t19.5 -18l19 -19
q23 -21 64 -21q40 0 67 19t34 52z" />
    <glyph glyph-name="egrave" unicode="&#xe8;" horiz-adv-x="1237" 
d="M666 1564q31 21 56.5 14t41.5 -41l105 -224q27 -59 -27 -97l-50 -34q-59 -39 -101 16l-148 193q-45 59 16 101zM366 429q-2 -99 60.5 -155t177.5 -56q161 0 300 85q60 38 100 -18l26 -37q40 -58 -12 -101q-213 -171 -465 -171q-175 0 -298.5 72t-173 195t-20.5 275
q29 150 127.5 274.5t243 196t303.5 71.5q155 0 267.5 -70.5t159 -190.5t18.5 -264q-5 -28 -13 -50q-17 -56 -82 -56h-719zM684 818q-88 0 -160.5 -49.5t-113.5 -136.5h462q-2 87 -51 136.5t-137 49.5z" />
    <glyph glyph-name="eacute" unicode="&#xe9;" horiz-adv-x="1237" 
d="M868 1552q48 56 102 6l61 -56q55 -52 -2 -102l-245 -212q-52 -45 -101 1l-18 16q-52 48 -6 102zM366 429q-2 -99 60.5 -155t177.5 -56q161 0 300 85q60 38 100 -18l26 -37q40 -58 -12 -101q-213 -171 -465 -171q-175 0 -298.5 72t-173 195t-20.5 275q29 150 127.5 274.5
t243 196t303.5 71.5q155 0 267.5 -70.5t159 -190.5t18.5 -264q-5 -28 -13 -50q-17 -56 -82 -56h-719zM684 818q-88 0 -160.5 -49.5t-113.5 -136.5h462q-2 87 -51 136.5t-137 49.5z" />
    <glyph glyph-name="ecircumflex" unicode="&#xea;" horiz-adv-x="1237" 
d="M909 1527q59 0 86 -51l93 -173q32 -60 -24 -98l-49 -33q-57 -39 -100 16l-134 168l-211 -178q-52 -44 -101 1l-17 15q-54 48 -5 102l179 192q36 39 89 39h194zM366 429q-2 -99 60.5 -155t177.5 -56q161 0 300 85q60 38 100 -18l26 -37q40 -58 -12 -101
q-213 -171 -465 -171q-175 0 -298.5 72t-173 195t-20.5 275q29 150 127.5 274.5t243 196t303.5 71.5q155 0 267.5 -70.5t159 -190.5t18.5 -264q-5 -28 -13 -50q-17 -56 -82 -56h-719zM684 818q-88 0 -160.5 -49.5t-113.5 -136.5h462q-2 87 -51 136.5t-137 49.5z" />
    <glyph glyph-name="edieresis" unicode="&#xeb;" horiz-adv-x="1237" 
d="M416 1340q13 68 68.5 114t123.5 46q69 0 106.5 -46t24.5 -114q-14 -68 -69 -114t-124 -46q-68 0 -105.5 46.5t-24.5 113.5zM819 1340q13 68 68.5 114t124.5 46q68 0 105.5 -46t24.5 -114q-14 -68 -69 -114t-123 -46q-69 0 -107 46t-24 114zM366 429q-2 -99 60.5 -155
t177.5 -56q161 0 300 85q60 38 100 -18l26 -37q40 -58 -12 -101q-213 -171 -465 -171q-175 0 -298.5 72t-173 195t-20.5 275q29 150 127.5 274.5t243 196t303.5 71.5q155 0 267.5 -70.5t159 -190.5t18.5 -264q-5 -28 -13 -50q-17 -56 -82 -56h-719zM684 818
q-88 0 -160.5 -49.5t-113.5 -136.5h462q-2 87 -51 136.5t-137 49.5z" />
    <glyph glyph-name="igrave" unicode="&#xec;" horiz-adv-x="576" 
d="M335 1564q31 21 56.5 14t41.5 -41l105 -224q27 -59 -27 -97l-50 -34q-59 -39 -101 16l-148 193q-45 59 16 101zM215 972q12 64 79 64h175q37 0 54.5 -20.5t10.5 -57.5l-173 -894q-12 -64 -79 -64h-175q-37 0 -54.5 20.5t-10.5 57.5z" />
    <glyph glyph-name="iacute" unicode="&#xed;" horiz-adv-x="576" 
d="M534 1552q48 56 102 6l61 -56q55 -52 -2 -102l-245 -212q-52 -45 -101 1l-18 16q-52 48 -6 102zM215 972q12 64 79 64h175q37 0 54.5 -20.5t10.5 -57.5l-173 -894q-12 -64 -79 -64h-175q-37 0 -54.5 20.5t-10.5 57.5z" />
    <glyph glyph-name="icircumflex" unicode="&#xee;" horiz-adv-x="576" 
d="M577 1527q59 0 86 -51l93 -173q32 -60 -24 -98l-49 -33q-57 -39 -100 16l-134 168l-211 -178q-52 -44 -101 1l-17 15q-54 48 -5 102l179 192q36 39 89 39h194zM215 972q12 64 79 64h175q37 0 54.5 -20.5t10.5 -57.5l-173 -894q-12 -64 -79 -64h-175q-37 0 -54.5 20.5
t-10.5 57.5z" />
    <glyph glyph-name="idieresis" unicode="&#xef;" horiz-adv-x="576" 
d="M85 1340q13 68 68.5 114t123.5 46q69 0 106.5 -46t24.5 -114q-14 -68 -69 -114t-124 -46q-68 0 -105.5 46.5t-24.5 113.5zM488 1340q13 68 68.5 114t124.5 46q68 0 105.5 -46t24.5 -114q-14 -68 -69 -114t-123 -46q-69 0 -107 46t-24 114zM215 972q12 64 79 64h175
q37 0 54.5 -20.5t10.5 -57.5l-173 -894q-12 -64 -79 -64h-175q-37 0 -54.5 20.5t-10.5 57.5z" />
    <glyph glyph-name="eth" unicode="&#xf0;" horiz-adv-x="1254" 
d="M395 1078q-23 65 40 93l127 56q-36 24 -80 48q-35 18 -40 44t21 55l88 95q43 48 99 18q132 -72 202 -129l139 61q69 31 93 -40l3 -8q23 -65 -41 -93l-72 -31q138 -149 193 -340t14 -399q-28 -147 -123.5 -268.5t-238.5 -192.5t-302 -71q-116 0 -212.5 40t-158 108
t-86.5 163t-5 201q28 140 127 257.5t230 182t260 64.5q94 0 153 -44q-44 95 -129 176l-206 -90q-69 -30 -94 41zM374 497q-20 -101 37.5 -170t162.5 -69q104 0 188 69t104 170t-37.5 170t-161.5 69q-105 0 -189 -69t-104 -170z" />
    <glyph glyph-name="ntilde" unicode="&#xf1;" horiz-adv-x="1232" 
d="M775 1226q-57 36 -84 36q-20 0 -37 -18q-25 -27 -45 -37.5t-48 -4.5l-97 20q-38 8 -51 32t5 59q86 161 232 161q72 0 143 -43q57 -36 84 -36q19 0 37 18q24 27 44 37.5t49 4.5l96 -20q38 -8 51 -32t-5 -59q-86 -161 -232 -161q-73 0 -142 43zM840 1060q171 0 259 -113.5
t53 -296.5l-114 -586q-12 -64 -78 -64h-175q-37 0 -54.5 20.5t-10.5 57.5l101 521q14 71 -24.5 125t-107.5 54q-82 0 -148 -58t-86 -160l-96 -495q-12 -65 -78 -65h-175q-37 0 -54.5 20.5t-10.5 57.5l173 894q12 64 79 64h175q37 0 54.5 -20.5t10.5 -57.5l-6 -31
q135 133 313 133z" />
    <glyph glyph-name="ograve" unicode="&#xf2;" horiz-adv-x="1281" 
d="M677 1564q31 21 56.5 14t41.5 -41l105 -224q27 -59 -27 -97l-50 -34q-59 -39 -101 16l-148 193q-45 59 16 101zM61 518q22 112 86 212.5t155 173t207 114.5t238 42q163 0 282 -71.5t170 -196t22 -274.5t-128.5 -274.5t-246.5 -196t-310 -71.5q-122 0 -222 42
t-162.5 114.5t-87.5 173t-3 212.5zM380 518q-22 -111 38.5 -185.5t172.5 -74.5t200.5 74.5t110.5 185.5q22 110 -38 185t-172 75q-111 0 -200.5 -74.5t-111.5 -185.5z" />
    <glyph glyph-name="oacute" unicode="&#xf3;" horiz-adv-x="1281" 
d="M900 1552q48 56 102 6l61 -56q55 -52 -2 -102l-245 -212q-52 -45 -101 1l-18 16q-52 48 -6 102zM61 518q22 112 86 212.5t155 173t207 114.5t238 42q163 0 282 -71.5t170 -196t22 -274.5t-128.5 -274.5t-246.5 -196t-310 -71.5q-122 0 -222 42t-162.5 114.5t-87.5 173
t-3 212.5zM380 518q-22 -111 38.5 -185.5t172.5 -74.5t200.5 74.5t110.5 185.5q22 110 -38 185t-172 75q-111 0 -200.5 -74.5t-111.5 -185.5z" />
    <glyph glyph-name="ocircumflex" unicode="&#xf4;" horiz-adv-x="1281" 
d="M931 1527q59 0 86 -51l93 -173q32 -60 -24 -98l-49 -33q-57 -39 -100 16l-134 168l-211 -178q-52 -44 -101 1l-17 15q-54 48 -5 102l179 192q36 39 89 39h194zM61 518q22 112 86 212.5t155 173t207 114.5t238 42q163 0 282 -71.5t170 -196t22 -274.5t-128.5 -274.5
t-246.5 -196t-310 -71.5q-122 0 -222 42t-162.5 114.5t-87.5 173t-3 212.5zM380 518q-22 -111 38.5 -185.5t172.5 -74.5t200.5 74.5t110.5 185.5q22 110 -38 185t-172 75q-111 0 -200.5 -74.5t-111.5 -185.5z" />
    <glyph glyph-name="otilde" unicode="&#xf5;" horiz-adv-x="1281" 
d="M790 1226q-57 36 -84 36q-20 0 -37 -18q-25 -27 -45 -37.5t-48 -4.5l-97 20q-38 8 -51 32t5 59q86 161 232 161q72 0 143 -43q57 -36 84 -36q19 0 37 18q24 27 44 37.5t49 4.5l96 -20q38 -8 51 -32t-5 -59q-86 -161 -232 -161q-73 0 -142 43zM61 518q22 112 86 212.5
t155 173t207 114.5t238 42q163 0 282 -71.5t170 -196t22 -274.5t-128.5 -274.5t-246.5 -196t-310 -71.5q-122 0 -222 42t-162.5 114.5t-87.5 173t-3 212.5zM380 518q-22 -111 38.5 -185.5t172.5 -74.5t200.5 74.5t110.5 185.5q22 110 -38 185t-172 75q-111 0 -200.5 -74.5
t-111.5 -185.5z" />
    <glyph glyph-name="odieresis" unicode="&#xf6;" horiz-adv-x="1281" 
d="M438 1340q13 68 68.5 114t123.5 46q69 0 106.5 -46t24.5 -114q-14 -68 -69 -114t-124 -46q-68 0 -105.5 46.5t-24.5 113.5zM841 1340q13 68 68.5 114t124.5 46q68 0 105.5 -46t24.5 -114q-14 -68 -69 -114t-123 -46q-69 0 -107 46t-24 114zM61 518q22 112 86 212.5
t155 173t207 114.5t238 42q163 0 282 -71.5t170 -196t22 -274.5t-128.5 -274.5t-246.5 -196t-310 -71.5q-122 0 -222 42t-162.5 114.5t-87.5 173t-3 212.5zM380 518q-22 -111 38.5 -185.5t172.5 -74.5t200.5 74.5t110.5 185.5q22 110 -38 185t-172 75q-111 0 -200.5 -74.5
t-111.5 -185.5z" />
    <glyph glyph-name="divide" unicode="&#xf7;" horiz-adv-x="1172" 
d="M509 1067q14 74 76 125.5t138 51.5t118 -51.5t28 -125.5q-15 -75 -77 -126.5t-138 -51.5t-118 51.5t-27 126.5zM198 527q-37 0 -54.5 20.5t-10.5 57.5l25 131q12 64 79 64h794q37 0 54.5 -20.5t10.5 -57.5l-25 -131q-12 -64 -79 -64h-794zM352 261q15 75 77 126.5
t138 51.5t118 -51.5t27 -126.5q-14 -75 -76 -126.5t-138 -51.5t-118 51.5t-28 126.5z" />
    <glyph glyph-name="oslash" unicode="&#xf8;" horiz-adv-x="1281" 
d="M61 518q22 112 86 212.5t155 173t207 114.5t238 42q143 0 251 -57l95 97q48 50 101 2l14 -13q55 -50 4 -102l-83 -84q65 -75 89.5 -174t2.5 -211q-29 -150 -128.5 -274.5t-246.5 -196t-310 -71.5q-141 0 -255 57l-95 -97q-50 -51 -101 -3l-14 13q-54 49 -3 101l83 86
q-64 75 -87.5 173.5t-2.5 211.5zM373 518q-15 -81 13 -143l386 395q-38 15 -79 15q-114 0 -206 -77t-114 -190zM909 518q15 79 -15 144l-387 -397q37 -14 82 -14q114 0 206 77t114 190z" />
    <glyph glyph-name="ugrave" unicode="&#xf9;" horiz-adv-x="1232" 
d="M632 1564q31 21 56.5 14t41.5 -41l105 -224q27 -59 -27 -97l-50 -34q-59 -39 -101 16l-148 193q-45 59 16 101zM392 -24q-172 0 -260 113.5t-53 295.5l114 587q12 64 79 64h175q38 0 55 -20.5t10 -57.5l-102 -522q-14 -73 24.5 -126t107.5 -53q83 0 149 60t86 166l95 489
q12 64 79 64h175q37 0 54.5 -20.5t10.5 -57.5l-173 -894q-12 -64 -79 -64h-175q-38 0 -55.5 20.5t-10.5 57.5l6 30q-135 -132 -312 -132z" />
    <glyph glyph-name="uacute" unicode="&#xfa;" horiz-adv-x="1232" 
d="M868 1552q48 56 102 6l61 -56q55 -52 -2 -102l-245 -212q-52 -45 -101 1l-18 16q-52 48 -6 102zM392 -24q-172 0 -260 113.5t-53 295.5l114 587q12 64 79 64h175q38 0 55 -20.5t10 -57.5l-102 -522q-14 -73 24.5 -126t107.5 -53q83 0 149 60t86 166l95 489q12 64 79 64
h175q37 0 54.5 -20.5t10.5 -57.5l-173 -894q-12 -64 -79 -64h-175q-38 0 -55.5 20.5t-10.5 57.5l6 30q-135 -132 -312 -132z" />
    <glyph glyph-name="ucircumflex" unicode="&#xfb;" horiz-adv-x="1232" 
d="M896 1527q59 0 86 -51l93 -173q32 -60 -24 -98l-49 -33q-57 -39 -100 16l-134 168l-211 -178q-52 -44 -101 1l-17 15q-54 48 -5 102l179 192q36 39 89 39h194zM392 -24q-172 0 -260 113.5t-53 295.5l114 587q12 64 79 64h175q38 0 55 -20.5t10 -57.5l-102 -522
q-14 -73 24.5 -126t107.5 -53q83 0 149 60t86 166l95 489q12 64 79 64h175q37 0 54.5 -20.5t10.5 -57.5l-173 -894q-12 -64 -79 -64h-175q-38 0 -55.5 20.5t-10.5 57.5l6 30q-135 -132 -312 -132z" />
    <glyph glyph-name="udieresis" unicode="&#xfc;" horiz-adv-x="1232" 
d="M403 1340q13 68 68.5 114t123.5 46q69 0 106.5 -46t24.5 -114q-14 -68 -69 -114t-124 -46q-68 0 -105.5 46.5t-24.5 113.5zM806 1340q13 68 68.5 114t124.5 46q68 0 105.5 -46t24.5 -114q-14 -68 -69 -114t-123 -46q-69 0 -107 46t-24 114zM392 -24q-172 0 -260 113.5
t-53 295.5l114 587q12 64 79 64h175q38 0 55 -20.5t10 -57.5l-102 -522q-14 -73 24.5 -126t107.5 -53q83 0 149 60t86 166l95 489q12 64 79 64h175q37 0 54.5 -20.5t10.5 -57.5l-173 -894q-12 -64 -79 -64h-175q-38 0 -55.5 20.5t-10.5 57.5l6 30q-135 -132 -312 -132z" />
    <glyph glyph-name="yacute" unicode="&#xfd;" horiz-adv-x="1092" 
d="M804 1552q48 56 102 6l61 -56q55 -52 -2 -102l-245 -212q-52 -45 -101 1l-18 16q-52 48 -6 102zM110 -464q-43 0 -57 25t8 62l227 377l-156 958q-6 37 11.5 57.5t54.5 20.5h188q67 0 75 -68l62 -560l290 576q26 52 84 52h179q43 0 57 -24.5t-6 -61.5l-753 -1364
q-27 -50 -86 -50h-178z" />
    <glyph glyph-name="thorn" unicode="&#xfe;" horiz-adv-x="1319" 
d="M1258 518q-45 -230 -213 -386t-379 -156q-201 0 -302 138l-100 -514q-12 -64 -79 -64h-170q-37 0 -54.5 20.5t-10.5 57.5l346 1782q12 64 79 64h170q37 0 54.5 -20.5t10.5 -57.5l-89 -460q154 138 356 138q139 0 237 -72t135.5 -195.5t8.5 -274.5zM939 518
q22 110 -35.5 185t-161.5 75q-105 0 -191.5 -75t-108.5 -185t36 -185t163 -75t190.5 74.5t107.5 185.5z" />
    <glyph glyph-name="ydieresis" unicode="&#xff;" horiz-adv-x="1092" 
d="M342 1340q13 68 68.5 114t123.5 46q69 0 106.5 -46t24.5 -114q-14 -68 -69 -114t-124 -46q-68 0 -105.5 46.5t-24.5 113.5zM745 1340q13 68 68.5 114t124.5 46q68 0 105.5 -46t24.5 -114q-14 -68 -69 -114t-123 -46q-69 0 -107 46t-24 114zM110 -464q-43 0 -57 25t8 62
l227 377l-156 958q-6 37 11.5 57.5t54.5 20.5h188q67 0 75 -68l62 -560l290 576q26 52 84 52h179q43 0 57 -24.5t-6 -61.5l-753 -1364q-27 -50 -86 -50h-178z" />
    <glyph glyph-name="Amacron" unicode="&#x100;" horiz-adv-x="1389" 
d="M607 1715q12 64 79 64h494q38 0 55 -20.5t10 -57.5l-18 -94q-12 -64 -79 -64h-494q-37 0 -54.5 20.5t-10.5 57.5zM981 1400q67 0 77 -66l192 -1257q5 -37 -12 -57t-54 -20h-200q-68 0 -76 67l-27 225h-462l-121 -240q-26 -52 -84 -52h-190q-42 0 -57 24t5 62l684 1263
q27 51 86 51h239zM856 551l-58 501l-252 -501h310z" />
    <glyph glyph-name="amacron" unicode="&#x101;" horiz-adv-x="1319" 
d="M491 1391q12 64 79 64h494q38 0 55 -20.5t10 -57.5l-18 -94q-12 -64 -79 -64h-494q-37 0 -54.5 20.5t-10.5 57.5zM61 518q45 230 213 386t380 156q198 0 302 -138l10 49q12 65 78 65h170q37 0 54.5 -20.5t10.5 -57.5l-173 -894q-12 -64 -79 -64h-170q-37 0 -54.5 20.5
t-10.5 57.5l7 36q-157 -138 -356 -138q-140 0 -238 72t-135.5 195.5t-8.5 274.5zM380 518q-22 -111 35 -185.5t162 -74.5t191.5 74.5t108.5 185.5q22 110 -36 185t-163 75q-104 0 -190 -75t-108 -185z" />
    <glyph glyph-name="Abreve" unicode="&#x102;" horiz-adv-x="1389" 
d="M884 1488q-126 0 -213 67.5t-97 176.5q-3 34 17 52t56 18h122q30 0 43 -14t29 -50q23 -48 82 -48q65 0 108 58q20 28 38 41t46 13h109q41 0 59 -23t0 -58q-54 -105 -165 -169t-234 -64zM981 1400q67 0 77 -66l192 -1257q5 -37 -12 -57t-54 -20h-200q-68 0 -76 67l-27 225
h-462l-121 -240q-26 -52 -84 -52h-190q-42 0 -57 24t5 62l684 1263q27 51 86 51h239zM856 551l-58 501l-252 -501h310z" />
    <glyph glyph-name="abreve" unicode="&#x103;" horiz-adv-x="1319" 
d="M768 1164q-126 0 -213 67.5t-97 176.5q-3 34 17 52t56 18h122q30 0 43 -14t29 -50q23 -48 82 -48q65 0 108 58q20 28 38 41t46 13h109q41 0 59 -23t0 -58q-54 -105 -165 -169t-234 -64zM61 518q45 230 213 386t380 156q198 0 302 -138l10 49q12 65 78 65h170
q37 0 54.5 -20.5t10.5 -57.5l-173 -894q-12 -64 -79 -64h-170q-37 0 -54.5 20.5t-10.5 57.5l7 36q-157 -138 -356 -138q-140 0 -238 72t-135.5 195.5t-8.5 274.5zM380 518q-22 -111 35 -185.5t162 -74.5t191.5 74.5t108.5 185.5q22 110 -36 185t-163 75q-104 0 -190 -75
t-108 -185z" />
    <glyph glyph-name="Aogonek" unicode="&#x104;" horiz-adv-x="1389" 
d="M984 0q-68 0 -76 67l-27 225h-462l-121 -240q-26 -52 -84 -52h-190q-42 0 -57 24t5 62l684 1263q27 51 86 51h239q67 0 77 -66l195 -1276q8 -56 -40 -93q-160 -118 -176 -205q-9 -45 7 -70t48 -25q49 0 79 45q20 29 38 42t47 13h63q41 0 58 -23.5t-1 -60.5
q-50 -93 -134 -143t-193 -50q-118 0 -190.5 67t-52.5 172q14 72 80.5 144.5t167.5 128.5h-70zM856 551l-58 501l-252 -501h310z" />
    <glyph glyph-name="aogonek" unicode="&#x105;" horiz-adv-x="1319" 
d="M61 518q45 230 213 386t380 156q198 0 302 -138l10 49q12 65 78 65h170q37 0 54.5 -20.5t10.5 -57.5l-176 -907q-9 -49 -54 -81q-164 -121 -182 -211q-9 -44 7.5 -69t48.5 -25q49 0 79 44q20 29 38 42t47 13h62q41 0 58 -23.5t-1 -60.5q-50 -93 -134 -143t-193 -50
q-118 0 -190 67.5t-52 172.5q14 72 80 144t167 129h-27q-37 0 -54.5 20.5t-10.5 57.5l7 36q-157 -138 -356 -138q-140 0 -238 72t-135.5 195.5t-8.5 274.5zM380 518q-22 -111 35 -185.5t162 -74.5t191.5 74.5t108.5 185.5q22 110 -36 185t-163 75q-104 0 -190 -75t-108 -185
z" />
    <glyph glyph-name="Cacute" unicode="&#x106;" horiz-adv-x="1515" 
d="M1080 1876q48 56 102 6l61 -56q55 -52 -2 -102l-245 -212q-52 -45 -101 1l-18 16q-52 48 -6 102zM1341 410q54 -47 9 -101q-279 -333 -659 -333q-203 0 -350 95.5t-208.5 261.5t-22.5 367q39 203 162.5 368.5t305 260.5t384.5 95q231 0 375.5 -117t171.5 -328
q5 -35 -13.5 -55t-55.5 -20h-208q-32 0 -50 16t-28 49q-25 80 -89.5 123.5t-155.5 43.5q-166 0 -298 -124.5t-168 -311.5q-37 -187 54 -312t263 -125q240 0 430 186q50 50 102 4z" />
    <glyph glyph-name="cacute" unicode="&#x107;" horiz-adv-x="1182" 
d="M834 1552q48 56 102 6l61 -56q55 -52 -2 -102l-245 -212q-52 -45 -101 1l-18 16q-52 48 -6 102zM1000 326q51 -48 8 -102q-208 -248 -489 -248q-157 0 -272.5 71.5t-165 196t-20.5 274.5t124.5 274.5t235.5 196t292 71.5q179 0 290.5 -86t138.5 -235q6 -35 -13 -55.5
t-56 -20.5h-196q-29 0 -46 12.5t-37 42.5q-41 60 -136 60q-94 0 -175 -75t-103 -185q-22 -113 35.5 -186.5t178.5 -73.5q141 0 269 101q54 44 102 -1z" />
    <glyph glyph-name="Ccircumflex" unicode="&#x108;" horiz-adv-x="1515" 
d="M1136 1851q59 0 86 -51l93 -173q32 -60 -24 -98l-49 -33q-57 -39 -100 16l-134 168l-211 -178q-52 -44 -101 1l-17 15q-54 48 -5 102l179 192q36 39 89 39h194zM1341 410q54 -47 9 -101q-279 -333 -659 -333q-203 0 -350 95.5t-208.5 261.5t-22.5 367q39 203 162.5 368.5
t305 260.5t384.5 95q231 0 375.5 -117t171.5 -328q5 -35 -13.5 -55t-55.5 -20h-208q-32 0 -50 16t-28 49q-25 80 -89.5 123.5t-155.5 43.5q-166 0 -298 -124.5t-168 -311.5q-37 -187 54 -312t263 -125q240 0 430 186q50 50 102 4z" />
    <glyph glyph-name="ccircumflex" unicode="&#x109;" horiz-adv-x="1182" 
d="M883 1527q59 0 86 -51l93 -173q32 -60 -24 -98l-49 -33q-57 -39 -100 16l-134 168l-211 -178q-52 -44 -101 1l-17 15q-54 48 -5 102l179 192q36 39 89 39h194zM1000 326q51 -48 8 -102q-208 -248 -489 -248q-157 0 -272.5 71.5t-165 196t-20.5 274.5t124.5 274.5
t235.5 196t292 71.5q179 0 290.5 -86t138.5 -235q6 -35 -13 -55.5t-56 -20.5h-196q-29 0 -46 12.5t-37 42.5q-41 60 -136 60q-94 0 -175 -75t-103 -185q-22 -113 35.5 -186.5t178.5 -73.5q141 0 269 101q54 44 102 -1z" />
    <glyph glyph-name="Cdotaccent" unicode="&#x10a;" horiz-adv-x="1515" 
d="M836 1663q14 69 71.5 117t127.5 48t109.5 -48t25.5 -117t-71.5 -117t-127.5 -48t-109.5 48t-25.5 117zM1341 410q54 -47 9 -101q-279 -333 -659 -333q-203 0 -350 95.5t-208.5 261.5t-22.5 367q39 203 162.5 368.5t305 260.5t384.5 95q231 0 375.5 -117t171.5 -328
q5 -35 -13.5 -55t-55.5 -20h-208q-32 0 -50 16t-28 49q-25 80 -89.5 123.5t-155.5 43.5q-166 0 -298 -124.5t-168 -311.5q-37 -187 54 -312t263 -125q240 0 430 186q50 50 102 4z" />
    <glyph glyph-name="cdotaccent" unicode="&#x10b;" horiz-adv-x="1182" 
d="M602 1339q14 69 71.5 117t127.5 48t109.5 -48t25.5 -117t-71.5 -117t-127.5 -48t-109.5 48t-25.5 117zM1000 326q51 -48 8 -102q-208 -248 -489 -248q-157 0 -272.5 71.5t-165 196t-20.5 274.5t124.5 274.5t235.5 196t292 71.5q179 0 290.5 -86t138.5 -235
q6 -35 -13 -55.5t-56 -20.5h-196q-29 0 -46 12.5t-37 42.5q-41 60 -136 60q-94 0 -175 -75t-103 -185q-22 -113 35.5 -186.5t178.5 -73.5q141 0 269 101q54 44 102 -1z" />
    <glyph glyph-name="Ccaron" unicode="&#x10c;" horiz-adv-x="1515" 
d="M881 1509q-59 0 -86 51l-93 173q-32 60 24 98l49 32q58 39 100 -15l133 -168l212 179q51 43 101 -2l17 -15q54 -48 5 -102l-179 -192q-36 -39 -89 -39h-194zM1341 410q54 -47 9 -101q-279 -333 -659 -333q-203 0 -350 95.5t-208.5 261.5t-22.5 367q39 203 162.5 368.5
t305 260.5t384.5 95q231 0 375.5 -117t171.5 -328q5 -35 -13.5 -55t-55.5 -20h-208q-32 0 -50 16t-28 49q-25 80 -89.5 123.5t-155.5 43.5q-166 0 -298 -124.5t-168 -311.5q-37 -187 54 -312t263 -125q240 0 430 186q50 50 102 4z" />
    <glyph glyph-name="ccaron" unicode="&#x10d;" horiz-adv-x="1182" 
d="M625 1165q-59 0 -86 51l-93 173q-32 60 24 98l49 32q58 39 100 -15l133 -168l212 179q51 43 101 -2l17 -15q54 -48 5 -102l-179 -192q-36 -39 -89 -39h-194zM1000 326q51 -48 8 -102q-208 -248 -489 -248q-157 0 -272.5 71.5t-165 196t-20.5 274.5t124.5 274.5t235.5 196
t292 71.5q179 0 290.5 -86t138.5 -235q6 -35 -13 -55.5t-56 -20.5h-196q-29 0 -46 12.5t-37 42.5q-41 60 -136 60q-94 0 -175 -75t-103 -185q-22 -113 35.5 -186.5t178.5 -73.5q141 0 269 101q54 44 102 -1z" />
    <glyph glyph-name="Dcaron" unicode="&#x10e;" horiz-adv-x="1445" 
d="M761 1509q-59 0 -86 51l-93 173q-32 60 24 98l49 32q58 39 100 -15l133 -168l212 179q51 43 101 -2l17 -15q54 -48 5 -102l-179 -192q-36 -39 -89 -39h-194zM840 1400q316 0 471.5 -192t94.5 -508q-62 -317 -292 -508.5t-546 -191.5h-442q-37 0 -54.5 20.5t-10.5 57.5
l244 1258q12 64 79 64h456zM594 1112l-161 -825h98q52 0 103 3q168 9 285 114t154 296q38 199 -46.5 305.5t-262.5 106.5h-170z" />
    <glyph glyph-name="dcaron" unicode="&#x10f;" horiz-adv-x="1684" 
d="M1469 1331q11 58 69 105.5t136 47.5q73 0 111.5 -49.5t22.5 -129.5q-23 -119 -111.5 -225t-235.5 -169q-64 -28 -96 37q-14 27 49 67q69 43 95 79.5t19.5 68t-39.5 75.5q-30 39 -20 93zM61 518q45 230 213 386t380 156q198 0 302 -138l92 474q12 64 78 64h170
q37 0 54.5 -20.5t10.5 -57.5l-255 -1318q-12 -64 -79 -64h-170q-37 0 -54.5 20.5t-10.5 57.5l7 36q-157 -138 -356 -138q-140 0 -238 72t-135.5 195.5t-8.5 274.5zM380 518q-22 -111 35 -185.5t162 -74.5t191.5 74.5t108.5 185.5q22 110 -36 185t-163 75q-104 0 -190 -75
t-108 -185z" />
    <glyph glyph-name="Dcroat" unicode="&#x110;" horiz-adv-x="1483" 
d="M878 1400q316 0 471.5 -192t94.5 -508q-62 -317 -292 -508.5t-546 -191.5h-442q-37 0 -54.5 20.5t-10.5 57.5l101 520h-90q-37 0 -54.5 20.5t-10.5 57.5l12 60q12 64 78 64h104l104 536q12 64 79 64h456zM632 1112l-61 -312h148q37 0 54.5 -20.5t10.5 -57.5l-12 -60
q-12 -64 -78 -64h-162l-61 -311h98q52 0 103 3q168 9 285 114t154 296q38 199 -46.5 305.5t-262.5 106.5h-170z" />
    <glyph glyph-name="dcroat" unicode="&#x111;" horiz-adv-x="1347" 
d="M747 1261q12 65 78 65h209l13 70q12 64 79 64h169q37 0 54.5 -20.5t10.5 -57.5l-11 -56h54q37 0 54.5 -20.5t10.5 -57.5l-8 -39q-12 -65 -78 -65h-68l-209 -1080q-12 -64 -79 -64h-169q-37 0 -54.5 20.5t-10.5 57.5l7 36q-159 -138 -357 -138q-139 0 -237 72t-136 195.5
t-9 274.5q29 150 115.5 274t212.5 196t265 72q196 0 303 -139l43 223h-195q-38 0 -55 21t-10 58zM379 518q-22 -111 35 -186t162 -75t192 75t109 186q22 109 -36 184.5t-163 75.5q-104 0 -190.5 -75t-108.5 -185z" />
    <glyph glyph-name="Emacron" unicode="&#x112;" horiz-adv-x="1152" 
d="M499 1715q12 64 79 64h494q38 0 55 -20.5t10 -57.5l-18 -94q-12 -64 -79 -64h-494q-37 0 -54.5 20.5t-10.5 57.5zM306 1336q12 64 79 64h746q38 0 55 -21t10 -58l-27 -137q-12 -64 -79 -64h-495l-54 -278h433q37 0 54.5 -20.5t10.5 -57.5l-26 -133q-12 -65 -78 -65h-447
l-56 -286h499q37 0 54.5 -20.5t10.5 -57.5l-27 -137q-12 -65 -78 -65h-764q-37 0 -54.5 20.5t-10.5 57.5z" />
    <glyph glyph-name="emacron" unicode="&#x113;" horiz-adv-x="1237" 
d="M468 1391q12 64 79 64h494q38 0 55 -20.5t10 -57.5l-18 -94q-12 -64 -79 -64h-494q-37 0 -54.5 20.5t-10.5 57.5zM366 429q-2 -99 60.5 -155t177.5 -56q161 0 300 85q60 38 100 -18l26 -37q40 -58 -12 -101q-213 -171 -465 -171q-175 0 -298.5 72t-173 195t-20.5 275
q29 150 127.5 274.5t243 196t303.5 71.5q155 0 267.5 -70.5t159 -190.5t18.5 -264q-5 -28 -13 -50q-17 -56 -82 -56h-719zM684 818q-88 0 -160.5 -49.5t-113.5 -136.5h462q-2 87 -51 136.5t-137 49.5z" />
    <glyph glyph-name="Ebreve" unicode="&#x114;" horiz-adv-x="1152" 
d="M780 1488q-126 0 -213 67.5t-97 176.5q-3 34 17 52t56 18h122q30 0 43 -14t29 -50q23 -48 82 -48q65 0 108 58q20 28 38 41t46 13h109q41 0 59 -23t0 -58q-54 -105 -165 -169t-234 -64zM306 1336q12 64 79 64h746q38 0 55 -21t10 -58l-27 -137q-12 -64 -79 -64h-495
l-54 -278h433q37 0 54.5 -20.5t10.5 -57.5l-26 -133q-12 -65 -78 -65h-447l-56 -286h499q37 0 54.5 -20.5t10.5 -57.5l-27 -137q-12 -65 -78 -65h-764q-37 0 -54.5 20.5t-10.5 57.5z" />
    <glyph glyph-name="ebreve" unicode="&#x115;" horiz-adv-x="1237" 
d="M745 1164q-126 0 -213 67.5t-97 176.5q-3 34 17 52t56 18h122q30 0 43 -14t29 -50q23 -48 82 -48q65 0 108 58q20 28 38 41t46 13h109q41 0 59 -23t0 -58q-54 -105 -165 -169t-234 -64zM366 429q-2 -99 60.5 -155t177.5 -56q161 0 300 85q60 38 100 -18l26 -37
q40 -58 -12 -101q-213 -171 -465 -171q-175 0 -298.5 72t-173 195t-20.5 275q29 150 127.5 274.5t243 196t303.5 71.5q155 0 267.5 -70.5t159 -190.5t18.5 -264q-5 -28 -13 -50q-17 -56 -82 -56h-719zM684 818q-88 0 -160.5 -49.5t-113.5 -136.5h462q-2 87 -51 136.5
t-137 49.5z" />
    <glyph glyph-name="Edotaccent" unicode="&#x116;" horiz-adv-x="1152" 
d="M654 1663q14 69 71.5 117t127.5 48t109.5 -48t25.5 -117t-71.5 -117t-127.5 -48t-109.5 48t-25.5 117zM306 1336q12 64 79 64h746q38 0 55 -21t10 -58l-27 -137q-12 -64 -79 -64h-495l-54 -278h433q37 0 54.5 -20.5t10.5 -57.5l-26 -133q-12 -65 -78 -65h-447l-56 -286
h499q37 0 54.5 -20.5t10.5 -57.5l-27 -137q-12 -65 -78 -65h-764q-37 0 -54.5 20.5t-10.5 57.5z" />
    <glyph glyph-name="edotaccent" unicode="&#x117;" horiz-adv-x="1237" 
d="M612 1339q14 69 71.5 117t127.5 48t109.5 -48t25.5 -117t-71.5 -117t-127.5 -48t-109.5 48t-25.5 117zM366 429q-2 -99 60.5 -155t177.5 -56q161 0 300 85q60 38 100 -18l26 -37q40 -58 -12 -101q-213 -171 -465 -171q-175 0 -298.5 72t-173 195t-20.5 275
q29 150 127.5 274.5t243 196t303.5 71.5q155 0 267.5 -70.5t159 -190.5t18.5 -264q-5 -28 -13 -50q-17 -56 -82 -56h-719zM684 818q-88 0 -160.5 -49.5t-113.5 -136.5h462q-2 87 -51 136.5t-137 49.5z" />
    <glyph glyph-name="Eogonek" unicode="&#x118;" horiz-adv-x="1152" 
d="M306 1336q12 64 79 64h746q38 0 55 -21t10 -58l-27 -137q-12 -64 -79 -64h-495l-54 -278h433q37 0 54.5 -20.5t10.5 -57.5l-26 -133q-12 -65 -78 -65h-447l-56 -286h499q37 0 54.5 -20.5t10.5 -57.5l-27 -137q-12 -65 -78 -65h-88q-206 -139 -225 -241q-9 -44 7.5 -69
t47.5 -25q49 0 80 45q20 28 38 41t47 13h62q41 0 58 -23.5t-1 -60.5q-50 -93 -134 -143t-193 -50q-118 0 -190.5 67.5t-52.5 172.5q14 71 80.5 143.5t167.5 129.5h-468q-37 0 -54.5 20.5t-10.5 57.5z" />
    <glyph glyph-name="eogonek" unicode="&#x119;" horiz-adv-x="1237" 
d="M366 429q-2 -99 60.5 -155t177.5 -56q161 0 300 85q60 38 100 -18l26 -37q40 -58 -12 -101q-168 -135 -354 -162q-185 -128 -203 -226q-9 -44 7 -69t48 -25q49 0 79 44q20 29 38 42t47 13h63q41 0 58 -23.5t-2 -60.5q-50 -93 -134 -143t-192 -50q-118 0 -190.5 67.5
t-52.5 172.5q13 66 71 134t147 122q-143 21 -240.5 96t-135 189t-11.5 250q29 150 127.5 274.5t243 196t303.5 71.5q155 0 267.5 -70.5t159 -190.5t18.5 -264q-5 -28 -13 -50q-17 -56 -82 -56h-719zM684 818q-88 0 -160.5 -49.5t-113.5 -136.5h462q-2 87 -51 136.5
t-137 49.5z" />
    <glyph glyph-name="Ecaron" unicode="&#x11a;" horiz-adv-x="1152" 
d="M688 1509q-59 0 -86 51l-93 173q-32 60 24 98l49 32q58 39 100 -15l133 -168l212 179q51 43 101 -2l17 -15q54 -48 5 -102l-179 -192q-36 -39 -89 -39h-194zM306 1336q12 64 79 64h746q38 0 55 -21t10 -58l-27 -137q-12 -64 -79 -64h-495l-54 -278h433q37 0 54.5 -20.5
t10.5 -57.5l-26 -133q-12 -65 -78 -65h-447l-56 -286h499q37 0 54.5 -20.5t10.5 -57.5l-27 -137q-12 -65 -78 -65h-764q-37 0 -54.5 20.5t-10.5 57.5z" />
    <glyph glyph-name="ecaron" unicode="&#x11b;" horiz-adv-x="1237" 
d="M650 1165q-59 0 -86 51l-93 173q-32 60 24 98l49 32q58 39 100 -15l133 -168l212 179q51 43 101 -2l17 -15q54 -48 5 -102l-179 -192q-36 -39 -89 -39h-194zM366 429q-2 -99 60.5 -155t177.5 -56q161 0 300 85q60 38 100 -18l26 -37q40 -58 -12 -101q-213 -171 -465 -171
q-175 0 -298.5 72t-173 195t-20.5 275q29 150 127.5 274.5t243 196t303.5 71.5q155 0 267.5 -70.5t159 -190.5t18.5 -264q-5 -28 -13 -50q-17 -56 -82 -56h-719zM684 818q-88 0 -160.5 -49.5t-113.5 -136.5h462q-2 87 -51 136.5t-137 49.5z" />
    <glyph glyph-name="Gcircumflex" unicode="&#x11c;" horiz-adv-x="1540" 
d="M1136 1851q59 0 86 -51l93 -173q32 -60 -24 -98l-49 -33q-57 -39 -100 16l-134 168l-211 -178q-52 -44 -101 1l-17 15q-54 48 -5 102l179 192q36 39 89 39h194zM1432 752q38 0 56 -13.5t14 -38.5q-43 -223 -159.5 -387t-286.5 -250.5t-373 -86.5q-144 0 -265 56.5
t-198.5 152.5t-108 230.5t-1.5 284.5q39 200 165.5 366.5t309 262t379.5 95.5q230 0 375.5 -108t180.5 -313q7 -36 -11.5 -56.5t-55.5 -20.5h-217q-58 0 -80 61q-59 150 -251 150q-158 0 -291.5 -125t-169.5 -312q-37 -187 49 -312t249 -125q123 0 223.5 67t148.5 177h-281
q-38 0 -55 20.5t-10 57.5l20 103q12 64 79 64h565z" />
    <glyph glyph-name="gcircumflex" unicode="&#x11d;" horiz-adv-x="1319" 
d="M949 1527q59 0 86 -51l93 -173q32 -60 -24 -98l-49 -33q-57 -39 -100 16l-134 168l-211 -178q-52 -44 -101 1l-17 15q-54 48 -5 102l179 192q36 39 89 39h194zM61 518q45 230 213 386t380 156q198 0 302 -138l10 49q12 65 78 65h170q38 0 55 -20.5t10 -57.5l-174 -892
q-47 -246 -223.5 -388t-435.5 -142q-250 0 -407 170q-45 51 4 102l67 68q47 47 101 3q106 -79 251 -79q126 0 213.5 65.5t109.5 180.5l15 77q-156 -137 -355 -137q-139 0 -237.5 71.5t-136.5 193t-10 267.5zM380 518q-22 -111 35 -185.5t162 -74.5t191.5 74.5t108.5 185.5
q22 110 -36 185t-163 75q-104 0 -190 -75t-108 -185z" />
    <glyph glyph-name="Gbreve" unicode="&#x11e;" horiz-adv-x="1540" 
d="M972 1488q-126 0 -213 67.5t-97 176.5q-3 34 17 52t56 18h122q30 0 43 -14t29 -50q23 -48 82 -48q65 0 108 58q20 28 38 41t46 13h109q41 0 59 -23t0 -58q-54 -105 -165 -169t-234 -64zM1432 752q38 0 56 -13.5t14 -38.5q-43 -223 -159.5 -387t-286.5 -250.5t-373 -86.5
q-144 0 -265 56.5t-198.5 152.5t-108 230.5t-1.5 284.5q39 200 165.5 366.5t309 262t379.5 95.5q230 0 375.5 -108t180.5 -313q7 -36 -11.5 -56.5t-55.5 -20.5h-217q-58 0 -80 61q-59 150 -251 150q-158 0 -291.5 -125t-169.5 -312q-37 -187 49 -312t249 -125
q123 0 223.5 67t148.5 177h-281q-38 0 -55 20.5t-10 57.5l20 103q12 64 79 64h565z" />
    <glyph glyph-name="gbreve" unicode="&#x11f;" horiz-adv-x="1319" 
d="M768 1164q-126 0 -213 67.5t-97 176.5q-3 34 17 52t56 18h122q30 0 43 -14t29 -50q23 -48 82 -48q65 0 108 58q20 28 38 41t46 13h109q41 0 59 -23t0 -58q-54 -105 -165 -169t-234 -64zM61 518q45 230 213 386t380 156q198 0 302 -138l10 49q12 65 78 65h170
q38 0 55 -20.5t10 -57.5l-174 -892q-47 -246 -223.5 -388t-435.5 -142q-250 0 -407 170q-45 51 4 102l67 68q47 47 101 3q106 -79 251 -79q126 0 213.5 65.5t109.5 180.5l15 77q-156 -137 -355 -137q-139 0 -237.5 71.5t-136.5 193t-10 267.5zM380 518q-22 -111 35 -185.5
t162 -74.5t191.5 74.5t108.5 185.5q22 110 -36 185t-163 75q-104 0 -190 -75t-108 -185z" />
    <glyph glyph-name="Gdotaccent" unicode="&#x120;" horiz-adv-x="1540" 
d="M836 1663q14 69 71.5 117t127.5 48t109.5 -48t25.5 -117t-71.5 -117t-127.5 -48t-109.5 48t-25.5 117zM1432 752q38 0 56 -13.5t14 -38.5q-43 -223 -159.5 -387t-286.5 -250.5t-373 -86.5q-144 0 -265 56.5t-198.5 152.5t-108 230.5t-1.5 284.5q39 200 165.5 366.5
t309 262t379.5 95.5q230 0 375.5 -108t180.5 -313q7 -36 -11.5 -56.5t-55.5 -20.5h-217q-58 0 -80 61q-59 150 -251 150q-158 0 -291.5 -125t-169.5 -312q-37 -187 49 -312t249 -125q123 0 223.5 67t148.5 177h-281q-38 0 -55 20.5t-10 57.5l20 103q12 64 79 64h565z" />
    <glyph glyph-name="gdotaccent" unicode="&#x121;" horiz-adv-x="1319" 
d="M631 1339q14 69 71.5 117t127.5 48t109.5 -48t25.5 -117t-71.5 -117t-127.5 -48t-109.5 48t-25.5 117zM61 518q45 230 213 386t380 156q198 0 302 -138l10 49q12 65 78 65h170q38 0 55 -20.5t10 -57.5l-174 -892q-47 -246 -223.5 -388t-435.5 -142q-250 0 -407 170
q-45 51 4 102l67 68q47 47 101 3q106 -79 251 -79q126 0 213.5 65.5t109.5 180.5l15 77q-156 -137 -355 -137q-139 0 -237.5 71.5t-136.5 193t-10 267.5zM380 518q-22 -111 35 -185.5t162 -74.5t191.5 74.5t108.5 185.5q22 110 -36 185t-163 75q-104 0 -190 -75t-108 -185z
" />
    <glyph glyph-name="Gcommaaccent" unicode="&#x122;" horiz-adv-x="1540" 
d="M1432 752q38 0 56 -13.5t14 -38.5q-43 -223 -159.5 -387t-286.5 -250.5t-373 -86.5q-144 0 -265 56.5t-198.5 152.5t-108 230.5t-1.5 284.5q39 200 165.5 366.5t309 262t379.5 95.5q230 0 375.5 -108t180.5 -313q7 -36 -11.5 -56.5t-55.5 -20.5h-217q-58 0 -80 61
q-59 150 -251 150q-158 0 -291.5 -125t-169.5 -312q-37 -187 49 -312t249 -125q123 0 223.5 67t148.5 177h-281q-38 0 -55 20.5t-10 57.5l20 103q12 64 79 64h565zM603 -123q48 56 102 6l61 -56q57 -52 -1 -102l-246 -212q-51 -45 -101 1l-18 16q-52 48 -7 102z" />
    <glyph glyph-name="gcommaaccent" unicode="&#x123;" horiz-adv-x="1319" 
d="M846 1167q-48 -56 -102 -6l-61 56q-56 52 2 102l246 212q50 44 101 -2l17 -15q52 -48 7 -102zM61 518q45 230 213 386t380 156q198 0 302 -138l10 49q12 65 78 65h170q38 0 55 -20.5t10 -57.5l-174 -892q-47 -246 -223.5 -388t-435.5 -142q-250 0 -407 170q-45 51 4 102
l67 68q47 47 101 3q106 -79 251 -79q126 0 213.5 65.5t109.5 180.5l15 77q-156 -137 -355 -137q-139 0 -237.5 71.5t-136.5 193t-10 267.5zM380 518q-22 -111 35 -185.5t162 -74.5t191.5 74.5t108.5 185.5q22 110 -36 185t-163 75q-104 0 -190 -75t-108 -185z" />
    <glyph glyph-name="Hcircumflex" unicode="&#x124;" horiz-adv-x="1421" 
d="M1064 1851q59 0 86 -51l93 -173q32 -60 -24 -98l-49 -33q-57 -39 -100 16l-134 168l-211 -178q-52 -44 -101 1l-17 15q-54 48 -5 102l179 192q36 39 89 39h194zM306 1336q12 64 79 64h185q38 0 55 -20.5t10 -57.5l-93 -476h465l95 490q12 64 79 64h186q37 0 54.5 -20.5
t10.5 -57.5l-244 -1258q-12 -64 -79 -64h-186q-37 0 -54.5 20.5t-10.5 57.5l94 483h-465l-96 -497q-12 -64 -79 -64h-185q-37 0 -54.5 20.5t-10.5 57.5z" />
    <glyph glyph-name="hcircumflex" unicode="&#x125;" horiz-adv-x="1232" 
d="M651 1911q59 0 86 -51l93 -173q32 -60 -24 -98l-49 -33q-57 -39 -100 16l-134 168l-211 -178q-52 -44 -101 1l-17 15q-54 48 -5 102l179 192q36 39 89 39h194zM840 1060q171 0 259 -113.5t53 -296.5l-114 -586q-12 -64 -78 -64h-175q-37 0 -54.5 20.5t-10.5 57.5l101 521
q15 77 -23 128t-109 51q-82 0 -148 -58t-86 -160l-96 -495q-12 -65 -78 -65h-175q-37 0 -54.5 20.5t-10.5 57.5l255 1318q12 64 79 64h175q37 0 54.5 -20.5t10.5 -57.5l-88 -455q135 133 313 133z" />
    <glyph glyph-name="Hbar" unicode="&#x126;" horiz-adv-x="1437" 
d="M253 1022h-40q-37 0 -54.5 20.5t-10.5 57.5l11 55q12 64 78 64h54l23 117q12 64 79 64h185q38 0 54.5 -21t9.5 -58l-20 -102h465l23 117q12 64 79 64h186q38 0 54.5 -21t9.5 -58l-20 -102h40q37 0 54.5 -20.5t10.5 -57.5l-11 -55q-12 -64 -78 -64h-54l-186 -958
q-12 -64 -78 -64h-186q-37 0 -54.5 20.5t-10.5 57.5l95 488h-465l-97 -502q-12 -64 -79 -64h-185q-37 0 -54.5 20.5t-10.5 57.5zM1014 842l35 180h-465l-35 -180h465z" />
    <glyph glyph-name="hbar" unicode="&#x127;" horiz-adv-x="1257" 
d="M627 1326h194q37 0 54.5 -20.5t10.5 -57.5l-8 -39q-12 -65 -78 -65h-208l-42 -217q136 133 313 133q172 0 259.5 -113.5t52.5 -296.5l-114 -586q-12 -64 -78 -64h-175q-37 0 -54.5 20.5t-10.5 57.5l101 521q14 71 -24.5 125t-107.5 54q-85 0 -151.5 -68t-90.5 -194
l-88 -452q-12 -64 -78 -64h-175q-37 0 -54.5 20.5t-10.5 57.5l207 1066h-49q-37 0 -54.5 20.5t-10.5 57.5l8 39q12 65 78 65h63l13 70q12 64 79 64h175q37 0 54.5 -20.5t10.5 -57.5z" />
    <glyph glyph-name="Itilde" unicode="&#x128;" horiz-adv-x="636" 
d="M531 1555q-59 36 -84 36q-20 0 -37 -18q-25 -27 -45 -37.5t-48 -4.5l-97 20q-38 8 -51 32t5 59q86 161 232 161q72 0 143 -43q57 -36 84 -36q19 0 37 18q24 27 44 37.5t49 4.5l96 -20q38 -8 51 -32t-5 -59q-86 -161 -232 -161q-73 0 -142 43zM575 1400q37 0 54.5 -20.5
t10.5 -57.5l-244 -1258q-12 -64 -79 -64h-185q-37 0 -54.5 20.5t-10.5 57.5l244 1258q12 64 79 64h185z" />
    <glyph glyph-name="itilde" unicode="&#x129;" horiz-adv-x="576" 
d="M437 1226q-57 36 -84 36q-20 0 -37 -18q-25 -27 -45 -37.5t-48 -4.5l-97 20q-38 8 -51 32t5 59q86 161 232 161q72 0 143 -43q57 -36 84 -36q19 0 37 18q24 27 44 37.5t49 4.5l96 -20q38 -8 51 -32t-5 -59q-86 -161 -232 -161q-73 0 -142 43zM215 972q12 64 79 64h175
q37 0 54.5 -20.5t10.5 -57.5l-173 -894q-12 -64 -79 -64h-175q-37 0 -54.5 20.5t-10.5 57.5z" />
    <glyph glyph-name="Imacron" unicode="&#x12a;" horiz-adv-x="636" 
d="M230 1715q12 64 79 64h494q38 0 55 -20.5t10 -57.5l-18 -94q-12 -64 -79 -64h-494q-37 0 -54.5 20.5t-10.5 57.5zM575 1400q37 0 54.5 -20.5t10.5 -57.5l-244 -1258q-12 -64 -79 -64h-185q-37 0 -54.5 20.5t-10.5 57.5l244 1258q12 64 79 64h185z" />
    <glyph glyph-name="imacron" unicode="&#x12b;" horiz-adv-x="576" 
d="M137 1391q12 64 79 64h494q38 0 55 -20.5t10 -57.5l-18 -94q-12 -64 -79 -64h-494q-37 0 -54.5 20.5t-10.5 57.5zM215 972q12 64 79 64h175q37 0 54.5 -20.5t10.5 -57.5l-173 -894q-12 -64 -79 -64h-175q-37 0 -54.5 20.5t-10.5 57.5z" />
    <glyph glyph-name="Ibreve" unicode="&#x12c;" horiz-adv-x="636" 
d="M507 1488q-126 0 -213 67.5t-97 176.5q-3 34 17 52t56 18h122q30 0 43 -14t29 -50q23 -48 82 -48q65 0 108 58q20 28 38 41t46 13h109q41 0 59 -23t0 -58q-54 -105 -165 -169t-234 -64zM575 1400q37 0 54.5 -20.5t10.5 -57.5l-244 -1258q-12 -64 -79 -64h-185
q-37 0 -54.5 20.5t-10.5 57.5l244 1258q12 64 79 64h185z" />
    <glyph glyph-name="ibreve" unicode="&#x12d;" horiz-adv-x="576" 
d="M414 1164q-126 0 -213 67.5t-97 176.5q-3 34 17 52t56 18h122q30 0 43 -14t29 -50q23 -48 82 -48q65 0 108 58q20 28 38 41t46 13h109q41 0 59 -23t0 -58q-54 -105 -165 -169t-234 -64zM215 972q12 64 79 64h175q37 0 54.5 -20.5t10.5 -57.5l-173 -894q-12 -64 -79 -64
h-175q-37 0 -54.5 20.5t-10.5 57.5z" />
    <glyph glyph-name="Iogonek" unicode="&#x12e;" horiz-adv-x="636" 
d="M114 0q-29 0 -41.5 20.5t-5.5 57.5l244 1258q12 64 79 64h186q37 0 54.5 -20.5t10.5 -57.5l-247 -1271q-9 -49 -54 -82q-163 -119 -181 -210q-9 -44 7 -69t48 -25q49 0 79 44q20 29 38 42t47 13h62q41 0 58 -23.5t-1 -60.5q-50 -93 -134 -143t-193 -50q-118 0 -190 67.5
t-52 172.5q14 72 80 144t167 129h-61z" />
    <glyph glyph-name="iogonek" unicode="&#x12f;" horiz-adv-x="576" 
d="M258 1307q14 74 77 124.5t141 50.5t121 -50.5t29 -124.5q-15 -75 -77.5 -125t-140.5 -50t-121.5 50t-28.5 125zM215 972q12 64 79 64h175q37 0 54.5 -20.5t10.5 -57.5l-176 -907q-9 -49 -54 -82q-163 -120 -181 -210q-9 -44 7.5 -69t47.5 -25q48 0 80 45q20 28 38 41
t47 13h62q41 0 58 -23.5t-1 -60.5q-50 -93 -134 -143t-193 -50q-118 0 -190 67.5t-52 172.5q13 71 79 143.5t168 129.5h-33q-37 0 -54.5 20.5t-10.5 57.5z" />
    <glyph glyph-name="Idotaccent" unicode="&#x130;" horiz-adv-x="636" 
d="M374 1663q14 69 71.5 117t127.5 48t109.5 -48t25.5 -117t-71.5 -117t-127.5 -48t-109.5 48t-25.5 117zM575 1400q37 0 54.5 -20.5t10.5 -57.5l-244 -1258q-12 -64 -79 -64h-185q-37 0 -54.5 20.5t-10.5 57.5l244 1258q12 64 79 64h185z" />
    <glyph glyph-name="dotlessi" unicode="&#x131;" horiz-adv-x="576" 
d="M215 972q12 64 79 64h175q37 0 54.5 -20.5t10.5 -57.5l-173 -894q-12 -64 -79 -64h-175q-37 0 -54.5 20.5t-10.5 57.5z" />
    <glyph glyph-name="IJ" unicode="&#x132;" horiz-adv-x="1532" 
d="M575 1400q37 0 54.5 -20.5t10.5 -57.5l-244 -1258q-12 -64 -79 -64h-185q-37 0 -54.5 20.5t-10.5 57.5l244 1258q12 64 79 64h185zM1225 1336q12 64 79 64h186q38 0 55 -20.5t10 -57.5l-171 -876q-45 -231 -183 -350.5t-329 -119.5q-153 0 -275 74q-57 36 -21 99l58 103
q30 55 96 31q57 -19 111 -19q84 0 140 51t75 151z" />
    <glyph glyph-name="ij" unicode="&#x133;" horiz-adv-x="1152" 
d="M258 1307q14 74 77 124.5t141 50.5t121 -50.5t29 -124.5q-15 -75 -77.5 -125t-140.5 -50t-121.5 50t-28.5 125zM834 1307q14 74 77 124.5t141 50.5t121 -50.5t29 -124.5q-15 -75 -77.5 -125t-140.5 -50t-121.5 50t-28.5 125zM215 972q12 64 79 64h175q37 0 54.5 -20.5
t10.5 -57.5l-173 -894q-12 -64 -79 -64h-175q-37 0 -54.5 20.5t-10.5 57.5zM791 972q12 64 79 64h175q38 0 55 -20.5t10 -57.5l-207 -1062q-34 -174 -148.5 -267t-291.5 -93q-12 0 -40 2q-34 3 -49 25t-8 58l25 128q12 65 67 65t87 27t44 87z" />
    <glyph glyph-name="Jcircumflex" unicode="&#x134;" horiz-adv-x="937" 
d="M990 1851q59 0 86 -51l93 -173q32 -60 -24 -98l-49 -33q-57 -39 -100 16l-134 168l-211 -178q-52 -44 -101 1l-17 15q-54 48 -5 102l179 192q36 39 89 39h194zM629 1336q12 64 79 64h186q38 0 55 -20.5t10 -57.5l-171 -876q-45 -231 -183 -350.5t-329 -119.5
q-153 0 -275 74q-57 36 -21 99l58 103q30 55 96 31q57 -19 111 -19q84 0 140 51t75 151z" />
    <glyph glyph-name="jcircumflex" unicode="&#x135;" horiz-adv-x="576" 
d="M578 1527q59 0 86 -51l93 -173q32 -60 -24 -98l-49 -33q-57 -39 -100 16l-134 168l-211 -178q-52 -44 -101 1l-17 15q-54 48 -5 102l179 192q36 39 89 39h194zM215 972q12 64 79 64h175q38 0 55 -20.5t10 -57.5l-207 -1062q-33 -174 -148 -267t-291 -93q-6 0 -18.5 0.5
t-19.5 0.5q-36 3 -51.5 25t-8.5 58l25 130q12 64 68 64q55 0 86.5 27t43.5 87z" />
    <glyph glyph-name="Kcommaaccent" unicode="&#x136;" horiz-adv-x="1262" 
d="M1276 1400q38 0 55 -21.5t9 -59.5q-108 -467 -369 -630l195 -607q12 -37 -4.5 -59.5t-55.5 -22.5h-213q-62 0 -81 60l-169 534q-15 -1 -50 -1h-100l-102 -529q-12 -64 -79 -64h-185q-37 0 -54.5 20.5t-10.5 57.5l244 1258q12 64 79 64h185q38 0 55 -20.5t10 -57.5
l-87 -444h65q158 0 250 102.5t148 353.5q15 66 79 66h186zM461 -123q48 56 102 6l61 -56q57 -52 -1 -102l-246 -212q-51 -45 -101 1l-18 16q-52 48 -7 102z" />
    <glyph glyph-name="kcommaaccent" unicode="&#x137;" horiz-adv-x="1106" 
d="M1051 1036q38 0 55.5 -21.5t7.5 -59.5q-82 -325 -281 -448l138 -425q12 -37 -4.5 -59.5t-55.5 -22.5h-200q-63 0 -81 60l-110 368h-90l-70 -364q-12 -64 -79 -64h-175q-37 0 -54.5 20.5t-10.5 57.5l255 1318q12 64 79 64h175q37 0 54.5 -20.5t10.5 -57.5l-132 -679h65
q177 0 248 267q18 66 80 66h175zM348 -123q48 56 102 6l61 -56q57 -52 -1 -102l-246 -212q-51 -45 -101 1l-18 16q-52 48 -7 102z" />
    <glyph glyph-name="kgreenlandic" unicode="&#x138;" horiz-adv-x="1106" 
d="M1052 1036q38 0 55.5 -21.5t7.5 -59.5q-83 -325 -281 -448l138 -425q12 -37 -4.5 -59.5t-55.5 -22.5h-201q-63 0 -81 61l-107 367h-92l-70 -364q-12 -64 -79 -64h-176q-37 0 -54.5 20.5t-10.5 57.5l173 894q12 64 79 64h176q38 0 55 -20.5t10 -57.5l-50 -254h64
q177 0 248 266q18 66 80 66h176z" />
    <glyph glyph-name="Lacute" unicode="&#x139;" horiz-adv-x="1047" 
d="M663 1876q48 56 102 6l61 -56q55 -52 -2 -102l-245 -212q-52 -45 -101 1l-18 16q-52 48 -6 102zM306 1336q12 64 79 64h185q38 0 55 -20.5t10 -57.5l-202 -1036h459q37 0 54.5 -20.5t10.5 -57.5l-28 -143q-12 -65 -78 -65h-724q-37 0 -54.5 20.5t-10.5 57.5z" />
    <glyph glyph-name="lacute" unicode="&#x13a;" horiz-adv-x="576" 
d="M604 1936q48 56 102 6l61 -56q56 -52 -2 -102l-245 -212q-51 -45 -102 1l-17 16q-52 49 -6 102zM298 1396q12 64 78 64h175q37 0 54.5 -20.5t10.5 -57.5l-255 -1318q-12 -64 -79 -64h-175q-37 0 -54.5 20.5t-10.5 57.5z" />
    <glyph glyph-name="Lcommaaccent" unicode="&#x13b;" horiz-adv-x="1047" 
d="M306 1336q12 64 79 64h185q38 0 55 -20.5t10 -57.5l-202 -1036h459q37 0 54.5 -20.5t10.5 -57.5l-28 -143q-12 -65 -78 -65h-724q-37 0 -54.5 20.5t-10.5 57.5zM381 -123q48 56 102 6l61 -56q57 -52 -1 -102l-246 -212q-51 -45 -101 1l-18 16q-52 48 -7 102z" />
    <glyph glyph-name="lcommaaccent" unicode="&#x13c;" horiz-adv-x="576" 
d="M298 1396q12 64 78 64h175q37 0 54.5 -20.5t10.5 -57.5l-255 -1318q-12 -64 -79 -64h-175q-37 0 -54.5 20.5t-10.5 57.5zM83 -123q48 56 102 6l61 -56q57 -52 -1 -102l-246 -212q-50 -44 -101 2l-17 15q-52 48 -7 102z" />
    <glyph glyph-name="Lcaron" unicode="&#x13d;" horiz-adv-x="1056" 
d="M794 1271q11 58 68.5 105.5t135.5 47.5q73 0 111.5 -49.5t23.5 -129.5q-24 -120 -112.5 -226t-235.5 -168q-64 -28 -96 37q-14 27 49 67q69 43 95.5 79.5t19.5 68t-40 75.5q-30 41 -19 93zM306 1336q12 64 79 64h185q38 0 55 -20.5t10 -57.5l-202 -1036h459
q37 0 54.5 -20.5t10.5 -57.5l-28 -143q-12 -65 -78 -65h-724q-37 0 -54.5 20.5t-10.5 57.5z" />
    <glyph glyph-name="lcaron" unicode="&#x13e;" horiz-adv-x="940" 
d="M725 1331q11 58 69 105.5t136 47.5q73 0 111.5 -49.5t22.5 -129.5q-23 -119 -111.5 -225t-235.5 -169q-64 -28 -96 37q-14 27 49 67q69 43 95 79.5t19.5 68t-39.5 75.5q-30 39 -20 93zM298 1396q12 64 78 64h175q37 0 54.5 -20.5t10.5 -57.5l-255 -1318q-12 -64 -79 -64
h-175q-37 0 -54.5 20.5t-10.5 57.5z" />
    <glyph glyph-name="Ldot" unicode="&#x13f;" horiz-adv-x="1049" 
d="M306 1336q12 64 79 64h185q38 0 55 -20.5t10 -57.5l-202 -1036h459q37 0 54.5 -20.5t10.5 -57.5l-28 -143q-12 -65 -78 -65h-724q-37 0 -54.5 20.5t-10.5 57.5zM672 771q14 69 71.5 117t127.5 48t109.5 -48t25.5 -117t-71.5 -117t-127.5 -48t-109.5 48t-25.5 117z" />
    <glyph glyph-name="ldot" unicode="&#x140;" horiz-adv-x="915" 
d="M298 1396q12 64 78 64h175q37 0 54.5 -20.5t10.5 -57.5l-255 -1318q-12 -64 -79 -64h-175q-37 0 -54.5 20.5t-10.5 57.5zM594 751q14 69 72 117t128 48t109 -48t25 -117q-13 -69 -71 -117t-128 -48t-109 48t-26 117z" />
    <glyph glyph-name="Lslash" unicode="&#x141;" horiz-adv-x="1072" 
d="M168 496l-33 -15q-33 -16 -57.5 -5.5t-35.5 45.5l-13 40q-21 64 41 93l141 65l120 617q12 64 79 64h186q38 0 55 -20.5t10 -57.5l-85 -432l214 99q70 32 93 -41l12 -37q22 -65 -40 -94l-322 -150l-74 -381h458q37 0 54.5 -20.5t10.5 -57.5l-28 -143q-12 -65 -78 -65h-724
q-37 0 -54.5 20.5t-10.5 57.5z" />
    <glyph glyph-name="lslash" unicode="&#x142;" horiz-adv-x="648" 
d="M524 723l-128 -659q-12 -64 -78 -64h-175q-37 0 -54.5 20.5t-10.5 57.5l94 484l-40 -18q-33 -15 -57 -3.5t-35 46.5l-12 39q-20 65 42 93l145 66l118 611q12 64 79 64h175q37 0 54.5 -20.5t10.5 -57.5l-85 -437l44 20q33 15 57.5 4.5t35.5 -45.5l13 -38q21 -64 -40 -93z
" />
    <glyph glyph-name="Nacute" unicode="&#x143;" horiz-adv-x="1421" 
d="M1029 1876q48 56 102 6l61 -56q55 -52 -2 -102l-245 -212q-52 -45 -101 1l-18 16q-52 48 -6 102zM306 1336q12 64 79 64h219q63 0 82 -59l278 -840l162 835q12 64 79 64h162q37 0 54.5 -20.5t10.5 -57.5l-244 -1258q-12 -64 -79 -64h-220q-63 0 -82 59l-279 840
l-162 -835q-12 -64 -78 -64h-161q-37 0 -54.5 20.5t-10.5 57.5z" />
    <glyph glyph-name="nacute" unicode="&#x144;" horiz-adv-x="1232" 
d="M876 1552q48 56 102 6l61 -56q55 -52 -2 -102l-245 -212q-52 -45 -101 1l-18 16q-52 48 -6 102zM840 1060q171 0 259 -113.5t53 -296.5l-114 -586q-12 -64 -78 -64h-175q-37 0 -54.5 20.5t-10.5 57.5l101 521q14 71 -24.5 125t-107.5 54q-82 0 -148 -58t-86 -160
l-96 -495q-12 -65 -78 -65h-175q-37 0 -54.5 20.5t-10.5 57.5l173 894q12 64 79 64h175q37 0 54.5 -20.5t10.5 -57.5l-6 -31q135 133 313 133z" />
    <glyph glyph-name="Ncommaaccent" unicode="&#x145;" horiz-adv-x="1422" 
d="M306 1336q12 64 79 64h219q63 0 82 -59l278 -840l162 835q12 64 79 64h162q37 0 54.5 -20.5t10.5 -57.5l-244 -1258q-12 -64 -79 -64h-220q-63 0 -82 59l-279 840l-162 -835q-12 -64 -78 -64h-161q-37 0 -54.5 20.5t-10.5 57.5zM522 -123q48 56 102 6l61 -56
q57 -52 -1 -102l-246 -212q-51 -45 -101 1l-18 16q-52 48 -7 102z" />
    <glyph glyph-name="ncommaaccent" unicode="&#x146;" horiz-adv-x="1232" 
d="M840 1060q171 0 259 -113.5t53 -296.5l-114 -586q-12 -64 -78 -64h-175q-37 0 -54.5 20.5t-10.5 57.5l101 521q14 71 -24.5 125t-107.5 54q-82 0 -148 -58t-86 -160l-96 -495q-12 -65 -78 -65h-175q-37 0 -54.5 20.5t-10.5 57.5l173 894q12 64 79 64h175q37 0 54.5 -20.5
t10.5 -57.5l-6 -31q135 133 313 133zM429 -123q48 56 102 6l61 -56q57 -52 -1 -102l-246 -212q-51 -45 -101 1l-18 16q-52 48 -7 102z" />
    <glyph glyph-name="Ncaron" unicode="&#x147;" horiz-adv-x="1422" 
d="M809 1509q-59 0 -86 51l-93 173q-32 60 24 98l49 32q58 39 100 -15l133 -168l212 179q51 43 101 -2l17 -15q54 -48 5 -102l-179 -192q-36 -39 -89 -39h-194zM306 1336q12 64 79 64h219q63 0 82 -59l278 -840l162 835q12 64 79 64h162q37 0 54.5 -20.5t10.5 -57.5
l-244 -1258q-12 -64 -79 -64h-220q-63 0 -82 59l-279 840l-162 -835q-12 -64 -78 -64h-161q-37 0 -54.5 20.5t-10.5 57.5z" />
    <glyph glyph-name="ncaron" unicode="&#x148;" horiz-adv-x="1232" 
d="M646 1165q-59 0 -86 51l-93 173q-32 60 24 98l49 32q58 39 100 -15l133 -168l212 179q51 43 101 -2l17 -15q54 -48 5 -102l-179 -192q-36 -39 -89 -39h-194zM840 1060q171 0 259 -113.5t53 -296.5l-114 -586q-12 -64 -78 -64h-175q-37 0 -54.5 20.5t-10.5 57.5l101 521
q14 71 -24.5 125t-107.5 54q-82 0 -148 -58t-86 -160l-96 -495q-12 -65 -78 -65h-175q-37 0 -54.5 20.5t-10.5 57.5l173 894q12 64 79 64h175q37 0 54.5 -20.5t10.5 -57.5l-6 -31q135 133 313 133z" />
    <glyph glyph-name="napostrophe" unicode="&#x149;" horiz-adv-x="1492" 
d="M210 1331q11 58 69 105.5t136 47.5q73 0 111.5 -49.5t22.5 -129.5q-23 -119 -111.5 -225t-235.5 -169q-64 -28 -96 37q-14 27 49 67q69 43 95 79.5t19.5 68t-39.5 75.5q-30 39 -20 93zM1100 1060q171 0 259 -113.5t53 -296.5l-114 -586q-12 -64 -78 -64h-175
q-37 0 -54.5 20.5t-10.5 57.5l101 521q14 71 -24.5 125t-107.5 54q-82 0 -148 -58t-86 -160l-96 -495q-12 -65 -78 -65h-175q-37 0 -54.5 20.5t-10.5 57.5l173 894q12 64 79 64h175q37 0 54.5 -20.5t10.5 -57.5l-6 -31q135 133 313 133z" />
    <glyph glyph-name="Eng" unicode="&#x14a;" horiz-adv-x="1421" 
d="M867 9l-338 893l-162 -838q-12 -64 -79 -64h-162q-37 0 -54.5 20.5t-10.5 57.5l244 1258q12 64 79 64h188q61 0 83 -57l312 -821l158 814q12 64 79 64h162q38 0 55 -20.5t10 -57.5l-277 -1423q-34 -176 -161.5 -269.5t-329.5 -93.5q-16 0 -42 2q-35 2 -50.5 24.5
t-8.5 57.5l20 103q7 33 22 48.5t39 13.5q17 -1 49 -1q131 0 155 120z" />
    <glyph glyph-name="eng" unicode="&#x14b;" horiz-adv-x="1232" 
d="M840 1060q171 0 258.5 -113.5t52.5 -296.5l-146 -750q-34 -176 -162 -270t-330 -94q-18 0 -52 2q-35 3 -50.5 25t-8.5 58l20 102q7 33 21.5 48.5t37.5 13.5q16 -1 47 -1q62 0 104 30.5t54 89.5l135 695q14 71 -24.5 125t-107.5 54q-82 0 -148 -58t-86 -160l-96 -495
q-12 -65 -78 -65h-175q-37 0 -54.5 20.5t-10.5 57.5l173 894q12 64 79 64h175q37 0 54.5 -20.5t10.5 -57.5l-6 -31q135 133 313 133z" />
    <glyph glyph-name="Omacron" unicode="&#x14c;" horiz-adv-x="1660" 
d="M742 1715q12 64 79 64h494q38 0 55 -20.5t10 -57.5l-18 -94q-12 -64 -79 -64h-494q-37 0 -54.5 20.5t-10.5 57.5zM110 700q39 201 170 367t323 261.5t403 95.5t366 -95.5t222 -261.5t28 -367t-170.5 -367t-323.5 -261.5t-403 -95.5t-366 95.5t-221.5 261.5t-27.5 367z
M444 700q-24 -122 12 -222t122 -157t203 -57q179 0 324.5 125t182.5 311q36 186 -61.5 311t-276.5 125t-324.5 -125t-181.5 -311z" />
    <glyph glyph-name="omacron" unicode="&#x14d;" horiz-adv-x="1281" 
d="M490 1391q12 64 79 64h494q38 0 55 -20.5t10 -57.5l-18 -94q-12 -64 -79 -64h-494q-37 0 -54.5 20.5t-10.5 57.5zM61 518q22 112 86 212.5t155 173t207 114.5t238 42q163 0 282 -71.5t170 -196t22 -274.5t-128.5 -274.5t-246.5 -196t-310 -71.5q-122 0 -222 42
t-162.5 114.5t-87.5 173t-3 212.5zM380 518q-22 -111 38.5 -185.5t172.5 -74.5t200.5 74.5t110.5 185.5q22 110 -38 185t-172 75q-111 0 -200.5 -74.5t-111.5 -185.5z" />
    <glyph glyph-name="Obreve" unicode="&#x14e;" horiz-adv-x="1660" 
d="M1019 1488q-126 0 -213 67.5t-97 176.5q-3 34 17 52t56 18h122q30 0 43 -14t29 -50q23 -48 82 -48q65 0 108 58q20 28 38 41t46 13h109q41 0 59 -23t0 -58q-54 -105 -165 -169t-234 -64zM110 700q39 201 170 367t323 261.5t403 95.5t366 -95.5t222 -261.5t28 -367
t-170.5 -367t-323.5 -261.5t-403 -95.5t-366 95.5t-221.5 261.5t-27.5 367zM444 700q-24 -122 12 -222t122 -157t203 -57q179 0 324.5 125t182.5 311q36 186 -61.5 311t-276.5 125t-324.5 -125t-181.5 -311z" />
    <glyph glyph-name="obreve" unicode="&#x14f;" horiz-adv-x="1281" 
d="M767 1164q-126 0 -213 67.5t-97 176.5q-3 34 17 52t56 18h122q30 0 43 -14t29 -50q23 -48 82 -48q65 0 108 58q20 28 38 41t46 13h109q41 0 59 -23t0 -58q-54 -105 -165 -169t-234 -64zM61 518q22 112 86 212.5t155 173t207 114.5t238 42q163 0 282 -71.5t170 -196
t22 -274.5t-128.5 -274.5t-246.5 -196t-310 -71.5q-122 0 -222 42t-162.5 114.5t-87.5 173t-3 212.5zM380 518q-22 -111 38.5 -185.5t172.5 -74.5t200.5 74.5t110.5 185.5q22 110 -38 185t-172 75q-111 0 -200.5 -74.5t-111.5 -185.5z" />
    <glyph glyph-name="Ohungarumlaut" unicode="&#x150;" horiz-adv-x="1660" 
d="M984 1876q48 56 102 6l50 -46q55 -52 -2 -102l-245 -212q-52 -45 -101 1l-7 6q-52 48 -6 102zM1347 1876q48 56 102 6l50 -46q55 -52 -2 -102l-245 -212q-52 -45 -101 1l-7 6q-52 48 -6 102zM110 700q39 201 170 367t323 261.5t403 95.5t366 -95.5t222 -261.5t28 -367
t-170.5 -367t-323.5 -261.5t-403 -95.5t-366 95.5t-221.5 261.5t-27.5 367zM444 700q-24 -122 12 -222t122 -157t203 -57q179 0 324.5 125t182.5 311q36 186 -61.5 311t-276.5 125t-324.5 -125t-181.5 -311z" />
    <glyph glyph-name="ohungarumlaut" unicode="&#x151;" horiz-adv-x="1281" 
d="M717 1552q48 56 102 6l50 -46q55 -52 -2 -102l-245 -212q-52 -45 -101 1l-7 6q-52 48 -6 102zM1080 1552q48 56 102 6l50 -46q55 -52 -2 -102l-245 -212q-52 -45 -101 1l-7 6q-52 48 -6 102zM61 518q22 112 86 212.5t155 173t207 114.5t238 42q163 0 282 -71.5t170 -196
t22 -274.5t-128.5 -274.5t-246.5 -196t-310 -71.5q-122 0 -222 42t-162.5 114.5t-87.5 173t-3 212.5zM380 518q-22 -111 38.5 -185.5t172.5 -74.5t200.5 74.5t110.5 185.5q22 110 -38 185t-172 75q-111 0 -200.5 -74.5t-111.5 -185.5z" />
    <glyph glyph-name="OE" unicode="&#x152;" horiz-adv-x="1830" 
d="M729 0q-155 0 -284.5 54.5t-212.5 147t-116.5 222.5t-5.5 276q37 194 169 355t323 253t399 92h807q38 0 55 -21t10 -58l-27 -137q-12 -64 -79 -64h-484l-54 -279h422q37 0 54.5 -20.5t10.5 -57.5l-26 -132q-12 -65 -78 -65h-436l-56 -287h488q37 0 54.5 -20.5t10.5 -57.5
l-26 -137q-12 -64 -79 -64h-839zM956 1114q-121 0 -230.5 -53t-185.5 -148t-99 -213q-35 -177 69 -296t285 -119z" />
    <glyph glyph-name="oe" unicode="&#x153;" horiz-adv-x="2157" 
d="M61 518q22 112 86 212.5t155 173t207 114.5t238 42q140 0 249 -64.5t164 -170.5q91 104 224.5 169.5t270.5 65.5q155 0 267.5 -70.5t159 -190.5t18.5 -264q-5 -28 -13 -50q-17 -56 -82 -56h-719q-2 -98 61 -154.5t170 -56.5q165 0 300 87q60 38 100 -15l28 -36
q43 -57 -10 -101q-215 -177 -469 -177q-149 0 -262 64t-165 170q-95 -106 -229 -170t-274 -64q-122 0 -222 42t-162.5 114.5t-87.5 173t-3 212.5zM1604 818q-88 0 -161 -49.5t-113 -136.5h462q-2 87 -51 136.5t-137 49.5zM380 518q-22 -111 38.5 -185.5t172.5 -74.5
t200.5 74.5t110.5 185.5q22 110 -38 185t-172 75q-111 0 -200.5 -74.5t-111.5 -185.5z" />
    <glyph glyph-name="Racute" unicode="&#x154;" horiz-adv-x="1247" 
d="M913 1876q48 56 102 6l61 -56q55 -52 -2 -102l-245 -212q-52 -45 -101 1l-18 16q-52 48 -6 102zM836 1400q220 0 332.5 -126t72.5 -330q-28 -147 -123 -255.5t-235 -156.5l179 -449q15 -38 -0.5 -60.5t-56.5 -22.5h-208q-61 0 -83 57l-163 431h-83l-82 -423
q-12 -65 -78 -65h-182q-37 0 -54.5 20.5t-10.5 57.5l244 1258q12 64 79 64h452zM594 1136l-77 -399h156q93 0 157 54.5t81 144.5q18 91 -24.5 145.5t-136.5 54.5h-156z" />
    <glyph glyph-name="racute" unicode="&#x155;" horiz-adv-x="840" 
d="M649 1552q48 56 102 6l61 -56q55 -52 -2 -102l-245 -212q-52 -45 -101 1l-18 16q-52 48 -6 102zM700 778q-85 0 -155.5 -61.5t-91.5 -166.5l-94 -485q-12 -65 -78 -65h-175q-37 0 -54.5 20.5t-10.5 57.5l173 894q12 64 79 64h175q38 0 55 -21t10 -58l-8 -38
q136 141 302 141h3q34 -1 47 -25.5t4 -60.5l-41 -150q-17 -62 -88 -51q-28 5 -52 5z" />
    <glyph glyph-name="Rcommaaccent" unicode="&#x156;" horiz-adv-x="1247" 
d="M836 1400q220 0 332.5 -126t72.5 -330q-28 -147 -123 -255.5t-235 -156.5l179 -449q15 -38 -0.5 -60.5t-56.5 -22.5h-208q-61 0 -83 57l-163 431h-83l-82 -423q-12 -65 -78 -65h-182q-37 0 -54.5 20.5t-10.5 57.5l244 1258q12 64 79 64h452zM594 1136l-77 -399h156
q93 0 157 54.5t81 144.5q18 91 -24.5 145.5t-136.5 54.5h-156zM414 -123q48 56 102 6l61 -56q57 -52 -1 -102l-246 -212q-51 -45 -101 1l-18 16q-52 48 -7 102z" />
    <glyph glyph-name="rcommaaccent" unicode="&#x157;" horiz-adv-x="840" 
d="M700 778q-85 0 -155.5 -61.5t-91.5 -166.5l-94 -485q-12 -65 -78 -65h-175q-37 0 -54.5 20.5t-10.5 57.5l173 894q12 64 79 64h175q38 0 55 -21t10 -58l-8 -38q136 141 302 141h3q34 -1 47 -25.5t4 -60.5l-41 -150q-17 -62 -88 -51q-28 5 -52 5zM82 -123q48 56 102 6
l61 -56q57 -52 -1 -102l-246 -212q-50 -44 -101 2l-17 15q-52 48 -7 102z" />
    <glyph glyph-name="Rcaron" unicode="&#x158;" horiz-adv-x="1247" 
d="M701 1509q-59 0 -86 51l-93 173q-32 60 24 98l49 32q58 39 100 -15l133 -168l212 179q51 43 101 -2l17 -15q54 -48 5 -102l-179 -192q-36 -39 -89 -39h-194zM836 1400q220 0 332.5 -126t72.5 -330q-28 -147 -123 -255.5t-235 -156.5l179 -449q15 -38 -0.5 -60.5
t-56.5 -22.5h-208q-61 0 -83 57l-163 431h-83l-82 -423q-12 -65 -78 -65h-182q-37 0 -54.5 20.5t-10.5 57.5l244 1258q12 64 79 64h452zM594 1136l-77 -399h156q93 0 157 54.5t81 144.5q18 91 -24.5 145.5t-136.5 54.5h-156z" />
    <glyph glyph-name="rcaron" unicode="&#x159;" horiz-adv-x="840" 
d="M445 1165q-59 0 -86 51l-93 173q-32 60 24 98l49 32q58 39 100 -15l133 -168l212 179q51 43 101 -2l17 -15q54 -48 5 -102l-179 -192q-36 -39 -89 -39h-194zM700 778q-85 0 -155.5 -61.5t-91.5 -166.5l-94 -485q-12 -65 -78 -65h-175q-37 0 -54.5 20.5t-10.5 57.5
l173 894q12 64 79 64h175q38 0 55 -21t10 -58l-8 -38q136 141 302 141h3q34 -1 47 -25.5t4 -60.5l-41 -150q-17 -62 -88 -51q-28 5 -52 5z" />
    <glyph glyph-name="Sacute" unicode="&#x15a;" horiz-adv-x="1200" 
d="M895 1876q48 56 102 6l61 -56q55 -52 -2 -102l-245 -212q-52 -45 -101 1l-18 16q-52 48 -6 102zM172 370q50 46 102 -4q118 -112 277 -112q88 0 150.5 39.5t75.5 103.5q6 32 -1 57t-30.5 49.5t-72 45t-122.5 36.5q-193 43 -283 151.5t-59 268.5q35 183 191.5 301
t368.5 118q193 0 310 -94.5t120 -268.5q0 -35 -19.5 -53t-54.5 -18h-186q-32 0 -48 16.5t-26 51.5q-25 92 -134 92q-70 0 -121 -33t-62 -86q-12 -62 33.5 -107t171.5 -75q425 -103 361 -436q-37 -191 -202 -314t-400 -123q-264 0 -420 234q-36 55 15 101z" />
    <glyph glyph-name="sacute" unicode="&#x15b;" horiz-adv-x="953" 
d="M705 1552q48 56 102 6l61 -56q55 -52 -2 -102l-245 -212q-52 -45 -101 1l-18 16q-52 48 -6 102zM106 286q47 46 102 0q84 -66 195 -66q60 0 97 22t45 61t-23 64.5t-115 43.5q-157 34 -226 121t-43 217q26 136 151 223.5t294 87.5q156 0 242.5 -71t100.5 -194
q4 -35 -15.5 -54t-55.5 -19h-143q-20 0 -34.5 8.5t-21.5 17.5t-23 33q-25 35 -80 35q-43 0 -74.5 -19.5t-38.5 -51.5q-7 -36 23 -62.5t109 -43.5q335 -74 283 -338q-27 -142 -159.5 -233.5t-320.5 -91.5q-201 0 -326 164q-40 53 10 101z" />
    <glyph glyph-name="Scircumflex" unicode="&#x15c;" horiz-adv-x="1200" 
d="M950 1851q59 0 86 -51l93 -173q32 -60 -24 -98l-49 -33q-57 -39 -100 16l-134 168l-211 -178q-52 -44 -101 1l-17 15q-54 48 -5 102l179 192q36 39 89 39h194zM172 370q50 46 102 -4q118 -112 277 -112q88 0 150.5 39.5t75.5 103.5q6 32 -1 57t-30.5 49.5t-72 45
t-122.5 36.5q-193 43 -283 151.5t-59 268.5q35 183 191.5 301t368.5 118q193 0 310 -94.5t120 -268.5q0 -35 -19.5 -53t-54.5 -18h-186q-32 0 -48 16.5t-26 51.5q-25 92 -134 92q-70 0 -121 -33t-62 -86q-12 -62 33.5 -107t171.5 -75q425 -103 361 -436q-37 -191 -202 -314
t-400 -123q-264 0 -420 234q-36 55 15 101z" />
    <glyph glyph-name="scircumflex" unicode="&#x15d;" horiz-adv-x="953" 
d="M756 1527q59 0 86 -51l93 -173q32 -60 -24 -98l-49 -33q-57 -39 -100 16l-134 168l-211 -178q-52 -44 -101 1l-17 15q-54 48 -5 102l179 192q36 39 89 39h194zM106 286q47 46 102 0q84 -66 195 -66q60 0 97 22t45 61t-23 64.5t-115 43.5q-157 34 -226 121t-43 217
q26 136 151 223.5t294 87.5q156 0 242.5 -71t100.5 -194q4 -35 -15.5 -54t-55.5 -19h-143q-20 0 -34.5 8.5t-21.5 17.5t-23 33q-25 35 -80 35q-43 0 -74.5 -19.5t-38.5 -51.5q-7 -36 23 -62.5t109 -43.5q335 -74 283 -338q-27 -142 -159.5 -233.5t-320.5 -91.5
q-201 0 -326 164q-40 53 10 101z" />
    <glyph glyph-name="Scedilla" unicode="&#x15e;" horiz-adv-x="1200" 
d="M539 -293q5 30 -15 52t-57 22q-51 8 -75 40q-8 11 2 63l20 101q-198 38 -322 225q-36 55 14 101l66 59q50 46 102 -4q118 -112 277 -112q88 0 150.5 39.5t75.5 103.5q6 32 -1 57t-30.5 49.5t-72 45t-122.5 36.5q-193 43 -283 151.5t-59 268.5q35 183 191.5 301t368.5 118
q193 0 310 -94.5t120 -268.5q0 -35 -19.5 -53t-54.5 -18h-186q-32 0 -48 16.5t-26 51.5q-25 92 -134 92q-70 0 -121 -33t-62 -86q-12 -62 33.5 -107t171.5 -75q425 -103 361 -436q-33 -169 -169 -287t-334 -143l-15 -76q93 -11 134 -69.5t27 -134.5q-19 -97 -114.5 -160
t-222.5 -63q-92 0 -158.5 39t-90.5 112q-11 35 8.5 56t57.5 21h55q14 0 26 -5t17.5 -9t19.5 -18l19 -19q24 -21 65 -21q40 0 66.5 19t33.5 52z" />
    <glyph glyph-name="scedilla" unicode="&#x15f;" horiz-adv-x="953" 
d="M407 -293q5 30 -15 52t-57 22q-51 8 -75 40q-8 11 2 63l20 102q-141 32 -233 154q-40 53 10 101l47 45q47 46 102 0q84 -66 195 -66q60 0 97 22t45 61t-23 64.5t-115 43.5q-157 34 -226 121t-43 217q26 136 151 223.5t294 87.5q156 0 242.5 -71t100.5 -194
q4 -35 -15.5 -54t-55.5 -19h-143q-20 0 -34.5 8.5t-21.5 17.5t-23 33q-25 35 -80 35q-43 0 -74.5 -19.5t-38.5 -51.5q-7 -36 23 -62.5t109 -43.5q335 -74 283 -338q-23 -121 -124 -207t-251 -109l-16 -78q93 -11 134 -69.5t27 -134.5q-19 -97 -114.5 -160t-222.5 -63
q-92 0 -158.5 39t-90.5 112q-11 35 8.5 56t57.5 21h55q14 0 26 -5t17.5 -9t19.5 -18l19 -19q24 -21 65 -21q40 0 66.5 19t33.5 52z" />
    <glyph glyph-name="Scaron" unicode="&#x160;" horiz-adv-x="1200" 
d="M685 1509q-59 0 -86 51l-93 173q-32 60 24 98l49 32q58 39 100 -15l133 -168l212 179q51 43 101 -2l17 -15q54 -48 5 -102l-179 -192q-36 -39 -89 -39h-194zM172 370q50 46 102 -4q118 -112 277 -112q88 0 150.5 39.5t75.5 103.5q6 32 -1 57t-30.5 49.5t-72 45
t-122.5 36.5q-193 43 -283 151.5t-59 268.5q35 183 191.5 301t368.5 118q193 0 310 -94.5t120 -268.5q0 -35 -19.5 -53t-54.5 -18h-186q-32 0 -48 16.5t-26 51.5q-25 92 -134 92q-70 0 -121 -33t-62 -86q-12 -62 33.5 -107t171.5 -75q425 -103 361 -436q-37 -191 -202 -314
t-400 -123q-264 0 -420 234q-36 55 15 101z" />
    <glyph glyph-name="scaron" unicode="&#x161;" horiz-adv-x="953" 
d="M497 1165q-59 0 -86 51l-93 173q-32 60 24 98l49 32q58 39 100 -15l133 -168l212 179q51 43 101 -2l17 -15q54 -48 5 -102l-179 -192q-36 -39 -89 -39h-194zM106 286q47 46 102 0q84 -66 195 -66q60 0 97 22t45 61t-23 64.5t-115 43.5q-157 34 -226 121t-43 217
q26 136 151 223.5t294 87.5q156 0 242.5 -71t100.5 -194q4 -35 -15.5 -54t-55.5 -19h-143q-20 0 -34.5 8.5t-21.5 17.5t-23 33q-25 35 -80 35q-43 0 -74.5 -19.5t-38.5 -51.5q-7 -36 23 -62.5t109 -43.5q335 -74 283 -338q-27 -142 -159.5 -233.5t-320.5 -91.5
q-201 0 -326 164q-40 53 10 101z" />
    <glyph glyph-name="uni0162" unicode="&#x162;" horiz-adv-x="1119" 
d="M510 1114h-264q-38 0 -55 20.5t-10 57.5l28 144q12 64 79 64h873q38 0 55 -20.5t10 -57.5l-28 -144q-12 -64 -79 -64h-278l-203 -1050q-12 -64 -77 -64l-19 -93q93 -11 134 -70t27 -134q-19 -97 -115 -160t-223 -63q-92 0 -158.5 39t-89.5 112q-12 35 8 56t58 21h55
q14 0 26 -5t17.5 -9t19.5 -18l19 -19q22 -21 64 -21q40 0 67 19t34 52q5 30 -15.5 52t-57.5 22q-51 8 -75 40q-8 11 2 63l23 116q-32 0 -46 20.5t-7 57.5z" />
    <glyph glyph-name="uni0163" unicode="&#x163;" horiz-adv-x="802" 
d="M335 -293q5 30 -15.5 52t-57.5 22q-47 4 -61 24q-2 5 -4.5 13t-7 30.5t0.5 36.5l32 163q-103 98 -64 294l81 416h-77q-37 0 -54.5 20.5t-10.5 57.5l26 136q12 64 79 64h91l37 191q11 60 73 69l183 27q39 6 57.5 -13.5t11.5 -59.5l-41 -214h147q37 0 54.5 -20.5
t10.5 -57.5l-26 -136q-12 -64 -79 -64h-161l-75 -384q-11 -61 15 -91t95 -30h24q39 2 56.5 -17.5t10.5 -57.5l-19 -101q-11 -58 -62 -75q-74 -25 -164 -25q-17 0 -35 2l-13 -71q92 -11 133 -70t27 -135q-19 -97 -115 -160t-223 -63q-92 0 -158 39t-90 112q-11 35 8.5 56
t57.5 21h55q12 0 20.5 -2t17.5 -8t13.5 -9.5t15.5 -15.5t15 -16q24 -21 64 -21t67 19.5t34 51.5z" />
    <glyph glyph-name="Tcaron" unicode="&#x164;" horiz-adv-x="1119" 
d="M657 1509q-59 0 -86 51l-93 173q-32 60 24 98l49 32q58 39 100 -15l133 -168l212 179q51 43 101 -2l17 -15q54 -48 5 -102l-179 -192q-36 -39 -89 -39h-194zM510 1114h-264q-38 0 -55 20.5t-10 57.5l28 144q12 64 79 64h873q38 0 55 -20.5t10 -57.5l-28 -144
q-12 -64 -79 -64h-278l-203 -1050q-12 -64 -79 -64h-185q-37 0 -54.5 20.5t-10.5 57.5z" />
    <glyph glyph-name="tcaron" unicode="&#x165;" horiz-adv-x="1178" 
d="M962 1331q11 58 69 105.5t136 47.5q73 0 111.5 -49.5t22.5 -129.5q-23 -119 -111.5 -225t-235.5 -169q-64 -28 -96 37q-14 27 49 67q69 43 95 79.5t19.5 68t-39.5 75.5q-30 39 -20 93zM486 375q-12 -63 13.5 -92t96.5 -29h23q39 2 56.5 -17.5t10.5 -57.5l-20 -102
q-11 -58 -60 -76q-77 -25 -162 -25q-167 0 -243.5 96.5t-42.5 269.5l81 416h-90q-37 0 -54.5 20.5t-10.5 57.5l26 136q12 64 79 64h104l37 191q12 61 73 70l184 27q39 6 58 -14.5t11 -59.5l-41 -214h146q37 0 54.5 -20.5t10.5 -57.5l-26 -136q-12 -64 -79 -64h-160z" />
    <glyph glyph-name="Tbar" unicode="&#x166;" horiz-adv-x="1119" 
d="M406 579h-140q-37 0 -54.5 20.5t-10.5 57.5l13 65q12 64 78 64h154l64 328h-264q-38 0 -55 20.5t-10 57.5l28 144q12 64 79 64h873q38 0 55 -20.5t10 -57.5l-28 -144q-12 -64 -79 -64h-278l-64 -328h140q37 0 54.5 -20.5t10.5 -57.5l-13 -65q-12 -64 -78 -64h-154
l-100 -515q-12 -64 -78 -64h-185q-37 0 -54.5 20.5t-10.5 57.5z" />
    <glyph glyph-name="tbar" unicode="&#x167;" horiz-adv-x="802" 
d="M532 612h104q37 0 54.5 -20.5t10.5 -57.5l-8 -39q-12 -65 -78 -65h-118l-13 -69q-12 -62 13.5 -91.5t95.5 -29.5h24q39 2 56 -17.5t10 -57.5l-18 -93q-11 -59 -62 -74q-75 -22 -159 -22q-167 0 -243.5 93.5t-43.5 265.5l18 95h-44q-37 0 -54.5 20.5t-10.5 57.5l8 39
q12 65 78 65h58l32 160h-83q-37 0 -54.5 20.5t-10.5 57.5l24 122q12 64 78 64h97l37 191q12 61 73 70l184 27q39 6 58 -14.5t11 -59.5l-41 -214h146q37 0 54.5 -20.5t10.5 -57.5l-24 -122q-12 -64 -78 -64h-160z" />
    <glyph glyph-name="Utilde" unicode="&#x168;" horiz-adv-x="1345" 
d="M886 1555q-59 36 -84 36q-20 0 -37 -18q-25 -27 -45 -37.5t-48 -4.5l-97 20q-38 8 -51 32t5 59q86 161 232 161q72 0 143 -43q57 -36 84 -36q19 0 37 18q24 27 44 37.5t49 4.5l96 -20q38 -8 51 -32t-5 -59q-86 -161 -232 -161q-73 0 -142 43zM1200 465
q-27 -140 -121 -252t-228.5 -173.5t-283.5 -61.5q-227 0 -355.5 137.5t-87.5 349.5l169 871q12 64 79 64h186q38 0 55 -20.5t10 -57.5l-167 -854q-17 -90 31 -146.5t136 -56.5q89 0 159 56.5t87 146.5l169 868q12 64 79 64h185q38 0 55 -20.5t10 -57.5z" />
    <glyph glyph-name="utilde" unicode="&#x169;" horiz-adv-x="1232" 
d="M755 1226q-57 36 -84 36q-20 0 -37 -18q-25 -27 -45 -37.5t-48 -4.5l-97 20q-38 8 -51 32t5 59q86 161 232 161q72 0 143 -43q57 -36 84 -36q19 0 37 18q24 27 44 37.5t49 4.5l96 -20q38 -8 51 -32t-5 -59q-86 -161 -232 -161q-73 0 -142 43zM392 -24q-172 0 -260 113.5
t-53 295.5l114 587q12 64 79 64h175q38 0 55 -20.5t10 -57.5l-102 -522q-14 -73 24.5 -126t107.5 -53q83 0 149 60t86 166l95 489q12 64 79 64h175q37 0 54.5 -20.5t10.5 -57.5l-173 -894q-12 -64 -79 -64h-175q-38 0 -55.5 20.5t-10.5 57.5l6 30q-135 -132 -312 -132z" />
    <glyph glyph-name="Umacron" unicode="&#x16a;" horiz-adv-x="1345" 
d="M585 1715q12 64 79 64h494q38 0 55 -20.5t10 -57.5l-18 -94q-12 -64 -79 -64h-494q-37 0 -54.5 20.5t-10.5 57.5zM1200 465q-27 -140 -121 -252t-228.5 -173.5t-283.5 -61.5q-227 0 -355.5 137.5t-87.5 349.5l169 871q12 64 79 64h186q38 0 55 -20.5t10 -57.5l-167 -854
q-17 -90 31 -146.5t136 -56.5q89 0 159 56.5t87 146.5l169 868q12 64 79 64h185q38 0 55 -20.5t10 -57.5z" />
    <glyph glyph-name="umacron" unicode="&#x16b;" horiz-adv-x="1232" 
d="M455 1391q12 64 79 64h494q38 0 55 -20.5t10 -57.5l-18 -94q-12 -64 -79 -64h-494q-37 0 -54.5 20.5t-10.5 57.5zM392 -24q-172 0 -260 113.5t-53 295.5l114 587q12 64 79 64h175q38 0 55 -20.5t10 -57.5l-102 -522q-14 -73 24.5 -126t107.5 -53q83 0 149 60t86 166
l95 489q12 64 79 64h175q37 0 54.5 -20.5t10.5 -57.5l-173 -894q-12 -64 -79 -64h-175q-38 0 -55.5 20.5t-10.5 57.5l6 30q-135 -132 -312 -132z" />
    <glyph glyph-name="Ubreve" unicode="&#x16c;" horiz-adv-x="1345" 
d="M862 1488q-126 0 -213 67.5t-97 176.5q-3 34 17 52t56 18h122q30 0 43 -14t29 -50q23 -48 82 -48q65 0 108 58q20 28 38 41t46 13h109q41 0 59 -23t0 -58q-54 -105 -165 -169t-234 -64zM1200 465q-27 -140 -121 -252t-228.5 -173.5t-283.5 -61.5q-227 0 -355.5 137.5
t-87.5 349.5l169 871q12 64 79 64h186q38 0 55 -20.5t10 -57.5l-167 -854q-17 -90 31 -146.5t136 -56.5q89 0 159 56.5t87 146.5l169 868q12 64 79 64h185q38 0 55 -20.5t10 -57.5z" />
    <glyph glyph-name="ubreve" unicode="&#x16d;" horiz-adv-x="1232" 
d="M732 1164q-126 0 -213 67.5t-97 176.5q-3 34 17 52t56 18h122q30 0 43 -14t29 -50q23 -48 82 -48q65 0 108 58q20 28 38 41t46 13h109q41 0 59 -23t0 -58q-54 -105 -165 -169t-234 -64zM392 -24q-172 0 -260 113.5t-53 295.5l114 587q12 64 79 64h175q38 0 55 -20.5
t10 -57.5l-102 -522q-14 -73 24.5 -126t107.5 -53q83 0 149 60t86 166l95 489q12 64 79 64h175q37 0 54.5 -20.5t10.5 -57.5l-173 -894q-12 -64 -79 -64h-175q-38 0 -55.5 20.5t-10.5 57.5l6 30q-135 -132 -312 -132z" />
    <glyph glyph-name="Uring" unicode="&#x16e;" horiz-adv-x="1345" 
d="M664 1685q18 92 98 154t180 62t156 -62t38 -154t-98 -153.5t-180 -61.5q-101 0 -156.5 62t-37.5 153zM837 1685q-5 -26 9.5 -43.5t41.5 -17.5t48.5 17.5t26.5 43.5t-9 44t-42 18q-27 0 -48.5 -17.5t-26.5 -44.5zM1200 465q-27 -140 -121 -252t-228.5 -173.5t-283.5 -61.5
q-227 0 -355.5 137.5t-87.5 349.5l169 871q12 64 79 64h186q38 0 55 -20.5t10 -57.5l-167 -854q-17 -90 31 -146.5t136 -56.5q89 0 159 56.5t87 146.5l169 868q12 64 79 64h185q38 0 55 -20.5t10 -57.5z" />
    <glyph glyph-name="uring" unicode="&#x16f;" horiz-adv-x="1232" 
d="M531 1361q18 92 98 154t180 62t156 -62t38 -154t-98 -153.5t-180 -61.5q-101 0 -156.5 62t-37.5 153zM704 1361q-5 -26 9.5 -43.5t41.5 -17.5t48.5 17.5t26.5 43.5t-9 44t-42 18q-27 0 -48.5 -17.5t-26.5 -44.5zM392 -24q-172 0 -260 113.5t-53 295.5l114 587
q12 64 79 64h175q38 0 55 -20.5t10 -57.5l-102 -522q-14 -73 24.5 -126t107.5 -53q83 0 149 60t86 166l95 489q12 64 79 64h175q37 0 54.5 -20.5t10.5 -57.5l-173 -894q-12 -64 -79 -64h-175q-38 0 -55.5 20.5t-10.5 57.5l6 30q-135 -132 -312 -132z" />
    <glyph glyph-name="Uhungarumlaut" unicode="&#x170;" horiz-adv-x="1345" 
d="M842 1889q48 56 102 6l50 -46q55 -52 -2 -102l-245 -212q-51 -45 -102 1l-6 6q-52 49 -6 102zM1205 1889q48 56 102 6l50 -46q55 -52 -2 -102l-245 -212q-51 -45 -102 1l-6 6q-52 49 -6 102zM1200 465q-27 -140 -121 -252t-228.5 -173.5t-283.5 -61.5
q-227 0 -355.5 137.5t-87.5 349.5l169 871q12 64 79 64h186q38 0 55 -20.5t10 -57.5l-167 -854q-17 -90 31 -146.5t136 -56.5q89 0 159 56.5t87 146.5l169 868q12 64 79 64h185q38 0 55 -20.5t10 -57.5z" />
    <glyph glyph-name="uhungarumlaut" unicode="&#x171;" horiz-adv-x="1232" 
d="M705 1558q48 56 102 6l50 -46q55 -52 -2 -102l-245 -212q-52 -45 -101 1l-7 6q-52 48 -6 102zM1068 1558q48 56 102 6l50 -46q55 -52 -2 -102l-245 -212q-52 -45 -101 1l-7 6q-52 48 -6 102zM392 -24q-172 0 -260 113.5t-53 295.5l114 587q12 64 79 64h175q38 0 55 -20.5
t10 -57.5l-102 -522q-14 -73 24.5 -126t107.5 -53q83 0 149 60t86 166l95 489q12 64 79 64h175q37 0 54.5 -20.5t10.5 -57.5l-173 -894q-12 -64 -79 -64h-175q-38 0 -55.5 20.5t-10.5 57.5l6 30q-135 -132 -312 -132z" />
    <glyph glyph-name="Uogonek" unicode="&#x172;" horiz-adv-x="1345" 
d="M1200 465q-36 -184 -179.5 -313.5t-335.5 -162.5q-188 -131 -207 -229q-9 -45 7 -70t48 -25q49 0 79 45q20 29 38 42t47 13h63q41 0 58 -23.5t-2 -60.5q-50 -93 -134 -143t-193 -50q-118 0 -190 67t-52 172q13 68 72 136t150 123q-186 29 -283.5 160.5t-61.5 318.5
l169 871q12 64 79 64h186q38 0 55 -20.5t10 -57.5l-167 -854q-17 -90 31 -146.5t136 -56.5q89 0 159 56.5t87 146.5l169 868q12 64 79 64h185q38 0 55 -20.5t10 -57.5z" />
    <glyph glyph-name="uogonek" unicode="&#x173;" horiz-adv-x="1232" 
d="M392 -24q-172 0 -260 113.5t-53 295.5l114 587q12 64 79 64h175q38 0 55 -20.5t10 -57.5l-102 -522q-14 -71 24.5 -125t107.5 -54q83 0 149 60t86 166l95 489q12 64 79 64h175q37 0 54.5 -20.5t10.5 -57.5l-176 -907q-9 -49 -54 -82q-163 -120 -181 -209q-9 -45 7.5 -70
t47.5 -25q47 0 80 45q20 29 38 42t47 13h62q41 0 58 -23.5t-1 -60.5q-50 -93 -134 -143t-193 -50q-118 0 -190 67t-52 172q14 72 80 144.5t167 128.5h-33q-38 0 -55.5 20.5t-10.5 57.5l6 30q-135 -132 -312 -132z" />
    <glyph glyph-name="Wcircumflex" unicode="&#x174;" horiz-adv-x="1983" 
d="M1344 1851q59 0 86 -51l93 -173q32 -60 -24 -98l-49 -33q-57 -39 -100 16l-134 168l-211 -178q-52 -44 -101 1l-17 15q-54 48 -5 102l179 192q36 39 89 39h194zM1258 1400q71 0 74 -70l47 -885l383 900q24 55 83 55h190q41 0 56 -24t-2 -61l-586 -1261q-25 -54 -84 -54
h-208q-70 0 -75 69l-61 882l-408 -897q-24 -54 -84 -54h-209q-70 0 -74 69l-95 1256q-3 36 15 55.5t54 19.5h197q71 0 74 -71l31 -884l398 900q24 55 84 55h200z" />
    <glyph glyph-name="wcircumflex" unicode="&#x175;" horiz-adv-x="1612" 
d="M1096 1527q59 0 86 -51l93 -173q32 -60 -24 -98l-49 -33q-57 -39 -100 16l-134 168l-211 -178q-52 -44 -101 1l-17 15q-54 48 -5 102l179 192q36 39 89 39h194zM994 1036q71 0 74 -71l22 -577l255 593q24 55 84 55h171q41 0 56.5 -24t-2.5 -61l-438 -898q-26 -53 -85 -53
h-202q-69 0 -74 70l-32 535l-246 -551q-24 -54 -84 -54h-202q-70 0 -76 68l-89 893q-4 36 14.5 55.5t54.5 19.5h179q71 0 74 -70l24 -578l253 593q24 55 84 55h185z" />
    <glyph glyph-name="Ycircumflex" unicode="&#x176;" horiz-adv-x="1315" 
d="M1010 1851q59 0 86 -51l93 -173q32 -60 -24 -98l-49 -33q-57 -39 -100 16l-134 168l-211 -178q-52 -44 -101 1l-17 15q-54 48 -5 102l179 192q36 39 89 39h194zM724 864l345 491q31 45 87 45h195q45 0 58 -25.5t-14 -62.5l-565 -758l-95 -490q-12 -64 -78 -64h-185
q-37 0 -54.5 20.5t-10.5 57.5l92 476l-271 763q-13 37 3 60t56 23h208q64 0 82 -60z" />
    <glyph glyph-name="ycircumflex" unicode="&#x177;" horiz-adv-x="1092" 
d="M835 1527q59 0 86 -51l93 -173q32 -60 -24 -98l-49 -33q-57 -39 -100 16l-134 168l-211 -178q-52 -44 -101 1l-17 15q-54 48 -5 102l179 192q36 39 89 39h194zM110 -464q-43 0 -57 25t8 62l227 377l-156 958q-6 37 11.5 57.5t54.5 20.5h188q67 0 75 -68l62 -560l290 576
q26 52 84 52h179q43 0 57 -24.5t-6 -61.5l-753 -1364q-27 -50 -86 -50h-178z" />
    <glyph glyph-name="Ydieresis" unicode="&#x178;" horiz-adv-x="1315" 
d="M517 1664q13 68 68.5 114t123.5 46q69 0 106.5 -46t24.5 -114q-14 -68 -69 -114t-124 -46q-68 0 -105.5 46.5t-24.5 113.5zM920 1664q13 68 68.5 114t124.5 46q68 0 105.5 -46t24.5 -114q-14 -68 -69 -114t-123 -46q-69 0 -107 46t-24 114zM724 864l345 491q31 45 87 45
h195q45 0 58 -25.5t-14 -62.5l-565 -758l-95 -490q-12 -64 -78 -64h-185q-37 0 -54.5 20.5t-10.5 57.5l92 476l-271 763q-13 37 3 60t56 23h208q64 0 82 -60z" />
    <glyph glyph-name="Zacute" unicode="&#x179;" horiz-adv-x="1226" 
d="M905 1876q48 56 102 6l61 -56q55 -52 -2 -102l-245 -212q-52 -45 -101 1l-18 16q-52 48 -6 102zM832 1114h-500q-38 0 -55 20.5t-10 57.5l28 144q12 64 79 64h828q38 0 55 -20.5t10 -57.5l-28 -141q-10 -48 -42 -83l-742 -812h550q37 0 54.5 -20.5t10.5 -57.5l-28 -143
q-12 -65 -78 -65h-878q-37 0 -54.5 20.5t-10.5 57.5l27 141q8 46 42 83z" />
    <glyph glyph-name="zacute" unicode="&#x17a;" horiz-adv-x="1032" 
d="M740 1552q48 56 102 6l61 -56q55 -52 -2 -102l-245 -212q-52 -45 -101 1l-18 16q-52 48 -6 102zM19 197q10 49 45 83l516 480h-346q-38 0 -55 20.5t-10 57.5l26 134q12 64 79 64h674q38 0 55 -20.5t10 -57.5l-23 -119q-10 -50 -46 -83l-517 -480h393q37 0 54.5 -20.5
t10.5 -57.5l-26 -133q-12 -65 -78 -65h-720q-37 0 -54.5 20.5t-10.5 57.5z" />
    <glyph glyph-name="Zdotaccent" unicode="&#x17b;" horiz-adv-x="1226" 
d="M676 1663q14 69 71.5 117t127.5 48t109.5 -48t25.5 -117t-71.5 -117t-127.5 -48t-109.5 48t-25.5 117zM832 1114h-500q-38 0 -55 20.5t-10 57.5l28 144q12 64 79 64h828q38 0 55 -20.5t10 -57.5l-28 -141q-10 -48 -42 -83l-742 -812h550q37 0 54.5 -20.5t10.5 -57.5
l-28 -143q-12 -65 -78 -65h-878q-37 0 -54.5 20.5t-10.5 57.5l27 141q8 46 42 83z" />
    <glyph glyph-name="zdotaccent" unicode="&#x17c;" horiz-adv-x="1032" 
d="M510 1339q14 69 71.5 117t127.5 48t109.5 -48t25.5 -117t-71.5 -117t-127.5 -48t-109.5 48t-25.5 117zM19 197q10 49 45 83l516 480h-346q-38 0 -55 20.5t-10 57.5l26 134q12 64 79 64h674q38 0 55 -20.5t10 -57.5l-23 -119q-10 -50 -46 -83l-517 -480h393
q37 0 54.5 -20.5t10.5 -57.5l-26 -133q-12 -65 -78 -65h-720q-37 0 -54.5 20.5t-10.5 57.5z" />
    <glyph glyph-name="Zcaron" unicode="&#x17d;" horiz-adv-x="1226" 
d="M711 1509q-59 0 -86 51l-93 173q-32 60 24 98l49 32q58 39 100 -15l133 -168l212 179q51 43 101 -2l17 -15q54 -48 5 -102l-179 -192q-36 -39 -89 -39h-194zM832 1114h-500q-38 0 -55 20.5t-10 57.5l28 144q12 64 79 64h828q38 0 55 -20.5t10 -57.5l-28 -141
q-10 -48 -42 -83l-742 -812h550q37 0 54.5 -20.5t10.5 -57.5l-28 -143q-12 -65 -78 -65h-878q-37 0 -54.5 20.5t-10.5 57.5l27 141q8 46 42 83z" />
    <glyph glyph-name="zcaron" unicode="&#x17e;" horiz-adv-x="1032" 
d="M538 1165q-59 0 -86 51l-93 173q-32 60 24 98l49 32q58 39 100 -15l133 -168l212 179q51 43 101 -2l17 -15q54 -48 5 -102l-179 -192q-36 -39 -89 -39h-194zM19 197q10 49 45 83l516 480h-346q-38 0 -55 20.5t-10 57.5l26 134q12 64 79 64h674q38 0 55 -20.5t10 -57.5
l-23 -119q-10 -50 -46 -83l-517 -480h393q37 0 54.5 -20.5t10.5 -57.5l-26 -133q-12 -65 -78 -65h-720q-37 0 -54.5 20.5t-10.5 57.5z" />
    <glyph glyph-name="longs" unicode="&#x17f;" horiz-adv-x="778" 
d="M885 1273q-7 -33 -21.5 -48.5t-38.5 -13.5q-16 1 -47 1q-133 0 -156 -120l-199 -1028q-12 -64 -79 -64h-176q-37 0 -54.5 20.5t-10.5 57.5l132 680h-73q-37 0 -54.5 20.5t-10.5 57.5l26 136q12 64 79 64h87l12 61q35 179 153 271t316 92q40 0 75 -3q36 -3 51.5 -24.5
t8.5 -57.5z" />
    <glyph glyph-name="uni0191" unicode="&#x191;" horiz-adv-x="1084" 
d="M360 -91q-34 -174 -164.5 -273.5t-324.5 -99.5q-24 0 -66 2q-35 3 -50.5 25.5t-8.5 57.5l26 136q6 33 21 48.5t39 13.5q16 -1 48 -1q131 0 155 124l271 1394q12 64 79 64h726q38 0 55 -21t10 -58l-28 -141q-13 -64 -78 -64h-476l-58 -300h413q37 0 54.5 -20.5t10.5 -57.5
l-27 -142q-12 -64 -79 -64h-427z" />
    <glyph glyph-name="florin" unicode="&#x192;" horiz-adv-x="780" 
d="M235 758h-73q-37 0 -54.5 20.5t-10.5 57.5l26 136q12 64 79 64h87l12 60q36 188 158.5 275.5t336.5 87.5q16 0 48 -2q36 -3 51.5 -24.5t8.5 -57.5l-20 -102q-7 -33 -21.5 -48.5t-38.5 -13.5q-16 1 -47 1q-133 0 -156 -120l-11 -56h148q37 0 54.5 -20.5t10.5 -57.5
l-26 -136q-12 -64 -79 -64h-162l-167 -858q-34 -176 -162 -270t-330 -94q-17 0 -51 2q-35 3 -50.5 25t-8.5 58l20 102q7 33 21.5 48.5t37.5 13.5q16 -1 47 -1q133 0 156 120z" />
    <glyph glyph-name="Aringacute" unicode="&#x1fa;" horiz-adv-x="1389" 
d="M1012 1988q28 23 54.5 20t46.5 -34l33 -49q40 -62 -24 -99l-182 -105q-60 -34 -99 23l-4 6q-38 56 13 100zM651 1459q17 88 94 148t173 60t148.5 -60t35.5 -148q-14 -74 -76 -132q28 0 39 -66l185 -1184q5 -37 -12 -57t-54 -20h-200q-68 0 -76 67l-27 225h-462l-121 -240
q-26 -52 -84 -52h-190q-42 0 -56.5 24t5.5 62l647 1190q28 51 54 51q-38 57 -23 132zM813 1459q-5 -27 9.5 -45.5t42.5 -18.5q27 0 48.5 18.5t26.5 45.5t-9 45.5t-41 18.5q-28 0 -50 -18.5t-27 -45.5zM856 551l-58 501l-252 -501h310z" />
    <glyph glyph-name="aringacute" unicode="&#x1fb;" horiz-adv-x="1319" 
d="M920 1851q58 49 101 -15l32 -48q40 -62 -23 -99l-181 -105q-61 -36 -100 22l-5 7q-39 57 13 101zM563 1324q17 88 93.5 148t172.5 60t149 -60t36 -148q-17 -87 -93.5 -147.5t-172.5 -60.5t-149 60.5t-36 147.5zM725 1324q-5 -27 9 -45.5t42 -18.5q27 0 49 18.5t27 45.5
t-9.5 45.5t-41.5 18.5q-28 0 -49.5 -18.5t-26.5 -45.5zM60 518q29 150 115.5 274t212.5 196t265 72q196 0 303 -139l10 50q12 65 78 65h169q37 0 54.5 -20.5t10.5 -57.5l-173 -894q-12 -64 -79 -64h-169q-37 0 -54.5 20.5t-10.5 57.5l7 36q-159 -138 -357 -138
q-139 0 -237 72t-136 195.5t-9 274.5zM379 518q-22 -111 35 -186t162 -75t192 75t109 186q22 109 -36 184.5t-163 75.5q-104 0 -190.5 -75t-108.5 -185z" />
    <glyph glyph-name="AEacute" unicode="&#x1fc;" horiz-adv-x="1880" 
d="M1243 1876q48 56 102 6l61 -56q55 -52 -2 -102l-245 -212q-52 -45 -101 1l-18 16q-52 48 -6 102zM14 0q-45 0 -58 26t13 62l932 1268q33 44 88 44h869q38 0 55 -21t10 -58l-27 -137q-12 -64 -79 -64h-484l-54 -278h422q37 0 54.5 -20.5t10.5 -57.5l-26 -133
q-12 -65 -78 -65h-436l-56 -286h488q37 0 54.5 -20.5t10.5 -57.5l-27 -137q-12 -65 -78 -65h-748q-37 0 -54.5 20.5t-10.5 57.5l41 214h-385l-173 -247q-32 -45 -87 -45h-187zM640 552h257l97 500z" />
    <glyph glyph-name="aeacute" unicode="&#x1fd;" horiz-adv-x="2045" 
d="M1252 1552q48 56 102 6l61 -56q55 -52 -2 -102l-245 -212q-52 -45 -101 1l-18 16q-52 48 -6 102zM1187 429q-3 -99 59.5 -155t177.5 -56q163 0 300 85q60 38 100 -18l27 -38q40 -56 -11 -101q-199 -170 -430 -170q-98 0 -177 38.5t-117 104.5l-11 -55q-12 -64 -78 -64
h-170q-37 0 -54.5 20.5t-10.5 57.5l7 36q-157 -138 -356 -138q-140 0 -238 72t-135.5 195.5t-8.5 274.5q45 230 213 386t380 156q198 0 302 -138l10 49q12 65 78 65h170q38 0 54.5 -21t9.5 -58l-7 -37q128 140 327 140q147 0 249 -70.5t141.5 -190t11.5 -264.5
q-5 -28 -13 -50q-17 -56 -82 -56h-718zM1504 818q-86 0 -160 -51t-113 -135h462q-2 86 -51.5 136t-137.5 50zM380 518q-22 -111 35 -185.5t162 -74.5t191.5 74.5t108.5 185.5q22 110 -36 185t-163 75q-104 0 -190 -75t-108 -185z" />
    <glyph glyph-name="Oslashacute" unicode="&#x1fe;" horiz-adv-x="1660" 
d="M1148 1876q48 56 102 6l61 -56q55 -52 -2 -102l-245 -212q-52 -45 -101 1l-18 16q-52 48 -6 102zM110 700q39 201 170 367t323 261.5t403 95.5q191 0 343 -84l126 129q50 51 101 3l24 -22q54 -49 3 -102l-114 -117q92 -100 127.5 -237.5t5.5 -293.5q-39 -201 -170.5 -367
t-323.5 -261.5t-403 -95.5q-207 0 -362 94l-134 -138q-50 -51 -102 -4l-24 22q-54 49 -3 101l128 132q-84 100 -115.5 233t-2.5 284zM444 700q-30 -151 31 -262l641 661q-74 37 -166 37q-179 0 -324.5 -125t-181.5 -311zM1288 700q31 159 -42 279l-649 -669q78 -46 184 -46
q179 0 324.5 125t182.5 311z" />
    <glyph glyph-name="oslashacute" unicode="&#x1ff;" horiz-adv-x="1281" 
d="M900 1552q48 56 102 6l61 -56q55 -52 -2 -102l-245 -212q-52 -45 -101 1l-18 16q-52 48 -6 102zM61 518q22 112 86 212.5t155 173t207 114.5t238 42q143 0 251 -57l95 97q48 50 101 2l14 -13q55 -50 4 -102l-83 -84q65 -75 89.5 -174t2.5 -211q-29 -150 -128.5 -274.5
t-246.5 -196t-310 -71.5q-141 0 -255 57l-95 -97q-50 -51 -101 -3l-14 13q-54 49 -3 101l83 86q-64 75 -87.5 173.5t-2.5 211.5zM373 518q-15 -81 13 -143l386 395q-38 15 -79 15q-114 0 -206 -77t-114 -190zM909 518q15 79 -15 144l-387 -397q37 -14 82 -14q114 0 206 77
t114 190z" />
    <glyph glyph-name="Scommaaccent" unicode="&#x218;" horiz-adv-x="1200" 
d="M172 370q50 46 102 -4q118 -112 277 -112q88 0 150.5 39.5t75.5 103.5q6 32 -1 57t-30.5 49.5t-72 45t-122.5 36.5q-193 43 -283 151.5t-59 268.5q35 183 191.5 301t368.5 118q193 0 310 -94.5t120 -268.5q0 -35 -19.5 -53t-54.5 -18h-186q-32 0 -48 16.5t-26 51.5
q-25 92 -134 92q-70 0 -121 -33t-62 -86q-12 -62 33.5 -107t171.5 -75q425 -103 361 -436q-37 -191 -202 -314t-400 -123q-264 0 -420 234q-36 55 15 101zM440 -123q48 56 102 6l61 -56q57 -52 -1 -102l-246 -212q-51 -45 -101 1l-18 16q-52 48 -7 102z" />
    <glyph glyph-name="scommaaccent" unicode="&#x219;" horiz-adv-x="953" 
d="M106 286q47 46 102 0q84 -66 195 -66q60 0 97 22t45 61t-23 64.5t-115 43.5q-157 34 -226 121t-43 217q26 136 151 223.5t294 87.5q156 0 242.5 -71t100.5 -194q4 -35 -15.5 -54t-55.5 -19h-143q-20 0 -34.5 8.5t-21.5 17.5t-23 33q-25 35 -80 35q-43 0 -74.5 -19.5
t-38.5 -51.5q-7 -36 23 -62.5t109 -43.5q335 -74 283 -338q-27 -142 -159.5 -233.5t-320.5 -91.5q-201 0 -326 164q-40 53 10 101zM308 -123q48 56 102 6l61 -56q57 -52 -1 -102l-246 -212q-51 -45 -101 1l-18 16q-52 48 -7 102z" />
    <glyph glyph-name="uni021A" unicode="&#x21a;" horiz-adv-x="1119" 
d="M510 1114h-264q-38 0 -55 20.5t-10 57.5l28 144q12 64 79 64h873q38 0 55 -20.5t10 -57.5l-28 -144q-12 -64 -79 -64h-278l-203 -1050q-12 -64 -79 -64h-185q-37 0 -54.5 20.5t-10.5 57.5zM385 -123q48 56 102 6l61 -56q57 -52 -1 -102l-246 -212q-51 -45 -101 1l-18 16
q-52 48 -7 102z" />
    <glyph glyph-name="uni021B" unicode="&#x21b;" horiz-adv-x="802" 
d="M486 375q-12 -63 13.5 -92t96.5 -29h23q39 2 56.5 -17.5t10.5 -57.5l-20 -102q-11 -58 -60 -76q-77 -25 -162 -25q-167 0 -243.5 96.5t-42.5 269.5l81 416h-90q-37 0 -54.5 20.5t-10.5 57.5l26 136q12 64 79 64h104l37 191q12 61 73 70l184 27q39 6 58 -14.5t11 -59.5
l-41 -214h146q37 0 54.5 -20.5t10.5 -57.5l-26 -136q-12 -64 -79 -64h-160zM238 -123q48 56 102 6l61 -56q57 -52 -1 -102l-246 -212q-51 -45 -101 1l-18 16q-52 48 -7 102z" />
    <glyph glyph-name="uni0237" unicode="&#x237;" horiz-adv-x="576" 
d="M215 972q12 64 79 64h175q38 0 55 -20.5t10 -57.5l-207 -1062q-33 -174 -148 -267t-291 -93q-6 0 -18.5 0.5t-19.5 0.5q-36 3 -51.5 25t-8.5 58l25 130q12 64 68 64q55 0 86.5 27t43.5 87z" />
    <glyph glyph-name="uni02BC" unicode="&#x2bc;" horiz-adv-x="860" 
d="M425 1331q11 58 69 105.5t136 47.5q73 0 111.5 -49.5t22.5 -129.5q-23 -119 -111.5 -225t-235.5 -169q-64 -28 -96 37q-14 27 49 67q69 43 95 79.5t19.5 68t-39.5 75.5q-30 39 -20 93z" />
    <glyph glyph-name="circumflex" unicode="&#x2c6;" horiz-adv-x="860" 
d="M707 1461q59 0 86 -51l93 -173q32 -60 -24 -98l-49 -33q-57 -39 -100 16l-134 168l-211 -178q-52 -44 -101 1l-17 15q-54 48 -5 102l179 192q36 39 89 39h194z" />
    <glyph glyph-name="caron" unicode="&#x2c7;" horiz-adv-x="860" 
d="M452 1119q-59 0 -86 51l-93 173q-32 60 24 98l49 32q58 39 100 -15l133 -168l212 179q51 43 101 -2l17 -15q54 -48 5 -102l-179 -192q-36 -39 -89 -39h-194z" />
    <glyph glyph-name="uni02C9" unicode="&#x2c9;" horiz-adv-x="860" 
d="M270 1342q12 64 79 64h494q38 0 55 -20.5t10 -57.5l-18 -94q-12 -64 -79 -64h-494q-37 0 -54.5 20.5t-10.5 57.5z" />
    <glyph glyph-name="breve" unicode="&#x2d8;" horiz-adv-x="860" 
d="M548 1126q-126 0 -213 67.5t-97 176.5q-3 34 17 52t56 18h122q21 0 34.5 -8.5t20 -19t18.5 -35.5q23 -49 82 -49q65 0 108 58q20 29 37.5 41.5t46.5 12.5h108q41 0 59 -23t0 -58q-54 -105 -165 -169t-234 -64z" />
    <glyph glyph-name="dotaccent" unicode="&#x2d9;" horiz-adv-x="860" 
d="M413 1291q14 69 72 117t128 48t109 -48t25 -117q-13 -69 -71 -117t-128 -48t-109 48t-26 117z" />
    <glyph glyph-name="ring" unicode="&#x2da;" horiz-adv-x="860" 
d="M343 1285q18 92 98 154t180 62t156 -62t38 -154q-17 -91 -97 -153t-181 -62q-100 0 -155.5 61.5t-38.5 153.5zM516 1285q-5 -26 9.5 -43.5t41.5 -17.5q28 0 49 17.5t26 43.5t-9 44t-42 18q-27 0 -48.5 -17.5t-26.5 -44.5z" />
    <glyph glyph-name="ogonek" unicode="&#x2db;" horiz-adv-x="860" 
d="M343 0q38 0 35 -25q-2 -25 -42 -59q-101 -87 -114 -157q-9 -44 7.5 -69t47.5 -25q49 0 80 45q20 28 38 41t47 13h62q41 0 58 -23.5t-1 -60.5q-50 -93 -134 -143t-193 -50q-118 0 -190.5 67.5t-52.5 172.5q13 64 67 128.5t139 119.5q39 25 90 25h56z" />
    <glyph glyph-name="tilde" unicode="&#x2dc;" horiz-adv-x="860" 
d="M570 1180q-57 36 -84 36q-20 0 -37 -18q-25 -27 -45 -37.5t-48 -4.5l-97 20q-37 8 -50 32.5t4 59.5q88 160 232 160q72 0 143 -43q57 -36 84 -36q19 0 37 18q24 27 44 37.5t49 4.5l96 -20q38 -8 51 -32t-5 -59q-86 -161 -231 -161q-74 0 -143 43z" />
    <glyph glyph-name="hungarumlaut" unicode="&#x2dd;" horiz-adv-x="860" 
d="M459 1486q48 56 102 6l50 -46q55 -52 -2 -102l-245 -212q-52 -45 -101 1l-7 6q-52 48 -6 102zM822 1486q48 56 102 6l50 -46q55 -52 -2 -102l-245 -212q-52 -45 -101 1l-7 6q-52 48 -6 102z" />
    <glyph glyph-name="gravecomb" unicode="&#x300;" horiz-adv-x="0" 
d="M-361 1498q31 21 56.5 14t41.5 -41l105 -224q27 -59 -27 -97l-50 -34q-58 -38 -100 17l-148 192q-45 59 16 101z" />
    <glyph glyph-name="acutecomb" unicode="&#x301;" horiz-adv-x="0" 
d="M-230 1486q48 56 102 6l61 -56q55 -52 -2 -102l-245 -212q-52 -45 -101 1l-18 16q-52 48 -6 102z" />
    <glyph glyph-name="uni0302" unicode="&#x302;" horiz-adv-x="0" 
d="M-153 1461q59 0 86 -51l93 -173q32 -60 -24 -98l-48 -32q-58 -39 -100 15l-134 168l-211 -178q-52 -44 -101 1l-17 15q-54 48 -5 102l179 192q36 39 89 39h193z" />
    <glyph glyph-name="tildecomb" unicode="&#x303;" horiz-adv-x="0" 
d="M-289 1180q-57 36 -84 36q-20 0 -37 -18q-25 -27 -45 -37.5t-48 -4.5l-97 20q-37 8 -50 32.5t4 59.5q88 160 232 160q72 0 143 -43q57 -36 84 -36q19 0 37 18q24 27 44 37.5t49 4.5l95 -20q38 -8 51 -32t-5 -59q-86 -161 -230 -161q-74 0 -143 43z" />
    <glyph glyph-name="uni0304" unicode="&#x304;" horiz-adv-x="0" 
d="M-589 1343q12 64 79 64h493q38 0 55 -20.5t10 -57.5l-18 -94q-12 -64 -79 -64h-493q-37 0 -54.5 20.5t-10.5 57.5z" />
    <glyph glyph-name="uni0306" unicode="&#x306;" horiz-adv-x="0" 
d="M-311 1126q-126 0 -213 67.5t-97 176.5q-3 34 17 52t56 18h122q21 0 34.5 -8.5t20 -19t18.5 -35.5q23 -49 82 -49q65 0 108 58q20 29 37.5 41.5t46.5 12.5h107q41 0 59 -23t0 -58q-54 -105 -164.5 -169t-233.5 -64z" />
    <glyph glyph-name="uni0307" unicode="&#x307;" horiz-adv-x="0" 
d="M-446 1291q14 69 72 117t128 48t108.5 -48t25.5 -117t-71 -117t-128 -48t-109 48t-26 117z" />
    <glyph glyph-name="uni0308" unicode="&#x308;" horiz-adv-x="0" 
d="M-641 1292q13 68 68.5 114t123.5 46q69 0 106.5 -46t24.5 -114q-14 -68 -69 -114t-124 -46q-68 0 -105.5 46.5t-24.5 113.5zM-238 1292q13 68 68.5 114t123.5 46t105.5 -46t24.5 -114q-14 -68 -69 -114t-122 -46q-69 0 -107 46t-24 114z" />
    <glyph glyph-name="uni030A" unicode="&#x30a;" horiz-adv-x="0" 
d="M-516 1285q18 92 98 154t180 62t155.5 -62t37.5 -154q-17 -91 -96.5 -153t-180.5 -62q-100 0 -155.5 61.5t-38.5 153.5zM-343 1285q-5 -26 9.5 -43.5t41.5 -17.5q28 0 49 17.5t26 43.5t-9 44t-42 18q-27 0 -48.5 -17.5t-26.5 -44.5z" />
    <glyph glyph-name="uni030C" unicode="&#x30c;" horiz-adv-x="0" 
d="M-407 1119q-59 0 -86 51l-93 173q-32 60 24 98l49 32q58 39 100 -15l133 -168l211 178q52 44 101 -1l17 -15q54 -49 5 -102l-178 -192q-36 -39 -89 -39h-194z" />
    <glyph glyph-name="uni0327" unicode="&#x327;" horiz-adv-x="0" 
d="M-506 -293q5 30 -15 52t-57 22q-51 8 -75 40q-8 11 2 63l10 51q12 65 78 65h52q37 0 54.5 -20.5t10.5 -57.5l-3 -15q93 -11 134 -69.5t27 -134.5q-19 -97 -114.5 -160t-222.5 -63q-92 0 -158.5 39t-90.5 112q-11 35 8.5 56t57.5 21h55q14 0 26 -5t17.5 -9t19.5 -18
l19 -19q24 -21 65 -21q40 0 66.5 19t33.5 52z" />
    <glyph glyph-name="tonos" unicode="&#x384;" horiz-adv-x="860" 
d="M422 1139q-52 48 -6 102l210 245q48 56 102 6l62 -56q56 -52 -2 -102l-246 -213q-51 -45 -101 1z" />
    <glyph glyph-name="dieresistonos" unicode="&#x385;" horiz-adv-x="860" 
d="M660 1568q52 54 102 -4l36 -42q50 -56 -12 -101l-171 -122q-54 -39 -101 12l-4 5q-47 53 2 102zM209 1142q12 61 64 103t118 42q65 0 100.5 -42t23.5 -103q-11 -62 -63.5 -104t-117.5 -42q-66 0 -101 42t-24 104zM586 1142q12 61 64 103t118 42t101 -42t23 -103
q-11 -62 -63 -104t-118 -42t-101 42t-24 104z" />
    <glyph glyph-name="Alphatonos" unicode="&#x386;" horiz-adv-x="1506" 
d="M237 1079q-52 49 -6 102l210 245q48 56 102 6l61 -56q56 -52 -2 -102l-246 -213q-50 -44 -101 2zM1098 1400q66 0 77 -66l192 -1257q5 -37 -12 -57t-54 -20h-200q-68 0 -76 67l-27 225h-462l-121 -240q-26 -52 -84 -52h-190q-42 0 -57 24t5 62l684 1263q27 51 86 51h239z
M973 551l-58 501l-252 -501h310z" />
    <glyph glyph-name="anoteleia" unicode="&#x387;" horiz-adv-x="606" 
d="M138 653q16 78 80.5 131t146.5 53t126.5 -53t28.5 -131q-15 -78 -79.5 -131t-146.5 -53t-126.5 53t-29.5 131z" />
    <glyph glyph-name="Epsilontonos" unicode="&#x388;" horiz-adv-x="1568" 
d="M237 1079q-52 49 -6 102l210 245q48 56 102 6l61 -56q56 -52 -2 -102l-246 -213q-50 -44 -101 2zM723 1336q12 64 79 64h746q38 0 55 -21t10 -58l-27 -137q-12 -64 -79 -64h-495l-54 -278h433q37 0 54.5 -20.5t10.5 -57.5l-26 -133q-12 -65 -78 -65h-447l-56 -286h499
q37 0 54.5 -20.5t10.5 -57.5l-27 -137q-12 -65 -78 -65h-764q-37 0 -54.5 20.5t-10.5 57.5z" />
    <glyph glyph-name="Etatonos" unicode="&#x389;" horiz-adv-x="1838" 
d="M237 1079q-52 49 -6 102l210 245q48 56 102 6l61 -56q56 -52 -2 -102l-246 -213q-50 -44 -101 2zM723 1336q12 64 79 64h185q38 0 55 -20.5t10 -57.5l-93 -476h465l95 490q12 64 79 64h186q37 0 54.5 -20.5t10.5 -57.5l-244 -1258q-12 -64 -79 -64h-186q-37 0 -54.5 20.5
t-10.5 57.5l94 483h-465l-96 -497q-12 -64 -79 -64h-185q-37 0 -54.5 20.5t-10.5 57.5z" />
    <glyph glyph-name="Iotatonos" unicode="&#x38a;" horiz-adv-x="1048" 
d="M237 1079q-52 49 -6 102l210 245q48 56 102 6l61 -56q56 -52 -2 -102l-246 -213q-50 -44 -101 2zM987 1400q37 0 54.5 -20.5t10.5 -57.5l-244 -1258q-12 -64 -79 -64h-185q-37 0 -54.5 20.5t-10.5 57.5l244 1258q12 64 79 64h185z" />
    <glyph glyph-name="Omicrontonos" unicode="&#x38c;" horiz-adv-x="1936" 
d="M237 1079q-52 49 -6 102l210 245q48 56 102 6l61 -56q56 -52 -2 -102l-246 -213q-50 -44 -101 2zM386 700q39 201 170 367t323 261.5t403 95.5t366 -95.5t222 -261.5t28 -367t-170.5 -367t-323.5 -261.5t-403 -95.5t-366 95.5t-221.5 261.5t-27.5 367zM720 700
q-24 -122 12 -222t122 -157t203 -57q179 0 324.5 125t182.5 311q36 186 -61.5 311t-276.5 125t-324.5 -125t-181.5 -311z" />
    <glyph glyph-name="Upsilontonos" unicode="&#x38e;" horiz-adv-x="1826" 
d="M237 1079q-52 49 -6 102l210 245q48 56 102 6l61 -56q56 -52 -2 -102l-246 -213q-50 -44 -101 2zM1236 864l345 491q31 45 87 45h195q45 0 58 -25.5t-14 -62.5l-565 -758l-95 -490q-12 -64 -78 -64h-185q-37 0 -54.5 20.5t-10.5 57.5l92 476l-271 763q-13 37 3 60t56 23
h208q64 0 82 -60z" />
    <glyph glyph-name="Omegatonos" unicode="&#x38f;" horiz-adv-x="1912" 
d="M237 1079q-52 49 -6 102l210 245q48 56 102 6l61 -56q56 -52 -2 -102l-246 -213q-50 -44 -101 2zM1538 731q33 170 -58.5 287.5t-257.5 117.5t-302.5 -117t-169.5 -288q-26 -133 17.5 -245t147.5 -184q52 -35 41 -92l-28 -145q-12 -65 -78 -65h-474q-38 0 -55 20.5
t-10 57.5l28 145q12 65 78 65h186q-117 87 -163 209t-17 269q27 136 107 258t194 209.5t259 139t295 51.5t275 -51.5t205 -139t113 -209.5t6 -258q-59 -302 -366 -478h172q38 0 55 -20.5t10 -57.5l-28 -145q-12 -65 -78 -65h-474q-37 0 -54.5 20.5t-10.5 57.5l27 138
q9 51 65 80q136 72 226.5 186t116.5 249z" />
    <glyph glyph-name="iotadieresistonos" unicode="&#x390;" horiz-adv-x="624" 
d="M545 1702q52 54 102 -4l36 -42q50 -56 -12 -101l-171 -122q-54 -39 -101 12l-4 5q-47 53 2 102zM95 1276q11 61 63 103t118 42q65 0 100.5 -42t24.5 -103q-12 -62 -64.5 -104t-117.5 -42q-66 0 -101 42t-23 104zM472 1276q11 61 63 103t118 42q65 0 100.5 -42t24.5 -103
q-12 -62 -64 -104t-118 -42t-101 42t-23 104zM215 972q12 64 79 64h175q37 0 54.5 -20.5t10.5 -57.5l-113 -582q-19 -96 77 -96q18 0 24 -21t-1 -58l-27 -134q-12 -63 -64 -66q-17 -1 -52 -1q-179 0 -250.5 75.5t-42.5 224.5z" />
    <glyph glyph-name="Alpha" unicode="&#x391;" horiz-adv-x="1389" 
d="M981 1400q67 0 77 -66l192 -1257q5 -37 -12 -57t-54 -20h-200q-68 0 -76 67l-27 225h-462l-121 -240q-26 -52 -84 -52h-190q-42 0 -57 24t5 62l684 1263q27 51 86 51h239zM856 551l-58 501l-252 -501h310z" />
    <glyph glyph-name="Beta" unicode="&#x392;" horiz-adv-x="1258" 
d="M127 0q-37 0 -54.5 20.5t-10.5 57.5l244 1258q12 64 79 64h476q194 0 288 -103.5t61 -275.5q-19 -99 -80.5 -174t-147.5 -109q102 -29 153 -117.5t27 -211.5q-35 -179 -176.5 -294t-332.5 -115h-526zM896 989q13 68 -18 106.5t-94 38.5h-196l-56 -290h196q63 0 109 38.5
t59 106.5zM838 427q14 73 -19 117t-100 44h-237l-63 -322h237q66 0 117 44.5t65 116.5z" />
    <glyph glyph-name="Gamma" unicode="&#x393;" horiz-adv-x="1048" 
d="M306 1336q12 64 79 64h725q38 0 55 -20.5t10 -57.5l-28 -144q-12 -64 -79 -64h-474l-203 -1050q-12 -64 -79 -64h-185q-37 0 -54.5 20.5t-10.5 57.5z" />
    <glyph glyph-name="uni0394" unicode="&#x394;" horiz-adv-x="1389" 
d="M1251 77q5 -36 -12 -56.5t-54 -20.5h-1160q-42 0 -57 24t5 62l684 1263q27 51 86 51h238q67 0 77 -66zM401 274h493l-95 778z" />
    <glyph glyph-name="Epsilon" unicode="&#x395;" horiz-adv-x="1152" 
d="M306 1336q12 64 79 64h746q38 0 55 -21t10 -58l-27 -137q-12 -64 -79 -64h-495l-54 -278h433q37 0 54.5 -20.5t10.5 -57.5l-26 -133q-12 -65 -78 -65h-447l-56 -286h499q37 0 54.5 -20.5t10.5 -57.5l-27 -137q-12 -65 -78 -65h-764q-37 0 -54.5 20.5t-10.5 57.5z" />
    <glyph glyph-name="Zeta" unicode="&#x396;" horiz-adv-x="1226" 
d="M832 1114h-500q-38 0 -55 20.5t-10 57.5l28 144q12 64 79 64h828q38 0 55 -20.5t10 -57.5l-28 -141q-10 -48 -42 -83l-742 -812h550q37 0 54.5 -20.5t10.5 -57.5l-28 -143q-12 -65 -78 -65h-878q-37 0 -54.5 20.5t-10.5 57.5l27 141q8 46 42 83z" />
    <glyph glyph-name="Eta" unicode="&#x397;" horiz-adv-x="1421" 
d="M306 1336q12 64 79 64h185q38 0 55 -20.5t10 -57.5l-93 -476h465l95 490q12 64 79 64h186q37 0 54.5 -20.5t10.5 -57.5l-244 -1258q-12 -64 -79 -64h-186q-37 0 -54.5 20.5t-10.5 57.5l94 483h-465l-96 -497q-12 -64 -79 -64h-185q-37 0 -54.5 20.5t-10.5 57.5z" />
    <glyph glyph-name="Theta" unicode="&#x398;" horiz-adv-x="1660" 
d="M110 700q39 201 170 367t323 261.5t403 95.5t366 -95.5t222 -261.5t28 -367t-170.5 -367t-323.5 -261.5t-403 -95.5t-366 95.5t-221.5 261.5t-27.5 367zM434 700q-24 -124 13 -226.5t125 -161t207 -58.5q182 0 332 128.5t187 317.5q24 124 -13.5 226.5t-125.5 161
t-207 58.5q-182 0 -331.5 -128.5t-186.5 -317.5zM610 767q12 64 79 64h390q38 0 55 -20.5t10 -57.5l-23 -120q-12 -64 -79 -64h-390q-37 0 -54.5 20.5t-10.5 57.5z" />
    <glyph glyph-name="Iota" unicode="&#x399;" horiz-adv-x="636" 
d="M575 1400q37 0 54.5 -20.5t10.5 -57.5l-244 -1258q-12 -64 -79 -64h-185q-37 0 -54.5 20.5t-10.5 57.5l244 1258q12 64 79 64h185z" />
    <glyph glyph-name="Kappa" unicode="&#x39a;" horiz-adv-x="1262" 
d="M1276 1400q38 0 55 -21.5t9 -59.5q-108 -467 -369 -630l195 -607q12 -37 -4.5 -59.5t-55.5 -22.5h-213q-62 0 -81 60l-169 534q-15 -1 -50 -1h-100l-102 -529q-12 -64 -79 -64h-185q-37 0 -54.5 20.5t-10.5 57.5l244 1258q12 64 79 64h185q38 0 55 -20.5t10 -57.5
l-87 -444h65q158 0 250 102.5t148 353.5q15 66 79 66h186z" />
    <glyph glyph-name="Lambda" unicode="&#x39b;" horiz-adv-x="1389" 
d="M984 0q-68 0 -76 68l-113 969l-497 -985q-26 -52 -84 -52h-190q-42 0 -57 24t5 62l684 1263q27 51 86 51h239q67 0 77 -66l192 -1257q5 -37 -12 -57t-54 -20h-200z" />
    <glyph glyph-name="Mu" unicode="&#x39c;" horiz-adv-x="1725" 
d="M813 218q-63 0 -82 59l-205 611l-160 -824q-12 -64 -78 -64h-161q-37 0 -54.5 20.5t-10.5 57.5l244 1258q12 64 79 64h215q62 0 81 -59l236 -730l532 744q32 45 87 45h208q37 0 54.5 -20.5t10.5 -57.5l-244 -1258q-12 -64 -79 -64h-162q-37 0 -54.5 20.5t-10.5 57.5
l157 810l-452 -625q-32 -45 -87 -45h-64z" />
    <glyph glyph-name="Nu" unicode="&#x39d;" horiz-adv-x="1421" 
d="M306 1336q12 64 79 64h219q63 0 82 -59l278 -840l162 835q12 64 79 64h162q37 0 54.5 -20.5t10.5 -57.5l-244 -1258q-12 -64 -79 -64h-220q-63 0 -82 59l-279 840l-162 -835q-12 -64 -78 -64h-161q-37 0 -54.5 20.5t-10.5 57.5z" />
    <glyph glyph-name="Xi" unicode="&#x39e;" horiz-adv-x="1166" 
d="M275 1336q12 64 79 64h788q38 0 55 -21t10 -58l-27 -137q-12 -64 -79 -64h-788q-38 0 -55 20.5t-10 57.5zM266 566q-37 0 -54.5 20.5t-10.5 57.5l26 133q12 65 78 65h662q37 0 54.5 -20.5t10.5 -57.5l-26 -133q-12 -65 -78 -65h-662zM37 215q12 65 78 65h830
q37 0 54.5 -20.5t10.5 -57.5l-27 -137q-12 -65 -78 -65h-830q-38 0 -55 20.5t-10 57.5z" />
    <glyph glyph-name="Omicron" unicode="&#x39f;" horiz-adv-x="1660" 
d="M110 700q39 201 170 367t323 261.5t403 95.5t366 -95.5t222 -261.5t28 -367t-170.5 -367t-323.5 -261.5t-403 -95.5t-366 95.5t-221.5 261.5t-27.5 367zM444 700q-24 -122 12 -222t122 -157t203 -57q179 0 324.5 125t182.5 311q36 186 -61.5 311t-276.5 125t-324.5 -125
t-181.5 -311z" />
    <glyph glyph-name="Pi" unicode="&#x3a0;" horiz-adv-x="1369" 
d="M1136 64q-12 -64 -79 -64h-186q-37 0 -54.5 20.5t-10.5 57.5l201 1036h-413l-203 -1050q-12 -64 -79 -64h-185q-37 0 -54.5 20.5t-10.5 57.5l244 1258q12 64 79 64h930q37 0 54.5 -20.5t10.5 -57.5z" />
    <glyph glyph-name="Rho" unicode="&#x3a1;" horiz-adv-x="1214" 
d="M468 468l-78 -403q-12 -65 -78 -65h-186q-37 0 -54.5 20.5t-10.5 57.5l244 1258q12 64 79 64h452q219 0 331 -130.5t72 -335.5q-40 -206 -202.5 -336t-382.5 -130h-186zM911 934q18 91 -25 146.5t-138 55.5h-150l-78 -405h150q95 0 159 55t82 148z" />
    <glyph glyph-name="Sigma" unicode="&#x3a3;" horiz-adv-x="1182" 
d="M479 702l-232 346q-29 43 -19 94l38 194q12 64 78 64h824q38 0 55 -21t10 -58l-28 -141q-13 -64 -78 -64h-533l206 -285q31 -44 21 -95l-14 -73q-9 -47 -47 -82l-329 -297h520q37 0 54.5 -20.5t10.5 -57.5l-27 -142q-12 -64 -79 -64h-824q-37 0 -54.5 20.5t-10.5 57.5
l36 183q10 48 45 82z" />
    <glyph glyph-name="Tau" unicode="&#x3a4;" horiz-adv-x="1119" 
d="M510 1114h-264q-38 0 -55 20.5t-10 57.5l28 144q12 64 79 64h873q38 0 55 -20.5t10 -57.5l-28 -144q-12 -64 -79 -64h-278l-203 -1050q-12 -64 -79 -64h-185q-37 0 -54.5 20.5t-10.5 57.5z" />
    <glyph glyph-name="Upsilon" unicode="&#x3a5;" horiz-adv-x="1315" 
d="M724 864l345 491q31 45 87 45h195q45 0 58 -25.5t-14 -62.5l-565 -758l-95 -490q-12 -64 -78 -64h-185q-37 0 -54.5 20.5t-10.5 57.5l92 476l-271 763q-13 37 3 60t56 23h208q64 0 82 -60z" />
    <glyph glyph-name="Phi" unicode="&#x3a6;" horiz-adv-x="1556" 
d="M559 192q-157 0 -274.5 66.5t-170 182.5t-25.5 257q28 141 125.5 257t241 182.5t300.5 66.5l26 132q12 64 78 64h165q37 0 54.5 -20.5t10.5 -57.5l-23 -118q157 0 274.5 -66.5t170 -182.5t24.5 -257q-27 -141 -125 -257t-241 -182.5t-300 -66.5l-25 -127q-12 -65 -78 -65
h-165q-37 0 -54.5 20.5t-10.5 57.5zM403 698q-19 -97 41 -163.5t168 -66.5l90 459q-108 0 -194 -66.5t-105 -162.5zM1222 698q19 96 -41 162.5t-168 66.5l-90 -459q108 0 194 66.5t105 163.5z" />
    <glyph glyph-name="Chi" unicode="&#x3a7;" horiz-adv-x="1301" 
d="M881 0q-62 0 -82 58l-154 432l-332 -446q-33 -44 -88 -44h-193q-46 0 -58.5 26t15.5 62l492 628l-234 601q-14 38 1 60.5t55 22.5h210q61 0 82 -58l138 -399l303 413q33 44 88 44h194q46 0 58.5 -26t-15.5 -62l-464 -596l251 -633q15 -38 -0.5 -60.5t-56.5 -22.5h-210z
" />
    <glyph glyph-name="Psi" unicode="&#x3a8;" horiz-adv-x="1409" 
d="M871 615q76 33 129 99t69 148l92 474q12 64 79 64h150q38 0 55 -20.5t10 -57.5l-92 -471q-37 -193 -190 -339t-359 -190l-50 -257q-12 -65 -78 -65h-149q-37 0 -54.5 20.5t-10.5 57.5l47 244q-189 44 -284.5 190t-58.5 339l94 485q12 64 79 64h150q38 0 55 -20.5
t10 -57.5l-90 -460q-16 -81 12 -147.5t90 -99.5l140 721q12 64 79 64h149q38 0 55 -20.5t10 -57.5z" />
    <glyph glyph-name="uni03A9" unicode="&#x3a9;" horiz-adv-x="1620" 
d="M1246 731q33 170 -58.5 287.5t-257.5 117.5t-302.5 -117t-169.5 -288q-26 -133 17.5 -245t147.5 -184q52 -35 41 -92l-28 -145q-12 -65 -78 -65h-474q-38 0 -55 20.5t-10 57.5l28 145q12 65 78 65h186q-117 87 -163 209t-17 269q27 136 107 258t194 209.5t259 139
t295 51.5t275 -51.5t205 -139t113 -209.5t6 -258q-59 -302 -366 -478h172q38 0 55 -20.5t10 -57.5l-28 -145q-12 -65 -78 -65h-474q-37 0 -54.5 20.5t-10.5 57.5l27 138q9 51 65 80q136 72 226.5 186t116.5 249z" />
    <glyph glyph-name="Iotadieresis" unicode="&#x3aa;" horiz-adv-x="636" 
d="M178 1664q13 68 68.5 114t123.5 46q69 0 106.5 -46t24.5 -114q-14 -68 -69 -114t-124 -46q-68 0 -105.5 46.5t-24.5 113.5zM581 1664q13 68 68.5 114t124.5 46q68 0 105.5 -46t24.5 -114q-14 -68 -69 -114t-123 -46q-69 0 -107 46t-24 114zM575 1400q37 0 54.5 -20.5
t10.5 -57.5l-244 -1258q-12 -64 -79 -64h-185q-37 0 -54.5 20.5t-10.5 57.5l244 1258q12 64 79 64h185z" />
    <glyph glyph-name="Upsilondieresis" unicode="&#x3ab;" horiz-adv-x="1315" 
d="M517 1664q13 68 68.5 114t123.5 46q69 0 106.5 -46t24.5 -114q-14 -68 -69 -114t-124 -46q-68 0 -105.5 46.5t-24.5 113.5zM920 1664q13 68 68.5 114t124.5 46q68 0 105.5 -46t24.5 -114q-14 -68 -69 -114t-123 -46q-69 0 -107 46t-24 114zM724 864l345 491q31 45 87 45
h195q45 0 58 -25.5t-14 -62.5l-565 -758l-95 -490q-12 -64 -78 -64h-185q-37 0 -54.5 20.5t-10.5 57.5l92 476l-271 763q-13 37 3 60t56 23h208q64 0 82 -60z" />
    <glyph glyph-name="alphatonos" unicode="&#x3ac;" horiz-adv-x="1388" 
d="M881 1552q48 56 102 6l61 -56q55 -52 -2 -102l-245 -212q-52 -45 -101 1l-18 16q-52 48 -6 102zM60 518q44 228 216.5 385t382.5 157q96 0 172 -35.5t125 -97.5l9 44q12 65 78 65h171q38 0 55 -20.5t10 -57.5l-114 -583q-18 -96 78 -96q18 0 24 -20.5t-1 -58.5l-27 -133
q-12 -63 -62 -66q-16 -1 -50 -1q-239 0 -278 148q-169 -172 -397 -172q-140 0 -240.5 72t-140.5 196t-11 274zM379 518q-22 -111 35 -186t162 -75t191.5 75t108.5 186q22 109 -36 184.5t-162 75.5t-190.5 -75t-108.5 -185z" />
    <glyph glyph-name="epsilontonos" unicode="&#x3ad;" horiz-adv-x="970" 
d="M706 1552q48 56 102 6l61 -56q55 -52 -2 -102l-245 -212q-52 -45 -101 1l-18 16q-52 48 -6 102zM328 314q-10 -46 24 -76t92 -30q106 0 214 72q57 39 101 -10l30 -34q48 -55 -5 -102q-179 -158 -392 -158q-192 0 -299.5 90t-81.5 227q17 86 86 148.5t163 90.5
q-69 27 -102.5 93.5t-18.5 144.5q24 123 155 206.5t303 83.5q140 0 224.5 -69t98.5 -188q4 -35 -16 -54t-56 -19h-145q-20 0 -34.5 8.5t-21.5 17.5t-23 33q-25 37 -74 37q-43 0 -74 -22.5t-39 -59.5q-8 -38 20.5 -68t73.5 -30h69q37 0 54.5 -20.5t10.5 -57.5l-19 -96
q-12 -64 -78 -64h-81q-60 0 -105 -24.5t-54 -69.5z" />
    <glyph glyph-name="etatonos" unicode="&#x3ae;" horiz-adv-x="1232" 
d="M876 1552q48 56 102 6l61 -56q55 -52 -2 -102l-245 -212q-52 -45 -101 1l-18 16q-52 48 -6 102zM840 1060q171 0 259 -113.5t53 -296.5l-204 -1050q-12 -64 -79 -64h-175q-38 0 -55 20.5t-10 57.5l192 985q15 77 -23 128t-109 51q-82 0 -148 -58t-86 -160l-96 -495
q-12 -65 -78 -65h-175q-37 0 -54.5 20.5t-10.5 57.5l173 894q12 64 79 64h175q37 0 54.5 -20.5t10.5 -57.5l-6 -31q135 133 313 133z" />
    <glyph glyph-name="iotatonos" unicode="&#x3af;" horiz-adv-x="624" 
d="M534 1552q48 56 102 6l61 -56q55 -52 -2 -102l-245 -212q-52 -45 -101 1l-18 16q-52 48 -6 102zM215 972q12 64 79 64h175q37 0 54.5 -20.5t10.5 -57.5l-113 -582q-19 -96 77 -96q18 0 24 -21t-1 -58l-27 -134q-12 -63 -64 -66q-17 -1 -52 -1q-179 0 -250.5 75.5
t-42.5 224.5z" />
    <glyph glyph-name="upsilondieresistonos" unicode="&#x3b0;" horiz-adv-x="1171" 
d="M841 1702q52 54 102 -4l36 -42q50 -56 -12 -101l-171 -122q-54 -39 -101 12l-4 5q-47 53 2 102zM391 1276q11 61 63 103t118 42q65 0 100.5 -42t24.5 -103q-12 -62 -64.5 -104t-117.5 -42q-66 0 -101 42t-23 104zM768 1276q11 61 63 103t118 42q65 0 100.5 -42t24.5 -103
q-12 -62 -64 -104t-118 -42t-101 42t-23 104zM480 -24q-132 0 -231 57t-143 156.5t-21 218.5l109 564q12 64 79 64h176q38 0 55 -20.5t10 -57.5l-104 -533q-14 -72 21.5 -119.5t103.5 -47.5t122 47.5t68 119.5l106 547q12 64 79 64h175q37 0 54.5 -20.5t10.5 -57.5
l-107 -550q-23 -119 -105.5 -218.5t-203.5 -156.5t-254 -57z" />
    <glyph glyph-name="alpha" unicode="&#x3b1;" horiz-adv-x="1388" 
d="M60 518q44 228 216.5 385t382.5 157q96 0 172 -35.5t125 -97.5l9 44q12 65 78 65h171q38 0 55 -20.5t10 -57.5l-114 -583q-18 -96 78 -96q18 0 24 -20.5t-1 -58.5l-27 -133q-12 -63 -62 -66q-16 -1 -50 -1q-239 0 -278 148q-169 -172 -397 -172q-140 0 -240.5 72
t-140.5 196t-11 274zM379 518q-22 -111 35 -186t162 -75t191.5 75t108.5 186q22 109 -36 184.5t-162 75.5t-190.5 -75t-108.5 -185z" />
    <glyph glyph-name="beta" unicode="&#x3b2;" horiz-adv-x="1221" 
d="M489 244q30 55 97 31q39 -15 83 -15q68 0 117 52.5t66 144.5q15 76 -28.5 134.5t-119.5 58.5q-8 1 -20.5 3.5t-36 15.5t-29.5 32l-16 46q-17 53 14 97l195 283h-242l-297 -1527q-12 -64 -79 -64h-169q-38 0 -55 20.5t-10 57.5l335 1722q12 64 79 64h713q38 0 55 -20.5
t10 -57.5l-28 -142q-8 -43 -37 -84l-184 -251q142 -28 208.5 -148t32.5 -291q-40 -206 -168 -315.5t-295 -109.5q-134 0 -227 72q-47 38 -14 99z" />
    <glyph glyph-name="gamma" unicode="&#x3b3;" horiz-adv-x="1092" 
d="M285 1l-154 958q-6 37 11.5 57t54.5 20h190q67 0 75 -68l62 -570l290 585q26 53 85 53h178q42 0 56.5 -24t-5.5 -62l-521 -949l-78 -401q-12 -64 -79 -64h-176q-38 0 -55 20.5t-10 57.5z" />
    <glyph glyph-name="delta" unicode="&#x3b4;" horiz-adv-x="1147" 
d="M358 1118q-33 43 -23 94l24 124q12 64 79 64h610q38 0 55 -21t10 -58l-27 -136q-13 -64 -78 -64h-295l291 -369q102 -132 68 -308q-26 -132 -118 -240.5t-221.5 -168t-267.5 -59.5q-101 0 -187.5 35.5t-144.5 96.5t-82 149t-5 187q32 168 169.5 294t316.5 160zM364 444
q-16 -83 29.5 -139t126.5 -56q82 0 150 56t84 139q16 82 -30 138t-128 56q-81 0 -148.5 -56t-83.5 -138z" />
    <glyph glyph-name="epsilon" unicode="&#x3b5;" horiz-adv-x="970" 
d="M328 314q-10 -46 24 -76t92 -30q106 0 214 72q57 39 101 -10l30 -34q48 -55 -5 -102q-179 -158 -392 -158q-192 0 -299.5 90t-81.5 227q17 86 86 148.5t163 90.5q-69 27 -102.5 93.5t-18.5 144.5q24 123 155 206.5t303 83.5q140 0 224.5 -69t98.5 -188q4 -35 -16 -54
t-56 -19h-145q-20 0 -34.5 8.5t-21.5 17.5t-23 33q-25 37 -74 37q-43 0 -74 -22.5t-39 -59.5q-8 -38 20.5 -68t73.5 -30h69q37 0 54.5 -20.5t10.5 -57.5l-19 -96q-12 -64 -78 -64h-81q-60 0 -105 -24.5t-54 -69.5z" />
    <glyph glyph-name="zeta" unicode="&#x3b6;" horiz-adv-x="957" 
d="M25 365q19 98 85.5 191.5t169.5 194.5l380 370h-306q-38 0 -55 21t-10 58l27 136q13 64 78 64h607q38 0 55 -21t10 -58l-26 -132q-10 -49 -44 -83l-486 -486q-135 -135 -156 -244q-24 -122 93 -190l207 -122q74 -43 102.5 -115t10.5 -160q-21 -108 -107 -213
q-32 -40 -88 -40h-156q-44 0 -54.5 23t14.5 61q47 72 58 130q9 45 -7.5 81t-51.5 57l-168 94q-110 61 -158 160.5t-24 222.5z" />
    <glyph glyph-name="eta" unicode="&#x3b7;" horiz-adv-x="1232" 
d="M840 1060q171 0 259 -113.5t53 -296.5l-204 -1050q-12 -64 -79 -64h-175q-38 0 -55 20.5t-10 57.5l192 985q15 77 -23 128t-109 51q-82 0 -148 -58t-86 -160l-96 -495q-12 -65 -78 -65h-175q-37 0 -54.5 20.5t-10.5 57.5l173 894q12 64 79 64h175q37 0 54.5 -20.5
t10.5 -57.5l-6 -31q135 133 313 133z" />
    <glyph glyph-name="theta" unicode="&#x3b8;" horiz-adv-x="1293" 
d="M92 700q38 198 145 363t261.5 263t323.5 98t286 -98t159.5 -263t4.5 -363q-39 -198 -145.5 -363t-261.5 -263t-324 -98t-286 98t-159.5 263t-3.5 363zM770 1153q-99 0 -186.5 -91.5t-136.5 -233.5h519q7 143 -45 234t-151 91zM593 246q99 0 187 91.5t137 234.5h-519
q-7 -143 44.5 -234.5t150.5 -91.5z" />
    <glyph glyph-name="iota" unicode="&#x3b9;" horiz-adv-x="624" 
d="M215 972q12 64 79 64h175q37 0 54.5 -20.5t10.5 -57.5l-113 -582q-19 -96 77 -96q18 0 24 -21t-1 -58l-27 -134q-12 -63 -64 -66q-17 -1 -52 -1q-179 0 -250.5 75.5t-42.5 224.5z" />
    <glyph glyph-name="kappa" unicode="&#x3ba;" horiz-adv-x="1106" 
d="M1052 1036q38 0 55.5 -21.5t7.5 -59.5q-83 -325 -281 -448l138 -425q12 -37 -4.5 -59.5t-55.5 -22.5h-201q-63 0 -81 61l-107 367h-92l-70 -364q-12 -64 -79 -64h-176q-37 0 -54.5 20.5t-10.5 57.5l173 894q12 64 79 64h176q38 0 55 -20.5t10 -57.5l-50 -254h64
q177 0 248 266q18 66 80 66h176z" />
    <glyph glyph-name="lambda" unicode="&#x3bb;" horiz-adv-x="1092" 
d="M406 1381q-8 37 9.5 58t54.5 21h189q66 0 77 -65l224 -1317q6 -37 -11.5 -57.5t-54.5 -20.5h-188q-68 0 -77 67l-69 537l-281 -552q-26 -52 -84 -52h-179q-42 0 -56.5 24.5t6.5 61.5l517 932z" />
    <glyph glyph-name="uni03BC" unicode="&#x3bc;" horiz-adv-x="1252" 
d="M213 972q12 64 79 64h175q37 0 54.5 -20.5t10.5 -57.5l-102 -524q-15 -76 23 -126.5t109 -50.5q81 0 147.5 58t86.5 160l96 497q12 64 79 64h175q37 0 54.5 -20.5t10.5 -57.5l-173 -894q-12 -64 -79 -64h-175q-38 0 -55.5 20.5t-10.5 57.5l6 30q-126 -123 -315 -123
q-33 0 -65 6l-76 -391q-12 -64 -79 -64h-175q-37 0 -54.5 20.5t-10.5 57.5z" />
    <glyph glyph-name="nu" unicode="&#x3bd;" horiz-adv-x="1092" 
d="M1077 1036q42 0 56.5 -24t-5.5 -62l-478 -899q-27 -51 -85 -51h-230q-68 0 -77 66l-128 893q-5 36 12.5 56.5t54.5 20.5h188q69 0 75 -69l55 -602l298 618q25 53 85 53h179z" />
    <glyph glyph-name="xi" unicode="&#x3be;" horiz-adv-x="967" 
d="M355 373q-14 -71 15.5 -125.5t101.5 -83.5l132 -55q98 -42 143.5 -121.5t24.5 -183.5q-23 -115 -111 -227q-31 -41 -87 -41h-155q-45 0 -55 23t16 61q46 68 57 128q8 46 -9.5 81.5t-58.5 51.5l-117 46q-132 52 -192.5 171t-33.5 258q26 133 123.5 242t229.5 157
q-96 43 -134.5 126.5t-18.5 186.5q29 150 169.5 253t317.5 103q166 0 256.5 -84t82.5 -232q-3 -68 -75 -68h-139q-31 0 -44 15t-26 52q-21 57 -90 57q-54 0 -97.5 -39.5t-55.5 -101.5t19 -105.5t92 -43.5h136q38 0 55 -20.5t10 -57.5l-23 -120q-12 -64 -79 -64h-102
q-97 0 -177.5 -68t-100.5 -171z" />
    <glyph glyph-name="omicron" unicode="&#x3bf;" horiz-adv-x="1281" 
d="M61 518q22 112 86 212.5t155 173t207 114.5t238 42q163 0 282 -71.5t170 -196t22 -274.5t-128.5 -274.5t-246.5 -196t-310 -71.5q-122 0 -222 42t-162.5 114.5t-87.5 173t-3 212.5zM380 518q-22 -111 38.5 -185.5t172.5 -74.5t200.5 74.5t110.5 185.5q22 110 -38 185
t-172 75q-111 0 -200.5 -74.5t-111.5 -185.5z" />
    <glyph glyph-name="pi" unicode="&#x3c0;" horiz-adv-x="1169" 
d="M387 64q-12 -64 -78 -64h-172q-37 0 -54.5 20.5t-10.5 57.5l131 676h-39q-38 0 -55 20.5t-10 57.5l27 140q12 64 79 64h946q38 0 55 -20.5t10 -57.5l-27 -140q-12 -64 -79 -64h-53l-134 -690q-12 -64 -78 -64h-172q-37 0 -54.5 20.5t-10.5 57.5l131 676h-218z" />
    <glyph glyph-name="rho" unicode="&#x3c1;" horiz-adv-x="1299" 
d="M106 518q45 228 237.5 385t434.5 157q120 0 217 -42.5t157.5 -115t84 -172.5t1.5 -212q-28 -148 -125.5 -273t-236 -197t-283.5 -72q-171 0 -257 101l-92 -477q-12 -64 -79 -64h-170q-38 0 -55 20.5t-10 57.5zM398 391q24 -61 81 -97t133 -36q109 0 197 74.5t110 185.5
t-34 185.5t-163 74.5q-108 0 -193 -74.5t-107 -185.5z" />
    <glyph glyph-name="uni03C2" unicode="&#x3c2;" horiz-adv-x="1088" 
d="M384 518q-19 -99 15.5 -175.5t121.5 -120.5l191 -96q97 -49 137 -133t19 -189q-22 -116 -106 -227q-31 -41 -88 -41h-154q-45 0 -55 23t16 61q46 68 57 128q18 98 -70 143l-180 90q-143 72 -203 211.5t-24 325.5q22 112 86 212.5t155 173t207 114.5t238 42q190 0 320 -98
q55 -43 6 -101l-106 -125q-43 -50 -101 -10q-81 52 -170 52q-111 0 -200.5 -74.5t-111.5 -185.5z" />
    <glyph glyph-name="sigma" unicode="&#x3c3;" horiz-adv-x="1334" 
d="M59 506q43 222 238 376t433 154h582q38 0 55 -20.5t10 -57.5l-27 -140q-12 -64 -79 -64h-151q48 -51 66.5 -124.5t2.5 -153.5q-25 -129 -120 -243.5t-241 -185.5t-304 -71q-117 0 -214.5 41.5t-159.5 112t-87 169t-4 207.5zM376 506q-20 -105 38.5 -176.5t164.5 -71.5
t192 71.5t106 176.5t-38 176.5t-164 71.5t-192.5 -71.5t-106.5 -176.5z" />
    <glyph glyph-name="tau" unicode="&#x3c4;" horiz-adv-x="992" 
d="M370 754h-208q-38 0 -55 20.5t-10 57.5l27 140q12 64 79 64h773q38 0 55 -20.5t10 -57.5l-27 -140q-12 -64 -79 -64h-243l-68 -351q-13 -66 9.5 -96t81.5 -30q21 0 29.5 -20.5t1.5 -57.5l-26 -134q-12 -65 -64 -66q-17 -1 -52 -1q-200 0 -273.5 86.5t-37.5 275.5z" />
    <glyph glyph-name="upsilon" unicode="&#x3c5;" horiz-adv-x="1171" 
d="M480 -24q-132 0 -231 57t-143 156.5t-21 218.5l109 564q12 64 79 64h176q38 0 55 -20.5t10 -57.5l-104 -533q-14 -72 21.5 -119.5t103.5 -47.5t122 47.5t68 119.5l106 547q12 64 79 64h175q37 0 54.5 -20.5t10.5 -57.5l-107 -550q-23 -119 -105.5 -218.5t-203.5 -156.5
t-254 -57z" />
    <glyph glyph-name="phi" unicode="&#x3c6;" horiz-adv-x="1411" 
d="M459 805q40 -51 -9 -101q-81 -85 -102 -186q-19 -99 28.5 -171t140.5 -91l144 740q12 64 79 64h142q161 0 279 -72t168.5 -196t21.5 -274q-40 -210 -212 -362t-395 -175l-74 -381q-12 -64 -79 -64h-134q-38 0 -55 20.5t-10 57.5l72 367q-216 22 -330 174t-73 363
q44 224 231 383q55 46 101 -13zM1064 518q19 97 -27.5 168.5t-137.5 91.5l-102 -522q100 21 174 93t93 169z" />
    <glyph glyph-name="chi" unicode="&#x3c7;" horiz-adv-x="1086" 
d="M699 305l168 -689q9 -37 -8 -58.5t-55 -21.5h-192q-64 0 -78 64l-88 420l-259 -435q-29 -49 -86 -49h-179q-44 0 -57.5 25t9.5 62l431 682l-156 651q-9 37 8 58.5t55 21.5h193q65 0 78 -64l75 -376l232 391q29 49 86 49h179q44 0 57.5 -25t-9.5 -62z" />
    <glyph glyph-name="psi" unicode="&#x3c8;" horiz-adv-x="1389" 
d="M789 281q79 29 134.5 90t71.5 139l89 462q12 64 79 64h140q38 0 55 -20.5t10 -57.5l-92 -472q-36 -184 -187 -320t-356 -175l-76 -391q-12 -64 -79 -64h-136q-38 0 -55 20.5t-10 57.5l74 377q-189 39 -288 175.5t-63 319.5l94 486q12 64 79 64h140q37 0 54.5 -20.5
t10.5 -57.5l-87 -448q-16 -78 16 -139t100 -90l134 691q12 64 79 64h136q38 0 55 -20.5t10 -57.5z" />
    <glyph glyph-name="omega" unicode="&#x3c9;" horiz-adv-x="1622" 
d="M977 558q-27 -123 -7 -212t84 -89q58 0 110 71.5t73 179.5q41 207 -39 446q-13 38 2 60t54 22h170q61 0 83 -55q96 -247 52 -473q-29 -148 -109 -270t-192 -192t-230 -70q-104 0 -179.5 56.5t-104.5 145.5q-62 -89 -159 -145.5t-202 -56.5q-118 0 -203 70t-118 192
t-4 270q45 230 247 487q33 41 88 41h154q45 0 57 -25t-14 -62q-170 -236 -210 -441q-20 -104 4.5 -177.5t80.5 -73.5q64 0 117 86t78 215l38 196q12 64 79 64h171q38 0 55 -20.5t10 -57.5z" />
    <glyph glyph-name="iotadieresis" unicode="&#x3ca;" horiz-adv-x="624" 
d="M85 1340q13 68 68.5 114t123.5 46q69 0 106.5 -46t24.5 -114q-14 -68 -69 -114t-124 -46q-68 0 -105.5 46.5t-24.5 113.5zM488 1340q13 68 68.5 114t124.5 46q68 0 105.5 -46t24.5 -114q-14 -68 -69 -114t-123 -46q-69 0 -107 46t-24 114zM215 972q12 64 79 64h175
q37 0 54.5 -20.5t10.5 -57.5l-113 -582q-19 -96 77 -96q18 0 24 -21t-1 -58l-27 -134q-12 -63 -64 -66q-17 -1 -52 -1q-179 0 -250.5 75.5t-42.5 224.5z" />
    <glyph glyph-name="upsilondieresis" unicode="&#x3cb;" horiz-adv-x="1171" 
d="M382 1340q13 68 68.5 114t123.5 46q69 0 106.5 -46t24.5 -114q-14 -68 -69 -114t-124 -46q-68 0 -105.5 46.5t-24.5 113.5zM785 1340q13 68 68.5 114t124.5 46q68 0 105.5 -46t24.5 -114q-14 -68 -69 -114t-123 -46q-69 0 -107 46t-24 114zM480 -24q-132 0 -231 57
t-143 156.5t-21 218.5l109 564q12 64 79 64h176q38 0 55 -20.5t10 -57.5l-104 -533q-14 -72 21.5 -119.5t103.5 -47.5t122 47.5t68 119.5l106 547q12 64 79 64h175q37 0 54.5 -20.5t10.5 -57.5l-107 -550q-23 -119 -105.5 -218.5t-203.5 -156.5t-254 -57z" />
    <glyph glyph-name="omicrontonos" unicode="&#x3cc;" horiz-adv-x="1281" 
d="M900 1552q48 56 102 6l61 -56q55 -52 -2 -102l-245 -212q-52 -45 -101 1l-18 16q-52 48 -6 102zM61 518q22 112 86 212.5t155 173t207 114.5t238 42q163 0 282 -71.5t170 -196t22 -274.5t-128.5 -274.5t-246.5 -196t-310 -71.5q-122 0 -222 42t-162.5 114.5t-87.5 173
t-3 212.5zM380 518q-22 -111 38.5 -185.5t172.5 -74.5t200.5 74.5t110.5 185.5q22 110 -38 185t-172 75q-111 0 -200.5 -74.5t-111.5 -185.5z" />
    <glyph glyph-name="upsilontonos" unicode="&#x3cd;" horiz-adv-x="1171" 
d="M837 1552q48 56 102 6l61 -56q55 -52 -2 -102l-245 -212q-52 -45 -101 1l-18 16q-52 48 -6 102zM480 -24q-132 0 -231 57t-143 156.5t-21 218.5l109 564q12 64 79 64h176q38 0 55 -20.5t10 -57.5l-104 -533q-14 -72 21.5 -119.5t103.5 -47.5t122 47.5t68 119.5l106 547
q12 64 79 64h175q37 0 54.5 -20.5t10.5 -57.5l-107 -550q-23 -119 -105.5 -218.5t-203.5 -156.5t-254 -57z" />
    <glyph glyph-name="omegatonos" unicode="&#x3ce;" horiz-adv-x="1622" 
d="M1076 1552q48 56 102 6l61 -56q55 -52 -2 -102l-245 -212q-52 -45 -101 1l-18 16q-52 48 -6 102zM977 558q-27 -123 -7 -212t84 -89q58 0 110 71.5t73 179.5q41 207 -39 446q-13 38 2 60t54 22h170q61 0 83 -55q96 -247 52 -473q-29 -148 -109 -270t-192 -192t-230 -70
q-104 0 -179.5 56.5t-104.5 145.5q-62 -89 -159 -145.5t-202 -56.5q-118 0 -203 70t-118 192t-4 270q45 230 247 487q33 41 88 41h154q45 0 57 -25t-14 -62q-170 -236 -210 -441q-20 -104 4.5 -177.5t80.5 -73.5q64 0 117 86t78 215l38 196q12 64 79 64h171q38 0 55 -20.5
t10 -57.5z" />
    <glyph glyph-name="uni0400" unicode="&#x400;" horiz-adv-x="1152" 
d="M683 1888q31 21 56.5 14t41.5 -41l105 -224q27 -59 -27 -97l-50 -34q-59 -39 -101 16l-148 193q-45 59 16 101zM306 1336q12 64 79 64h746q38 0 55 -21t10 -58l-27 -137q-12 -64 -79 -64h-495l-54 -278h433q37 0 54.5 -20.5t10.5 -57.5l-26 -133q-12 -65 -78 -65h-447
l-56 -286h499q37 0 54.5 -20.5t10.5 -57.5l-27 -137q-12 -65 -78 -65h-764q-37 0 -54.5 20.5t-10.5 57.5z" />
    <glyph glyph-name="uni0401" unicode="&#x401;" horiz-adv-x="1152" 
d="M458 1664q13 68 68.5 114t123.5 46q69 0 106.5 -46t24.5 -114q-14 -68 -69 -114t-124 -46q-68 0 -105.5 46.5t-24.5 113.5zM861 1664q13 68 68.5 114t124.5 46q68 0 105.5 -46t24.5 -114q-14 -68 -69 -114t-123 -46q-69 0 -107 46t-24 114zM306 1336q12 64 79 64h746
q38 0 55 -21t10 -58l-27 -137q-12 -64 -79 -64h-495l-54 -278h433q37 0 54.5 -20.5t10.5 -57.5l-26 -133q-12 -65 -78 -65h-447l-56 -286h499q37 0 54.5 -20.5t10.5 -57.5l-27 -137q-12 -65 -78 -65h-764q-37 0 -54.5 20.5t-10.5 57.5z" />
    <glyph glyph-name="uni0402" unicode="&#x402;" horiz-adv-x="1457" 
d="M1064 900q180 0 270.5 -114.5t55.5 -296.5l-20 -99q-32 -166 -173.5 -280t-315.5 -114h-29q-37 1 -53.5 22t-9.5 58l26 132q12 65 56 65q63 0 112 40t61 101l8 42q12 62 -18 105.5t-102 43.5q-84 0 -147.5 -51.5t-81.5 -145.5l-67 -344q-12 -64 -78 -64h-186
q-37 0 -54.5 20.5t-10.5 57.5l202 1042h-262q-38 0 -55 21t-10 58l27 137q12 64 79 64h871q38 0 55 -21t10 -58l-27 -137q-12 -64 -79 -64h-277l-65 -337q125 117 288 117z" />
    <glyph glyph-name="uni0403" unicode="&#x403;" horiz-adv-x="1048" 
d="M873 1901q48 56 102 6l61 -56q55 -52 -2 -102l-245 -212q-52 -45 -101 1l-18 16q-52 48 -6 102zM306 1336q12 64 79 64h725q38 0 55 -20.5t10 -57.5l-28 -144q-12 -64 -79 -64h-474l-203 -1050q-12 -64 -79 -64h-185q-37 0 -54.5 20.5t-10.5 57.5z" />
    <glyph glyph-name="uni0404" unicode="&#x404;" horiz-adv-x="1515" 
d="M1341 410q54 -47 9 -101q-279 -333 -662 -333q-201 0 -348 95.5t-208 261.5t-22 367q39 202 164 367.5t308.5 261t386.5 95.5q228 0 370.5 -117t169.5 -328q5 -35 -13.5 -55t-55.5 -20h-208q-32 0 -50 16t-28 49q-25 80 -89.5 123.5t-155.5 43.5q-134 0 -250.5 -86
t-175.5 -224h511q37 0 54.5 -20.5t10.5 -57.5l-21 -111q-12 -64 -79 -64h-525q8 -139 96.5 -224.5t229.5 -85.5q240 0 430 186q50 50 102 4z" />
    <glyph glyph-name="uni0405" unicode="&#x405;" horiz-adv-x="1200" 
d="M172 370q50 46 102 -4q118 -112 277 -112q88 0 150.5 39.5t75.5 103.5q6 32 -1 57t-30.5 49.5t-72 45t-122.5 36.5q-193 43 -283 151.5t-59 268.5q35 183 191.5 301t368.5 118q193 0 310 -94.5t120 -268.5q0 -35 -19.5 -53t-54.5 -18h-186q-32 0 -48 16.5t-26 51.5
q-25 92 -134 92q-70 0 -121 -33t-62 -86q-12 -62 33.5 -107t171.5 -75q425 -103 361 -436q-37 -191 -202 -314t-400 -123q-264 0 -420 234q-36 55 15 101z" />
    <glyph glyph-name="uni0406" unicode="&#x406;" horiz-adv-x="636" 
d="M575 1400q37 0 54.5 -20.5t10.5 -57.5l-244 -1258q-12 -64 -79 -64h-185q-37 0 -54.5 20.5t-10.5 57.5l244 1258q12 64 79 64h185z" />
    <glyph glyph-name="uni0407" unicode="&#x407;" horiz-adv-x="636" 
d="M178 1664q13 68 68.5 114t123.5 46q69 0 106.5 -46t24.5 -114q-14 -68 -69 -114t-124 -46q-68 0 -105.5 46.5t-24.5 113.5zM581 1664q13 68 68.5 114t124.5 46q68 0 105.5 -46t24.5 -114q-14 -68 -69 -114t-123 -46q-69 0 -107 46t-24 114zM575 1400q37 0 54.5 -20.5
t10.5 -57.5l-244 -1258q-12 -64 -79 -64h-185q-37 0 -54.5 20.5t-10.5 57.5l244 1258q12 64 79 64h185z" />
    <glyph glyph-name="uni0408" unicode="&#x408;" horiz-adv-x="937" 
d="M629 1336q12 64 79 64h186q38 0 55 -20.5t10 -57.5l-171 -876q-45 -231 -183 -350.5t-329 -119.5q-153 0 -275 74q-57 36 -21 99l58 103q30 55 96 31q57 -19 111 -19q84 0 140 51t75 151z" />
    <glyph glyph-name="uni0409" unicode="&#x409;" horiz-adv-x="2039" 
d="M1343 902h216q222 0 336 -126.5t76 -324.5t-201.5 -324.5t-385.5 -126.5h-467q-37 0 -54.5 20.5t-10.5 57.5l201 1036h-381l-143 -738q-39 -198 -165.5 -289t-339.5 -91h-17q-37 1 -53 22t-9 58l27 141q12 65 68 65q70 0 111 36.5t58 119.5l174 898q12 64 79 64h898
q38 0 55 -20.5t10 -57.5zM1637 451q17 84 -25 132t-132 48h-190l-70 -361h190q90 0 150 48.5t77 132.5z" />
    <glyph glyph-name="uni040A" unicode="&#x40a;" horiz-adv-x="2035" 
d="M1339 902h217q221 0 335 -126.5t76 -324.5t-201.5 -324.5t-384.5 -126.5h-468q-37 0 -54.5 20.5t-10.5 57.5l94 483h-455l-96 -497q-12 -64 -79 -64h-185q-37 0 -54.5 20.5t-10.5 57.5l244 1258q12 64 79 64h185q38 0 55 -20.5t10 -57.5l-93 -476h455l95 490q12 64 79 64
h185q38 0 55 -20.5t10 -57.5zM1633 451q17 84 -24.5 132t-132.5 48h-190l-70 -361h190q90 0 150 48.5t77 132.5z" />
    <glyph glyph-name="uni040B" unicode="&#x40b;" horiz-adv-x="1502" 
d="M1082 900q171 0 257 -113.5t51 -296.5l-83 -426q-12 -64 -78 -64h-185q-37 0 -54.5 20.5t-10.5 57.5l70 361q14 72 -17 125.5t-100 53.5q-75 0 -143.5 -59.5t-88.5 -166.5l-64 -328q-12 -64 -78 -64h-186q-37 0 -54.5 20.5t-10.5 57.5l202 1042h-262q-38 0 -55 21t-10 58
l27 137q12 64 79 64h871q38 0 55 -21t10 -58l-27 -137q-12 -64 -79 -64h-277l-68 -349q132 129 309 129z" />
    <glyph glyph-name="uni040C" unicode="&#x40c;" horiz-adv-x="1262" 
d="M929 1876q48 56 102 6l61 -56q55 -52 -2 -102l-245 -212q-52 -45 -101 1l-18 16q-52 48 -6 102zM1276 1400q38 0 55 -21.5t9 -59.5q-108 -467 -369 -630l195 -607q12 -37 -4.5 -59.5t-55.5 -22.5h-213q-62 0 -81 60l-169 534q-15 -1 -50 -1h-100l-102 -529
q-12 -64 -79 -64h-185q-37 0 -54.5 20.5t-10.5 57.5l244 1258q12 64 79 64h185q38 0 55 -20.5t10 -57.5l-87 -444h65q158 0 250 102.5t148 353.5q15 66 79 66h186z" />
    <glyph glyph-name="uni040D" unicode="&#x40d;" horiz-adv-x="1421" 
d="M826 1888q31 21 56.5 14t41.5 -41l105 -224q27 -59 -27 -97l-50 -34q-59 -39 -101 16l-148 193q-45 59 16 101zM1188 64q-12 -64 -79 -64h-162q-37 0 -54.5 20.5t-10.5 57.5l159 821l-615 -854q-32 -45 -87 -45h-212q-37 0 -54.5 20.5t-10.5 57.5l244 1258q12 64 79 64
h161q38 0 55 -20.5t10 -57.5l-160 -821l616 854q32 45 87 45h213q37 0 54.5 -20.5t10.5 -57.5z" />
    <glyph glyph-name="uni040E" unicode="&#x40e;" horiz-adv-x="1315" 
d="M849 1488q-126 0 -213 67.5t-97 176.5q-3 34 17 52t56 18h122q30 0 43 -14t29 -50q23 -48 82 -48q65 0 108 58q20 28 38 41t46 13h109q41 0 59 -23t0 -58q-54 -105 -165 -169t-234 -64zM684 228q-150 -228 -389 -228h-126q-37 0 -54.5 20.5t-10.5 57.5l28 143
q12 65 78 65h66q82 0 134 76l56 82l-244 875q-11 37 6 59t55 22h207q64 0 79 -63l139 -575l367 590q30 48 86 48h194q44 0 57.5 -25t-10.5 -62z" />
    <glyph glyph-name="uni040F" unicode="&#x40f;" horiz-adv-x="1369" 
d="M1050 1336q12 64 79 64h185q37 0 54.5 -20.5t10.5 -57.5l-244 -1258q-12 -64 -79 -64h-306l-42 -216q-12 -64 -79 -64h-186q-38 0 -55 21t-10 58l40 201h-292q-37 0 -54.5 20.5t-10.5 57.5l244 1258q12 64 79 64h186q38 0 55 -20.5t10 -57.5l-202 -1037h413z" />
    <glyph glyph-name="uni0410" unicode="&#x410;" horiz-adv-x="1389" 
d="M981 1400q67 0 77 -66l192 -1257q5 -37 -12 -57t-54 -20h-200q-68 0 -76 67l-27 225h-462l-121 -240q-26 -52 -84 -52h-190q-42 0 -57 24t5 62l684 1263q27 51 86 51h239zM856 551l-58 501l-252 -501h310z" />
    <glyph glyph-name="uni0411" unicode="&#x411;" horiz-adv-x="1254" 
d="M769 901q221 0 335 -126t76 -325q-38 -198 -201.5 -324t-384.5 -126h-468q-37 0 -54.5 20.5t-10.5 57.5l244 1258q12 64 79 64h772q38 0 55 -20.5t10 -57.5l-25 -129q-12 -64 -79 -64h-520l-44 -228h216zM847 450q17 88 -28.5 134t-142.5 46h-176l-70 -360h176
q98 0 161 46t80 134z" />
    <glyph glyph-name="uni0412" unicode="&#x412;" horiz-adv-x="1258" 
d="M127 0q-37 0 -54.5 20.5t-10.5 57.5l244 1258q12 64 79 64h476q194 0 288 -103.5t61 -275.5q-19 -99 -80.5 -174t-147.5 -109q102 -29 153 -117.5t27 -211.5q-35 -179 -176.5 -294t-332.5 -115h-526zM896 989q13 68 -18 106.5t-94 38.5h-196l-56 -290h196q63 0 109 38.5
t59 106.5zM838 427q14 73 -19 117t-100 44h-237l-63 -322h237q66 0 117 44.5t65 116.5z" />
    <glyph glyph-name="uni0413" unicode="&#x413;" horiz-adv-x="1048" 
d="M306 1336q12 64 79 64h725q38 0 55 -20.5t10 -57.5l-28 -144q-12 -64 -79 -64h-474l-203 -1050q-12 -64 -79 -64h-185q-37 0 -54.5 20.5t-10.5 57.5z" />
    <glyph glyph-name="uni0414" unicode="&#x414;" horiz-adv-x="1367" 
d="M1175 -216q-12 -64 -79 -64h-176q-38 0 -55 21t-10 58l40 201h-623l-42 -216q-12 -64 -79 -64h-175q-37 0 -54.5 20.5t-10.5 57.5l78 403q12 65 78 65h35q231 364 334 899l33 171q12 64 79 64h734q38 0 55 -20.5t10 -57.5l-206 -1056h47q37 0 54.5 -20.5t10.5 -57.5z
M819 266l169 868h-240q-45 -232 -124 -460t-183 -408h378z" />
    <glyph glyph-name="uni0415" unicode="&#x415;" horiz-adv-x="1152" 
d="M306 1336q12 64 79 64h746q38 0 55 -21t10 -58l-27 -137q-12 -64 -79 -64h-495l-54 -278h433q37 0 54.5 -20.5t10.5 -57.5l-26 -133q-12 -65 -78 -65h-447l-56 -286h499q37 0 54.5 -20.5t10.5 -57.5l-27 -137q-12 -65 -78 -65h-764q-37 0 -54.5 20.5t-10.5 57.5z" />
    <glyph glyph-name="uni0416" unicode="&#x416;" horiz-adv-x="1846" 
d="M1853 1400q38 0 55 -21.5t9 -59.5q-109 -471 -372 -632l195 -605q12 -37 -4.5 -59.5t-55.5 -22.5h-214q-62 0 -81 59l-169 534q-7 0 -21 -0.5t-21 -0.5h-71l-102 -528q-12 -64 -79 -64h-185q-37 0 -54.5 20.5t-10.5 57.5l100 514h-71q-8 0 -22 0.5t-21 0.5l-385 -548
q-31 -45 -87 -45h-198q-44 0 -57 25t12 62l422 600q-201 161 -121 646q10 67 78 67h186q37 0 54 -21.5t11 -60.5q-38 -242 14.5 -341t208.5 -99h31l89 458q12 64 79 64h185q38 0 55 -20.5t10 -57.5l-87 -444h32q157 0 249.5 101.5t148.5 353.5q15 67 79 67h186z" />
    <glyph glyph-name="uni0417" unicode="&#x417;" horiz-adv-x="1078" 
d="M243 1015q-40 0 -57.5 22.5t-3.5 58.5q57 149 191 238.5t311 89.5q188 0 291 -107.5t73 -264.5q-19 -97 -89.5 -183t-167.5 -127q110 -43 165 -135.5t32 -211.5q-36 -188 -198 -303.5t-375 -115.5q-120 0 -221 52t-167 160q-33 55 20 99l62 50q50 41 101 -10
q89 -88 226 -88q80 0 147 50.5t82 130.5q17 88 -33.5 136t-156.5 48h-70q-37 0 -54.5 20.5t-10.5 57.5l24 122q12 65 78 65h89q68 0 131 48t75 110q11 58 -25.5 95.5t-103.5 37.5q-52 0 -96.5 -23.5t-71.5 -65.5q-18 -30 -36 -43t-47 -13h-114z" />
    <glyph glyph-name="uni0418" unicode="&#x418;" horiz-adv-x="1421" 
d="M1188 64q-12 -64 -79 -64h-162q-37 0 -54.5 20.5t-10.5 57.5l159 821l-615 -854q-32 -45 -87 -45h-212q-37 0 -54.5 20.5t-10.5 57.5l244 1258q12 64 79 64h161q38 0 55 -20.5t10 -57.5l-160 -821l616 854q32 45 87 45h213q37 0 54.5 -20.5t10.5 -57.5z" />
    <glyph glyph-name="uni0419" unicode="&#x419;" horiz-adv-x="1421" 
d="M900 1488q-126 0 -213 67.5t-97 176.5q-3 34 17 52t56 18h122q30 0 43 -14t29 -50q23 -48 82 -48q65 0 108 58q20 28 38 41t46 13h109q41 0 59 -23t0 -58q-54 -105 -165 -169t-234 -64zM1188 64q-12 -64 -79 -64h-162q-37 0 -54.5 20.5t-10.5 57.5l159 821l-615 -854
q-32 -45 -87 -45h-212q-37 0 -54.5 20.5t-10.5 57.5l244 1258q12 64 79 64h161q38 0 55 -20.5t10 -57.5l-160 -821l616 854q32 45 87 45h213q37 0 54.5 -20.5t10.5 -57.5z" />
    <glyph glyph-name="uni041A" unicode="&#x41a;" horiz-adv-x="1262" 
d="M1276 1400q38 0 55 -21.5t9 -59.5q-108 -467 -369 -630l195 -607q12 -37 -4.5 -59.5t-55.5 -22.5h-213q-62 0 -81 60l-169 534q-15 -1 -50 -1h-100l-102 -529q-12 -64 -79 -64h-185q-37 0 -54.5 20.5t-10.5 57.5l244 1258q12 64 79 64h185q38 0 55 -20.5t10 -57.5
l-87 -444h65q158 0 250 102.5t148 353.5q15 66 79 66h186z" />
    <glyph glyph-name="uni041B" unicode="&#x41b;" horiz-adv-x="1448" 
d="M527 375q-38 -198 -164 -288.5t-340 -90.5h-15q-37 1 -53.5 22t-9.5 58l27 140q12 65 68 65q69 0 110.5 36.5t57.5 119.5l175 899q12 64 79 64h931q37 0 54.5 -20.5t10.5 -57.5l-244 -1258q-12 -64 -79 -64h-185q-37 0 -54.5 20.5t-10.5 57.5l201 1036h-415z" />
    <glyph glyph-name="uni041C" unicode="&#x41c;" horiz-adv-x="1725" 
d="M813 218q-63 0 -82 59l-205 611l-160 -824q-12 -64 -78 -64h-161q-37 0 -54.5 20.5t-10.5 57.5l244 1258q12 64 79 64h215q62 0 81 -59l236 -730l532 744q32 45 87 45h208q37 0 54.5 -20.5t10.5 -57.5l-244 -1258q-12 -64 -79 -64h-162q-37 0 -54.5 20.5t-10.5 57.5
l157 810l-452 -625q-32 -45 -87 -45h-64z" />
    <glyph glyph-name="uni041D" unicode="&#x41d;" horiz-adv-x="1421" 
d="M306 1336q12 64 79 64h185q38 0 55 -20.5t10 -57.5l-93 -476h465l95 490q12 64 79 64h186q37 0 54.5 -20.5t10.5 -57.5l-244 -1258q-12 -64 -79 -64h-186q-37 0 -54.5 20.5t-10.5 57.5l94 483h-465l-96 -497q-12 -64 -79 -64h-185q-37 0 -54.5 20.5t-10.5 57.5z" />
    <glyph glyph-name="uni041E" unicode="&#x41e;" horiz-adv-x="1660" 
d="M110 700q39 201 170 367t323 261.5t403 95.5t366 -95.5t222 -261.5t28 -367t-170.5 -367t-323.5 -261.5t-403 -95.5t-366 95.5t-221.5 261.5t-27.5 367zM444 700q-24 -122 12 -222t122 -157t203 -57q179 0 324.5 125t182.5 311q36 186 -61.5 311t-276.5 125t-324.5 -125
t-181.5 -311z" />
    <glyph glyph-name="uni041F" unicode="&#x41f;" horiz-adv-x="1369" 
d="M1136 64q-12 -64 -79 -64h-186q-37 0 -54.5 20.5t-10.5 57.5l201 1036h-413l-203 -1050q-12 -64 -79 -64h-185q-37 0 -54.5 20.5t-10.5 57.5l244 1258q12 64 79 64h930q37 0 54.5 -20.5t10.5 -57.5z" />
    <glyph glyph-name="uni0420" unicode="&#x420;" horiz-adv-x="1214" 
d="M468 468l-78 -403q-12 -65 -78 -65h-186q-37 0 -54.5 20.5t-10.5 57.5l244 1258q12 64 79 64h452q219 0 331 -130.5t72 -335.5q-40 -206 -202.5 -336t-382.5 -130h-186zM911 934q18 91 -25 146.5t-138 55.5h-150l-78 -405h150q95 0 159 55t82 148z" />
    <glyph glyph-name="uni0421" unicode="&#x421;" horiz-adv-x="1515" 
d="M1341 410q54 -47 9 -101q-279 -333 -659 -333q-203 0 -350 95.5t-208.5 261.5t-22.5 367q39 203 162.5 368.5t305 260.5t384.5 95q231 0 375.5 -117t171.5 -328q5 -35 -13.5 -55t-55.5 -20h-208q-32 0 -50 16t-28 49q-25 80 -89.5 123.5t-155.5 43.5q-166 0 -298 -124.5
t-168 -311.5q-37 -187 54 -312t263 -125q240 0 430 186q50 50 102 4z" />
    <glyph glyph-name="uni0422" unicode="&#x422;" horiz-adv-x="1119" 
d="M510 1114h-264q-38 0 -55 20.5t-10 57.5l28 144q12 64 79 64h873q38 0 55 -20.5t10 -57.5l-28 -144q-12 -64 -79 -64h-278l-203 -1050q-12 -64 -79 -64h-185q-37 0 -54.5 20.5t-10.5 57.5z" />
    <glyph glyph-name="uni0423" unicode="&#x423;" horiz-adv-x="1315" 
d="M684 228q-150 -228 -389 -228h-126q-37 0 -54.5 20.5t-10.5 57.5l28 143q12 65 78 65h66q82 0 134 76l56 82l-244 875q-11 37 6 59t55 22h207q64 0 79 -63l139 -575l367 590q30 48 86 48h194q44 0 57.5 -25t-10.5 -62z" />
    <glyph glyph-name="uni0424" unicode="&#x424;" horiz-adv-x="1556" 
d="M559 192q-157 0 -274.5 66.5t-170 182.5t-25.5 257q28 141 125.5 257t241 182.5t300.5 66.5l26 132q12 64 78 64h165q37 0 54.5 -20.5t10.5 -57.5l-23 -118q157 0 274.5 -66.5t170 -182.5t24.5 -257q-27 -141 -125 -257t-241 -182.5t-300 -66.5l-25 -127q-12 -65 -78 -65
h-165q-37 0 -54.5 20.5t-10.5 57.5zM403 698q-19 -97 41 -163.5t168 -66.5l90 459q-108 0 -194 -66.5t-105 -162.5zM1222 698q19 96 -41 162.5t-168 66.5l-90 -459q108 0 194 66.5t105 163.5z" />
    <glyph glyph-name="uni0425" unicode="&#x425;" horiz-adv-x="1301" 
d="M881 0q-62 0 -82 58l-154 432l-332 -446q-33 -44 -88 -44h-193q-46 0 -58.5 26t15.5 62l492 628l-234 601q-14 38 1 60.5t55 22.5h210q61 0 82 -58l138 -399l303 413q33 44 88 44h194q46 0 58.5 -26t-15.5 -62l-464 -596l251 -633q15 -38 -0.5 -60.5t-56.5 -22.5h-210z
" />
    <glyph glyph-name="uni0426" unicode="&#x426;" horiz-adv-x="1398" 
d="M126 0q-37 0 -54.5 20.5t-10.5 57.5l244 1258q12 64 79 64h186q38 0 55 -20.5t10 -57.5l-202 -1037h413l204 1051q12 64 79 64h185q38 0 55 -20.5t10 -57.5l-202 -1037h45q38 0 55 -20.5t10 -57.5l-82 -423q-12 -64 -79 -64h-159q-38 0 -55 21t-10 58l40 201h-816z" />
    <glyph glyph-name="uni0427" unicode="&#x427;" horiz-adv-x="1295" 
d="M796 0q-37 0 -54.5 20.5t-10.5 57.5l103 530q-62 -61 -150.5 -95t-176.5 -34q-174 0 -269 114t-60 295l87 448q12 64 79 64h185q38 0 55 -20.5t10 -57.5l-75 -383q-15 -77 25 -127.5t113 -50.5q84 0 157 60.5t93 164.5l68 350q12 64 79 64h186q37 0 54.5 -20.5
t10.5 -57.5l-244 -1258q-12 -64 -79 -64h-186z" />
    <glyph glyph-name="uni0428" unicode="&#x428;" horiz-adv-x="1975" 
d="M1655 1336q12 64 79 64h186q37 0 54.5 -20.5t10.5 -57.5l-244 -1258q-12 -64 -79 -64h-1535q-37 0 -54.5 20.5t-10.5 57.5l244 1258q12 64 79 64h185q38 0 55 -20.5t10 -57.5l-202 -1036h344l204 1050q12 64 79 64h185q38 0 55 -20.5t10 -57.5l-202 -1036h343z" />
    <glyph glyph-name="uni0429" unicode="&#x429;" horiz-adv-x="2003" 
d="M126 0q-37 0 -54.5 20.5t-10.5 57.5l244 1258q12 64 79 64h186q38 0 55 -20.5t10 -57.5l-202 -1037h343l204 1051q12 64 79 64h186q38 0 55 -20.5t10 -57.5l-202 -1037h343l204 1051q12 64 79 64h185q38 0 55 -20.5t10 -57.5l-202 -1037h46q38 0 55 -20.5t10 -57.5
l-82 -423q-12 -64 -79 -64h-160q-38 0 -55 21t-10 58l40 201h-1421z" />
    <glyph glyph-name="uni042A" unicode="&#x42a;" horiz-adv-x="1465" 
d="M985 901q221 0 335.5 -126t76.5 -325q-38 -198 -202 -324t-385 -126h-467q-37 0 -54.5 20.5t-10.5 57.5l204 1051h-233q-38 0 -55 20.5t-10 57.5l25 129q12 64 79 64h498q37 0 54.5 -20.5t10.5 -57.5l-82 -421h216zM1063 450q17 88 -28 134t-143 46h-176l-70 -360h176
q99 0 161.5 46t79.5 134z" />
    <glyph glyph-name="uni042B" unicode="&#x42b;" horiz-adv-x="1775" 
d="M570 1400q37 0 54.5 -20.5t10.5 -57.5l-82 -421h216q221 0 335 -126t76 -325q-38 -198 -201.5 -324t-384.5 -126h-468q-37 0 -54.5 20.5t-10.5 57.5l244 1258q12 64 79 64h186zM1720 1400q37 0 54.5 -20.5t10.5 -57.5l-244 -1258q-12 -64 -79 -64h-186q-37 0 -54.5 20.5
t-10.5 57.5l244 1258q12 64 79 64h186zM847 450q17 88 -28 134t-143 46h-176l-70 -360h176q98 0 161 46t80 134z" />
    <glyph glyph-name="uni042C" unicode="&#x42c;" horiz-adv-x="1249" 
d="M570 1400q38 0 55 -20.5t10 -57.5l-82 -420h216q221 0 335.5 -126.5t76.5 -324.5t-202 -324.5t-385 -126.5h-467q-37 0 -54.5 20.5t-10.5 57.5l244 1258q12 64 79 64h185zM847 451q17 84 -25 132t-132 48h-190l-70 -361h190q91 0 150.5 48t76.5 133z" />
    <glyph glyph-name="uni042D" unicode="&#x42d;" horiz-adv-x="1515" 
d="M207 460q58 39 99 -24q118 -173 349 -173q141 0 263 85.5t184 224.5h-511q-37 0 -54.5 20.5t-10.5 57.5l21 111q12 64 79 64h525q-6 138 -89.5 224t-217.5 86q-92 0 -177 -48t-141 -133q-32 -51 -86 -51h-197q-42 0 -57.5 24t3.5 62q110 206 296.5 320t411.5 114
q203 0 349.5 -95.5t207.5 -261t22 -367.5q-39 -201 -165.5 -367t-310 -261.5t-384.5 -95.5q-380 0 -531 327q-26 60 30 97z" />
    <glyph glyph-name="uni042E" unicode="&#x42e;" horiz-adv-x="2182" 
d="M391 64q-12 -64 -79 -64h-185q-37 0 -54.5 20.5t-10.5 57.5l244 1258q12 64 79 64h185q38 0 55 -20.5t10 -57.5l-93 -476h145q100 253 335.5 415.5t511.5 162.5q156 0 284 -56.5t209.5 -152.5t113.5 -230.5t3 -284.5q-39 -201 -170.5 -367t-322 -261.5t-398.5 -95.5
q-278 0 -451 164.5t-173 420.5h-142zM976 700q-37 -185 60 -310.5t273 -125.5q175 0 320 125.5t182 310.5q36 185 -61 310.5t-272 125.5q-176 0 -321 -125.5t-181 -310.5z" />
    <glyph glyph-name="uni042F" unicode="&#x42f;" horiz-adv-x="1247" 
d="M1192 1400q37 0 54.5 -20.5t10.5 -57.5l-244 -1258q-12 -64 -79 -64h-182q-37 0 -54.5 20.5t-10.5 57.5l79 410h-83l-340 -445q-33 -43 -88 -43h-192q-46 0 -58.5 26t15.5 62l349 444q-121 48 -173.5 156t-24.5 256q40 204 201.5 330t381.5 126h438zM736 1136
q-93 0 -157 -54.5t-82 -145.5q-17 -90 26 -144.5t136 -54.5h156l77 399h-156z" />
    <glyph glyph-name="uni0430" unicode="&#x430;" horiz-adv-x="1319" 
d="M61 518q45 230 213 386t380 156q198 0 302 -138l10 49q12 65 78 65h170q37 0 54.5 -20.5t10.5 -57.5l-173 -894q-12 -64 -79 -64h-170q-37 0 -54.5 20.5t-10.5 57.5l7 36q-157 -138 -356 -138q-140 0 -238 72t-135.5 195.5t-8.5 274.5zM380 518q-22 -111 35 -185.5
t162 -74.5t191.5 74.5t108.5 185.5q22 110 -36 185t-163 75q-104 0 -190 -75t-108 -185z" />
    <glyph glyph-name="uni0431" unicode="&#x431;" horiz-adv-x="1240" 
d="M506 866q122 90 272 90q137 0 236.5 -64t141.5 -175.5t16 -245.5q-27 -139 -120 -252t-231.5 -178t-293.5 -65q-116 0 -208 38.5t-153.5 115t-82 190.5t7.5 264q43 221 110.5 371.5t177.5 254.5t259.5 160.5t363.5 81.5q37 4 57 -14t19 -55l-4 -138q-1 -64 -116 -81
q-145 -21 -232.5 -56.5t-137 -91.5t-82.5 -150zM403 539q-26 -139 24.5 -210t154.5 -71q101 0 177.5 59t93.5 149q17 89 -34.5 148.5t-145.5 59.5q-150 0 -270 -135z" />
    <glyph glyph-name="uni0432" unicode="&#x432;" horiz-adv-x="1051" 
d="M106 0q-37 0 -54.5 20.5t-10.5 57.5l173 894q12 64 79 64h383q150 0 235.5 -82.5t61.5 -204.5q-13 -66 -60.5 -120t-115.5 -79q77 -20 116 -89.5t22 -152.5q-25 -130 -148.5 -219t-279.5 -89h-401zM565 636q45 0 77.5 24t40.5 61q7 37 -17 60.5t-68 23.5h-128l-33 -169
h128zM397 428l-39 -198h149q50 0 88 28t46 71q9 43 -18 71t-77 28h-149z" />
    <glyph glyph-name="uni0433" unicode="&#x433;" horiz-adv-x="852" 
d="M494 754l-134 -690q-12 -64 -78 -64h-176q-37 0 -54.5 20.5t-10.5 57.5l173 894q12 64 79 64h538q38 0 55 -20.5t10 -57.5l-27 -140q-12 -64 -79 -64h-296z" />
    <glyph glyph-name="uni0434" unicode="&#x434;" horiz-adv-x="1146" 
d="M975 -148q-12 -64 -79 -64h-145q-38 0 -54.5 21t-9.5 58l26 133h-481l-29 -148q-12 -64 -79 -64h-144q-38 0 -55 20.5t-10 57.5l59 304q12 64 79 64h34q177 265 277 737q13 65 78 65h569q38 0 55 -20.5t10 -57.5l-141 -724h34q37 0 54.5 -20.5t10.5 -57.5zM647 234
l110 567h-145q-27 -142 -84.5 -294.5t-130.5 -272.5h250z" />
    <glyph glyph-name="uni0435" unicode="&#x435;" horiz-adv-x="1237" 
d="M366 429q-2 -99 60.5 -155t177.5 -56q161 0 300 85q60 38 100 -18l26 -37q40 -58 -12 -101q-213 -171 -465 -171q-175 0 -298.5 72t-173 195t-20.5 275q29 150 127.5 274.5t243 196t303.5 71.5q155 0 267.5 -70.5t159 -190.5t18.5 -264q-5 -28 -13 -50q-17 -56 -82 -56
h-719zM684 818q-88 0 -160.5 -49.5t-113.5 -136.5h462q-2 87 -51 136.5t-137 49.5z" />
    <glyph glyph-name="uni0436" unicode="&#x436;" horiz-adv-x="1638" 
d="M419 1036q74 0 65 -82q-27 -250 145 -250h65l52 268q12 64 79 64h176q38 0 55 -20.5t10 -57.5l-50 -254h64q177 0 248 266q18 66 80 66h176q38 0 55.5 -21.5t7.5 -59.5q-83 -325 -281 -448l138 -425q12 -37 -4.5 -59.5t-55.5 -22.5h-201q-63 0 -81 61l-107 367h-92
l-70 -364q-12 -64 -79 -64h-176q-37 0 -54.5 20.5t-10.5 57.5l68 350h-92l-260 -382q-31 -46 -87 -46h-187q-44 0 -57.5 26t12.5 62l297 419q-153 125 -104 462q10 67 78 67h178z" />
    </font>
</defs>
</svg>
